<?xml version="1.0" encoding="UTF-8" standalone="no"?>
<svg
   xmlns:dc="http://purl.org/dc/elements/1.1/"
   xmlns:cc="http://creativecommons.org/ns#"
   xmlns:rdf="http://www.w3.org/1999/02/22-rdf-syntax-ns#"
   xmlns:svg="http://www.w3.org/2000/svg"
   xmlns="http://www.w3.org/2000/svg"
   xmlns:xlink="http://www.w3.org/1999/xlink"
   xmlns:sodipodi="http://sodipodi.sourceforge.net/DTD/sodipodi-0.dtd"
   xmlns:inkscape="http://www.inkscape.org/namespaces/inkscape"
   inkscape:version="1.0rc1 (09960d6, 2020-04-09)"
   sodipodi:docname="icon-dashboard.svg"
   xml:space="preserve"
   style="enable-background:new 0 0 16 16;"
   viewBox="0 0 16 16"
   height="16px"
   width="16px"
   y="0px"
   x="0px"
   id="Layer_1"
   version="1.1"><metadata
   id="metadata6001"><rdf:RDF><cc:Work
       rdf:about=""><dc:format>image/svg+xml</dc:format><dc:type
         rdf:resource="http://purl.org/dc/dcmitype/StillImage" /></cc:Work></rdf:RDF></metadata><defs
   id="defs5999" /><sodipodi:namedview
   inkscape:current-layer="Layer_1"
   inkscape:window-maximized="0"
   inkscape:window-y="23"
   inkscape:window-x="0"
   inkscape:cy="8"
   inkscape:cx="-0.76470588"
   inkscape:zoom="17"
   showgrid="false"
   id="namedview5997"
   inkscape:window-height="751"
   inkscape:window-width="1266"
   inkscape:pageshadow="2"
   inkscape:pageopacity="0"
   guidetolerance="10"
   gridtolerance="10"
   objecttolerance="10"
   borderopacity="1"
   bordercolor="#666666"
   pagecolor="#ffffff" />
<style
   id="style5952"
   type="text/css">
	.st0{fill:#6CD9B6;}
</style>
<path
   style="fill:#00b48f;fill-opacity:1"
   id="path5954"
   d="M3,4.7c0.5,2.9,1.9,5.5,4,7.4c0.1,0,0.2-0.1,0.3-0.1h1c0.6,0,1,0.4,1,1l0.5,2.5c0.7,0,4.5,0,4.5,0l0.4-1.6  L14.3,6L7.8,1L3,4.7z"
   class="st0" />
<g
   id="g5964">
	<defs
   id="defs5957">
		<path
   d="M2,5.7v8.8C2,14.8,2.2,15,2.5,15h3C5.8,15,6,14.8,6,14.5v-2C6,11.6,6.6,11,7.5,11h1c0.9,0,1.5,0.6,1.5,1.5    v2c0,0.3,0.2,0.5,0.5,0.5h3c0.3,0,0.5-0.2,0.5-0.5V5.7L8,1.1L2,5.7z M1,5.5c0-0.2,0.1-0.3,0.2-0.4l6.5-5C7.9,0,8.1,0,8.3,0.1    l6.5,5C14.9,5.2,15,5.3,15,5.5v9c0,0.9-0.6,1.5-1.5,1.5h-3C9.6,16,9,15.4,9,14.5v-2C9,12.2,8.8,12,8.5,12h-1C7.2,12,7,12.2,7,12.5    v2C7,15.4,6.4,16,5.5,16h-3C1.6,16,1,15.4,1,14.5V5.5z"
   id="SVGID_1_" />
	</defs>
	<use
   id="use5959"
   style="overflow:visible;fill:#354C55;"
   xlink:href="#SVGID_1_" />
	<clipPath
   id="SVGID_2_">
		<use
   id="use5961"
   style="overflow:visible;"
   xlink:href="#SVGID_1_" />
	</clipPath>
</g>
<g
   id="g5974">
	<defs
   id="defs5967">
		<path
   d="M8,1.1L0.8,6.9C0.6,7.1,0.3,7,0.1,6.8C-0.1,6.6,0,6.3,0.2,6.1l7.5-6C7.9,0,8.1,0,8.3,0.1l7.5,6    c0.2,0.2,0.3,0.5,0.1,0.7c-0.2,0.2-0.5,0.3-0.7,0.1L8,1.1z"
   id="SVGID_3_" />
	</defs>
	<use
   id="use5969"
   style="overflow:visible;fill:#354C55;"
   xlink:href="#SVGID_3_" />
	<clipPath
   id="SVGID_4_">
		<use
   id="use5971"
   style="overflow:visible;"
   xlink:href="#SVGID_3_" />
	</clipPath>
</g>
<g
   id="g5984">
	<defs
   id="defs5977">
		<path
   d="M7.5,5h1C9.4,5,10,5.6,10,6.5v1C10,8.4,9.4,9,8.5,9h-1C6.6,9,6,8.4,6,7.5v-1C6,5.6,6.6,5,7.5,5z M7.5,6    C7.2,6,7,6.2,7,6.5v1C7,7.8,7.2,8,7.5,8h1C8.8,8,9,7.8,9,7.5v-1C9,6.2,8.8,6,8.5,6H7.5z"
   id="SVGID_5_" />
	</defs>
	<use
   id="use5979"
   style="overflow:visible;fill:#354C55;"
   xlink:href="#SVGID_5_" />
	<clipPath
   id="SVGID_6_">
		<use
   id="use5981"
   style="overflow:visible;"
   xlink:href="#SVGID_5_" />
	</clipPath>
</g>
<g
   id="g5994">
	<defs
   id="defs5987">
		<path
   d="M4,4.1c0,0.3-0.2,0.5-0.5,0.5S3,4.4,3,4.1V1.5C3,1.2,3.2,1,3.5,1S4,1.2,4,1.5V4.1z"
   id="SVGID_7_" />
	</defs>
	<use
   id="use5989"
   style="overflow:visible;fill:#354C55;"
   xlink:href="#SVGID_7_" />
	<clipPath
   id="SVGID_8_">
		<use
   id="use5991"
   style="overflow:visible;"
   xlink:href="#SVGID_7_" />
	</clipPath>
</g>
</svg>
