<?xml version="1.0" encoding="UTF-8" standalone="no"?>
<svg
   xmlns:dc="http://purl.org/dc/elements/1.1/"
   xmlns:cc="http://creativecommons.org/ns#"
   xmlns:rdf="http://www.w3.org/1999/02/22-rdf-syntax-ns#"
   xmlns:svg="http://www.w3.org/2000/svg"
   xmlns="http://www.w3.org/2000/svg"
   xmlns:sodipodi="http://sodipodi.sourceforge.net/DTD/sodipodi-0.dtd"
   xmlns:inkscape="http://www.inkscape.org/namespaces/inkscape"
   inkscape:version="1.0rc1 (09960d6, 2020-04-09)"
   sodipodi:docname="icon-payments-2.svg"
   id="svg5383"
   version="1.1"
   viewBox="0 0 16 16"
   height="16"
   width="16">
  <metadata
     id="metadata5389">
    <rdf:RDF>
      <cc:Work
         rdf:about="">
        <dc:format>image/svg+xml</dc:format>
        <dc:type
           rdf:resource="http://purl.org/dc/dcmitype/StillImage" />
      </cc:Work>
    </rdf:RDF>
  </metadata>
  <defs
     id="defs5387" />
  <sodipodi:namedview
     inkscape:current-layer="Layer_1"
     inkscape:window-maximized="0"
     inkscape:window-y="23"
     inkscape:window-x="0"
     inkscape:cy="8"
     inkscape:cx="-0.76470588"
     inkscape:zoom="17"
     showgrid="false"
     id="namedview5385"
     inkscape:window-height="773"
     inkscape:window-width="1158"
     inkscape:pageshadow="2"
     inkscape:pageopacity="0"
     guidetolerance="10"
     gridtolerance="10"
     objecttolerance="10"
     borderopacity="1"
     bordercolor="#666666"
     pagecolor="#ffffff" />
  <title
     id="title5374">icon-payments</title>
  <g
     data-name="Layer 1"
     id="Layer_1">
    <path
       style="fill:#00b48f;fill-opacity:1"
       inkscape:connector-curvature="0"
       id="path5376"
       fill="#6cd9b6"
       d="M 15.5,15 V 5.5 a 1,1 0 0 0 -1,-1 H 3.2 A 13.22,13.22 0 0 0 15.5,15 Z" />
    <path
       inkscape:connector-curvature="0"
       id="path5378"
       fill="#354c55"
       d="M 0,2.5 A 2.5,2.5 0 0 1 2.5,0 h 8 A 1.44,1.44 0 0 1 12,1.5 v 1 a 0.5,0.5 0 0 1 -1,0 v -1 A 0.45,0.45 0 0 0 10.5,1 h -8 a 1.5,1.5 0 0 0 0,3 h 12 A 1.5,1.5 0 0 1 16,5.5 v 9 A 1.5,1.5 0 0 1 14.5,16 H 2.5 A 2.5,2.5 0 0 1 0,13.5 Z m 1,11 A 1.51,1.51 0 0 0 2.5,15 h 12 A 0.5,0.5 0 0 0 15,14.5 v -9 A 0.5,0.5 0 0 0 14.5,5 H 2.5 A 2.53,2.53 0 0 1 1,4.5 Z" />
    <path
       inkscape:connector-curvature="0"
       id="path5380"
       fill="#354c55"
       d="m 10.5,8 h 1 A 1.44,1.44 0 0 1 13,9.5 v 1 A 1.44,1.44 0 0 1 11.5,12 h -1 A 1.44,1.44 0 0 1 9,10.5 v -1 A 1.44,1.44 0 0 1 10.5,8 Z m 0,1 A 0.45,0.45 0 0 0 10,9.5 v 1 a 0.45,0.45 0 0 0 0.5,0.5 h 1 A 0.45,0.45 0 0 0 12,10.5 v -1 A 0.45,0.45 0 0 0 11.5,9 Z" />
  </g>
</svg>
