<?xml version="1.0" encoding="UTF-8" standalone="no"?>
<svg
   xmlns:dc="http://purl.org/dc/elements/1.1/"
   xmlns:cc="http://creativecommons.org/ns#"
   xmlns:rdf="http://www.w3.org/1999/02/22-rdf-syntax-ns#"
   xmlns:svg="http://www.w3.org/2000/svg"
   xmlns="http://www.w3.org/2000/svg"
   xmlns:sodipodi="http://sodipodi.sourceforge.net/DTD/sodipodi-0.dtd"
   xmlns:inkscape="http://www.inkscape.org/namespaces/inkscape"
   inkscape:version="1.0rc1 (09960d6, 2020-04-09)"
   sodipodi:docname="icon-customers.svg"
   id="svg4805"
   version="1.1"
   viewBox="0 0 16 16"
   height="16"
   width="16">
  <metadata
     id="metadata4811">
    <rdf:RDF>
      <cc:Work
         rdf:about="">
        <dc:format>image/svg+xml</dc:format>
        <dc:type
           rdf:resource="http://purl.org/dc/dcmitype/StillImage" />
      </cc:Work>
    </rdf:RDF>
  </metadata>
  <defs
     id="defs4809" />
  <sodipodi:namedview
     inkscape:current-layer="Layer_1"
     inkscape:window-maximized="0"
     inkscape:window-y="23"
     inkscape:window-x="0"
     inkscape:cy="8"
     inkscape:cx="-0.76470588"
     inkscape:zoom="17"
     showgrid="false"
     id="namedview4807"
     inkscape:window-height="773"
     inkscape:window-width="1132"
     inkscape:pageshadow="2"
     inkscape:pageopacity="0"
     guidetolerance="10"
     gridtolerance="10"
     objecttolerance="10"
     borderopacity="1"
     bordercolor="#666666"
     pagecolor="#ffffff" />
  <title
     id="title4792">icon-customers</title>
  <g
     data-name="Layer 1"
     id="Layer_1">
    <circle
       style="fill:#00b48f;fill-opacity:1"
       id="circle4794"
       fill="#6cd9b6"
       r="3"
       cy="5.5"
       cx="5.5" />
    <path
       id="path4796"
       fill="#354c55"
       d="M11,15.5a.5.5,0,0,1-1,0v-2A2.74,2.74,0,0,0,7.5,11h-4A2.74,2.74,0,0,0,1,13.5v2a.5.5,0,0,1-.5.5.5.5,0,0,1-.5-.5v-2A3.72,3.72,0,0,1,3.5,10h4A3.72,3.72,0,0,1,11,13.5Z" />
    <path
       id="path4798"
       fill="#354c55"
       d="M5.5,2A3.5,3.5,0,1,0,9,5.5,3.5,3.5,0,0,0,5.5,2Zm0,6A2.5,2.5,0,1,1,8,5.5,2.5,2.5,0,0,1,5.5,8Z" />
    <path
       id="path4800"
       fill="#354c55"
       d="M12.29,11.16a.51.51,0,0,1,.42-.92A3.76,3.76,0,0,1,15,13.5v2a.5.5,0,0,1-1,0v-2A2.77,2.77,0,0,0,12.29,11.16Z" />
    <path
       id="path4802"
       fill="#354c55"
       d="M10.66,8.77a.5.5,0,0,1-.32-.94A2.43,2.43,0,0,0,12,5.5a2.43,2.43,0,0,0-1.66-2.33.5.5,0,1,1,.32-.94A3.4,3.4,0,0,1,13,5.5,3.4,3.4,0,0,1,10.66,8.77Z" />
  </g>
</svg>
