<?xml version="1.0" encoding="UTF-8" standalone="no"?>
<svg
   xmlns:dc="http://purl.org/dc/elements/1.1/"
   xmlns:cc="http://creativecommons.org/ns#"
   xmlns:rdf="http://www.w3.org/1999/02/22-rdf-syntax-ns#"
   xmlns:svg="http://www.w3.org/2000/svg"
   xmlns="http://www.w3.org/2000/svg"
   xmlns:sodipodi="http://sodipodi.sourceforge.net/DTD/sodipodi-0.dtd"
   xmlns:inkscape="http://www.inkscape.org/namespaces/inkscape"
   inkscape:version="1.0rc1 (09960d6, 2020-04-09)"
   sodipodi:docname="icon-data-analysis-2.svg"
   id="svg4223"
   version="1.1"
   viewBox="0 0 16 16"
   height="16"
   width="16">
  <metadata
     id="metadata4229">
    <rdf:RDF>
      <cc:Work
         rdf:about="">
        <dc:format>image/svg+xml</dc:format>
        <dc:type
           rdf:resource="http://purl.org/dc/dcmitype/StillImage" />
      </cc:Work>
    </rdf:RDF>
  </metadata>
  <defs
     id="defs4227" />
  <sodipodi:namedview
     inkscape:current-layer="Layer_1"
     inkscape:window-maximized="0"
     inkscape:window-y="194"
     inkscape:window-x="-14"
     inkscape:cy="8"
     inkscape:cx="-0.76470588"
     inkscape:zoom="17"
     showgrid="false"
     id="namedview4225"
     inkscape:window-height="465"
     inkscape:window-width="1158"
     inkscape:pageshadow="2"
     inkscape:pageopacity="0"
     guidetolerance="10"
     gridtolerance="10"
     objecttolerance="10"
     borderopacity="1"
     bordercolor="#666666"
     pagecolor="#ffffff" />
  <title
     id="title4212">icon-data-analysis</title>
  <g
     data-name="Layer 1"
     id="Layer_1">
    <path
       style="stroke-width:1;fill:#00b48f;fill-opacity:1"
       inkscape:connector-curvature="0"
       id="path4214"
       fill="#6cd9b6"
       d="M 15.5,15 V 5.5 a 0.94,0.94 0 0 0 -1,-1 H 3.2 A 13.22,13.22 0 0 0 15.5,15 Z" />
    <path
       id="path4216"
       fill="#354c55"
       d="M2.5,2a.5.5,0,0,1,0-1h11a.5.5,0,0,1,0,1Z" />
    <path
       id="path4218"
       fill="#354c55"
       d="M11,7.5a.5.5,0,0,1,1,0v1A1.44,1.44,0,0,1,10.5,10h-5A1.44,1.44,0,0,1,4,8.5v-1a.5.5,0,0,1,1,0v1a.45.45,0,0,0,.5.5h5a.45.45,0,0,0,.5-.5Z" />
    <path
       id="path4220"
       fill="#354c55"
       d="M1.5,4h13A1.44,1.44,0,0,1,16,5.5v9A1.44,1.44,0,0,1,14.5,16H1.5A1.44,1.44,0,0,1,0,14.5v-9A1.44,1.44,0,0,1,1.5,4Zm0,1a.45.45,0,0,0-.5.5v9a.45.45,0,0,0,.5.5h13a.45.45,0,0,0,.5-.5v-9a.45.45,0,0,0-.5-.5Z" />
  </g>
</svg>
