<?xml version="1.0" encoding="UTF-8" standalone="no"?>
<svg
   xmlns:dc="http://purl.org/dc/elements/1.1/"
   xmlns:cc="http://creativecommons.org/ns#"
   xmlns:rdf="http://www.w3.org/1999/02/22-rdf-syntax-ns#"
   xmlns:svg="http://www.w3.org/2000/svg"
   xmlns="http://www.w3.org/2000/svg"
   xmlns:sodipodi="http://sodipodi.sourceforge.net/DTD/sodipodi-0.dtd"
   xmlns:inkscape="http://www.inkscape.org/namespaces/inkscape"
   inkscape:version="1.0rc1 (09960d6, 2020-04-09)"
   sodipodi:docname="hub-icon-settings.svg"
   id="svg842"
   version="1.1"
   viewBox="0 0 16 16"
   height="16"
   width="16">
  <metadata
     id="metadata848">
    <rdf:RDF>
      <cc:Work
         rdf:about="">
        <dc:format>image/svg+xml</dc:format>
        <dc:type
           rdf:resource="http://purl.org/dc/dcmitype/StillImage" />
      </cc:Work>
    </rdf:RDF>
  </metadata>
  <defs
     id="defs846" />
  <sodipodi:namedview
     inkscape:current-layer="Layer_1"
     inkscape:window-maximized="0"
     inkscape:window-y="23"
     inkscape:window-x="0"
     inkscape:cy="5.6276962"
     inkscape:cx="15.16073"
     inkscape:zoom="30.17961"
     showgrid="false"
     id="namedview844"
     inkscape:window-height="773"
     inkscape:window-width="1296"
     inkscape:pageshadow="2"
     inkscape:pageopacity="0"
     guidetolerance="10"
     gridtolerance="10"
     objecttolerance="10"
     borderopacity="1"
     bordercolor="#666666"
     pagecolor="#ffffff" />
  <title
     id="title833">icon-settings</title>
  <g
     data-name="Layer 1"
     id="Layer_1">
    <path
       style="fill:#00b48f;fill-opacity:1"
       inkscape:connector-curvature="0"
       id="path835"
       fill="#6cd9b6"
       d="M 12.8,5.3 14.4,3.7 12.3,1.6 10.7,3.2 A 6.12,6.12 0 0 0 9.5,2.7 V 0.5 h -3 V 2.7 A 6.12,6.12 0 0 0 5.3,3.2 L 3.7,1.6 3,2.4 a 12.88,12.88 0 0 0 6.5,10.9 3.7,3.7 0 0 0 1.1,-0.5 l 1.6,1.6 2.1,-2.1 -1.6,-1.6 a 6.12,6.12 0 0 0 0.5,-1.2 h 2.2 v -3 H 13.2 A 2.84,2.84 0 0 0 12.8,5.3 Z" />
    <path
       inkscape:connector-curvature="0"
       id="path837"
       fill="#354c55"
       d="M 8,10 A 2,2 0 1 0 6,8 2,2 0 0 0 8,10 Z m 0,1 a 3,3 0 1 1 3,-3 3,3 0 0 1 -3,3 z" />
    <path
       inkscape:connector-curvature="0"
       id="path839"
       fill="#354c55"
       d="M 15,7 H 13.3 A 0.51,0.51 0 0 1 12.81,6.62 5,5 0 0 0 12.35,5.52 0.49,0.49 0 0 1 12.45,4.95 L 13.69,3.7 12.3,2.31 11.05,3.55 a 0.49,0.49 0 0 1 -0.57,0.1 L 9.9,3.37 A 2.49,2.49 0 0 0 9.38,3.19 0.51,0.51 0 0 1 9,2.7 V 1 H 7 V 2.7 A 0.51,0.51 0 0 1 6.62,3.19 2.49,2.49 0 0 0 6.1,3.37 L 5.52,3.65 A 0.49,0.49 0 0 1 5,3.55 L 3.7,2.31 2.31,3.7 3.55,5 A 0.49,0.49 0 0 1 3.65,5.57 5,5 0 0 0 3.19,6.67 0.51,0.51 0 0 1 2.7,7 H 1 v 2 h 1.7 a 0.51,0.51 0 0 1 0.49,0.38 1.94,1.94 0 0 0 0.05,0.2 8.67,8.67 0 0 0 0.41,0.9 0.49,0.49 0 0 1 -0.1,0.57 L 2.31,12.3 3.7,13.69 5,12.45 a 0.49,0.49 0 0 1 0.57,-0.1 l 0.58,0.28 A 2.49,2.49 0 0 0 6.67,12.81 0.51,0.51 0 0 1 7,13.3 V 15 H 9 V 13.3 A 0.51,0.51 0 0 1 9.38,12.81 2.49,2.49 0 0 0 9.9,12.63 l 0.58,-0.28 a 0.49,0.49 0 0 1 0.57,0.1 l 1.25,1.24 1.39,-1.39 -1.24,-1.25 a 0.49,0.49 0 0 1 -0.1,-0.57 l 0.15,-0.3 A 3.86,3.86 0 0 0 12.81,9.38 0.51,0.51 0 0 1 13.3,9 H 15 Z M 13.67,6 H 15.5 A 0.5,0.5 0 0 1 16,6.5 v 3 A 0.5,0.5 0 0 1 15.5,10 h -1.83 c -0.07,0.18 -0.15,0.38 -0.26,0.6 l 1.34,1.4 a 0.48,0.48 0 0 1 0,0.7 l -2.1,2.1 a 0.48,0.48 0 0 1 -0.7,0 L 10.6,13.41 10.3,13.55 10,13.67 V 15.5 A 0.5,0.5 0 0 1 9.5,16 h -3 A 0.5,0.5 0 0 1 6,15.5 V 13.67 L 5.7,13.55 5.4,13.41 4.05,14.75 a 0.48,0.48 0 0 1 -0.7,0 l -2.1,-2.1 a 0.48,0.48 0 0 1 0,-0.7 L 2.59,10.6 C 2.47,10.35 2.4,10.18 2.33,10 H 0.5 A 0.5,0.5 0 0 1 0,9.5 v -3 A 0.5,0.5 0 0 1 0.5,6 H 2.33 C 2.39,5.83 2.48,5.64 2.59,5.4 L 1.25,4.05 a 0.48,0.48 0 0 1 0,-0.7 l 2.1,-2.1 a 0.48,0.48 0 0 1 0.7,0 L 5.4,2.59 5.7,2.45 6,2.33 V 0.5 A 0.5,0.5 0 0 1 6.5,0 h 3 A 0.5,0.5 0 0 1 10,0.5 v 1.83 l 0.3,0.12 0.3,0.14 1.4,-1.34 a 0.48,0.48 0 0 1 0.7,0 l 2.1,2.1 a 0.48,0.48 0 0 1 0,0.7 L 13.41,5.4 c 0.11,0.24 0.2,0.43 0.26,0.6 z" />
  </g>
</svg>
