<svg width="48" height="48" viewBox="0 0 48 48" fill="none" xmlns="http://www.w3.org/2000/svg">
<path d="M4.5 28.5H43.5L45.7823 39.9117C46.1536 41.768 44.7337 43.5 42.8406 43.5H5.15941C3.26627 43.5 1.84639 41.768 2.21767 39.9117L4.5 28.5Z" fill="#2BD19D"/>
<path fill-rule="evenodd" clip-rule="evenodd" d="M10.5002 3.5C6.63416 3.5 3.50015 6.63401 3.50015 10.5V28.401L1.23724 39.7155C0.742206 42.1907 2.63538 44.5 5.15956 44.5H42.8407C45.3649 44.5 47.2581 42.1907 46.7631 39.7155L44.5002 28.401V10.5C44.5002 6.63401 41.3661 3.5 37.5002 3.5H10.5002ZM42.6803 29.5H5.31995L3.1984 40.1078C2.95088 41.3454 3.89747 42.5 5.15956 42.5H42.8407C44.1028 42.5 45.0494 41.3454 44.8019 40.1078L42.6803 29.5ZM42.5002 27.5V10.5C42.5002 7.73858 40.2616 5.5 37.5002 5.5H10.5002C7.73873 5.5 5.50015 7.73858 5.50015 10.5V27.5H42.5002ZM31.5002 9.5C32.0524 9.5 32.5002 9.94772 32.5002 10.5V22.5C32.5002 23.0523 32.0524 23.5 31.5002 23.5C30.9479 23.5 30.5002 23.0523 30.5002 22.5V10.5C30.5002 9.94772 30.9479 9.5 31.5002 9.5ZM25.5002 12.5C26.0524 12.5 26.5002 12.9477 26.5002 13.5V22.5C26.5002 23.0523 26.0524 23.5 25.5002 23.5C24.9479 23.5 24.5002 23.0523 24.5002 22.5V13.5C24.5002 12.9477 24.9479 12.5 25.5002 12.5ZM37.5002 15.5C38.0524 15.5 38.5002 15.9477 38.5002 16.5V22.5C38.5002 23.0523 38.0524 23.5 37.5002 23.5C36.9479 23.5 36.5002 23.0523 36.5002 22.5V16.5C36.5002 15.9477 36.9479 15.5 37.5002 15.5ZM10.5002 15.5C9.94787 15.5 9.50015 15.9477 9.50015 16.5C9.50015 17.0523 9.94787 17.5 10.5002 17.5H16.5002C17.0524 17.5 17.5002 17.0523 17.5002 16.5C17.5002 15.9477 17.0524 15.5 16.5002 15.5H10.5002ZM9.50015 22.5C9.50015 21.9477 9.94787 21.5 10.5002 21.5H13.5002C14.0524 21.5 14.5002 21.9477 14.5002 22.5C14.5002 23.0523 14.0524 23.5 13.5002 23.5H10.5002C9.94787 23.5 9.50015 23.0523 9.50015 22.5ZM22.5002 36.5C21.9479 36.5 21.5002 36.9477 21.5002 37.5C21.5002 38.0523 21.9479 38.5 22.5002 38.5H25.5002C26.0524 38.5 26.5002 38.0523 26.5002 37.5C26.5002 36.9477 26.0524 36.5 25.5002 36.5H22.5002Z" fill="#354C55"/>
</svg>
