<svg width="52" height="48" viewBox="0 0 52 48" fill="none" xmlns="http://www.w3.org/2000/svg">
<path d="M49.5999 44.7999V14.4C49.5999 12.64 48.1599 11.2 46.3999 11.2H10.3999C14.0799 30.1439 30.3359 44.0319 49.5999 44.7999Z" fill="#6CD9B6"/>
<path d="M8 1.59998H43.2" stroke="#354C55" stroke-width="2" stroke-linecap="round" stroke-linejoin="round"/>
<path d="M36.7999 20.7999V23.9999C36.7999 25.7599 35.3599 27.1999 33.5999 27.1999H17.5999C15.8399 27.1999 14.3999 25.7599 14.3999 23.9999V20.7999" stroke="#354C55" stroke-width="2" stroke-linecap="round" stroke-linejoin="round"/>
<path d="M4.8001 11.2H46.4001C48.1601 11.2 49.6001 12.64 49.6001 14.4V43.1999C49.6001 44.9599 48.1601 46.3999 46.4001 46.3999H4.8001C3.0401 46.3999 1.6001 44.9599 1.6001 43.1999V14.4C1.6001 12.64 3.0401 11.2 4.8001 11.2Z" stroke="#354C55" stroke-width="2" stroke-linecap="round" stroke-linejoin="round"/>
</svg>