<svg width="48" height="48" viewBox="0 0 48 48" fill="none" xmlns="http://www.w3.org/2000/svg">
<path d="M46.5 45V16.5C46.5 14.85 45.15 13.5 43.5 13.5H9.75C13.2 31.26 28.44 44.28 46.5 45Z" fill="#6CD9B6"/>
<path d="M1.5 7.5V40.5C1.5 43.8 4.2 46.5 7.5 46.5H43.5C45.15 46.5 46.5 45.15 46.5 43.5V16.5C46.5 14.85 45.15 13.5 43.5 13.5H7.5C4.2 13.5 1.5 10.8 1.5 7.5ZM1.5 7.5C1.5 4.2 4.2 1.5 7.5 1.5H31.5C33.15 1.5 34.5 2.85 34.5 4.5V7.5" stroke="#354C55" stroke-width="2" stroke-linecap="round" stroke-linejoin="round"/>
<path d="M31.5 25.5H34.5C36.15 25.5 37.5 26.85 37.5 28.5V31.5C37.5 33.15 36.15 34.5 34.5 34.5H31.5C29.85 34.5 28.5 33.15 28.5 31.5V28.5C28.5 26.85 29.85 25.5 31.5 25.5Z" stroke="#354C55" stroke-width="2" stroke-linecap="round" stroke-linejoin="round"/>
</svg>

