<svg width="48" height="48" viewBox="0 0 48 48" fill="none" xmlns="http://www.w3.org/2000/svg">
<path d="M4.5 28.5H43.5L45.7823 39.9117C46.1536 41.768 44.7337 43.5 42.8406 43.5H5.15941C3.26627 43.5 1.84639 41.768 2.21767 39.9117L4.5 28.5Z" fill="#2BD19D"/>
<path fill-rule="evenodd" clip-rule="evenodd" d="M10.4998 3.5C6.63384 3.5 3.49983 6.63401 3.49983 10.5V28.401L1.23692 39.7155C0.741888 42.1907 2.63506 44.5 5.15925 44.5H42.8404C45.3646 44.5 47.2578 42.1907 46.7627 39.7155L44.4998 28.401V10.5C44.4998 6.63401 41.3658 3.5 37.4998 3.5H10.4998ZM42.68 29.5H5.31964L3.19808 40.1078C2.95057 41.3454 3.89715 42.5 5.15925 42.5H42.8404C44.1025 42.5 45.0491 41.3454 44.8016 40.1078L42.68 29.5ZM42.4998 27.5V10.5C42.4998 7.73858 40.2613 5.5 37.4998 5.5H10.4998C7.73841 5.5 5.49983 7.73858 5.49983 10.5V27.5H42.4998ZM31.4998 9.5C32.0521 9.5 32.4998 9.94772 32.4998 10.5V22.5C32.4998 23.0523 32.0521 23.5 31.4998 23.5C30.9475 23.5 30.4998 23.0523 30.4998 22.5V10.5C30.4998 9.94772 30.9475 9.5 31.4998 9.5ZM25.4998 12.5C26.0521 12.5 26.4998 12.9477 26.4998 13.5V22.5C26.4998 23.0523 26.0521 23.5 25.4998 23.5C24.9475 23.5 24.4998 23.0523 24.4998 22.5V13.5C24.4998 12.9477 24.9475 12.5 25.4998 12.5ZM37.4998 15.5C38.0521 15.5 38.4998 15.9477 38.4998 16.5V22.5C38.4998 23.0523 38.0521 23.5 37.4998 23.5C36.9475 23.5 36.4998 23.0523 36.4998 22.5V16.5C36.4998 15.9477 36.9475 15.5 37.4998 15.5ZM10.4998 15.5C9.94755 15.5 9.49983 15.9477 9.49983 16.5C9.49983 17.0523 9.94755 17.5 10.4998 17.5H16.4998C17.0521 17.5 17.4998 17.0523 17.4998 16.5C17.4998 15.9477 17.0521 15.5 16.4998 15.5H10.4998ZM9.49983 22.5C9.49983 21.9477 9.94755 21.5 10.4998 21.5H13.4998C14.0521 21.5 14.4998 21.9477 14.4998 22.5C14.4998 23.0523 14.0521 23.5 13.4998 23.5H10.4998C9.94755 23.5 9.49983 23.0523 9.49983 22.5ZM22.4998 36.5C21.9475 36.5 21.4998 36.9477 21.4998 37.5C21.4998 38.0523 21.9475 38.5 22.4998 38.5H25.4998C26.0521 38.5 26.4998 38.0523 26.4998 37.5C26.4998 36.9477 26.0521 36.5 25.4998 36.5H22.4998Z" fill="currentColor"/>
</svg>
