<svg xmlns="http://www.w3.org/2000/svg" width="75" height="64" fill="none">
              <path d="M40.1 15.5a10 10 0 00-5.6-2h-1c-5.7 0-10.3 3.1-12 8.2.6 0 1.3.1 1.7.5.4.4.8 1.1.3 2.4-.6 1.6-.8 2.5-.9 3.9 0 .4-.3.8-.6.9-.4.2-.8.2-1.1-.1l-.2-.1c-.1.1-.4 1.2 0 2.8.4 1.6 1.3 2.4 1.5 2.4.5 0 .9.3 1.1.8.7 2.5 2 4.9 3.6 6.8.2.3.3.6.2.9l-.5.8-13.4 7.7a7.2 7.2 0 00-3.7 6.5v5.5h49v-6.3c0-2.2-1.2-4.3-3.1-5.4l-13.9-8.1c-.3-.2-.5-.4-.5-.8a1 1 0 01.2-.9c1.6-1.9 2.8-4.3 3.6-6.8.1-.5.6-.8 1.1-.8.3 0 1.1-.8 1.5-2.4.4-1.5.1-2.6-.1-2.8l-.1.1c-.2.2-.7.4-1.1.1-.4-.2-.6-.5-.6-.9l-.2-1.5c-.1-.4 0-.9.1-1.6.1-1.1.3-2.7.1-4.9-.3-3-2.1-4.8-4.7-4.8-.3.1-.5 0-.7-.1z" fill="none" stroke="#0C1142"> </path>
              <path d="M23.5 45.5s4 3 10.5 3 10-3 10-3" stroke="#0C1142"> </path>
              <path d="M5.5 23.5h12M5.5 11.5h16M5.5 17.5h11M5.5 35.5h12" stroke="#0C1142" stroke-linecap="round"> </path>
              <path d="M11.5 47.5h-7a4 4 0 01-4-4v-39a4 4 0 014-4h59a4 4 0 014 4V10m-11 37.5h7a4 4 0 004-4V37M46.5 41.5h21M.5 41.5h21M40.5 5.5h27M.5 5.5h27M31.5 5.5h5" stroke="#0C1142" stroke-miterlimit="10" stroke-linecap="round"> </path>
              <path d="M5.5 29.5h10" stroke="#0C1142" stroke-linecap="round"> </path>
              <path d="M63 36a12 12 0 100-24 12 12 0 000 24z" fill="#fff"> </path>
              <path d="M63 36a12 12 0 100-24 12 12 0 000 24z" fill="url(#paint0_linear)"> </path>
              <path d="M57.6 23.4l3.6 4 8.4-7.6" stroke="#fff" stroke-miterlimit="10"> </path>
              <defs>
                 <linearGradient id="paint0_linear" x1="54.5" y1="32.5" x2="71.5" y2="15.5" gradientUnits="userSpaceOnUse">
                    <stop stop-color="#2BD4DB" stop-opacity=".8"> </stop>
                    <stop offset="1" stop-color="#2BD4DB" stop-opacity=".2"> </stop>
                 </linearGradient>
              </defs>
           </svg>