<svg xmlns="http://www.w3.org/2000/svg" width="72" height="54" fill="none">
                <path d="M64.1 31.5H2.3c-1.3 0-2.3-1-2.3-2.3v-9C0 19 1 18 2.3 18H64c1.3 0 2.3 1 2.3 2.3v9c0 1.2-1 2.2-2.3 2.2z" fill="url(#paint0_linear)"> </path>
                <path d="M27 27a2.3 2.3 0 100-4.5 2.3 2.3 0 000 4.5zM34.9 27a2.3 2.3 0 100-4.5 2.3 2.3 0 000 4.5zM42.8 27a2.3 2.3 0 100-4.5 2.3 2.3 0 000 4.5zM50.6 27a2.3 2.3 0 100-4.5 2.3 2.3 0 000 4.5zM58.5 27a2.3 2.3 0 100-4.5 2.3 2.3 0 000 4.5z" fill="#fff"> </path>
                <path d="M11.3 40h28M11.3 45.6h28M64.7 45.6H48.9c-.6 0-1-.5-1-1.2v-3.3c0-.7.4-1.2 1-1.2h15.8c.7 0 1.1.5 1.1 1.2v3.3c0 .7-.4 1.2-1.1 1.2z" stroke="currentColor" stroke-miterlimit="10"> </path>
                <path d="M10.1 24.2H18M18.6 23.6V27M16.3 24.8V27M8.4 26.4a2.3 2.3 0 100-4.5 2.3 2.3 0 000 4.5z" stroke="#fff" stroke-miterlimit="10"> </path>
                <path d="M6.2 16.9v-14c0-1.3 1-2.3 2.2-2.3h60.8c1.2 0 2.2 1 2.2 2.2v48.4c0 1.2-1 2.2-2.2 2.2H8.4c-1.2 0-2.2-1-2.2-2.2V32.6" stroke="currentColor" stroke-miterlimit="10"> </path>
                <path d="M11.3 5.6a1.1 1.1 0 100-2.2 1.1 1.1 0 000 2.2zM14.6 5.6a1.1 1.1 0 100-2.2 1.1 1.1 0 000 2.2z" fill="currentColor"> </path>
                <path d="M6.8 8.4h64.4" stroke="currentColor" stroke-miterlimit="10"> </path>
                <defs>
                   <linearGradient id="paint0_linear" x1="0" y1="24.8" x2="66.4" y2="24.8" gradientUnits="userSpaceOnUse">
                      <stop stop-color="#2BD4DB" stop-opacity=".8"> </stop>
                      <stop offset="1" stop-color="#2BD4DB" stop-opacity=".2"> </stop>
                   </linearGradient>
                </defs>
             </svg>