<svg width="63" height="56" viewBox="0 0 63 56" fill="none" xmlns="http://www.w3.org/2000/svg">
<path d="M17.05 0C16.05 0 15.05 0.6 14.45 1.6L0.45 26.6C-0.15 27.6 -0.15 28.6 0.45 29.6L14.45 54.6C15.05 55.4 16.05 56 17.05 56H45.05C46.05 56 47.05 55.4 47.65 54.4L61.65 29.4C62.25 28.4 62.25 27.4 61.65 26.4L47.65 1.4C47.05 0.6 46.05 0 45.05 0H17.05ZM17.05 2H45.05C45.45 2 45.85 2.2 45.85 2.6L59.85 27.6C60.05 28 60.05 28.2 59.85 28.6L45.85 53.6C45.65 54 45.25 54 45.05 54H17.05C16.65 54 16.25 53.8 16.25 53.6L2.25 28.6C2.05 28.2 2.05 28 2.25 27.6L16.25 2.6C16.45 2.2 16.65 2 17.05 2ZM19.65 6C19.05 6 18.65 6.2 18.45 6.8L17.05 9C16.85 9.4 16.85 9.8 17.05 10C17.25 10.4 17.65 10.6 18.05 10.6C18.45 10.6 18.65 10.4 18.85 10L20.05 8H42.05L53.25 28L42.05 48H20.05L8.85 28L13.45 19.8C13.65 19.4 13.45 18.8 13.05 18.4C12.65 18.2 12.05 18.4 11.65 18.8L6.85 27.2C6.65 27.6 6.65 28.2 6.85 28.6L18.25 49C18.65 49.8 19.05 50 19.65 50H42.45C43.05 50 43.45 49.8 43.85 49.2L55.25 28.8C55.45 28.4 55.45 27.8 55.25 27.4L43.65 6.8C43.45 6.2 43.05 6 42.45 6H19.65ZM15.85 12.2C15.45 12.2 15.05 12.4 15.05 12.8L13.85 15C13.45 15.4 13.65 16.2 14.05 16.4C14.45 16.6 15.05 16.4 15.45 16L16.65 13.8C16.85 13.4 16.85 13.2 16.65 12.8C16.65 12.4 16.25 12.2 15.85 12.2ZM21.05 42C20.45 42 20.05 42.4 20.05 43V45C20.05 45.4 20.25 45.6 20.45 45.8C20.85 46 21.25 46 21.45 45.8C21.85 45.6 21.85 45.2 21.85 45V43C21.85 42.8 21.65 42.4 21.65 42.2C21.65 42 21.25 42 21.05 42ZM26.05 42C25.45 42 25.05 42.4 25.05 43V45C25.05 45.4 25.25 45.6 25.45 45.8C25.85 46 26.25 46 26.45 45.8C26.85 45.6 26.85 45.2 26.85 45V43C26.85 42.8 26.65 42.4 26.65 42.2C26.65 42 26.25 42 26.05 42ZM31.05 42C30.45 42 30.05 42.4 30.05 43V45C30.05 45.4 30.25 45.6 30.45 45.8C30.85 46 31.25 46 31.45 45.8C31.85 45.6 31.85 45.2 31.85 45V43C31.85 42.8 31.65 42.4 31.65 42.2C31.65 42 31.25 42 31.05 42ZM36.05 42C35.45 42 35.05 42.4 35.05 43V45C35.05 45.4 35.25 45.6 35.45 45.8C35.85 46 36.25 46 36.45 45.8C36.85 45.6 36.85 45.2 36.85 45V43C36.85 42.8 36.65 42.4 36.65 42.2C36.65 42 36.25 42 36.05 42ZM41.05 42C40.45 42 40.05 42.4 40.05 43V45C40.05 45.4 40.25 45.6 40.45 45.8C40.85 46 41.25 46 41.45 45.8C41.85 45.6 41.85 45.2 41.85 45V43C41.85 42.8 41.65 42.4 41.65 42.2C41.65 42 41.25 42 41.05 42Z" fill="CurrentColor"/>
<path d="M40.2499 20C39.8499 20 39.6499 20.4 39.6499 20.6C39.6499 20.8 40.0499 21.2 40.2499 21.2H41.6499V32.4H40.2499C39.8499 32.4 39.6499 32.8 39.6499 33C39.6499 33.2 40.0499 33.6 40.2499 33.6H44.4499C44.8499 33.6 45.0499 33.2 45.0499 33C45.0499 32.8 44.6499 32.4 44.4499 32.4H43.0499V21.2H44.4499C44.8499 21.2 45.0499 20.8 45.0499 20.6C45.0499 20.4 44.8499 20 44.4499 20H40.2499Z" fill="CurrentColor"/>
<path d="M34.65 20H29.85C29.45 20 29.25 20.4 29.25 20.6V33.2C29.25 33.6 29.65 33.8 29.85 33.8C30.25 33.8 30.45 33.4 30.45 33.2V28.4H34.65C36.25 28.4 37.45 27.2 37.45 25.6V22.8C37.45 21.2 36.25 20 34.65 20ZM36.05 25.6C36.05 26.4 35.45 27 34.65 27H30.45V21.4H34.65C35.45 21.4 36.05 22 36.05 22.8V25.6Z" fill="CurrentColor"/>
<path d="M26.8499 33L22.4499 20.4C22.4499 20.2 22.0499 20 21.8499 20C21.6499 20 21.2499 20.2 21.2499 20.4L16.8499 33C16.6499 33.4 16.8499 33.8 17.2499 33.8H17.4499C17.6499 33.8 18.0499 33.6 18.0499 33.4L19.4499 29.6H24.2499L25.6499 33.4C25.8499 33.8 26.2499 34 26.4499 33.8C26.8499 33.8 27.0499 33.4 26.8499 33ZM19.6499 28.4L21.6499 22.8L23.6499 28.4H19.6499Z" fill="CurrentColor"/>
</svg>
