<svg width="62" height="52" viewBox="0 0 62 52" fill="none" xmlns="http://www.w3.org/2000/svg">
<path d="M7 0C5.70312 0 4.59375 0.84375 4.1875 2H3C1.34375 2 0 3.34375 0 5V45C0 46.6562 1.34375 48 3 48H24.2188C24.8125 48 25.3203 48.3984 25.4688 48.9688C25.9062 50.75 27.5 52 29.3438 52H32.6562C34.5 52 36.0938 50.75 36.5312 48.9688C36.6797 48.3984 37.1875 48 37.7812 48H59C60.6562 48 62 46.6562 62 45V5C62 3.34375 60.6562 2 59 2H57.8125C57.4062 0.84375 56.2969 0 55 0H35C33.3594 0 31.9219 0.796876 31.0078 2.02344C30.0938 0.796876 28.6406 0 27 0H7ZM7 2H27C28.6562 2 30 3.34375 30 5V39C30 39.5469 30.4453 40 31 40C31.5547 40 32 39.5469 32 39V5C32 3.34375 33.3438 2 35 2H55C55.5469 2 56 2.45312 56 3V41C56 41.5469 55.5469 42 55 42H35C33.3594 42 31.9062 42.8047 31 44.0312C30.0938 42.8047 28.6406 42 27 42H7C6.45312 42 6 41.5469 6 41V3C6 2.45312 6.45312 2 7 2ZM3 4H4V41C4 42.6562 5.34375 44 7 44H27C28.6562 44 30 45.3438 30 47C30 47.5469 30.4453 48 31 48C31.5547 48 32 47.5469 32 47C32 45.3438 33.3438 44 35 44H55C56.6562 44 58 42.6562 58 41V4H59C59.5469 4 60 4.45312 60 5V45C60 45.5469 59.5469 46 59 46H37.7812C36.2656 46 34.9688 47.0156 34.5938 48.4844C34.375 49.375 33.5781 50 32.6562 50H29.3438C28.4219 50 27.625 49.375 27.4062 48.4844C27.0312 47.0156 25.7344 46 24.2188 46H3C2.45312 46 2 45.5469 2 45V5C2 4.45312 2.45312 4 3 4ZM11 8C10.4453 8 10 8.45312 10 9C10 9.54688 10.4453 10 11 10H15C15.5547 10 16 9.54688 16 9C16 8.45312 15.5547 8 15 8H11ZM21 8C20.4453 8 20 8.45312 20 9C20 9.54688 20.4453 10 21 10H22C22.5547 10 23 9.54688 23 9C23 8.45312 22.5547 8 22 8H21ZM25 8C24.4453 8 24 8.45312 24 9C24 9.54688 24.4453 10 25 10H26C26.5547 10 27 9.54688 27 9C27 8.45312 26.5547 8 26 8H25ZM37 8C36.4453 8 36 8.45312 36 9C36 9.54688 36.4453 10 37 10H41C41.5547 10 42 9.54688 42 9C42 8.45312 41.5547 8 41 8H37ZM51 8C50.4453 8 50 8.45312 50 9C50 9.54688 50.4453 10 51 10H52C52.5547 10 53 9.54688 53 9C53 8.45312 52.5547 8 52 8H51ZM11 12C10.4453 12 10 12.4531 10 13C10 13.5469 10.4453 14 11 14H17C17.5547 14 18 13.5469 18 13C18 12.4531 17.5547 12 17 12H11ZM21 12C20.4453 12 20 12.4531 20 13C20 13.5469 20.4453 14 21 14H22C22.5547 14 23 13.5469 23 13C23 12.4531 22.5547 12 22 12H21ZM25 12C24.4453 12 24 12.4531 24 13C24 13.5469 24.4453 14 25 14H26C26.5547 14 27 13.5469 27 13C27 12.4531 26.5547 12 26 12H25ZM37 12C36.4453 12 36 12.4531 36 13C36 13.5469 36.4453 14 37 14H43C43.5547 14 44 13.5469 44 13C44 12.4531 43.5547 12 43 12H37ZM47 12C46.4453 12 46 12.4531 46 13C46 13.5469 46.4453 14 47 14H48C48.5547 14 49 13.5469 49 13C49 12.4531 48.5547 12 48 12H47ZM51 12C50.4453 12 50 12.4531 50 13C50 13.5469 50.4453 14 51 14H52C52.5547 14 53 13.5469 53 13C53 12.4531 52.5547 12 52 12H51ZM11 18C10.4453 18 10 18.4531 10 19C10 19.5469 10.4453 20 11 20H15C15.5547 20 16 19.5469 16 19C16 18.4531 15.5547 18 15 18H11ZM25 18C24.4453 18 24 18.4531 24 19C24 19.5469 24.4453 20 25 20H26C26.5547 20 27 19.5469 27 19C27 18.4531 26.5547 18 26 18H25ZM37 18C36.4453 18 36 18.4531 36 19C36 19.5469 36.4453 20 37 20H41C41.5547 20 42 19.5469 42 19C42 18.4531 41.5547 18 41 18H37ZM47 18C46.4453 18 46 18.4531 46 19C46 19.5469 46.4453 20 47 20H48C48.5547 20 49 19.5469 49 19C49 18.4531 48.5547 18 48 18H47ZM51 18C50.4453 18 50 18.4531 50 19C50 19.5469 50.4453 20 51 20H52C52.5547 20 53 19.5469 53 19C53 18.4531 52.5547 18 52 18H51ZM11 22C10.4453 22 10 22.4531 10 23C10 23.5469 10.4453 24 11 24H13C13.5547 24 14 23.5469 14 23C14 22.4531 13.5547 22 13 22H11ZM21 22C20.4453 22 20 22.4531 20 23C20 23.5469 20.4453 24 21 24H22C22.5547 24 23 23.5469 23 23C23 22.4531 22.5547 22 22 22H21ZM25 22C24.4453 22 24 22.4531 24 23C24 23.5469 24.4453 24 25 24H26C26.5547 24 27 23.5469 27 23C27 22.4531 26.5547 22 26 22H25ZM37 22C36.4453 22 36 22.4531 36 23C36 23.5469 36.4453 24 37 24H39C39.5547 24 40 23.5469 40 23C40 22.4531 39.5547 22 39 22H37ZM51 22C50.4453 22 50 22.4531 50 23C50 23.5469 50.4453 24 51 24H52C52.5547 24 53 23.5469 53 23C53 22.4531 52.5547 22 52 22H51ZM11 28C10.4453 28 10 28.4531 10 29C10 29.5469 10.4453 30 11 30H15C15.5547 30 16 29.5469 16 29C16 28.4531 15.5547 28 15 28H11ZM21 28C20.4453 28 20 28.4531 20 29C20 29.5469 20.4453 30 21 30H22C22.5547 30 23 29.5469 23 29C23 28.4531 22.5547 28 22 28H21ZM25 28C24.4453 28 24 28.4531 24 29C24 29.5469 24.4453 30 25 30H26C26.5547 30 27 29.5469 27 29C27 28.4531 26.5547 28 26 28H25ZM11 32C10.4453 32 10 32.4531 10 33C10 33.5469 10.4453 34 11 34H13C13.5547 34 14 33.5469 14 33C14 32.4531 13.5547 32 13 32H11ZM25 32C24.4453 32 24 32.4531 24 33C24 33.5469 24.4453 34 25 34H26C26.5547 34 27 33.5469 27 33C27 32.4531 26.5547 32 26 32H25Z" fill="CurrentColor"/>
</svg>
