<svg width="49" height="49" fill="none" xmlns="http://www.w3.org/2000/svg">
  <path d="M28.733 40.52C39.926 40.52 49 31.45 49 20.26 49 9.07 39.926 0 28.733 0S8.467 9.07 8.467 20.26c0 11.19 9.073 20.26 20.266 20.26Z" fill="url(#a)"/>
  <path d="M12.198 41.601H5.895l.032-20.793h6.271v20.793Zm12.8-20.793h-6.4v20.793h6.4V20.808v0Zm12.8 0h-6.4v20.793h6.4V20.808v0Z" stroke="black" stroke-miterlimit="10" stroke-linecap="round" stroke-linejoin="round"/>
  <path d="M41.703 20.81H1.896a.8.8 0 0 1-.464-1.456l16.32-11.66a6.945 6.945 0 0 1 8.08 0l16.319 11.66c.656.464.336 1.456-.448 1.456ZM39.399 48h-35.2C2.44 48 1 46.562 1 44.803c0-1.76 1.44-3.2 3.2-3.2h35.199c1.76 0 3.2 1.44 3.2 3.2 0 1.76-1.44 3.199-3.2 3.199Z" stroke="black" stroke-miterlimit="10" stroke-linecap="round" stroke-linejoin="round"/>
  <defs>
    <linearGradient id="a" x1="53.053" y1="-9.117" x2="9.502" y2="53.783" gradientUnits="userSpaceOnUse">
      <stop stop-color="#2BD4DB" stop-opacity=".8"/>
      <stop offset="1" stop-color="#D5F6F8" stop-opacity=".3"/>
    </linearGradient>
  </defs>
</svg>