<svg width="48" height="48" viewBox="0 0 48 48" fill="none" xmlns="http://www.w3.org/2000/svg">
<circle cx="29" cy="19" r="19" fill="url(#paint0_linear)"/>
<path d="M39 24V43C39 44.1045 38.1046 45 37 45H33.0002H22.0008H11.0002H7C5.89543 45 5 44.1045 5 43V24" stroke="currentColor"/>
<path d="M4.7235 8C4.7235 7.17157 5.39507 6.5 6.2235 6.5H37.7791C38.6075 6.5 39.2791 7.17157 39.2791 7.99999L39.2791 12.1954C39.2791 12.5843 39.371 12.9625 39.5341 13.3052C40.5786 15.5001 41.5391 18.3426 41.494 20.7454C41.4716 21.9398 41.2015 22.9849 40.6112 23.7912C40.0281 24.5876 39.0935 25.2045 37.6317 25.479C37.5562 25.4931 37.4748 25.4999 37.4017 25.498C35.4473 25.448 34.2267 24.4527 33.1721 23.3842C33.021 23.2311 32.8691 23.0717 32.717 22.9121C32.3556 22.533 31.993 22.1526 31.6373 21.8522C31.1174 21.4131 30.5159 21.0556 29.779 21.0556C29.049 21.0556 28.3895 21.4018 27.7977 21.8305C27.3275 22.1712 26.8487 22.6039 26.3745 23.0326C26.2534 23.142 26.1326 23.2512 26.0123 23.3585C24.784 24.4544 23.545 25.4097 22.0177 25.4126C20.4848 25.4156 19.2377 24.4601 18.0023 23.3628C17.8791 23.2534 17.7555 23.1421 17.6316 23.0305C17.1568 22.6031 16.6778 22.1719 16.2081 21.8322C15.6146 21.4028 14.9535 21.0556 14.2234 21.0556C13.4955 21.0556 12.8998 21.4044 12.3846 21.8357C12.0212 22.1399 11.6534 22.5259 11.2872 22.9102C11.1475 23.0567 11.0081 23.203 10.8692 23.3444C9.83032 24.4026 8.63835 25.397 6.74616 25.4925C6.60453 25.4996 6.45133 25.4749 6.30753 25.4218C4.8626 24.8887 3.92487 24.1451 3.33991 23.2909C2.75371 22.435 2.49417 21.4275 2.47568 20.322C2.43831 18.0879 3.38588 15.5395 4.46575 13.3073C4.6322 12.9632 4.7235 12.5838 4.7235 12.1953V8Z" stroke="currentColor" stroke-linecap="round" stroke-linejoin="round"/>
<path d="M8.66797 11.5555H10.8902M13.1124 11.5555H15.3346M17.5569 11.5555H19.7791" stroke="currentColor"/>
<path d="M29 46V34C29 32.8954 28.1046 32 27 32H17C15.8954 32 15 32.8954 15 34V46" stroke="currentColor"/>
<defs>
<linearGradient id="paint0_linear" x1="51.8" y1="-8.55" x2="10.9537" y2="50.4265" gradientUnits="userSpaceOnUse">
<stop stop-color="#2BD4DB" stop-opacity="0.8"/>
<stop offset="1" stop-color="#D5F6F8" stop-opacity="0.3"/>
</linearGradient>
</defs>
</svg>
