<svg width="48" height="48" viewBox="0 0 48 48" fill="none" xmlns="http://www.w3.org/2000/svg">
<path d="M3.0014 36.4552C2.61061 36.2775 2.61061 35.7225 3.0014 35.5448L23.1724 26.3762C23.6982 26.1372 24.3018 26.1372 24.8276 26.3762L44.9986 35.5448C45.3894 35.7225 45.3894 36.2775 44.9986 36.4552L24.8276 45.6238C24.3018 45.8628 23.6982 45.8628 23.1724 45.6238L3.0014 36.4552Z" fill="url(#paint0_linear)"/>
<path d="M15.75 19L13 20.25L3.0014 24.7948C2.61061 24.9725 2.61061 25.5275 3.0014 25.7052L23.1724 34.8738C23.6982 35.1128 24.3018 35.1128 24.8276 34.8738L44.9986 25.7052C45.3894 25.5275 45.3894 24.9725 44.9986 24.7948L35 20.25L32.25 19" stroke="currentColor"/>
<path d="M3.0014 13.4552C2.61061 13.2775 2.61061 12.7225 3.0014 12.5448L23.1724 3.37618C23.6982 3.13716 24.3018 3.13716 24.8276 3.37618L44.9986 12.5448C45.3894 12.7225 45.3894 13.2775 44.9986 13.4552L24.8276 22.6238C24.3018 22.8628 23.6982 22.8628 23.1724 22.6238L3.0014 13.4552Z" stroke="currentColor"/>
<defs>
<linearGradient id="paint0_linear" x1="50.4" y1="21.5" x2="37.2446" y2="63.288" gradientUnits="userSpaceOnUse">
<stop stop-color="#2BD4DB" stop-opacity="0.8"/>
<stop offset="1" stop-color="#D5F6F8" stop-opacity="0.3"/>
</linearGradient>
</defs>
</svg>
