<svg xmlns="http://www.w3.org/2000/svg" width="32" height="32" fill="none">
  <g clip-path="url(#clip0)">
    <circle
      cx="19.334"
      cy="12.667"
      r="12.667"
      fill="url(#paint0_linear)"
    ></circle>
    <path
      d="M26 16.5V28a2 2 0 01-2 2H5.335a2 2 0 01-2-2V16.5"
      stroke="currentColor"
    ></path>
    <path
      d="M3.316 6a1.5 1.5 0 011.5-1.5h19.703a1.5 1.5 0 011.5 1.5v1.973c0 .39.093.765.251 1.106.675 1.453 1.268 3.277 1.225 4.8-.022.755-.198 1.397-.558 1.887-.354.481-.922.866-1.83 1.047a.949.949 0 01-.217.018c-1.216-.047-1.981-.672-2.67-1.372-.092-.093-.186-.192-.281-.293a9.932 9.932 0 00-.747-.731c-.358-.3-.794-.565-1.34-.565-.539 0-1.014.256-1.418.549-.322.233-.65.53-.966.816l-.237.213c-.822.733-1.605 1.325-2.553 1.327-.952.002-1.74-.59-2.566-1.324l-.242-.218c-.317-.285-.646-.581-.967-.813-.405-.293-.881-.55-1.42-.55-.536 0-.966.255-1.32.548a9.503 9.503 0 00-.764.745l-.245.256c-.675.69-1.413 1.315-2.57 1.404a.956.956 0 01-.414-.067c-.892-.345-1.462-.813-1.816-1.338-.356-.527-.52-1.148-.536-1.842-.033-1.408.547-3.031 1.243-4.494.163-.342.255-.72.255-1.109V6z"
      stroke="currentColor"
      stroke-linecap="round"
      stroke-linejoin="round"
    ></path>
    <path
      d="M5.778 7.704H7.26m1.481 0h1.482m1.481 0h1.482M19.333 29.5v-6.167a2 2 0 00-2-2H12a2 2 0 00-2 2V29.5"
      stroke="currentColor"
    ></path>
  </g>
  <defs>
    <linearGradient
      id="paint0_linear"
      x1="34.534"
      y1="-5.7"
      x2="7.303"
      y2="33.618"
      gradientUnits="userSpaceOnUse"
    >
      <stop stop-color="#2BD4DB" stop-opacity=".8"></stop>
      <stop offset="1" stop-color="#D5F6F8" stop-opacity=".3"></stop>
    </linearGradient>
    <clipPath id="clip0"><path fill="#fff" d="M0 0h32v32H0z"></path></clipPath>
  </defs>
</svg>
