<svg xmlns="http://www.w3.org/2000/svg" width="32" height="32" fill="none">
  <path
    d="M2.334 24.455a.5.5 0 010-.91l12.838-5.836a2 2 0 011.655 0l12.838 5.836a.5.5 0 010 .91L16.827 30.29a2 2 0 01-1.655 0L2.334 24.455z"
    fill="url(#paint0_linear)"
  ></path>
  <path
    d="M10.5 12.667l-1.834.833-6.332 2.878a.5.5 0 000 .91l12.838 5.836a2 2 0 001.655 0l12.838-5.835a.5.5 0 000-.91L23.333 13.5l-1.833-.833"
    stroke="currentColor"
  ></path>
  <path
    d="M2.334 9.122a.5.5 0 010-.91l12.838-5.836a2 2 0 011.655 0l12.838 5.835a.5.5 0 010 .91l-12.838 5.836a2 2 0 01-1.655 0L2.334 9.122z"
    stroke="currentColor"
  ></path>
  <defs>
    <linearGradient
      id="paint0_linear"
      x1="33.6"
      y1="14.333"
      x2="24.829"
      y2="42.192"
      gradientUnits="userSpaceOnUse"
    >
      <stop stop-color="#2BD4DB" stop-opacity=".8"></stop>
      <stop offset="1" stop-color="#D5F6F8" stop-opacity=".3"></stop>
    </linearGradient>
  </defs>
</svg>
