<?xml version="1.0" encoding="utf-8"?>
<!-- Generator: Adobe Illustrator 25.0.1, SVG Export Plug-In . SVG Version: 6.00 Build 0)  -->
<svg version="1.1" id="Layer_1" xmlns="http://www.w3.org/2000/svg" xmlns:xlink="http://www.w3.org/1999/xlink" x="0px" y="0px"
	 viewBox="0 0 456 184" style="enable-background:new 0 0 456 184;" xml:space="preserve">
<style type="text/css">
	.st0{fill:#7B8D93;}
	.st1{fill:#1B2F37;}
	.st2{fill:#E4E9EB;}
	.st3{fill:#0082D9;}
	.st4{fill:#ACBABF;}
	.st5{opacity:0.1;fill:url(#SVGID_1_);enable-background:new    ;}
	.st6{fill:#E6E7EC;}
</style>
<path class="st0" d="M141.1,54.7H139V63h0.8v-3.5h1c1.8,0,3-0.8,3-2.5C143.8,55.5,142.8,54.7,141.1,54.7z M140.9,58.8h-1.1v-3.3h1.2
	c1.3,0,1.9,0.5,1.9,1.6C142.9,58.3,142.1,58.8,140.9,58.8z"/>
<path class="st0" d="M135.7,58.6c0.8-0.3,1.3-0.9,1.3-1.8c0-1.2-0.9-2.1-2.6-2.1h-1.9V63h1.9c1.7,0,2.9-0.8,2.9-2.4
	C137.3,59.5,136.7,58.9,135.7,58.6z M133.2,55.4h1.1c1.2,0,1.8,0.6,1.8,1.4c0,0.9-0.6,1.5-1.8,1.5h-1.1V55.4z M134.4,62.3h-1.2V59
	h1.1c1.4,0,2.2,0.5,2.2,1.7C136.5,61.7,135.7,62.3,134.4,62.3z"/>
<path class="st0" d="M130.3,62.3v-3.7h-2.9l0.1,0.7h2v2.5c-0.6,0.3-1.1,0.5-1.9,0.5c-1.9,0-3-1.4-3-3.5s1.1-3.6,3-3.6
	c0.9,0,1.7,0.3,2.3,0.8l0.1-0.9c-0.6-0.5-1.4-0.7-2.4-0.7c-2.3,0-3.8,1.8-3.8,4.3s1.4,4.3,3.9,4.3C128.7,63.2,129.6,62.8,130.3,62.3
	z"/>
<path class="st1" d="M113.3,59.7c0-1.7-1-2.7-2.6-3.2c1.3-0.4,2.3-1.3,2.3-2.9c0-1.7-1.2-3.1-3.6-3.1c-1.5,0-2.5,0.4-3.5,1.1
	l0.2,1.1c0.9-0.7,2-1.2,3.3-1.2c1.6,0,2.4,0.9,2.4,2.1c0,1.4-1.1,2.3-3.2,2.3h-0.8L108,57h0.5c2.4,0,3.5,1,3.5,2.6
	c0,1.5-1.1,2.4-2.8,2.4c-1.3,0-2.2-0.3-3.3-1.1l-0.2,1.2c0.9,0.6,2.1,1,3.4,1C111.6,63.2,113.3,61.8,113.3,59.7z"/>
<path class="st1" d="M99.5,50.6c-2.7,0-4.5,2.5-4.5,6.3c0,3.9,1.7,6.3,4.5,6.3c2.7,0,4.5-2.4,4.5-6.3C104,53,102.3,50.6,99.5,50.6z
	 M99.5,62.2c-2.1,0-3.2-2.1-3.2-5.3c0-3.2,1.2-5.3,3.2-5.3c2.1,0.1,3.2,2.1,3.2,5.3C102.7,60.1,101.5,62.2,99.5,62.2z"/>
<rect x="91.6" y="61.2" class="st1" width="1.4" height="1.8"/>
<path class="st1" d="M85.1,50.6c-2.7,0-4.5,2.5-4.5,6.3c0,3.9,1.7,6.3,4.5,6.3c2.7,0,4.5-2.4,4.5-6.3C89.6,53,87.9,50.6,85.1,50.6z
	 M85.1,62.2c-2,0-3.2-2.1-3.2-5.3c0-3.2,1.2-5.3,3.2-5.3s3.2,2.1,3.2,5.3C88.3,60.1,87.1,62.2,85.1,62.2z"/>
<polygon class="st1" points="78.9,51.7 78.9,50.8 71.1,50.8 71.3,51.9 77.6,51.9 72.8,62.8 74,63.1 "/>
<path class="st1" d="M69.5,59.7c0-1.7-1-2.7-2.6-3.2c1.3-0.4,2.3-1.3,2.3-2.9c0-1.7-1.2-3.1-3.6-3.1c-1.5,0-2.5,0.4-3.5,1.1l0.2,1.1
	c0.9-0.7,2-1.2,3.3-1.2c1.6,0,2.4,0.9,2.4,2.1c0,1.4-1.1,2.3-3.2,2.3H64l0.2,1.1h0.5c2.4,0,3.5,1,3.5,2.6c0,1.5-1.1,2.4-2.8,2.4
	c-1.3,0-2.2-0.3-3.3-1.1l-0.2,1.2c0.9,0.6,2.1,1,3.4,1C67.8,63.2,69.5,61.8,69.5,59.7z"/>
<polygon class="st1" points="59.8,61.2 58.4,61.2 57.5,65.2 58.1,65.4 "/>
<path class="st1" d="M52.3,55.8c-1.2-0.1-2.3,0.3-3.3,1c0.4-2.7,2.4-4.3,5.2-5.1L54,50.6c-3.8,1.1-6.3,3.4-6.3,7.5
	c0,3.2,1.8,5.2,4.3,5.2c2.3,0,4-1.6,4-3.9C56,57.2,54.5,55.8,52.3,55.8z M52.1,62.1c-1.9,0.1-3.2-1.6-3.2-4.2c0.9-0.7,2-1.2,3.2-1.2
	c1.8,0,2.7,1.1,2.7,2.6C54.8,61,53.7,62.1,52.1,62.1z"/>
<path class="st1" d="M41.2,50.5c-2.4,0-4,1.7-4,4s1.5,3.7,3.7,3.7c1.3,0.1,2.4-0.3,3.3-1c-0.5,2.7-2.5,4.3-5.4,4.9l0.2,1.1
	c3.9-1,6.5-3.4,6.5-7.5C45.5,52.5,43.8,50.5,41.2,50.5z M41.2,57.3c-1.8,0-2.7-1.1-2.7-2.7c0-1.7,1.1-2.9,2.8-2.9
	c1.8,0,3.1,1.7,3.1,4.2c0,0,0,0.1,0,0.2C43.5,56.8,42.4,57.3,41.2,57.3z"/>
<polygon class="st1" points="34.5,63 34.5,50.8 33.5,50.8 30.5,52.2 30.7,53.2 33.3,52.2 33.3,63 "/>
<path class="st1" d="M91.7,29.6c0-1.8-0.9-3.3-2.7-3.3c-1.6,0-2.9,1.3-2.9,3.4c0,2.3,1.2,3.5,3,3.5c1,0,1.9-0.4,2.5-0.9l-0.1-0.8
	c-0.7,0.6-1.5,1-2.3,1c-1.3,0-2.1-1-2.1-2.6h4.6C91.7,29.7,91.7,29.6,91.7,29.6z M87.1,29c0.2-1.3,0.9-2,1.9-2s1.6,0.8,1.7,2H87.1z"
	/>
<path class="st1" d="M84.4,33v-6.6h-0.9v4.8c-0.7,0.7-1.4,1.1-2.1,1.1c-0.8,0-1.2-0.5-1.2-1.4v-4.6h-0.9V31c0,1.3,0.6,2,2,2
	c0.9,0,1.7-0.5,2.4-1.1l0.2,1L84.4,33L84.4,33z"/>
<polygon class="st1" points="76.9,33 76.9,22.9 76,23.1 76,33 "/>
<path class="st1" d="M71.6,26.3c-0.9,0-1.7,0.2-2.5,0.6l0.1,0.8c0.7-0.3,1.5-0.6,2.3-0.6s1.4,0.4,1.4,1.3v0.4c-3,0.3-4.3,1-4.3,2.6
	c0,1.2,0.8,1.8,2,1.8c1,0,1.7-0.4,2.3-1l0.2,0.9h0.7V33v-4.7C73.8,26.9,73,26.3,71.6,26.3z M72.9,31.4c-0.6,0.6-1.4,1-2.1,1
	c-0.7,0-1.2-0.4-1.2-1.1c0-0.9,0.7-1.5,3.3-1.8V31.4z"/>
<polygon class="st1" points="67.8,26.4 66.8,26.4 64.9,31.9 62.9,26.3 62,26.5 64.4,33.1 65.3,33.1 "/>
<polygon class="st1" points="57.2,33 57.2,22.9 56.3,23.1 56.3,33 "/>
<path class="st1" d="M51.9,26.3c-0.9,0-1.7,0.2-2.5,0.6l0.1,0.8c0.7-0.3,1.5-0.6,2.3-0.6s1.4,0.4,1.4,1.3v0.4c-3,0.3-4.3,1-4.3,2.6
	c0,1.2,0.8,1.8,2,1.8c1,0,1.7-0.4,2.3-1l0.2,0.9h0.7V33v-4.7C54.1,26.9,53.3,26.3,51.9,26.3z M53.2,31.4c-0.6,0.6-1.4,1-2.1,1
	c-0.7,0-1.2-0.4-1.2-1.1c0-0.9,0.7-1.5,3.3-1.8V31.4z"/>
<path class="st1" d="M47.7,33l-0.1-0.8c-0.2,0-0.4,0.1-0.6,0.1c-0.7,0-1-0.3-1-1v-4.2h1.7l-0.1-0.8H46v-2.4l-0.9,0.2v2.3h-1v0.8h1
	v4.3c0,1.2,0.7,1.6,1.7,1.6C47.2,33.1,47.5,33.1,47.7,33z"/>
<path class="st1" d="M40,26.2c-1.7,0-3,1.3-3,3.5s1.3,3.4,3,3.4s3-1.2,3-3.4S41.7,26.2,40,26.2z M40,32.4c-1.3,0-2-1.1-2-2.7
	c0-1.6,0.7-2.7,2-2.7s2.1,1.2,2.1,2.7C42.1,31.3,41.4,32.4,40,32.4z"/>
<polygon class="st1" points="37.7,24.2 37.6,23.3 30.5,23.3 30.5,24.2 33.6,24.2 33.6,33 34.6,33 34.6,24.2 "/>
<path class="st1" d="M237.7,55.8c-1.2-0.1-2.3,0.3-3.3,1c0.4-2.7,2.4-4.3,5.2-5.1l-0.2-1.1c-3.8,1.1-6.3,3.4-6.3,7.5
	c0,3.2,1.8,5.2,4.3,5.2c2.3,0,4-1.6,4-3.9C241.4,57.2,239.9,55.8,237.7,55.8z M237.6,62.1c-2,0.1-3.2-1.6-3.2-4.2
	c0.9-0.7,2-1.2,3.2-1.2c1.8,0,2.7,1.1,2.7,2.6C240.3,61,239.2,62.1,237.6,62.1z"/>
<path class="st1" d="M227.5,55.8c-1.2-0.1-2.3,0.3-3.3,1c0.4-2.7,2.4-4.3,5.2-5.1l-0.2-1.1c-3.8,1.1-6.3,3.4-6.3,7.5
	c0,3.2,1.8,5.2,4.3,5.2c2.3,0,4-1.6,4-3.9C231.2,57.2,229.7,55.8,227.5,55.8z M227.3,62.1c-1.9,0.1-3.2-1.6-3.2-4.2
	c0.9-0.7,2-1.2,3.2-1.2c1.8,0,2.7,1.1,2.7,2.6C230,61,228.9,62.1,227.3,62.1z"/>
<rect x="219.3" y="61.2" class="st1" width="1.4" height="1.8"/>
<path class="st1" d="M215.5,59.1v-8.4H214l-5.9,8.5V60h6.2v3h1.1v-2.9h2.1v-1H215.5z M214.4,59.1h-4.9l4.9-7V59.1z"/>
<polygon class="st1" points="205.5,63 205.5,50.8 204.5,50.8 201.5,52.2 201.7,53.2 204.3,52.2 204.3,63 "/>
<path class="st0" d="M267.1,54.7H265V63h0.8v-3.5h1c1.8,0,3-0.8,3-2.5C269.8,55.5,268.8,54.7,267.1,54.7z M266.9,58.8h-1.1v-3.3h1.2
	c1.3,0,1.9,0.5,1.9,1.6C268.9,58.3,268.1,58.8,266.9,58.8z"/>
<path class="st0" d="M261.7,58.6c0.8-0.3,1.3-0.9,1.3-1.8c0-1.2-0.9-2.1-2.6-2.1h-1.9V63h1.9c1.7,0,2.9-0.8,2.9-2.4
	C263.3,59.5,262.7,58.9,261.7,58.6z M259.2,55.4h1.1c1.2,0,1.8,0.6,1.8,1.4c0,0.9-0.6,1.5-1.8,1.5h-1.1V55.4z M260.4,62.3h-1.2V59
	h1.1c1.4,0,2.2,0.5,2.2,1.7C262.5,61.7,261.7,62.3,260.4,62.3z"/>
<path class="st0" d="M256.3,62.3v-3.7h-2.9l0.1,0.7h2v2.5c-0.6,0.3-1.1,0.5-1.9,0.5c-1.9,0-3-1.4-3-3.5s1.1-3.6,3-3.6
	c0.9,0,1.7,0.3,2.3,0.8l0.1-0.9c-0.6-0.5-1.4-0.7-2.4-0.7c-2.3,0-3.8,1.8-3.8,4.3s1.4,4.3,3.9,4.3C254.7,63.2,255.6,62.8,256.3,62.3
	z"/>
<path class="st1" d="M294.3,33v-4.7c0-1.3-0.7-2-2-2c-0.9,0-1.7,0.5-2.4,1.1l-0.2-1H289V33h0.9v-4.8c0.7-0.7,1.4-1.1,2.1-1.1
	c0.8,0,1.2,0.5,1.2,1.4V33H294.3z"/>
<path class="st1" d="M284.4,26.2c-1.7,0-3,1.3-3,3.5s1.3,3.4,3,3.4s3-1.2,3-3.4S286.1,26.2,284.4,26.2z M284.3,32.4
	c-1.3,0-2-1.1-2-2.7c0-1.6,0.7-2.7,2-2.7c1.4,0,2.1,1.2,2.1,2.7C286.4,31.3,285.7,32.4,284.3,32.4z"/>
<rect x="278.6" y="26.4" class="st1" width="0.9" height="6.6"/>
<circle class="st1" cx="279" cy="24.1" r="0.7"/>
<path class="st1" d="M276.9,33l-0.1-0.8c-0.2,0-0.4,0.1-0.6,0.1c-0.7,0-1-0.3-1-1v-4.2h1.7l-0.1-0.8h-1.5v-2.4l-0.9,0.2v2.3h-1v0.8
	h1v4.3c0,1.2,0.7,1.6,1.7,1.6C276.3,33.1,276.7,33.1,276.9,33z"/>
<path class="st1" d="M272.2,32.4l-0.1-0.8c-0.7,0.6-1.3,0.8-2,0.8c-1.3,0-2.2-1-2.2-2.6s0.8-2.6,2.1-2.6c0.8,0,1.4,0.3,2,0.8
	l0.2-0.9c-0.5-0.4-1.3-0.7-2.2-0.7c-1.7,0-3,1.2-3,3.5c0,2.2,1.3,3.4,3,3.4C270.8,33.1,271.6,32.9,272.2,32.4z"/>
<path class="st1" d="M263.1,26.3c-0.9,0-1.7,0.2-2.5,0.6l0.1,0.8c0.7-0.3,1.5-0.6,2.3-0.6s1.4,0.4,1.4,1.3v0.4c-3,0.3-4.3,1-4.3,2.6
	c0,1.2,0.8,1.8,2,1.8c1,0,1.7-0.4,2.3-1l0.2,0.9h0.7V33v-4.7C265.3,26.9,264.5,26.3,263.1,26.3z M262.3,32.4c-0.7,0-1.2-0.4-1.2-1.1
	c0-0.9,0.7-1.5,3.3-1.8v1.9h0C263.8,32,263,32.4,262.3,32.4z"/>
<path class="st1" d="M258.8,31.2c0-1.2-0.8-1.7-2.3-2.1c-1.1-0.3-1.5-0.6-1.5-1.1s0.4-0.9,1.3-0.9c0.7,0,1.3,0.2,1.9,0.5l0.2-0.9
	c-0.6-0.3-1.3-0.4-2.1-0.4c-1.4,0-2.3,0.8-2.3,1.8c0,1.1,0.6,1.6,2.1,1.9c1.3,0.3,1.7,0.6,1.7,1.3c0,0.7-0.6,1.1-1.5,1.1
	s-1.7-0.3-2.3-0.7l-0.2,0.9c0.6,0.3,1.5,0.6,2.4,0.6C257.8,33.1,258.8,32.4,258.8,31.2z"/>
<path class="st1" d="M252.3,33v-4.7c0-1.3-0.7-2-2-2c-0.9,0-1.7,0.5-2.4,1.1l-0.2-1H247V33h0.9v-4.8c0.7-0.7,1.4-1.1,2.1-1.1
	c0.8,0,1.2,0.5,1.2,1.4V33H252.3z"/>
<path class="st1" d="M242.8,26.3c-0.9,0-1.7,0.2-2.5,0.6l0.1,0.8c0.7-0.3,1.5-0.6,2.3-0.6s1.4,0.4,1.4,1.3v0.4c-3,0.3-4.3,1-4.3,2.6
	c0,1.2,0.8,1.8,2,1.8c1,0,1.7-0.4,2.3-1l0.2,0.9h0.7V33v-4.7C245,26.9,244.2,26.3,242.8,26.3z M244,31.4c-0.6,0.6-1.4,1-2.1,1
	s-1.2-0.4-1.2-1.1c0-0.9,0.7-1.5,3.3-1.8V31.4z"/>
<path class="st1" d="M239,27.1l-0.2-0.9c-1.1,0-1.9,0.8-2.4,1.5l-0.2-1.4h-0.7V33h0.9v-4.2C237,28,238,27.2,239,27.1z"/>
<path class="st1" d="M234,33l-0.1-0.8c-0.2,0-0.4,0.1-0.6,0.1c-0.7,0-1-0.3-1-1v-4.2h1.7l-0.1-0.8h-1.5v-2.4l-0.9,0.2v2.3h-1v0.8h1
	v4.3c0,1.2,0.7,1.6,1.7,1.6C233.5,33.1,233.8,33.1,234,33z"/>
<rect x="224.7" y="31.6" class="st1" width="1.1" height="1.4"/>
<path class="st1" d="M220.8,31.9l-0.5-0.1c-1.2-0.2-1.5-0.3-1.5-0.6c0-0.2,0.2-0.3,0.4-0.5c0.2,0,0.4,0.1,0.6,0.1
	c1.3,0,2.5-0.9,2.5-2.3c0-0.4-0.1-0.8-0.3-1.2l1.3-0.1l-0.2-0.9l-1.5,0.5c-0.4-0.4-1-0.6-1.7-0.6c-1.3,0-2.4,0.9-2.4,2.3
	c0,0.9,0.5,1.6,1.2,2c-0.4,0.3-0.7,0.5-0.7,0.9c0,0.3,0.2,0.5,0.5,0.7c-1,0.5-1.5,1.1-1.5,1.8c0,1.1,1.3,1.7,3,1.7
	c1.7,0,3.1-0.7,3.1-2C223.1,32.6,222.3,32.2,220.8,31.9z M218.3,28.6c0-0.9,0.6-1.6,1.5-1.6c1.1-0.1,1.7,0.6,1.7,1.5
	s-0.6,1.6-1.6,1.6S218.3,29.4,218.3,28.6z M220.1,34.8c-1.3,0-2.2-0.4-2.2-1.1c0-0.5,0.5-0.9,1.4-1.4c0.2,0.1,0.5,0.1,0.8,0.2
	l0.6,0.1c1.2,0.2,1.6,0.5,1.6,1C222.3,34.3,221.4,34.8,220.1,34.8z"/>
<polygon class="st1" points="216.4,26.4 215.4,26.4 213.5,31.9 211.5,26.3 210.6,26.5 213,33.1 213.9,33.1 "/>
<path class="st1" d="M206.3,23.3h-1l-3.8,9.7h1l1.2-3.1h4.2l1.2,3.2l1-0.2L206.3,23.3z M204,29l1.8-4.6l1.8,4.6H204z"/>
<path class="st1" d="M426.8,59.3c0-2.2-1.5-3.6-4-3.6c-0.9,0-1.5,0.2-2,0.3l0.3-4.1h5.3l-0.2-1.1H420l-0.4,6.1l0.8,0.2
	c0.6-0.3,1.3-0.4,2.3-0.4c1.9,0,2.9,1,2.9,2.6c0,1.9-1.5,2.9-3.1,2.9c-1.3,0-2.3-0.4-3.2-1l-0.2,1.2c0.8,0.5,1.9,0.9,3.3,0.9
	C424.8,63.2,426.8,61.8,426.8,59.3z"/>
<path class="st1" d="M415.5,59.1v-8.4H414l-5.9,8.5V60h6.2v3h1.1v-2.9h2.1v-1H415.5z M414.4,59.1h-4.9l4.9-7V59.1z"/>
<path class="st1" d="M403.8,56.7c1.2-0.7,2.2-1.6,2.2-3c0-1.7-1.4-3-3.6-3s-3.7,1.3-3.7,3.1c0,1.3,0.9,2.2,2.1,2.8
	c-1.6,0.8-2.6,1.9-2.6,3.4c0,1.8,1.5,3.3,4.1,3.3c2.4,0,4.1-1.4,4.1-3.3C406.4,58.3,405.4,57.4,403.8,56.7z M399.9,53.6
	c0-1,0.8-2,2.5-2c1.5,0,2.5,0.8,2.5,2c0,1.1-0.8,2-2.1,2.6C400.6,55.4,399.9,54.8,399.9,53.6z M402.3,62.2c-1.7,0-3-0.9-3-2.3
	c0.1-1.3,1.1-2.3,2.6-2.9c2.6,0.9,3.3,1.5,3.3,2.9C405.2,61.3,403.9,62.2,402.3,62.2z"/>
<polygon class="st1" points="396.2,61.2 394.8,61.2 393.9,65.2 394.5,65.4 "/>
<path class="st1" d="M388.4,50.5c-2.4,0-4,1.7-4,4s1.5,3.7,3.7,3.7c1.3,0.1,2.3-0.3,3.3-1c-0.5,2.7-2.5,4.3-5.4,4.9l0.2,1.1
	c3.9-1,6.5-3.4,6.5-7.5C392.7,52.5,391,50.5,388.4,50.5z M391.5,56.1c-0.9,0.7-2,1.2-3.2,1.2c-1.8,0-2.7-1.1-2.7-2.7
	c0-1.7,1.1-2.9,2.8-2.9c1.8,0,3.1,1.7,3.1,4.2C391.5,55.9,391.5,56,391.5,56.1z"/>
<polygon class="st1" points="382.6,51.7 382.6,50.8 374.8,50.8 375,51.9 381.3,51.9 376.5,62.8 377.7,63.1 "/>
<path class="st1" d="M482.8,31.2c0-1.2-0.8-1.7-2.3-2.1c-1.1-0.3-1.5-0.6-1.5-1.1s0.4-0.9,1.3-0.9c0.7,0,1.3,0.2,1.9,0.5l0.2-0.9
	c-0.6-0.3-1.3-0.4-2.1-0.4c-1.4,0-2.3,0.8-2.3,1.8c0,1.1,0.6,1.6,2.1,1.9c1.3,0.3,1.7,0.6,1.7,1.3c0,0.7-0.6,1.1-1.5,1.1
	s-1.7-0.3-2.3-0.7l-0.2,0.9c0.6,0.3,1.5,0.6,2.4,0.6C481.9,33.1,482.8,32.4,482.8,31.2z"/>
<path class="st1" d="M476.3,33v-4.7c0-1.3-0.7-2-2-2c-0.9,0-1.7,0.5-2.4,1.1l-0.2-1H471V33h0.9v-4.8c0.7-0.7,1.4-1.1,2.1-1.1
	c0.8,0,1.2,0.5,1.2,1.4V33H476.3z"/>
<path class="st1" d="M466.4,26.2c-1.7,0-3,1.3-3,3.5s1.3,3.4,3,3.4s3-1.2,3-3.4S468.1,26.2,466.4,26.2z M466.3,32.4
	c-1.3,0-2-1.1-2-2.7c0-1.6,0.7-2.7,2-2.7c1.4,0,2.1,1.2,2.1,2.7C468.4,31.3,467.7,32.4,466.3,32.4z"/>
<rect x="460.6" y="26.4" class="st1" width="0.9" height="6.6"/>
<circle class="st1" cx="461" cy="24.1" r="0.7"/>
<path class="st1" d="M458.9,33l-0.1-0.8c-0.2,0-0.4,0.1-0.6,0.1c-0.7,0-1-0.3-1-1v-4.2h1.7l-0.1-0.8h-1.5v-2.4l-0.9,0.2v2.3h-1v0.8
	h1v4.3c0,1.2,0.7,1.6,1.7,1.6C458.3,33.1,458.7,33.1,458.9,33z"/>
<path class="st1" d="M454.2,32.4l-0.1-0.8c-0.7,0.6-1.3,0.8-2,0.8c-1.3,0-2.2-1-2.2-2.6s0.8-2.6,2.1-2.6c0.8,0,1.4,0.3,2,0.8
	l0.2-0.9c-0.5-0.4-1.3-0.7-2.2-0.7c-1.7,0-3,1.2-3,3.5c0,2.2,1.3,3.4,3,3.4C452.9,33.1,453.6,32.9,454.2,32.4z"/>
<path class="st1" d="M445.1,26.3c-0.9,0-1.7,0.2-2.5,0.6l0.1,0.8c0.7-0.3,1.5-0.6,2.3-0.6s1.4,0.4,1.4,1.3v0.4c-3,0.3-4.3,1-4.3,2.6
	c0,1.2,0.8,1.8,2,1.8c1,0,1.7-0.4,2.3-1l0.2,0.9h0.7V33v-4.7C447.3,26.9,446.5,26.3,445.1,26.3z M444.3,32.4c-0.7,0-1.2-0.4-1.2-1.1
	c0-0.9,0.7-1.5,3.3-1.8v1.9h0C445.8,32,445,32.4,444.3,32.4z"/>
<path class="st1" d="M440.8,31.2c0-1.2-0.8-1.7-2.3-2.1c-1.1-0.3-1.5-0.6-1.5-1.1s0.4-0.9,1.3-0.9c0.7,0,1.3,0.2,1.9,0.5l0.2-0.9
	c-0.6-0.3-1.3-0.4-2.1-0.4c-1.4,0-2.3,0.8-2.3,1.8c0,1.1,0.6,1.6,2.1,1.9c1.3,0.3,1.7,0.6,1.7,1.3c0,0.7-0.6,1.1-1.5,1.1
	s-1.7-0.3-2.3-0.7l-0.2,0.9c0.6,0.3,1.5,0.6,2.4,0.6C439.9,33.1,440.8,32.4,440.8,31.2z"/>
<path class="st1" d="M434.3,33v-4.7c0-1.3-0.7-2-2-2c-0.9,0-1.7,0.5-2.4,1.1l-0.2-1H429V33h0.9v-4.8c0.7-0.7,1.4-1.1,2.1-1.1
	c0.8,0,1.2,0.5,1.2,1.4V33H434.3z"/>
<path class="st1" d="M424.8,26.3c-0.9,0-1.7,0.2-2.5,0.6l0.1,0.8c0.7-0.3,1.5-0.6,2.3-0.6s1.4,0.4,1.4,1.3v0.4c-3,0.3-4.3,1-4.3,2.6
	c0,1.2,0.8,1.8,2,1.8c1,0,1.7-0.4,2.3-1l0.2,0.9h0.7V33v-4.7C427,26.9,426.2,26.3,424.8,26.3z M424,32.4c-0.7,0-1.2-0.4-1.2-1.1
	c0-0.9,0.7-1.5,3.3-1.8v1.9h0C425.5,32,424.7,32.4,424,32.4z"/>
<path class="st1" d="M421.1,27.1l-0.2-0.9c-1.1,0-1.9,0.8-2.4,1.5l-0.2-1.4h-0.7V33h0.9v-4.2C419,28,420,27.2,421.1,27.1z"/>
<path class="st1" d="M416,33l-0.1-0.8c-0.2,0-0.4,0.1-0.6,0.1c-0.7,0-1-0.3-1-1v-4.2h1.7l-0.1-0.8h-1.5v-2.4l-0.9,0.2v2.3h-1v0.8h1
	v4.3c0,1.2,0.7,1.6,1.7,1.6C415.5,33.1,415.8,33.1,416,33z"/>
<path class="st1" d="M408.6,23.9l-0.1-0.9c-0.1,0-0.2,0-0.5,0c-1.1,0-1.9,0.6-1.9,1.8v1.6h-1v0.8h1V33h0.9v-5.8h1.5l-0.1-0.8H407
	v-1.5c0-0.7,0.4-1,1-1C408.3,23.8,408.4,23.8,408.6,23.9z"/>
<path class="st1" d="M400.9,26.2c-1.7,0-3,1.3-3,3.5s1.3,3.4,3,3.4s3-1.2,3-3.4S402.6,26.2,400.9,26.2z M400.9,32.4
	c-1.3,0-2-1.1-2-2.7c0-1.6,0.7-2.7,2-2.7c1.4,0,2.1,1.2,2.1,2.7C403,31.3,402.3,32.4,400.9,32.4z"/>
<rect x="392" y="31.6" class="st1" width="1.1" height="1.4"/>
<path class="st1" d="M387.5,26.2c-1.7,0-3,1.3-3,3.5s1.3,3.4,3,3.4s3-1.2,3-3.4S389.2,26.2,387.5,26.2z M387.5,32.4
	c-1.3,0-2-1.1-2-2.7c0-1.6,0.7-2.7,2-2.7s2.1,1.2,2.1,2.7C389.6,31.3,388.9,32.4,387.5,32.4z"/>
<polygon class="st1" points="382.6,33 382.6,23.3 381.7,23.3 381.7,31.2 376.2,23.3 375.3,23.3 375.3,33 376.2,33 376.2,24.9 
	381.8,33 "/>
<rect x="68.5" y="95" class="st2" width="1" height="138"/>
<rect x="115.5" y="95" class="st2" width="1" height="138"/>
<rect x="162.5" y="95" class="st2" width="1" height="138"/>
<rect x="204.5" y="95" class="st2" width="1" height="138"/>
<rect x="250.5" y="95" class="st2" width="1" height="138"/>
<rect x="297.5" y="95" class="st2" width="1" height="138"/>
<rect x="344.5" y="95" class="st2" width="1" height="138"/>
<rect x="386.5" y="95" class="st2" width="1" height="138"/>
<rect x="433.5" y="95" class="st2" width="1" height="138"/>
<path class="st3" d="M514.4,125.8l9.1-30l-1.9-0.6l-9.1,30L514.4,125.8z M505,134.2l9.1-8l-1.3-1.5l-9.1,8L505,134.2z M486.9,134.2
	l9.1-8l-1.3-1.5l-9.1,8L486.9,134.2z M477.9,143.2l9.1-9l-1.4-1.4l-9.1,9L477.9,143.2z M494.6,126.2l9.1,8l1.3-1.5l-9.1-8
	L494.6,126.2z M459.9,146l9.1-16.8l-1.8-0.9l-9.1,16.8L459.9,146z M450.5,152.8l9.1-6.5l-1.2-1.6l-9.1,6.5L450.5,152.8z
	 M467.2,129.2l9.1,13.8l1.7-1.1l-9.1-13.8L467.2,129.2z M441.5,160.8l9.1-8l-1.3-1.5l-9.1,8L441.5,160.8z M432.7,175.5l9.1-15
	l-1.7-1l-9.1,15L432.7,175.5z M403.6,137.3l9.1,25.5l1.9-0.7l-9.1-25.5L403.6,137.3z M395.2,134.4l9.1,3.5l0.7-1.9l-9.1-3.5
	L395.2,134.4z M413.1,163.4l9.1,5.5l1-1.7l-9.1-5.5L413.1,163.4z M422.1,168.8l9.1,7l1.2-1.6l-9.1-7L422.1,168.8z M351.1,146
	l9.1-16.8l-1.8-0.9l-9.1,16.8L351.1,146z M340.2,125.9l9.1,20l1.8-0.8l-9.1-20L340.2,125.9z M367.4,119.9l9.1,20l1.8-0.8l-9.1-20
	L367.4,119.9z M360,129.4l9.1-9.2l-1.4-1.4l-9.1,9.2L360,129.4z M386.5,134.5h9.1v-2h-9.1V134.5z M377.9,140.3l9.1-6l-1.1-1.7
	l-9.1,6L377.9,140.3z M322.4,134.3l9.1,6l1.1-1.7l-9.1-6L322.4,134.3z M314.4,140.3l9.1-6l-1.1-1.7l-9.1,6L314.4,140.3z
	 M305.1,143.4l9.1-3l-0.6-1.9l-9.1,3L305.1,143.4z M295,134.2l9.1,9l1.4-1.4l-9.1-9L295,134.2z M332.9,140l9.1-14l-1.7-1.1l-9.1,14
	L332.9,140z M277.9,140.5l9.1-2.5l-0.5-1.9l-9.1,2.5L277.9,140.5z M268.3,138l9.1,2.5l0.5-1.9l-9.1-2.5L268.3,138z M260,143.4
	l9.1-5.5l-1-1.7l-9.1,5.5L260,143.4z M250.4,143.5h9.1v-2h-9.1V143.5z M241.6,146.4l9.1-3l-0.6-1.9l-9.1,3L241.6,146.4z
	 M231.3,110.2l9.1,35.5l1.9-0.5l-9.1-35.5L231.3,110.2z M214.6,134.4l9.1-4.8l-0.9-1.8l-9.1,4.8L214.6,134.4z M205.8,146.1l9.1-12
	l-1.6-1.2l-9.1,12L205.8,146.1z M224.1,129.1l9.1-18.7l-1.8-0.9l-9.1,18.7L224.1,129.1z M196,146.5h9.1v-2H196V146.5z M187.8,168.4
	l9.1-22.5l-1.9-0.7l-9.1,22.5L187.8,168.4z M177.2,160.8l9.1,8l1.3-1.5l-9.1-8L177.2,160.8z M167.8,137.4l9.1,23l1.9-0.7l-9.1-23
	L167.8,137.4z M159.3,134.4l9.1,3.5l0.7-1.9l-9.1-3.5L159.3,134.4z M141.2,143.4l9.1,3l0.6-1.9l-9.1-3L141.2,143.4z M133.1,150.3
	l9.1-7l-1.2-1.6l-9.1,7L133.1,150.3z M151.4,146.1l9.1-12l-1.6-1.2l-9.1,12L151.4,146.1z M124.2,163.1l9.1-13l-1.6-1.1l-9.1,13
	L124.2,163.1z M113.4,142.9l9.1,20l1.8-0.8l-9.1-20L113.4,142.9z M106.2,168.3l9.1-25.5l-1.9-0.7l-9.1,25.5L106.2,168.3z
	 M95.7,163.4l9.1,5.5l1-1.7l-9.1-5.5L95.7,163.4z M86.3,146l9.1,17l1.8-0.9L88,145L86.3,146z M78.9,160.5L88,146l-1.7-1.1l-9.1,14.5
	L78.9,160.5z M68.1,137.4l9.1,23l1.9-0.7l-9.1-23L68.1,137.4z M287,137.9l9.1-3.5l-0.7-1.9l-9.1,3.5L287,137.9z M513.4,125.5
	l0.7,0.7c0.1-0.1,0.2-0.3,0.3-0.5L513.4,125.5z M486.2,133.5l-0.7-0.7l0,0L486.2,133.5z M504.4,133.5l-0.7,0.7
	c0.4,0.3,0.9,0.3,1.3,0L504.4,133.5z M495.3,125.5l0.7-0.7c-0.4-0.3-0.9-0.3-1.3,0L495.3,125.5z M459,145.5l0.6,0.8
	c0.1-0.1,0.2-0.2,0.3-0.3L459,145.5z M468.1,128.7l0.8-0.5c-0.2-0.3-0.5-0.5-0.9-0.5s-0.7,0.2-0.8,0.5L468.1,128.7z M477.1,142.5
	l-0.8,0.5c0.2,0.3,0.4,0.4,0.7,0.4c0.3,0,0.6-0.1,0.8-0.3L477.1,142.5z M440.9,160l-0.7-0.7c-0.1,0.1-0.1,0.1-0.2,0.2L440.9,160z
	 M404.6,137l0.9-0.3c-0.1-0.3-0.3-0.5-0.6-0.6L404.6,137z M413.7,162.5l-0.9,0.3c0.1,0.2,0.2,0.4,0.4,0.5L413.7,162.5z M431.8,175
	l-0.6,0.8c0.2,0.2,0.5,0.2,0.8,0.2c0.3-0.1,0.5-0.2,0.7-0.5L431.8,175z M422.7,168l0.6-0.8c0,0-0.1,0-0.1-0.1L422.7,168z
	 M350.2,145.5l-0.9,0.4c0.2,0.3,0.5,0.6,0.9,0.6s0.7-0.2,0.9-0.5L350.2,145.5z M368.3,119.5l0.9-0.4c-0.1-0.3-0.4-0.5-0.7-0.6
	c-0.3-0.1-0.7,0-0.9,0.3L368.3,119.5z M386.5,133.5v-1c-0.2,0-0.4,0.1-0.6,0.2L386.5,133.5z M359.2,128.7l-0.7-0.7
	c-0.1,0.1-0.1,0.1-0.2,0.2L359.2,128.7z M377.4,139.5l-0.9,0.4c0.1,0.3,0.4,0.5,0.6,0.5c0.3,0.1,0.6,0,0.8-0.1L377.4,139.5z
	 M323,133.5l0.6-0.8c-0.3-0.2-0.8-0.2-1.1,0L323,133.5z M304.8,142.5l-0.7,0.7c0.3,0.3,0.7,0.4,1,0.2L304.8,142.5z M313.9,139.5
	l0.3,0.9c0.1,0,0.2-0.1,0.2-0.1L313.9,139.5z M332,139.5l-0.6,0.8c0.2,0.1,0.5,0.2,0.8,0.1c0.3-0.1,0.5-0.2,0.6-0.4L332,139.5z
	 M277.6,139.5l-0.3,1c0.2,0,0.4,0,0.5,0L277.6,139.5z M259.5,142.5v1c0.2,0,0.4-0.1,0.5-0.1L259.5,142.5z M268.5,137l0.3-1
	c-0.3-0.1-0.5,0-0.8,0.1L268.5,137z M241.3,145.5l-1,0.2c0.1,0.3,0.2,0.5,0.5,0.6c0.2,0.1,0.5,0.2,0.8,0.1L241.3,145.5z
	 M214.1,133.5l-0.5-0.9c-0.1,0.1-0.2,0.2-0.3,0.3L214.1,133.5z M223.2,128.7l0.5,0.9c0.2-0.1,0.3-0.3,0.4-0.4L223.2,128.7z
	 M250.4,142.5v-1c-0.1,0-0.2,0-0.3,0.1L250.4,142.5z M232.3,110l1-0.2c-0.1-0.4-0.5-0.7-0.9-0.7s-0.8,0.2-1,0.6L232.3,110z
	 M205.1,145.5v1c0.3,0,0.6-0.1,0.8-0.4L205.1,145.5z M186.9,168l-0.7,0.7c0.2,0.2,0.6,0.3,0.9,0.2c0.3-0.1,0.6-0.3,0.7-0.6
	L186.9,168z M168.8,137l0.9-0.4c-0.1-0.3-0.3-0.5-0.6-0.6L168.8,137z M177.8,160l-0.9,0.4c0.1,0.1,0.2,0.3,0.3,0.4L177.8,160z
	 M141.6,142.5l0.3-0.9c-0.3-0.1-0.7,0-0.9,0.2L141.6,142.5z M150.6,145.5l-0.3,0.9c0.4,0.1,0.9,0,1.1-0.3L150.6,145.5z M123.4,162.5
	l-0.9,0.4c0.1,0.3,0.5,0.5,0.8,0.6c0.4,0,0.7-0.1,0.9-0.4L123.4,162.5z M132.5,149.5l-0.6-0.8c-0.1,0.1-0.2,0.1-0.2,0.2L132.5,149.5
	z M114.3,142.5l0.9-0.4c-0.2-0.4-0.5-0.6-1-0.6s-0.8,0.3-0.9,0.7L114.3,142.5z M96.2,162.5l-0.9,0.5c0.1,0.2,0.2,0.3,0.4,0.4
	L96.2,162.5z M78.1,160l-0.9,0.4c0.1,0.4,0.5,0.6,0.8,0.6c0.4,0,0.7-0.1,0.9-0.5L78.1,160z M87.1,145.5L88,145
	c-0.2-0.3-0.5-0.5-0.8-0.5c-0.4,0-0.7,0.2-0.9,0.5L87.1,145.5z M105.3,168l-0.5,0.9c0.3,0.2,0.6,0.2,0.9,0.1s0.5-0.3,0.6-0.6
	L105.3,168z M523.5,95.8c0.2-0.5-0.1-1.1-0.7-1.2c-0.5-0.2-1.1,0.1-1.2,0.7L523.5,95.8z M69.9,136.6c-0.2-0.5-0.8-0.8-1.3-0.6
	s-0.8,0.8-0.6,1.3L69.9,136.6z M449.9,152l-0.6-0.8c0,0-0.1,0-0.1,0.1L449.9,152z M395.5,133.5l0.4-0.9c-0.1,0-0.2-0.1-0.4-0.1
	V133.5z M341.1,125.5l0.9-0.4c-0.2-0.3-0.5-0.6-0.8-0.6s-0.7,0.1-0.9,0.5L341.1,125.5z M295.8,133.5l0.7-0.7
	c-0.3-0.3-0.7-0.4-1.1-0.2L295.8,133.5z M286.7,137l0.3,1h0.1L286.7,137z M196,145.5v-1c-0.4,0-0.8,0.2-0.9,0.6L196,145.5z
	 M159.7,133.5l0.4-0.9c-0.4-0.2-0.9,0-1.2,0.3L159.7,133.5z"/>
<path class="st4" d="M48.3,155.7c-1.8,0-3,1.6-3,4.2c0,2.6,1.1,4.2,3,4.2c1.8,0.1,3-1.6,3-4.2C51.3,157.3,50.2,155.7,48.3,155.7z
	 M48.3,163.4c-1.4,0-2.2-1.4-2.2-3.5c0-2.1,0.8-3.5,2.2-3.5c1.4,0,2.2,1.4,2.2,3.5C50.5,162,49.7,163.4,48.3,163.4z"/>
<path class="st4" d="M40.9,155.7c-1.8,0-3,1.6-3,4.2c0,2.6,1.1,4.2,3,4.2c1.8,0.1,3-1.6,3-4.2C43.9,157.3,42.8,155.7,40.9,155.7z
	 M40.9,163.4c-1.4,0-2.2-1.4-2.2-3.5c0-2.1,0.8-3.5,2.2-3.5c1.4,0,2.2,1.4,2.2,3.5C43.1,162,42.3,163.4,40.9,163.4z"/>
<path class="st4" d="M36.5,164l-0.1-0.7h-3.9l2.5-2.6c1-1,1.4-1.7,1.4-2.7c0-1.3-0.9-2.2-2.4-2.2c-1,0-1.8,0.4-2.4,0.9l0.1,0.8
	c0.6-0.6,1.4-1,2.2-1c1,0,1.6,0.6,1.6,1.5c0,0.8-0.3,1.3-1.2,2.2l-3,3.2v0.6H36.5z"/>
<path class="st4" d="M48.3,123.7c-1.8,0-3,1.6-3,4.2c0,2.6,1.1,4.2,3,4.2c1.8,0.1,3-1.6,3-4.2C51.3,125.3,50.2,123.7,48.3,123.7z
	 M48.3,131.4c-1.4,0-2.2-1.4-2.2-3.5c0-2.1,0.8-3.5,2.2-3.5c1.4,0,2.2,1.4,2.2,3.5C50.5,130,49.7,131.4,48.3,131.4z"/>
<path class="st4" d="M40.9,123.7c-1.8,0-3,1.6-3,4.2c0,2.6,1.1,4.2,3,4.2c1.8,0.1,3-1.6,3-4.2C43.9,125.3,42.8,123.7,40.9,123.7z
	 M40.9,131.4c-1.4,0-2.2-1.4-2.2-3.5c0-2.1,0.8-3.5,2.2-3.5c1.4,0,2.2,1.4,2.2,3.5C43.1,130,42.3,131.4,40.9,131.4z"/>
<path class="st4" d="M36.5,129.8c0-1.1-0.7-1.8-1.7-2.1c0.9-0.3,1.5-0.9,1.5-1.9c0-1.1-0.8-2.1-2.4-2.1c-1,0-1.7,0.3-2.3,0.7
	l0.1,0.8c0.6-0.5,1.3-0.8,2.2-0.8c1.1,0,1.6,0.6,1.6,1.4c0,0.9-0.7,1.5-2.1,1.5h-0.6l0.1,0.7h0.4c1.6,0,2.4,0.7,2.4,1.7
	s-0.7,1.6-1.9,1.6c-0.9,0-1.5-0.2-2.2-0.7l-0.1,0.8c0.6,0.4,1.4,0.6,2.3,0.6C35.4,132.2,36.5,131.2,36.5,129.8z"/>
<path class="st4" d="M48.3,91.7c-1.8,0-3,1.6-3,4.2c0,2.6,1.1,4.2,3,4.2c1.8,0.1,3-1.6,3-4.2C51.3,93.3,50.2,91.7,48.3,91.7z
	 M48.3,99.4c-1.4,0-2.2-1.4-2.2-3.5c0-2.1,0.8-3.5,2.2-3.5c1.4,0,2.2,1.4,2.2,3.5C50.5,98,49.7,99.4,48.3,99.4z"/>
<path class="st4" d="M40.9,91.7c-1.8,0-3,1.6-3,4.2c0,2.6,1.1,4.2,3,4.2c1.8,0.1,3-1.6,3-4.2C43.9,93.3,42.8,91.7,40.9,91.7z
	 M40.9,99.4c-1.4,0-2.2-1.4-2.2-3.5c0-2.1,0.8-3.5,2.2-3.5c1.4,0,2.2,1.4,2.2,3.5C43.1,98,42.3,99.4,40.9,99.4z"/>
<path class="st4" d="M35.5,97.4v-5.6h-1l-3.9,5.7v0.6h4.2v1.9h0.7v-1.9h1.3v-0.7H35.5z M34.7,97.4h-3.3l3.3-4.7V97.4z"/>
<linearGradient id="SVGID_1_" gradientUnits="userSpaceOnUse" x1="295.3499" y1="472.2" x2="295.3499" y2="609.2" gradientTransform="matrix(1 0 0 1 0 -376)">
	<stop  offset="0" style="stop-color:#0082D9"/>
	<stop  offset="1" style="stop-color:#0082D9;stop-opacity:0"/>
</linearGradient>
<path class="st5" d="M296,134.2l-9.1,3.5l-9.1,2.5l-9.1-2.5l-9.1,5.5h-9.1l-9.1,3l-9.1-35.5l-9.1,18.7l-9.1,4.8l-9.1,12h-9.1
	l-9.1,22.5l-9.1-8l-9.1-23l-9.1-3.5l-9.1,12l-9.1-3l-9.1,7l-9.1,13l-9.1-20l-9.1,25.5l-9.1-5.5l-9.1-17l-9.1,14.5l-10-23v96h455.5
	V96.2l-10,30l-9.1,8l-9.1-8l-9.1,8l-9.1,9l-9.1-13.8l-9.1,16.8l-9.1,6.5l-9.1,8l-9.1,15l-9.1-7l-9.1-5.5l-9.1-25.5l-9.1-3.5h-9.1
	l-9.1,6l-9.1-20l-9.1,9.2l-9.1,16.8l-9.1-20l-9.1,14l-9.1-6l-9.1,6l-9.1,3L296,134.2z"/>
<g>
	<path class="st6" d="M448,1c3.9,0,7,3.1,7,7v168c0,3.9-3.1,7-7,7H8c-3.9,0-7-3.1-7-7V8c0-3.9,3.1-7,7-7H448 M448,0H8
		C3.6,0,0,3.6,0,8v168c0,4.4,3.6,8,8,8h440c4.4,0,8-3.6,8-8V8C456,3.6,452.4,0,448,0L448,0z"/>
</g>
</svg>
