<?xml version="1.0" encoding="utf-8"?>
<!-- Generator: Adobe Illustrator 25.0.1, SVG Export Plug-In . SVG Version: 6.00 Build 0)  -->
<svg version="1.1" id="Layer_1" xmlns="http://www.w3.org/2000/svg" xmlns:xlink="http://www.w3.org/1999/xlink" x="0px" y="0px"
	 viewBox="0 0 456 184" style="enable-background:new 0 0 456 184;" xml:space="preserve">
<style type="text/css">
	.st0{fill:#F8F9FA;}
	.st1{fill:#22A77D;}
	.st2{fill:#EFF3F5;}
	.st3{fill-rule:evenodd;clip-rule:evenodd;fill:#FFE7B5;}
	.st4{fill-rule:evenodd;clip-rule:evenodd;fill:#EAA004;}
	.st5{fill:#354C55;}
	.st6{fill-rule:evenodd;clip-rule:evenodd;fill:#FED2D2;}
	.st7{fill-rule:evenodd;clip-rule:evenodd;fill:#E25252;}
	.st8{fill:#667080;}
	.st9{fill-rule:evenodd;clip-rule:evenodd;fill:#667080;}
	.st10{fill:#DFE7EB;}
	.st11{fill:#1B2F37;}
	.st12{fill:#16866D;}
	.st13{fill-rule:evenodd;clip-rule:evenodd;fill:#16866D;}
	.st14{fill:#FFFFFF;}
	.st15{fill:none;stroke:#C6D4DB;stroke-width:0.9293;stroke-linecap:round;stroke-linejoin:round;}
	.st16{fill:#E6E7EC;}
</style>
<rect y="106.3" class="st0" width="456" height="36.2"/>
<rect y="106.3" class="st1" width="2.8" height="36.2"/>
<rect y="142.6" class="st2" width="456" height="0.9"/>
<path class="st3" d="M30.8,132.9L30.8,132.9c-4.4,0-7.9-3.5-7.9-7.9c0-4.4,3.5-7.9,7.9-7.9s7.9,3.5,7.9,7.9
	C38.7,129.4,35.1,132.9,30.8,132.9"/>
<path class="st4" d="M35.9,125.8l-0.9-2.8c0,0,0,0,0,0c-0.1-0.1-0.2-0.2-0.3-0.3l-3.4-0.8v-0.6c0-0.3-0.2-0.5-0.5-0.5
	c-0.3,0-0.5,0.2-0.5,0.5v0.3l-3.1-0.8c-0.2-0.1-0.5,0.1-0.5,0.3c0,0,0,0,0,0l-0.9,2.8c0,0,0,0.1,0,0.1c0,0.8,0.6,1.4,1.4,1.4
	c0.8,0,1.4-0.6,1.4-1.4c0-0.1,0-0.1,0-0.1l-0.7-2l2.5,0.6v4.9l-2.5,0.8c-0.2,0.1-0.3,0.3-0.3,0.5s0.2,0.4,0.5,0.4h5.6
	c0.2,0,0.4-0.2,0.5-0.4c0-0.2-0.1-0.4-0.3-0.5l-2.5-0.8v-4.6l2.7,0.7l-0.8,2.3c0,0,0,0.1,0,0.1c0,0.8,0.6,1.4,1.4,1.4
	c0.8,0,1.4-0.6,1.4-1.4C35.9,125.9,35.9,125.8,35.9,125.8"/>
<path class="st5" d="M68.1,125.9c0,2.5-0.7,3.8-1.9,3.8c-1.2,0-1.9-1.3-1.9-3.8c0-2.5,0.7-3.8,1.9-3.8
	C67.4,122.1,68.1,123.4,68.1,125.9z M69.3,125.9c0-3.2-1.2-4.8-3.1-4.8s-3.1,1.7-3.1,4.8c0,3.2,1.2,4.8,3.1,4.8
	S69.3,129.1,69.3,125.9z M61.8,130.7l-0.2-1.1h-2.1v-8.5h-0.9l-2.8,1.2l0.2,1.1l2.3-1v7.1h-2.4v1.1H61.8z"/>
<path class="st5" d="M96.3,125.3c0,2.5-1.5,3.7-3.7,3.7H91v-7.4h1.6C94.8,121.6,96.3,122.8,96.3,125.3z M97.2,125.2
	c0-2.7-1.7-4.5-4.7-4.5h-2.4v9h2.4C95.4,129.7,97.2,128,97.2,125.2z M88.2,127.4c0-1.3-0.7-2-2.3-2.7c-1.4-0.6-1.8-1-1.8-1.8
	c0-0.8,0.6-1.4,1.6-1.4c0.8,0,1.4,0.2,1.9,0.6l0.1-0.9c-0.5-0.3-1.1-0.5-2-0.5c-1.5,0-2.6,0.9-2.6,2.3c0,1.3,0.6,1.8,2.3,2.6
	c1.4,0.6,1.8,1,1.8,1.9c0,1-0.8,1.6-1.8,1.6c-0.9,0-1.7-0.3-2.3-0.7l-0.1,0.9c0.6,0.3,1.4,0.6,2.4,0.6
	C87,129.8,88.2,128.9,88.2,127.4z M81.2,126.3v-5.6h-0.9v5.6c0,1.7-0.9,2.8-2.5,2.8c-1.7,0-2.5-1.1-2.5-2.8v-5.5h-0.9v5.6
	c0,2.1,1.2,3.5,3.4,3.5C79.9,129.9,81.2,128.5,81.2,126.3z"/>
<path class="st5" d="M315,120.6v3.3c-0.4-0.2-1-0.3-1.6-0.3c-1.5,0-2.8,1.1-2.8,3.3c0,2.1,1.1,3,2.5,3c0.9,0,1.5-0.5,2-1l0.2,0.9
	h0.7v-9.3L315,120.6z M315,128c-0.5,0.7-1.1,1.1-1.8,1.1c-1,0-1.7-0.8-1.7-2.3c0-1.7,0.9-2.6,2-2.6c0.6,0,1.1,0.1,1.6,0.4V128z"/>
<path class="st5" d="M309.3,126.5c0-1.7-0.8-3.1-2.5-3.1c-1.5,0-2.7,1.2-2.7,3.2c0,2.1,1.2,3.2,2.8,3.2c0.9,0,1.7-0.4,2.4-0.9
	l-0.1-0.8c-0.6,0.5-1.4,0.9-2.2,0.9c-1.2,0-1.9-0.9-2-2.4h4.3C309.3,126.7,309.3,126.6,309.3,126.5z M305.1,126
	c0.2-1.2,0.8-1.9,1.8-1.9c1,0,1.5,0.8,1.6,1.9H305.1z"/>
<path class="st5" d="M303.5,124.3l-0.1-0.8c-1,0-1.7,0.7-2.2,1.4l-0.2-1.3h-0.6v6.2h0.9v-3.9C301.6,125.1,302.5,124.3,303.5,124.3z"
	/>
<rect x="297.4" y="123.6" class="st5" width="0.8" height="6.2"/>
<path class="st5" d="M298.4,121.5c0-0.3-0.3-0.6-0.6-0.6s-0.6,0.3-0.6,0.6c0,0.3,0.3,0.6,0.6,0.6S298.4,121.8,298.4,121.5z"/>
<path class="st5" d="M295.3,129.7v-6.2h-0.9v4.4c-0.7,0.7-1.3,1.1-2,1.1c-0.8,0-1.1-0.5-1.1-1.3v-4.2h-0.9v4.4
	c0,1.2,0.6,1.9,1.8,1.9c0.8,0,1.5-0.4,2.2-1l0.1,0.9H295.3z"/>
<path class="st5" d="M286.2,123.5c-1.7,0-3,1.1-3,3.3c0,2.1,1.1,3,2.5,3c0.9,0,1.5-0.5,1.9-0.9v3.2l0.9-0.1v-8.1
	C287.8,123.7,287.1,123.5,286.2,123.5z M287.6,128c-0.5,0.6-1.1,1.1-1.8,1.1c-1,0-1.7-0.8-1.7-2.3c0-1.8,0.9-2.6,2.1-2.6
	c0.6,0,1,0.1,1.4,0.3V128z"/>
<path class="st5" d="M282,126.5c0-1.7-0.8-3.1-2.5-3.1c-1.5,0-2.7,1.2-2.7,3.2c0,2.1,1.2,3.2,2.8,3.2c0.9,0,1.7-0.4,2.4-0.9
	l-0.1-0.8c-0.6,0.5-1.4,0.9-2.2,0.9c-1.2,0-1.9-0.9-2-2.4h4.3C282,126.7,282,126.6,282,126.5z M277.7,126c0.2-1.2,0.8-1.9,1.8-1.9
	c1,0,1.5,0.8,1.6,1.9H277.7z"/>
<path class="st5" d="M276.1,124.3l-0.1-0.8c-1,0-1.7,0.7-2.2,1.4l-0.2-1.3H273v6.2h0.9v-3.9C274.2,125.1,275.1,124.3,276.1,124.3z"
	/>
<path class="st5" d="M268.4,126.5c0-1.7-0.8-3.1-2.5-3.1c-1.5,0-2.7,1.2-2.7,3.2c0,2.1,1.2,3.2,2.8,3.2c0.9,0,1.7-0.4,2.4-0.9
	l-0.1-0.8c-0.6,0.5-1.4,0.9-2.2,0.9c-1.2,0-1.9-0.9-2-2.4h4.3C268.4,126.7,268.4,126.6,268.4,126.5z M264.1,126
	c0.2-1.2,0.8-1.9,1.8-1.9c1,0,1.5,0.8,1.6,1.9H264.1z"/>
<path class="st5" d="M262.2,129.2l-0.1-0.8c-0.6,0.5-1.2,0.7-1.9,0.7c-1.2,0-2-0.9-2-2.5c0-1.5,0.8-2.5,1.9-2.5
	c0.7,0,1.3,0.2,1.9,0.7l0.1-0.9c-0.5-0.4-1.2-0.6-2-0.6c-1.6,0-2.8,1.1-2.8,3.2c0,2,1.2,3.2,2.8,3.2
	C260.9,129.9,261.6,129.6,262.2,129.2z"/>
<path class="st5" d="M255.7,129.7v-4.4c0-1.2-0.6-1.9-1.8-1.9c-0.8,0-1.5,0.4-2.2,1l-0.1-0.9h-0.7v6.2h0.9v-4.4
	c0.7-0.7,1.3-1.1,2-1.1c0.8,0,1.1,0.5,1.1,1.3v4.2H255.7z"/>
<path class="st5" d="M249.2,126.5c0-1.7-0.8-3.1-2.5-3.1c-1.5,0-2.7,1.2-2.7,3.2c0,2.1,1.2,3.2,2.8,3.2c0.9,0,1.7-0.4,2.4-0.9
	l-0.1-0.8c-0.6,0.5-1.4,0.9-2.2,0.9c-1.2,0-1.9-0.9-2-2.4h4.3C249.2,126.7,249.2,126.6,249.2,126.5z M245,126
	c0.2-1.2,0.8-1.9,1.8-1.9c1,0,1.5,0.8,1.6,1.9H245z"/>
<path class="st5" d="M241.6,120.6v3.3c-0.4-0.2-1-0.3-1.6-0.3c-1.5,0-2.8,1.1-2.8,3.3c0,2.1,1.1,3,2.5,3c0.9,0,1.5-0.5,2-1l0.2,0.9
	h0.7v-9.3L241.6,120.6z M241.6,128c-0.5,0.7-1.1,1.1-1.8,1.1c-1,0-1.7-0.8-1.7-2.3c0-1.7,0.9-2.6,2-2.6c0.6,0,1.1,0.1,1.6,0.4V128z"
	/>
<rect x="234.6" y="123.6" class="st5" width="0.8" height="6.2"/>
<path class="st5" d="M235.7,121.5c0-0.3-0.3-0.6-0.6-0.6c-0.3,0-0.6,0.3-0.6,0.6c0,0.3,0.3,0.6,0.6,0.6
	C235.4,122.1,235.7,121.8,235.7,121.5z"/>
<polygon class="st5" points="233.1,123.6 232.3,123.6 230.5,128.7 228.7,123.5 227.8,123.7 230.1,129.8 230.9,129.8 "/>
<polygon class="st5" points="227.1,129.7 227.1,128.9 223.2,128.9 223.2,125.5 226.3,125.5 226.2,124.6 223.2,124.6 223.2,121.6 
	227,121.6 227,120.8 222.3,120.8 222.3,129.7 "/>
<rect x="214.2" y="125.6" class="st5" width="3.1" height="0.9"/>
<path class="st5" d="M208.6,120.6v3.3c-0.4-0.2-1-0.3-1.6-0.3c-1.5,0-2.8,1.1-2.8,3.3c0,2.1,1.1,3,2.5,3c0.9,0,1.5-0.5,2-1l0.2,0.9
	h0.7v-9.3L208.6,120.6z M208.6,128c-0.5,0.7-1.1,1.1-1.8,1.1c-1,0-1.7-0.8-1.7-2.3c0-1.7,0.9-2.6,2-2.6c0.6,0,1.1,0.1,1.6,0.4V128z"
	/>
<path class="st5" d="M202.9,126.5c0-1.7-0.8-3.1-2.5-3.1c-1.5,0-2.7,1.2-2.7,3.2c0,2.1,1.2,3.2,2.8,3.2c0.9,0,1.7-0.4,2.4-0.9
	l-0.1-0.8c-0.6,0.5-1.4,0.9-2.2,0.9c-1.2,0-1.9-0.9-2-2.4h4.3C202.9,126.7,202.9,126.6,202.9,126.5z M198.7,126
	c0.2-1.2,0.8-1.9,1.8-1.9c1,0,1.5,0.8,1.6,1.9H198.7z"/>
<path class="st5" d="M196.7,129.7l-0.1-0.7c-0.1,0-0.4,0.1-0.6,0.1c-0.7,0-0.9-0.3-0.9-0.9v-3.9h1.5l-0.1-0.7h-1.4v-2.3l-0.8,0.1
	v2.1h-0.9v0.7h0.9v4c0,1.1,0.6,1.5,1.6,1.5C196.2,129.8,196.5,129.8,196.7,129.7z"/>
<path class="st5" d="M191.9,129.7v-6.2h-0.9v4.4c-0.7,0.7-1.3,1.1-2,1.1c-0.8,0-1.1-0.5-1.1-1.3v-4.2h-0.9v4.4
	c0,1.2,0.6,1.9,1.8,1.9c0.8,0,1.5-0.4,2.2-1l0.1,0.9H191.9z"/>
<path class="st5" d="M183,123.5c-0.9,0-1.5,0.5-2,1l-0.1-0.9h-0.7v8.5l0.9-0.1v-2.5c0.4,0.2,1,0.3,1.6,0.3c1.5,0,2.8-1.1,2.8-3.3
	C185.5,124.4,184.3,123.5,183,123.5z M182.6,129.1c-0.6,0-1.1-0.1-1.6-0.4v-3.4c0.6-0.7,1.1-1.1,1.8-1.1c1,0,1.7,0.8,1.7,2.3
	C184.6,128.2,183.8,129.1,182.6,129.1z"/>
<path class="st5" d="M178.6,128.1c0-1.1-0.7-1.6-2.2-2c-1-0.3-1.4-0.5-1.4-1s0.4-0.9,1.2-0.9c0.6,0,1.2,0.2,1.8,0.5l0.1-0.8
	c-0.5-0.2-1.2-0.4-1.9-0.4c-1.3,0-2.1,0.7-2.1,1.7c0,1,0.6,1.5,2,1.8c1.2,0.3,1.6,0.6,1.6,1.2c0,0.6-0.5,1-1.4,1
	c-0.8,0-1.6-0.3-2.1-0.7l-0.1,0.8c0.5,0.3,1.4,0.6,2.2,0.6C177.7,129.9,178.6,129.2,178.6,128.1z"/>
<rect x="171.6" y="123.6" class="st5" width="0.8" height="6.2"/>
<path class="st5" d="M172.6,121.5c0-0.3-0.3-0.6-0.6-0.6c-0.3,0-0.6,0.3-0.6,0.6c0,0.3,0.3,0.6,0.6,0.6
	C172.3,122.1,172.6,121.8,172.6,121.5z"/>
<path class="st5" d="M168.6,120.6v3.3c-0.4-0.2-1-0.3-1.6-0.3c-1.5,0-2.8,1.1-2.8,3.3c0,2.1,1.1,3,2.5,3c0.9,0,1.5-0.5,2-1l0.2,0.9
	h0.7v-9.3L168.6,120.6z M168.6,128c-0.5,0.7-1.1,1.1-1.8,1.1c-1,0-1.7-0.8-1.7-2.3c0-1.7,0.9-2.6,2-2.6c0.6,0,1.1,0.1,1.6,0.4V128z"
	/>
<path class="st5" d="M160.1,129.7L160,129c-0.1,0-0.4,0.1-0.6,0.1c-0.7,0-0.9-0.3-0.9-0.9v-3.9h1.5l-0.1-0.7h-1.4v-2.3l-0.8,0.1v2.1
	h-0.9v0.7h0.9v4c0,1.1,0.6,1.5,1.6,1.5C159.6,129.8,159.9,129.8,160.1,129.7z"/>
<path class="st5" d="M155.4,129.7v-4.4c0-1.2-0.6-1.9-1.8-1.9c-0.8,0-1.5,0.4-2.2,1l-0.1-0.9h-0.7v6.2h0.9v-4.4
	c0.7-0.7,1.3-1.1,2-1.1c0.8,0,1.1,0.5,1.1,1.3v4.2H155.4z"/>
<path class="st5" d="M148.9,126.5c0-1.7-0.8-3.1-2.5-3.1c-1.5,0-2.7,1.2-2.7,3.2c0,2.1,1.2,3.2,2.8,3.2c0.9,0,1.7-0.4,2.4-0.9
	l-0.1-0.8c-0.6,0.5-1.4,0.9-2.2,0.9c-1.2,0-1.9-0.9-2-2.4h4.3C148.9,126.7,148.9,126.6,148.9,126.5z M144.6,126
	c0.2-1.2,0.8-1.9,1.8-1.9c1,0,1.5,0.8,1.6,1.9H144.6z"/>
<path class="st5" d="M142.2,129.7v-4.4c0-1.2-0.6-1.9-1.8-1.9c-0.8,0-1.6,0.5-2.2,1.1c-0.2-0.7-0.7-1.1-1.7-1.1
	c-0.8,0-1.5,0.4-2.2,1l-0.1-0.9h-0.7v6.2h0.9v-4.5c0.7-0.7,1.3-1,2-1c0.8,0,1.1,0.5,1.1,1.3v4.2h0.8v-4.5c0.7-0.7,1.3-1.1,2-1.1
	c0.8,0,1.1,0.5,1.1,1.3v4.2H142.2z"/>
<path class="st5" d="M132.1,123.6h-0.9l-1.8,5.2l-1.9-5.2l-0.8,0.2l2.3,6.1l-0.3,0.7c-0.2,0.6-0.5,0.8-1,0.8c-0.2,0-0.4,0-0.5-0.1
	l0.1,0.8c0.1,0,0.2,0,0.3,0c0.9,0,1.5-0.4,1.9-1.6L132.1,123.6z"/>
<path class="st5" d="M123.3,123.5c-0.9,0-1.6,0.2-2.3,0.5l0.1,0.8c0.7-0.3,1.4-0.5,2.1-0.5c0.8,0,1.3,0.4,1.3,1.2v0.4
	c-2.8,0.3-4,0.9-4,2.4c0,1.1,0.8,1.7,1.8,1.7c0.9,0,1.6-0.4,2.2-0.9l0.1,0.8h0.7v-4.4C125.4,124.1,124.7,123.5,123.3,123.5z
	 M124.5,128.2c-0.6,0.6-1.3,0.9-2,0.9c-0.7,0-1.1-0.3-1.1-1c0-0.8,0.7-1.4,3.1-1.7V128.2z"/>
<path class="st5" d="M116.8,120.8h-2.2v9h0.9V126h1.1c1.8,0,3.1-0.9,3.1-2.7C119.7,121.7,118.6,120.8,116.8,120.8z M116.6,125.2
	h-1.2v-3.6h1.3c1.4,0,2.1,0.6,2.1,1.8C118.8,124.6,118,125.2,116.6,125.2z"/>
<path class="st6" d="M33.7,162.6c0.4-0.6,1.2-0.6,1.6,0l3.5,6c0.4,0.6-0.1,1.4-0.8,1.4h-7c-0.7,0-1.2-0.8-0.8-1.4L33.7,162.6z
	 M34.5,161.2c-0.7,0-1.3,0.3-1.6,0.9l-3.5,6c-0.3,0.5-0.3,1.1-0.1,1.6c-3.7-0.9-6.4-4.2-6.4-8.1c0-4.6,3.7-8.4,8.4-8.4
	c4.6,0,8.4,3.7,8.4,8.4c0,1.6-0.5,3.1-1.2,4.4l-2.3-3.9C35.8,161.6,35.2,161.2,34.5,161.2z"/>
<path class="st7" d="M34.3,168.2c-0.1,0-0.1,0.1-0.1,0.1c-0.1,0.1-0.1,0.2-0.1,0.3c0,0.1,0,0.1,0,0.2c0,0.1,0.1,0.1,0.1,0.1
	c0,0,0.1,0.1,0.1,0.1c0.1,0,0.1,0,0.2,0c0.1,0,0.2,0,0.3-0.1c0,0,0.1-0.1,0.1-0.1c0-0.1,0-0.1,0-0.2c0-0.1,0-0.2-0.1-0.3
	C34.7,168.2,34.5,168.2,34.3,168.2z M34.5,164.5c-0.3,0-0.5,0.2-0.5,0.5v1.9c0,0.3,0.2,0.5,0.5,0.5c0.3,0,0.5-0.2,0.5-0.5V165
	C35,164.7,34.7,164.5,34.5,164.5z M27.2,160.8h5.4c0.6,0,1.2,0.2,1.7,0.5c-0.4,0-0.8,0.2-1.1,0.5c-0.2,0-0.4-0.1-0.5-0.1h-5.4l2,2
	c0.2,0.2,0.2,0.5,0,0.7c-0.1,0.1-0.2,0.1-0.3,0.1c-0.1,0-0.2,0-0.3-0.1l-2.8-2.8c0,0-0.1-0.1-0.1-0.2c0-0.1,0-0.2,0-0.4
	c0-0.1,0.1-0.1,0.1-0.2l2.8-2.8c0.2-0.2,0.5-0.2,0.7,0c0.2,0.2,0.2,0.5,0,0.7L27.2,160.8z"/>
<path class="st8" d="M68.1,163.1c0,2.5-0.7,3.8-1.9,3.8c-1.2,0-1.9-1.3-1.9-3.8c0-2.5,0.7-3.8,1.9-3.8
	C67.4,159.3,68.1,160.6,68.1,163.1z M69.3,163.1c0-3.2-1.2-4.8-3.1-4.8s-3.1,1.7-3.1,4.8c0,3.2,1.2,4.8,3.1,4.8
	S69.3,166.3,69.3,163.1z M61.8,167.8l-0.2-1.1h-2.1v-8.5h-0.9l-2.8,1.2l0.2,1.1l2.3-1v7.1h-2.4v1.1H61.8z"/>
<path class="st8" d="M96.3,162.4c0,2.5-1.5,3.7-3.7,3.7H91v-7.4h1.6C94.8,158.7,96.3,160,96.3,162.4z M97.2,162.4
	c0-2.7-1.7-4.5-4.7-4.5h-2.4v9h2.4C95.4,166.9,97.2,165.2,97.2,162.4z M88.2,164.6c0-1.3-0.7-2-2.3-2.7c-1.4-0.6-1.8-1-1.8-1.8
	c0-0.8,0.6-1.4,1.6-1.4c0.8,0,1.4,0.2,1.9,0.6l0.1-0.9c-0.5-0.3-1.1-0.5-2-0.5c-1.5,0-2.6,0.9-2.6,2.3c0,1.3,0.6,1.8,2.3,2.6
	c1.4,0.6,1.8,1,1.8,1.9c0,1-0.8,1.6-1.8,1.6c-0.9,0-1.7-0.3-2.3-0.7l-0.1,0.9c0.6,0.3,1.4,0.6,2.4,0.6C87,167,88.2,166.1,88.2,164.6
	z M81.2,163.5v-5.6h-0.9v5.6c0,1.7-0.9,2.8-2.5,2.8c-1.7,0-2.5-1.1-2.5-2.8v-5.5h-0.9v5.6c0,2.1,1.2,3.5,3.4,3.5
	C79.9,167.1,81.2,165.7,81.2,163.5z"/>
<path class="st8" d="M229.1,165.2c-0.5,0.7-1.1,1.1-1.8,1.1c-1,0-1.7-0.8-1.7-2.3c0-1.7,0.9-2.6,2-2.6c0.6,0,1.1,0.1,1.6,0.4V165.2z
	 M230,166.9v-9.3l-0.9,0.2v3.3c-0.4-0.2-1-0.3-1.6-0.3c-1.5,0-2.8,1.1-2.8,3.3c0,2.1,1.1,3,2.5,3c0.9,0,1.5-0.5,2-1l0.2,0.9H230z
	 M222.6,163.2h-3.4c0.2-1.2,0.8-1.9,1.8-1.9C222,161.3,222.5,162.1,222.6,163.2z M223.5,163.7c0-1.7-0.8-3.1-2.5-3.1
	c-1.5,0-2.7,1.2-2.7,3.2c0,2.1,1.2,3.2,2.8,3.2c0.9,0,1.7-0.4,2.4-0.9l-0.1-0.8c-0.6,0.5-1.4,0.9-2.2,0.9c-1.2,0-1.9-0.9-2-2.4h4.3
	C223.5,163.8,223.5,163.8,223.5,163.7z M216.6,166.9v-9.3l-0.8,0.2v9.2H216.6z M213.5,166.9v-6.2h-0.8v6.2H213.5z M213.7,158.7
	c0-0.3-0.3-0.6-0.6-0.6c-0.3,0-0.6,0.3-0.6,0.6c0,0.3,0.3,0.6,0.6,0.6C213.5,159.3,213.7,159,213.7,158.7z M209.8,165.4
	c-0.6,0.6-1.3,0.9-2,0.9c-0.7,0-1.1-0.3-1.1-1c0-0.8,0.7-1.4,3.1-1.7V165.4z M210.7,166.9v-4.4c0-1.3-0.7-1.9-2.1-1.9
	c-0.9,0-1.6,0.2-2.3,0.5l0.1,0.8c0.7-0.3,1.4-0.5,2.1-0.5c0.8,0,1.3,0.4,1.3,1.2v0.4c-2.8,0.3-4,0.9-4,2.4c0,1.1,0.8,1.7,1.8,1.7
	c0.9,0,1.6-0.4,2.2-0.9l0.1,0.8H210.7z M205.2,158.4l-0.1-0.8c-0.1,0-0.2,0-0.4,0c-1.1,0-1.7,0.5-1.7,1.7v1.5H202v0.7h0.9v5.4h0.8
	v-5.4h1.4l-0.1-0.7h-1.3v-1.4c0-0.7,0.4-0.9,0.9-0.9C204.9,158.4,205.1,158.4,205.2,158.4z M196.7,165.2c-0.5,0.7-1.1,1.1-1.8,1.1
	c-1,0-1.7-0.8-1.7-2.3c0-1.7,0.9-2.6,2-2.6c0.6,0,1.1,0.1,1.6,0.4V165.2z M197.6,166.9v-9.3l-0.9,0.2v3.3c-0.4-0.2-1-0.3-1.6-0.3
	c-1.5,0-2.8,1.1-2.8,3.3c0,2.1,1.1,3,2.5,3c0.9,0,1.5-0.5,2-1l0.2,0.9H197.6z M190.7,166.9v-4.4c0-1.2-0.6-1.9-1.8-1.9
	c-0.8,0-1.5,0.4-2.2,1l-0.1-0.9h-0.7v6.2h0.9v-4.4c0.7-0.7,1.3-1.1,2-1.1c0.8,0,1.1,0.5,1.1,1.3v4.2H190.7z M183.9,166.9v-6.2H183
	v4.4c-0.7,0.7-1.3,1.1-2,1.1c-0.8,0-1.1-0.5-1.1-1.3v-4.2H179v4.4c0,1.2,0.6,1.9,1.8,1.9c0.8,0,1.5-0.4,2.2-1l0.1,0.9H183.9z
	 M177.8,158.4l-0.1-0.8c-0.1,0-0.2,0-0.4,0c-1.1,0-1.7,0.5-1.7,1.7v1.5h-0.9v0.7h0.9v5.4h0.8v-5.4h1.4l-0.1-0.7h-1.3v-1.4
	c0-0.7,0.4-0.9,0.9-0.9C177.6,158.4,177.7,158.4,177.8,158.4z M172.7,163.2h-3.4c0.2-1.2,0.8-1.9,1.8-1.9
	C172.1,161.3,172.6,162.1,172.7,163.2z M173.6,163.7c0-1.7-0.8-3.1-2.5-3.1c-1.5,0-2.7,1.2-2.7,3.2c0,2.1,1.2,3.2,2.8,3.2
	c0.9,0,1.7-0.4,2.4-0.9l-0.1-0.8c-0.6,0.5-1.4,0.9-2.2,0.9c-1.2,0-1.9-0.9-2-2.4h4.3C173.6,163.8,173.6,163.8,173.6,163.7z
	 M167.7,161.4l-0.1-0.8c-1,0-1.7,0.7-2.2,1.4l-0.2-1.3h-0.6v6.2h0.9v-3.9C165.8,162.2,166.7,161.5,167.7,161.4z M160.1,166.9
	l-0.1-0.7c-0.1,0-0.4,0.1-0.6,0.1c-0.7,0-0.9-0.3-0.9-0.9v-3.9h1.5l-0.1-0.7h-1.4v-2.3l-0.8,0.1v2.1h-0.9v0.7h0.9v4
	c0,1.1,0.6,1.5,1.6,1.5C159.6,167,159.9,167,160.1,166.9z M155.4,166.9v-4.4c0-1.2-0.6-1.9-1.8-1.9c-0.8,0-1.5,0.4-2.2,1l-0.1-0.9
	h-0.7v6.2h0.9v-4.4c0.7-0.7,1.3-1.1,2-1.1c0.8,0,1.1,0.5,1.1,1.3v4.2H155.4z M148,163.2h-3.4c0.2-1.2,0.8-1.9,1.8-1.9
	C147.4,161.3,147.9,162.1,148,163.2z M148.9,163.7c0-1.7-0.8-3.1-2.5-3.1c-1.5,0-2.7,1.2-2.7,3.2c0,2.1,1.2,3.2,2.8,3.2
	c0.9,0,1.7-0.4,2.4-0.9l-0.1-0.8c-0.6,0.5-1.4,0.9-2.2,0.9c-1.2,0-1.9-0.9-2-2.4h4.3C148.9,163.8,148.9,163.8,148.9,163.7z
	 M142.2,166.9v-4.4c0-1.2-0.6-1.9-1.8-1.9c-0.8,0-1.6,0.5-2.2,1.1c-0.2-0.7-0.7-1.1-1.7-1.1c-0.8,0-1.5,0.4-2.2,1l-0.1-0.9h-0.7v6.2
	h0.9v-4.5c0.7-0.7,1.3-1,2-1c0.8,0,1.1,0.5,1.1,1.3v4.2h0.8v-4.5c0.7-0.7,1.3-1.1,2-1.1c0.8,0,1.1,0.5,1.1,1.3v4.2H142.2z
	 M132.1,160.8h-0.9l-1.8,5.2l-1.9-5.2l-0.8,0.2l2.3,6.1l-0.3,0.7c-0.2,0.6-0.5,0.8-1,0.8c-0.2,0-0.4,0-0.5-0.1l0.1,0.8
	c0.1,0,0.2,0,0.3,0c0.9,0,1.5-0.4,1.9-1.6L132.1,160.8z M124.5,165.4c-0.6,0.6-1.3,0.9-2,0.9c-0.7,0-1.1-0.3-1.1-1
	c0-0.8,0.7-1.4,3.1-1.7V165.4z M125.4,166.9v-4.4c0-1.3-0.7-1.9-2.1-1.9c-0.9,0-1.6,0.2-2.3,0.5l0.1,0.8c0.7-0.3,1.4-0.5,2.1-0.5
	c0.8,0,1.3,0.4,1.3,1.2v0.4c-2.8,0.3-4,0.9-4,2.4c0,1.1,0.8,1.7,1.8,1.7c0.9,0,1.6-0.4,2.2-0.9l0.1,0.8H125.4z M118.8,160.5
	c0,1.2-0.8,1.8-2.2,1.8h-1.2v-3.6h1.3C118.1,158.7,118.8,159.3,118.8,160.5z M119.7,160.5c0-1.6-1.1-2.5-2.9-2.5h-2.2v9h0.9v-3.8
	h1.1C118.4,163.1,119.7,162.2,119.7,160.5z"/>
<rect y="57.3" class="st2" width="456" height="0.9"/>
<path class="st8" d="M274.2,34h0.6c0.8,0,1.3-0.2,1.8-0.7c0.4-0.5,0.6-1.2,0.6-2.2c0-1-0.2-1.7-0.6-2.1c-0.4-0.4-1-0.7-1.8-0.7h-0.6
	V34z M272.8,35.1v-7.9h2.1c1.2,0,2.1,0.3,2.7,1c0.7,0.7,1,1.6,1,2.9c0,0.7-0.1,1.2-0.3,1.7c-0.2,0.5-0.4,0.9-0.7,1.3
	c-0.3,0.3-0.7,0.6-1.1,0.7c-0.5,0.2-1,0.3-1.5,0.3H272.8z M265.8,35.1v-7.9h5.1v1.2h-3.7v2h3.1v1.2h-3.1v2.3h3.8v1.2H265.8z
	 M259.7,34h0.6c0.8,0,1.3-0.2,1.8-0.7c0.4-0.5,0.6-1.2,0.6-2.2c0-1-0.2-1.7-0.6-2.1c-0.4-0.4-1-0.7-1.8-0.7h-0.6V34z M258.3,35.1
	v-7.9h2.1c1.2,0,2.1,0.3,2.7,1c0.7,0.7,1,1.6,1,2.9c0,0.7-0.1,1.2-0.3,1.7c-0.2,0.5-0.4,0.9-0.7,1.3c-0.3,0.3-0.7,0.6-1.1,0.7
	s-1,0.3-1.5,0.3H258.3z M251,35.1v-7.9h1.5l2.1,4.4l0.7,1.7h0c0-0.4-0.1-0.8-0.1-1.3c0-0.5-0.1-0.9-0.1-1.4v-3.4h1.3v7.9H255
	l-2.1-4.4l-0.7-1.7h0c0,0.4,0.1,0.9,0.1,1.3c0,0.5,0.1,0.9,0.1,1.3v3.5H251z M246.5,35.2c-0.9,0-1.5-0.3-2-0.8
	c-0.5-0.5-0.7-1.3-0.7-2.4v-4.9h1.4v5c0,0.7,0.1,1.1,0.4,1.4c0.2,0.3,0.6,0.4,1,0.4c0.4,0,0.8-0.1,1-0.4c0.2-0.3,0.4-0.8,0.4-1.4v-5
	h1.3v4.9c0,1.1-0.2,1.9-0.7,2.4C248.1,35,247.4,35.2,246.5,35.2z M237.1,35.1v-7.9h5.1v1.2h-3.6v2.2h3.1v1.2h-3.1v3.3H237.1z
	 M229.6,35.1v-7.9h5.1v1.2H231v2h3.1v1.2H231v2.3h3.8v1.2H229.6z M223.6,30.9h1.1c0.5,0,1-0.1,1.2-0.3c0.3-0.2,0.4-0.6,0.4-1
	c0-0.5-0.1-0.8-0.4-1c-0.3-0.2-0.7-0.3-1.2-0.3h-1.1V30.9z M222.2,35.1v-7.9h2.6c0.4,0,0.8,0,1.1,0.1c0.4,0.1,0.7,0.2,0.9,0.4
	c0.3,0.2,0.5,0.4,0.6,0.7c0.2,0.3,0.2,0.7,0.2,1.1c0,0.6-0.1,1.1-0.4,1.5c-0.3,0.4-0.7,0.6-1.1,0.8l1.9,3.3h-1.6l-1.7-3.1h-1.2v3.1
	H222.2z M209.6,35.1v-2.7l-2.6-5.2h1.5l1,2.1c0.1,0.3,0.3,0.6,0.4,0.9c0.1,0.3,0.3,0.6,0.4,0.9h0c0.1-0.3,0.3-0.6,0.4-0.9
	c0.1-0.3,0.3-0.6,0.4-0.9l1-2.1h1.4l-2.6,5.2v2.7H209.6z M200.9,35.1v-7.9h1.4v6.7h3.7v1.2H200.9z M193.6,35.1v-7.9h1.4v6.7h3.7v1.2
	H193.6z M185.2,35.1l2.6-7.9h1.6l2.6,7.9h-1.5l-0.6-2.1h-2.6l-0.6,2.1H185.2z M187.8,30.9l-0.3,1h2l-0.3-1c-0.1-0.4-0.2-0.8-0.4-1.3
	c-0.1-0.4-0.2-0.9-0.4-1.3h0c-0.1,0.4-0.2,0.9-0.4,1.3C188,30,187.9,30.5,187.8,30.9z M178.7,35.1v-1.2h1.9v-5.5h-1.9v-1.2h5.2v1.2
	H182v5.5h1.9v1.2H178.7z M173.4,35.1v-6.7h-2.5v-1.2h6.4v1.2h-2.5v6.7H173.4z M165.6,30.9h1.1c0.5,0,1-0.1,1.2-0.3
	c0.3-0.2,0.4-0.6,0.4-1c0-0.5-0.1-0.8-0.4-1c-0.3-0.2-0.7-0.3-1.2-0.3h-1.1V30.9z M164.2,35.1v-7.9h2.6c0.4,0,0.8,0,1.1,0.1
	c0.4,0.1,0.7,0.2,0.9,0.4c0.3,0.2,0.5,0.4,0.6,0.7c0.2,0.3,0.2,0.7,0.2,1.1c0,0.6-0.1,1.1-0.4,1.5c-0.3,0.4-0.7,0.6-1.1,0.8l1.9,3.3
	h-1.6l-1.7-3.1h-1.2v3.1H164.2z M156.2,35.1l2.6-7.9h1.6l2.6,7.9h-1.5l-0.6-2.1h-2.6l-0.6,2.1H156.2z M158.8,30.9l-0.3,1h2l-0.3-1
	c-0.1-0.4-0.2-0.8-0.4-1.3c-0.1-0.4-0.2-0.9-0.4-1.3h0c-0.1,0.4-0.2,0.9-0.4,1.3C159.1,30,158.9,30.5,158.8,30.9z M151.2,31.1h1.1
	c1.2,0,1.7-0.5,1.7-1.4c0-0.5-0.1-0.8-0.4-1c-0.3-0.2-0.7-0.3-1.3-0.3h-1.1V31.1z M149.8,35.1v-7.9h2.6c0.4,0,0.8,0,1.2,0.1
	c0.4,0.1,0.7,0.2,1,0.4s0.5,0.4,0.6,0.8c0.2,0.3,0.2,0.7,0.2,1.1c0,0.4-0.1,0.8-0.2,1.1c-0.2,0.3-0.4,0.6-0.6,0.8
	c-0.3,0.2-0.6,0.4-1,0.5c-0.4,0.1-0.8,0.1-1.2,0.1h-1.2v2.9H149.8z"/>
<path class="st9" d="M294.1,24.3c-3.8,0-7,3.1-7,7c0,3.8,3.1,7,7,7s7-3.1,7-7C301.1,27.4,298,24.3,294.1,24.3 M294.1,37.3
	c-3.3,0-6-2.7-6-6c0-3.3,2.7-6,6-6s6,2.7,6,6C300.2,34.6,297.5,37.3,294.1,37.3 M293.7,30.3c0-0.3,0.2-0.5,0.5-0.5s0.5,0.2,0.5,0.5
	V34c0,0.3-0.2,0.5-0.5,0.5s-0.5-0.2-0.5-0.5V30.3z M294,28c0.2-0.1,0.4,0,0.5,0.1c0,0,0.1,0.1,0.1,0.1c0,0.1,0,0.1,0,0.2
	c0,0.1,0,0.1,0,0.2c0,0.1-0.1,0.1-0.1,0.1c-0.1,0.1-0.2,0.1-0.3,0.1c-0.1,0-0.1,0-0.2,0c-0.1,0-0.1-0.1-0.1-0.1c0,0-0.1-0.1-0.1-0.1
	c0-0.1,0-0.1,0-0.2c0-0.1,0-0.1,0-0.2c0-0.1,0.1-0.1,0.1-0.1C293.9,28.1,293.9,28,294,28z"/>
<rect x="133.8" y="23.8" class="st10" width="0.9" height="14.9"/>
<path class="st11" d="M76.7,29.3c0,3.9-1.4,6.1-3.7,6.1c-2.3,0-3.7-2.1-3.7-6.1s1.4-6.1,3.7-6.1C75.3,23.3,76.7,25.4,76.7,29.3z
	 M78.8,29.3c0-5-2.3-7.8-5.8-7.8c-3.5,0-5.8,2.8-5.8,7.8s2.3,7.8,5.8,7.8C76.5,37.2,78.8,34.3,78.8,29.3z M62.9,29.3
	c0,3.9-1.4,6.1-3.7,6.1s-3.7-2.1-3.7-6.1s1.4-6.1,3.7-6.1S62.9,25.4,62.9,29.3z M65,29.3c0-5-2.3-7.8-5.8-7.8
	c-3.5,0-5.8,2.8-5.8,7.8s2.3,7.8,5.8,7.8C62.6,37.2,65,34.3,65,29.3z M51.3,36.9v-2.7h-2.2v2.7H51.3z M44.8,29.3
	c0,3.9-1.4,6.1-3.7,6.1s-3.7-2.1-3.7-6.1s1.4-6.1,3.7-6.1S44.8,25.4,44.8,29.3z M46.9,29.3c0-5-2.3-7.8-5.8-7.8
	c-3.5,0-5.8,2.8-5.8,7.8s2.3,7.8,5.8,7.8C44.6,37.2,46.9,34.3,46.9,29.3z M33.1,36.9l-0.3-1.8h-6.9l4.3-4.4c1.9-1.9,2.7-3.1,2.7-5
	c0-2.6-1.8-4.3-4.7-4.3c-1.9,0-3.4,0.7-4.5,1.7l0.3,1.9c1.2-1,2.5-1.8,4.1-1.8c1.8,0,2.7,0.8,2.7,2.5c0,1.2-0.6,2.2-2,3.6l-5.6,5.8
	v1.5H33.1z"/>
<path class="st8" d="M116.8,30.3c0,3.2-1.9,4.7-4.8,4.7h-2v-9.5h2C114.9,25.6,116.8,27.2,116.8,30.3z M118,30.3c0-3.4-2.2-5.8-6-5.8
	h-3.1v11.5h3.1C115.7,36.1,118,33.9,118,30.3z M106.4,33c0-1.7-0.9-2.5-3-3.5c-1.8-0.8-2.3-1.3-2.3-2.3c0-1,0.8-1.8,2.1-1.8
	c1,0,1.8,0.3,2.4,0.7l0.2-1.2c-0.6-0.4-1.5-0.6-2.5-0.6c-1.9,0-3.3,1.2-3.3,2.9c0,1.6,0.8,2.4,3,3.3c1.8,0.8,2.3,1.3,2.3,2.5
	c0,1.3-1,2.1-2.4,2.1c-1.2,0-2.2-0.4-2.9-0.9l-0.2,1.2c0.7,0.4,1.8,0.7,3.1,0.7C104.9,36.2,106.4,35,106.4,33z M97.4,31.7v-7.1h-1.2
	v7.1c0,2.2-1.1,3.5-3.2,3.5c-2.1,0-3.2-1.5-3.2-3.6v-7.1h-1.2v7.2c0,2.7,1.6,4.5,4.3,4.5C95.7,36.3,97.4,34.5,97.4,31.7z"/>
<path class="st11" d="M78.5,79.9h-1.2l-1.7,4.9L74,79.8L72.8,80l2.3,6.1l-0.2,0.6c-0.2,0.5-0.5,0.7-1,0.7c-0.2,0-0.5,0-0.7-0.1
	l0.2,1c0.1,0,0.2,0.1,0.4,0.1c1,0,1.7-0.4,2.2-1.8L78.5,79.9z M72.2,86.2l-0.2-1c-0.1,0-0.3,0-0.5,0c-0.7,0-0.9-0.3-0.9-0.8v-3.5
	h1.5l-0.2-1h-1.3v-2.2l-1.1,0.2v2.1h-0.9v1h0.9v3.7c0,1.2,0.7,1.6,1.8,1.6C71.7,86.2,72,86.2,72.2,86.2z M67.3,86.1v-6.2h-1.2v6.2
	H67.3z M67.4,78c0-0.4-0.3-0.7-0.7-0.7s-0.7,0.3-0.7,0.7s0.3,0.7,0.7,0.7S67.4,78.4,67.4,78z M64.6,86.2l-0.2-1c-0.1,0-0.3,0-0.5,0
	c-0.7,0-0.9-0.3-0.9-0.8v-3.5h1.5l-0.2-1h-1.3v-2.2l-1.1,0.2v2.1H61v1h0.9v3.7c0,1.2,0.7,1.6,1.8,1.6C64.1,86.2,64.4,86.2,64.6,86.2
	z M59.8,86.1v-4.5c0-1.1-0.6-1.8-1.8-1.8c-0.9,0-1.6,0.5-2.2,1l-0.1-0.9h-0.9v6.2h1.2v-4.3c0.6-0.6,1.2-1,1.8-1
	c0.7,0,0.9,0.4,0.9,1.1v4.2H59.8z M52.1,82.3h-3c0.2-1.1,0.8-1.6,1.5-1.6C51.5,80.7,52,81.3,52.1,82.3z M53.3,82.9
	c0-1.7-0.8-3.1-2.6-3.1c-1.6,0-2.7,1.2-2.7,3.2c0,2.3,1.3,3.3,2.9,3.3c1,0,1.8-0.3,2.5-0.8l-0.2-1c-0.7,0.5-1.3,0.9-2.2,0.9
	c-1.1,0-1.8-0.7-1.8-2.1h4.2C53.3,83.1,53.3,83,53.3,82.9z M46.7,83v-1.1h-3.2V83H46.7z M41,82.9c0,1.6-0.7,2.3-1.9,2.3
	c-0.6,0-0.9-0.1-1.2-0.2v-3.2c0.5-0.6,1-1,1.7-1C40.4,80.8,41,81.6,41,82.9z M42.2,82.9c0-2.1-1.1-3.1-2.4-3.1
	c-0.8,0-1.4,0.4-1.9,0.9v-3.9l-1.2,0.2v8.9c0.8,0.2,1.5,0.4,2.4,0.4C40.9,86.2,42.2,85.1,42.2,82.9z M34.9,86.1v-6.2h-1.2v4.3
	c-0.6,0.6-1.2,1-1.8,1c-0.7,0-0.9-0.4-0.9-1.1v-4.2h-1.2v4.5c0,1.1,0.6,1.8,1.8,1.8c0.9,0,1.6-0.5,2.2-1l0.1,0.9H34.9z M28.3,83.7
	c0-1.4-0.6-2-2.3-2.7c-1.4-0.6-1.7-0.9-1.7-1.6c0-0.7,0.5-1.2,1.5-1.2c0.7,0,1.4,0.3,1.9,0.7l0.2-1.2c-0.5-0.3-1.2-0.5-2-0.5
	c-1.6,0-2.7,0.9-2.7,2.4c0,1.3,0.6,1.8,2.3,2.6c1.4,0.6,1.7,0.9,1.7,1.8c0,0.9-0.7,1.4-1.6,1.4c-0.9,0-1.7-0.4-2.4-0.8L23,85.7
	c0.7,0.4,1.5,0.6,2.5,0.6C27.2,86.2,28.3,85.3,28.3,83.7z"/>
<path class="st8" d="M131.1,84.5c0-1.1-0.7-1.6-2.2-2c-1-0.3-1.4-0.5-1.4-1c0-0.5,0.4-0.9,1.2-0.9c0.6,0,1.2,0.2,1.8,0.5l0.1-0.8
	c-0.5-0.2-1.2-0.4-1.9-0.4c-1.3,0-2.1,0.7-2.1,1.7c0,1,0.6,1.5,2,1.8c1.2,0.3,1.6,0.6,1.6,1.2c0,0.6-0.5,1-1.4,1
	c-0.8,0-1.6-0.3-2.1-0.7l-0.1,0.8c0.5,0.3,1.4,0.6,2.2,0.6C130.3,86.3,131.1,85.6,131.1,84.5z M124.2,84.6c-0.6,0.6-1.3,0.9-2,0.9
	c-0.7,0-1.1-0.3-1.1-1c0-0.8,0.7-1.4,3.1-1.7V84.6z M125.1,86.1v-4.4c0-1.3-0.7-1.9-2.1-1.9c-0.9,0-1.6,0.2-2.3,0.5l0.1,0.8
	c0.7-0.3,1.4-0.5,2.1-0.5c0.8,0,1.3,0.4,1.3,1.2v0.4c-2.8,0.3-4,0.9-4,2.4c0,1.1,0.8,1.7,1.8,1.7c0.9,0,1.6-0.4,2.2-0.9l0.1,0.8
	H125.1z M117.8,84.4c-0.5,0.7-1.1,1.1-1.8,1.1c-1,0-1.7-0.8-1.7-2.3c0-1.7,0.9-2.6,2-2.6c0.6,0,1.1,0.1,1.6,0.4V84.4z M118.7,86.1
	v-9.3l-0.9,0.2v3.3c-0.4-0.2-1-0.3-1.6-0.3c-1.5,0-2.8,1.1-2.8,3.3c0,2.1,1.1,3,2.5,3c0.9,0,1.5-0.5,2-1l0.2,0.9H118.7z M111.7,86.1
	V80h-0.8v6.2H111.7z M111.9,77.9c0-0.3-0.3-0.6-0.6-0.6s-0.6,0.3-0.6,0.6c0,0.3,0.3,0.6,0.6,0.6S111.9,78.2,111.9,77.9z M107.9,84.4
	c-0.5,0.7-1.1,1.1-1.8,1.1c-1,0-1.7-0.8-1.7-2.3c0-1.7,0.9-2.6,2-2.6c0.6,0,1.1,0.1,1.6,0.4V84.4z M108.7,86.1v-9.3l-0.9,0.2v3.3
	c-0.4-0.2-1-0.3-1.6-0.3c-1.5,0-2.8,1.1-2.8,3.3c0,2.1,1.1,3,2.5,3c0.9,0,1.5-0.5,2-1l0.2,0.9H108.7z M100,82.4h-3.3l1.6-4.3
	L100,82.4z M102.3,86l-3.5-8.9h-0.9l-3.5,9h0.9l1.1-2.9h3.9l1.2,3L102.3,86z"/>
<path class="st12" d="M232,86.1v-8.8h-0.7l-2.2,1l0.1,0.7l1.9-0.8v7.9H232z M228.5,82.9V82h-3.1v0.9H228.5z M222.8,81.6
	c0,2.5-1.5,3.7-3.7,3.7h-1.6V78h1.6C221.3,78,222.8,79.2,222.8,81.6z M223.8,81.6c0-2.7-1.7-4.5-4.7-4.5h-2.4v9h2.4
	C221.9,86.1,223.8,84.4,223.8,81.6z M214.1,86.1v-9h-0.9v9H214.1z M211.2,82.9V82H208v0.9H211.2z M204.2,82.1
	c1.2-0.3,2.1-1.1,2.1-2.4c0-1.6-1.1-2.4-2.9-2.4h-2.3v9h0.9v-4h1.2l2.9,4.1l0.9-0.2L204.2,82.1z M205.5,79.7c0,1.1-0.8,1.7-2.2,1.7
	h-1.2V78h1.4C204.7,78,205.5,78.6,205.5,79.7z M199.5,86.1v-0.8h-3.9v-3.5h3.1l-0.1-0.8h-3V78h3.8v-0.8h-4.7v9H199.5z M192.5,86.1
	l-0.7-9h-1.1l-3.1,7.8l-3.1-7.8h-1.1l-0.7,9h0.8l0.6-7.7l3.1,7.7h0.7l3.1-7.7l0.6,7.7H192.5z M180.8,82.9V82h-3.1v0.9H180.8z
	 M175.4,83.6c0,1.1-0.9,1.8-2.2,1.8h-1.3v-3.6h1.2C174.5,81.8,175.4,82.4,175.4,83.6z M175,79.4c0,0.9-0.7,1.6-1.9,1.6h-1.1v-3.1
	h1.2C174.3,77.9,175,78.5,175,79.4z M176.2,83.5c0-1.2-0.7-1.9-1.8-2.2c0.8-0.3,1.4-1,1.4-2c0-1.3-0.9-2.2-2.8-2.2H171v9h2.1
	C175,86.1,176.2,85.3,176.2,83.5z M168.7,82.7v-5.6h-0.9v5.6c0,1.7-0.9,2.8-2.5,2.8c-1.7,0-2.5-1.1-2.5-2.8v-5.5H162v5.6
	c0,2.1,1.2,3.5,3.4,3.5C167.4,86.3,168.7,84.9,168.7,82.7z M160.2,83.8c0-1.3-0.7-2-2.3-2.7c-1.4-0.6-1.8-1-1.8-1.8
	c0-0.8,0.6-1.4,1.6-1.4c0.8,0,1.4,0.2,1.9,0.6l0.1-0.9c-0.5-0.3-1.1-0.5-2-0.5c-1.5,0-2.6,0.9-2.6,2.3c0,1.3,0.6,1.8,2.3,2.6
	c1.4,0.6,1.8,1,1.8,1.9c0,1-0.8,1.6-1.8,1.6c-0.9,0-1.7-0.3-2.3-0.7l-0.1,0.9c0.6,0.3,1.4,0.6,2.4,0.6
	C159,86.2,160.2,85.3,160.2,83.8z"/>
<path class="st13" d="M248.6,78.5V86c0,0.8-0.6,1.4-1.4,1.4h-7.4c-0.8,0-1.4-0.6-1.4-1.4v-7.4c0-0.8,0.6-1.4,1.4-1.4h7.4
	C248,77.1,248.6,77.8,248.6,78.5z M239.3,86c0,0.3,0.2,0.5,0.5,0.5h7.4c0.3,0,0.5-0.2,0.5-0.5v-7.4c0-0.3-0.2-0.5-0.5-0.5h-7.4
	c-0.3,0-0.5,0.2-0.5,0.5V86z M242.6,75.3c-0.3,0-0.5,0.2-0.5,0.5s-0.2,0.5-0.5,0.5s-0.5-0.2-0.5-0.5c0-0.8,0.6-1.4,1.4-1.4h7.4
	c0.8,0,1.4,0.6,1.4,1.4v7.4c0,0.8-0.6,1.4-1.4,1.4c-0.3,0-0.5-0.2-0.5-0.5s0.2-0.5,0.5-0.5s0.5-0.2,0.5-0.5v-7.4
	c0-0.3-0.2-0.5-0.5-0.5H242.6z"/>
<rect y="105.4" class="st2" width="456" height="0.9"/>
<g>
	<path class="st14" d="M357.1,14.1h121c1.5,0,2.8,1.2,2.8,2.8v24.3c0,1.5-1.2,2.8-2.8,2.8h-121c-1.5,0-2.8-1.2-2.8-2.8V16.9
		C354.3,15.3,355.5,14.1,357.1,14.1z"/>
	<path class="st9" d="M376.9,25.9c-0.2-0.2-0.5-0.2-0.7,0l-5.2,5.2l-2.5-2.5c-0.2-0.2-0.5-0.2-0.7,0c-0.2,0.2-0.2,0.5,0,0.7l2.8,2.8
		c0.1,0.1,0.2,0.1,0.3,0.1c0.1,0,0.2,0,0.3-0.1l5.6-5.6C377.1,26.4,377.1,26.1,376.9,25.9z"/>
	<path class="st8" d="M396.2,33.4l-3.5-8.9h-0.9l-3.5,9h0.9l1.1-2.9h3.9l1.2,3L396.2,33.4z M393.9,29.8h-3.3l1.6-4.3L393.9,29.8z
		 M402.2,32.9l-0.1-0.8c-0.6,0.5-1.2,0.7-1.9,0.7c-1.2,0-2-0.9-2-2.5c0-1.5,0.8-2.5,1.9-2.5c0.7,0,1.3,0.2,1.9,0.7l0.1-0.9
		c-0.5-0.4-1.2-0.6-2-0.6c-1.6,0-2.8,1.1-2.8,3.2c0,2,1.2,3.2,2.8,3.2C400.9,33.6,401.6,33.4,402.2,32.9z M408.1,32.9l-0.1-0.8
		c-0.6,0.5-1.2,0.7-1.9,0.7c-1.2,0-2-0.9-2-2.5c0-1.5,0.8-2.5,1.9-2.5c0.7,0,1.3,0.2,1.9,0.7l0.1-0.9c-0.5-0.4-1.2-0.6-2-0.6
		c-1.6,0-2.8,1.1-2.8,3.2c0,2,1.2,3.2,2.8,3.2C406.9,33.6,407.5,33.4,408.1,32.9z M414.3,30.3c0-1.7-0.8-3.1-2.5-3.1
		c-1.5,0-2.7,1.2-2.7,3.2c0,2.1,1.2,3.2,2.8,3.2c0.9,0,1.7-0.4,2.4-0.9l-0.1-0.8c-0.6,0.5-1.4,0.9-2.2,0.9c-1.2,0-1.9-0.9-2-2.4h4.3
		C414.3,30.4,414.3,30.4,414.3,30.3z M413.5,29.8h-3.4c0.2-1.2,0.8-1.9,1.8-1.9C412.8,27.9,413.4,28.7,413.5,29.8z M421.2,30.2
		c0-2.1-1.1-3-2.5-3c-0.9,0-1.5,0.5-2,1l-0.1-0.9H416v8.5l0.9-0.1v-2.5c0.4,0.2,1,0.3,1.6,0.3C419.9,33.6,421.2,32.5,421.2,30.2z
		 M420.4,30.3c0,1.7-0.9,2.6-2,2.6c-0.6,0-1.1-0.1-1.6-0.4v-3.4c0.6-0.7,1.1-1.1,1.8-1.1C419.7,28,420.4,28.8,420.4,30.3z
		 M425.6,33.5l-0.1-0.7c-0.1,0-0.4,0.1-0.6,0.1c-0.7,0-0.9-0.3-0.9-0.9v-3.9h1.5l-0.1-0.7H424v-2.3l-0.8,0.1v2.1h-0.9v0.7h0.9v4
		c0,1.1,0.6,1.5,1.6,1.5C425.1,33.6,425.5,33.6,425.6,33.5z M435,33.5v-9.3l-0.9,0.2v3.3c-0.4-0.2-1-0.3-1.6-0.3
		c-1.5,0-2.8,1.1-2.8,3.3c0,2.1,1.1,3,2.5,3c0.9,0,1.5-0.5,2-1l0.2,0.9H435z M434.2,31.8c-0.5,0.7-1.1,1.1-1.8,1.1
		c-1,0-1.7-0.8-1.7-2.3c0-1.7,0.9-2.6,2-2.6c0.6,0,1.1,0.1,1.6,0.4V31.8z M438.2,25.3c0-0.3-0.3-0.6-0.6-0.6c-0.3,0-0.6,0.3-0.6,0.6
		c0,0.3,0.3,0.6,0.6,0.6C437.9,25.9,438.2,25.6,438.2,25.3z M438,33.5v-6.2h-0.8v6.2H438z M444.1,31.8c0-1.1-0.7-1.6-2.2-2
		c-1-0.3-1.4-0.5-1.4-1c0-0.5,0.4-0.9,1.2-0.9c0.6,0,1.2,0.2,1.8,0.5l0.1-0.8c-0.5-0.2-1.2-0.4-1.9-0.4c-1.3,0-2.1,0.7-2.1,1.7
		c0,1,0.6,1.5,2,1.8c1.2,0.3,1.6,0.6,1.6,1.2c0,0.6-0.5,1-1.4,1c-0.8,0-1.6-0.3-2.1-0.7l-0.1,0.8c0.5,0.3,1.4,0.6,2.2,0.6
		C443.3,33.6,444.1,33,444.1,31.8z M451,30.2c0-2.1-1.1-3-2.5-3c-0.9,0-1.5,0.5-2,1l-0.1-0.9h-0.7v8.5l0.9-0.1v-2.5
		c0.4,0.2,1,0.3,1.6,0.3C449.7,33.6,451,32.5,451,30.2z M450.2,30.3c0,1.7-0.9,2.6-2,2.6c-0.6,0-1.1-0.1-1.6-0.4v-3.4
		c0.6-0.7,1.1-1.1,1.8-1.1C449.4,28,450.2,28.8,450.2,30.3z M457.5,33.5v-6.2h-0.9v4.4c-0.7,0.7-1.3,1.1-2,1.1
		c-0.8,0-1.1-0.5-1.1-1.3v-4.2h-0.9v4.4c0,1.2,0.6,1.9,1.8,1.9c0.8,0,1.5-0.4,2.2-1l0.1,0.9H457.5z M462.2,33.5l-0.1-0.7
		c-0.1,0-0.4,0.1-0.6,0.1c-0.7,0-0.9-0.3-0.9-0.9v-3.9h1.5l-0.1-0.7h-1.4v-2.3l-0.8,0.1v2.1h-1v0.7h1v4c0,1.1,0.6,1.5,1.6,1.5
		C461.8,33.6,462.1,33.6,462.2,33.5z M468.5,30.3c0-1.7-0.8-3.1-2.5-3.1c-1.5,0-2.7,1.2-2.7,3.2c0,2.1,1.2,3.2,2.8,3.2
		c0.9,0,1.7-0.4,2.4-0.9l-0.1-0.8c-0.6,0.5-1.4,0.9-2.2,0.9c-1.2,0-1.9-0.9-2-2.4h4.3C468.5,30.4,468.5,30.4,468.5,30.3z
		 M467.6,29.8h-3.4c0.2-1.2,0.8-1.9,1.8-1.9C467,27.9,467.5,28.7,467.6,29.8z"/>
	<path class="st15" d="M357.1,14.5h121c1.3,0,2.3,1,2.3,2.3v24.3c0,1.3-1,2.3-2.3,2.3h-121c-1.3,0-2.3-1-2.3-2.3V16.9
		C354.7,15.6,355.8,14.5,357.1,14.5z"/>
</g>
<g>
	<path class="st16" d="M448,1c3.9,0,7,3.1,7,7v168c0,3.9-3.1,7-7,7H8c-3.9,0-7-3.1-7-7V8c0-3.9,3.1-7,7-7H448 M448,0H8
		C3.6,0,0,3.6,0,8v168c0,4.4,3.6,8,8,8h440c4.4,0,8-3.6,8-8V8C456,3.6,452.4,0,448,0L448,0z"/>
</g>
</svg>
