<svg xmlns="http://www.w3.org/2000/svg" width="72" height="72" fill="none">
            <path d="M45 48c11.598 0 21-9.402 21-21S56.598 6 45 6s-21 9.402-21 21 9.402 21 21 21z" fill="#2bd4db"> </path>
            <path d="M58 29.88V59c0 1.66-1.32 3-2.94 3H16.94C15.32 62 14 60.66 14 59V30M22 22.24v7.64M36 11.28v17.91M50 22v8" stroke="#0c1142" stroke-width="2" stroke-miterlimit="10" stroke-linecap="round" stroke-linejoin="round"> </path>
            <path d="M62 22v5c0 1.66-1.34 3-3 3H13c-1.66 0-3-1.34-3-3v-5l5.28-10.36c.51-1 1.54-1.64 2.67-1.64h36.09c1.13 0 2.16.63 2.67 1.64L62 22zM22 22l4-12M50 22l-4-12M10 22h52M14 51h44" stroke="#0c1142" stroke-width="2" stroke-miterlimit="10" stroke-linecap="round" stroke-linejoin="round"> </path>
            <defs>
                <linearGradient id="paint0_linear" x1="70.2" y1="-3.45" x2="25.054" y2="61.734" gradientUnits="userSpaceOnUse">
                    <stop stop-color="#2BD4DB" stop-opacity=".8"> </stop>
                    <stop offset="1" stop-color="#D5F6F8" stop-opacity=".3"> </stop>
                </linearGradient>
            </defs>
        </svg>