<svg xmlns="http://www.w3.org/2000/svg" width="72" height="72" fill="none">
            <path d="M45 48c11.598 0 21-9.402 21-21S56.598 6 45 6s-21 9.402-21 21 9.402 21 21 21z" fill="#2bd4db"> </path>
            <path d="M32 58H13c-1.66 0-3-1.34-3-3V13c0-1.66 1.34-3 3-3h40c1.66 0 3 1.34 3 3v20" stroke="#0c1142" stroke-width="2" stroke-miterlimit="10" stroke-linejoin="round"> </path>
            <path d="M10 45v3c0 1.66 1.34 3 3 3h19M22 18v25M33 18v25M44 18v16M18 25h8M29 34h8M40 22h8M51 61.5c5.799 0 10.5-4.701 10.5-10.5S56.799 40.5 51 40.5 40.5 45.201 40.5 51 45.201 61.5 51 61.5zM51 36v4.5M61.5 51H66M51 61.5V66M40.5 51H36M61.61 40.39l-3.19 3.19M58.42 58.42l3.19 3.19M43.58 58.42l-3.19 3.19M43.58 43.58l-3.19-3.19" stroke="#0c1142" stroke-width="2" stroke-miterlimit="10" stroke-linejoin="round"> </path>
            <path d="M51 54a3 3 0 100-6 3 3 0 000 6z" fill="#0c1142"> </path>
            <defs>
                <linearGradient id="paint0_linear" x1="70.2" y1="-3.45" x2="25.054" y2="61.734" gradientUnits="userSpaceOnUse">
                    <stop stop-color="#2BD4DB" stop-opacity=".8"> </stop>
                    <stop offset="1" stop-color="#D5F6F8" stop-opacity=".3"> </stop>
                </linearGradient>
            </defs>
        </svg>