<svg xmlns="http://www.w3.org/2000/svg" width="72" height="72" fill="none">
            <path d="M45 48c11.598 0 21-9.402 21-21S56.598 6 45 6s-21 9.402-21 21 9.402 21 21 21z" fill="#2bd4db"> </path>
            <path d="M13 35h15M42 48h7M13 48h25" stroke="#0c1142" stroke-width="2" stroke-miterlimit="10" stroke-linejoin="round"> </path>
            <path d="M52.1 58H9.9C8.3 58 7 56.7 7 55.1V26.9C7 25.3 8.3 24 9.9 24h42.2c1.6 0 2.9 1.3 2.9 2.9v28.2c0 1.6-1.3 2.9-2.9 2.9z" stroke="#0c1142" stroke-width="2" stroke-miterlimit="10" stroke-linecap="round" stroke-linejoin="round"> </path>
            <path d="M17 19v-2c0-1.66 1.34-3 3-3h42c1.66 0 3 1.34 3 3v28c0 1.66-1.34 3-3 3h-2" stroke="#0c1142" stroke-width="2" stroke-miterlimit="10" stroke-linejoin="round"> </path>
            <defs>
                <linearGradient id="paint0_linear" x1="70.2" y1="-3.45" x2="25.054" y2="61.734" gradientUnits="userSpaceOnUse">
                    <stop stop-color="#2BD4DB" stop-opacity=".8"> </stop>
                    <stop offset="1" stop-color="#D5F6F8" stop-opacity=".3"> </stop>
                </linearGradient>
            </defs>
        </svg>