<svg width="48" height="40" fill="none" xmlns="http://www.w3.org/2000/svg">
   <circle cx="28" cy="20" r="20" fill="url(#paint0_linear)"/>
   <mask id="a" fill="#fff">
      <path d="M1.9 6.3C.9 6.3 0 7 0 8v20c0 1 .8 1.9 1.9 1.9h1.9v1.9c0 1 .8 1.9 1.8 1.9h32.5c1 0 1.9-.9 1.9-2v-20c0-1-.8-1.8-1.9-1.8h-1.9V8.1c0-1-.8-1.8-1.8-1.8H1.9zm0 1.2h32.5c.4 0 .6.2.6.6v8.2H1.2v-5h27c.3 0 .6-.3.6-.7 0-.4-.3-.6-.7-.6H1.2V8.1c0-.4.3-.6.7-.6zM30.6 10c-.4 0-.6.2-.6.6 0 .4.2.7.6.7h2.5c.4 0 .6-.3.6-.7 0-.4-.2-.6-.6-.6h-2.5zm5.6 1.3h2c.3 0 .5.2.5.6v20c0 .4-.2.6-.6.6H5.6c-.4 0-.6-.2-.6-.6V30h29.4c1 0 1.9-.8 1.9-1.9V11.2zM3.8 12.4c-.3 0-.6.2-.6.6v1.3c0 .4.3.6.6.6.4 0 .7-.2.7-.6V13c0-.3-.3-.6-.7-.6zm3.2 0c-.4 0-.7.2-.7.6v1.3c0 .4.3.6.7.6.4 0 .6-.2.6-.6V13c0-.3-.2-.6-.6-.6zm3.1 0c-.4 0-.6.2-.6.6v1.3c0 .4.2.6.6.6.4 0 .6-.2.6-.6V13c0-.3-.2-.6-.6-.6zm3.1 0c-.4 0-.6.2-.6.6v1.3c0 .4.2.6.6.6.4 0 .7-.2.7-.6V13c0-.3-.3-.6-.7-.6zm3.2 0c-.4 0-.7.2-.7.6v1.3c0 .4.3.6.7.6.3 0 .6-.2.6-.6V13c0-.4-.3-.6-.6-.6zm3.7 0c-.4 0-.6.2-.6.6v1.3c0 .4.2.6.6.6.4 0 .6-.2.6-.6V13c0-.4-.2-.6-.6-.6zm3.1 0c-.4 0-.6.2-.6.6v1.3c0 .4.2.6.6.6.4 0 .6-.2.6-.6V13c0-.4-.2-.6-.6-.6zm3.1 0c-.3 0-.6.2-.6.6v1.3c0 .4.3.6.6.6.4 0 .7-.2.7-.6V13c0-.4-.3-.6-.6-.6zm3.2 0c-.4 0-.6.2-.6.6v1.3c0 .4.2.6.6.6.4 0 .6-.2.6-.6V13c0-.4-.2-.6-.6-.6zm3.1 0c-.4 0-.6.2-.6.6v1.3c0 .4.2.6.6.6.4 0 .6-.2.6-.6V13c0-.4-.2-.6-.6-.6zm-31.3 5H35v10.6c0 .4-.2.6-.6.6H1.9c-.4 0-.6-.2-.6-.6V17.5zm25 2.5a2.5 2.5 0 000 5c.6 0 1.2-.2 1.6-.6.5.4 1 .6 1.6.6a2.5 2.5 0 000-5c-.6 0-1.1.2-1.6.6-.4-.4-1-.6-1.6-.6zm-21.8.6c-.4 0-.7.3-.7.6 0 .4.3.7.7.7H13c.4 0 .7-.3.7-.6 0-.4-.3-.7-.7-.7H4.4zm12.5 0c-.4 0-.6.3-.6.6 0 .4.2.7.6.7h2.5c.4 0 .6-.3.6-.6 0-.4-.2-.7-.6-.7h-2.5zm9.2.6c.5 0 .9.2 1.1.6.3.4 1 .4 1.2 0 .2-.4.7-.6 1.1-.6.7 0 1.3.6 1.3 1.3 0 .7-.6 1.3-1.3 1.3-.4 0-.9-.2-1.1-.6a.7.7 0 00-1.2 0c-.2.4-.6.6-1 .6-.8 0-1.4-.6-1.4-1.3 0-.7.6-1.3 1.3-1.3zm-21.7 2c-.4 0-.7.2-.7.6 0 .3.3.6.7.6h6.8c.4 0 .7-.3.7-.6 0-.4-.3-.7-.7-.7H4.5z"/>
   </mask>
   <path d="M1.9 6.3C.9 6.3 0 7 0 8v20c0 1 .8 1.9 1.9 1.9h1.9v1.9c0 1 .8 1.9 1.8 1.9h32.5c1 0 1.9-.9 1.9-2v-20c0-1-.8-1.8-1.9-1.8h-1.9V8.1c0-1-.8-1.8-1.8-1.8H1.9zm0 1.2h32.5c.4 0 .6.2.6.6v8.2H1.2v-5h27c.3 0 .6-.3.6-.7 0-.4-.3-.6-.7-.6H1.2V8.1c0-.4.3-.6.7-.6zM30.6 10c-.4 0-.6.2-.6.6 0 .4.2.7.6.7h2.5c.4 0 .6-.3.6-.7 0-.4-.2-.6-.6-.6h-2.5zm5.6 1.3h2c.3 0 .5.2.5.6v20c0 .4-.2.6-.6.6H5.6c-.4 0-.6-.2-.6-.6V30h29.4c1 0 1.9-.8 1.9-1.9V11.2zM3.8 12.4c-.3 0-.6.2-.6.6v1.3c0 .4.3.6.6.6.4 0 .7-.2.7-.6V13c0-.3-.3-.6-.7-.6zm3.2 0c-.4 0-.7.2-.7.6v1.3c0 .4.3.6.7.6.4 0 .6-.2.6-.6V13c0-.3-.2-.6-.6-.6zm3.1 0c-.4 0-.6.2-.6.6v1.3c0 .4.2.6.6.6.4 0 .6-.2.6-.6V13c0-.3-.2-.6-.6-.6zm3.1 0c-.4 0-.6.2-.6.6v1.3c0 .4.2.6.6.6.4 0 .7-.2.7-.6V13c0-.3-.3-.6-.7-.6zm3.2 0c-.4 0-.7.2-.7.6v1.3c0 .4.3.6.7.6.3 0 .6-.2.6-.6V13c0-.4-.3-.6-.6-.6zm3.7 0c-.4 0-.6.2-.6.6v1.3c0 .4.2.6.6.6.4 0 .6-.2.6-.6V13c0-.4-.2-.6-.6-.6zm3.1 0c-.4 0-.6.2-.6.6v1.3c0 .4.2.6.6.6.4 0 .6-.2.6-.6V13c0-.4-.2-.6-.6-.6zm3.1 0c-.3 0-.6.2-.6.6v1.3c0 .4.3.6.6.6.4 0 .7-.2.7-.6V13c0-.4-.3-.6-.6-.6zm3.2 0c-.4 0-.6.2-.6.6v1.3c0 .4.2.6.6.6.4 0 .6-.2.6-.6V13c0-.4-.2-.6-.6-.6zm3.1 0c-.4 0-.6.2-.6.6v1.3c0 .4.2.6.6.6.4 0 .6-.2.6-.6V13c0-.4-.2-.6-.6-.6zm-31.3 5H35v10.6c0 .4-.2.6-.6.6H1.9c-.4 0-.6-.2-.6-.6V17.5zm25 2.5a2.5 2.5 0 000 5c.6 0 1.2-.2 1.6-.6.5.4 1 .6 1.6.6a2.5 2.5 0 000-5c-.6 0-1.1.2-1.6.6-.4-.4-1-.6-1.6-.6zm-21.8.6c-.4 0-.7.3-.7.6 0 .4.3.7.7.7H13c.4 0 .7-.3.7-.6 0-.4-.3-.7-.7-.7H4.4zm12.5 0c-.4 0-.6.3-.6.6 0 .4.2.7.6.7h2.5c.4 0 .6-.3.6-.6 0-.4-.2-.7-.6-.7h-2.5zm9.2.6c.5 0 .9.2 1.1.6.3.4 1 .4 1.2 0 .2-.4.7-.6 1.1-.6.7 0 1.3.6 1.3 1.3 0 .7-.6 1.3-1.3 1.3-.4 0-.9-.2-1.1-.6a.7.7 0 00-1.2 0c-.2.4-.6.6-1 .6-.8 0-1.4-.6-1.4-1.3 0-.7.6-1.3 1.3-1.3zm-21.7 2c-.4 0-.7.2-.7.6 0 .3.3.6.7.6h6.8c.4 0 .7-.3.7-.6 0-.4-.3-.7-.7-.7H4.5z" fill="#00122C" stroke="#00122C" stroke-width="1" mask="url(#a)"/>
   <defs>
      <linearGradient id="paint0_linear" x1="52" y1="-9" x2="9" y2="53.1" gradientUnits="userSpaceOnUse">
         <stop stop-color="#2BD4DB" stop-opacity=".8"/>
         <stop offset="1" stop-color="#D5F6F8" stop-opacity=".3"/>
      </linearGradient>
   </defs>
</svg>
