<svg width="48" height="40" fill="none" xmlns="http://www.w3.org/2000/svg">
   <circle cx="28" cy="20" r="20" fill="url(#paint0_linear)"/>
   <mask id="a" fill="#fff">
      <path d="M5.6.6C3.2.6 1.3 2.6 1.3 5v24.4c0 2 1.5 3.9 3.5 4.3a4.4 4.4 0 004 2.5h28c1.1 0 2-.8 2-1.8V11.9c0-1-.9-1.9-2-1.9h-.5v-.6c0-1-.9-1.9-2-1.9H10V5C10 2.6 8 .6 5.6.6zm0 1.3c1.7 0 3.2 1.4 3.2 3.1v20.7a4.4 4.4 0 00-6.3 0V5c0-1.7 1.4-3.1 3.1-3.1zM10 8.7h24.4c.3 0 .6.3.6.7v22.5c0 .3-.3.6-.6.6H5.6a3.1 3.1 0 01-3.1-3.1v-.6a3.1 3.1 0 016.3 0v.6c0 .3.2.6.6.6.3 0 .6-.3.6-.6V8.8zm21.9 2c-.4 0-.6.2-.6.6 0 .3.2.6.6.6H33c.4 0 .6-.3.6-.7 0-.3-.2-.6-.6-.6H32zm4.4.6h.6c.3 0 .6.2.6.6v22.5c0 .3-.3.6-.6.6H8.8c-1 0-2-.5-2.6-1.3h28.2c1 0 1.9-.8 1.9-1.8V11.3zM23 13.7c-.3 0-.6.3-.6.7 0 .3.3.6.6.6h2.3L20 20.4l-2-2a.6.6 0 00-1 0l-4.3 4.3c-.3.2-.3.6 0 .9a.6.6 0 00.9 0l3.9-4 2 2c.3.3.7.3 1 0l5.8-5.7V18c0 .4.2.6.6.6.3 0 .6-.2.6-.6v-3.7-.3l-.2-.1-.1-.2H27h-4zm8.8 0c-.4 0-.6.3-.6.7 0 .3.2.6.6.6H33c.4 0 .6-.3.6-.6 0-.4-.2-.7-.6-.7H32zm0 3.2c-.4 0-.6.3-.6.6s.2.6.6.6H33c.4 0 .6-.3.6-.6s-.2-.6-.6-.6H32zm0 3.1c-.4 0-.6.3-.6.6 0 .4.2.6.6.6H33c.4 0 .6-.2.6-.6 0-.3-.2-.6-.6-.6H32zm0 3.1c-.4 0-.6.3-.6.6 0 .4.2.7.6.7H33c.4 0 .6-.3.6-.6 0-.4-.2-.7-.6-.7H32zm-20 1.9c-.4 0-.7.3-.7.6 0 .4.3.6.7.6H28c.4 0 .6-.2.6-.6 0-.3-.2-.6-.6-.6H12zm20 1.3c-.4 0-.6.2-.6.6 0 .3.2.6.6.6H33c.4 0 .6-.3.6-.6 0-.4-.2-.6-.6-.6H32zm0 3c-.4 0-.6.4-.6.7 0 .3.2.6.6.6H33c.4 0 .6-.3.6-.6s-.2-.6-.6-.6H32z"/>
   </mask>
   <path d="M5.6.6C3.2.6 1.3 2.6 1.3 5v24.4c0 2 1.5 3.9 3.5 4.3a4.4 4.4 0 004 2.5h28c1.1 0 2-.8 2-1.8V11.9c0-1-.9-1.9-2-1.9h-.5v-.6c0-1-.9-1.9-2-1.9H10V5C10 2.6 8 .6 5.6.6zm0 1.3c1.7 0 3.2 1.4 3.2 3.1v20.7a4.4 4.4 0 00-6.3 0V5c0-1.7 1.4-3.1 3.1-3.1zM10 8.7h24.4c.3 0 .6.3.6.7v22.5c0 .3-.3.6-.6.6H5.6a3.1 3.1 0 01-3.1-3.1v-.6a3.1 3.1 0 016.3 0v.6c0 .3.2.6.6.6.3 0 .6-.3.6-.6V8.8zm21.9 2c-.4 0-.6.2-.6.6 0 .3.2.6.6.6H33c.4 0 .6-.3.6-.7 0-.3-.2-.6-.6-.6H32zm4.4.6h.6c.3 0 .6.2.6.6v22.5c0 .3-.3.6-.6.6H8.8c-1 0-2-.5-2.6-1.3h28.2c1 0 1.9-.8 1.9-1.8V11.3zM23 13.7c-.3 0-.6.3-.6.7 0 .3.3.6.6.6h2.3L20 20.4l-2-2a.6.6 0 00-1 0l-4.3 4.3c-.3.2-.3.6 0 .9a.6.6 0 00.9 0l3.9-4 2 2c.3.3.7.3 1 0l5.8-5.7V18c0 .4.2.6.6.6.3 0 .6-.2.6-.6v-3.7s0 0 0 0V14s0 0 0 0 0 0 0 0l-.2-.1s0 0 0 0l-.1-.2H27h-4zm8.8 0c-.4 0-.6.3-.6.7 0 .3.2.6.6.6H33c.4 0 .6-.3.6-.6 0-.4-.2-.7-.6-.7H32zm0 3.2c-.4 0-.6.3-.6.6s.2.6.6.6H33c.4 0 .6-.3.6-.6s-.2-.6-.6-.6H32zm0 3.1c-.4 0-.6.3-.6.6 0 .4.2.6.6.6H33c.4 0 .6-.2.6-.6 0-.3-.2-.6-.6-.6H32zm0 3.1c-.4 0-.6.3-.6.6 0 .4.2.7.6.7H33c.4 0 .6-.3.6-.6 0-.4-.2-.7-.6-.7H32zm-20 1.9c-.4 0-.7.3-.7.6 0 .4.3.6.7.6H28c.4 0 .6-.2.6-.6 0-.3-.2-.6-.6-.6H12zm20 1.3c-.4 0-.6.2-.6.6 0 .3.2.6.6.6H33c.4 0 .6-.3.6-.6 0-.4-.2-.6-.6-.6H32zm0 3c-.4 0-.6.4-.6.7 0 .3.2.6.6.6H33c.4 0 .6-.3.6-.6s-.2-.6-.6-.6H32z" fill="#00122C" stroke="#00122C" stroke-width="1" mask="url(#a)"/>
   <defs>
      <linearGradient id="paint0_linear" x1="52" y1="-9" x2="9" y2="53.1" gradientUnits="userSpaceOnUse">
         <stop stop-color="#2BD4DB" stop-opacity=".8"/>
         <stop offset="1" stop-color="#D5F6F8" stop-opacity=".3"/>
      </linearGradient>
   </defs>
</svg>
