<svg width="48" height="40" fill="none" xmlns="http://www.w3.org/2000/svg"><circle cx="28" cy="20" r="20" fill="url(#paint0_linear)"/><mask id="a" fill="#fff"><path d="M1.875 1.25A1.879 1.879 0 000 3.125C0 4.158.842 5 1.875 5c.688 0 1.284-.376 1.611-.933.982.467 1.7 1.421 1.79 2.561L7.02 28.667c.245 3.1 2.571 5.613 5.528 6.199a3.124 3.124 0 003.076 2.634 3.131 3.131 0 003.061-2.5h6.378a3.131 3.131 0 003.061 2.5 3.128 3.128 0 003.125-3.125 3.128 3.128 0 00-3.125-3.125 3.131 3.131 0 00-3.061 2.5h-6.378a3.131 3.131 0 00-3.061-2.5 3.123 3.123 0 00-3.015 2.346A5.668 5.668 0 018.574 30H32.74c.88 0 1.65-.623 1.834-1.482L38.005 12.5h.12A1.879 1.879 0 0040 10.625a1.879 1.879 0 00-1.875-1.875H6.699l-.176-2.22C6.387 4.815 5.25 3.385 3.716 2.794A1.872 1.872 0 001.875 1.25zm0 1.133a.742.742 0 110 1.484.742.742 0 010-1.484zM6.797 10h31.328c.344 0 .625.28.625.625 0 .344-.28.625-.625.625H6.895L6.797 10zm.198 2.5h29.733L33.35 28.257a.627.627 0 01-.61.493H8.288c-.008-.061-.018-.12-.022-.18L6.995 12.5zm1.755 1.25a.623.623 0 00-.625.625v1.25c0 .347.278.625.625.625a.623.623 0 00.625-.625v-1.25a.623.623 0 00-.625-.625zm3.125 0a.623.623 0 00-.625.625v1.25c0 .347.278.625.625.625a.623.623 0 00.625-.625v-1.25a.623.623 0 00-.625-.625zm3.125 0a.623.623 0 00-.625.625v1.25c0 .347.278.625.625.625a.623.623 0 00.625-.625v-1.25A.623.623 0 0015 13.75zm3.125 0a.623.623 0 00-.625.625v1.25c0 .347.278.625.625.625a.623.623 0 00.625-.625v-1.25a.623.623 0 00-.625-.625zm3.125 0a.623.623 0 00-.625.625v1.25c0 .347.278.625.625.625a.623.623 0 00.625-.625v-1.25a.623.623 0 00-.625-.625zm3.125 0a.623.623 0 00-.625.625v1.25c0 .347.278.625.625.625a.623.623 0 00.625-.625v-1.25a.623.623 0 00-.625-.625zm3.125 0a.623.623 0 00-.625.625v1.25c0 .347.278.625.625.625a.623.623 0 00.625-.625v-1.25a.623.623 0 00-.625-.625zm3.125 0a.623.623 0 00-.625.625v1.25c0 .347.278.625.625.625a.623.623 0 00.625-.625v-1.25a.623.623 0 00-.625-.625zm3.125 0a.623.623 0 00-.625.625v1.25c0 .347.278.625.625.625a.623.623 0 00.625-.625v-1.25a.623.623 0 00-.625-.625zM9.375 26.25a.623.623 0 00-.625.625c0 .347.278.625.625.625h17.5a.623.623 0 00.625-.625.623.623 0 00-.625-.625h-17.5zm20 0a.623.623 0 00-.625.625c0 .347.278.625.625.625h2.5a.623.623 0 00.625-.625.623.623 0 00-.625-.625h-2.5zm-1.25 5.945a2.18 2.18 0 11-.001 4.361 2.18 2.18 0 01.001-4.361zm-12.5.122a2.06 2.06 0 012.058 2.058 2.06 2.06 0 01-2.058 2.058 2.06 2.06 0 01-2.058-2.058 2.06 2.06 0 012.058-2.058z"/></mask><path d="M1.875 1.25A1.879 1.879 0 000 3.125C0 4.158.842 5 1.875 5c.688 0 1.284-.376 1.611-.933.982.467 1.7 1.421 1.79 2.561L7.02 28.667c.245 3.1 2.571 5.613 5.528 6.199a3.124 3.124 0 003.076 2.634 3.131 3.131 0 003.061-2.5h6.378a3.131 3.131 0 003.061 2.5 3.128 3.128 0 003.125-3.125 3.128 3.128 0 00-3.125-3.125 3.131 3.131 0 00-3.061 2.5h-6.378a3.131 3.131 0 00-3.061-2.5 3.123 3.123 0 00-3.015 2.346A5.668 5.668 0 018.574 30H32.74c.88 0 1.65-.623 1.834-1.482L38.005 12.5h.12A1.879 1.879 0 0040 10.625a1.879 1.879 0 00-1.875-1.875H6.699l-.176-2.22C6.387 4.815 5.25 3.385 3.716 2.794A1.872 1.872 0 001.875 1.25zm0 1.133a.742.742 0 110 1.484.742.742 0 010-1.484zM6.797 10h31.328c.344 0 .625.28.625.625 0 .344-.28.625-.625.625H6.895L6.797 10zm.198 2.5h29.733L33.35 28.257a.627.627 0 01-.61.493H8.288c-.008-.061-.018-.12-.022-.18L6.995 12.5zm1.755 1.25a.623.623 0 00-.625.625v1.25c0 .347.278.625.625.625a.623.623 0 00.625-.625v-1.25a.623.623 0 00-.625-.625zm3.125 0a.623.623 0 00-.625.625v1.25c0 .347.278.625.625.625a.623.623 0 00.625-.625v-1.25a.623.623 0 00-.625-.625zm3.125 0a.623.623 0 00-.625.625v1.25c0 .347.278.625.625.625a.623.623 0 00.625-.625v-1.25A.623.623 0 0015 13.75zm3.125 0a.623.623 0 00-.625.625v1.25c0 .347.278.625.625.625a.623.623 0 00.625-.625v-1.25a.623.623 0 00-.625-.625zm3.125 0a.623.623 0 00-.625.625v1.25c0 .347.278.625.625.625a.623.623 0 00.625-.625v-1.25a.623.623 0 00-.625-.625zm3.125 0a.623.623 0 00-.625.625v1.25c0 .347.278.625.625.625a.623.623 0 00.625-.625v-1.25a.623.623 0 00-.625-.625zm3.125 0a.623.623 0 00-.625.625v1.25c0 .347.278.625.625.625a.623.623 0 00.625-.625v-1.25a.623.623 0 00-.625-.625zm3.125 0a.623.623 0 00-.625.625v1.25c0 .347.278.625.625.625a.623.623 0 00.625-.625v-1.25a.623.623 0 00-.625-.625zm3.125 0a.623.623 0 00-.625.625v1.25c0 .347.278.625.625.625a.623.623 0 00.625-.625v-1.25a.623.623 0 00-.625-.625zM9.375 26.25a.623.623 0 00-.625.625c0 .347.278.625.625.625h17.5a.623.623 0 00.625-.625.623.623 0 00-.625-.625h-17.5zm20 0a.623.623 0 00-.625.625c0 .347.278.625.625.625h2.5a.623.623 0 00.625-.625.623.623 0 00-.625-.625h-2.5zm-1.25 5.945a2.18 2.18 0 11-.001 4.361 2.18 2.18 0 01.001-4.361zm-12.5.122a2.06 2.06 0 012.058 2.058 2.06 2.06 0 01-2.058 2.058 2.06 2.06 0 01-2.058-2.058 2.06 2.06 0 012.058-2.058z" fill="#0C1142" stroke="#00122C" mask="url(#a)"/><defs><linearGradient id="paint0_linear" x1="52" y1="-9" x2="9.004" y2="53.081" gradientUnits="userSpaceOnUse"><stop stop-color="#2BD4DB" stop-opacity=".8"/><stop offset="1" stop-color="#D5F6F8" stop-opacity=".3"/></linearGradient></defs></svg>
