
<svg width="48" height="40" fill="none" xmlns="http://www.w3.org/2000/svg">
   <circle cx="28" cy="20" r="20" fill="url(#paint0_linear)"/>
   <g clip-path="url(#clip0)">
      <mask id="a" fill="#fff">
         <path d="M27.9.4h-.2l-1.2.5c-.2.1-.4.4-.3.7l.4 2.2c-.6.4-1 .9-1.5 1.4L23 4.8c-.3 0-.5 0-.7.3l-.5 1.2c0 .3 0 .6.3.8l1.8 1.2v2L22 11.6c-.2.1-.3.4-.2.7l.5 1.2c0 .2.4.4.7.3l2.2-.4c.4.6.8 1 1.4 1.5L26 17c0 .3.1.5.4.7l1.1.5c.3 0 .6 0 .8-.3l1.3-1.8h2l1.2 1.9.5.2h.3l1.1-.5c.3 0 .5-.4.4-.7l-.4-2.2c.5-.4 1-.8 1.4-1.4l2.2.5c.3 0 .6-.1.7-.4l.5-1.1c.1-.3 0-.6-.2-.8l-1.9-1.3v-2l2-1.2c.2-.2.3-.5.2-.8L39 5.3a.6.6 0 00-.7-.4l-2.2.4L34.8 4l.4-2.2c0-.3 0-.6-.3-.7L33.7.5a.6.6 0 00-.8.2l-1.2 1.9h-2l-1.3-2a.6.6 0 00-.5-.2zm-.2 1.4l1.2 1.8c.1.2.4.3.6.3.8-.2 1.6-.2 2.3 0 .3 0 .5 0 .7-.3L33.7 2h.2L33.5 4c0 .3 0 .6.2.7.7.4 1.2 1 1.7 1.6.1.3.4.4.6.3l2.1-.4.1.2-1.8 1.2c-.2.2-.3.4-.3.7.2.7.2 1.5 0 2.3 0 .2 0 .5.3.6l1.7 1.2v.3l-2.1-.5c-.3 0-.6 0-.7.3-.4.6-1 1.2-1.6 1.6-.3.1-.4.4-.3.7l.4 2-.2.2-1.2-1.8a.6.6 0 00-.5-.3h-2.5c-.2 0-.5 0-.6.2L27.6 17h-.3l.5-2.2c0-.2 0-.5-.3-.6-.6-.5-1.2-1-1.6-1.7a.6.6 0 00-.7-.3l-2 .4-.2-.2 1.8-1.2c.3-.1.4-.4.3-.6V8.2c0-.3 0-.5-.2-.7L23 6.3v-.2l2.2.4c.2 0 .5 0 .6-.2.5-.7 1-1.2 1.7-1.7.2-.1.3-.4.3-.6l-.4-2.1.2-.1zm3 3.8a3.8 3.8 0 100 7.5 3.8 3.8 0 000-7.5zm0 1.1a2.6 2.6 0 110 5.3 2.6 2.6 0 010-5.3zm0 1.4c-.8 0-1.3.6-1.3 1.3 0 .7.5 1.2 1.2 1.2s1.3-.5 1.3-1.2S31.3 8 30.6 8zm-17 3.1c-.7 0-1.2.4-1.3 1l-.8 3.2c-.9.2-1.7.6-2.5 1l-2.8-1.7c-.5-.3-1.1-.2-1.5.2L3.7 16c-.4.4-.5 1-.2 1.5l1.7 2.8c-.5.8-.8 1.7-1 2.6l-3.3.8c-.5 0-.9.6-.9 1.2v1.5c0 .6.4 1 1 1.2l3.1.8 1 2.5-1.6 2.8c-.3.5-.2 1.1.2 1.6l1 1c.5.4 1 .5 1.6.2L9 34.8c.8.5 1.6.8 2.5 1l.8 3.3c.1.5.6.9 1.2.9h1.5c.6 0 1.1-.4 1.2-1l.8-3.1 2.6-1 2.8 1.6c.5.3 1 .2 1.5-.2l1-1c.5-.5.6-1 .3-1.6L23.6 31c.4-.8.8-1.6 1-2.5l3.2-.8c.6-.1 1-.6 1-1.2v-1.5c0-.6-.4-1.1-1-1.2l-3.2-.8c-.2-1-.6-1.8-1-2.6l1.7-2.8c.3-.5.2-1-.2-1.5L24 15c-.4-.5-1-.6-1.5-.3l-2.8 1.7c-.8-.4-1.7-.8-2.6-1l-.8-3.2c0-.6-.6-1-1.2-1h-1.5zm0 1.3H15l.8 3.2c.1.4.5.8 1 .9l2.1.9c.4.2 1 .2 1.3 0l2.8-1.7 1 1-1.6 2.9c-.2.4-.2.9 0 1.3l1 2.2c0 .4.4.8.8.9l3.2.8v1.5l-3.2.8c-.4 0-.8.4-.9.9-.2.7-.5 1.5-.9 2.2-.2.4-.2.9 0 1.3l1.7 2.8-1 1-2.9-1.6c-.4-.3-.9-.3-1.3 0-.7.4-1.4.7-2.2.9-.4 0-.8.4-.9.9l-.8 3.1h-1.5l-.8-3.1c0-.5-.4-.8-.9-1-.7-.1-1.5-.4-2.2-.9l-.6-.1c-.2 0-.5 0-.7.2l-2.8 1.6-1-1 1.6-2.8c.3-.4.3-1 0-1.3-.4-.7-.7-1.5-.9-2.2 0-.5-.4-.8-.9-1l-3.2-.7v-1.5l3.2-.8c.5-.1.8-.5 1-1 .1-.7.4-1.4.8-2.1.3-.4.3-1 0-1.3l-1.6-2.8 1-1 2.8 1.6c.4.2 1 .2 1.3 0l2.2-1c.5 0 .8-.4 1-.8l.7-3.2zm.5 5.6c-.8 0-1.7.2-2.5.5-.3 0-.5.4-.4.7 0 .3.3.5.6.5h.2c1.4-.5 3-.5 4.3 0 .3 0 .7-.2.8-.5.1-.3 0-.7-.4-.8-.8-.2-1.7-.4-2.6-.4zm4.6 1.6c-.2 0-.3.1-.4.3-.2.2-.2.6 0 .8l1 .9.5.2.4-.2c.2-.2.2-.6 0-.8l-1-1a.6.6 0 00-.5-.2zm-4.4 1.5a4.4 4.4 0 100 8.8 4.4 4.4 0 000-8.8zm-7 1a.6.6 0 00-.2 1.3l1 .4h.2c.3 0 .5-.2.6-.4.2-.3 0-.7-.3-.8l-1-.4h-.3zm7 .3a3.1 3.1 0 110 6.3 3.1 3.1 0 010-6.3zm0 1.9c-.7 0-1.3.5-1.3 1.2s.6 1.3 1.3 1.3c.7 0 1.2-.6 1.2-1.3 0-.7-.5-1.2-1.2-1.2zM8 25H7c-.4 0-.6.3-.6.7 0 .3.3.6.6.6H8c.4 0 .7-.3.7-.7 0-.3-.3-.6-.7-.6zm.5 2.3h-.2l-1 .5c-.4.2-.5.5-.4.9a.6.6 0 00.8.3l1-.5c.4-.1.5-.5.4-.8a.6.6 0 00-.6-.4zm1.4 2c-.2 0-.4 0-.5.2l-.8.8c-.2.2-.2.6 0 .9l.5.2c.1 0 .3 0 .4-.2l.8-.8c.2-.3.2-.7 0-.9a.6.6 0 00-.4-.2z"/>
      </mask>
      <path d="M27.9.4h-.2l-1.2.5c-.2.1-.4.4-.3.7l.4 2.2c-.6.4-1 .9-1.5 1.4L23 4.8c-.3 0-.5 0-.7.3l-.5 1.2c0 .3 0 .6.3.8l1.8 1.2v2L22 11.6c-.2.1-.3.4-.2.7l.5 1.2c0 .2.4.4.7.3l2.2-.4c.4.6.8 1 1.4 1.5L26 17c0 .3.1.5.4.7l1.1.5c.3 0 .6 0 .8-.3l1.3-1.8h2l1.2 1.9.5.2h.3l1.1-.5c.3 0 .5-.4.4-.7l-.4-2.2c.5-.4 1-.8 1.4-1.4l2.2.5c.3 0 .6-.1.7-.4l.5-1.1c.1-.3 0-.6-.2-.8l-1.9-1.3v-2l2-1.2c.2-.2.3-.5.2-.8L39 5.3a.6.6 0 00-.7-.4l-2.2.4L34.8 4l.4-2.2c0-.3 0-.6-.3-.7L33.7.5a.6.6 0 00-.8.2l-1.2 1.9h-2l-1.3-2a.6.6 0 00-.5-.2zm-.2 1.4l1.2 1.8c.1.2.4.3.6.3.8-.2 1.6-.2 2.3 0 .3 0 .5 0 .7-.3L33.7 2h.2L33.5 4c0 .3 0 .6.2.7.7.4 1.2 1 1.7 1.6.1.3.4.4.6.3l2.1-.4.1.2-1.8 1.2c-.2.2-.3.4-.3.7.2.7.2 1.5 0 2.3 0 .2 0 .5.3.6l1.7 1.2v.3l-2.1-.5c-.3 0-.6 0-.7.3-.4.6-1 1.2-1.6 1.6-.3.1-.4.4-.3.7l.4 2-.2.2-1.2-1.8a.6.6 0 00-.5-.3h-2.5c-.2 0-.5 0-.6.2L27.6 17h-.3l.5-2.2c0-.2 0-.5-.3-.6-.6-.5-1.2-1-1.6-1.7a.6.6 0 00-.7-.3l-2 .4-.2-.2 1.8-1.2c.3-.1.4-.4.3-.6V8.2c0-.3 0-.5-.2-.7L23 6.3v-.2l2.2.4c.2 0 .5 0 .6-.2.5-.7 1-1.2 1.7-1.7.2-.1.3-.4.3-.6l-.4-2.1.2-.1zm3 3.8a3.8 3.8 0 100 7.5 3.8 3.8 0 000-7.5zm0 1.1a2.6 2.6 0 110 5.3 2.6 2.6 0 010-5.3zm0 1.4c-.8 0-1.3.6-1.3 1.3 0 .7.5 1.2 1.2 1.2s1.3-.5 1.3-1.2S31.3 8 30.6 8zm-17 3.1c-.7 0-1.2.4-1.3 1l-.8 3.2c-.9.2-1.7.6-2.5 1l-2.8-1.7c-.5-.3-1.1-.2-1.5.2L3.7 16c-.4.4-.5 1-.2 1.5l1.7 2.8c-.5.8-.8 1.7-1 2.6l-3.3.8c-.5 0-.9.6-.9 1.2v1.5c0 .6.4 1 1 1.2l3.1.8 1 2.5-1.6 2.8c-.3.5-.2 1.1.2 1.6l1 1c.5.4 1 .5 1.6.2L9 34.8c.8.5 1.6.8 2.5 1l.8 3.3c.1.5.6.9 1.2.9h1.5c.6 0 1.1-.4 1.2-1l.8-3.1 2.6-1 2.8 1.6c.5.3 1 .2 1.5-.2l1-1c.5-.5.6-1 .3-1.6L23.6 31c.4-.8.8-1.6 1-2.5l3.2-.8c.6-.1 1-.6 1-1.2v-1.5c0-.6-.4-1.1-1-1.2l-3.2-.8c-.2-1-.6-1.8-1-2.6l1.7-2.8c.3-.5.2-1-.2-1.5L24 15c-.4-.5-1-.6-1.5-.3l-2.8 1.7c-.8-.4-1.7-.8-2.6-1l-.8-3.2c0-.6-.6-1-1.2-1h-1.5zm0 1.3H15l.8 3.2c.1.4.5.8 1 .9l2.1.9c.4.2 1 .2 1.3 0l2.8-1.7 1 1-1.6 2.9c-.2.4-.2.9 0 1.3l1 2.2c0 .4.4.8.8.9l3.2.8v1.5l-3.2.8c-.4 0-.8.4-.9.9-.2.7-.5 1.5-.9 2.2-.2.4-.2.9 0 1.3l1.7 2.8-1 1-2.9-1.6c-.4-.3-.9-.3-1.3 0-.7.4-1.4.7-2.2.9-.4 0-.8.4-.9.9l-.8 3.1h-1.5l-.8-3.1c0-.5-.4-.8-.9-1-.7-.1-1.5-.4-2.2-.9l-.6-.1c-.2 0-.5 0-.7.2l-2.8 1.6-1-1 1.6-2.8c.3-.4.3-1 0-1.3-.4-.7-.7-1.5-.9-2.2 0-.5-.4-.8-.9-1l-3.2-.7v-1.5l3.2-.8c.5-.1.8-.5 1-1 .1-.7.4-1.4.8-2.1.3-.4.3-1 0-1.3l-1.6-2.8 1-1 2.8 1.6c.4.2 1 .2 1.3 0l2.2-1c.5 0 .8-.4 1-.8l.7-3.2zm.5 5.6c-.8 0-1.7.2-2.5.5-.3 0-.5.4-.4.7 0 .3.3.5.6.5h.2c1.4-.5 3-.5 4.3 0 .3 0 .7-.2.8-.5.1-.3 0-.7-.4-.8-.8-.2-1.7-.4-2.6-.4zm4.6 1.6c-.2 0-.3.1-.4.3-.2.2-.2.6 0 .8l1 .9.5.2.4-.2c.2-.2.2-.6 0-.8l-1-1a.6.6 0 00-.5-.2zm-4.4 1.5a4.4 4.4 0 100 8.8 4.4 4.4 0 000-8.8zm-7 1a.6.6 0 00-.2 1.3l1 .4h.2c.3 0 .5-.2.6-.4.2-.3 0-.7-.3-.8l-1-.4h-.3zm7 .3a3.1 3.1 0 110 6.3 3.1 3.1 0 010-6.3zm0 1.9c-.7 0-1.3.5-1.3 1.2s.6 1.3 1.3 1.3c.7 0 1.2-.6 1.2-1.3 0-.7-.5-1.2-1.2-1.2zM8 25H7c-.4 0-.6.3-.6.7 0 .3.3.6.6.6H8c.4 0 .7-.3.7-.7 0-.3-.3-.6-.7-.6zm.5 2.3h-.2l-1 .5c-.4.2-.5.5-.4.9a.6.6 0 00.8.3l1-.5c.4-.1.5-.5.4-.8a.6.6 0 00-.6-.4zm1.4 2c-.2 0-.4 0-.5.2l-.8.8c-.2.2-.2.6 0 .9l.5.2c.1 0 .3 0 .4-.2l.8-.8c.2-.3.2-.7 0-.9a.6.6 0 00-.4-.2z" fill="#fff" stroke="#fff" stroke-width="1" mask="url(#a)"/>
   </g>
   <defs>
      <linearGradient id="paint0_linear" x1="52" y1="-9" x2="9" y2="53.1" gradientUnits="userSpaceOnUse">
         <stop stop-color="#2BD4DB" stop-opacity=".8"/>
         <stop offset="1" stop-color="#D5F6F8" stop-opacity=".3"/>
      </linearGradient>
      <clipPath id="clip0">
         <path fill="#fff" d="M0 0h40v40H0z"/>
      </clipPath>
   </defs>
</svg>