<svg width="48" height="40" fill="none" xmlns="http://www.w3.org/2000/svg">
	<circle cx="28" cy="20" r="20" fill="url(#paint0_linear)"/>
	<path d="M19.5 5h0l-1.6 1s0 0 0 0c-2.8 2-6 3.1-9.4 3.4 0 0 0 0 0 0H8h0v.2s0 0 0 0h.5A19 19 0 0018 6.3s0 0 0 0 0 0 0 0L19.6 5 20 5l.3.2 1.6 1.1h0c1.7 1.2 3.6 2.1 5.5 2.7h.2a.1.1 0 000-.2l-8-3.8zm0 0c.1-.2.3-.2.4-.2l.5.1h0m-.9 0h.9m0 0L22 6l-1.6-1zm-2.2-2.1h0l.9-.7c.2-.3.5-.4.8-.4.3 0 .6.2.9.4l.9.7c3 2.3 6.5 3.7 10.4 4l2.2.1h0c.8 0 1.3.7 1.3 1.5h0l-.4 7.2a25 25 0 01-8.6 17.2h0l-5.8 5h0c-.2.2-.5.3-.9.3l-.9-.3s0 0 0 0l-5.7-5h0a25 25 0 01-8.6-17.2l-.4-7.2h0c0-.8.5-1.4 1.2-1.5h0l2.3-.1h0c3.8-.3 7.4-1.7 10.4-4zm2.4-.6h0a1.1 1.1 0 00-1.4 0h0l-.9.7s0 0 0 0c-3 2.5-6.6 3.9-10.5 4.1h0l-2.2.2c-.7 0-1.1.6-1.1 1.2h0l.4 7.2h0c.5 6.3 3.2 12 7.8 16.3l.8.8v-1.1-.2a.1.1 0 01.3.1V33l.2.2 5.2 4.5s0 0 0 0a1.1 1.1 0 001.5 0l5.2-4.5.1-.2v-1.4s0 0 0 0a.1.1 0 01.3 0v1.2l.8-.8c4.6-4.3 7.4-10 7.8-16.3h0l.4-7.2c0-.6-.4-1.2-1-1.2L32 7h0c-3.8-.2-7.5-1.6-10.5-4h0l-.9-.8zM30 9.5h0l-.1-.2h1.6l.4.1v.1h0v.1h0-.4l-1.5-.1zm-2 5h.2s0 0 0 0v.2l-9.3 9.4s0 0 0 0h-.1-.1 0l-5-5V19l-.4-.3.4.3h.2s0 0 0 0l4.5 4.6.4.3.3-.3 9-9zm-11.2 17s0 0 0 0a.1.1 0 01.2 0v1.3s0 0 0 0l-.1.1-.1-.1v-1.3zm3.1 0s0 0 0 0a.1.1 0 01.2 0v1.3s0 0 0 0v.1l-.2-.1v-1.3zm3.1 0s0 0 0 0a.1.1 0 01.3 0v1.3s0 0 0 0l-.2.1V31.5z" fill="#00122C" stroke="#00122C"/>
	<defs>
		<linearGradient id="paint0_linear" x1="52" y1="-9" x2="9" y2="53.1" gradientUnits="userSpaceOnUse">
			<stop stop-color="#2BD4DB" stop-opacity=".8"/>
			<stop offset="1" stop-color="#D5F6F8" stop-opacity=".3"/>
		</linearGradient>
	</defs>
</svg>