<svg width="48" height="40" fill="none" xmlns="http://www.w3.org/2000/svg">
   <circle cx="28" cy="20" r="20" fill="url(#paint0_linear)"/>
   <mask id="a" fill="#fff">
      <path d="M16.3 2.5c-1.4 0-3.4.4-4.6 1.3-2.3 0-4 1.7-4.2 4.3-.2 1.6 0 2.7 0 3.5.1.2.2.5.1.6v.4a1 1 0 00-.3 0c-.5.2-1 .7-1.1 1.4-.1.6 0 1.4.1 2.1.4 1.3 1 2.2 1.8 2.5.4 1.2 1 2.4 1.7 3.5l-5.7 3.3a8.1 8.1 0 00-4.1 7V37c0 1 .8 1.9 1.9 1.9h28.7c1 0 1.9-.9 1.9-2V35h5.6c1 0 1.9-.8 1.9-1.9V31c0-2.3-1.2-4.5-3.1-5.8l-3.7-2.4c1.5-.3 3.2-1 4.3-1.4a1.3 1.3 0 00.6-1.9L37 17.8c-.6-.9-1-1.8-1.2-2.8l-1-4.7c-.9-3.5-3.9-6-7.5-6.2a3 3 0 00-1.6-.5c-.8 0-2.1 0-3.4.5A9.5 9.5 0 0017 2.5h-.6zm0 1.3h.6c3.8 0 6.5 1.9 7.6 5.3-.4 0-.8 0-1.2.3-.2.2-.4.7-.1 1.4.3 1.1.5 1.7.5 2.6 0 .2.2.4.4.5h.8l.2.4-.1 1.5-.6 1.2c-.2.3-.4.4-.5.4-.3 0-.5.2-.6.5a13 13 0 01-2.5 4.6C19.6 24 18 25 16.2 25c-1.7 0-3.3-1-4.5-2.5l-.8-1a13 13 0 01-1.7-3.6c0-.3-.3-.5-.6-.5-.2 0-.8-.5-1-1.6-.2-.6-.3-1.1-.2-1.5l.2-.5h.2c.2.2.4.2.6.1.2 0 .4-.3.4-.5v-1-1c0-.7-.2-1.8 0-3.2.1-2 1.3-3.2 3-3.2l.5-.1c.8-.7 2.5-1.2 4-1.2zm9.4 1c.4 0 .7.1 1 .4h.4c3.1.2 5.7 2.4 6.4 5.4l1 4.6c.3 1.2.8 2.3 1.5 3.3l1 1.6c-1.4.6-3.7 1.4-5.3 1.7l-1.3-.8c.6-.8 1-1.6 1.3-2.5 0-.2.2-.4.5-.5.4-.4.8-1.2.9-2 0-1-.2-1.7-.6-2.1l-.2-.3v-.1L32 12c0-.3-.3-.5-.6-.5h-1.2c-.9 0-1.8 0-2.7-.2-.4-.1-.7.1-.8.5 0 .3.2.6.5.7l3 .3h.7l.1.8v.2c0 .4.3.7.6 1 .2.2.3.6.2 1.1 0 .5-.2 1-.4 1-.3.3-.7.6-.8 1.1-.6 1.6-1.2 2.7-3.5 3.9-.3.2-.5.5-.3.8.1.2.3.4.5.4l.3-.1a11 11 0 001.9-1.2l6.7 4.4c1.6 1 2.5 2.8 2.5 4.7v2.2c0 .4-.2.6-.6.6h-5.6v-1.2c0-3-1.6-5.6-4-7L22.6 22c.7-1.1 1.3-2.3 1.7-3.5.7-.3 1.4-1.2 1.8-2.5.2-.7.2-1.5.1-2-.2-.8-.6-1.3-1.1-1.5h-.3a9.2 9.2 0 00-.6-2.2c.2 0 .6 0 .9.2l.6-.1c.2-.2.3-.4.2-.6-.4-2-1.3-3.7-2.5-4.9.8-.2 1.6-.2 2.2-.2zM12.8 7.6c-.4 0-.9.1-1.1.5l-1 1.6c-.2.2-.1.6.1.8l.4.1c.2 0 .4 0 .5-.3l1-1.5 1 .5c1.8.9 3.8 1.3 5.7 1.3H21a.6.6 0 000-1.2h-1.6c-1.7 0-3.5-.4-5.2-1.2l-1-.5-.4-.1zM10.6 23c1.5 1.8 3.5 3.1 5.7 3.1 2.1 0 4.1-1.3 5.6-3.1l6 3.4a6.9 6.9 0 013.4 6v4.4c0 .3-.3.6-.7.6H2a.6.6 0 01-.6-.6v-4.4c0-2.5 1.3-4.8 3.4-6l5.9-3.4zm.7 3.1a.6.6 0 00-.3 1.2l5 2.5.3.1h.2l5-2.6a.6.6 0 00-.5-1l-4.8 2.3-4.7-2.4h-.2zM33.8 30c-.4 0-.7.3-.7.6V32a.6.6 0 001.3 0v-1.3c0-.3-.3-.6-.6-.6zm3 0c-.3 0-.5.3-.5.6V32a.6.6 0 001.2 0v-1.3c0-.3-.3-.6-.6-.6zm-33 3.8c-.4 0-.7.2-.7.6v1.2a.6.6 0 001.3 0v-1.2c0-.4-.3-.6-.7-.6zm3 0c-.3 0-.5.2-.5.6v1.2a.6.6 0 001.2 0v-1.2c0-.4-.3-.6-.6-.6zm3.2 0c-.3 0-.6.2-.6.6v1.2a.6.6 0 001.2 0v-1.2c0-.4-.3-.6-.6-.6zm3.1 0c-.3 0-.6.2-.6.6v1.2a.6.6 0 001.3 0v-1.2c0-.4-.3-.6-.7-.6zm3.2 0c-.4 0-.7.2-.7.6v1.2a.6.6 0 001.3 0v-1.2c0-.4-.3-.6-.6-.6zm3 0c-.3 0-.6.2-.6.6v1.2a.6.6 0 001.3 0v-1.2c0-.4-.3-.6-.6-.6zm3.2 0c-.3 0-.6.2-.6.6v1.2a.6.6 0 001.2 0v-1.2c0-.4-.3-.6-.6-.6zm3.1 0c-.3 0-.6.2-.6.6v1.2a.6.6 0 001.3 0v-1.2c0-.4-.3-.6-.7-.6zm3.1 0c-.3 0-.6.2-.6.6v1.2a.6.6 0 001.3 0v-1.2c0-.4-.3-.6-.6-.6z"/>
   </mask>
   <path d="M16.3 2.5c-1.4 0-3.4.4-4.6 1.3-2.3 0-4 1.7-4.2 4.3-.2 1.6 0 2.7 0 3.5.1.2.2.5.1.6v.4a1 1 0 00-.3 0c-.5.2-1 .7-1.1 1.4-.1.6 0 1.4.1 2.1.4 1.3 1 2.2 1.8 2.5.4 1.2 1 2.4 1.7 3.5l-5.7 3.3a8.1 8.1 0 00-4.1 7V37c0 1 .8 1.9 1.9 1.9h28.7c1 0 1.9-.9 1.9-2V35h5.6c1 0 1.9-.8 1.9-1.9V31c0-2.3-1.2-4.5-3.1-5.8l-3.7-2.4c1.5-.3 3.2-1 4.3-1.4a1.3 1.3 0 00.6-1.9L37 17.8c-.6-.9-1-1.8-1.2-2.8l-1-4.7c-.9-3.5-3.9-6-7.5-6.2a3 3 0 00-1.6-.5c-.8 0-2.1 0-3.4.5A9.5 9.5 0 0017 2.5h-.6zm0 1.3h.6c3.8 0 6.5 1.9 7.6 5.3-.4 0-.8 0-1.2.3-.2.2-.4.7-.1 1.4.3 1.1.5 1.7.5 2.6 0 .2.2.4.4.5h.8l.2.4-.1 1.5-.6 1.2c-.2.3-.4.4-.5.4-.3 0-.5.2-.6.5a13 13 0 01-2.5 4.6C19.6 24 18 25 16.2 25c-1.7 0-3.3-1-4.5-2.5l-.8-1a13 13 0 01-1.7-3.6c0-.3-.3-.5-.6-.5-.2 0-.8-.5-1-1.6-.2-.6-.3-1.1-.2-1.5l.2-.5h.2c.2.2.4.2.6.1.2 0 .4-.3.4-.5v-1-1c0-.7-.2-1.8 0-3.2.1-2 1.3-3.2 3-3.2l.5-.1c.8-.7 2.5-1.2 4-1.2zm9.4 1c.4 0 .7.1 1 .4h.4c3.1.2 5.7 2.4 6.4 5.4l1 4.6c.3 1.2.8 2.3 1.5 3.3l1 1.6c-1.4.6-3.7 1.4-5.3 1.7l-1.3-.8c.6-.8 1-1.6 1.3-2.5 0-.2.2-.4.5-.5.4-.4.8-1.2.9-2 0-1-.2-1.7-.6-2.1l-.2-.3v-.1L32 12c0-.3-.3-.5-.6-.5h-1.2c-.9 0-1.8 0-2.7-.2-.4-.1-.7.1-.8.5 0 .3.2.6.5.7l3 .3h.7l.1.8v.2c0 .4.3.7.6 1 .2.2.3.6.2 1.1 0 .5-.2 1-.4 1-.3.3-.7.6-.8 1.1-.6 1.6-1.2 2.7-3.5 3.9-.3.2-.5.5-.3.8.1.2.3.4.5.4l.3-.1a11 11 0 001.9-1.2l6.7 4.4c1.6 1 2.5 2.8 2.5 4.7v2.2c0 .4-.2.6-.6.6h-5.6v-1.2c0-3-1.6-5.6-4-7L22.6 22c.7-1.1 1.3-2.3 1.7-3.5.7-.3 1.4-1.2 1.8-2.5.2-.7.2-1.5.1-2-.2-.8-.6-1.3-1.1-1.5h-.3a9.2 9.2 0 00-.6-2.2c.2 0 .6 0 .9.2l.6-.1c.2-.2.3-.4.2-.6-.4-2-1.3-3.7-2.5-4.9.8-.2 1.6-.2 2.2-.2zM12.8 7.6c-.4 0-.9.1-1.1.5l-1 1.6c-.2.2-.1.6.1.8l.4.1c.2 0 .4 0 .5-.3l1-1.5 1 .5c1.8.9 3.8 1.3 5.7 1.3H21a.6.6 0 000-1.2h-1.6c-1.7 0-3.5-.4-5.2-1.2l-1-.5-.4-.1zM10.6 23c1.5 1.8 3.5 3.1 5.7 3.1 2.1 0 4.1-1.3 5.6-3.1l6 3.4a6.9 6.9 0 013.4 6v4.4c0 .3-.3.6-.7.6H2a.6.6 0 01-.6-.6v-4.4c0-2.5 1.3-4.8 3.4-6l5.9-3.4zm.7 3.1a.6.6 0 00-.3 1.2l5 2.5.3.1h.2l5-2.6a.6.6 0 00-.5-1l-4.8 2.3-4.7-2.4h-.2zM33.8 30c-.4 0-.7.3-.7.6V32a.6.6 0 001.3 0v-1.3c0-.3-.3-.6-.6-.6zm3 0c-.3 0-.5.3-.5.6V32a.6.6 0 001.2 0v-1.3c0-.3-.3-.6-.6-.6zm-33 3.8c-.4 0-.7.2-.7.6v1.2a.6.6 0 001.3 0v-1.2c0-.4-.3-.6-.7-.6zm3 0c-.3 0-.5.2-.5.6v1.2a.6.6 0 001.2 0v-1.2c0-.4-.3-.6-.6-.6zm3.2 0c-.3 0-.6.2-.6.6v1.2a.6.6 0 001.2 0v-1.2c0-.4-.3-.6-.6-.6zm3.1 0c-.3 0-.6.2-.6.6v1.2a.6.6 0 001.3 0v-1.2c0-.4-.3-.6-.7-.6zm3.2 0c-.4 0-.7.2-.7.6v1.2a.6.6 0 001.3 0v-1.2c0-.4-.3-.6-.6-.6zm3 0c-.3 0-.6.2-.6.6v1.2a.6.6 0 001.3 0v-1.2c0-.4-.3-.6-.6-.6zm3.2 0c-.3 0-.6.2-.6.6v1.2a.6.6 0 001.2 0v-1.2c0-.4-.3-.6-.6-.6zm3.1 0c-.3 0-.6.2-.6.6v1.2a.6.6 0 001.3 0v-1.2c0-.4-.3-.6-.7-.6zm3.1 0c-.3 0-.6.2-.6.6v1.2a.6.6 0 001.3 0v-1.2c0-.4-.3-.6-.6-.6z" fill="#00122C" stroke="#00122C" stroke-width="1" mask="url(#a)"/>
   <defs>
      <linearGradient id="paint0_linear" x1="52" y1="-9" x2="9" y2="53.1" gradientUnits="userSpaceOnUse">
         <stop stop-color="#2BD4DB" stop-opacity=".8"/>
         <stop offset="1" stop-color="#D5F6F8" stop-opacity=".3"/>
      </linearGradient>
   </defs>
</svg>
