<svg width="31" height="36" viewBox="0 0 31 36" fill="none" xmlns="http://www.w3.org/2000/svg">
<path d="M21.0927 17.7856L30.0504 1.81823C30.2603 1.46181 30.2603 1.1054 30.0504 0.748982C29.8404 0.463849 29.4905 0.25 29.1406 0.25H10.6654C10.3155 0.25 9.96556 0.463849 9.75562 0.748982L0.238087 17.2154C0.0281411 17.5718 0.0281411 17.9995 0.238087 18.2846L9.75562 34.751C9.96556 35.1074 10.3155 35.25 10.6654 35.25H29.1406C29.4905 35.25 29.8404 35.0362 30.0504 34.751C30.2603 34.3946 30.2603 34.0382 30.0504 33.6818L21.0927 17.7856ZM19.903 15.6472L12.4849 2.38849H27.3911L19.903 15.6472ZM10.5954 3.45774L18.6433 17.7856L10.5954 32.1135L2.33754 17.7856L10.5954 3.45774ZM12.4849 33.1115L19.903 19.8529L27.3211 33.1115H12.4849Z" fill="#0C1142"/>
</svg>
