<svg width="264" height="176" viewBox="0 0 264 176" fill="none" xmlns="http://www.w3.org/2000/svg">
<g filter="url(#filter0_d)">
<rect x="40" y="24" width="184" height="96" rx="6" fill="white"/>
</g>
<path d="M126.457 73H127.393L129.616 66.565H128.878L126.961 72.244L125.044 66.565H124.27L126.457 73ZM132.035 73.081C133.097 73.081 133.88 72.586 134.042 71.641H133.295C133.196 72.19 132.773 72.46 132.044 72.46C131.081 72.46 130.568 71.866 130.532 70.795H134.078V70.552C134.078 68.869 133.052 68.212 131.963 68.212C130.667 68.212 129.758 69.202 129.758 70.624V70.696C129.758 72.145 130.703 73.081 132.035 73.081ZM130.559 70.192C130.685 69.355 131.198 68.833 131.963 68.833C132.737 68.833 133.241 69.22 133.313 70.192H130.559ZM135.224 73H135.971V70.417C135.971 69.256 136.574 68.959 137.519 68.914V68.212C136.673 68.239 136.268 68.608 135.971 69.139V68.293H135.224V73ZM138.986 67.312C139.256 67.312 139.481 67.087 139.481 66.817C139.481 66.547 139.256 66.322 138.986 66.322C138.716 66.322 138.491 66.547 138.491 66.817C138.491 67.087 138.716 67.312 138.986 67.312ZM138.626 73H139.373V68.293H138.626V73ZM141.064 73H141.811V68.923H142.963V68.293H141.811V67.447C141.811 66.97 142.009 66.637 142.495 66.637C142.702 66.637 142.891 66.682 143.026 66.736V66.106C142.837 66.043 142.711 66.016 142.468 66.016C141.532 66.016 141.064 66.574 141.064 67.528V68.293H140.389V68.923H141.064V73ZM144.524 74.638H145.28L147.881 68.293H147.116L145.811 71.668L144.371 68.293H143.57L145.415 72.514L144.524 74.638ZM151.669 74.638H152.425L155.026 68.293H154.261L152.956 71.668L151.516 68.293H150.715L152.56 72.514L151.669 74.638ZM157.831 73.081C159.172 73.081 160.153 72.1 160.153 70.678V70.606C160.153 69.193 159.172 68.212 157.84 68.212C156.508 68.212 155.527 69.202 155.527 70.615V70.687C155.527 72.064 156.49 73.081 157.831 73.081ZM157.84 72.46C156.886 72.46 156.301 71.758 156.301 70.687V70.615C156.301 69.535 156.895 68.833 157.84 68.833C158.776 68.833 159.379 69.535 159.379 70.624V70.687C159.379 71.749 158.785 72.46 157.84 72.46ZM162.903 73.081C163.659 73.081 164.181 72.694 164.397 72.253V73H165.144V68.293H164.397V71.146C164.397 71.992 163.767 72.433 163.101 72.433C162.363 72.433 162.012 72.064 162.012 71.236V68.293H161.265V71.272C161.265 72.568 161.967 73.081 162.903 73.081ZM166.653 73H167.4V70.417C167.4 69.256 168.003 68.959 168.948 68.914V68.212C168.102 68.239 167.697 68.608 167.4 69.139V68.293H166.653V73ZM172.797 67.312C173.067 67.312 173.292 67.087 173.292 66.817C173.292 66.547 173.067 66.322 172.797 66.322C172.527 66.322 172.302 66.547 172.302 66.817C172.302 67.087 172.527 67.312 172.797 67.312ZM172.437 73H173.184V68.293H172.437V73ZM176.567 72.46C175.775 72.46 175.136 71.893 175.136 70.705V70.633C175.136 69.49 175.694 68.833 176.63 68.833C177.548 68.833 178.124 69.4 178.124 70.606V70.678C178.124 71.884 177.44 72.46 176.567 72.46ZM176.486 73.081C177.17 73.081 177.827 72.649 178.097 72.19V73H178.844V66.043H178.097V69.049C177.827 68.59 177.341 68.212 176.558 68.212C175.262 68.212 174.362 69.229 174.362 70.669V70.741C174.362 72.208 175.253 73.081 176.486 73.081ZM182.282 73.081C183.344 73.081 184.127 72.586 184.289 71.641H183.542C183.443 72.19 183.02 72.46 182.291 72.46C181.328 72.46 180.815 71.866 180.779 70.795H184.325V70.552C184.325 68.869 183.299 68.212 182.21 68.212C180.914 68.212 180.005 69.202 180.005 70.624V70.696C180.005 72.145 180.95 73.081 182.282 73.081ZM180.806 70.192C180.932 69.355 181.445 68.833 182.21 68.833C182.984 68.833 183.488 69.22 183.56 70.192H180.806ZM185.471 73H186.218V70.147C186.218 69.301 186.839 68.86 187.532 68.86C188.288 68.86 188.639 69.229 188.639 70.057V73H189.386V70.111C189.386 68.743 188.702 68.212 187.73 68.212C186.956 68.212 186.434 68.599 186.218 69.04V68.293H185.471V73ZM192.281 73.063C192.587 73.063 192.767 73.018 192.92 72.964V72.334C192.758 72.397 192.578 72.433 192.344 72.433C191.966 72.433 191.759 72.208 191.759 71.749V68.923H192.857V68.293H191.759V67.222H191.012V68.293H190.337V68.923H191.012V71.821C191.012 72.559 191.426 73.063 192.281 73.063ZM194.427 67.312C194.697 67.312 194.922 67.087 194.922 66.817C194.922 66.547 194.697 66.322 194.427 66.322C194.157 66.322 193.932 66.547 193.932 66.817C193.932 67.087 194.157 67.312 194.427 67.312ZM194.067 73H194.814V68.293H194.067V73ZM197.774 73.063C198.08 73.063 198.26 73.018 198.413 72.964V72.334C198.251 72.397 198.071 72.433 197.837 72.433C197.459 72.433 197.252 72.208 197.252 71.749V68.923H198.35V68.293H197.252V67.222H196.505V68.293H195.83V68.923H196.505V71.821C196.505 72.559 196.919 73.063 197.774 73.063ZM199.965 74.638H200.721L203.322 68.293H202.557L201.252 71.668L199.812 68.293H199.011L200.856 72.514L199.965 74.638ZM126.187 85.063C126.493 85.063 126.673 85.018 126.826 84.964V84.334C126.664 84.397 126.484 84.433 126.25 84.433C125.872 84.433 125.665 84.208 125.665 83.749V80.923H126.763V80.293H125.665V79.222H124.918V80.293H124.243V80.923H124.918V83.821C124.918 84.559 125.332 85.063 126.187 85.063ZM129.908 85.081C131.249 85.081 132.23 84.1 132.23 82.678V82.606C132.23 81.193 131.249 80.212 129.917 80.212C128.585 80.212 127.604 81.202 127.604 82.615V82.687C127.604 84.064 128.567 85.081 129.908 85.081ZM129.917 84.46C128.963 84.46 128.378 83.758 128.378 82.687V82.615C128.378 81.535 128.972 80.833 129.917 80.833C130.853 80.833 131.456 81.535 131.456 82.624V82.687C131.456 83.749 130.862 84.46 129.917 84.46ZM137.722 85.081C138.856 85.081 139.675 84.325 139.774 83.308H139.081C139 84.073 138.397 84.46 137.731 84.46C136.822 84.46 136.192 83.848 136.192 82.696V82.624C136.192 81.517 136.849 80.833 137.704 80.833C138.352 80.833 138.892 81.112 139.009 81.859H139.747C139.603 80.662 138.685 80.212 137.704 80.212C136.444 80.212 135.418 81.184 135.418 82.624V82.696C135.418 84.154 136.408 85.081 137.722 85.081ZM142.855 85.081C144.196 85.081 145.177 84.1 145.177 82.678V82.606C145.177 81.193 144.196 80.212 142.864 80.212C141.532 80.212 140.551 81.202 140.551 82.615V82.687C140.551 84.064 141.514 85.081 142.855 85.081ZM142.864 84.46C141.91 84.46 141.325 83.758 141.325 82.687V82.615C141.325 81.535 141.919 80.833 142.864 80.833C143.8 80.833 144.403 81.535 144.403 82.624V82.687C144.403 83.749 143.809 84.46 142.864 84.46ZM146.333 85H147.08V82.147C147.08 81.301 147.701 80.86 148.394 80.86C149.15 80.86 149.501 81.229 149.501 82.057V85H150.248V82.111C150.248 80.743 149.564 80.212 148.592 80.212C147.818 80.212 147.296 80.599 147.08 81.04V80.293H146.333V85ZM151.874 85H152.621V80.923H153.773V80.293H152.621V79.447C152.621 78.97 152.81 78.637 153.287 78.637C153.494 78.637 153.638 78.664 153.773 78.718V78.088C153.629 78.034 153.503 78.016 153.26 78.016C152.333 78.016 151.874 78.574 151.874 79.528V80.293H151.199V80.923H151.874V85ZM155.07 79.312C155.34 79.312 155.565 79.087 155.565 78.817C155.565 78.547 155.34 78.322 155.07 78.322C154.8 78.322 154.575 78.547 154.575 78.817C154.575 79.087 154.8 79.312 155.07 79.312ZM154.71 85H155.457V80.293H154.71V85ZM156.985 85H157.732V82.417C157.732 81.256 158.335 80.959 159.28 80.914V80.212C158.434 80.239 158.029 80.608 157.732 81.139V80.293H156.985V85ZM160.369 85H161.116V82.12C161.116 81.274 161.746 80.86 162.358 80.86C163.006 80.86 163.357 81.202 163.357 82.03V85H164.104V82.12C164.104 81.274 164.734 80.86 165.346 80.86C165.994 80.86 166.345 81.202 166.345 82.03V85H167.092V82.084C167.092 80.716 166.354 80.212 165.508 80.212C164.923 80.212 164.221 80.482 163.897 81.094C163.654 80.464 163.123 80.212 162.52 80.212C161.845 80.212 161.332 80.572 161.116 81.013V80.293H160.369V85ZM171.366 86.638H172.122L174.723 80.293H173.958L172.653 83.668L171.213 80.293H170.412L172.257 84.514L171.366 86.638ZM177.527 85.081C178.868 85.081 179.849 84.1 179.849 82.678V82.606C179.849 81.193 178.868 80.212 177.536 80.212C176.204 80.212 175.223 81.202 175.223 82.615V82.687C175.223 84.064 176.186 85.081 177.527 85.081ZM177.536 84.46C176.582 84.46 175.997 83.758 175.997 82.687V82.615C175.997 81.535 176.591 80.833 177.536 80.833C178.472 80.833 179.075 81.535 179.075 82.624V82.687C179.075 83.749 178.481 84.46 177.536 84.46ZM182.599 85.081C183.355 85.081 183.877 84.694 184.093 84.253V85H184.84V80.293H184.093V83.146C184.093 83.992 183.463 84.433 182.797 84.433C182.059 84.433 181.708 84.064 181.708 83.236V80.293H180.961V83.272C180.961 84.568 181.663 85.081 182.599 85.081ZM186.35 85H187.097V82.417C187.097 81.256 187.7 80.959 188.645 80.914V80.212C187.799 80.239 187.394 80.608 187.097 81.139V80.293H186.35V85ZM127.024 96.46C126.106 96.46 125.476 95.893 125.476 94.687V94.615C125.476 93.409 126.142 92.833 127.015 92.833C127.807 92.833 128.464 93.427 128.464 94.615V94.687C128.464 95.83 127.96 96.46 127.024 96.46ZM124.756 98.638H125.503V96.226C125.773 96.694 126.322 97.081 127.096 97.081C128.392 97.081 129.238 96.091 129.238 94.651V94.579C129.238 93.112 128.329 92.212 127.096 92.212C126.412 92.212 125.773 92.626 125.503 93.085V92.293H124.756V98.638ZM131.65 96.487C130.993 96.487 130.759 96.181 130.759 95.695C130.759 95.002 131.452 94.768 132.397 94.768H133.045V95.353C133.045 96.082 132.442 96.487 131.65 96.487ZM131.578 97.081C132.271 97.081 132.694 96.847 133.045 96.406V97H133.792V93.895C133.792 92.581 132.973 92.212 132.073 92.212C131.164 92.212 130.309 92.608 130.21 93.679H130.957C131.029 93.103 131.389 92.833 132.037 92.833C132.757 92.833 133.045 93.148 133.045 93.895V94.237H132.37C131.164 94.237 130.012 94.606 130.012 95.695C130.012 96.658 130.705 97.081 131.578 97.081ZM135.55 98.638H136.306L138.907 92.293H138.142L136.837 95.668L135.397 92.293H134.596L136.441 96.514L135.55 98.638ZM139.891 97H140.638V94.12C140.638 93.274 141.268 92.86 141.88 92.86C142.528 92.86 142.879 93.202 142.879 94.03V97H143.626V94.12C143.626 93.274 144.256 92.86 144.868 92.86C145.516 92.86 145.867 93.202 145.867 94.03V97H146.614V94.084C146.614 92.716 145.876 92.212 145.03 92.212C144.445 92.212 143.743 92.482 143.419 93.094C143.176 92.464 142.645 92.212 142.042 92.212C141.367 92.212 140.854 92.572 140.638 93.013V92.293H139.891V97ZM150.008 97.081C151.07 97.081 151.853 96.586 152.015 95.641H151.268C151.169 96.19 150.746 96.46 150.017 96.46C149.054 96.46 148.541 95.866 148.505 94.795H152.051V94.552C152.051 92.869 151.025 92.212 149.936 92.212C148.64 92.212 147.731 93.202 147.731 94.624V94.696C147.731 96.145 148.676 97.081 150.008 97.081ZM148.532 94.192C148.658 93.355 149.171 92.833 149.936 92.833C150.71 92.833 151.214 93.22 151.286 94.192H148.532ZM153.197 97H153.944V94.147C153.944 93.301 154.565 92.86 155.258 92.86C156.014 92.86 156.365 93.229 156.365 94.057V97H157.112V94.111C157.112 92.743 156.428 92.212 155.456 92.212C154.682 92.212 154.16 92.599 153.944 93.04V92.293H153.197V97ZM160.007 97.063C160.313 97.063 160.493 97.018 160.646 96.964V96.334C160.484 96.397 160.304 96.433 160.07 96.433C159.692 96.433 159.485 96.208 159.485 95.749V92.923H160.583V92.293H159.485V91.222H158.738V92.293H158.063V92.923H158.738V95.821C158.738 96.559 159.152 97.063 160.007 97.063Z" fill="#0C1142"/>
<path d="M126.384 52.696L127.408 50.808L128.48 52.696L129.696 51.816L128.336 50.184L130.272 49.816L129.856 48.392L128.032 49.192L128.24 47.112H126.64L126.848 49.192L125.024 48.392L124.592 49.816L126.512 50.184L125.152 51.816L126.384 52.696ZM139.243 52.696L140.267 50.808L141.339 52.696L142.555 51.816L141.195 50.184L143.131 49.816L142.715 48.392L140.891 49.192L141.099 47.112H139.499L139.707 49.192L137.883 48.392L137.451 49.816L139.371 50.184L138.011 51.816L139.243 52.696ZM152.103 52.696L153.127 50.808L154.199 52.696L155.415 51.816L154.055 50.184L155.991 49.816L155.575 48.392L153.751 49.192L153.959 47.112H152.359L152.567 49.192L150.743 48.392L150.311 49.816L152.231 50.184L150.871 51.816L152.103 52.696ZM164.962 52.696L165.986 50.808L167.058 52.696L168.274 51.816L166.914 50.184L168.85 49.816L168.434 48.392L166.61 49.192L166.818 47.112H165.218L165.426 49.192L163.602 48.392L163.17 49.816L165.09 50.184L163.73 51.816L164.962 52.696ZM177.822 52.696L178.846 50.808L179.918 52.696L181.134 51.816L179.774 50.184L181.71 49.816L181.294 48.392L179.47 49.192L179.678 47.112H178.078L178.286 49.192L176.462 48.392L176.03 49.816L177.95 50.184L176.59 51.816L177.822 52.696Z" fill="#0C1142"/>
<mask id="path-5-outside-1" maskUnits="userSpaceOnUse" x="55" y="38" width="54" height="70" fill="black">
<rect fill="white" x="55" y="38" width="54" height="70"/>
<path d="M56 49.2983C56 49.2983 70.8758 39 82 39C93.1241 39 108 49.2983 108 49.2983C108 49.2983 108 58.4982 108 72.9553C108 87.8354 82 106 82 106C82 106 55.9999 87.8354 56 72.9553C56.0001 59.0615 56 49.2983 56 49.2983Z"/>
</mask>
<path d="M56 49.2983C56 49.2983 70.8758 39 82 39C93.1241 39 108 49.2983 108 49.2983C108 49.2983 108 58.4982 108 72.9553C108 87.8354 82 106 82 106C82 106 55.9999 87.8354 56 72.9553C56.0001 59.0615 56 49.2983 56 49.2983Z" fill="#FFFFE9"/>
<path d="M56 49.2983C56 49.2983 70.8758 39 82 39C93.1241 39 108 49.2983 108 49.2983C108 49.2983 108 58.4982 108 72.9553C108 87.8354 82 106 82 106C82 106 55.9999 87.8354 56 72.9553C56.0001 59.0615 56 49.2983 56 49.2983Z" fill="url(#paint0_radial)" fill-opacity="0.15"/>
<path d="M56 49.2983C56 49.2983 70.8758 39 82 39C93.1241 39 108 49.2983 108 49.2983C108 49.2983 108 58.4982 108 72.9553C108 87.8354 82 106 82 106C82 106 55.9999 87.8354 56 72.9553C56.0001 59.0615 56 49.2983 56 49.2983Z" fill="url(#paint1_radial)" fill-opacity="0.15"/>
<path d="M56 49.2983C56 49.2983 70.8758 39 82 39C93.1241 39 108 49.2983 108 49.2983C108 49.2983 108 58.4982 108 72.9553C108 87.8354 82 106 82 106C82 106 55.9999 87.8354 56 72.9553C56.0001 59.0615 56 49.2983 56 49.2983Z" fill="url(#paint2_radial)" fill-opacity="0.15"/>
<path d="M56 49.2983C56 49.2983 70.8758 39 82 39C93.1241 39 108 49.2983 108 49.2983C108 49.2983 108 58.4982 108 72.9553C108 87.8354 82 106 82 106C82 106 55.9999 87.8354 56 72.9553C56.0001 59.0615 56 49.2983 56 49.2983Z" stroke="#242955" stroke-width="2" mask="url(#path-5-outside-1)"/>
<path d="M105 51C105 51 105 63.1622 105 71.9459C105 85.0918 83 101 83 101" stroke="#0C1142"/>
<path d="M83 42C74.0453 42.5197 65.6667 46.0851 59 52.2128C59 59.0213 59 74 59 74" stroke="#0C1142"/>
<path d="M73.8765 67.12C75.8445 67.12 77.0925 66.136 77.0925 64.552C77.0925 63.412 76.4325 62.704 75.4365 62.476C76.2645 62.164 76.8285 61.576 76.8285 60.604C76.8285 59.332 75.7845 58.3 73.9965 58.3C72.1605 58.3 71.0445 59.44 70.9605 60.928H72.3765C72.4725 60.064 73.0605 59.512 73.9725 59.512C74.8605 59.512 75.3045 60.028 75.3045 60.724C75.3045 61.528 74.8605 61.984 73.8765 61.984H73.2645V63.124H73.9245C74.9685 63.124 75.4725 63.592 75.4725 64.528C75.4725 65.38 74.9565 65.92 73.8405 65.92C72.6885 65.92 72.1845 65.248 72.1005 64.348H70.6485C70.7205 65.992 71.8365 67.12 73.8765 67.12ZM78.6891 67H81.2691C84.2811 67 85.7331 65.224 85.7331 62.728V62.62C85.7331 60.124 84.2811 58.42 81.2931 58.42H78.6891V67ZM80.2851 65.74V59.68H81.2091C83.2251 59.68 84.0651 60.796 84.0651 62.644V62.74C84.0651 64.636 83.1411 65.74 81.2211 65.74H80.2851ZM90.0543 67.12C91.9503 67.12 93.2103 65.956 93.2103 64.468C93.2103 62.752 92.1663 62.176 90.1503 61.9C88.6623 61.684 88.3743 61.336 88.3743 60.64C88.3743 59.98 88.8783 59.512 89.8503 59.512C90.8343 59.512 91.3503 59.896 91.5063 60.796H92.9703C92.8023 59.152 91.6983 58.312 89.8503 58.312C88.0623 58.312 86.8623 59.368 86.8623 60.772C86.8623 62.38 87.8343 63.004 89.8863 63.28C91.2783 63.508 91.6743 63.808 91.6743 64.6C91.6743 65.392 91.0023 65.92 90.0543 65.92C88.6023 65.92 88.2543 65.2 88.1463 64.336H86.6103C86.7303 65.956 87.7143 67.12 90.0543 67.12ZM73.098 83H79.302V81.764H75.654L77.562 79.904C78.582 78.92 79.242 77.948 79.242 76.832C79.242 75.32 78.186 74.3 76.41 74.3C74.598 74.3 73.47 75.38 73.362 77.252H74.826C74.97 76.04 75.51 75.548 76.362 75.548C77.19 75.548 77.646 76.052 77.646 76.856C77.646 77.672 77.154 78.428 76.338 79.292L73.098 82.712V83ZM81.5249 83.084C82.0649 83.084 82.4849 82.676 82.4849 82.148C82.4849 81.62 82.0649 81.2 81.5249 81.2C80.9969 81.2 80.5769 81.62 80.5769 82.148C80.5769 82.676 80.9969 83.084 81.5249 83.084ZM86.88 83.12C89.124 83.12 90.468 81.476 90.468 78.896V78.464C90.468 75.884 89.052 74.3 86.88 74.3C84.72 74.3 83.28 75.896 83.28 78.5V78.932C83.28 81.512 84.696 83.12 86.88 83.12ZM86.916 81.848C85.632 81.848 84.888 80.864 84.888 78.92V78.488C84.888 76.58 85.596 75.548 86.892 75.548C88.176 75.548 88.872 76.652 88.872 78.476V78.896C88.872 80.84 88.236 81.848 86.916 81.848Z" fill="#0C1142"/>
<defs>
<filter id="filter0_d" x="0" y="0" width="264" height="176" filterUnits="userSpaceOnUse" color-interpolation-filters="sRGB">
<feFlood flood-opacity="0" result="BackgroundImageFix"/>
<feColorMatrix in="SourceAlpha" type="matrix" values="0 0 0 0 0 0 0 0 0 0 0 0 0 0 0 0 0 0 127 0"/>
<feOffset dy="16"/>
<feGaussianBlur stdDeviation="20"/>
<feColorMatrix type="matrix" values="0 0 0 0 0.0470588 0 0 0 0 0.0666667 0 0 0 0 0.258824 0 0 0 0.5 0"/>
<feBlend mode="normal" in2="BackgroundImageFix" result="effect1_dropShadow"/>
<feBlend mode="normal" in="SourceGraphic" in2="effect1_dropShadow" result="shape"/>
</filter>
<radialGradient id="paint0_radial" cx="0" cy="0" r="1" gradientUnits="userSpaceOnUse" gradientTransform="translate(104.941 44.5036) rotate(122.865) scale(46.1506 80.821)">
<stop stop-color="#2BD4DB"/>
<stop offset="1" stop-color="#2BD4DB" stop-opacity="0"/>
</radialGradient>
<radialGradient id="paint1_radial" cx="0" cy="0" r="1" gradientUnits="userSpaceOnUse" gradientTransform="translate(77.2206 48.0929) rotate(69.4767) scale(81.2498 212.732)">
<stop stop-color="#2BD4DB"/>
<stop offset="1" stop-color="#2BD4DB" stop-opacity="0"/>
</radialGradient>
<radialGradient id="paint2_radial" cx="0" cy="0" r="1" gradientUnits="userSpaceOnUse" gradientTransform="translate(57.3271 88.2608) rotate(25.9593) scale(58.8293 478.1)">
<stop stop-color="#2BD4DB" stop-opacity="0.5"/>
<stop offset="1" stop-color="#2BD4DB" stop-opacity="0"/>
</radialGradient>
</defs>
</svg>
