<svg width="656" height="580" viewBox="0 0 656 580" fill="none" xmlns="http://www.w3.org/2000/svg">
<path d="M527.147 217.856C609.519 300.228 609.519 433.78 527.147 516.152C444.775 598.524 311.223 598.524 228.851 516.152C146.479 433.78 146.479 300.228 228.851 217.856C311.223 135.484 444.775 135.484 527.147 217.856Z" stroke="#FFFFC8"/>
<path d="M527.147 217.856C609.519 300.228 609.519 433.78 527.147 516.152C444.775 598.524 311.223 598.524 228.851 516.152C146.479 433.78 146.479 300.228 228.851 217.856C311.223 135.484 444.775 135.484 527.147 217.856Z" stroke="#FFFFC8" stroke-opacity="0.8"/>
<path d="M527.147 217.856C609.519 300.228 609.519 433.78 527.147 516.152C444.775 598.524 311.223 598.524 228.851 516.152C146.479 433.78 146.479 300.228 228.851 217.856C311.223 135.484 444.775 135.484 527.147 217.856Z" stroke="url(#paint0_radial)"/>
<path d="M527.147 217.856C609.519 300.228 609.519 433.78 527.147 516.152C444.775 598.524 311.223 598.524 228.851 516.152C146.479 433.78 146.479 300.228 228.851 217.856C311.223 135.484 444.775 135.484 527.147 217.856Z" stroke="url(#paint1_radial)"/>
<path d="M527.147 217.856C609.519 300.228 609.519 433.78 527.147 516.152C444.775 598.524 311.223 598.524 228.851 516.152C146.479 433.78 146.479 300.228 228.851 217.856C311.223 135.484 444.775 135.484 527.147 217.856Z" stroke="url(#paint2_radial)"/>
<path d="M516.608 228.392C593.161 304.945 593.161 429.062 516.608 505.615C440.055 582.168 315.938 582.168 239.385 505.615C162.832 429.062 162.832 304.945 239.385 228.392C315.938 151.839 440.055 151.839 516.608 228.392Z" stroke="#FFFFC8"/>
<path d="M516.608 228.392C593.161 304.945 593.161 429.062 516.608 505.615C440.055 582.168 315.938 582.168 239.385 505.615C162.832 429.062 162.832 304.945 239.385 228.392C315.938 151.839 440.055 151.839 516.608 228.392Z" stroke="#FFFFC8" stroke-opacity="0.8"/>
<path d="M516.608 228.392C593.161 304.945 593.161 429.062 516.608 505.615C440.055 582.168 315.938 582.168 239.385 505.615C162.832 429.062 162.832 304.945 239.385 228.392C315.938 151.839 440.055 151.839 516.608 228.392Z" stroke="url(#paint3_radial)"/>
<path d="M516.608 228.392C593.161 304.945 593.161 429.062 516.608 505.615C440.055 582.168 315.938 582.168 239.385 505.615C162.832 429.062 162.832 304.945 239.385 228.392C315.938 151.839 440.055 151.839 516.608 228.392Z" stroke="url(#paint4_radial)"/>
<path d="M516.608 228.392C593.161 304.945 593.161 429.062 516.608 505.615C440.055 582.168 315.938 582.168 239.385 505.615C162.832 429.062 162.832 304.945 239.385 228.392C315.938 151.839 440.055 151.839 516.608 228.392Z" stroke="url(#paint5_radial)"/>
<path d="M559.134 366.991C559.134 467.025 478.041 548.118 378.007 548.118C277.973 548.118 196.879 467.025 196.879 366.991C196.879 266.957 277.973 185.863 378.007 185.863C478.041 185.863 559.134 266.957 559.134 366.991Z" stroke="#FFFFC8"/>
<path d="M559.134 366.991C559.134 467.025 478.041 548.118 378.007 548.118C277.973 548.118 196.879 467.025 196.879 366.991C196.879 266.957 277.973 185.863 378.007 185.863C478.041 185.863 559.134 266.957 559.134 366.991Z" stroke="#FFFFC8" stroke-opacity="0.8"/>
<path d="M559.134 366.991C559.134 467.025 478.041 548.118 378.007 548.118C277.973 548.118 196.879 467.025 196.879 366.991C196.879 266.957 277.973 185.863 378.007 185.863C478.041 185.863 559.134 266.957 559.134 366.991Z" stroke="url(#paint6_radial)"/>
<path d="M559.134 366.991C559.134 467.025 478.041 548.118 378.007 548.118C277.973 548.118 196.879 467.025 196.879 366.991C196.879 266.957 277.973 185.863 378.007 185.863C478.041 185.863 559.134 266.957 559.134 366.991Z" stroke="url(#paint7_radial)"/>
<path d="M559.134 366.991C559.134 467.025 478.041 548.118 378.007 548.118C277.973 548.118 196.879 467.025 196.879 366.991C196.879 266.957 277.973 185.863 378.007 185.863C478.041 185.863 559.134 266.957 559.134 366.991Z" stroke="url(#paint8_radial)"/>
<path d="M544.257 366.996C544.257 458.813 469.825 533.246 378.008 533.246C286.19 533.246 211.758 458.813 211.758 366.996C211.758 275.179 286.19 200.746 378.008 200.746C469.825 200.746 544.257 275.179 544.257 366.996Z" stroke="#FFFFC8"/>
<path d="M544.257 366.996C544.257 458.813 469.825 533.246 378.008 533.246C286.19 533.246 211.758 458.813 211.758 366.996C211.758 275.179 286.19 200.746 378.008 200.746C469.825 200.746 544.257 275.179 544.257 366.996Z" stroke="#FFFFC8" stroke-opacity="0.8"/>
<path d="M544.257 366.996C544.257 458.813 469.825 533.246 378.008 533.246C286.19 533.246 211.758 458.813 211.758 366.996C211.758 275.179 286.19 200.746 378.008 200.746C469.825 200.746 544.257 275.179 544.257 366.996Z" stroke="url(#paint9_radial)"/>
<path d="M544.257 366.996C544.257 458.813 469.825 533.246 378.008 533.246C286.19 533.246 211.758 458.813 211.758 366.996C211.758 275.179 286.19 200.746 378.008 200.746C469.825 200.746 544.257 275.179 544.257 366.996Z" stroke="url(#paint10_radial)"/>
<path d="M544.257 366.996C544.257 458.813 469.825 533.246 378.008 533.246C286.19 533.246 211.758 458.813 211.758 366.996C211.758 275.179 286.19 200.746 378.008 200.746C469.825 200.746 544.257 275.179 544.257 366.996Z" stroke="url(#paint11_radial)"/>
<path d="M529.357 366.998C529.357 450.585 461.595 518.347 378.007 518.347C294.42 518.347 226.658 450.585 226.658 366.998C226.658 283.41 294.42 215.648 378.007 215.648C461.595 215.648 529.357 283.41 529.357 366.998Z" stroke="#FFFFC8"/>
<path d="M529.357 366.998C529.357 450.585 461.595 518.347 378.007 518.347C294.42 518.347 226.658 450.585 226.658 366.998C226.658 283.41 294.42 215.648 378.007 215.648C461.595 215.648 529.357 283.41 529.357 366.998Z" stroke="#FFFFC8" stroke-opacity="0.8"/>
<path d="M529.357 366.998C529.357 450.585 461.595 518.347 378.007 518.347C294.42 518.347 226.658 450.585 226.658 366.998C226.658 283.41 294.42 215.648 378.007 215.648C461.595 215.648 529.357 283.41 529.357 366.998Z" stroke="url(#paint12_radial)"/>
<path d="M529.357 366.998C529.357 450.585 461.595 518.347 378.007 518.347C294.42 518.347 226.658 450.585 226.658 366.998C226.658 283.41 294.42 215.648 378.007 215.648C461.595 215.648 529.357 283.41 529.357 366.998Z" stroke="url(#paint13_radial)"/>
<path d="M529.357 366.998C529.357 450.585 461.595 518.347 378.007 518.347C294.42 518.347 226.658 450.585 226.658 366.998C226.658 283.41 294.42 215.648 378.007 215.648C461.595 215.648 529.357 283.41 529.357 366.998Z" stroke="url(#paint14_radial)"/>
<path d="M514.456 366.995C514.456 442.354 453.366 503.444 378.007 503.444C302.649 503.444 241.559 442.354 241.559 366.995C241.559 291.637 302.649 230.547 378.007 230.547C453.366 230.547 514.456 291.637 514.456 366.995Z" stroke="#FFFFC8"/>
<path d="M514.456 366.995C514.456 442.354 453.366 503.444 378.007 503.444C302.649 503.444 241.559 442.354 241.559 366.995C241.559 291.637 302.649 230.547 378.007 230.547C453.366 230.547 514.456 291.637 514.456 366.995Z" stroke="#FFFFC8" stroke-opacity="0.8"/>
<path d="M514.456 366.995C514.456 442.354 453.366 503.444 378.007 503.444C302.649 503.444 241.559 442.354 241.559 366.995C241.559 291.637 302.649 230.547 378.007 230.547C453.366 230.547 514.456 291.637 514.456 366.995Z" stroke="url(#paint15_radial)"/>
<path d="M514.456 366.995C514.456 442.354 453.366 503.444 378.007 503.444C302.649 503.444 241.559 442.354 241.559 366.995C241.559 291.637 302.649 230.547 378.007 230.547C453.366 230.547 514.456 291.637 514.456 366.995Z" stroke="url(#paint16_radial)"/>
<path d="M514.456 366.995C514.456 442.354 453.366 503.444 378.007 503.444C302.649 503.444 241.559 442.354 241.559 366.995C241.559 291.637 302.649 230.547 378.007 230.547C453.366 230.547 514.456 291.637 514.456 366.995Z" stroke="url(#paint17_radial)"/>
<path d="M499.556 366.997C499.556 434.126 445.137 488.545 378.008 488.545C310.879 488.545 256.46 434.126 256.46 366.997C256.46 299.868 310.879 245.449 378.008 245.449C445.137 245.449 499.556 299.868 499.556 366.997Z" stroke="#FFFFC8"/>
<path d="M499.556 366.997C499.556 434.126 445.137 488.545 378.008 488.545C310.879 488.545 256.46 434.126 256.46 366.997C256.46 299.868 310.879 245.449 378.008 245.449C445.137 245.449 499.556 299.868 499.556 366.997Z" stroke="#FFFFC8" stroke-opacity="0.8"/>
<path d="M499.556 366.997C499.556 434.126 445.137 488.545 378.008 488.545C310.879 488.545 256.46 434.126 256.46 366.997C256.46 299.868 310.879 245.449 378.008 245.449C445.137 245.449 499.556 299.868 499.556 366.997Z" stroke="url(#paint18_radial)"/>
<path d="M499.556 366.997C499.556 434.126 445.137 488.545 378.008 488.545C310.879 488.545 256.46 434.126 256.46 366.997C256.46 299.868 310.879 245.449 378.008 245.449C445.137 245.449 499.556 299.868 499.556 366.997Z" stroke="url(#paint19_radial)"/>
<path d="M499.556 366.997C499.556 434.126 445.137 488.545 378.008 488.545C310.879 488.545 256.46 434.126 256.46 366.997C256.46 299.868 310.879 245.449 378.008 245.449C445.137 245.449 499.556 299.868 499.556 366.997Z" stroke="url(#paint20_radial)"/>
<path d="M484.656 366.999C484.656 425.898 436.908 473.646 378.009 473.646C319.109 473.646 271.361 425.898 271.361 366.999C271.361 308.099 319.109 260.352 378.009 260.352C436.908 260.352 484.656 308.099 484.656 366.999Z" stroke="#FFFFC8"/>
<path d="M484.656 366.999C484.656 425.898 436.908 473.646 378.009 473.646C319.109 473.646 271.361 425.898 271.361 366.999C271.361 308.099 319.109 260.352 378.009 260.352C436.908 260.352 484.656 308.099 484.656 366.999Z" stroke="#FFFFC8" stroke-opacity="0.8"/>
<path d="M484.656 366.999C484.656 425.898 436.908 473.646 378.009 473.646C319.109 473.646 271.361 425.898 271.361 366.999C271.361 308.099 319.109 260.352 378.009 260.352C436.908 260.352 484.656 308.099 484.656 366.999Z" stroke="url(#paint21_radial)"/>
<path d="M484.656 366.999C484.656 425.898 436.908 473.646 378.009 473.646C319.109 473.646 271.361 425.898 271.361 366.999C271.361 308.099 319.109 260.352 378.009 260.352C436.908 260.352 484.656 308.099 484.656 366.999Z" stroke="url(#paint22_radial)"/>
<path d="M484.656 366.999C484.656 425.898 436.908 473.646 378.009 473.646C319.109 473.646 271.361 425.898 271.361 366.999C271.361 308.099 319.109 260.352 378.009 260.352C436.908 260.352 484.656 308.099 484.656 366.999Z" stroke="url(#paint23_radial)"/>
<path d="M469.754 366.997C469.754 417.667 428.678 458.743 378.007 458.743C327.337 458.743 286.261 417.667 286.261 366.997C286.261 316.326 327.337 275.25 378.007 275.25C428.678 275.25 469.754 316.326 469.754 366.997Z" stroke="#FFFFC8"/>
<path d="M469.754 366.997C469.754 417.667 428.678 458.743 378.007 458.743C327.337 458.743 286.261 417.667 286.261 366.997C286.261 316.326 327.337 275.25 378.007 275.25C428.678 275.25 469.754 316.326 469.754 366.997Z" stroke="#FFFFC8" stroke-opacity="0.8"/>
<path d="M469.754 366.997C469.754 417.667 428.678 458.743 378.007 458.743C327.337 458.743 286.261 417.667 286.261 366.997C286.261 316.326 327.337 275.25 378.007 275.25C428.678 275.25 469.754 316.326 469.754 366.997Z" stroke="url(#paint24_radial)"/>
<path d="M469.754 366.997C469.754 417.667 428.678 458.743 378.007 458.743C327.337 458.743 286.261 417.667 286.261 366.997C286.261 316.326 327.337 275.25 378.007 275.25C428.678 275.25 469.754 316.326 469.754 366.997Z" stroke="url(#paint25_radial)"/>
<path d="M469.754 366.997C469.754 417.667 428.678 458.743 378.007 458.743C327.337 458.743 286.261 417.667 286.261 366.997C286.261 316.326 327.337 275.25 378.007 275.25C428.678 275.25 469.754 316.326 469.754 366.997Z" stroke="url(#paint26_radial)"/>
<path d="M454.854 366.998C454.854 409.439 420.449 443.844 378.008 443.844C335.567 443.844 301.162 409.439 301.162 366.998C301.162 324.557 335.567 290.152 378.008 290.152C420.449 290.152 454.854 324.557 454.854 366.998Z" stroke="#FFFFC8"/>
<path d="M454.854 366.998C454.854 409.439 420.449 443.844 378.008 443.844C335.567 443.844 301.162 409.439 301.162 366.998C301.162 324.557 335.567 290.152 378.008 290.152C420.449 290.152 454.854 324.557 454.854 366.998Z" stroke="#FFFFC8" stroke-opacity="0.8"/>
<path d="M454.854 366.998C454.854 409.439 420.449 443.844 378.008 443.844C335.567 443.844 301.162 409.439 301.162 366.998C301.162 324.557 335.567 290.152 378.008 290.152C420.449 290.152 454.854 324.557 454.854 366.998Z" stroke="url(#paint27_radial)"/>
<path d="M454.854 366.998C454.854 409.439 420.449 443.844 378.008 443.844C335.567 443.844 301.162 409.439 301.162 366.998C301.162 324.557 335.567 290.152 378.008 290.152C420.449 290.152 454.854 324.557 454.854 366.998Z" stroke="url(#paint28_radial)"/>
<path d="M454.854 366.998C454.854 409.439 420.449 443.844 378.008 443.844C335.567 443.844 301.162 409.439 301.162 366.998C301.162 324.557 335.567 290.152 378.008 290.152C420.449 290.152 454.854 324.557 454.854 366.998Z" stroke="url(#paint29_radial)"/>
<path d="M439.953 366.996C439.953 401.207 412.219 428.941 378.008 428.941C343.796 428.941 316.062 401.207 316.062 366.996C316.062 332.785 343.796 305.051 378.008 305.051C412.219 305.051 439.953 332.785 439.953 366.996Z" stroke="#FFFFC8"/>
<path d="M439.953 366.996C439.953 401.207 412.219 428.941 378.008 428.941C343.796 428.941 316.062 401.207 316.062 366.996C316.062 332.785 343.796 305.051 378.008 305.051C412.219 305.051 439.953 332.785 439.953 366.996Z" stroke="#FFFFC8" stroke-opacity="0.8"/>
<path d="M439.953 366.996C439.953 401.207 412.219 428.941 378.008 428.941C343.796 428.941 316.062 401.207 316.062 366.996C316.062 332.785 343.796 305.051 378.008 305.051C412.219 305.051 439.953 332.785 439.953 366.996Z" stroke="url(#paint30_radial)"/>
<path d="M439.953 366.996C439.953 401.207 412.219 428.941 378.008 428.941C343.796 428.941 316.062 401.207 316.062 366.996C316.062 332.785 343.796 305.051 378.008 305.051C412.219 305.051 439.953 332.785 439.953 366.996Z" stroke="url(#paint31_radial)"/>
<path d="M439.953 366.996C439.953 401.207 412.219 428.941 378.008 428.941C343.796 428.941 316.062 401.207 316.062 366.996C316.062 332.785 343.796 305.051 378.008 305.051C412.219 305.051 439.953 332.785 439.953 366.996Z" stroke="url(#paint32_radial)"/>
<path d="M378.007 414.542C404.266 414.542 425.552 393.256 425.552 366.998C425.552 340.74 404.266 319.453 378.007 319.453C351.749 319.453 330.463 340.74 330.463 366.998C330.463 393.256 351.749 414.542 378.007 414.542Z" fill="#FFFFC8" fill-opacity="0.8"/>
<path d="M378.007 414.542C404.266 414.542 425.552 393.256 425.552 366.998C425.552 340.74 404.266 319.453 378.007 319.453C351.749 319.453 330.463 340.74 330.463 366.998C330.463 393.256 351.749 414.542 378.007 414.542Z" fill="url(#paint33_radial)"/>
<path d="M378.007 414.542C404.266 414.542 425.552 393.256 425.552 366.998C425.552 340.74 404.266 319.453 378.007 319.453C351.749 319.453 330.463 340.74 330.463 366.998C330.463 393.256 351.749 414.542 378.007 414.542Z" fill="url(#paint34_radial)"/>
<path d="M378.007 414.542C404.266 414.542 425.552 393.256 425.552 366.998C425.552 340.74 404.266 319.453 378.007 319.453C351.749 319.453 330.463 340.74 330.463 366.998C330.463 393.256 351.749 414.542 378.007 414.542Z" fill="url(#paint35_radial)"/>
<defs>
<radialGradient id="paint0_radial" cx="0" cy="0" r="1" gradientUnits="userSpaceOnUse" gradientTransform="translate(384.971 110.15) rotate(84.7749) scale(318.322 601.363)">
<stop stop-color="#2BD4DB"/>
<stop offset="1" stop-color="#2BD4DB" stop-opacity="0"/>
</radialGradient>
<radialGradient id="paint1_radial" cx="0" cy="0" r="1" gradientUnits="userSpaceOnUse" gradientTransform="translate(241.595 285.563) rotate(19.2504) scale(533.186 1663.72)">
<stop stop-color="#2BD4DB"/>
<stop offset="1" stop-color="#2BD4DB" stop-opacity="0"/>
</radialGradient>
<radialGradient id="paint2_radial" cx="0" cy="0" r="1" gradientUnits="userSpaceOnUse" gradientTransform="translate(306.465 579.211) rotate(-24.3006) scale(459.803 3139.37)">
<stop stop-color="#2BD4DB" stop-opacity="0.5"/>
<stop offset="1" stop-color="#2BD4DB" stop-opacity="0"/>
</radialGradient>
<radialGradient id="paint3_radial" cx="0" cy="0" r="1" gradientUnits="userSpaceOnUse" gradientTransform="translate(384.478 128.253) rotate(84.7749) scale(295.888 558.981)">
<stop stop-color="#2BD4DB"/>
<stop offset="1" stop-color="#2BD4DB" stop-opacity="0"/>
</radialGradient>
<radialGradient id="paint4_radial" cx="0" cy="0" r="1" gradientUnits="userSpaceOnUse" gradientTransform="translate(251.206 291.303) rotate(19.2504) scale(495.609 1546.47)">
<stop stop-color="#2BD4DB"/>
<stop offset="1" stop-color="#2BD4DB" stop-opacity="0"/>
</radialGradient>
<radialGradient id="paint5_radial" cx="0" cy="0" r="1" gradientUnits="userSpaceOnUse" gradientTransform="translate(311.504 564.255) rotate(-24.3006) scale(427.398 2918.12)">
<stop stop-color="#2BD4DB" stop-opacity="0.5"/>
<stop offset="1" stop-color="#2BD4DB" stop-opacity="0"/>
</radialGradient>
<radialGradient id="paint6_radial" cx="0" cy="0" r="1" gradientUnits="userSpaceOnUse" gradientTransform="translate(538.266 215.202) rotate(129.775) scale(273.457 516.605)">
<stop stop-color="#2BD4DB"/>
<stop offset="1" stop-color="#2BD4DB" stop-opacity="0"/>
</radialGradient>
<radialGradient id="paint7_radial" cx="0" cy="0" r="1" gradientUnits="userSpaceOnUse" gradientTransform="translate(344.619 234.662) rotate(64.2504) scale(458.037 1429.23)">
<stop stop-color="#2BD4DB"/>
<stop offset="1" stop-color="#2BD4DB" stop-opacity="0"/>
</radialGradient>
<radialGradient id="paint8_radial" cx="0" cy="0" r="1" gradientUnits="userSpaceOnUse" gradientTransform="translate(205.649 452.442) rotate(20.6994) scale(394.997 2696.9)">
<stop stop-color="#2BD4DB" stop-opacity="0.5"/>
<stop offset="1" stop-color="#2BD4DB" stop-opacity="0"/>
</radialGradient>
<radialGradient id="paint9_radial" cx="0" cy="0" r="1" gradientUnits="userSpaceOnUse" gradientTransform="translate(525.14 227.641) rotate(129.775) scale(251.057 474.288)">
<stop stop-color="#2BD4DB"/>
<stop offset="1" stop-color="#2BD4DB" stop-opacity="0"/>
</radialGradient>
<radialGradient id="paint10_radial" cx="0" cy="0" r="1" gradientUnits="userSpaceOnUse" gradientTransform="translate(347.355 245.507) rotate(64.2504) scale(420.517 1312.16)">
<stop stop-color="#2BD4DB"/>
<stop offset="1" stop-color="#2BD4DB" stop-opacity="0"/>
</radialGradient>
<radialGradient id="paint11_radial" cx="0" cy="0" r="1" gradientUnits="userSpaceOnUse" gradientTransform="translate(219.769 445.447) rotate(20.6994) scale(362.641 2475.99)">
<stop stop-color="#2BD4DB" stop-opacity="0.5"/>
<stop offset="1" stop-color="#2BD4DB" stop-opacity="0"/>
</radialGradient>
<radialGradient id="paint12_radial" cx="0" cy="0" r="1" gradientUnits="userSpaceOnUse" gradientTransform="translate(511.992 240.095) rotate(129.775) scale(228.623 431.906)">
<stop stop-color="#2BD4DB"/>
<stop offset="1" stop-color="#2BD4DB" stop-opacity="0"/>
</radialGradient>
<radialGradient id="paint13_radial" cx="0" cy="0" r="1" gradientUnits="userSpaceOnUse" gradientTransform="translate(350.094 256.365) rotate(64.2504) scale(382.94 1194.9)">
<stop stop-color="#2BD4DB"/>
<stop offset="1" stop-color="#2BD4DB" stop-opacity="0"/>
</radialGradient>
<radialGradient id="paint14_radial" cx="0" cy="0" r="1" gradientUnits="userSpaceOnUse" gradientTransform="translate(233.909 438.439) rotate(20.6994) scale(330.236 2254.73)">
<stop stop-color="#2BD4DB" stop-opacity="0.5"/>
<stop offset="1" stop-color="#2BD4DB" stop-opacity="0"/>
</radialGradient>
<radialGradient id="paint15_radial" cx="0" cy="0" r="1" gradientUnits="userSpaceOnUse" gradientTransform="translate(498.844 252.546) rotate(129.775) scale(206.188 389.524)">
<stop stop-color="#2BD4DB"/>
<stop offset="1" stop-color="#2BD4DB" stop-opacity="0"/>
</radialGradient>
<radialGradient id="paint16_radial" cx="0" cy="0" r="1" gradientUnits="userSpaceOnUse" gradientTransform="translate(352.833 267.219) rotate(64.2504) scale(345.363 1077.65)">
<stop stop-color="#2BD4DB"/>
<stop offset="1" stop-color="#2BD4DB" stop-opacity="0"/>
</radialGradient>
<radialGradient id="paint17_radial" cx="0" cy="0" r="1" gradientUnits="userSpaceOnUse" gradientTransform="translate(248.049 431.426) rotate(20.6994) scale(297.83 2033.48)">
<stop stop-color="#2BD4DB" stop-opacity="0.5"/>
<stop offset="1" stop-color="#2BD4DB" stop-opacity="0"/>
</radialGradient>
<radialGradient id="paint18_radial" cx="0" cy="0" r="1" gradientUnits="userSpaceOnUse" gradientTransform="translate(485.697 265) rotate(129.775) scale(183.754 347.142)">
<stop stop-color="#2BD4DB"/>
<stop offset="1" stop-color="#2BD4DB" stop-opacity="0"/>
</radialGradient>
<radialGradient id="paint19_radial" cx="0" cy="0" r="1" gradientUnits="userSpaceOnUse" gradientTransform="translate(355.573 278.077) rotate(64.2504) scale(307.786 960.395)">
<stop stop-color="#2BD4DB"/>
<stop offset="1" stop-color="#2BD4DB" stop-opacity="0"/>
</radialGradient>
<radialGradient id="paint20_radial" cx="0" cy="0" r="1" gradientUnits="userSpaceOnUse" gradientTransform="translate(262.189 424.417) rotate(20.6994) scale(265.425 1812.23)">
<stop stop-color="#2BD4DB" stop-opacity="0.5"/>
<stop offset="1" stop-color="#2BD4DB" stop-opacity="0"/>
</radialGradient>
<radialGradient id="paint21_radial" cx="0" cy="0" r="1" gradientUnits="userSpaceOnUse" gradientTransform="translate(472.55 277.454) rotate(129.775) scale(161.32 304.76)">
<stop stop-color="#2BD4DB"/>
<stop offset="1" stop-color="#2BD4DB" stop-opacity="0"/>
</radialGradient>
<radialGradient id="paint22_radial" cx="0" cy="0" r="1" gradientUnits="userSpaceOnUse" gradientTransform="translate(358.312 288.934) rotate(64.2504) scale(270.209 843.142)">
<stop stop-color="#2BD4DB"/>
<stop offset="1" stop-color="#2BD4DB" stop-opacity="0"/>
</radialGradient>
<radialGradient id="paint23_radial" cx="0" cy="0" r="1" gradientUnits="userSpaceOnUse" gradientTransform="translate(276.33 417.409) rotate(20.6994) scale(233.019 1590.98)">
<stop stop-color="#2BD4DB" stop-opacity="0.5"/>
<stop offset="1" stop-color="#2BD4DB" stop-opacity="0"/>
</radialGradient>
<radialGradient id="paint24_radial" cx="0" cy="0" r="1" gradientUnits="userSpaceOnUse" gradientTransform="translate(459.401 289.905) rotate(129.775) scale(138.886 262.378)">
<stop stop-color="#2BD4DB"/>
<stop offset="1" stop-color="#2BD4DB" stop-opacity="0"/>
</radialGradient>
<radialGradient id="paint25_radial" cx="0" cy="0" r="1" gradientUnits="userSpaceOnUse" gradientTransform="translate(361.05 299.788) rotate(64.2504) scale(232.632 725.888)">
<stop stop-color="#2BD4DB"/>
<stop offset="1" stop-color="#2BD4DB" stop-opacity="0"/>
</radialGradient>
<radialGradient id="paint26_radial" cx="0" cy="0" r="1" gradientUnits="userSpaceOnUse" gradientTransform="translate(290.469 410.396) rotate(20.6994) scale(200.614 1369.72)">
<stop stop-color="#2BD4DB" stop-opacity="0.5"/>
<stop offset="1" stop-color="#2BD4DB" stop-opacity="0"/>
</radialGradient>
<radialGradient id="paint27_radial" cx="0" cy="0" r="1" gradientUnits="userSpaceOnUse" gradientTransform="translate(446.254 302.359) rotate(129.775) scale(116.451 219.995)">
<stop stop-color="#2BD4DB"/>
<stop offset="1" stop-color="#2BD4DB" stop-opacity="0"/>
</radialGradient>
<radialGradient id="paint28_radial" cx="0" cy="0" r="1" gradientUnits="userSpaceOnUse" gradientTransform="translate(363.79 310.646) rotate(64.2504) scale(195.054 608.635)">
<stop stop-color="#2BD4DB"/>
<stop offset="1" stop-color="#2BD4DB" stop-opacity="0"/>
</radialGradient>
<radialGradient id="paint29_radial" cx="0" cy="0" r="1" gradientUnits="userSpaceOnUse" gradientTransform="translate(304.61 403.387) rotate(20.6994) scale(168.209 1148.47)">
<stop stop-color="#2BD4DB" stop-opacity="0.5"/>
<stop offset="1" stop-color="#2BD4DB" stop-opacity="0"/>
</radialGradient>
<radialGradient id="paint30_radial" cx="0" cy="0" r="1" gradientUnits="userSpaceOnUse" gradientTransform="translate(433.106 314.81) rotate(129.775) scale(94.0169 177.613)">
<stop stop-color="#2BD4DB"/>
<stop offset="1" stop-color="#2BD4DB" stop-opacity="0"/>
</radialGradient>
<radialGradient id="paint31_radial" cx="0" cy="0" r="1" gradientUnits="userSpaceOnUse" gradientTransform="translate(366.529 321.5) rotate(64.2504) scale(157.477 491.382)">
<stop stop-color="#2BD4DB"/>
<stop offset="1" stop-color="#2BD4DB" stop-opacity="0"/>
</radialGradient>
<radialGradient id="paint32_radial" cx="0" cy="0" r="1" gradientUnits="userSpaceOnUse" gradientTransform="translate(318.75 396.375) rotate(20.6994) scale(135.803 927.218)">
<stop stop-color="#2BD4DB" stop-opacity="0.5"/>
<stop offset="1" stop-color="#2BD4DB" stop-opacity="0"/>
</radialGradient>
<radialGradient id="paint33_radial" cx="0" cy="0" r="1" gradientUnits="userSpaceOnUse" gradientTransform="translate(419.959 327.264) rotate(129.775) scale(71.5827 135.231)">
<stop stop-color="#2BD4DB"/>
<stop offset="1" stop-color="#2BD4DB" stop-opacity="0"/>
</radialGradient>
<radialGradient id="paint34_radial" cx="0" cy="0" r="1" gradientUnits="userSpaceOnUse" gradientTransform="translate(369.268 332.358) rotate(64.2504) scale(119.9 374.128)">
<stop stop-color="#2BD4DB"/>
<stop offset="1" stop-color="#2BD4DB" stop-opacity="0"/>
</radialGradient>
<radialGradient id="paint35_radial" cx="0" cy="0" r="1" gradientUnits="userSpaceOnUse" gradientTransform="translate(332.89 389.366) rotate(20.6994) scale(103.398 705.966)">
<stop stop-color="#2BD4DB" stop-opacity="0.5"/>
<stop offset="1" stop-color="#2BD4DB" stop-opacity="0"/>
</radialGradient>
</defs>
</svg>
