<svg width="289" height="153" fill="none" xmlns="http://www.w3.org/2000/svg">
   <g filter="url(#a)">
      <g clip-path="url(#b)">
         <rect x="28" y="23" width="233" height="97" rx="6.807" fill="#fff"/>
         <path d="M42.648 50.596c0-.681.517-1.212 1.457-1.321v2.682c-1.198-.245-1.457-.654-1.457-1.361Zm3.88 4.52c0 .803-.6 1.374-1.511 1.497V53.7c1.184.258 1.51.64 1.51 1.415Zm-2.423 4.546h.912v-1.715c2.001-.136 3.185-1.402 3.185-2.995 0-1.838-1.17-2.519-3.185-2.845v-2.791c.83.136 1.252.612 1.402 1.443h1.606c-.163-1.688-1.252-2.6-3.008-2.764v-1.239h-.912v1.226c-1.852.122-3.064 1.252-3.064 2.763 0 1.73 1.049 2.464 3.064 2.805v3.063c-1.294-.163-1.593-.912-1.702-1.797h-1.688c.136 1.647 1.062 2.968 3.39 3.131v1.715Zm7.239-1.837h1.824V48.09h-1.62l-2.26 1.607v1.593l2.056-1.402v7.937Zm5.01 0h1.864l3.54-9.517v-.218h-6.807v1.47h4.533l-3.13 8.264Zm5.587 1.674 1.784-3.05-1.566-.626-1.239 3.227 1.021.45Zm2.644-1.675h7.039v-1.402h-4.139l2.165-2.11c1.157-1.116 1.906-2.219 1.906-3.485 0-1.715-1.198-2.873-3.213-2.873-2.056 0-3.336 1.226-3.458 3.35h1.66c.164-1.376.777-1.934 1.743-1.934.94 0 1.457.572 1.457 1.484 0 .926-.558 1.784-1.484 2.764l-3.676 3.88v.327Zm11.805.137c2.233 0 3.649-1.117 3.649-2.914 0-1.293-.749-2.096-1.879-2.355.94-.354 1.58-1.021 1.58-2.124 0-1.443-1.185-2.614-3.213-2.614-2.083 0-3.35 1.294-3.445 2.982h1.607c.109-.98.776-1.607 1.81-1.607 1.008 0 1.511.586 1.511 1.375 0 .913-.503 1.43-1.62 1.43h-.694v1.293h.749c1.184 0 1.756.531 1.756 1.593 0 .967-.585 1.58-1.851 1.58-1.307 0-1.88-.763-1.974-1.784h-1.648c.082 1.865 1.348 3.145 3.662 3.145Zm8.306 0c2.096 0 3.58-1.294 3.58-3.35 0-2.041-1.239-3.267-2.995-3.267-1.035 0-1.715.381-2.097.817l.014-2.641h4.52v-1.43h-5.909l-.081 5.419h.925c.436-.504 1.035-.844 2.029-.844 1.075 0 1.756.749 1.756 1.92 0 1.197-.64 1.973-1.756 1.973-1.252 0-1.62-.626-1.77-1.524h-1.688c.109 1.674 1.184 2.927 3.472 2.927Zm5.736-.041c.613 0 1.09-.463 1.09-1.062 0-.6-.477-1.076-1.09-1.076a1.07 1.07 0 0 0-1.076 1.076c0 .599.477 1.062 1.076 1.062Zm2.113-.096h7.038v-1.402h-4.138l2.164-2.11c1.157-1.116 1.906-2.219 1.906-3.485 0-1.715-1.198-2.873-3.213-2.873-2.056 0-3.335 1.226-3.458 3.35h1.661c.163-1.376.776-1.934 1.743-1.934.94 0 1.456.572 1.456 1.484 0 .926-.558 1.784-1.483 2.764l-3.676 3.88v.327Zm11.805.137c2.232 0 3.648-1.117 3.648-2.914 0-1.293-.748-2.096-1.878-2.355.939-.354 1.579-1.021 1.579-2.124 0-1.443-1.185-2.614-3.213-2.614-2.083 0-3.349 1.294-3.444 2.982h1.606c.109-.98.776-1.607 1.811-1.607 1.007 0 1.511.586 1.511 1.375 0 .913-.504 1.43-1.62 1.43h-.695v1.293h.749c1.185 0 1.756.531 1.756 1.593 0 .967-.585 1.58-1.851 1.58-1.307 0-1.879-.763-1.974-1.784h-1.647c.081 1.865 1.347 3.145 3.662 3.145ZM42.67 41.28c1.087 0 1.89-.697 1.89-1.616 0-1.034-.643-1.402-1.86-1.593-1.118-.169-1.317-.444-1.317-.98 0-.514.39-.889 1.14-.889.759 0 1.157.284 1.287.973h.597c-.107-.973-.788-1.509-1.883-1.509-1.034 0-1.762.644-1.762 1.486 0 .972.682 1.332 1.83 1.508 1.042.169 1.325.43 1.325 1.05 0 .62-.543 1.033-1.248 1.033-1.103 0-1.363-.551-1.447-1.202h-.644c.1.934.628 1.738 2.091 1.738Zm4.05-.506c-.56 0-.758-.26-.758-.674 0-.59.59-.789 1.393-.789h.552v.498c0 .62-.513.965-1.187.965Zm-.062.505c.59 0 .95-.199 1.249-.574v.506h.635v-2.642c0-1.119-.697-1.433-1.462-1.433-.774 0-1.501.337-1.585 1.249h.635c.061-.49.368-.72.92-.72.612 0 .857.268.857.904v.29h-.575c-1.026 0-2.006.314-2.006 1.241 0 .82.59 1.18 1.332 1.18Zm3.148-.069h.644v-5.919h-.644v5.92Zm3.583.07c.904 0 1.57-.422 1.708-1.226h-.636c-.084.467-.444.697-1.064.697-.82 0-1.256-.505-1.287-1.417h3.017v-.206c0-1.432-.873-1.992-1.8-1.992-1.102 0-1.875.843-1.875 2.053v.061c0 1.233.804 2.03 1.937 2.03Zm-1.256-2.459c.107-.712.544-1.156 1.195-1.156.658 0 1.087.33 1.148 1.156h-2.343Zm5.248 2.458c.972 0 1.47-.49 1.47-1.217 0-.85-.582-1.034-1.41-1.187-.734-.13-.933-.276-.933-.636 0-.344.298-.574.758-.574.505 0 .75.191.842.628h.613c-.107-.865-.728-1.157-1.448-1.157-.628 0-1.355.383-1.355 1.126 0 .697.352.988 1.394 1.18.62.114.934.252.934.673 0 .43-.268.636-.873.636-.643 0-.896-.299-.942-.773h-.62c.038.819.612 1.301 1.57 1.301Z" fill="#0C1142"/>
         <path d="M158.456 53.333h1.702v39.14a.85.85 0 0 1-1.702 0v-39.14ZM195.895 63.544h1.701v28.93a.851.851 0 0 1-1.701 0v-28.93ZM233.334 53.333h1.702v39.14a.85.85 0 0 1-1.702 0v-39.14Z" fill="#006E90"/>
         <rect x="156.755" y="37.167" width="5.105" height="23.825" rx="2.553" fill="#2BD4DB" stroke="#fff" stroke-width="1.702"/>
         <rect x="194.193" y="50.781" width="5.105" height="20.421" rx="2.553" fill="#2BD4DB" stroke="#fff" stroke-width="1.702"/>
         <rect x="231.632" y="39.719" width="5.105" height="21.272" rx="2.553" fill="#2BD4DB" stroke="#fff" stroke-width="1.702"/>
         <path d="M222.884 104.579h2.961v-.483h-2.369v-1.763h1.811v-.484h-1.811v-1.654h2.247v-.483h-2.839v4.867Zm5.02.061c.571 0 .966-.292 1.13-.626v.565h.565v-3.56h-.565v2.158c0 .64-.477.973-.981.973-.558 0-.823-.279-.823-.905v-2.226h-.565v2.253c0 .98.531 1.368 1.239 1.368Zm2.836-.061h.565v-1.954c0-.878.457-1.102 1.171-1.136v-.531c-.64.02-.946.299-1.171.701v-.64h-.565v3.56Zm3.937.061c1.014 0 1.756-.742 1.756-1.817v-.055c0-1.068-.742-1.81-1.749-1.81-1.007 0-1.749.748-1.749 1.817v.055c0 1.041.728 1.81 1.742 1.81Zm.007-.469c-.722 0-1.164-.531-1.164-1.341v-.055c0-.817.449-1.348 1.164-1.348.708 0 1.164.531 1.164 1.355v.048c0 .803-.449 1.341-1.164 1.341Zm4.34 0c-.695 0-1.171-.429-1.171-1.341v-.055c0-.912.503-1.348 1.164-1.348.599 0 1.096.45 1.096 1.348v.055c0 .864-.382 1.341-1.089 1.341Zm-1.716 1.647h.565v-1.824c.204.354.62.646 1.205.646.98 0 1.62-.749 1.62-1.838v-.054c0-1.11-.687-1.79-1.62-1.79-.517 0-1.001.313-1.205.66v-.599h-.565v4.799Zm5.725-1.178c.803 0 1.395-.374 1.518-1.089h-.565c-.075.415-.395.62-.947.62-.728 0-1.116-.45-1.143-1.26h2.682v-.184c0-1.272-.776-1.769-1.6-1.769-.98 0-1.668.748-1.668 1.824v.054c0 1.096.715 1.804 1.723 1.804Zm-1.117-2.185c.096-.633.484-1.028 1.062-1.028.586 0 .967.293 1.021 1.028h-2.083ZM150.56 104.579h.544v-4.098l1.668 4.098h.184l1.613-4.098v4.098h.592v-4.867h-.816l-1.457 3.791-1.504-3.791h-.824v4.867Zm7.246.061c.803 0 1.395-.374 1.518-1.089h-.565c-.075.415-.395.62-.947.62-.728 0-1.116-.45-1.143-1.26h2.682v-.184c0-1.272-.776-1.769-1.6-1.769-.98 0-1.668.748-1.668 1.824v.054c0 1.096.715 1.804 1.723 1.804Zm-1.117-2.185c.096-.633.484-1.028 1.062-1.028.586 0 .967.293 1.021 1.028h-2.083Zm3.529 2.124h.565v-2.158c0-.64.469-.973.994-.973.571 0 .837.279.837.905v2.226h.565v-2.185c0-1.035-.518-1.436-1.253-1.436-.585 0-.98.292-1.143.626v-.565h-.565v3.56Zm5.014-.388c-.497 0-.674-.231-.674-.599 0-.524.524-.701 1.239-.701h.49v.442c0 .552-.456.858-1.055.858Zm-.054.449c.524 0 .844-.177 1.109-.51v.449h.565v-2.348c0-.994-.619-1.273-1.3-1.273-.687 0-1.334.299-1.409 1.109h.565c.054-.435.327-.64.817-.64.544 0 .762.239.762.804v.258h-.51c-.912 0-1.784.279-1.784 1.103 0 .728.524 1.048 1.185 1.048ZM192.219 100.202l.844 2.505h-1.688l.844-2.505Zm-2.035 4.377h.558l.469-1.402h2.008l.477 1.402h.585l-1.647-4.867h-.776l-1.674 4.867Zm6.016.061c.864 0 1.307-.435 1.307-1.082 0-.756-.518-.919-1.253-1.055-.653-.116-.83-.245-.83-.565 0-.306.265-.511.674-.511.449 0 .667.171.748.559h.545c-.095-.77-.647-1.028-1.287-1.028-.558 0-1.204.34-1.204 1 0 .62.313.878 1.238 1.049.552.102.831.224.831.599 0 .381-.238.565-.776.565-.572 0-.796-.266-.837-.688h-.552c.034.728.545 1.157 1.396 1.157Zm2.453-4.363c.205 0 .375-.17.375-.374a.378.378 0 0 0-.375-.375.377.377 0 0 0-.374.375c0 .204.17.374.374.374Zm-.272 4.302h.565v-3.56h-.565v3.56Zm2.668-.388c-.497 0-.674-.231-.674-.599 0-.524.524-.701 1.239-.701h.49v.442c0 .552-.456.858-1.055.858Zm-.055.449c.524 0 .844-.177 1.11-.51v.449h.565v-2.348c0-.994-.62-1.273-1.3-1.273-.688 0-1.334.299-1.409 1.109h.565c.054-.435.326-.64.816-.64.545 0 .763.239.763.804v.258h-.511c-.912 0-1.783.279-1.783 1.103 0 .728.524 1.048 1.184 1.048Z" fill="#6D708E"/>
         <path d="M137.909 23a.426.426 0 0 0-.851 0h.851Zm-.851 111.89a.425.425 0 1 0 .851 0h-.851Zm0-111.466a.425.425 0 1 0 .851 0h-.851Zm.851 2.543a.426.426 0 0 0-.851 0h.851Zm-.851.847a.425.425 0 1 0 .851 0h-.851Zm.851 2.543a.426.426 0 0 0-.851 0h.851Zm-.851.848a.425.425 0 1 0 .851 0h-.851Zm.851 2.543a.426.426 0 0 0-.851 0h.851Zm-.851.848a.425.425 0 1 0 .851 0h-.851Zm.851 2.543a.426.426 0 0 0-.851 0h.851Zm-.851.847a.425.425 0 1 0 .851 0h-.851Zm.851 2.543a.426.426 0 0 0-.851 0h.851Zm-.851.848a.425.425 0 1 0 .851 0h-.851Zm.851 2.543a.426.426 0 0 0-.851 0h.851Zm-.851.847a.425.425 0 1 0 .851 0h-.851Zm.851 2.543a.426.426 0 0 0-.851 0h.851Zm-.851.848a.425.425 0 1 0 .851 0h-.851Zm.851 2.543a.426.426 0 0 0-.851 0h.851Zm-.851.848a.425.425 0 1 0 .851 0h-.851Zm.851 2.543a.426.426 0 0 0-.851 0h.851Zm-.851.847a.425.425 0 1 0 .851 0h-.851Zm.851 2.543a.426.426 0 0 0-.851 0h.851Zm-.851.848a.425.425 0 1 0 .851 0h-.851Zm.851 2.543a.426.426 0 0 0-.851 0h.851Zm-.851.848a.425.425 0 1 0 .851 0h-.851Zm.851 2.543a.426.426 0 0 0-.851 0h.851Zm-.851.847a.425.425 0 1 0 .851 0h-.851Zm.851 2.543a.426.426 0 0 0-.851 0h.851Zm-.851.848a.425.425 0 1 0 .851 0h-.851Zm.851 2.543a.426.426 0 0 0-.851 0h.851Zm-.851.847a.425.425 0 1 0 .851 0h-.851Zm.851 2.543a.426.426 0 0 0-.851 0h.851Zm-.851.848a.425.425 0 1 0 .851 0h-.851Zm.851 2.543a.426.426 0 0 0-.851 0h.851Zm-.851.848a.425.425 0 1 0 .851 0h-.851Zm.851 2.543a.426.426 0 0 0-.851 0h.851Zm-.851.847a.425.425 0 1 0 .851 0h-.851Zm.851 2.543a.426.426 0 0 0-.851 0h.851Zm-.851.848a.425.425 0 1 0 .851 0h-.851Zm.851 2.543a.426.426 0 0 0-.851 0h.851Zm-.851.847a.425.425 0 1 0 .851 0h-.851Zm.851 2.543a.426.426 0 0 0-.851 0h.851Zm-.851.848a.425.425 0 1 0 .851 0h-.851Zm.851 2.543a.426.426 0 0 0-.851 0h.851Zm-.851.848a.425.425 0 1 0 .851 0h-.851Zm.851 2.543a.426.426 0 0 0-.851 0h.851Zm-.851.847a.425.425 0 1 0 .851 0h-.851Zm.851 2.543a.425.425 0 0 0-.851 0h.851Zm-.851.848a.425.425 0 1 0 .851 0h-.851Zm.851 2.543a.425.425 0 0 0-.851 0h.851Zm-.851.848a.425.425 0 1 0 .851 0h-.851Zm.851 2.543a.426.426 0 0 0-.851 0h.851Zm-.851.847a.425.425 0 1 0 .851 0h-.851Zm.851 2.543a.425.425 0 0 0-.851 0h.851Zm-.851.848a.425.425 0 1 0 .851 0h-.851Zm.851 2.543a.426.426 0 0 0-.851 0h.851Zm-.851.847a.425.425 0 1 0 .851 0h-.851Zm.851 2.543a.425.425 0 0 0-.851 0h.851Zm-.851.848a.425.425 0 1 0 .851 0h-.851Zm.851 2.543a.425.425 0 0 0-.851 0h.851Zm-.851.848a.425.425 0 1 0 .851 0h-.851Zm.851 2.543a.426.426 0 0 0-.851 0h.851Zm-.851.847a.425.425 0 1 0 .851 0h-.851Zm.851 2.543a.425.425 0 0 0-.851 0h.851Zm-.851.848a.425.425 0 1 0 .851 0h-.851Zm.851 2.543a.426.426 0 0 0-.851 0h.851Zm-.851.848a.425.425 0 1 0 .851 0h-.851Zm.851 2.542a.426.426 0 0 0-.851 0h.851ZM137.058 23v.424h.851V23h-.851Zm0 2.967v.847h.851v-.847h-.851Zm0 3.39v.848h.851v-.848h-.851Zm0 3.391v.848h.851v-.848h-.851Zm0 3.39v.848h.851v-.847h-.851Zm0 3.391v.848h.851v-.848h-.851Zm0 3.39v.849h.851v-.848h-.851Zm0 3.392v.847h.851v-.848h-.851Zm0 3.39v.848h.851V49.7h-.851Zm0 3.39v.848h.851v-.847h-.851Zm0 3.391v.848h.851v-.848h-.851Zm0 3.391v.848h.851v-.848h-.851Zm0 3.39v.848h.851v-.847h-.851Zm0 3.391v.848h.851v-.848h-.851Zm0 3.39v.848h.851v-.847h-.851Zm0 3.391v.848h.851v-.848h-.851Zm0 3.391v.848h.851v-.848h-.851Zm0 3.39v.848h.851v-.847h-.851Zm0 3.391v.848h.851v-.848h-.851Zm0 3.39v.849h.851v-.848h-.851Zm0 3.391v.848h.851v-.848h-.851Zm0 3.391v.848h.851v-.848h-.851Zm0 3.39v.848h.851v-.847h-.851Zm0 3.391v.848h.851v-.848h-.851Zm0 3.391v.848h.851v-.848h-.851Zm0 3.391v.847h.851v-.847h-.851Zm0 3.39v.848h.851v-.848h-.851Zm0 3.391v.847h.851v-.847h-.851Zm0 3.39v.848h.851v-.848h-.851Zm0 3.391v.848h.851v-.848h-.851Zm0 3.391v.847h.851v-.847h-.851Zm0 3.39v.848h.851v-.848h-.851Zm0 3.391v.848h.851v-.848h-.851Zm0 3.39v.424h.851v-.424h-.851Z" fill="#B6B8C6"/>
         <rect x="40.211" y="101.833" width="10.21" height="1.702" rx=".851" fill="#006E90"/>
         <path d="M55.288 104.579h1.668c.973 0 1.6-.442 1.6-1.361v-.028c0-.633-.266-.993-.974-1.164.559-.19.736-.585.736-1.028v-.027c0-.96-.66-1.259-1.566-1.259h-1.464v4.867Zm.579-2.743v-1.661h.871c.681 0 1 .224 1 .776v.027c0 .599-.271.858-.986.858h-.885Zm0 2.28v-1.817h.994c.783 0 1.116.286 1.116.885v.027c0 .592-.327.905-1.034.905h-1.076Zm5.276.524c.803 0 1.395-.374 1.518-1.089h-.565c-.075.415-.395.62-.946.62-.729 0-1.117-.45-1.144-1.26h2.682v-.184c0-1.272-.776-1.769-1.6-1.769-.98 0-1.667.748-1.667 1.824v.054c0 1.096.715 1.804 1.722 1.804Zm-1.116-2.185c.095-.633.483-1.028 1.062-1.028.585 0 .966.293 1.02 1.028h-2.082Zm3.855 2.124h.565v-3.084h.871v-.476h-.871v-.64c0-.361.15-.613.517-.613.157 0 .3.034.402.075v-.476a1.145 1.145 0 0 0-.422-.068c-.708 0-1.062.422-1.062 1.143v.579h-.51v.476h.51v3.084Zm3.739.061c1.014 0 1.756-.742 1.756-1.817v-.055c0-1.068-.742-1.81-1.75-1.81-1.007 0-1.749.748-1.749 1.817v.055c0 1.041.729 1.81 1.743 1.81Zm.007-.469c-.722 0-1.164-.531-1.164-1.341v-.055c0-.817.449-1.348 1.164-1.348.708 0 1.164.531 1.164 1.355v.048c0 .803-.45 1.341-1.164 1.341Zm2.828.408h.565v-1.954c0-.878.456-1.102 1.171-1.136v-.531c-.64.02-.946.299-1.17.701v-.64h-.566v3.56Zm4.12.061c.804 0 1.396-.374 1.519-1.089h-.565c-.075.415-.395.62-.947.62-.728 0-1.116-.45-1.143-1.26h2.682v-.184c0-1.272-.776-1.769-1.6-1.769-.98 0-1.668.748-1.668 1.824v.054c0 1.096.715 1.804 1.723 1.804Zm-1.116-2.185c.096-.633.484-1.028 1.062-1.028.586 0 .967.293 1.021 1.028H73.46Z" fill="#0C1142"/>
         <rect x="87.009" y="101.833" width="10.21" height="1.702" rx=".851" fill="#2BD4DB"/>
         <path d="m103.754 100.202.844 2.505h-1.688l.844-2.505Zm-2.035 4.377h.558l.47-1.402h2.008l.476 1.402h.586l-1.648-4.867h-.776l-1.674 4.867Zm5.24 0h.565v-3.084h.871v-.476h-.871v-.64c0-.361.15-.613.517-.613.157 0 .3.034.402.075v-.476a1.144 1.144 0 0 0-.422-.068c-.708 0-1.062.422-1.062 1.143v.579h-.511v.476h.511v3.084Zm3.55.048c.232 0 .368-.034.484-.075v-.477a1.16 1.16 0 0 1-.436.075c-.286 0-.442-.17-.442-.517v-2.138h.83v-.476h-.83v-.81h-.565v.81h-.511v.476h.511v2.192c0 .558.313.94.959.94Zm2.999.013c.803 0 1.395-.374 1.518-1.089h-.565c-.075.415-.395.62-.947.62-.728 0-1.116-.45-1.143-1.26h2.682v-.184c0-1.272-.776-1.769-1.6-1.769-.98 0-1.668.748-1.668 1.824v.054c0 1.096.715 1.804 1.723 1.804Zm-1.117-2.185c.096-.633.484-1.028 1.062-1.028.586 0 .967.293 1.021 1.028h-2.083Zm3.733 2.124h.565v-1.954c0-.878.456-1.102 1.171-1.136v-.531c-.64.02-.946.299-1.171.701v-.64h-.565v3.56Z" fill="#0C1142"/>
      </g>
   </g>
   <defs>
      <clipPath id="b">
         <rect x="28" y="23" width="233" height="97" rx="6.807" fill="#fff"/>
      </clipPath>
      <filter id="a" x=".772" y=".877" width="287.456" height="151.456" filterUnits="userSpaceOnUse" color-interpolation-filters="sRGB">
         <feFlood flood-opacity="0" result="BackgroundImageFix"/>
         <feColorMatrix in="SourceAlpha" values="0 0 0 0 0 0 0 0 0 0 0 0 0 0 0 0 0 0 127 0" result="hardAlpha"/>
         <feOffset dy="5.105"/>
         <feGaussianBlur stdDeviation="13.614"/>
         <feColorMatrix values="0 0 0 0 0.0470588 0 0 0 0 0.0666667 0 0 0 0 0.258824 0 0 0 0.5 0"/>
         <feBlend in2="BackgroundImageFix" result="effect1_dropShadow_5041_46222"/>
         <feBlend in="SourceGraphic" in2="effect1_dropShadow_5041_46222" result="shape"/>
      </filter>
   </defs>
</svg>
