<svg width="503" height="378" viewBox="0 0 503 378" fill="none" xmlns="http://www.w3.org/2000/svg">
<g filter="url(#filter0_d)">
<rect x="16" y="12" width="471" height="346" rx="8" fill="#0C1142"/>
</g>
<rect x="72" y="18" width="409" height="334" rx="4" fill="white"/>
<rect x="36" y="86" width="16" height="2" rx="1" fill="#2BD4DB"/>
<rect x="36" y="104" width="16" height="2" rx="1" fill="#6D708E"/>
<rect x="36" y="122" width="16" height="2" rx="1" fill="#6D708E"/>
<rect x="36" y="140" width="16" height="2" rx="1" fill="#6D708E"/>
<rect x="36" y="158" width="16" height="2" rx="1" fill="#6D708E"/>
<rect x="36" y="176" width="16" height="2" rx="1" fill="#6D708E"/>
<rect x="36" y="332" width="16" height="2" rx="1" fill="#6D708E"/>
<path d="M101.698 46.1547C104.82 46.1547 106.864 43.9847 106.864 41.0027V40.8907C106.864 37.8807 104.722 35.8507 101.712 35.8507C98.7436 35.8507 96.5596 37.9647 96.5596 40.9467V41.0587C96.5596 43.9847 98.5616 46.1547 101.698 46.1547ZM101.74 44.3487C100.102 44.3487 98.9256 43.0887 98.9256 41.0447V40.9327C98.9256 38.9167 99.9756 37.6427 101.712 37.6427C103.462 37.6427 104.498 38.9727 104.498 40.9187V41.0307C104.498 43.0467 103.434 44.3487 101.74 44.3487Z" fill="#0C1142"/>
<path d="M110.299 46.0007H112.581L115.241 38.6787H113.281L111.545 43.9147L109.795 38.6787H107.625L110.299 46.0007Z" fill="#0C1142"/>
<path d="M119.356 46.1547C121.358 46.1547 122.618 45.2727 122.856 43.6907H120.938C120.812 44.3067 120.35 44.7127 119.412 44.7127C118.306 44.7127 117.648 44.0127 117.592 42.7947H122.87V42.2347C122.87 39.6167 121.19 38.5107 119.3 38.5107C117.172 38.5107 115.534 40.0087 115.534 42.3187V42.4307C115.534 44.7687 117.144 46.1547 119.356 46.1547ZM117.62 41.5487C117.774 40.5127 118.39 39.9107 119.3 39.9107C120.266 39.9107 120.826 40.4427 120.896 41.5487H117.62Z" fill="#0C1142"/>
<path d="M124.198 46.0007H126.228V42.3327C126.228 40.9327 127.096 40.4427 128.594 40.4567V38.5667C127.404 38.5807 126.69 39.0987 126.228 40.0787V38.6787H124.198V46.0007Z" fill="#0C1142"/>
<path d="M131.969 46.0007H134.251L136.911 38.6787H134.951L133.215 43.9147L131.465 38.6787H129.295L131.969 46.0007Z" fill="#0C1142"/>
<path d="M139.057 37.6847C139.715 37.6847 140.219 37.2087 140.219 36.5787C140.219 35.9487 139.715 35.4727 139.057 35.4727C138.413 35.4727 137.909 35.9487 137.909 36.5787C137.909 37.2087 138.413 37.6847 139.057 37.6847ZM138.063 46.0007H140.079V38.6787H138.063V46.0007Z" fill="#0C1142"/>
<path d="M145.318 46.1547C147.32 46.1547 148.58 45.2727 148.818 43.6907H146.9C146.774 44.3067 146.312 44.7127 145.374 44.7127C144.268 44.7127 143.61 44.0127 143.554 42.7947H148.832V42.2347C148.832 39.6167 147.152 38.5107 145.262 38.5107C143.134 38.5107 141.496 40.0087 141.496 42.3187V42.4307C141.496 44.7687 143.106 46.1547 145.318 46.1547ZM143.582 41.5487C143.736 40.5127 144.352 39.9107 145.262 39.9107C146.228 39.9107 146.788 40.4427 146.858 41.5487H143.582Z" fill="#0C1142"/>
<path d="M151.578 46.0007H153.594L154.938 41.4087L156.184 46.0007H158.172L160.482 38.6787H158.536L157.15 43.6067L155.862 38.6787H154.196L152.782 43.6067L151.48 38.6787H149.352L151.578 46.0007Z" fill="#0C1142"/>
<path d="M99.575 77.1109C101.313 77.1109 102.468 76.0439 102.468 74.6799C102.468 73.1069 101.511 72.5789 99.663 72.3259C98.299 72.1279 98.035 71.8089 98.035 71.1709C98.035 70.5659 98.497 70.1369 99.388 70.1369C100.29 70.1369 100.763 70.4889 100.906 71.3139H102.248C102.094 69.8069 101.082 69.0369 99.388 69.0369C97.749 69.0369 96.649 70.0049 96.649 71.2919C96.649 72.7659 97.54 73.3379 99.421 73.5909C100.697 73.7999 101.06 74.0749 101.06 74.8009C101.06 75.5269 100.444 76.0109 99.575 76.0109C98.244 76.0109 97.925 75.3509 97.826 74.5589H96.418C96.528 76.0439 97.43 77.1109 99.575 77.1109Z" fill="#0C1142"/>
<path d="M105.6 76.1539C104.94 76.1539 104.676 75.8349 104.676 75.3509C104.676 74.6469 105.325 74.4159 106.337 74.4159H107.019V74.9879C107.019 75.7249 106.414 76.1539 105.6 76.1539ZM105.281 77.1109C106.161 77.1109 106.667 76.7919 107.041 76.2969V77.0009H108.35V73.2279C108.35 71.6549 107.338 71.1269 106.051 71.1269C104.764 71.1269 103.697 71.6879 103.587 73.0299H104.874C104.94 72.4579 105.281 72.1279 105.974 72.1279C106.755 72.1279 107.019 72.5129 107.019 73.2829V73.5799H106.304C104.654 73.5799 103.356 74.0639 103.356 75.4059C103.356 76.6049 104.225 77.1109 105.281 77.1109Z" fill="#0C1142"/>
<path d="M109.909 77.0009H111.24V68.5859H109.909V77.0009Z" fill="#0C1142"/>
<path d="M115.392 77.1109C116.866 77.1109 117.845 76.4509 118.032 75.2409H116.745C116.646 75.8019 116.228 76.1209 115.425 76.1209C114.435 76.1209 113.885 75.5049 113.841 74.4159H118.054V74.0309C118.054 71.9739 116.767 71.1269 115.337 71.1269C113.698 71.1269 112.477 72.3149 112.477 74.0969V74.1849C112.477 75.9999 113.698 77.1109 115.392 77.1109ZM113.863 73.5249C113.995 72.6339 114.534 72.0949 115.337 72.0949C116.162 72.0949 116.668 72.5349 116.734 73.5249H113.863Z" fill="#0C1142"/>
<path d="M121.266 77.1109C122.74 77.1109 123.565 76.4399 123.565 75.2739C123.565 74.0529 122.762 73.7229 121.409 73.5139C120.496 73.3599 120.221 73.1949 120.221 72.7769C120.221 72.3699 120.562 72.0949 121.134 72.0949C121.75 72.0949 122.047 72.3369 122.157 72.8649H123.389C123.246 71.5669 122.311 71.1269 121.134 71.1269C120.056 71.1269 118.978 71.6989 118.978 72.8539C118.978 73.9319 119.539 74.3609 121.057 74.6029C121.904 74.7459 122.289 74.9219 122.289 75.3949C122.289 75.8789 121.97 76.1319 121.255 76.1319C120.474 76.1319 120.177 75.7909 120.111 75.2079H118.857C118.912 76.4289 119.781 77.1109 121.266 77.1109Z" fill="#0C1142"/>
<path d="M96.9023 212.001H101.72V210.835H98.3653V204.136H96.9023V212.001Z" fill="#0C1142"/>
<path d="M104.677 211.154C104.017 211.154 103.753 210.835 103.753 210.351C103.753 209.647 104.402 209.416 105.414 209.416H106.096V209.988C106.096 210.725 105.491 211.154 104.677 211.154ZM104.358 212.111C105.238 212.111 105.744 211.792 106.118 211.297V212.001H107.427V208.228C107.427 206.655 106.415 206.127 105.128 206.127C103.841 206.127 102.774 206.688 102.664 208.03H103.951C104.017 207.458 104.358 207.128 105.051 207.128C105.832 207.128 106.096 207.513 106.096 208.283V208.58H105.381C103.731 208.58 102.433 209.064 102.433 210.406C102.433 211.605 103.302 212.111 104.358 212.111Z" fill="#0C1142"/>
<path d="M110.91 212.1C111.317 212.1 111.604 212.034 111.812 211.957V210.901C111.625 210.978 111.427 211.011 111.163 211.011C110.745 211.011 110.503 210.78 110.503 210.274V207.249H111.768V206.248H110.503V204.983H109.172V206.248H108.402V207.249H109.172V210.395C109.172 211.484 109.766 212.1 110.91 212.1Z" fill="#0C1142"/>
<path d="M115.543 212.111C117.017 212.111 117.996 211.451 118.183 210.241H116.896C116.797 210.802 116.379 211.121 115.576 211.121C114.586 211.121 114.036 210.505 113.992 209.416H118.205V209.031C118.205 206.974 116.918 206.127 115.488 206.127C113.849 206.127 112.628 207.315 112.628 209.097V209.185C112.628 211 113.849 212.111 115.543 212.111ZM114.014 208.525C114.146 207.634 114.685 207.095 115.488 207.095C116.313 207.095 116.819 207.535 116.885 208.525H114.014Z" fill="#0C1142"/>
<path d="M121.417 212.111C122.891 212.111 123.716 211.44 123.716 210.274C123.716 209.053 122.913 208.723 121.56 208.514C120.647 208.36 120.372 208.195 120.372 207.777C120.372 207.37 120.713 207.095 121.285 207.095C121.901 207.095 122.198 207.337 122.308 207.865H123.54C123.397 206.567 122.462 206.127 121.285 206.127C120.207 206.127 119.129 206.699 119.129 207.854C119.129 208.932 119.69 209.361 121.208 209.603C122.055 209.746 122.44 209.922 122.44 210.395C122.44 210.879 122.121 211.132 121.406 211.132C120.625 211.132 120.328 210.791 120.262 210.208H119.008C119.063 211.429 119.932 212.111 121.417 212.111Z" fill="#0C1142"/>
<path d="M126.841 212.1C127.248 212.1 127.534 212.034 127.743 211.957V210.901C127.556 210.978 127.358 211.011 127.094 211.011C126.676 211.011 126.434 210.78 126.434 210.274V207.249H127.699V206.248H126.434V204.983H125.103V206.248H124.333V207.249H125.103V210.395C125.103 211.484 125.697 212.1 126.841 212.1Z" fill="#0C1142"/>
<path d="M133.523 212.1C133.93 212.1 134.216 212.034 134.425 211.957V210.901C134.238 210.978 134.04 211.011 133.776 211.011C133.358 211.011 133.116 210.78 133.116 210.274V207.249H134.381V206.248H133.116V204.983H131.785V206.248H131.015V207.249H131.785V210.395C131.785 211.484 132.379 212.1 133.523 212.1Z" fill="#0C1142"/>
<path d="M135.625 212.001H136.956V209.009C136.956 207.788 137.66 207.414 138.826 207.403V206.16C137.858 206.171 137.319 206.6 136.956 207.326V206.248H135.625V212.001Z" fill="#0C1142"/>
<path d="M141.716 211.154C141.056 211.154 140.792 210.835 140.792 210.351C140.792 209.647 141.441 209.416 142.453 209.416H143.135V209.988C143.135 210.725 142.53 211.154 141.716 211.154ZM141.397 212.111C142.277 212.111 142.783 211.792 143.157 211.297V212.001H144.466V208.228C144.466 206.655 143.454 206.127 142.167 206.127C140.88 206.127 139.813 206.688 139.703 208.03H140.99C141.056 207.458 141.397 207.128 142.09 207.128C142.871 207.128 143.135 207.513 143.135 208.283V208.58H142.42C140.77 208.58 139.472 209.064 139.472 210.406C139.472 211.605 140.341 212.111 141.397 212.111Z" fill="#0C1142"/>
<path d="M145.992 212.001H147.323V208.613C147.323 207.7 147.928 207.238 148.676 207.238C149.468 207.238 149.82 207.634 149.82 208.503V212.001H151.151V208.382C151.151 206.798 150.337 206.127 149.182 206.127C148.236 206.127 147.598 206.6 147.323 207.161V206.248H145.992V212.001Z" fill="#0C1142"/>
<path d="M154.653 212.111C156.127 212.111 156.952 211.44 156.952 210.274C156.952 209.053 156.149 208.723 154.796 208.514C153.883 208.36 153.608 208.195 153.608 207.777C153.608 207.37 153.949 207.095 154.521 207.095C155.137 207.095 155.434 207.337 155.544 207.865H156.776C156.633 206.567 155.698 206.127 154.521 206.127C153.443 206.127 152.365 206.699 152.365 207.854C152.365 208.932 152.926 209.361 154.444 209.603C155.291 209.746 155.676 209.922 155.676 210.395C155.676 210.879 155.357 211.132 154.642 211.132C153.861 211.132 153.564 210.791 153.498 210.208H152.244C152.299 211.429 153.168 212.111 154.653 212.111Z" fill="#0C1142"/>
<path d="M159.945 211.154C159.285 211.154 159.021 210.835 159.021 210.351C159.021 209.647 159.67 209.416 160.682 209.416H161.364V209.988C161.364 210.725 160.759 211.154 159.945 211.154ZM159.626 212.111C160.506 212.111 161.012 211.792 161.386 211.297V212.001H162.695V208.228C162.695 206.655 161.683 206.127 160.396 206.127C159.109 206.127 158.042 206.688 157.932 208.03H159.219C159.285 207.458 159.626 207.128 160.319 207.128C161.1 207.128 161.364 207.513 161.364 208.283V208.58H160.649C158.999 208.58 157.701 209.064 157.701 210.406C157.701 211.605 158.57 212.111 159.626 212.111Z" fill="#0C1142"/>
<path d="M166.74 212.111C168.302 212.111 169.303 211.176 169.402 209.856H168.181C168.104 210.67 167.499 211.088 166.795 211.088C165.816 211.088 165.2 210.428 165.2 209.174V209.086C165.2 207.898 165.849 207.194 166.762 207.194C167.466 207.194 167.972 207.513 168.082 208.283H169.369C169.215 206.699 168.016 206.127 166.74 206.127C165.134 206.127 163.836 207.282 163.836 209.108V209.196C163.836 211.033 165.09 212.111 166.74 212.111Z" fill="#0C1142"/>
<path d="M172.506 212.1C172.913 212.1 173.199 212.034 173.408 211.957V210.901C173.221 210.978 173.023 211.011 172.759 211.011C172.341 211.011 172.099 210.78 172.099 210.274V207.249H173.364V206.248H172.099V204.983H170.768V206.248H169.998V207.249H170.768V210.395C170.768 211.484 171.362 212.1 172.506 212.1Z" fill="#0C1142"/>
<path d="M175.291 205.302C175.731 205.302 176.083 204.972 176.083 204.543C176.083 204.103 175.731 203.773 175.291 203.773C174.851 203.773 174.499 204.103 174.499 204.543C174.499 204.972 174.851 205.302 175.291 205.302ZM174.642 212.001H175.973V206.248H174.642V212.001Z" fill="#0C1142"/>
<path d="M180.158 212.111C181.852 212.111 183.117 210.945 183.117 209.152V209.064C183.117 207.304 181.852 206.127 180.169 206.127C178.475 206.127 177.21 207.315 177.21 209.097V209.185C177.21 210.934 178.464 212.111 180.158 212.111ZM180.169 211.077C179.157 211.077 178.574 210.34 178.574 209.163V209.075C178.574 207.887 179.179 207.172 180.169 207.172C181.159 207.172 181.753 207.898 181.753 209.086V209.163C181.753 210.34 181.159 211.077 180.169 211.077Z" fill="#0C1142"/>
<path d="M184.32 212.001H185.651V208.613C185.651 207.7 186.256 207.238 187.004 207.238C187.796 207.238 188.148 207.634 188.148 208.503V212.001H189.479V208.382C189.479 206.798 188.665 206.127 187.51 206.127C186.564 206.127 185.926 206.6 185.651 207.161V206.248H184.32V212.001Z" fill="#0C1142"/>
<path d="M192.981 212.111C194.455 212.111 195.28 211.44 195.28 210.274C195.28 209.053 194.477 208.723 193.124 208.514C192.211 208.36 191.936 208.195 191.936 207.777C191.936 207.37 192.277 207.095 192.849 207.095C193.465 207.095 193.762 207.337 193.872 207.865H195.104C194.961 206.567 194.026 206.127 192.849 206.127C191.771 206.127 190.693 206.699 190.693 207.854C190.693 208.932 191.254 209.361 192.772 209.603C193.619 209.746 194.004 209.922 194.004 210.395C194.004 210.879 193.685 211.132 192.97 211.132C192.189 211.132 191.892 210.791 191.826 210.208H190.572C190.627 211.429 191.496 212.111 192.981 212.111Z" fill="#0C1142"/>
<path d="M98.3704 229.061C99.3904 229.061 100.122 228.539 100.248 227.507H99.4684C99.3844 228.113 98.9644 228.413 98.3704 228.413C97.5784 228.413 97.1164 227.843 97.1164 226.877V226.829C97.1164 225.869 97.6084 225.281 98.3644 225.281C98.9824 225.281 99.3004 225.575 99.3904 226.145H100.2C100.104 225.137 99.3424 224.645 98.3584 224.645C97.1644 224.645 96.2764 225.545 96.2764 226.835V226.883C96.2764 228.203 97.0264 229.061 98.3704 229.061Z" fill="#8688A0"/>
<path d="M101.93 229.061C102.44 229.061 102.77 228.815 102.926 228.509V229.001H103.652V225.863H102.926V227.729C102.926 228.227 102.584 228.479 102.194 228.479C101.774 228.479 101.576 228.263 101.576 227.789V225.863H100.85V227.873C100.85 228.707 101.312 229.061 101.93 229.061Z" fill="#8688A0"/>
<path d="M105.586 229.061C106.39 229.061 106.84 228.695 106.84 228.059C106.84 227.393 106.402 227.213 105.664 227.099C105.166 227.015 105.016 226.925 105.016 226.697C105.016 226.475 105.202 226.325 105.514 226.325C105.85 226.325 106.012 226.457 106.072 226.745H106.744C106.666 226.037 106.156 225.797 105.514 225.797C104.926 225.797 104.338 226.109 104.338 226.739C104.338 227.327 104.644 227.561 105.472 227.693C105.934 227.771 106.144 227.867 106.144 228.125C106.144 228.389 105.97 228.527 105.58 228.527C105.154 228.527 104.992 228.341 104.956 228.023H104.272C104.302 228.689 104.776 229.061 105.586 229.061Z" fill="#8688A0"/>
<path d="M108.545 229.055C108.767 229.055 108.923 229.019 109.037 228.977V228.401C108.935 228.443 108.827 228.461 108.683 228.461C108.455 228.461 108.323 228.335 108.323 228.059V226.409H109.013V225.863H108.323V225.173H107.597V225.863H107.177V226.409H107.597V228.125C107.597 228.719 107.921 229.055 108.545 229.055Z" fill="#8688A0"/>
<path d="M111.09 229.061C112.014 229.061 112.704 228.425 112.704 227.447V227.399C112.704 226.439 112.014 225.797 111.096 225.797C110.172 225.797 109.482 226.445 109.482 227.417V227.465C109.482 228.419 110.166 229.061 111.09 229.061ZM111.096 228.497C110.544 228.497 110.226 228.095 110.226 227.453V227.405C110.226 226.757 110.556 226.367 111.096 226.367C111.636 226.367 111.96 226.763 111.96 227.411V227.453C111.96 228.095 111.636 228.497 111.096 228.497Z" fill="#8688A0"/>
<path d="M113.36 229.001H114.086V227.123C114.086 226.643 114.416 226.403 114.776 226.403C115.13 226.403 115.334 226.601 115.334 227.063V229.001H116.06V227.123C116.06 226.643 116.39 226.403 116.75 226.403C117.11 226.403 117.308 226.601 117.308 227.063V229.001H118.034V227.015C118.034 226.151 117.566 225.797 116.99 225.797C116.6 225.797 116.168 225.971 115.928 226.361C115.772 225.971 115.448 225.797 115.04 225.797C114.578 225.797 114.236 226.049 114.086 226.343V225.863H113.36V229.001Z" fill="#8688A0"/>
<path d="M120.248 229.061C121.052 229.061 121.586 228.701 121.688 228.041H120.986C120.932 228.347 120.704 228.521 120.266 228.521C119.726 228.521 119.426 228.185 119.402 227.591H121.7V227.381C121.7 226.259 120.998 225.797 120.218 225.797C119.324 225.797 118.658 226.445 118.658 227.417V227.465C118.658 228.455 119.324 229.061 120.248 229.061ZM119.414 227.105C119.486 226.619 119.78 226.325 120.218 226.325C120.668 226.325 120.944 226.565 120.98 227.105H119.414Z" fill="#8688A0"/>
<path d="M122.348 229.001H123.074V227.369C123.074 226.703 123.458 226.499 124.094 226.493V225.815C123.566 225.821 123.272 226.055 123.074 226.451V225.863H122.348V229.001Z" fill="#8688A0"/>
<path d="M127.537 229.061C128.389 229.061 128.935 228.551 128.989 227.831H128.323C128.281 228.275 127.951 228.503 127.567 228.503C127.033 228.503 126.697 228.143 126.697 227.459V227.411C126.697 226.763 127.051 226.379 127.549 226.379C127.933 226.379 128.209 226.553 128.269 226.973H128.971C128.887 226.109 128.233 225.797 127.537 225.797C126.661 225.797 125.953 226.427 125.953 227.423V227.471C125.953 228.473 126.637 229.061 127.537 229.061Z" fill="#8688A0"/>
<path d="M131.012 229.061C131.936 229.061 132.626 228.425 132.626 227.447V227.399C132.626 226.439 131.936 225.797 131.018 225.797C130.094 225.797 129.404 226.445 129.404 227.417V227.465C129.404 228.419 130.088 229.061 131.012 229.061ZM131.018 228.497C130.466 228.497 130.148 228.095 130.148 227.453V227.405C130.148 226.757 130.478 226.367 131.018 226.367C131.558 226.367 131.882 226.763 131.882 227.411V227.453C131.882 228.095 131.558 228.497 131.018 228.497Z" fill="#8688A0"/>
<path d="M134.332 229.061C134.842 229.061 135.172 228.815 135.328 228.509V229.001H136.054V225.863H135.328V227.729C135.328 228.227 134.986 228.479 134.596 228.479C134.176 228.479 133.978 228.263 133.978 227.789V225.863H133.252V227.873C133.252 228.707 133.714 229.061 134.332 229.061Z" fill="#8688A0"/>
<path d="M136.915 229.001H137.641V227.153C137.641 226.655 137.971 226.403 138.379 226.403C138.811 226.403 139.003 226.619 139.003 227.093V229.001H139.729V227.027C139.729 226.163 139.285 225.797 138.655 225.797C138.139 225.797 137.791 226.055 137.641 226.361V225.863H136.915V229.001Z" fill="#8688A0"/>
<path d="M141.633 229.055C141.855 229.055 142.011 229.019 142.125 228.977V228.401C142.023 228.443 141.915 228.461 141.771 228.461C141.543 228.461 141.411 228.335 141.411 228.059V226.409H142.101V225.863H141.411V225.173H140.685V225.863H140.265V226.409H140.685V228.125C140.685 228.719 141.009 229.055 141.633 229.055Z" fill="#8688A0"/>
<path d="M142.78 229.001H143.506V227.369C143.506 226.703 143.89 226.499 144.526 226.493V225.815C143.998 225.821 143.704 226.055 143.506 226.451V225.863H142.78V229.001Z" fill="#8688A0"/>
<path d="M145.542 230.075H146.256L147.966 225.863H147.258L146.49 227.885L145.656 225.863H144.87L146.112 228.683L145.542 230.075Z" fill="#8688A0"/>
<path d="M204.492 229H205.29V227.368H205.89C206.808 227.368 207.462 226.966 207.462 226.06V226.036C207.462 225.136 206.832 224.71 205.872 224.71H204.492V229ZM205.29 226.792V225.328H205.872C206.382 225.328 206.682 225.526 206.682 226.036V226.06C206.682 226.534 206.4 226.792 205.872 226.792H205.29Z" fill="#8688A0"/>
<path d="M208.088 229H208.814V227.368C208.814 226.702 209.198 226.498 209.834 226.492V225.814C209.306 225.82 209.012 226.054 208.814 226.45V225.862H208.088V229Z" fill="#8688A0"/>
<path d="M211.813 229.06C212.737 229.06 213.427 228.424 213.427 227.446V227.398C213.427 226.438 212.737 225.796 211.819 225.796C210.895 225.796 210.205 226.444 210.205 227.416V227.464C210.205 228.418 210.889 229.06 211.813 229.06ZM211.819 228.496C211.267 228.496 210.949 228.094 210.949 227.452V227.404C210.949 226.756 211.279 226.366 211.819 226.366C212.359 226.366 212.683 226.762 212.683 227.41V227.452C212.683 228.094 212.359 228.496 211.819 228.496Z" fill="#8688A0"/>
<path d="M215.439 228.484C214.971 228.484 214.623 228.154 214.623 227.464V227.416C214.623 226.738 214.935 226.366 215.469 226.366C215.997 226.366 216.315 226.708 216.315 227.398V227.446C216.315 228.148 215.943 228.484 215.439 228.484ZM215.259 229.06C215.721 229.06 216.123 228.784 216.291 228.472V229H217.017V224.41H216.291V226.342C216.117 226.03 215.799 225.796 215.289 225.796C214.473 225.796 213.879 226.432 213.879 227.434V227.482C213.879 228.502 214.473 229.06 215.259 229.06Z" fill="#8688A0"/>
<path d="M218.929 229.06C219.439 229.06 219.769 228.814 219.925 228.508V229H220.651V225.862H219.925V227.728C219.925 228.226 219.583 228.478 219.193 228.478C218.773 228.478 218.575 228.262 218.575 227.788V225.862H217.849V227.872C217.849 228.706 218.311 229.06 218.929 229.06Z" fill="#8688A0"/>
<path d="M222.886 229.06C223.738 229.06 224.284 228.55 224.338 227.83H223.672C223.63 228.274 223.3 228.502 222.916 228.502C222.382 228.502 222.046 228.142 222.046 227.458V227.41C222.046 226.762 222.4 226.378 222.898 226.378C223.282 226.378 223.558 226.552 223.618 226.972H224.32C224.236 226.108 223.582 225.796 222.886 225.796C222.01 225.796 221.302 226.426 221.302 227.422V227.47C221.302 228.472 221.986 229.06 222.886 229.06Z" fill="#8688A0"/>
<path d="M226.031 229.054C226.253 229.054 226.409 229.018 226.523 228.976V228.4C226.421 228.442 226.313 228.46 226.169 228.46C225.941 228.46 225.809 228.334 225.809 228.058V226.408H226.499V225.862H225.809V225.172H225.083V225.862H224.663V226.408H225.083V228.124C225.083 228.718 225.407 229.054 226.031 229.054Z" fill="#8688A0"/>
<path d="M339.492 229H340.29V227.368H340.89C341.808 227.368 342.462 226.966 342.462 226.06V226.036C342.462 225.136 341.832 224.71 340.872 224.71H339.492V229ZM340.29 226.792V225.328H340.872C341.382 225.328 341.682 225.526 341.682 226.036V226.06C341.682 226.534 341.4 226.792 340.872 226.792H340.29Z" fill="#8688A0"/>
<path d="M343.088 229H343.814V227.368C343.814 226.702 344.198 226.498 344.834 226.492V225.814C344.306 225.82 344.012 226.054 343.814 226.45V225.862H343.088V229Z" fill="#8688A0"/>
<path d="M345.845 225.346C346.085 225.346 346.277 225.166 346.277 224.932C346.277 224.692 346.085 224.512 345.845 224.512C345.605 224.512 345.413 224.692 345.413 224.932C345.413 225.166 345.605 225.346 345.845 225.346ZM345.491 229H346.217V225.862H345.491V229Z" fill="#8688A0"/>
<path d="M348.476 229.06C349.328 229.06 349.874 228.55 349.928 227.83H349.262C349.22 228.274 348.89 228.502 348.506 228.502C347.972 228.502 347.636 228.142 347.636 227.458V227.41C347.636 226.762 347.99 226.378 348.488 226.378C348.872 226.378 349.148 226.552 349.208 226.972H349.91C349.826 226.108 349.172 225.796 348.476 225.796C347.6 225.796 346.892 226.426 346.892 227.422V227.47C346.892 228.472 347.576 229.06 348.476 229.06Z" fill="#8688A0"/>
<path d="M351.933 229.06C352.737 229.06 353.271 228.7 353.373 228.04H352.671C352.617 228.346 352.389 228.52 351.951 228.52C351.411 228.52 351.111 228.184 351.087 227.59H353.385V227.38C353.385 226.258 352.683 225.796 351.903 225.796C351.009 225.796 350.343 226.444 350.343 227.416V227.464C350.343 228.454 351.009 229.06 351.933 229.06ZM351.099 227.104C351.171 226.618 351.465 226.324 351.903 226.324C352.353 226.324 352.629 226.564 352.665 227.104H351.099Z" fill="#8688A0"/>
<path d="M295.433 77.1109C297.655 77.1109 299.019 75.7909 299.019 73.6129V72.8869H295.598V73.9869H297.578C297.534 75.0759 296.929 75.9669 295.455 75.9669C293.805 75.9669 293.024 74.8119 293.024 73.1289V73.0409C293.024 71.3139 293.915 70.1699 295.455 70.1699C296.478 70.1699 297.182 70.6209 297.358 71.6659H298.821C298.612 69.7849 297.116 69.0149 295.433 69.0149C293.134 69.0149 291.506 70.6869 291.506 73.0299V73.1179C291.506 75.4389 292.914 77.1109 295.433 77.1109Z" fill="#0C1142"/>
<path d="M300.354 77.0009H301.685V68.5859H300.354V77.0009Z" fill="#0C1142"/>
<path d="M305.87 77.1109C307.564 77.1109 308.829 75.9449 308.829 74.1519V74.0639C308.829 72.3039 307.564 71.1269 305.881 71.1269C304.187 71.1269 302.922 72.3149 302.922 74.0969V74.1849C302.922 75.9339 304.176 77.1109 305.87 77.1109ZM305.881 76.0769C304.869 76.0769 304.286 75.3399 304.286 74.1629V74.0749C304.286 72.8869 304.891 72.1719 305.881 72.1719C306.871 72.1719 307.465 72.8979 307.465 74.0859V74.1629C307.465 75.3399 306.871 76.0769 305.881 76.0769Z" fill="#0C1142"/>
<path d="M313.244 77.1109C314.729 77.1109 315.796 75.9889 315.796 74.1409V74.0529C315.796 72.1939 314.685 71.1269 313.244 71.1269C312.397 71.1269 311.682 71.6219 311.363 72.1719V68.5859H310.032V77.0009H311.363V76.0769C311.671 76.6599 312.331 77.1109 313.244 77.1109ZM312.914 76.0549C311.946 76.0549 311.319 75.4499 311.319 74.1629V74.0749C311.319 72.7989 311.979 72.1719 312.903 72.1719C313.772 72.1719 314.432 72.7989 314.432 74.0749V74.1629C314.432 75.3949 313.893 76.0549 312.914 76.0549Z" fill="#0C1142"/>
<path d="M318.819 76.1539C318.159 76.1539 317.895 75.8349 317.895 75.3509C317.895 74.6469 318.544 74.4159 319.556 74.4159H320.238V74.9879C320.238 75.7249 319.633 76.1539 318.819 76.1539ZM318.5 77.1109C319.38 77.1109 319.886 76.7919 320.26 76.2969V77.0009H321.569V73.2279C321.569 71.6549 320.557 71.1269 319.27 71.1269C317.983 71.1269 316.916 71.6879 316.806 73.0299H318.093C318.159 72.4579 318.5 72.1279 319.193 72.1279C319.974 72.1279 320.238 72.5129 320.238 73.2829V73.5799H319.523C317.873 73.5799 316.575 74.0639 316.575 75.4059C316.575 76.6049 317.444 77.1109 318.5 77.1109Z" fill="#0C1142"/>
<path d="M323.128 77.0009H324.459V68.5859H323.128V77.0009Z" fill="#0C1142"/>
<path d="M331.265 77.1109C332.959 77.1109 334.224 75.9449 334.224 74.1519V74.0639C334.224 72.3039 332.959 71.1269 331.276 71.1269C329.582 71.1269 328.317 72.3149 328.317 74.0969V74.1849C328.317 75.9339 329.571 77.1109 331.265 77.1109ZM331.276 76.0769C330.264 76.0769 329.681 75.3399 329.681 74.1629V74.0749C329.681 72.8869 330.286 72.1719 331.276 72.1719C332.266 72.1719 332.86 72.8979 332.86 74.0859V74.1629C332.86 75.3399 332.266 76.0769 331.276 76.0769Z" fill="#0C1142"/>
<path d="M336.719 77.0009H338.27L340.349 71.2479H339.04L337.555 75.6369L336.048 71.2479H334.618L336.719 77.0009Z" fill="#0C1142"/>
<path d="M343.65 77.1109C345.124 77.1109 346.103 76.4509 346.29 75.2409H345.003C344.904 75.8019 344.486 76.1209 343.683 76.1209C342.693 76.1209 342.143 75.5049 342.099 74.4159H346.312V74.0309C346.312 71.9739 345.025 71.1269 343.595 71.1269C341.956 71.1269 340.735 72.3149 340.735 74.0969V74.1849C340.735 75.9999 341.956 77.1109 343.65 77.1109ZM342.121 73.5249C342.253 72.6339 342.792 72.0949 343.595 72.0949C344.42 72.0949 344.926 72.5349 344.992 73.5249H342.121Z" fill="#0C1142"/>
<path d="M347.501 77.0009H348.832V74.0089C348.832 72.7879 349.536 72.4139 350.702 72.4029V71.1599C349.734 71.1709 349.195 71.5999 348.832 72.3259V71.2479H347.501V77.0009Z" fill="#0C1142"/>
<path d="M353.434 77.0009H354.985L357.064 71.2479H355.755L354.27 75.6369L352.763 71.2479H351.333L353.434 77.0009Z" fill="#0C1142"/>
<path d="M358.732 70.3019C359.172 70.3019 359.524 69.9719 359.524 69.5429C359.524 69.1029 359.172 68.7729 358.732 68.7729C358.292 68.7729 357.94 69.1029 357.94 69.5429C357.94 69.9719 358.292 70.3019 358.732 70.3019ZM358.083 77.0009H359.414V71.2479H358.083V77.0009Z" fill="#0C1142"/>
<path d="M363.566 77.1109C365.04 77.1109 366.019 76.4509 366.206 75.2409H364.919C364.82 75.8019 364.402 76.1209 363.599 76.1209C362.609 76.1209 362.059 75.5049 362.015 74.4159H366.228V74.0309C366.228 71.9739 364.941 71.1269 363.511 71.1269C361.872 71.1269 360.651 72.3149 360.651 74.0969V74.1849C360.651 75.9999 361.872 77.1109 363.566 77.1109ZM362.037 73.5249C362.169 72.6339 362.708 72.0949 363.511 72.0949C364.336 72.0949 364.842 72.5349 364.908 73.5249H362.037Z" fill="#0C1142"/>
<path d="M368.497 77.0009H369.861L371.027 73.1289L372.094 77.0009H373.447L375.251 71.2479H373.953L372.754 75.4059L371.632 71.2479H370.521L369.3 75.4059L368.156 71.2479H366.737L368.497 77.0009Z" fill="#0C1142"/>
<path d="M118.498 250.07C119.821 250.07 120.528 249.349 120.528 248.04V244.995H119.59V247.963C119.59 248.999 119.226 249.321 118.505 249.321C117.763 249.321 117.469 248.943 117.469 248.026V244.995H116.531V248.096C116.531 249.384 117.245 250.07 118.498 250.07Z" fill="black"/>
<path d="M121.528 250H122.375V247.844C122.375 247.263 122.76 246.969 123.236 246.969C123.74 246.969 123.964 247.221 123.964 247.774V250H124.811V247.697C124.811 246.689 124.293 246.262 123.558 246.262C122.956 246.262 122.55 246.563 122.375 246.92V246.339H121.528V250Z" fill="black"/>
<path d="M126.22 245.737C126.5 245.737 126.724 245.527 126.724 245.254C126.724 244.974 126.5 244.764 126.22 244.764C125.94 244.764 125.716 244.974 125.716 245.254C125.716 245.527 125.94 245.737 126.22 245.737ZM125.807 250H126.654V246.339H125.807V250Z" fill="black"/>
<path d="M128.933 250.063C129.192 250.063 129.374 250.021 129.507 249.972V249.3C129.388 249.349 129.262 249.37 129.094 249.37C128.828 249.37 128.674 249.223 128.674 248.901V246.976H129.479V246.339H128.674V245.534H127.827V246.339H127.337V246.976H127.827V248.978C127.827 249.671 128.205 250.063 128.933 250.063Z" fill="black"/>
<path d="M131.881 250.07C132.819 250.07 133.442 249.65 133.561 248.88H132.742C132.679 249.237 132.413 249.44 131.902 249.44C131.272 249.44 130.922 249.048 130.894 248.355H133.575V248.11C133.575 246.801 132.756 246.262 131.846 246.262C130.803 246.262 130.026 247.018 130.026 248.152V248.208C130.026 249.363 130.803 250.07 131.881 250.07ZM130.908 247.788C130.992 247.221 131.335 246.878 131.846 246.878C132.371 246.878 132.693 247.158 132.735 247.788H130.908Z" fill="black"/>
<path d="M135.913 249.398C135.367 249.398 134.961 249.013 134.961 248.208V248.152C134.961 247.361 135.325 246.927 135.948 246.927C136.564 246.927 136.935 247.326 136.935 248.131V248.187C136.935 249.006 136.501 249.398 135.913 249.398ZM135.703 250.07C136.242 250.07 136.711 249.748 136.907 249.384V250H137.754V244.645H136.907V246.899C136.704 246.535 136.333 246.262 135.738 246.262C134.786 246.262 134.093 247.004 134.093 248.173V248.229C134.093 249.419 134.786 250.07 135.703 250.07Z" fill="black"/>
<path d="M140.499 250H141.43V247.662L143.355 250H144.454L142.277 247.382L144.349 244.988H143.348L141.43 247.263V244.995H140.499V250Z" fill="black"/>
<path d="M145.443 245.737C145.723 245.737 145.947 245.527 145.947 245.254C145.947 244.974 145.723 244.764 145.443 244.764C145.163 244.764 144.939 244.974 144.939 245.254C144.939 245.527 145.163 245.737 145.443 245.737ZM145.03 250H145.877V246.339H145.03V250Z" fill="black"/>
<path d="M146.91 250H147.757V247.844C147.757 247.263 148.142 246.969 148.618 246.969C149.122 246.969 149.345 247.221 149.345 247.774V250H150.192V247.697C150.192 246.689 149.674 246.262 148.939 246.262C148.337 246.262 147.931 246.563 147.757 246.92V246.339H146.91V250Z" fill="black"/>
<path d="M152.757 249.202C152.211 249.202 151.791 248.782 151.791 248.103V248.047C151.791 247.382 152.155 246.927 152.785 246.927C153.394 246.927 153.772 247.34 153.772 248.033V248.082C153.772 248.782 153.345 249.202 152.757 249.202ZM152.729 251.344C153.863 251.344 154.584 250.805 154.591 249.727V246.339H153.744V246.899C153.534 246.535 153.17 246.262 152.568 246.262C151.623 246.262 150.923 247.032 150.923 248.061V248.11C150.923 249.167 151.63 249.853 152.547 249.853C153.086 249.853 153.541 249.524 153.744 249.174V249.713C153.744 250.371 153.38 250.7 152.722 250.7C152.169 250.7 151.889 250.49 151.819 250.126H150.965C151.063 250.826 151.581 251.344 152.729 251.344Z" fill="black"/>
<path d="M157.18 249.398C156.634 249.398 156.228 249.013 156.228 248.208V248.152C156.228 247.361 156.592 246.927 157.215 246.927C157.831 246.927 158.202 247.326 158.202 248.131V248.187C158.202 249.006 157.768 249.398 157.18 249.398ZM156.97 250.07C157.509 250.07 157.978 249.748 158.174 249.384V250H159.021V244.645H158.174V246.899C157.971 246.535 157.6 246.262 157.005 246.262C156.053 246.262 155.36 247.004 155.36 248.173V248.229C155.36 249.419 156.053 250.07 156.97 250.07Z" fill="black"/>
<path d="M161.659 250.07C162.737 250.07 163.542 249.328 163.542 248.187V248.131C163.542 247.011 162.737 246.262 161.666 246.262C160.588 246.262 159.783 247.018 159.783 248.152V248.208C159.783 249.321 160.581 250.07 161.659 250.07ZM161.666 249.412C161.022 249.412 160.651 248.943 160.651 248.194V248.138C160.651 247.382 161.036 246.927 161.666 246.927C162.296 246.927 162.674 247.389 162.674 248.145V248.194C162.674 248.943 162.296 249.412 161.666 249.412Z" fill="black"/>
<path d="M164.307 250H165.154V247.809C165.154 247.249 165.539 246.969 165.959 246.969C166.372 246.969 166.61 247.2 166.61 247.739V250H167.457V247.809C167.457 247.249 167.842 246.969 168.262 246.969C168.682 246.969 168.913 247.2 168.913 247.739V250H169.76V247.683C169.76 246.675 169.214 246.262 168.542 246.262C168.087 246.262 167.583 246.465 167.303 246.92C167.121 246.465 166.743 246.262 166.267 246.262C165.728 246.262 165.329 246.556 165.154 246.899V246.339H164.307V250Z" fill="black"/>
<path d="M118.498 274.07C119.821 274.07 120.528 273.349 120.528 272.04V268.995H119.59V271.963C119.59 272.999 119.226 273.321 118.505 273.321C117.763 273.321 117.469 272.943 117.469 272.026V268.995H116.531V272.096C116.531 273.384 117.245 274.07 118.498 274.07Z" fill="black"/>
<path d="M121.528 274H122.375V271.844C122.375 271.263 122.76 270.969 123.236 270.969C123.74 270.969 123.964 271.221 123.964 271.774V274H124.811V271.697C124.811 270.689 124.293 270.262 123.558 270.262C122.956 270.262 122.55 270.563 122.375 270.92V270.339H121.528V274Z" fill="black"/>
<path d="M126.22 269.737C126.5 269.737 126.724 269.527 126.724 269.254C126.724 268.974 126.5 268.764 126.22 268.764C125.94 268.764 125.716 268.974 125.716 269.254C125.716 269.527 125.94 269.737 126.22 269.737ZM125.807 274H126.654V270.339H125.807V274Z" fill="black"/>
<path d="M128.933 274.063C129.192 274.063 129.374 274.021 129.507 273.972V273.3C129.388 273.349 129.262 273.37 129.094 273.37C128.828 273.37 128.674 273.223 128.674 272.901V270.976H129.479V270.339H128.674V269.534H127.827V270.339H127.337V270.976H127.827V272.978C127.827 273.671 128.205 274.063 128.933 274.063Z" fill="black"/>
<path d="M131.881 274.07C132.819 274.07 133.442 273.65 133.561 272.88H132.742C132.679 273.237 132.413 273.44 131.902 273.44C131.272 273.44 130.922 273.048 130.894 272.355H133.575V272.11C133.575 270.801 132.756 270.262 131.846 270.262C130.803 270.262 130.026 271.018 130.026 272.152V272.208C130.026 273.363 130.803 274.07 131.881 274.07ZM130.908 271.788C130.992 271.221 131.335 270.878 131.846 270.878C132.371 270.878 132.693 271.158 132.735 271.788H130.908Z" fill="black"/>
<path d="M135.913 273.398C135.367 273.398 134.961 273.013 134.961 272.208V272.152C134.961 271.361 135.325 270.927 135.948 270.927C136.564 270.927 136.935 271.326 136.935 272.131V272.187C136.935 273.006 136.501 273.398 135.913 273.398ZM135.703 274.07C136.242 274.07 136.711 273.748 136.907 273.384V274H137.754V268.645H136.907V270.899C136.704 270.535 136.333 270.262 135.738 270.262C134.786 270.262 134.093 271.004 134.093 272.173V272.229C134.093 273.419 134.786 274.07 135.703 274.07Z" fill="black"/>
<path d="M142.34 269.758L143.075 272.082H141.598L142.34 269.758ZM140.114 274H140.989L141.381 272.761H143.292L143.691 274H144.657L143.005 268.995H141.787L140.114 274Z" fill="black"/>
<path d="M145.351 274H146.198V272.096C146.198 271.319 146.646 271.081 147.388 271.074V270.283C146.772 270.29 146.429 270.563 146.198 271.025V270.339H145.351V274Z" fill="black"/>
<path d="M149.227 273.461C148.807 273.461 148.639 273.258 148.639 272.95C148.639 272.502 149.052 272.355 149.696 272.355H150.13V272.719C150.13 273.188 149.745 273.461 149.227 273.461ZM149.024 274.07C149.584 274.07 149.906 273.867 150.144 273.552V274H150.977V271.599C150.977 270.598 150.333 270.262 149.514 270.262C148.695 270.262 148.016 270.619 147.946 271.473H148.765C148.807 271.109 149.024 270.899 149.465 270.899C149.962 270.899 150.13 271.144 150.13 271.634V271.823H149.675C148.625 271.823 147.799 272.131 147.799 272.985C147.799 273.748 148.352 274.07 149.024 274.07Z" fill="black"/>
<path d="M153.992 274.07C154.937 274.07 155.616 273.356 155.616 272.18V272.124C155.616 270.941 154.909 270.262 153.992 270.262C153.453 270.262 152.998 270.577 152.795 270.927V268.645H151.948V274H152.795V273.412C152.991 273.783 153.411 274.07 153.992 274.07ZM153.782 273.398C153.166 273.398 152.767 273.013 152.767 272.194V272.138C152.767 271.326 153.187 270.927 153.775 270.927C154.328 270.927 154.748 271.326 154.748 272.138V272.194C154.748 272.978 154.405 273.398 153.782 273.398Z" fill="black"/>
<path d="M158.115 274H161.363V273.265H159.046V271.802H160.81V271.102H159.046V269.73H161.244V268.995H158.115V274Z" fill="black"/>
<path d="M162.133 274H162.98V271.809C162.98 271.249 163.365 270.969 163.785 270.969C164.198 270.969 164.436 271.2 164.436 271.739V274H165.283V271.809C165.283 271.249 165.668 270.969 166.088 270.969C166.508 270.969 166.739 271.2 166.739 271.739V274H167.586V271.683C167.586 270.675 167.04 270.262 166.368 270.262C165.913 270.262 165.409 270.465 165.129 270.92C164.947 270.465 164.569 270.262 164.093 270.262C163.554 270.262 163.155 270.556 162.98 270.899V270.339H162.133V274Z" fill="black"/>
<path d="M168.993 269.737C169.273 269.737 169.497 269.527 169.497 269.254C169.497 268.974 169.273 268.764 168.993 268.764C168.713 268.764 168.489 268.974 168.489 269.254C168.489 269.527 168.713 269.737 168.993 269.737ZM168.58 274H169.427V270.339H168.58V274Z" fill="black"/>
<path d="M170.459 274H171.306V272.096C171.306 271.319 171.754 271.081 172.496 271.074V270.283C171.88 270.29 171.537 270.563 171.306 271.025V270.339H170.459V274Z" fill="black"/>
<path d="M174.335 273.461C173.915 273.461 173.747 273.258 173.747 272.95C173.747 272.502 174.16 272.355 174.804 272.355H175.238V272.719C175.238 273.188 174.853 273.461 174.335 273.461ZM174.132 274.07C174.692 274.07 175.014 273.867 175.252 273.552V274H176.085V271.599C176.085 270.598 175.441 270.262 174.622 270.262C173.803 270.262 173.124 270.619 173.054 271.473H173.873C173.915 271.109 174.132 270.899 174.573 270.899C175.07 270.899 175.238 271.144 175.238 271.634V271.823H174.783C173.733 271.823 172.907 272.131 172.907 272.985C172.907 273.748 173.46 274.07 174.132 274.07Z" fill="black"/>
<path d="M178.302 274.063C178.561 274.063 178.743 274.021 178.876 273.972V273.3C178.757 273.349 178.631 273.37 178.463 273.37C178.197 273.37 178.043 273.223 178.043 272.901V270.976H178.848V270.339H178.043V269.534H177.196V270.339H176.706V270.976H177.196V272.978C177.196 273.671 177.574 274.063 178.302 274.063Z" fill="black"/>
<path d="M181.25 274.07C182.188 274.07 182.811 273.65 182.93 272.88H182.111C182.048 273.237 181.782 273.44 181.271 273.44C180.641 273.44 180.291 273.048 180.263 272.355H182.944V272.11C182.944 270.801 182.125 270.262 181.215 270.262C180.172 270.262 179.395 271.018 179.395 272.152V272.208C179.395 273.363 180.172 274.07 181.25 274.07ZM180.277 271.788C180.361 271.221 180.704 270.878 181.215 270.878C181.74 270.878 182.062 271.158 182.104 271.788H180.277Z" fill="black"/>
<path d="M184.988 274.07C185.926 274.07 186.451 273.643 186.451 272.901C186.451 272.124 185.94 271.914 185.079 271.781C184.498 271.683 184.323 271.578 184.323 271.312C184.323 271.053 184.54 270.878 184.904 270.878C185.296 270.878 185.485 271.032 185.555 271.368H186.339C186.248 270.542 185.653 270.262 184.904 270.262C184.218 270.262 183.532 270.626 183.532 271.361C183.532 272.047 183.889 272.32 184.855 272.474C185.394 272.565 185.639 272.677 185.639 272.978C185.639 273.286 185.436 273.447 184.981 273.447C184.484 273.447 184.295 273.23 184.253 272.859H183.455C183.49 273.636 184.043 274.07 184.988 274.07Z" fill="black"/>
<path d="M118.275 298.068C119.381 298.068 120.116 297.389 120.116 296.521C120.116 295.52 119.507 295.184 118.331 295.023C117.463 294.897 117.295 294.694 117.295 294.288C117.295 293.903 117.589 293.63 118.156 293.63C118.73 293.63 119.031 293.854 119.122 294.379H119.976C119.878 293.42 119.234 292.93 118.156 292.93C117.113 292.93 116.413 293.546 116.413 294.365C116.413 295.303 116.98 295.667 118.177 295.828C118.989 295.961 119.22 296.136 119.22 296.598C119.22 297.06 118.828 297.368 118.275 297.368C117.428 297.368 117.225 296.948 117.162 296.444H116.266C116.336 297.389 116.91 298.068 118.275 298.068Z" fill="black"/>
<path d="M121.381 293.735C121.661 293.735 121.885 293.525 121.885 293.252C121.885 292.972 121.661 292.762 121.381 292.762C121.101 292.762 120.877 292.972 120.877 293.252C120.877 293.525 121.101 293.735 121.381 293.735ZM120.968 297.998H121.815V294.337H120.968V297.998Z" fill="black"/>
<path d="M122.847 297.998H123.694V295.842C123.694 295.261 124.079 294.967 124.555 294.967C125.059 294.967 125.283 295.219 125.283 295.772V297.998H126.13V295.695C126.13 294.687 125.612 294.26 124.877 294.26C124.275 294.26 123.869 294.561 123.694 294.918V294.337H122.847V297.998Z" fill="black"/>
<path d="M128.695 297.2C128.149 297.2 127.729 296.78 127.729 296.101V296.045C127.729 295.38 128.093 294.925 128.723 294.925C129.332 294.925 129.71 295.338 129.71 296.031V296.08C129.71 296.78 129.283 297.2 128.695 297.2ZM128.667 299.342C129.801 299.342 130.522 298.803 130.529 297.725V294.337H129.682V294.897C129.472 294.533 129.108 294.26 128.506 294.26C127.561 294.26 126.861 295.03 126.861 296.059V296.108C126.861 297.165 127.568 297.851 128.485 297.851C129.024 297.851 129.479 297.522 129.682 297.172V297.711C129.682 298.369 129.318 298.698 128.66 298.698C128.107 298.698 127.827 298.488 127.757 298.124H126.903C127.001 298.824 127.519 299.342 128.667 299.342Z" fill="black"/>
<path d="M132.698 297.459C132.278 297.459 132.11 297.256 132.11 296.948C132.11 296.5 132.523 296.353 133.167 296.353H133.601V296.717C133.601 297.186 133.216 297.459 132.698 297.459ZM132.495 298.068C133.055 298.068 133.377 297.865 133.615 297.55V297.998H134.448V295.597C134.448 294.596 133.804 294.26 132.985 294.26C132.166 294.26 131.487 294.617 131.417 295.471H132.236C132.278 295.107 132.495 294.897 132.936 294.897C133.433 294.897 133.601 295.142 133.601 295.632V295.821H133.146C132.096 295.821 131.27 296.129 131.27 296.983C131.27 297.746 131.823 298.068 132.495 298.068Z" fill="black"/>
<path d="M137.253 297.396C136.637 297.396 136.238 297.011 136.238 296.192V296.136C136.238 295.324 136.658 294.925 137.246 294.925C137.799 294.925 138.219 295.324 138.219 296.136V296.192C138.219 296.976 137.876 297.396 137.253 297.396ZM135.419 299.251H136.266V297.424C136.462 297.781 136.882 298.068 137.463 298.068C138.408 298.068 139.087 297.354 139.087 296.178V296.122C139.087 294.939 138.38 294.26 137.463 294.26C136.924 294.26 136.469 294.575 136.266 294.925V294.337H135.419V299.251Z" fill="black"/>
<path d="M141.479 298.068C142.557 298.068 143.362 297.326 143.362 296.185V296.129C143.362 295.009 142.557 294.26 141.486 294.26C140.408 294.26 139.603 295.016 139.603 296.15V296.206C139.603 297.319 140.401 298.068 141.479 298.068ZM141.486 297.41C140.842 297.41 140.471 296.941 140.471 296.192V296.136C140.471 295.38 140.856 294.925 141.486 294.925C142.116 294.925 142.494 295.387 142.494 296.143V296.192C142.494 296.941 142.116 297.41 141.486 297.41Z" fill="black"/>
<path d="M144.128 297.998H144.975V296.094C144.975 295.317 145.423 295.079 146.165 295.072V294.281C145.549 294.288 145.206 294.561 144.975 295.023V294.337H144.128V297.998Z" fill="black"/>
<path d="M148.452 298.068C149.39 298.068 150.013 297.648 150.132 296.878H149.313C149.25 297.235 148.984 297.438 148.473 297.438C147.843 297.438 147.493 297.046 147.465 296.353H150.146V296.108C150.146 294.799 149.327 294.26 148.417 294.26C147.374 294.26 146.597 295.016 146.597 296.15V296.206C146.597 297.361 147.374 298.068 148.452 298.068ZM147.479 295.786C147.563 295.219 147.906 294.876 148.417 294.876C148.942 294.876 149.264 295.156 149.306 295.786H147.479Z" fill="black"/>
<path d="M118.764 322.07C119.954 322.07 120.808 321.461 120.955 320.257H120.045C119.947 320.964 119.457 321.314 118.764 321.314C117.84 321.314 117.301 320.649 117.301 319.522V319.466C117.301 318.346 117.875 317.66 118.757 317.66C119.478 317.66 119.849 318.003 119.954 318.668H120.899C120.787 317.492 119.898 316.918 118.75 316.918C117.357 316.918 116.321 317.968 116.321 319.473V319.529C116.321 321.069 117.196 322.07 118.764 322.07Z" fill="black"/>
<path d="M121.692 322H122.539V319.844C122.539 319.263 122.924 318.969 123.4 318.969C123.904 318.969 124.128 319.221 124.128 319.774V322H124.975V319.697C124.975 318.689 124.457 318.262 123.722 318.262C123.12 318.262 122.714 318.563 122.539 318.92V316.645H121.692V322Z" fill="black"/>
<path d="M126.385 317.737C126.665 317.737 126.889 317.527 126.889 317.254C126.889 316.974 126.665 316.764 126.385 316.764C126.105 316.764 125.881 316.974 125.881 317.254C125.881 317.527 126.105 317.737 126.385 317.737ZM125.972 322H126.819V318.339H125.972V322Z" fill="black"/>
<path d="M127.851 322H128.698V319.844C128.698 319.263 129.083 318.969 129.559 318.969C130.063 318.969 130.287 319.221 130.287 319.774V322H131.134V319.697C131.134 318.689 130.616 318.262 129.881 318.262C129.279 318.262 128.873 318.563 128.698 318.92V318.339H127.851V322Z" fill="black"/>
<path d="M133.272 321.461C132.852 321.461 132.684 321.258 132.684 320.95C132.684 320.502 133.097 320.355 133.741 320.355H134.175V320.719C134.175 321.188 133.79 321.461 133.272 321.461ZM133.069 322.07C133.629 322.07 133.951 321.867 134.189 321.552V322H135.022V319.599C135.022 318.598 134.378 318.262 133.559 318.262C132.74 318.262 132.061 318.619 131.991 319.473H132.81C132.852 319.109 133.069 318.899 133.51 318.899C134.007 318.899 134.175 319.144 134.175 319.634V319.823H133.72C132.67 319.823 131.844 320.131 131.844 320.985C131.844 321.748 132.397 322.07 133.069 322.07Z" fill="black"/>
<rect x="339" y="247" width="24" height="2" rx="1" fill="#2BD4DB"/>
<rect x="204" y="247" width="120" height="2" rx="1" fill="#CECFD9"/>
<rect x="339" y="271" width="22" height="2" rx="1" fill="#2BD4DB"/>
<rect x="204" y="271" width="112" height="2" rx="1" fill="#CECFD9"/>
<rect x="339" y="296" width="18" height="2" rx="1" fill="#2BD4DB"/>
<rect x="204" y="296" width="105" height="2" rx="1" fill="#CECFD9"/>
<rect x="339" y="319" width="24" height="2" rx="1" fill="#2BD4DB"/>
<rect x="204" y="319" width="117" height="2" rx="1" fill="#CECFD9"/>
<g clip-path="url(#clip0)">
<rect x="291.5" y="88.5" width="69" height="88" rx="5.5" fill="white" stroke="#E6E7EC"/>
<path d="M304.421 107.24C303.519 107.24 302.947 106.613 302.947 105.667C302.947 104.732 303.53 104.105 304.41 104.105C305.312 104.105 305.939 104.721 305.939 105.777C305.939 106.646 305.312 107.24 304.421 107.24ZM304.322 111.101C306.346 111.101 307.49 109.66 307.49 107.075V106.668C307.49 104.402 306.478 103.016 304.421 103.016C302.628 103.016 301.506 104.105 301.506 105.711C301.506 107.262 302.595 108.263 304.113 108.263C305.048 108.263 305.686 107.867 306.049 107.273C306.027 109.066 305.422 109.968 304.3 109.968C303.453 109.968 303.09 109.572 302.947 108.956H301.572C301.759 110.309 302.716 111.101 304.322 111.101Z" fill="#0C1142"/>
<path d="M308.222 111.002H313.909V109.869H310.565L312.314 108.164C313.249 107.262 313.854 106.371 313.854 105.348C313.854 103.962 312.886 103.027 311.258 103.027C309.597 103.027 308.563 104.017 308.464 105.733H309.806C309.938 104.622 310.433 104.171 311.214 104.171C311.973 104.171 312.391 104.633 312.391 105.37C312.391 106.118 311.94 106.811 311.192 107.603L308.222 110.738V111.002Z" fill="#0C1142"/>
<path d="M315.947 111.079C316.442 111.079 316.827 110.705 316.827 110.221C316.827 109.737 316.442 109.352 315.947 109.352C315.463 109.352 315.078 109.737 315.078 110.221C315.078 110.705 315.463 111.079 315.947 111.079Z" fill="#0C1142"/>
<path d="M320.631 107.24C319.729 107.24 319.157 106.613 319.157 105.667C319.157 104.732 319.74 104.105 320.62 104.105C321.522 104.105 322.149 104.721 322.149 105.777C322.149 106.646 321.522 107.24 320.631 107.24ZM320.532 111.101C322.556 111.101 323.7 109.66 323.7 107.075V106.668C323.7 104.402 322.688 103.016 320.631 103.016C318.838 103.016 317.716 104.105 317.716 105.711C317.716 107.262 318.805 108.263 320.323 108.263C321.258 108.263 321.896 107.867 322.259 107.273C322.237 109.066 321.632 109.968 320.51 109.968C319.663 109.968 319.3 109.572 319.157 108.956H317.782C317.969 110.309 318.926 111.101 320.532 111.101Z" fill="#0C1142"/>
<path d="M324.432 111.002H330.119V109.869H326.775L328.524 108.164C329.459 107.262 330.064 106.371 330.064 105.348C330.064 103.962 329.096 103.027 327.468 103.027C325.807 103.027 324.773 104.017 324.674 105.733H326.016C326.148 104.622 326.643 104.171 327.424 104.171C328.183 104.171 328.601 104.633 328.601 105.37C328.601 106.118 328.15 106.811 327.402 107.603L324.432 110.738V111.002Z" fill="#0C1142"/>
<path d="M332.871 106.877C333.949 106.877 334.785 106.063 334.785 104.952C334.785 103.852 333.938 103.06 332.882 103.06C331.826 103.06 330.957 103.874 330.957 104.974C330.957 106.063 331.793 106.877 332.871 106.877ZM332.035 111.002H332.97L338.03 103.137H337.106L332.035 111.002ZM332.882 105.986C332.365 105.986 332.035 105.634 332.035 104.963C332.035 104.303 332.365 103.94 332.882 103.94C333.399 103.94 333.718 104.325 333.718 104.963C333.718 105.612 333.399 105.986 332.882 105.986ZM337.183 111.112C338.261 111.112 339.108 110.298 339.108 109.187C339.108 108.087 338.25 107.295 337.194 107.295C336.138 107.295 335.28 108.109 335.28 109.209C335.28 110.298 336.105 111.112 337.183 111.112ZM337.194 110.221C336.677 110.221 336.347 109.869 336.347 109.198C336.347 108.538 336.677 108.175 337.194 108.175C337.711 108.175 338.03 108.56 338.03 109.198C338.03 109.847 337.711 110.221 337.194 110.221Z" fill="#0C1142"/>
<path d="M294.58 145.334L291 141.755V177H361V149V138.966L359.02 144.439L355.44 138.966L351.86 140.796L348.28 140.264L344.7 143.545L341.12 139.071L337.54 137.58L333.96 139.369L330.38 143.545L326.8 139.369L323.22 137.281L319.64 138.773L316.06 139.966L312.48 137.766L308.9 141.755L305.32 146L301.74 144.28L298.16 145.931L294.58 145.334Z" fill="#CECFD9"/>
<path d="M326.8 139.369L327.18 139.044C327.143 139.001 327.1 138.965 327.052 138.937L326.8 139.369ZM341.12 139.071L341.51 138.759C341.458 138.693 341.39 138.642 341.312 138.609L341.12 139.071ZM305.32 146.001L305.103 146.451C305.309 146.55 305.555 146.497 305.702 146.323L305.32 146.001ZM298.16 145.931L298.078 146.424C298.177 146.441 298.278 146.427 298.369 146.385L298.16 145.931ZM294.58 145.334L294.226 145.688C294.3 145.762 294.395 145.811 294.498 145.828L294.58 145.334ZM301.74 144.281L301.957 143.83C301.822 143.765 301.666 143.764 301.531 143.826L301.74 144.281ZM308.9 141.755L308.528 141.421C308.524 141.425 308.521 141.429 308.518 141.433L308.9 141.755ZM316.06 139.966L315.798 140.392C315.924 140.469 316.078 140.487 316.218 140.44L316.06 139.966ZM312.48 137.766L312.742 137.34C312.536 137.214 312.269 137.252 312.108 137.432L312.48 137.766ZM323.22 137.281L323.472 136.85C323.337 136.771 323.172 136.76 323.028 136.82L323.22 137.281ZM319.64 138.773L319.798 139.247C319.81 139.243 319.821 139.239 319.832 139.234L319.64 138.773ZM333.96 139.369L333.736 138.922C333.677 138.952 333.624 138.993 333.58 139.044L333.96 139.369ZM330.38 143.545L330 143.87C330.095 143.981 330.234 144.045 330.38 144.045C330.526 144.045 330.665 143.981 330.76 143.87L330.38 143.545ZM337.54 137.58L337.732 137.118C337.598 137.062 337.446 137.068 337.316 137.133L337.54 137.58ZM344.7 143.545L344.31 143.857C344.396 143.965 344.524 144.033 344.662 144.043C344.8 144.054 344.936 144.007 345.038 143.914L344.7 143.545ZM355.44 138.966L355.858 138.693C355.719 138.479 355.44 138.405 355.212 138.521L355.44 138.966ZM351.86 140.796L351.787 141.291C351.89 141.306 351.995 141.289 352.088 141.241L351.86 140.796ZM348.28 140.264L348.353 139.769C348.204 139.747 348.053 139.794 347.942 139.895L348.28 140.264ZM359.02 144.44L358.602 144.713C358.702 144.867 358.878 144.953 359.06 144.938C359.243 144.923 359.403 144.81 359.477 144.643L359.02 144.44ZM290.646 142.109L294.226 145.688L294.934 144.981L291.354 141.402L290.646 142.109ZM294.498 145.828L298.078 146.424L298.242 145.438L294.662 144.841L294.498 145.828ZM298.369 146.385L301.949 144.735L301.531 143.826L297.951 145.477L298.369 146.385ZM301.523 144.731L305.103 146.451L305.537 145.55L301.957 143.83L301.523 144.731ZM305.702 146.323L309.282 142.078L308.518 141.433L304.938 145.678L305.702 146.323ZM309.272 142.089L312.852 138.1L312.108 137.432L308.528 141.421L309.272 142.089ZM312.218 138.192L315.798 140.392L316.322 139.54L312.742 137.34L312.218 138.192ZM322.968 137.713L326.548 139.801L327.052 138.937L323.472 136.85L322.968 137.713ZM316.218 140.44L319.798 139.247L319.482 138.298L315.902 139.491L316.218 140.44ZM319.832 139.234L323.412 137.743L323.028 136.82L319.448 138.311L319.832 139.234ZM326.42 139.695L330 143.87L330.76 143.219L327.18 139.044L326.42 139.695ZM330.76 143.87L334.34 139.695L333.58 139.044L330 143.219L330.76 143.87ZM334.184 139.817L337.764 138.027L337.316 137.133L333.736 138.922L334.184 139.817ZM337.348 138.041L340.928 139.533L341.312 138.609L337.732 137.118L337.348 138.041ZM340.73 139.383L344.31 143.857L345.09 143.233L341.51 138.759L340.73 139.383ZM352.088 141.241L355.668 139.412L355.212 138.521L351.632 140.351L352.088 141.241ZM345.038 143.914L348.618 140.633L347.942 139.895L344.362 143.176L345.038 143.914ZM348.207 140.759L351.787 141.291L351.933 140.301L348.353 139.769L348.207 140.759ZM355.022 139.24L358.602 144.713L359.438 144.166L355.858 138.693L355.022 139.24ZM359.477 144.643L363.057 136.59L362.143 136.184L358.563 144.237L359.477 144.643Z" fill="#0C1142"/>
<path d="M302.752 165.231H303.56V163.647H305.024V162.895H303.56V161.311H302.752V162.895H301.296V163.647H302.752V165.231Z" fill="#0C1142"/>
<path d="M305.432 165.999H309.568V165.175H307.136L308.408 163.935C309.088 163.279 309.528 162.631 309.528 161.887C309.528 160.879 308.824 160.199 307.64 160.199C306.432 160.199 305.68 160.919 305.608 162.167H306.584C306.68 161.359 307.04 161.031 307.608 161.031C308.16 161.031 308.464 161.367 308.464 161.903C308.464 162.447 308.136 162.951 307.592 163.527L305.432 165.807V165.999Z" fill="#0C1142"/>
<path d="M311.05 166.055C311.41 166.055 311.69 165.783 311.69 165.431C311.69 165.079 311.41 164.799 311.05 164.799C310.698 164.799 310.418 165.079 310.418 165.431C310.418 165.783 310.698 166.055 311.05 166.055Z" fill="#0C1142"/>
<path d="M312.292 165.999H316.428V165.175H313.996L315.268 163.935C315.948 163.279 316.388 162.631 316.388 161.887C316.388 160.879 315.684 160.199 314.5 160.199C313.292 160.199 312.54 160.919 312.468 162.167H313.444C313.54 161.359 313.9 161.031 314.468 161.031C315.02 161.031 315.324 161.367 315.324 161.903C315.324 162.447 314.996 162.951 314.452 163.527L312.292 165.807V165.999Z" fill="#0C1142"/>
<path d="M319.229 166.079C320.541 166.079 321.373 165.423 321.373 164.367C321.373 163.607 320.933 163.135 320.269 162.983C320.821 162.775 321.197 162.383 321.197 161.735C321.197 160.887 320.501 160.199 319.309 160.199C318.085 160.199 317.341 160.959 317.285 161.951H318.229C318.293 161.375 318.685 161.007 319.293 161.007C319.885 161.007 320.181 161.351 320.181 161.815C320.181 162.351 319.885 162.655 319.229 162.655H318.821V163.415H319.261C319.957 163.415 320.293 163.727 320.293 164.351C320.293 164.919 319.949 165.279 319.205 165.279C318.437 165.279 318.101 164.831 318.045 164.231H317.077C317.125 165.327 317.869 166.079 319.229 166.079Z" fill="#0C1142"/>
<path d="M323.335 162.999C324.119 162.999 324.727 162.407 324.727 161.599C324.727 160.799 324.111 160.223 323.343 160.223C322.575 160.223 321.943 160.815 321.943 161.615C321.943 162.407 322.551 162.999 323.335 162.999ZM322.727 165.999H323.407L327.087 160.279H326.415L322.727 165.999ZM323.343 162.351C322.967 162.351 322.727 162.095 322.727 161.607C322.727 161.127 322.967 160.863 323.343 160.863C323.719 160.863 323.951 161.143 323.951 161.607C323.951 162.079 323.719 162.351 323.343 162.351ZM326.471 166.079C327.255 166.079 327.871 165.487 327.871 164.679C327.871 163.879 327.247 163.303 326.479 163.303C325.711 163.303 325.087 163.895 325.087 164.695C325.087 165.487 325.687 166.079 326.471 166.079ZM326.479 165.431C326.103 165.431 325.863 165.175 325.863 164.687C325.863 164.207 326.103 163.943 326.479 163.943C326.855 163.943 327.087 164.223 327.087 164.687C327.087 165.159 326.855 165.431 326.479 165.431Z" fill="#0C1142"/>
<path d="M303.247 124.065C304.241 124.065 304.976 123.428 304.976 122.588C304.976 121.643 304.388 121.307 303.275 121.132C302.253 120.978 302.071 120.726 302.071 120.236C302.071 119.767 302.428 119.424 303.114 119.424C303.807 119.424 304.171 119.683 304.29 120.313H304.836C304.738 119.424 304.115 118.934 303.114 118.934C302.169 118.934 301.504 119.522 301.504 120.292C301.504 121.181 302.127 121.51 303.177 121.671C304.129 121.825 304.388 122.063 304.388 122.63C304.388 123.197 303.891 123.575 303.247 123.575C302.239 123.575 302.001 123.071 301.924 122.476H301.336C301.427 123.33 301.91 124.065 303.247 124.065Z" fill="#8688A0"/>
<path d="M307.181 124.065C307.769 124.065 308.175 123.764 308.343 123.421V124.002H308.924V120.341H308.343V122.56C308.343 123.218 307.853 123.561 307.335 123.561C306.761 123.561 306.488 123.274 306.488 122.63V120.341H305.907V122.658C305.907 123.666 306.453 124.065 307.181 124.065Z" fill="#8688A0"/>
<path d="M311.618 124.065C312.5 124.065 313.137 123.477 313.214 122.686H312.675C312.612 123.281 312.143 123.582 311.625 123.582C310.918 123.582 310.428 123.106 310.428 122.21V122.154C310.428 121.293 310.939 120.761 311.604 120.761C312.108 120.761 312.528 120.978 312.619 121.559H313.193C313.081 120.628 312.367 120.278 311.604 120.278C310.624 120.278 309.826 121.034 309.826 122.154V122.21C309.826 123.344 310.596 124.065 311.618 124.065Z" fill="#8688A0"/>
<path d="M315.61 124.065C316.492 124.065 317.129 123.477 317.206 122.686H316.667C316.604 123.281 316.135 123.582 315.617 123.582C314.91 123.582 314.42 123.106 314.42 122.21V122.154C314.42 121.293 314.931 120.761 315.596 120.761C316.1 120.761 316.52 120.978 316.611 121.559H317.185C317.073 120.628 316.359 120.278 315.596 120.278C314.616 120.278 313.818 121.034 313.818 122.154V122.21C313.818 123.344 314.588 124.065 315.61 124.065Z" fill="#8688A0"/>
<path d="M319.581 124.065C320.407 124.065 321.016 123.68 321.142 122.945H320.561C320.484 123.372 320.155 123.582 319.588 123.582C318.839 123.582 318.44 123.12 318.412 122.287H321.17V122.098C321.17 120.789 320.372 120.278 319.525 120.278C318.517 120.278 317.81 121.048 317.81 122.154V122.21C317.81 123.337 318.545 124.065 319.581 124.065ZM318.433 121.818C318.531 121.167 318.93 120.761 319.525 120.761C320.127 120.761 320.519 121.062 320.575 121.818H318.433Z" fill="#8688A0"/>
<path d="M323.23 124.065C324.119 124.065 324.574 123.617 324.574 122.952C324.574 122.175 324.042 122.007 323.286 121.867C322.614 121.748 322.432 121.615 322.432 121.286C322.432 120.971 322.705 120.761 323.125 120.761C323.587 120.761 323.811 120.936 323.895 121.335H324.455C324.357 120.544 323.79 120.278 323.132 120.278C322.558 120.278 321.893 120.628 321.893 121.307C321.893 121.944 322.215 122.21 323.167 122.385C323.734 122.49 324.021 122.616 324.021 123.001C324.021 123.393 323.776 123.582 323.223 123.582C322.635 123.582 322.404 123.309 322.362 122.875H321.795C321.83 123.624 322.355 124.065 323.23 124.065Z" fill="#8688A0"/>
<path d="M326.593 124.065C327.482 124.065 327.937 123.617 327.937 122.952C327.937 122.175 327.405 122.007 326.649 121.867C325.977 121.748 325.795 121.615 325.795 121.286C325.795 120.971 326.068 120.761 326.488 120.761C326.95 120.761 327.174 120.936 327.258 121.335H327.818C327.72 120.544 327.153 120.278 326.495 120.278C325.921 120.278 325.256 120.628 325.256 121.307C325.256 121.944 325.578 122.21 326.53 122.385C327.097 122.49 327.384 122.616 327.384 123.001C327.384 123.393 327.139 123.582 326.586 123.582C325.998 123.582 325.767 123.309 325.725 122.875H325.158C325.193 123.624 325.718 124.065 326.593 124.065Z" fill="#8688A0"/>
</g>
<g clip-path="url(#clip1)">
<rect x="369" y="88" width="88" height="89" rx="6" fill="#FFFFF4"/>
<path d="M382.344 111.108C384.148 111.108 385.292 110.206 385.292 108.754C385.292 107.709 384.687 107.06 383.774 106.851C384.533 106.565 385.05 106.026 385.05 105.135C385.05 103.969 384.093 103.023 382.454 103.023C380.771 103.023 379.748 104.068 379.671 105.432H380.969C381.057 104.64 381.596 104.134 382.432 104.134C383.246 104.134 383.653 104.607 383.653 105.245C383.653 105.982 383.246 106.4 382.344 106.4H381.783V107.445H382.388C383.345 107.445 383.807 107.874 383.807 108.732C383.807 109.513 383.334 110.008 382.311 110.008C381.255 110.008 380.793 109.392 380.716 108.567H379.385C379.451 110.074 380.474 111.108 382.344 111.108Z" fill="#0C1142"/>
<path d="M387.222 111.075C387.717 111.075 388.102 110.701 388.102 110.217C388.102 109.733 387.717 109.348 387.222 109.348C386.738 109.348 386.353 109.733 386.353 110.217C386.353 110.701 386.738 111.075 387.222 111.075Z" fill="#0C1142"/>
<path d="M391.858 111.108C393.552 111.108 394.751 110.063 394.751 108.402C394.751 106.752 393.75 105.762 392.331 105.762C391.495 105.762 390.945 106.07 390.637 106.422L390.648 104.288H394.3V103.133H389.526L389.46 107.511H390.208C390.56 107.104 391.044 106.829 391.847 106.829C392.716 106.829 393.266 107.434 393.266 108.38C393.266 109.348 392.749 109.975 391.847 109.975C390.835 109.975 390.538 109.469 390.417 108.743H389.053C389.141 110.096 390.01 111.108 391.858 111.108Z" fill="#0C1142"/>
<path d="M398.829 111.108C400.611 111.108 401.733 110.03 401.733 108.435C401.733 106.906 400.655 105.872 399.148 105.872C398.213 105.872 397.564 106.279 397.201 106.884C397.245 105.091 397.938 104.156 398.994 104.156C399.753 104.156 400.061 104.508 400.204 105.102H401.568C401.381 103.727 400.435 103.023 399.005 103.023C397.124 103.023 395.749 104.508 395.749 107.236V107.423C395.749 109.502 396.541 111.108 398.829 111.108ZM398.807 110.03C397.916 110.03 397.289 109.425 397.289 108.38C397.289 107.511 397.916 106.884 398.807 106.884C399.709 106.884 400.281 107.522 400.281 108.468C400.281 109.403 399.687 110.03 398.807 110.03Z" fill="#0C1142"/>
<path d="M404.425 106.873C405.503 106.873 406.339 106.059 406.339 104.948C406.339 103.848 405.492 103.056 404.436 103.056C403.38 103.056 402.511 103.87 402.511 104.97C402.511 106.059 403.347 106.873 404.425 106.873ZM403.589 110.998H404.524L409.584 103.133H408.66L403.589 110.998ZM404.436 105.982C403.919 105.982 403.589 105.63 403.589 104.959C403.589 104.299 403.919 103.936 404.436 103.936C404.953 103.936 405.272 104.321 405.272 104.959C405.272 105.608 404.953 105.982 404.436 105.982ZM408.737 111.108C409.815 111.108 410.662 110.294 410.662 109.183C410.662 108.083 409.804 107.291 408.748 107.291C407.692 107.291 406.834 108.105 406.834 109.205C406.834 110.294 407.659 111.108 408.737 111.108ZM408.748 110.217C408.231 110.217 407.901 109.865 407.901 109.194C407.901 108.534 408.231 108.171 408.748 108.171C409.265 108.171 409.584 108.556 409.584 109.194C409.584 109.843 409.265 110.217 408.748 110.217Z" fill="#0C1142"/>
<path d="M379.63 124.001H380.939C382.689 124.001 383.487 122.902 383.487 121.516V121.453C383.487 120.06 382.675 118.996 380.953 118.996H379.63V124.001ZM380.239 123.504V119.486H380.918C382.297 119.486 382.857 120.298 382.857 121.453V121.509C382.857 122.734 382.213 123.504 380.925 123.504H380.239Z" fill="#6D708E"/>
<path d="M385.96 124.064C386.786 124.064 387.395 123.679 387.521 122.944H386.94C386.863 123.371 386.534 123.581 385.967 123.581C385.218 123.581 384.819 123.119 384.791 122.286H387.549V122.097C387.549 120.788 386.751 120.277 385.904 120.277C384.896 120.277 384.189 121.047 384.189 122.153V122.209C384.189 123.336 384.924 124.064 385.96 124.064ZM384.812 121.817C384.91 121.166 385.309 120.76 385.904 120.76C386.506 120.76 386.898 121.061 386.954 121.817H384.812Z" fill="#6D708E"/>
<path d="M389.959 124.064C390.841 124.064 391.478 123.476 391.555 122.685H391.016C390.953 123.28 390.484 123.581 389.966 123.581C389.259 123.581 388.769 123.105 388.769 122.209V122.153C388.769 121.292 389.28 120.76 389.945 120.76C390.449 120.76 390.869 120.977 390.96 121.558H391.534C391.422 120.627 390.708 120.277 389.945 120.277C388.965 120.277 388.167 121.033 388.167 122.153V122.209C388.167 123.343 388.937 124.064 389.959 124.064Z" fill="#6D708E"/>
<path d="M392.447 124.001H393.035V118.59H392.447V124.001Z" fill="#6D708E"/>
<path d="M394.518 119.577C394.728 119.577 394.903 119.402 394.903 119.192C394.903 118.982 394.728 118.807 394.518 118.807C394.308 118.807 394.133 118.982 394.133 119.192C394.133 119.402 394.308 119.577 394.518 119.577ZM394.238 124.001H394.819V120.34H394.238V124.001Z" fill="#6D708E"/>
<path d="M396.008 124.001H396.589V121.782C396.589 121.124 397.072 120.781 397.611 120.781C398.199 120.781 398.472 121.068 398.472 121.712V124.001H399.053V121.754C399.053 120.69 398.521 120.277 397.765 120.277C397.163 120.277 396.757 120.578 396.589 120.921V120.34H396.008V124.001Z" fill="#6D708E"/>
<path d="M401.689 124.064C402.515 124.064 403.124 123.679 403.25 122.944H402.669C402.592 123.371 402.263 123.581 401.696 123.581C400.947 123.581 400.548 123.119 400.52 122.286H403.278V122.097C403.278 120.788 402.48 120.277 401.633 120.277C400.625 120.277 399.918 121.047 399.918 122.153V122.209C399.918 123.336 400.653 124.064 401.689 124.064ZM400.541 121.817C400.639 121.166 401.038 120.76 401.633 120.76C402.235 120.76 402.627 121.061 402.683 121.817H400.541Z" fill="#6D708E"/>
<path d="M405.612 123.581C404.996 123.581 404.499 123.14 404.499 122.216V122.16C404.499 121.271 404.933 120.76 405.661 120.76C406.375 120.76 406.823 121.201 406.823 122.139V122.195C406.823 123.133 406.291 123.581 405.612 123.581ZM405.549 124.064C406.081 124.064 406.592 123.728 406.802 123.371V124.001H407.383V118.59H406.802V120.928C406.592 120.571 406.214 120.277 405.605 120.277C404.597 120.277 403.897 121.068 403.897 122.188V122.244C403.897 123.385 404.59 124.064 405.549 124.064Z" fill="#6D708E"/>
<path d="M373.501 144.947L369 141.368V176.614H457V148.613V138.579L454.511 144.053L450.01 138.579L445.51 140.409L441.009 139.877L436.509 143.158L432.008 138.684L427.507 137.193L423.007 138.982L418.506 143.158L414.006 138.982L409.505 136.895L405.005 138.386L400.504 139.579L396.003 137.379L391.503 141.368L387.002 145.614L382.502 143.894L378.001 145.544L373.501 144.947Z" fill="#FCFCDD"/>
<path d="M413.8 138.983L414.141 138.617C414.103 138.581 414.059 138.552 414.011 138.529L413.8 138.983ZM431.72 138.684L432.073 138.331C432.018 138.276 431.952 138.234 431.878 138.21L431.72 138.684ZM386.92 145.614L386.741 146.081C386.921 146.15 387.124 146.109 387.264 145.977L386.92 145.614ZM377.96 145.544L377.894 146.04C377.975 146.051 378.057 146.042 378.133 146.013L377.96 145.544ZM373.48 144.948L373.168 145.338C373.239 145.395 373.324 145.431 373.414 145.443L373.48 144.948ZM382.44 143.894L382.619 143.427C382.506 143.384 382.381 143.383 382.267 143.425L382.44 143.894ZM391.4 141.369L391.067 140.995C391.064 140.999 391.06 141.002 391.056 141.006L391.4 141.369ZM400.36 139.579L400.14 140.028C400.248 140.081 400.372 140.093 400.489 140.062L400.36 139.579ZM395.88 137.379L396.1 136.931C395.918 136.841 395.699 136.871 395.547 137.006L395.88 137.379ZM409.32 136.895L409.531 136.442C409.415 136.388 409.283 136.38 409.162 136.42L409.32 136.895ZM404.84 138.386L404.969 138.869C404.979 138.867 404.988 138.864 404.998 138.86L404.84 138.386ZM422.76 138.983L422.575 138.518C422.517 138.541 422.464 138.575 422.419 138.617L422.76 138.983ZM418.28 143.158L417.939 143.524C418.131 143.703 418.429 143.703 418.621 143.524L418.28 143.158ZM427.24 137.193L427.398 136.719C427.286 136.681 427.164 136.685 427.055 136.729L427.24 137.193ZM436.2 143.158L435.847 143.512C436.021 143.686 436.297 143.707 436.495 143.562L436.2 143.158ZM449.64 138.58L450.027 138.263C449.888 138.093 449.654 138.034 449.451 138.117L449.64 138.58ZM445.16 140.409L445.101 140.906C445.185 140.916 445.271 140.904 445.349 140.872L445.16 140.409ZM440.68 139.877L440.739 139.381C440.613 139.366 440.487 139.399 440.385 139.474L440.68 139.877ZM454.12 144.053L453.733 144.37C453.838 144.498 454 144.566 454.165 144.551C454.329 144.536 454.476 144.441 454.557 144.296L454.12 144.053ZM368.688 141.759L373.168 145.338L373.792 144.557L369.312 140.978L368.688 141.759ZM373.414 145.443L377.894 146.04L378.026 145.049L373.546 144.452L373.414 145.443ZM378.133 146.013L382.613 144.363L382.267 143.425L377.787 145.075L378.133 146.013ZM382.261 144.361L386.741 146.081L387.099 145.147L382.619 143.427L382.261 144.361ZM387.264 145.977L391.744 141.732L391.056 141.006L386.576 145.251L387.264 145.977ZM391.733 141.742L396.213 137.753L395.547 137.006L391.067 140.995L391.733 141.742ZM395.66 137.828L400.14 140.028L400.58 139.13L396.1 136.931L395.66 137.828ZM409.109 137.348L413.589 139.436L414.011 138.529L409.531 136.442L409.109 137.348ZM400.489 140.062L404.969 138.869L404.711 137.903L400.231 139.096L400.489 140.062ZM404.998 138.86L409.478 137.369L409.162 136.42L404.682 137.912L404.998 138.86ZM413.459 139.348L417.939 143.524L418.621 142.792L414.141 138.617L413.459 139.348ZM418.621 143.524L423.101 139.348L422.419 138.617L417.939 142.792L418.621 143.524ZM422.945 139.447L427.425 137.657L427.055 136.729L422.575 138.518L422.945 139.447ZM427.082 137.667L431.562 139.159L431.878 138.21L427.398 136.719L427.082 137.667ZM431.367 139.038L435.847 143.512L436.553 142.804L432.073 138.331L431.367 139.038ZM445.349 140.872L449.829 139.043L449.451 138.117L444.971 139.946L445.349 140.872ZM436.495 143.562L440.975 140.281L440.385 139.474L435.905 142.755L436.495 143.562ZM440.621 140.374L445.101 140.906L445.219 139.913L440.739 139.381L440.621 140.374ZM449.253 138.896L453.733 144.37L454.507 143.736L450.027 138.263L449.253 138.896ZM454.557 144.296L459.037 136.243L458.163 135.757L453.683 143.81L454.557 144.296Z" fill="#E6E696"/>
<path d="M379.448 164.167H381.368V163.367H379.448V164.167Z" fill="#0C1142"/>
<path d="M383.128 165.999H384.2V160.279H383.248L381.92 161.223V162.159L383.128 161.335V165.999Z" fill="#0C1142"/>
<path d="M386.441 165.999H387.513V160.279H386.561L385.233 161.223V162.159L386.441 161.335V165.999Z" fill="#0C1142"/>
<path d="M389.363 166.055C389.723 166.055 390.003 165.783 390.003 165.431C390.003 165.079 389.723 164.799 389.363 164.799C389.011 164.799 388.731 165.079 388.731 165.431C388.731 165.783 389.011 166.055 389.363 166.055Z" fill="#0C1142"/>
<path d="M391.056 165.999H392.152L394.232 160.407V160.279H390.232V161.143H392.896L391.056 165.999Z" fill="#0C1142"/>
<path d="M396.769 163.263C396.113 163.263 395.697 162.807 395.697 162.119C395.697 161.439 396.121 160.983 396.761 160.983C397.417 160.983 397.873 161.431 397.873 162.199C397.873 162.831 397.417 163.263 396.769 163.263ZM396.697 166.071C398.169 166.071 399.001 165.023 399.001 163.143V162.847C399.001 161.199 398.265 160.191 396.769 160.191C395.465 160.191 394.649 160.983 394.649 162.151C394.649 163.279 395.441 164.007 396.545 164.007C397.225 164.007 397.689 163.719 397.953 163.287C397.937 164.591 397.497 165.247 396.681 165.247C396.065 165.247 395.801 164.959 395.697 164.511H394.697C394.833 165.495 395.529 166.071 396.697 166.071Z" fill="#0C1142"/>
<path d="M400.968 162.999C401.752 162.999 402.36 162.407 402.36 161.599C402.36 160.799 401.744 160.223 400.976 160.223C400.208 160.223 399.576 160.815 399.576 161.615C399.576 162.407 400.184 162.999 400.968 162.999ZM400.36 165.999H401.04L404.72 160.279H404.048L400.36 165.999ZM400.976 162.351C400.6 162.351 400.36 162.095 400.36 161.607C400.36 161.127 400.6 160.863 400.976 160.863C401.352 160.863 401.584 161.143 401.584 161.607C401.584 162.079 401.352 162.351 400.976 162.351ZM404.104 166.079C404.888 166.079 405.504 165.487 405.504 164.679C405.504 163.879 404.88 163.303 404.112 163.303C403.344 163.303 402.72 163.895 402.72 164.695C402.72 165.487 403.32 166.079 404.104 166.079ZM404.112 165.431C403.736 165.431 403.496 165.175 403.496 164.687C403.496 164.207 403.736 163.943 404.112 163.943C404.488 163.943 404.72 164.223 404.72 164.687C404.72 165.159 404.488 165.431 404.112 165.431Z" fill="#0C1142"/>
</g>
<g clip-path="url(#clip2)">
<rect x="96.5" y="88.5" width="178" height="88" rx="5.5" stroke="#E6E7EC"/>
<path d="M185.5 144.771L181.92 147.753L178.34 139.999L174.76 143.578L171.18 143.279L167.6 142.385L164.02 150.438L160.44 144.964L156.86 146.794L153.28 146.262L149.7 149.543L146.12 145.069L142.54 143.578L138.96 145.367L135.38 149.543L131.8 145.367L128.22 143.279L124.64 144.771L121.06 145.964L117.48 143.764L113.9 147.753L110.32 151.999L106.74 150.278L103.16 151.929L99.58 151.332L96 147.753V176.999H275V124.297L271.42 127.429L267.84 124.595L264.26 128.025L260.68 126.981L257.1 128.731L253.52 127.538L249.94 127.578L246.36 124.595L242.78 127.429L239.2 127.368L235.62 125.788L232.04 126.175L228.46 131.459L224.88 130.182L221.3 130.411L217.72 130.52L214.14 136.174L210.56 134.981L206.98 136.9L203.4 140.893L199.82 144.025L196.24 144.957L192.66 142.571L189.08 142.646L185.5 144.771Z" fill="#D5F6F8"/>
<path d="M131.8 145.367L132.18 145.042C132.143 144.999 132.1 144.963 132.052 144.935L131.8 145.367ZM146.12 145.069L146.51 144.757C146.458 144.691 146.39 144.64 146.312 144.607L146.12 145.069ZM181.92 147.753L181.466 147.963C181.531 148.104 181.658 148.207 181.81 148.241C181.962 148.275 182.121 148.237 182.24 148.137L181.92 147.753ZM185.5 144.771L185.245 144.341C185.222 144.354 185.2 144.37 185.18 144.387L185.5 144.771ZM203.4 140.893L203.729 141.27C203.744 141.256 203.759 141.242 203.772 141.227L203.4 140.893ZM224.88 130.182L225.048 129.711C224.984 129.688 224.916 129.679 224.848 129.683L224.88 130.182ZM246.36 124.595L246.68 124.211C246.498 124.06 246.235 124.056 246.05 124.203L246.36 124.595ZM110.32 151.999L110.103 152.449C110.309 152.548 110.555 152.495 110.702 152.321L110.32 151.999ZM103.16 151.929L103.078 152.422C103.177 152.439 103.278 152.425 103.369 152.383L103.16 151.929ZM99.58 151.332L99.2265 151.686C99.3002 151.76 99.395 151.808 99.4978 151.826L99.58 151.332ZM106.74 150.278L106.957 149.828C106.822 149.763 106.666 149.762 106.531 149.824L106.74 150.278ZM113.9 147.753L113.528 147.419C113.524 147.423 113.521 147.427 113.518 147.431L113.9 147.753ZM121.06 145.964L120.798 146.39C120.924 146.467 121.078 146.485 121.218 146.438L121.06 145.964ZM117.48 143.764L117.742 143.338C117.536 143.212 117.269 143.25 117.108 143.43L117.48 143.764ZM128.22 143.279L128.472 142.848C128.337 142.769 128.172 142.758 128.028 142.818L128.22 143.279ZM124.64 144.771L124.798 145.245C124.81 145.241 124.821 145.237 124.832 145.232L124.64 144.771ZM138.96 145.367L138.736 144.92C138.677 144.95 138.624 144.991 138.58 145.042L138.96 145.367ZM135.38 149.543L135 149.868C135.095 149.979 135.234 150.043 135.38 150.043C135.526 150.043 135.665 149.979 135.76 149.868L135.38 149.543ZM142.54 143.578L142.732 143.116C142.598 143.06 142.446 143.066 142.316 143.13L142.54 143.578ZM149.7 149.543L149.31 149.855C149.396 149.963 149.524 150.031 149.662 150.041C149.8 150.052 149.936 150.005 150.038 149.911L149.7 149.543ZM160.44 144.964L160.858 144.691C160.719 144.477 160.44 144.403 160.212 144.519L160.44 144.964ZM167.6 142.385L167.721 141.9C167.486 141.841 167.242 141.96 167.143 142.182L167.6 142.385ZM156.86 146.794L156.787 147.289C156.89 147.304 156.995 147.287 157.088 147.239L156.86 146.794ZM153.28 146.262L153.353 145.767C153.204 145.745 153.053 145.792 152.942 145.893L153.28 146.262ZM164.02 150.438L163.602 150.711C163.702 150.865 163.878 150.951 164.06 150.936C164.243 150.921 164.403 150.808 164.477 150.641L164.02 150.438ZM174.76 143.578L174.718 144.076C174.865 144.088 175.01 144.035 175.114 143.931L174.76 143.578ZM171.18 143.279L171.059 143.765C171.085 143.771 171.112 143.775 171.138 143.778L171.18 143.279ZM178.34 139.999L178.794 139.789C178.725 139.641 178.589 139.535 178.428 139.506C178.267 139.478 178.102 139.529 177.986 139.645L178.34 139.999ZM199.82 144.025L199.946 144.509C200.021 144.489 200.091 144.453 200.149 144.401L199.82 144.025ZM192.66 142.571L192.937 142.155C192.852 142.098 192.752 142.069 192.65 142.071L192.66 142.571ZM189.08 142.646L189.07 142.146C188.983 142.148 188.899 142.172 188.825 142.216L189.08 142.646ZM196.24 144.957L195.963 145.373C196.081 145.452 196.228 145.477 196.366 145.441L196.24 144.957ZM217.72 130.52L217.705 130.02C217.539 130.025 217.386 130.113 217.298 130.253L217.72 130.52ZM210.56 134.981L210.718 134.507C210.588 134.463 210.445 134.476 210.324 134.54L210.56 134.981ZM221.3 130.411L221.315 130.911C221.321 130.911 221.326 130.91 221.332 130.91L221.3 130.411ZM214.14 136.174L213.982 136.649C214.2 136.721 214.439 136.636 214.562 136.442L214.14 136.174ZM206.98 136.9L206.744 136.459C206.693 136.487 206.647 136.523 206.608 136.566L206.98 136.9ZM235.62 125.788L235.822 125.331C235.742 125.295 235.653 125.281 235.566 125.291L235.62 125.788ZM239.2 127.368L238.998 127.826C239.059 127.853 239.125 127.867 239.192 127.868L239.2 127.368ZM232.04 126.175L231.986 125.678C231.84 125.694 231.708 125.773 231.626 125.895L232.04 126.175ZM228.46 131.459L228.292 131.93C228.507 132.007 228.746 131.929 228.874 131.74L228.46 131.459ZM242.78 127.429L242.772 127.928C242.887 127.93 243 127.892 243.09 127.821L242.78 127.429ZM257.1 128.731L256.942 129.205C257.066 129.246 257.202 129.237 257.32 129.18L257.1 128.731ZM253.52 127.538L253.678 127.063C253.625 127.046 253.57 127.037 253.514 127.038L253.52 127.538ZM249.94 127.578L249.62 127.962C249.711 128.038 249.827 128.079 249.946 128.078L249.94 127.578ZM264.26 128.025L264.12 128.505C264.292 128.555 264.477 128.51 264.606 128.386L264.26 128.025ZM267.84 124.595L268.15 124.203C267.954 124.048 267.674 124.061 267.494 124.234L267.84 124.595ZM260.68 126.981L260.82 126.501C260.7 126.466 260.572 126.477 260.46 126.532L260.68 126.981ZM271.42 127.429L271.11 127.821C271.299 127.97 271.568 127.964 271.749 127.805L271.42 127.429ZM182.24 148.137L185.82 145.155L185.18 144.387L181.6 147.369L182.24 148.137ZM95.6465 148.107L99.2265 151.686L99.9335 150.979L96.3535 147.4L95.6465 148.107ZM99.4978 151.826L103.078 152.422L103.242 151.436L99.6622 150.839L99.4978 151.826ZM103.369 152.383L106.949 150.733L106.531 149.824L102.951 151.475L103.369 152.383ZM106.523 150.729L110.103 152.449L110.537 151.548L106.957 149.828L106.523 150.729ZM110.702 152.321L114.282 148.076L113.518 147.431L109.938 151.676L110.702 152.321ZM114.272 148.087L117.852 144.098L117.108 143.43L113.528 147.419L114.272 148.087ZM117.218 144.19L120.798 146.39L121.322 145.538L117.742 143.338L117.218 144.19ZM127.968 143.711L131.548 145.799L132.052 144.935L128.472 142.848L127.968 143.711ZM121.218 146.438L124.798 145.245L124.482 144.296L120.902 145.489L121.218 146.438ZM124.832 145.232L128.412 143.741L128.028 142.818L124.448 144.309L124.832 145.232ZM131.42 145.693L135 149.868L135.76 149.217L132.18 145.042L131.42 145.693ZM135.76 149.868L139.34 145.693L138.58 145.042L135 149.217L135.76 149.868ZM139.184 145.814L142.764 144.025L142.316 143.13L138.736 144.92L139.184 145.814ZM142.348 144.039L145.928 145.531L146.312 144.607L142.732 143.116L142.348 144.039ZM145.73 145.381L149.31 149.855L150.09 149.23L146.51 144.757L145.73 145.381ZM157.088 147.239L160.668 145.41L160.212 144.519L156.632 146.349L157.088 147.239ZM150.038 149.911L153.618 146.631L152.942 145.893L149.362 149.174L150.038 149.911ZM153.207 146.757L156.787 147.289L156.933 146.299L153.353 145.767L153.207 146.757ZM160.022 145.238L163.602 150.711L164.438 150.164L160.858 144.691L160.022 145.238ZM164.477 150.641L168.057 142.588L167.143 142.182L163.563 150.235L164.477 150.641ZM167.479 142.87L171.059 143.765L171.301 142.794L167.721 141.9L167.479 142.87ZM171.138 143.778L174.718 144.076L174.802 143.079L171.222 142.781L171.138 143.778ZM175.114 143.931L178.694 140.352L177.986 139.645L174.406 143.224L175.114 143.931ZM177.886 140.208L181.466 147.963L182.374 147.544L178.794 139.789L177.886 140.208ZM200.149 144.401L203.729 141.27L203.071 140.517L199.491 143.649L200.149 144.401ZM185.755 145.201L189.335 143.076L188.825 142.216L185.245 144.341L185.755 145.201ZM189.09 143.146L192.67 143.071L192.65 142.071L189.07 142.146L189.09 143.146ZM192.383 142.987L195.963 145.373L196.517 144.541L192.937 142.155L192.383 142.987ZM196.366 145.441L199.946 144.509L199.694 143.541L196.114 144.473L196.366 145.441ZM217.735 131.02L221.315 130.911L221.285 129.911L217.705 130.02L217.735 131.02ZM221.332 130.91L224.912 130.681L224.848 129.683L221.268 129.912L221.332 130.91ZM210.402 135.456L213.982 136.649L214.298 135.7L210.718 134.507L210.402 135.456ZM214.562 136.442L218.142 130.788L217.298 130.253L213.718 135.907L214.562 136.442ZM203.772 141.227L207.352 137.234L206.608 136.566L203.028 140.56L203.772 141.227ZM207.216 137.341L210.796 135.422L210.324 134.54L206.744 136.459L207.216 137.341ZM235.418 126.245L238.998 127.826L239.402 126.911L235.822 125.331L235.418 126.245ZM232.094 126.673L235.674 126.285L235.566 125.291L231.986 125.678L232.094 126.673ZM224.712 130.653L228.292 131.93L228.628 130.989L225.048 129.711L224.712 130.653ZM228.874 131.74L232.454 126.456L231.626 125.895L228.046 131.179L228.874 131.74ZM239.192 127.868L242.772 127.928L242.788 126.929L239.208 126.869L239.192 127.868ZM243.09 127.821L246.67 124.987L246.05 124.203L242.47 127.036L243.09 127.821ZM253.362 128.012L256.942 129.205L257.258 128.256L253.678 127.063L253.362 128.012ZM246.04 124.979L249.62 127.962L250.26 127.194L246.68 124.211L246.04 124.979ZM249.946 128.078L253.526 128.038L253.514 127.038L249.934 127.078L249.946 128.078ZM264.606 128.386L268.186 124.956L267.494 124.234L263.914 127.664L264.606 128.386ZM257.32 129.18L260.9 127.43L260.46 126.532L256.88 128.281L257.32 129.18ZM260.54 127.461L264.12 128.505L264.4 127.545L260.82 126.501L260.54 127.461ZM267.53 124.987L271.11 127.821L271.73 127.036L268.15 124.203L267.53 124.987ZM271.749 127.805L275.329 124.673L274.671 123.921L271.091 127.052L271.749 127.805Z" fill="#2BD4DB"/>
<path d="M109.969 105.159C109.969 104.609 110.387 104.18 111.146 104.092V106.259C110.178 106.061 109.969 105.731 109.969 105.159ZM113.104 108.811C113.104 109.46 112.62 109.922 111.883 110.021V107.667C112.84 107.876 113.104 108.184 113.104 108.811ZM111.146 112.485H111.883V111.099C113.5 110.989 114.457 109.966 114.457 108.679C114.457 107.194 113.511 106.644 111.883 106.38V104.125C112.554 104.235 112.895 104.62 113.016 105.291H114.314C114.182 103.927 113.302 103.19 111.883 103.058V102.057H111.146V103.047C109.65 103.146 108.671 104.059 108.671 105.28C108.671 106.677 109.518 107.271 111.146 107.546V110.021C110.101 109.889 109.859 109.284 109.771 108.569H108.407C108.517 109.9 109.265 110.967 111.146 111.099V112.485ZM119.617 111H121.091V103.135H119.782L117.956 104.433V105.72L119.617 104.587V111ZM123.664 111H125.171L128.031 103.311V103.135H122.531V104.323H126.194L123.664 111ZM128.179 112.353L129.62 109.889L128.355 109.383L127.354 111.99L128.179 112.353ZM133.323 111.11C135.127 111.11 136.271 110.208 136.271 108.756C136.271 107.711 135.666 107.062 134.753 106.853C135.512 106.567 136.029 106.028 136.029 105.137C136.029 103.971 135.072 103.025 133.433 103.025C131.75 103.025 130.727 104.07 130.65 105.434H131.948C132.036 104.642 132.575 104.136 133.411 104.136C134.225 104.136 134.632 104.609 134.632 105.247C134.632 105.984 134.225 106.402 133.323 106.402H132.762V107.447H133.367C134.324 107.447 134.786 107.876 134.786 108.734C134.786 109.515 134.313 110.01 133.29 110.01C132.234 110.01 131.772 109.394 131.695 108.569H130.364C130.43 110.076 131.453 111.11 133.323 111.11ZM140.122 111.11C141.926 111.11 143.07 110.208 143.07 108.756C143.07 107.711 142.465 107.062 141.552 106.853C142.311 106.567 142.828 106.028 142.828 105.137C142.828 103.971 141.871 103.025 140.232 103.025C138.549 103.025 137.526 104.07 137.449 105.434H138.747C138.835 104.642 139.374 104.136 140.21 104.136C141.024 104.136 141.431 104.609 141.431 105.247C141.431 105.984 141.024 106.402 140.122 106.402H139.561V107.447H140.166C141.123 107.447 141.585 107.876 141.585 108.734C141.585 109.515 141.112 110.01 140.089 110.01C139.033 110.01 138.571 109.394 138.494 108.569H137.163C137.229 110.076 138.252 111.11 140.122 111.11ZM143.797 111H149.484V109.867H146.14L147.889 108.162C148.824 107.26 149.429 106.369 149.429 105.346C149.429 103.96 148.461 103.025 146.833 103.025C145.172 103.025 144.138 104.015 144.039 105.731H145.381C145.513 104.62 146.008 104.169 146.789 104.169C147.548 104.169 147.966 104.631 147.966 105.368C147.966 106.116 147.515 106.809 146.767 107.601L143.797 110.736V111ZM151.071 112.353L152.512 109.889L151.247 109.383L150.246 111.99L151.071 112.353ZM156.243 111.11C158.025 111.11 159.147 110.032 159.147 108.437C159.147 106.908 158.069 105.874 156.562 105.874C155.627 105.874 154.978 106.281 154.615 106.886C154.659 105.093 155.352 104.158 156.408 104.158C157.167 104.158 157.475 104.51 157.618 105.104H158.982C158.795 103.729 157.849 103.025 156.419 103.025C154.538 103.025 153.163 104.51 153.163 107.238V107.425C153.163 109.504 153.955 111.11 156.243 111.11ZM156.221 110.032C155.33 110.032 154.703 109.427 154.703 108.382C154.703 107.513 155.33 106.886 156.221 106.886C157.123 106.886 157.695 107.524 157.695 108.47C157.695 109.405 157.101 110.032 156.221 110.032ZM162.849 111.11C164.543 111.11 165.742 110.065 165.742 108.404C165.742 106.754 164.741 105.764 163.322 105.764C162.486 105.764 161.936 106.072 161.628 106.424L161.639 104.29H165.291V103.135H160.517L160.451 107.513H161.199C161.551 107.106 162.035 106.831 162.838 106.831C163.707 106.831 164.257 107.436 164.257 108.382C164.257 109.35 163.74 109.977 162.838 109.977C161.826 109.977 161.529 109.471 161.408 108.745H160.044C160.132 110.098 161.001 111.11 162.849 111.11ZM170.415 111H171.834V109.405H172.89V108.316H171.834V103.135H169.997L166.521 108.888V109.405H170.415V111ZM168.083 108.316L170.437 104.246V108.316H168.083ZM174.703 111.077C175.198 111.077 175.583 110.703 175.583 110.219C175.583 109.735 175.198 109.35 174.703 109.35C174.219 109.35 173.834 109.735 173.834 110.219C173.834 110.703 174.219 111.077 174.703 111.077ZM180.201 111H181.62V109.405H182.676V108.316H181.62V103.135H179.783L176.307 108.888V109.405H180.201V111ZM177.869 108.316L180.223 104.246V108.316H177.869ZM184.865 111H186.339V103.135H185.03L183.204 104.433V105.72L184.865 104.587V111Z" fill="#0C1142"/>
<path d="M109.659 124.001H110.268V119.493H111.724V118.996H108.203V119.493H109.659V124.001Z" fill="#0C1142"/>
<path d="M113.505 124.064C114.548 124.064 115.311 123.301 115.311 122.195V122.139C115.311 121.04 114.548 120.277 113.512 120.277C112.476 120.277 111.713 121.047 111.713 122.146V122.202C111.713 123.273 112.462 124.064 113.505 124.064ZM113.512 123.581C112.77 123.581 112.315 123.035 112.315 122.202V122.146C112.315 121.306 112.777 120.76 113.512 120.76C114.24 120.76 114.709 121.306 114.709 122.153V122.202C114.709 123.028 114.247 123.581 113.512 123.581Z" fill="#0C1142"/>
<path d="M117.323 124.05C117.561 124.05 117.701 124.015 117.82 123.973V123.483C117.694 123.532 117.554 123.56 117.372 123.56C117.078 123.56 116.917 123.385 116.917 123.028V120.83H117.771V120.34H116.917V119.507H116.336V120.34H115.811V120.83H116.336V123.084C116.336 123.658 116.658 124.05 117.323 124.05Z" fill="#0C1142"/>
<path d="M119.706 123.602C119.195 123.602 119.013 123.364 119.013 122.986C119.013 122.447 119.552 122.265 120.287 122.265H120.791V122.72C120.791 123.287 120.322 123.602 119.706 123.602ZM119.65 124.064C120.189 124.064 120.518 123.882 120.791 123.539V124.001H121.372V121.586C121.372 120.564 120.735 120.277 120.035 120.277C119.328 120.277 118.663 120.585 118.586 121.418H119.167C119.223 120.97 119.503 120.76 120.007 120.76C120.567 120.76 120.791 121.005 120.791 121.586V121.852H120.266C119.328 121.852 118.432 122.139 118.432 122.986C118.432 123.735 118.971 124.064 119.65 124.064Z" fill="#0C1142"/>
<path d="M122.527 124.001H123.115V118.59H122.527V124.001Z" fill="#0C1142"/>
<path d="M127.29 124.064C128.179 124.064 128.634 123.616 128.634 122.951C128.634 122.174 128.102 122.006 127.346 121.866C126.674 121.747 126.492 121.614 126.492 121.285C126.492 120.97 126.765 120.76 127.185 120.76C127.647 120.76 127.871 120.935 127.955 121.334H128.515C128.417 120.543 127.85 120.277 127.192 120.277C126.618 120.277 125.953 120.627 125.953 121.306C125.953 121.943 126.275 122.209 127.227 122.384C127.794 122.489 128.081 122.615 128.081 123C128.081 123.392 127.836 123.581 127.283 123.581C126.695 123.581 126.464 123.308 126.422 122.874H125.855C125.89 123.623 126.415 124.064 127.29 124.064Z" fill="#0C1142"/>
<path d="M130.493 123.602C129.982 123.602 129.8 123.364 129.8 122.986C129.8 122.447 130.339 122.265 131.074 122.265H131.578V122.72C131.578 123.287 131.109 123.602 130.493 123.602ZM130.437 124.064C130.976 124.064 131.305 123.882 131.578 123.539V124.001H132.159V121.586C132.159 120.564 131.522 120.277 130.822 120.277C130.115 120.277 129.45 120.585 129.373 121.418H129.954C130.01 120.97 130.29 120.76 130.794 120.76C131.354 120.76 131.578 121.005 131.578 121.586V121.852H131.053C130.115 121.852 129.219 122.139 129.219 122.986C129.219 123.735 129.758 124.064 130.437 124.064Z" fill="#0C1142"/>
<path d="M133.314 124.001H133.902V118.59H133.314V124.001Z" fill="#0C1142"/>
<path d="M136.589 124.064C137.415 124.064 138.024 123.679 138.15 122.944H137.569C137.492 123.371 137.163 123.581 136.596 123.581C135.847 123.581 135.448 123.119 135.42 122.286H138.178V122.097C138.178 120.788 137.38 120.277 136.533 120.277C135.525 120.277 134.818 121.047 134.818 122.153V122.209C134.818 123.336 135.553 124.064 136.589 124.064ZM135.441 121.817C135.539 121.166 135.938 120.76 136.533 120.76C137.135 120.76 137.527 121.061 137.583 121.817H135.441Z" fill="#0C1142"/>
<path d="M140.238 124.064C141.127 124.064 141.582 123.616 141.582 122.951C141.582 122.174 141.05 122.006 140.294 121.866C139.622 121.747 139.44 121.614 139.44 121.285C139.44 120.97 139.713 120.76 140.133 120.76C140.595 120.76 140.819 120.935 140.903 121.334H141.463C141.365 120.543 140.798 120.277 140.14 120.277C139.566 120.277 138.901 120.627 138.901 121.306C138.901 121.943 139.223 122.209 140.175 122.384C140.742 122.489 141.029 122.615 141.029 123C141.029 123.392 140.784 123.581 140.231 123.581C139.643 123.581 139.412 123.308 139.37 122.874H138.803C138.838 123.623 139.363 124.064 140.238 124.064Z" fill="#0C1142"/>
<path d="M230 106L232.598 110.5H227.402L230 106Z" fill="#20B8BE"/>
<path d="M236.752 110.231H237.56V108.647H239.024V107.895H237.56V106.311H236.752V107.895H235.296V108.647H236.752V110.231Z" fill="#20B8BE"/>
<path d="M239.432 110.999H243.568V110.175H241.136L242.408 108.935C243.088 108.279 243.528 107.631 243.528 106.887C243.528 105.879 242.824 105.199 241.64 105.199C240.432 105.199 239.68 105.919 239.608 107.167H240.584C240.68 106.359 241.04 106.031 241.608 106.031C242.16 106.031 242.464 106.367 242.464 106.903C242.464 107.447 242.136 107.951 241.592 108.527L239.432 110.807V110.999Z" fill="#20B8BE"/>
<path d="M245.05 111.055C245.41 111.055 245.69 110.783 245.69 110.431C245.69 110.079 245.41 109.799 245.05 109.799C244.698 109.799 244.418 110.079 244.418 110.431C244.418 110.783 244.698 111.055 245.05 111.055Z" fill="#20B8BE"/>
<path d="M246.292 110.999H250.428V110.175H247.996L249.268 108.935C249.948 108.279 250.388 107.631 250.388 106.887C250.388 105.879 249.684 105.199 248.5 105.199C247.292 105.199 246.54 105.919 246.468 107.167H247.444C247.54 106.359 247.9 106.031 248.468 106.031C249.02 106.031 249.324 106.367 249.324 106.903C249.324 107.447 248.996 107.951 248.452 108.527L246.292 110.807V110.999Z" fill="#20B8BE"/>
<path d="M253.229 111.079C254.541 111.079 255.373 110.423 255.373 109.367C255.373 108.607 254.933 108.135 254.269 107.983C254.821 107.775 255.197 107.383 255.197 106.735C255.197 105.887 254.501 105.199 253.309 105.199C252.085 105.199 251.341 105.959 251.285 106.951H252.229C252.293 106.375 252.685 106.007 253.293 106.007C253.885 106.007 254.181 106.351 254.181 106.815C254.181 107.351 253.885 107.655 253.229 107.655H252.821V108.415H253.261C253.957 108.415 254.293 108.727 254.293 109.351C254.293 109.919 253.949 110.279 253.205 110.279C252.437 110.279 252.101 109.831 252.045 109.231H251.077C251.125 110.327 251.869 111.079 253.229 111.079Z" fill="#20B8BE"/>
<path d="M257.335 107.999C258.119 107.999 258.727 107.407 258.727 106.599C258.727 105.799 258.111 105.223 257.343 105.223C256.575 105.223 255.943 105.815 255.943 106.615C255.943 107.407 256.551 107.999 257.335 107.999ZM256.727 110.999H257.407L261.087 105.279H260.415L256.727 110.999ZM257.343 107.351C256.967 107.351 256.727 107.095 256.727 106.607C256.727 106.127 256.967 105.863 257.343 105.863C257.719 105.863 257.951 106.143 257.951 106.607C257.951 107.079 257.719 107.351 257.343 107.351ZM260.471 111.079C261.255 111.079 261.871 110.487 261.871 109.679C261.871 108.879 261.247 108.303 260.479 108.303C259.711 108.303 259.087 108.895 259.087 109.695C259.087 110.487 259.687 111.079 260.471 111.079ZM260.479 110.431C260.103 110.431 259.863 110.175 259.863 109.687C259.863 109.207 260.103 108.943 260.479 108.943C260.855 108.943 261.087 109.223 261.087 109.687C261.087 110.159 260.855 110.431 260.479 110.431Z" fill="#20B8BE"/>
</g>
<rect x="36" y="48.2109" width="12" height="12" transform="rotate(-45 36 48.2109)" fill="white"/>
<rect x="36" y="41.4844" width="12" height="12" transform="rotate(-45 36 41.4844)" fill="#2BD4DB"/>
<mask id="mask0" mask-type="alpha" maskUnits="userSpaceOnUse" x="96" y="266" width="12" height="12">
<rect x="96" y="266" width="12" height="12" rx="2" fill="white"/>
</mask>
<g mask="url(#mask0)">
<path d="M96 266H108V270.001H96V266Z" fill="#00732F"/>
<path d="M96 270H108V273.998H96V270Z" fill="white"/>
<path d="M96 274H108V278.001H96V274Z" fill="black"/>
<path d="M96 266H100.219V278H96V266Z" fill="#FF0000"/>
</g>
<mask id="mask1" mask-type="alpha" maskUnits="userSpaceOnUse" x="96" y="242" width="12" height="12">
<rect x="96" y="242" width="12" height="12" rx="2" fill="white"/>
</mask>
<g mask="url(#mask1)">
<path d="M90 242H114V254H90V242Z" fill="#012169"/>
<path d="M90 242V243.342L111.317 254H114V252.658L92.6832 242.002H90V242ZM114 242V243.342L92.6832 254H90V252.658L111.317 242H114Z" fill="white"/>
<path d="M100.001 242V254H103.999V242H100.001ZM90 246.001V249.999H114V246.001H90Z" fill="white"/>
<path d="M90 246.8V249.2H114V246.8H90ZM100.8 242V254H103.2V242H100.8ZM90 254L97.9992 249.999H99.792L91.788 254H90ZM90 242L97.9992 246.001H96.2112L90 242.895V242ZM104.21 246.001L112.212 242H114L106.001 246.001H104.208H104.21ZM114.002 254L105.998 249.999H107.786L114 253.105V254H114.002Z" fill="#C8102E"/>
</g>
<mask id="mask2" mask-type="alpha" maskUnits="userSpaceOnUse" x="96" y="314" width="12" height="12">
<rect x="96" y="314" width="12" height="12" rx="2" fill="white"/>
</mask>
<g mask="url(#mask2)">
<path d="M96 314H108V326H96V314Z" fill="#DE2910"/>
<path d="M100.8 316.459L97.7402 318.439L99.0002 315.199L100.08 318.439L97.2002 316.459H100.8Z" fill="#FFDE00"/>
<path d="M101.545 314.775L102.635 315.309L101.494 315.506L102.234 314.641L102.163 315.803L101.545 314.775Z" fill="#FFDE00"/>
<path d="M102.934 315.835L103.731 316.752L102.603 316.488L103.621 315.979L103.103 317.023L102.934 315.835Z" fill="#FFDE00"/>
<path d="M103.185 317.575L103.539 318.738L102.616 318.036L103.754 317.988L102.854 318.729L103.185 317.575Z" fill="#FFDE00"/>
<path d="M102.235 318.819L102.112 320.027L101.532 319.024L102.6 319.418L101.485 319.755L102.235 318.819Z" fill="#FFDE00"/>
</g>
<mask id="mask3" mask-type="alpha" maskUnits="userSpaceOnUse" x="96" y="290" width="12" height="12">
<rect x="96" y="290" width="12" height="12" rx="2" fill="white"/>
</mask>
<g mask="url(#mask3)">
<path fill-rule="evenodd" clip-rule="evenodd" d="M95.5312 290H113.531V302.001H95.5312V290Z" fill="white"/>
<path fill-rule="evenodd" clip-rule="evenodd" d="M95.5312 290H113.531V295.999H95.5312V290Z" fill="#DF0000"/>
<path fill-rule="evenodd" clip-rule="evenodd" d="M99.683 291.007C99.2093 291.108 98.785 291.37 98.4813 291.747C98.1775 292.125 98.013 292.595 98.0151 293.08C98.0173 293.564 98.1862 294.033 98.4933 294.408C98.8004 294.782 99.227 295.04 99.7016 295.137C99.3821 295.23 99.0452 295.248 98.7175 295.189C98.3898 295.131 98.0803 294.996 97.8134 294.797C97.5465 294.598 97.3295 294.34 97.1796 294.043C97.0296 293.745 96.9507 293.417 96.9492 293.084C96.9477 292.751 97.0236 292.423 97.1709 292.124C97.3182 291.825 97.5328 291.565 97.7979 291.364C98.063 291.162 98.3713 291.025 98.6984 290.963C99.0256 290.901 99.3626 290.916 99.683 291.007Z" fill="white"/>
<path fill-rule="evenodd" clip-rule="evenodd" d="M98.9519 292.749L98.6318 292.516L99.0298 292.512L99.1517 292.135L99.2787 292.512H99.6749L99.3566 292.749L99.4785 293.127L99.1551 292.895L98.8333 293.129L98.9519 292.749ZM99.3921 294.052L99.0704 293.818L99.4683 293.814L99.592 293.437L99.7173 293.813H100.115L99.7935 294.05L99.9171 294.427L99.5953 294.197L99.2736 294.431L99.3921 294.052ZM100.853 294.041L100.532 293.808L100.928 293.804L101.052 293.427L101.177 293.804H101.577L101.257 294.041L101.38 294.419L101.057 294.187L100.735 294.421L100.853 294.041ZM101.289 292.751L100.967 292.517L101.365 292.514L101.487 292.136L101.614 292.512H102.01L101.692 292.749L101.814 293.127L101.49 292.897L101.168 293.13L101.289 292.751ZM100.132 291.896L99.8104 291.662L100.208 291.659L100.332 291.281L100.457 291.659H100.855L100.533 291.896L100.657 292.272L100.335 292.042L100.014 292.275L100.132 291.896Z" fill="white"/>
</g>
<defs>
<filter id="filter0_d" x="0" y="0" width="503" height="378" filterUnits="userSpaceOnUse" color-interpolation-filters="sRGB">
<feFlood flood-opacity="0" result="BackgroundImageFix"/>
<feColorMatrix in="SourceAlpha" type="matrix" values="0 0 0 0 0 0 0 0 0 0 0 0 0 0 0 0 0 0 127 0"/>
<feOffset dy="4"/>
<feGaussianBlur stdDeviation="8"/>
<feColorMatrix type="matrix" values="0 0 0 0 0.0470588 0 0 0 0 0.0666667 0 0 0 0 0.258824 0 0 0 0.5 0"/>
<feBlend mode="normal" in2="BackgroundImageFix" result="effect1_dropShadow"/>
<feBlend mode="normal" in="SourceGraphic" in2="effect1_dropShadow" result="shape"/>
</filter>
<clipPath id="clip0">
<rect x="291" y="88" width="70" height="89" rx="6" fill="white"/>
</clipPath>
<clipPath id="clip1">
<rect x="369" y="88" width="88" height="89" rx="6" fill="white"/>
</clipPath>
<clipPath id="clip2">
<rect x="96" y="88" width="179" height="89" rx="6" fill="white"/>
</clipPath>
</defs>
</svg>
