<svg width="236" height="347" fill="none" xmlns="http://www.w3.org/2000/svg">
   <g filter="url(#a)">
      <g clip-path="url(#b)">
         <rect x="26" y="21" width="183.806" height="295.71" rx="4.774" fill="#fff"/>
         <path d="M36.369 43.731h1.33v-2.72h1c1.53 0 2.62-.67 2.62-2.18v-.04c0-1.5-1.05-2.21-2.65-2.21h-2.3v7.15Zm1.33-3.68v-2.44h.97c.85 0 1.35.33 1.35 1.18v.04c0 .79-.47 1.22-1.35 1.22h-.97Zm6.226 2.91c-.6 0-.84-.29-.84-.73 0-.64.59-.85 1.51-.85h.62v.52c0 .67-.55 1.06-1.29 1.06Zm-.29.87c.8 0 1.26-.29 1.6-.74v.64h1.19v-3.43c0-1.43-.92-1.91-2.09-1.91s-2.14.51-2.24 1.73h1.17c.06-.52.37-.82 1-.82.71 0 .95.35.95 1.05v.27h-.65c-1.5 0-2.68.44-2.68 1.66 0 1.09.79 1.55 1.75 1.55Zm4.61 1.69h1.19l2.85-7.02h-1.18l-1.28 3.37-1.39-3.37h-1.31l2.07 4.7-.95 2.32Zm4.948-1.79h1.21v-3.13c0-.8.55-1.2 1.15-1.2.59 0 .93.33.93 1.1v3.23h1.21v-3.13c0-.8.55-1.2 1.15-1.2.6 0 .93.33.93 1.1v3.23h1.21v-3.31c0-1.44-.78-2.03-1.74-2.03-.65 0-1.37.29-1.77.94-.26-.65-.8-.94-1.48-.94-.77 0-1.34.42-1.59.91v-.8h-1.21v5.23Zm11.48.1c1.34 0 2.23-.6 2.4-1.7h-1.17c-.09.51-.47.8-1.2.8-.9 0-1.4-.56-1.44-1.55h3.83v-.35c0-1.87-1.17-2.64-2.47-2.64-1.49 0-2.6 1.08-2.6 2.7v.08c0 1.65 1.11 2.66 2.65 2.66Zm-1.39-3.26c.12-.81.61-1.3 1.34-1.3.75 0 1.21.4 1.27 1.3h-2.61Zm4.89 3.16h1.21v-3.08c0-.83.55-1.25 1.23-1.25.72 0 1.04.36 1.04 1.15v3.18h1.21v-3.29c0-1.44-.74-2.05-1.79-2.05-.86 0-1.44.43-1.69.94v-.83h-1.21v5.23Zm7.864.09c.37 0 .63-.06.82-.13v-.96c-.17.07-.35.1-.59.1-.38 0-.6-.21-.6-.67v-2.75h1.15v-.91h-1.15v-1.15h-1.21v1.15h-.7v.91h.7v2.86c0 .99.54 1.55 1.58 1.55Zm6.554-.95c-.78 0-1.36-.55-1.36-1.7v-.08c0-1.13.52-1.75 1.41-1.75.88 0 1.41.57 1.41 1.72v.08c0 1.17-.62 1.73-1.46 1.73Zm-.3.96c.77 0 1.44-.46 1.72-.98v.88h1.21v-7.65h-1.21v3.22c-.29-.52-.82-.91-1.67-.91-1.36 0-2.35 1.06-2.35 2.73v.08c0 1.7.99 2.63 2.3 2.63Zm6.669 0c1.34 0 2.23-.6 2.4-1.7h-1.17c-.09.51-.47.8-1.2.8-.9 0-1.4-.56-1.44-1.55h3.83v-.35c0-1.87-1.17-2.64-2.47-2.64-1.49 0-2.6 1.08-2.6 2.7v.08c0 1.65 1.11 2.66 2.65 2.66Zm-1.39-3.26c.12-.81.61-1.3 1.34-1.3.75 0 1.21.4 1.27 1.3h-2.61Zm6.67 3.25c.37 0 .63-.06.82-.13v-.96c-.17.07-.35.1-.59.1-.38 0-.6-.21-.6-.67v-2.75h1.15v-.91h-1.15v-1.15h-1.21v1.15h-.7v.91h.7v2.86c0 .99.54 1.55 1.58 1.55Zm3.62-.86c-.6 0-.84-.29-.84-.73 0-.64.59-.85 1.51-.85h.62v.52c0 .67-.55 1.06-1.29 1.06Zm-.29.87c.8 0 1.26-.29 1.6-.74v.64h1.19v-3.43c0-1.43-.92-1.91-2.09-1.91s-2.14.51-2.24 1.73h1.17c.06-.52.37-.82 1-.82.71 0 .95.35.95 1.05v.27h-.65c-1.5 0-2.68.44-2.68 1.66 0 1.09.79 1.55 1.75 1.55Zm4.797-6.19c.4 0 .72-.3.72-.69 0-.4-.32-.7-.72-.7-.4 0-.72.3-.72.7 0 .39.32.69.72.69Zm-.59 6.09h1.21v-5.23h-1.21v5.23Zm2.715 0h1.21v-7.65h-1.21v7.65Zm4.475.1c1.34 0 2.09-.61 2.09-1.67 0-1.11-.73-1.41-1.96-1.6-.83-.14-1.08-.29-1.08-.67 0-.37.31-.62.83-.62.56 0 .83.22.93.7h1.12c-.13-1.18-.98-1.58-2.05-1.58-.98 0-1.96.52-1.96 1.57 0 .98.51 1.37 1.89 1.59.77.13 1.12.29 1.12.72 0 .44-.29.67-.94.67-.71 0-.98-.31-1.04-.84h-1.14c.05 1.11.84 1.73 2.19 1.73Z" fill="#0C1142"/>
         <g clip-path="url(#c)">
            <rect x="35.549" y="58.462" width="164.71" height="12.731" rx="2.387" fill="#fff"/>
            <g clip-path="url(#d)">
               <path d="M54.646 58.462H37.14c-.879 0-1.591.713-1.591 1.592v9.548c0 .88.712 1.592 1.591 1.592h17.506c.879 0 1.591-.713 1.591-1.592v-9.548c0-.88-.712-1.592-1.591-1.592Z" fill="#224DBA"/>
               <path d="M41.842 67.12h-1.201l-.907-3.605a.59.59 0 0 0-.263-.382 3.588 3.588 0 0 0-1.098-.374v-.143h1.95a.517.517 0 0 1 .5.453l.454 2.594 1.202-3.047h1.17l-1.807 4.504Zm2.475 0h-1.138l.931-4.504h1.138l-.931 4.504Zm2.387-3.255a.438.438 0 0 1 .47-.382 2.1 2.1 0 0 1 1.105.207l.2-.97c-.316-.131-.654-.201-.995-.207-1.098 0-1.902.62-1.902 1.487a1.456 1.456 0 0 0 .963 1.21c.438.207.605.35.573.557a.573.573 0 0 1-.669.453 2.713 2.713 0 0 1-1.17-.27l-.198.963c.39.164.81.248 1.233.246 1.17.056 1.965-.596 1.965-1.535 0-1.178-1.59-1.25-1.59-1.767l.015.008Zm5.57 3.255-.915-4.504h-.963a.5.5 0 0 0-.47.35L48.28 67.12h1.17l.23-.66h1.441l.128.66h1.026Zm-1.71-3.295.333 1.695h-.939l.605-1.695Z" fill="#fff"/>
            </g>
            <g clip-path="url(#e)">
               <path d="M78.517 58.462H61.01c-.879 0-1.591.713-1.591 1.592v9.548c0 .88.712 1.592 1.591 1.592h17.506c.879 0 1.591-.713 1.591-1.592v-9.548c0-.88-.712-1.592-1.591-1.592Z" fill="#353A48"/>
               <path d="M67.449 68.297a3.47 3.47 0 1 0 0-6.938 3.47 3.47 0 0 0 0 6.938Z" fill="#E82C30"/>
               <path d="M72.08 68.297a3.47 3.47 0 1 0 0-6.938 3.47 3.47 0 0 0 0 6.938Z" fill="#ECA21D"/>
               <path d="M69.765 61.932a3.279 3.279 0 0 0-1.36 4.424c.23.442.563.824.97 1.114l.39.254h.04a3.263 3.263 0 0 0 1.328-4.4 3.334 3.334 0 0 0-1.368-1.392Z" fill="#F36D1E"/>
            </g>
            <path d="M89.634 66.908c1.36 0 2.336-.696 2.504-2.072h-1.04c-.112.808-.672 1.208-1.464 1.208-1.056 0-1.672-.76-1.672-2.048v-.064c0-1.28.656-2.064 1.664-2.064.824 0 1.248.392 1.368 1.152h1.08c-.128-1.344-1.144-2-2.456-2-1.592 0-2.776 1.2-2.776 2.92v.064c0 1.76 1 2.904 2.792 2.904Zm3.345-.08h.968v-2.176c0-.888.512-1.16 1.36-1.168v-.904c-.704.008-1.096.32-1.36.848v-.784h-.968v4.184Zm4.942.08c1.072 0 1.784-.48 1.92-1.36h-.936c-.072.408-.376.64-.96.64-.72 0-1.12-.448-1.152-1.24h3.064v-.28c0-1.496-.936-2.112-1.976-2.112-1.192 0-2.08.864-2.08 2.16v.064c0 1.32.888 2.128 2.12 2.128ZM96.809 64.3c.096-.648.488-1.04 1.072-1.04.6 0 .968.32 1.016 1.04h-2.088Zm5.721 1.84c-.624 0-1.088-.44-1.088-1.36v-.064c0-.904.416-1.4 1.128-1.4.704 0 1.128.456 1.128 1.376v.064c0 .936-.496 1.384-1.168 1.384Zm-.24.768c.616 0 1.152-.368 1.376-.784v.704h.968v-6.12h-.968v2.576c-.232-.416-.656-.728-1.336-.728-1.088 0-1.88.848-1.88 2.184v.064c0 1.36.792 2.104 1.84 2.104Zm3.99-4.952c.32 0 .576-.24.576-.552a.56.56 0 0 0-.576-.56.56.56 0 0 0-.576.56c0 .312.256.552.576.552Zm-.472 4.872h.968v-4.184h-.968v4.184Zm3.572.072c.296 0 .504-.048.656-.104v-.768a1.19 1.19 0 0 1-.472.08c-.304 0-.48-.168-.48-.536v-2.2h.92v-.728h-.92v-.92h-.968v.92h-.56v.728h.56v2.288c0 .792.432 1.24 1.264 1.24Zm5.299.008c1.232 0 2.152-.848 2.152-2.152v-.064c0-1.28-.92-2.136-2.144-2.136-1.232 0-2.152.864-2.152 2.16v.064c0 1.272.912 2.128 2.144 2.128Zm.008-.752c-.736 0-1.16-.536-1.16-1.392V64.7c0-.864.44-1.384 1.16-1.384s1.152.528 1.152 1.392v.056c0 .856-.432 1.392-1.152 1.392Zm3.019.672h.968v-2.176c0-.888.512-1.16 1.36-1.168v-.904c-.704.008-1.096.32-1.36.848v-.784h-.968v4.184Zm5.166 0h1.72c2.008 0 2.976-1.184 2.976-2.848v-.072c0-1.664-.968-2.8-2.96-2.8h-1.736v5.72Zm1.064-.84v-4.04h.616c1.344 0 1.904.744 1.904 1.976v.064c0 1.264-.616 2-1.896 2h-.624Zm6.407.92c1.072 0 1.784-.48 1.92-1.36h-.936c-.072.408-.376.64-.96.64-.72 0-1.12-.448-1.152-1.24h3.064v-.28c0-1.496-.936-2.112-1.976-2.112-1.192 0-2.08.864-2.08 2.16v.064c0 1.32.888 2.128 2.12 2.128Zm-1.112-2.608c.096-.648.488-1.04 1.072-1.04.6 0 .968.32 1.016 1.04h-2.088Zm6.248 2.608c1.08 0 1.856-.816 1.856-2.16v-.064c0-1.352-.808-2.128-1.856-2.128-.616 0-1.136.36-1.368.76v-2.608h-.968v6.12h.968v-.672c.224.424.704.752 1.368.752Zm-.24-.768c-.704 0-1.16-.44-1.16-1.376V64.7c0-.928.48-1.384 1.152-1.384.632 0 1.112.456 1.112 1.384v.064c0 .896-.392 1.376-1.104 1.376Zm3.463-4.184c.32 0 .576-.24.576-.552a.56.56 0 0 0-.576-.56.56.56 0 0 0-.576.56c0 .312.256.552.576.552Zm-.472 4.872h.968v-4.184h-.968v4.184Zm3.572.072c.296 0 .504-.048.656-.104v-.768a1.19 1.19 0 0 1-.472.08c-.304 0-.48-.168-.48-.536v-2.2h.92v-.728h-.92v-.92h-.968v.92h-.56v.728h.56v2.288c0 .792.432 1.24 1.264 1.24Zm6.019.008c1.36 0 2.336-.696 2.504-2.072h-1.04c-.112.808-.672 1.208-1.464 1.208-1.056 0-1.672-.76-1.672-2.048v-.064c0-1.28.656-2.064 1.664-2.064.824 0 1.248.392 1.368 1.152h1.08c-.128-1.344-1.144-2-2.456-2-1.592 0-2.776 1.2-2.776 2.92v.064c0 1.76 1 2.904 2.792 2.904Zm4.713-.696c-.48 0-.672-.232-.672-.584 0-.512.472-.68 1.208-.68h.496v.416c0 .536-.44.848-1.032.848Zm-.232.696c.64 0 1.008-.232 1.28-.592v.512h.952v-2.744c0-1.144-.736-1.528-1.672-1.528-.936 0-1.712.408-1.792 1.384h.936c.048-.416.296-.656.8-.656.568 0 .76.28.76.84v.216h-.52c-1.2 0-2.144.352-2.144 1.328 0 .872.632 1.24 1.4 1.24Zm3.341-.08h.968v-2.176c0-.888.512-1.16 1.36-1.168v-.904c-.704.008-1.096.32-1.36.848v-.784h-.968v4.184Zm4.91-.688c-.624 0-1.088-.44-1.088-1.36v-.064c0-.904.416-1.4 1.128-1.4.704 0 1.128.456 1.128 1.376v.064c0 .936-.496 1.384-1.168 1.384Zm-.24.768c.616 0 1.152-.368 1.376-.784v.704h.968v-6.12h-.968v2.576c-.232-.416-.656-.728-1.336-.728-1.088 0-1.88.848-1.88 2.184v.064c0 1.36.792 2.104 1.84 2.104Z" fill="#0C1142"/>
            <circle cx="194.689" cy="64.828" r="5.57" fill="#2BD4DB"/>
            <path d="m192.301 64.828 1.591 1.591 3.581-3.58" stroke="#fff" stroke-width="1.591"/>
         </g>
         <rect x="35.947" y="81.14" width="163.914" height="21.57" rx="1.989" fill="#fff"/>
         <path d="M43.018 94.997c.872 0 1.584-.48 1.584-1.624v-4.168h-.696v4.136c0 .768-.36 1.088-.928 1.088-.344 0-.552-.072-.76-.16v.576c.152.08.368.152.8.152Zm4.663 0c1.192 0 2.064-.872 2.064-2.136v-.064c0-1.256-.872-2.128-2.056-2.128-1.184 0-2.056.88-2.056 2.136v.064c0 1.224.856 2.128 2.048 2.128Zm.008-.552c-.848 0-1.368-.624-1.368-1.576v-.064c0-.96.528-1.584 1.368-1.584.832 0 1.368.624 1.368 1.592v.056c0 .944-.528 1.576-1.368 1.576Zm3.085.48h.664v-2.536c0-.752.552-1.144 1.168-1.144.672 0 .984.328.984 1.064v2.616h.664v-2.568c0-1.216-.608-1.688-1.472-1.688-.688 0-1.152.344-1.344.736V88.74h-.664v6.184Zm4.78 0h.665v-2.536c0-.752.552-1.144 1.168-1.144.672 0 .984.328.984 1.064v2.616h.664v-2.568c0-1.216-.608-1.688-1.472-1.688-.688 0-1.152.344-1.344.736v-.664h-.664v4.184Zm6.947 0h1.496c2 0 2.912-1.256 2.912-2.84v-.072c0-1.592-.928-2.808-2.896-2.808h-1.512v5.72Zm.696-.568v-4.592h.776c1.576 0 2.216.928 2.216 2.248v.064c0 1.4-.736 2.28-2.208 2.28h-.784Zm6.563.64c1.192 0 2.064-.872 2.064-2.136v-.064c0-1.256-.872-2.128-2.056-2.128-1.184 0-2.056.88-2.056 2.136v.064c0 1.224.856 2.128 2.048 2.128Zm.008-.552c-.848 0-1.368-.624-1.368-1.576v-.064c0-.96.528-1.584 1.368-1.584.832 0 1.368.624 1.368 1.592v.056c0 .944-.528 1.576-1.368 1.576Zm4.796.552c.944 0 1.64-.44 1.784-1.28h-.664c-.088.488-.464.728-1.112.728-.856 0-1.312-.528-1.344-1.48h3.152v-.216c0-1.496-.912-2.08-1.88-2.08-1.152 0-1.96.88-1.96 2.144v.064c0 1.288.84 2.12 2.024 2.12Zm-1.312-2.568c.112-.744.568-1.208 1.248-1.208.688 0 1.136.344 1.2 1.208h-2.448Z" fill="#55587B"/>
         <rect x="35.947" y="81.14" width="163.914" height="21.57" rx="1.989" stroke="#E6E7EC" stroke-width=".796"/>
         <rect x="35.947" y="106.688" width="127.312" height="21.57" rx="1.989" fill="#fff"/>
         <path d="M45.026 120.473h.68v-1.2h.672v-.568h-.672v-3.952h-.928l-2.536 4.296v.224h2.784v1.2Zm-1.92-1.768 1.92-3.384v3.384h-1.92Zm3.94 1.768h3.833v-.568h-2.76l1.576-1.536c.704-.688 1.152-1.376 1.152-2.08 0-.984-.672-1.608-1.728-1.608-1.088 0-1.768.712-1.856 1.832h.648c.112-.896.544-1.272 1.208-1.272.648 0 1.024.384 1.024 1.024 0 .584-.304 1.104-.824 1.656l-2.272 2.392v.16Zm7.574 0h.68v-1.2h.672v-.568H55.3v-3.952h-.928l-2.536 4.296v.224h2.784v1.2Zm-1.92-1.768 1.92-3.384v3.384H52.7Zm3.94 1.768h3.833v-.568h-2.76l1.576-1.536c.704-.688 1.152-1.376 1.152-2.08 0-.984-.672-1.608-1.728-1.608-1.088 0-1.768.712-1.856 1.832h.648c.112-.896.544-1.272 1.208-1.272.648 0 1.024.384 1.024 1.024 0 .584-.304 1.104-.824 1.656l-2.272 2.392v.16Zm9.972 0h.68v-1.2h.672v-.568h-.672v-3.952h-.928l-2.536 4.296v.224h2.784v1.2Zm-1.92-1.768 1.92-3.384v3.384h-1.92Zm3.94 1.768h3.833v-.568h-2.76l1.576-1.536c.704-.688 1.152-1.376 1.152-2.08 0-.984-.672-1.608-1.728-1.608-1.088 0-1.768.712-1.856 1.832h.648c.112-.896.544-1.272 1.208-1.272.648 0 1.024.384 1.024 1.024 0 .584-.304 1.104-.824 1.656l-2.272 2.392v.16Zm7.574 0h.68v-1.2h.672v-.568h-.672v-3.952h-.928l-2.536 4.296v.224h2.784v1.2Zm-1.92-1.768 1.92-3.384v3.384h-1.92Zm3.94 1.768h3.833v-.568h-2.76l1.576-1.536c.704-.688 1.152-1.376 1.152-2.08 0-.984-.672-1.608-1.728-1.608-1.088 0-1.768.712-1.856 1.832h.648c.112-.896.544-1.272 1.208-1.272.648 0 1.024.384 1.024 1.024 0 .584-.304 1.104-.824 1.656l-2.272 2.392v.16Zm9.972 0h.68v-1.2h.672v-.568h-.672v-3.952h-.928l-2.536 4.296v.224h2.784v1.2Zm-1.92-1.768 1.92-3.384v3.384h-1.92Zm3.94 1.768h3.833v-.568h-2.76l1.576-1.536c.704-.688 1.152-1.376 1.152-2.08 0-.984-.672-1.608-1.728-1.608-1.088 0-1.768.712-1.856 1.832h.648c.112-.896.544-1.272 1.208-1.272.648 0 1.024.384 1.024 1.024 0 .584-.304 1.104-.824 1.656l-2.272 2.392v.16Zm7.574 0h.68v-1.2h.672v-.568h-.672v-3.952h-.928l-2.536 4.296v.224h2.784v1.2Zm-1.92-1.768 1.92-3.384v3.384h-1.92Zm3.94 1.768h3.833v-.568h-2.76l1.576-1.536c.704-.688 1.152-1.376 1.152-2.08 0-.984-.672-1.608-1.728-1.608-1.088 0-1.768.712-1.856 1.832h.648c.112-.896.544-1.272 1.208-1.272.648 0 1.024.384 1.024 1.024 0 .584-.304 1.104-.824 1.656l-2.272 2.392v.16Zm9.972 0h.68v-1.2h.672v-.568h-.672v-3.952h-.928L107 119.049v.224h2.784v1.2Zm-1.92-1.768 1.92-3.384v3.384h-1.92Zm3.941 1.768h3.832v-.568h-2.76l1.576-1.536c.704-.688 1.152-1.376 1.152-2.08 0-.984-.672-1.608-1.728-1.608-1.088 0-1.768.712-1.856 1.832h.648c.112-.896.544-1.272 1.208-1.272.648 0 1.024.384 1.024 1.024 0 .584-.304 1.104-.824 1.656l-2.272 2.392v.16Zm7.573 0h.68v-1.2h.672v-.568h-.672v-3.952h-.928l-2.536 4.296v.224h2.784v1.2Zm-1.92-1.768 1.92-3.384v3.384h-1.92Zm3.941 1.768h3.832v-.568h-2.76l1.576-1.536c.704-.688 1.152-1.376 1.152-2.08 0-.984-.672-1.608-1.728-1.608-1.088 0-1.768.712-1.856 1.832h.648c.112-.896.544-1.272 1.208-1.272.648 0 1.024.384 1.024 1.024 0 .584-.304 1.104-.824 1.656l-2.272 2.392v.16ZM136.303 120.545c1.232 0 1.96-.824 1.96-2.424v-1.04c0-1.568-.736-2.4-1.976-2.4-1.224 0-2.008.832-2.008 2.456v1c0 1.6.824 2.408 2.024 2.408Zm0-.576c-.84 0-1.312-.504-1.312-1.84v-1c0-1.296.432-1.888 1.296-1.888.856 0 1.272.608 1.272 1.832v1.04c0 1.336-.36 1.856-1.256 1.856Zm4.669.576c1.088 0 1.96-.736 1.96-1.944 0-1.168-.752-1.896-1.776-1.896-.544 0-.936.176-1.168.392v-1.744h2.64v-.6h-3.216v3.064h.256c.304-.344.688-.552 1.352-.552.728 0 1.2.528 1.2 1.336 0 .864-.48 1.384-1.256 1.384-.872 0-1.12-.432-1.232-1.056h-.664c.08.936.672 1.616 1.904 1.616Zm2.541 1.112h.608l2.328-7.392h-.608l-2.328 7.392Zm3.514-1.184h3.832v-.568h-2.76l1.576-1.536c.704-.688 1.152-1.376 1.152-2.08 0-.984-.672-1.608-1.728-1.608-1.088 0-1.768.712-1.856 1.832h.648c.112-.896.544-1.272 1.208-1.272.648 0 1.024.384 1.024 1.024 0 .584-.304 1.104-.824 1.656l-2.272 2.392v.16Zm6.765.072c1.088 0 1.96-.736 1.96-1.944 0-1.168-.752-1.896-1.776-1.896-.544 0-.936.176-1.168.392v-1.744h2.64v-.6h-3.216v3.064h.256c.304-.344.688-.552 1.352-.552.728 0 1.2.528 1.2 1.336 0 .864-.48 1.384-1.256 1.384-.872 0-1.12-.432-1.232-1.056h-.664c.08.936.672 1.616 1.904 1.616Z" fill="#55587B"/>
         <rect x="35.947" y="106.688" width="127.312" height="21.57" rx="1.989" stroke="#E6E7EC" stroke-width=".796"/>
         <rect x="168.829" y="106.688" width="31.032" height="21.484" rx="1.989" fill="#fff"/>
         <path d="M177.582 119.538c1.145 0 1.962-.58 2.141-1.762h-.58c-.129.831-.709 1.253-1.547 1.253-1.103 0-1.762-.788-1.762-2.091v-.057c0-1.289.709-2.113 1.769-2.113.874 0 1.325.401 1.454 1.182h.616c-.108-1.11-1.01-1.676-2.077-1.676-1.389 0-2.406 1.096-2.406 2.614v.057c0 1.576.909 2.593 2.392 2.593Zm4.33-.065h.745l1.769-5.12h-.588l-1.525 4.519-1.525-4.519h-.616l1.74 5.12Zm4.686 0h.744l1.769-5.12h-.587l-1.525 4.519-1.526-4.519h-.615l1.74 5.12Z" fill="#B6B8C6"/>
         <rect x="168.829" y="106.688" width="31.032" height="21.484" rx="1.989" stroke="#E6E7EC" stroke-width=".796"/>
         <g clip-path="url(#f)">
            <rect x="35.549" y="141.387" width="164.71" height="124.129" rx="2.387" fill="#fff"/>
            <g clip-path="url(#g)">
               <path d="M37.14 141.387h17.506c.875 0 1.591.716 1.591 1.591v9.549c0 .875-.716 1.591-1.591 1.591H37.14a1.596 1.596 0 0 1-1.591-1.591v-9.549c0-.875.716-1.591 1.591-1.591Z" fill="#EB6F93"/>
               <path d="M48.757 143.774h-1.83c0 1.432-.716 2.785-1.83 3.66l-.716.557 2.785 3.74h2.228l-2.547-3.421c1.274-1.194 1.91-2.785 1.91-4.536ZM44.143 143.774h-1.83v7.957h1.83v-7.957ZM50.587 149.662c-.557 0-1.034.478-1.034 1.035 0 .557.477 1.034 1.034 1.034s1.035-.477 1.035-1.034-.478-1.035-1.035-1.035Z" fill="#fff"/>
            </g>
            <path d="M63.258 149.978h1.065v-2.672l2.2 2.672h1.255l-2.488-2.992 2.368-2.736h-1.144l-2.191 2.6v-2.592h-1.064v5.72Zm5.218 0h.968v-6.12h-.968v6.12Zm3.476-.616c-.48 0-.672-.232-.672-.584 0-.512.472-.68 1.208-.68h.496v.416c0 .536-.44.848-1.032.848Zm-.232.696c.64 0 1.008-.232 1.28-.592v.512h.952v-2.744c0-1.144-.736-1.528-1.672-1.528-.936 0-1.712.408-1.792 1.384h.936c.048-.416.296-.656.8-.656.568 0 .76.28.76.84v.216h-.52c-1.2 0-2.144.352-2.144 1.328 0 .872.632 1.24 1.4 1.24Zm3.341-.08h.968v-2.176c0-.888.512-1.16 1.36-1.168v-.904c-.704.008-1.096.32-1.36.848v-.784h-.968v4.184Zm3.18 0h.968v-2.464c0-.664.44-1 .984-1 .576 0 .832.288.832.92v2.544h.968v-2.632c0-1.152-.592-1.64-1.432-1.64-.688 0-1.152.344-1.352.752v-.664h-.968v4.184Zm6.195-.616c-.48 0-.672-.232-.672-.584 0-.512.472-.68 1.208-.68h.496v.416c0 .536-.44.848-1.032.848Zm-.232.696c.64 0 1.008-.232 1.28-.592v.512h.952v-2.744c0-1.144-.736-1.528-1.672-1.528-.936 0-1.712.408-1.792 1.384h.936c.048-.416.296-.656.8-.656.568 0 .76.28.76.84v.216h-.52c-1.2 0-2.144.352-2.144 1.328 0 .872.632 1.24 1.4 1.24Z" fill="#0C1142"/>
            <circle cx="194.689" cy="147.753" r="5.172" stroke="#E6E7EC" stroke-width=".796"/>
            <g clip-path="url(#h)">
               <path d="M54.646 163.667H37.14c-.879 0-1.591.712-1.591 1.591v9.548c0 .879.712 1.592 1.591 1.592h17.506c.879 0 1.591-.713 1.591-1.592v-9.548c0-.879-.712-1.591-1.591-1.591Z" fill="#2464B4"/>
               <path d="M48.79 169.388c0 .151 0 .31-.048.469a1.965 1.965 0 0 1-2.164 1.719h-.168a.27.27 0 0 0-.262.231l-.255 1.472a.263.263 0 0 1-.262.222h-.796a.183.183 0 0 1-.183-.183l.445-2.594h.621a2.528 2.528 0 0 0 2.753-2.204 1.188 1.188 0 0 1 .318.868Zm-4.122 1.225a.332.332 0 0 1 .334-.342h.724a2.093 2.093 0 0 0 2.324-1.83c.23-1.194-.613-1.862-1.751-1.862h-2.124a.311.311 0 0 0-.303.262c-.66 4.289-.86 5.379-.875 5.714a.172.172 0 0 0 .008.071.17.17 0 0 0 .096.105c.022.01.047.015.07.015h1.17l.327-2.133Z" fill="#fff"/>
            </g>
            <path d="M63.258 172.258h1.065v-2.176h.8c1.224 0 2.096-.536 2.096-1.744v-.032c0-1.2-.84-1.768-2.12-1.768h-1.84v5.72Zm1.065-2.944v-1.952h.776c.68 0 1.08.264 1.08.944v.032c0 .632-.377.976-1.08.976h-.776Zm4.98 2.328c-.48 0-.672-.232-.672-.584 0-.512.472-.68 1.208-.68h.496v.416c0 .536-.44.848-1.032.848Zm-.232.696c.64 0 1.008-.232 1.28-.592v.512h.952v-2.744c0-1.144-.736-1.528-1.672-1.528-.936 0-1.712.408-1.792 1.384h.936c.048-.416.296-.656.8-.656.568 0 .76.28.76.84v.216h-.52c-1.2 0-2.144.352-2.144 1.328 0 .872.632 1.24 1.4 1.24Zm3.689 1.352h.952l2.28-5.616h-.944l-1.024 2.696-1.112-2.696h-1.048l1.656 3.76-.76 1.856Zm6.054-2.12c-.704 0-1.16-.44-1.16-1.376v-.064c0-.928.48-1.384 1.152-1.384.632 0 1.112.456 1.112 1.384v.064c0 .896-.392 1.376-1.104 1.376Zm-2.096 2.12h.968v-2.088c.224.408.704.736 1.368.736 1.08 0 1.856-.816 1.856-2.16v-.064c0-1.352-.808-2.128-1.856-2.128-.616 0-1.136.36-1.368.76v-.672h-.968v5.616Zm6.39-2.048c-.48 0-.672-.232-.672-.584 0-.512.472-.68 1.208-.68h.496v.416c0 .536-.44.848-1.032.848Zm-.232.696c.64 0 1.008-.232 1.28-.592v.512h.952v-2.744c0-1.144-.736-1.528-1.672-1.528-.936 0-1.712.408-1.792 1.384h.936c.048-.416.296-.656.8-.656.568 0 .76.28.76.84v.216h-.52c-1.2 0-2.144.352-2.144 1.328 0 .872.632 1.24 1.4 1.24Zm3.366-.08h.968v-6.12h-.968v6.12Z" fill="#0C1142"/>
            <circle cx="194.689" cy="170.032" r="5.172" stroke="#E6E7EC" stroke-width=".796"/>
            <g clip-path="url(#i)">
               <path d="M54.646 185.946H37.14c-.879 0-1.591.713-1.591 1.592v9.548c0 .879.712 1.591 1.591 1.591h17.506c.879 0 1.591-.712 1.591-1.591v-9.548c0-.879-.712-1.592-1.591-1.592Z" fill="#EEE"/>
               <path fill-rule="evenodd" clip-rule="evenodd" d="M45.534 190.03v1.607h.956a.798.798 0 0 0 .743-.508.754.754 0 0 0 .047-.309.884.884 0 0 0-.216-.571.701.701 0 0 0-.574-.248l-.953.029h-.003Zm0 2.178v1.88h-.571v-4.629h1.498a1.39 1.39 0 0 1 1.286.856 1.386 1.386 0 0 1-.306 1.514 1.312 1.312 0 0 1-.98.379h-.927ZM48.423 193.135a.434.434 0 0 0 .19.382.68.68 0 0 0 .437.163.777.777 0 0 0 .343-.061.779.779 0 0 0 .284-.202.897.897 0 0 0 .263-.656 1.248 1.248 0 0 0-.734-.216.936.936 0 0 0-.572.163.53.53 0 0 0-.218.435l.007-.008Zm.727-2.307a1.399 1.399 0 0 1 1.027.345 1.26 1.26 0 0 1 .353.953v1.962h-.556v-.434h-.026a1.1 1.1 0 0 1-.927.545 1.278 1.278 0 0 1-.843-.3 1.03 1.03 0 0 1-.326-.764.952.952 0 0 1 .353-.79c.273-.207.61-.313.953-.3.294-.014.587.052.846.192v-.137a.636.636 0 0 0-.245-.527.817.817 0 0 0-.546-.216.875.875 0 0 0-.764.406l-.49-.316a1.315 1.315 0 0 1 1.2-.627M53.65 190.918l-1.907 4.577h-.572l.709-1.609-1.254-2.968h.6l.898 2.288h.03l.871-2.288h.624Z" fill="#5F6369"/>
               <path fill-rule="evenodd" clip-rule="evenodd" d="M43.244 191.821a3.436 3.436 0 0 0-.056-.545h-2.396v1.035h1.361a1.26 1.26 0 0 1-.526.816v.656h.819a2.642 2.642 0 0 0 .79-1.962" fill="#547DBE"/>
               <path fill-rule="evenodd" clip-rule="evenodd" d="M40.792 194.41a2.405 2.405 0 0 0 1.688-.656l-.816-.653a1.443 1.443 0 0 1-.872.245 1.515 1.515 0 0 1-1.411-1.09h-.85v.682a2.528 2.528 0 0 0 2.261 1.472Z" fill="#34A751"/>
               <path fill-rule="evenodd" clip-rule="evenodd" d="M39.38 192.256a1.561 1.561 0 0 1-.08-.527c-.002-.179.026-.357.08-.527v-.661h-.85a2.78 2.78 0 0 0 0 2.397l.85-.682Z" fill="#F7BA16"/>
               <path fill-rule="evenodd" clip-rule="evenodd" d="M40.793 190.159a1.347 1.347 0 0 1 .98.408l.735-.763a2.31 2.31 0 0 0-1.688-.674 2.525 2.525 0 0 0-2.262 1.469l.845.682a1.451 1.451 0 0 1 1.39-1.116" fill="#E84334"/>
            </g>
            <path d="M65.826 194.618c1.617 0 2.609-.96 2.609-2.544v-.528h-2.489v.8h1.44c-.031.792-.471 1.44-1.543 1.44-1.2 0-1.769-.84-1.769-2.064v-.064c0-1.256.648-2.088 1.769-2.088.743 0 1.255.328 1.383 1.088h1.064c-.152-1.368-1.24-1.928-2.464-1.928-1.671 0-2.855 1.216-2.855 2.92v.064c0 1.688 1.024 2.904 2.855 2.904Zm5.42 0c1.232 0 2.152-.848 2.152-2.152v-.064c0-1.28-.92-2.136-2.144-2.136-1.232 0-2.152.864-2.152 2.16v.064c0 1.272.912 2.128 2.144 2.128Zm.008-.752c-.736 0-1.16-.536-1.16-1.392v-.064c0-.864.44-1.384 1.16-1.384s1.152.528 1.152 1.392v.056c0 .856-.432 1.392-1.152 1.392Zm4.882.752c1.232 0 2.152-.848 2.152-2.152v-.064c0-1.28-.92-2.136-2.144-2.136-1.232 0-2.152.864-2.152 2.16v.064c0 1.272.912 2.128 2.144 2.128Zm.008-.752c-.736 0-1.16-.536-1.16-1.392v-.064c0-.864.44-1.384 1.16-1.384s1.152.528 1.152 1.392v.056c0 .856-.432 1.392-1.152 1.392Zm4.835-.24c-.624 0-1.104-.48-1.104-1.256v-.064c0-.76.416-1.28 1.136-1.28.696 0 1.128.472 1.128 1.264v.056c0 .8-.488 1.28-1.16 1.28Zm-.032 2.448c1.296 0 2.12-.616 2.128-1.848v-3.872h-.968v.64c-.24-.416-.656-.728-1.344-.728-1.08 0-1.88.88-1.88 2.056v.056c0 1.208.808 1.992 1.856 1.992a1.63 1.63 0 0 0 1.368-.776v.616c0 .752-.416 1.128-1.168 1.128-.632 0-.952-.24-1.032-.656h-.976c.112.8.704 1.392 2.016 1.392Zm3.302-1.536h.968v-6.12h-.968v6.12Zm3.988.08c1.072 0 1.784-.48 1.92-1.36h-.936c-.072.408-.376.64-.96.64-.72 0-1.12-.448-1.152-1.24h3.064v-.28c0-1.496-.936-2.112-1.976-2.112-1.192 0-2.08.864-2.08 2.16v.064c0 1.32.888 2.128 2.12 2.128Zm-1.112-2.608c.096-.648.488-1.04 1.072-1.04.6 0 .968.32 1.016 1.04h-2.088Zm5.9 2.528h1.063v-2.176h.8c1.224 0 2.096-.536 2.096-1.744v-.032c0-1.2-.84-1.768-2.12-1.768h-1.84v5.72Zm1.063-2.944v-1.952h.776c.68 0 1.08.264 1.08.944v.032c0 .632-.376.976-1.08.976h-.776Zm4.981 2.328c-.48 0-.672-.232-.672-.584 0-.512.472-.68 1.208-.68h.496v.416c0 .536-.44.848-1.032.848Zm-.232.696c.64 0 1.008-.232 1.28-.592v.512h.952v-2.744c0-1.144-.736-1.528-1.672-1.528-.936 0-1.712.408-1.792 1.384h.936c.048-.416.296-.656.8-.656.568 0 .76.28.76.84v.216h-.52c-1.2 0-2.144.352-2.144 1.328 0 .872.632 1.24 1.4 1.24Zm3.688 1.352h.952l2.28-5.616h-.944l-1.024 2.696-1.112-2.696h-1.048l1.656 3.76-.76 1.856Z" fill="#0C1142"/>
            <circle cx="194.689" cy="192.312" r="5.172" stroke="#E6E7EC" stroke-width=".796"/>
            <g clip-path="url(#j)">
               <path d="M54.646 208.226H37.14c-.879 0-1.591.712-1.591 1.591v9.549c0 .878.712 1.591 1.591 1.591h17.506c.879 0 1.591-.713 1.591-1.591v-9.549c0-.879-.712-1.591-1.591-1.591Z" fill="#000"/>
               <path d="M42.225 214.591a1.19 1.19 0 0 0 .796 1.09 2.726 2.726 0 0 1-.398.796 1.202 1.202 0 0 1-.867.669c-.374 0-.502-.215-.931-.215-.43 0-.573.207-.931.223a1.27 1.27 0 0 1-.891-.685 2.718 2.718 0 0 1-.366-2.729 1.408 1.408 0 0 1 1.145-.74c.316.056.627.133.931.231a4.617 4.617 0 0 1 1.09-.231 1.34 1.34 0 0 1 1.035.533 1.23 1.23 0 0 0-.613 1.058Zm-.716-2.013a1.16 1.16 0 0 0 .294-.867 1.31 1.31 0 0 0-.835.414 1.102 1.102 0 0 0-.294.795 1.06 1.06 0 0 0 .795-.382M44.373 212.204l.485-.071h.59c.268-.006.536.028.795.103.198.064.382.167.541.302.12.121.215.264.279.422.073.173.109.361.103.549.008.23-.039.459-.135.669a1.496 1.496 0 0 1-.382.477c-.173.133-.37.23-.581.286a2.268 2.268 0 0 1-.732.096c-.2.008-.4-.008-.597-.048v2.101h-.358v-4.886h-.008Zm.366 2.387c.094.027.19.046.287.056h.342c.377.025.75-.082 1.058-.302a1.099 1.099 0 0 0 .374-.899 1.299 1.299 0 0 0-.111-.446.792.792 0 0 0-.287-.35 1.191 1.191 0 0 0-.43-.207 2.182 2.182 0 0 0-.557-.072 3.57 3.57 0 0 0-.413 0 1.848 1.848 0 0 0-.279 0v2.22h.016Zm5.26 1.592v.421c0 .137.016.273.047.406h-.334l-.056-.493c-.05.073-.108.14-.175.199a1.214 1.214 0 0 1-.246.191c-.1.058-.207.103-.319.135a1.602 1.602 0 0 1-.39.048 1.121 1.121 0 0 1-.46-.08.931.931 0 0 1-.335-.223.791.791 0 0 1-.191-.31 1.082 1.082 0 0 1 .477-1.305 3.122 3.122 0 0 1 1.631-.326v-.072a2.03 2.03 0 0 0 0-.31.88.88 0 0 0-.119-.342.733.733 0 0 0-.27-.271.961.961 0 0 0-.494-.111 1.56 1.56 0 0 0-.485.056 1.55 1.55 0 0 0-.414.191l-.12-.255c.154-.104.323-.182.502-.231.177-.048.358-.072.541-.071.212-.01.422.034.613.127.15.074.282.183.382.318.088.136.15.287.183.446.032.16.048.322.048.485v1.377h-.016Zm-.358-1.051h-.605a2.299 2.299 0 0 0-.573.128c-.168.061-.32.159-.446.286a.748.748 0 0 0-.175.509.682.682 0 0 0 .223.549.744.744 0 0 0 .493.168c.135.005.27-.014.398-.056a1.017 1.017 0 0 0 .517-.382.985.985 0 0 0 .136-.255.864.864 0 0 0 0-.207v-.795l.032.055Zm1.026-1.607.955 2.284c.048.127.103.262.143.39.04.127.088.254.12.366.037-.106.076-.226.119-.358.047-.136.103-.271.159-.414l.891-2.268h.374l-1.066 2.578c-.096.247-.2.494-.303.74a5.838 5.838 0 0 1-.278.597 3.52 3.52 0 0 1-.294.469 1.952 1.952 0 0 1-.327.358 1.819 1.819 0 0 1-.39.271l-.238.103-.128-.286c.107-.044.21-.094.31-.151a1.93 1.93 0 0 0 .319-.247c.111-.107.213-.224.302-.35.118-.16.217-.334.295-.517a.934.934 0 0 0 .04-.159.353.353 0 0 0-.04-.151l-1.313-3.247h.35v-.008Z" fill="#fff"/>
            </g>
            <path d="m65.362 211.969.84 2.656h-1.688l.849-2.656Zm-2.543 4.848h1l.447-1.416h2.184l.456 1.416h1.104l-1.888-5.72h-1.391l-1.912 5.72Zm8.08-.688c-.704 0-1.16-.44-1.16-1.376v-.064c0-.928.48-1.384 1.152-1.384.632 0 1.112.456 1.112 1.384v.064c0 .896-.391 1.376-1.103 1.376Zm-2.096 2.12h.969v-2.088c.224.408.703.736 1.367.736 1.08 0 1.857-.816 1.857-2.16v-.064c0-1.352-.808-2.128-1.856-2.128-.617 0-1.136.36-1.368.76v-.672h-.969v5.616Zm7.159-2.12c-.704 0-1.16-.44-1.16-1.376v-.064c0-.928.48-1.384 1.152-1.384.632 0 1.112.456 1.112 1.384v.064c0 .896-.392 1.376-1.104 1.376Zm-2.096 2.12h.968v-2.088c.224.408.704.736 1.368.736 1.08 0 1.856-.816 1.856-2.16v-.064c0-1.352-.808-2.128-1.856-2.128-.616 0-1.136.36-1.368.76v-.672h-.968v5.616Zm5.087-1.432h.968v-6.12h-.969v6.12Zm3.987.08c1.072 0 1.784-.48 1.92-1.36h-.936c-.072.408-.376.64-.96.64-.72 0-1.12-.448-1.152-1.24h3.064v-.28c0-1.496-.936-2.112-1.976-2.112-1.192 0-2.08.864-2.08 2.16v.064c0 1.32.888 2.128 2.12 2.128Zm-1.112-2.608c.096-.648.488-1.04 1.072-1.04.6 0 .968.32 1.016 1.04h-2.088Zm5.9 2.528h1.063v-2.176h.8c1.224 0 2.096-.536 2.096-1.744v-.032c0-1.2-.84-1.768-2.12-1.768h-1.84v5.72Zm1.063-2.944v-1.952h.776c.68 0 1.08.264 1.08.944v.032c0 .632-.376.976-1.08.976h-.776Zm4.981 2.328c-.48 0-.672-.232-.672-.584 0-.512.472-.68 1.208-.68h.496v.416c0 .536-.44.848-1.032.848Zm-.232.696c.64 0 1.008-.232 1.28-.592v.512h.952v-2.744c0-1.144-.736-1.528-1.672-1.528-.936 0-1.712.408-1.792 1.384h.936c.048-.416.296-.656.8-.656.568 0 .76.28.76.84v.216h-.52c-1.2 0-2.144.352-2.144 1.328 0 .872.632 1.24 1.4 1.24Zm3.688 1.352h.953l2.279-5.616h-.944l-1.023 2.696-1.112-2.696h-1.049l1.657 3.76-.76 1.856Z" fill="#0C1142"/>
            <circle cx="194.689" cy="214.591" r="5.172" stroke="#E6E7EC" stroke-width=".796"/>
            <g clip-path="url(#k)">
               <path d="M54.646 230.505H37.14c-.879 0-1.591.713-1.591 1.592v9.548c0 .879.712 1.592 1.591 1.592h17.506c.879 0 1.591-.713 1.591-1.592v-9.548c0-.879-.712-1.592-1.591-1.592Z" fill="#C06"/>
               <g clip-path="url(#l)">
                  <path d="M40.482 232.805v8.132c0 .39.319.708.708.708h4.86c3.673 0 5.266-2.056 5.266-4.785 0-2.714-1.593-4.763-5.267-4.763H41.19a.71.71 0 0 0-.708.708Z" fill="#fff"/>
                  <path d="M43.735 234.093v6.009h2.616c2.374 0 3.404-1.341 3.404-3.238 0-1.816-1.03-3.224-3.404-3.224h-2.163a.454.454 0 0 0-.453.453Z" fill="#C06"/>
                  <path d="M46.05 240.998h-4.226a.68.68 0 0 1-.68-.68v-6.89a.68.68 0 0 1 .68-.68h4.226c4.01 0 4.608 2.58 4.608 4.116 0 2.665-1.64 4.134-4.608 4.134Zm-4.226-8.023a.451.451 0 0 0-.453.453v6.89c0 .251.202.453.453.453h4.226c2.824 0 4.381-1.387 4.381-3.907 0-3.383-2.746-3.889-4.381-3.889h-4.226Z" fill="#000"/>
                  <path d="M44.655 236.054c.092 0 .177.014.259.042a.6.6 0 0 1 .208.131.737.737 0 0 1 .138.22 1.062 1.062 0 0 1 .01.601.584.584 0 0 1-.322.383.72.72 0 0 1-.286.056h-.619v-1.437h.612v.004Zm-.021 1.171a.45.45 0 0 0 .135-.021.265.265 0 0 0 .113-.074.416.416 0 0 0 .081-.135.555.555 0 0 0 .032-.201.821.821 0 0 0-.021-.195.386.386 0 0 0-.071-.149.316.316 0 0 0-.127-.095.526.526 0 0 0-.195-.032h-.227v.906h.28v-.004ZM46.587 236.054v.265h-.757v.308h.697v.244h-.697v.351h.775v.265h-1.09v-1.437h1.072v.004ZM47.67 236.054l.538 1.437h-.329l-.11-.319h-.537l-.114.319H46.8l.541-1.437h.33Zm.018.881-.18-.527h-.004l-.188.527h.372ZM48.721 236.054v1.171h.701v.266h-1.016v-1.437h.315Z" fill="#fff"/>
                  <path d="M42.552 237.434a.662.662 0 1 0 0-1.325.662.662 0 0 0 0 1.325ZM43.051 240.102c-.555 0-1.001-.45-1.001-1.002v-.782a.502.502 0 1 1 1.005 0v1.784h-.004Z" fill="#000"/>
               </g>
            </g>
            <path d="M63.675 234.225c.32 0 .576-.24.576-.552a.56.56 0 0 0-.577-.56.56.56 0 0 0-.575.56c0 .312.256.552.576.552Zm-.472 4.872h.968v-4.184h-.969v4.184Zm2.227 0h1.72c2.008 0 2.976-1.184 2.976-2.848v-.072c0-1.664-.968-2.8-2.96-2.8H65.43v5.72Zm1.064-.84v-4.04h.616c1.344 0 1.904.744 1.904 1.976v.064c0 1.264-.616 2-1.896 2h-.624Zm6.407.92c1.072 0 1.784-.48 1.92-1.36h-.936c-.072.408-.376.64-.96.64-.72 0-1.12-.448-1.152-1.24h3.064v-.28c0-1.496-.936-2.112-1.976-2.112-1.192 0-2.08.864-2.08 2.16v.064c0 1.32.888 2.128 2.12 2.128Zm-1.112-2.608c.096-.648.488-1.04 1.072-1.04.6 0 .968.32 1.016 1.04H71.79Zm5.28 1.912c-.48 0-.672-.232-.672-.584 0-.512.472-.68 1.208-.68h.496v.416c0 .536-.44.848-1.032.848Zm-.232.696c.64 0 1.008-.232 1.28-.592v.512h.952v-2.744c0-1.144-.736-1.528-1.672-1.528-.936 0-1.712.408-1.792 1.384h.936c.048-.416.296-.656.8-.656.568 0 .76.28.76.84v.216h-.52c-1.2 0-2.144.352-2.144 1.328 0 .872.632 1.24 1.4 1.24Zm3.365-.08h.969v-6.12h-.969v6.12Z" fill="#0C1142"/>
            <circle cx="194.689" cy="236.871" r="5.172" stroke="#E6E7EC" stroke-width=".796"/>
            <path d="M35.549 254.376c0-.879.712-1.591 1.591-1.591h17.506c.879 0 1.591.712 1.591 1.591v9.549c0 .879-.712 1.591-1.591 1.591H37.14a1.591 1.591 0 0 1-1.591-1.591v-9.549Z" fill="#68CBC6"/>
            <g clip-path="url(#m)" fill="#fff">
               <path d="M44.331 259.665a.15.15 0 0 0-.147.149c0 .313-.239.566-.527.566-.292 0-.528-.253-.528-.566v-1.028h.944a.15.15 0 0 0 .148-.148.15.15 0 0 0-.148-.149h-.944v-.781a.15.15 0 0 0-.147-.149.15.15 0 0 0-.148.149v2.106c0 .475.37.862.823.862.453 0 .822-.387.822-.862a.15.15 0 0 0-.148-.149ZM53.044 258.678c.05-.064.044-.159-.02-.209a.782.782 0 0 0-.507-.182c-.453 0-.823.387-.823.863v1.364a.15.15 0 0 0 .148.149.15.15 0 0 0 .148-.149v-1.364c0-.314.238-.566.527-.566a.5.5 0 0 1 .319.114.145.145 0 0 0 .208-.02ZM48.794 258.287a.813.813 0 0 0-.675.371.813.813 0 0 0-.675-.371c-.454 0-.823.387-.823.863v1.364a.15.15 0 0 0 .148.149.15.15 0 0 0 .148-.149v-1.364c0-.314.238-.566.527-.566.288 0 .527.252.527.566v1.364a.15.15 0 0 0 .148.149.15.15 0 0 0 .147-.149v-1.364c0-.314.239-.566.528-.566.292 0 .527.252.527.566v1.364a.15.15 0 0 0 .147.149.15.15 0 0 0 .148-.149v-1.364c0-.476-.37-.863-.822-.863ZM45.524 258.287a.8.8 0 0 0-.507.182.146.146 0 0 0-.02.209c.05.064.144.074.208.02a.497.497 0 0 1 .319-.114c.017 0 .033 0 .05.003.007 0 .01 0 .017.003.01 0 .023.004.033.007.007 0 .014.003.017.003.01.004.02.007.03.007.007.003.014.003.017.007l.027.01c.007.003.01.003.017.007.01.003.02.01.027.013.003.004.01.007.013.007l.034.02c.003.003.007.003.007.007.013.01.026.02.036.03l.01.01c.01.007.017.017.027.024.004.003.007.01.014.013l.02.024c.003.007.007.01.013.017a.13.13 0 0 1 .017.023l.01.017.017.027.01.017c.007.01.01.024.014.034.003.003.003.01.006.013a.47.47 0 0 1 .02.057l.01.034h-.55a.788.788 0 0 0-.786.789c0 .475.37.862.823.862.211 0 .393-.07.527-.145a.149.149 0 0 0 .148.145c.08 0 .147-.067.147-.148v-1.375c0-.472-.369-.859-.822-.859Zm-.527 1.526c0-.272.221-.492.49-.492h.564v.853c-.084.067-.282.206-.527.206-.292 0-.527-.253-.527-.567ZM50.614 258.287a.8.8 0 0 0-.507.182.146.146 0 0 0-.02.209c.05.064.144.074.208.02a.497.497 0 0 1 .42-.101c.006 0 .013.003.016.003.01.004.02.007.03.007.007.003.014.003.017.007a.23.23 0 0 1 .027.01c.007.003.01.003.017.007.01.003.02.01.027.013.003.004.01.007.013.007l.034.02c.003.003.006.003.006.007.014.01.027.02.037.03a.095.095 0 0 0 .01.01c.01.007.017.017.027.024.004.003.007.01.014.013l.02.024c.003.007.007.01.013.017a.12.12 0 0 1 .017.023l.01.017.017.027.01.017c.007.01.01.024.013.034.004.003.004.01.007.013.007.017.014.034.017.047 0 .004 0 .007.003.01l.01.034h-.55a.788.788 0 0 0-.786.789c0 .475.37.862.823.862.211 0 .393-.07.527-.145a.149.149 0 0 0 .148.145c.08 0 .147-.067.147-.148v-1.375c0-.472-.37-.859-.822-.859Zm-.53 1.526c0-.272.22-.492.49-.492h.563v.853c-.084.067-.282.206-.527.206-.288 0-.527-.253-.527-.567ZM53.82 258.287a.8.8 0 0 0-.508.182.146.146 0 0 0-.02.209c.05.064.144.074.208.02a.497.497 0 0 1 .32-.114c.016 0 .033 0 .05.003.006 0 .01 0 .016.003.01 0 .024.004.034.007.007 0 .013.003.017.003.01.004.02.007.03.007.007.003.013.003.017.007l.026.01c.007.003.01.003.017.007.01.003.02.01.027.013.003.004.01.007.014.007l.033.02c.004.003.007.003.007.007.013.01.027.02.037.03l.01.01c.01.007.017.017.027.024.003.003.007.01.013.013l.02.024c.004.007.007.01.014.017a.125.125 0 0 1 .017.023l.01.017.017.027.01.017c.006.01.01.02.013.034.003.003.003.01.007.013.006.017.01.031.017.047 0 .004.003.007.003.01a.132.132 0 0 1 .007.034h-.551a.788.788 0 0 0-.786.789c0 .475.37.862.823.862.211 0 .393-.07.527-.145a.149.149 0 0 0 .148.145c.08 0 .147-.067.147-.148v-1.375c.004-.472-.365-.859-.819-.859Zm-.528 1.526c0-.272.222-.492.49-.492h.564v.853c-.084.067-.282.206-.527.206-.292 0-.527-.253-.527-.567ZM41.472 258.917a.277.277 0 0 0-.276.278c0 .987-.8 1.79-1.784 1.79a1.789 1.789 0 0 1-1.784-1.79v-.696h1.118a.277.277 0 0 0 .276-.278.276.276 0 0 0-.276-.277h-1.118v-.903a.277.277 0 1 0-.553 0v2.152a2.344 2.344 0 0 0 2.337 2.345 2.344 2.344 0 0 0 2.336-2.345.276.276 0 0 0-.276-.276Z"/>
               <path d="M39.8 258.498a.278.278 0 0 0 .194-.08.281.281 0 0 0 0-.393.381.381 0 0 0-.042-.035.254.254 0 0 0-.099-.042.246.246 0 0 0-.108 0 .221.221 0 0 0-.051.016c-.017.008-.033.015-.048.026a.279.279 0 0 0-.042.428.28.28 0 0 0 .196.08ZM40.852 258.498a.286.286 0 0 0 .195-.08.278.278 0 0 0 0-.391c-.012-.013-.027-.024-.042-.035a.252.252 0 0 0-.099-.042.246.246 0 0 0-.108 0 .221.221 0 0 0-.05.016.225.225 0 0 0-.048.026.278.278 0 0 0-.042.426c.05.051.122.08.194.08Z"/>
            </g>
            <path d="M64.403 261.376h1.072v-4.88h1.592v-.84H62.81v.84h1.592v4.88Zm4.244-.616c-.48 0-.672-.232-.672-.584 0-.512.472-.68 1.208-.68h.496v.416c0 .536-.44.848-1.032.848Zm-.232.696c.64 0 1.008-.232 1.28-.592v.512h.952v-2.744c0-1.144-.736-1.528-1.672-1.528-.936 0-1.712.408-1.792 1.384h.936c.048-.416.296-.656.8-.656.568 0 .76.28.76.84v.216h-.52c-1.2 0-2.144.352-2.144 1.328 0 .872.632 1.24 1.4 1.24Zm3.342-.08h.968v-2.504c0-.64.44-.96.92-.96.472 0 .744.264.744.88v2.584h.968v-2.504c0-.64.44-.96.92-.96.48 0 .744.264.744.88v2.584h.968v-2.648c0-1.152-.624-1.624-1.392-1.624-.52 0-1.096.232-1.416.752-.208-.52-.64-.752-1.184-.752-.616 0-1.072.336-1.272.728v-.64h-.968v4.184Zm8.671-.616c-.48 0-.672-.232-.672-.584 0-.512.472-.68 1.208-.68h.496v.416c0 .536-.44.848-1.032.848Zm-.232.696c.64 0 1.008-.232 1.28-.592v.512h.952v-2.744c0-1.144-.736-1.528-1.672-1.528-.936 0-1.712.408-1.792 1.384h.936c.048-.416.296-.656.8-.656.568 0 .76.28.76.84v.216h-.52c-1.2 0-2.144.352-2.144 1.328 0 .872.632 1.24 1.4 1.24Zm3.342-.08h.968V259.2c0-.888.512-1.16 1.36-1.168v-.904c-.704.008-1.096.32-1.36.848v-.784h-.968v4.184Zm4.43-.616c-.48 0-.672-.232-.672-.584 0-.512.471-.68 1.207-.68H89v.416c0 .536-.44.848-1.031.848Zm-.233.696c.64 0 1.008-.232 1.28-.592v.512h.953v-2.744c0-1.144-.737-1.528-1.672-1.528-.937 0-1.713.408-1.793 1.384h.936c.049-.416.297-.656.8-.656.569 0 .76.28.76.84v.216h-.52c-1.2 0-2.144.352-2.144 1.328 0 .872.633 1.24 1.4 1.24Z" fill="#0C1142"/>
            <circle cx="194.689" cy="259.151" r="5.172" stroke="#E6E7EC" stroke-width=".796"/>
         </g>
         <rect x="35.549" y="281.43" width="164.71" height="25.731" rx="3.183" fill="#0C1142"/>
         <path d="M98.723 297.796h1.33v-2.72h1c1.53 0 2.62-.67 2.62-2.18v-.04c0-1.5-1.05-2.21-2.65-2.21h-2.3v7.15Zm1.33-3.68v-2.44h.97c.85 0 1.35.33 1.35 1.18v.04c0 .79-.47 1.22-1.35 1.22h-.97Zm6.226 2.91c-.6 0-.84-.29-.84-.73 0-.64.59-.85 1.51-.85h.62v.52c0 .67-.55 1.06-1.29 1.06Zm-.29.87c.8 0 1.26-.29 1.6-.74v.64h1.19v-3.43c0-1.43-.92-1.91-2.09-1.91s-2.14.51-2.24 1.73h1.17c.06-.52.37-.82 1-.82.71 0 .95.35.95 1.05v.27h-.65c-1.5 0-2.68.44-2.68 1.66 0 1.09.79 1.55 1.75 1.55Zm4.611 1.69h1.19l2.85-7.02h-1.18l-1.28 3.37-1.39-3.37h-1.31l2.07 4.7-.95 2.32Zm7.33-1.79h1.21v-3.08c0-.83.55-1.25 1.23-1.25.72 0 1.04.36 1.04 1.15v3.18h1.21v-3.29c0-1.44-.74-2.05-1.79-2.05-.86 0-1.44.43-1.69.94v-.83h-1.21v5.23Zm8.414.1c1.54 0 2.69-1.06 2.69-2.69v-.08c0-1.6-1.15-2.67-2.68-2.67-1.54 0-2.69 1.08-2.69 2.7v.08c0 1.59 1.14 2.66 2.68 2.66Zm.01-.94c-.92 0-1.45-.67-1.45-1.74v-.08c0-1.08.55-1.73 1.45-1.73.9 0 1.44.66 1.44 1.74v.07c0 1.07-.54 1.74-1.44 1.74Zm4.707.84h1.24l1.06-3.52.97 3.52h1.23l1.64-5.23h-1.18l-1.09 3.78-1.02-3.78h-1.01l-1.11 3.78-1.04-3.78h-1.29l1.6 5.23Z" fill="#FFFFC8"/>
      </g>
   </g>
   <defs>
      <clipPath id="b">
         <rect x="26" y="21" width="183.806" height="295.71" rx="4.774" fill="#fff"/>
      </clipPath>
      <clipPath id="c">
         <rect x="35.549" y="58.462" width="164.71" height="12.731" rx="2.387" fill="#fff"/>
      </clipPath>
      <clipPath id="d">
         <path fill="#fff" transform="translate(35.549 58.462)" d="M0 0h20.688v12.731H0z"/>
      </clipPath>
      <clipPath id="e">
         <path fill="#fff" transform="translate(59.42 58.462)" d="M0 0h20.688v12.731H0z"/>
      </clipPath>
      <clipPath id="f">
         <rect x="35.549" y="141.387" width="164.71" height="124.129" rx="2.387" fill="#fff"/>
      </clipPath>
      <clipPath id="g">
         <path fill="#fff" transform="translate(35.549 141.387)" d="M0 0h20.688v12.731H0z"/>
      </clipPath>
      <clipPath id="h">
         <path fill="#fff" transform="translate(35.549 163.667)" d="M0 0h20.688v12.731H0z"/>
      </clipPath>
      <clipPath id="i">
         <path fill="#fff" transform="translate(35.549 185.946)" d="M0 0h20.688v12.731H0z"/>
      </clipPath>
      <clipPath id="j">
         <path fill="#fff" transform="translate(35.549 208.226)" d="M0 0h20.688v12.731H0z"/>
      </clipPath>
      <clipPath id="k">
         <path fill="#fff" transform="translate(35.549 230.505)" d="M0 0h20.688v12.731H0z"/>
      </clipPath>
      <clipPath id="l">
         <path fill="#fff" transform="translate(40.482 232.097)" d="M0 0h10.833v9.548H0z"/>
      </clipPath>
      <clipPath id="m">
         <path fill="#fff" transform="translate(37.075 256.763)" d="M0 0h17.636v4.774H0z"/>
      </clipPath>
      <filter id="a" x=".538" y=".312" width="234.731" height="346.634" filterUnits="userSpaceOnUse" color-interpolation-filters="sRGB">
         <feFlood flood-opacity="0" result="BackgroundImageFix"/>
         <feColorMatrix in="SourceAlpha" values="0 0 0 0 0 0 0 0 0 0 0 0 0 0 0 0 0 0 127 0" result="hardAlpha"/>
         <feOffset dy="4.774"/>
         <feGaussianBlur stdDeviation="12.731"/>
         <feColorMatrix values="0 0 0 0 0.0470588 0 0 0 0 0.0666667 0 0 0 0 0.258824 0 0 0 0.5 0"/>
         <feBlend in2="BackgroundImageFix" result="effect1_dropShadow_5041_46246"/>
         <feBlend in="SourceGraphic" in2="effect1_dropShadow_5041_46246" result="shape"/>
      </filter>
   </defs>
</svg>
