<svg width="40" height="40" viewBox="0 0 40 40" fill="none" xmlns="http://www.w3.org/2000/svg">
<mask id="mask0" style="mask-type:alpha" maskUnits="userSpaceOnUse" x="0" y="0" width="40" height="40">
<rect width="40" height="40" rx="2" fill="white"/>
</mask>
<g mask="url(#mask0)">
<path d="M0 0H40V40H0V0Z" fill="#F5F5F5"/>
<path d="M18.9841 33.2188C18.9753 33.2152 18.9674 33.2099 18.9607 33.2031V33.1953L18.8513 33.0859C18.7419 32.9627 18.6376 32.835 18.5388 32.7031L18.1248 32.1875L18.0701 32.1172L17.5544 31.9609L17.1794 31.7813L17.3748 31.5547L18.0779 31.8516L18.5935 31.9609L19.5466 32.6641C19.3632 32.8239 19.186 32.9907 19.0154 33.1641C19.0091 33.1739 19.0039 33.1844 18.9998 33.1953L19.0623 33.1563L19.1248 33.2109L18.9919 33.2188H18.9841ZM15.4294 32.1484C14.9763 32.1484 14.531 32.0234 14.1013 31.7734C13.6716 31.5234 14.1638 31.6719 14.2966 31.5703C14.4216 31.4766 14.656 31.3594 15.0388 31.3594C15.4919 31.3594 16.0388 31.5156 16.6716 31.8125C16.6482 31.8281 16.1482 32.1484 15.4294 32.1484ZM13.4763 31.7188C13.3904 31.7188 13.3201 31.6797 13.2576 31.625C13.2101 31.569 13.1779 31.5017 13.1638 31.4297C13.1432 31.3401 13.1353 31.248 13.1404 31.1563C13.1744 31.1387 13.2116 31.1281 13.2498 31.125C13.4216 31.125 13.5544 31.2813 13.6091 31.4219C13.6404 31.5 13.6482 31.5703 13.6326 31.625C13.6169 31.6797 13.5466 31.7109 13.4763 31.7109V31.7188ZM16.9138 31.3125C15.7576 31.1563 15.2732 30.7344 15.0623 30.4063C14.9293 30.2115 14.8659 29.9775 14.8826 29.7422C14.8826 29.7422 14.9607 29.7266 15.0623 29.7266C15.3748 29.7266 16.156 29.8828 16.9138 31.3125ZM14.5466 31.0859C14.0544 31.0859 13.6716 31.0078 13.4294 30.8359C13.3216 30.7673 13.235 30.6699 13.1794 30.5547C13.1597 30.5127 13.1465 30.4679 13.1404 30.4219C13.329 30.346 13.5309 30.3088 13.7341 30.3125C14.1248 30.3125 14.7029 30.4375 15.3123 31.0313C15.0582 31.0631 14.8026 31.0814 14.5466 31.0859ZM12.156 30.9922C11.6326 30.9922 10.9138 30.8359 10.4685 30.3906C10.8398 30.3025 11.2197 30.2554 11.6013 30.25C12.0935 30.25 12.4607 30.3438 12.7107 30.5313C12.8044 30.5938 12.8513 30.6563 12.8591 30.7188C12.8669 30.7656 12.8435 30.8203 12.7888 30.8594C12.6794 30.9375 12.4763 30.9922 12.1951 30.9922H12.156ZM10.4607 30.1328C10.4306 30.1317 10.401 30.1242 10.3741 30.1107C10.3471 30.0972 10.3234 30.0781 10.3044 30.0547C10.2647 30.0046 10.2379 29.9456 10.2263 29.8828C10.1951 29.7578 10.2029 29.6406 10.2029 29.6406C10.2264 29.626 10.2533 29.6179 10.281 29.6172C10.3591 29.6172 10.4216 29.6563 10.4607 29.6953C10.5093 29.7439 10.5466 29.8026 10.5701 29.8672C10.5935 29.9453 10.6013 30 10.5857 30.0469C10.5701 30.0859 10.5232 30.125 10.4607 30.125V30.1328ZM14.3669 30.0391C14.281 30.0391 14.2107 30.0078 14.156 29.9531C14.1086 29.8971 14.0763 29.8299 14.0623 29.7578C14.0409 29.6657 14.033 29.571 14.0388 29.4766C14.071 29.4627 14.1054 29.4547 14.1404 29.4531C14.3123 29.4531 14.4529 29.6016 14.4998 29.7422C14.531 29.8203 14.5388 29.8984 14.5232 29.9453C14.4998 30 14.4373 30.0391 14.3669 30.0391ZM12.4607 29.9609C11.4138 29.9219 10.8669 29.625 10.6013 29.3828C10.4823 29.2801 10.3842 29.1554 10.3123 29.0156C10.2885 28.9656 10.2702 28.9132 10.2576 28.8594C10.2576 28.8594 10.3513 28.8203 10.5154 28.8203H10.5388C10.8904 28.8203 11.6169 28.9688 12.4607 29.9609ZM13.6013 29.8516C13.0029 29.7874 12.4466 29.5134 12.031 29.0781C11.8742 28.9125 11.7543 28.7154 11.6794 28.5C11.6794 28.5 11.7888 28.4766 11.9451 28.4688C11.9685 28.4681 11.9919 28.4681 12.0154 28.4688C12.4373 28.4766 13.2107 28.6719 13.6013 29.8516ZM9.27319 29.4453C8.99194 29.4453 8.72631 29.4219 8.47631 29.3516C8.031 29.2422 7.8435 29.0781 7.75756 28.9531C7.72441 28.9011 7.70308 28.8424 7.69506 28.7813C7.69212 28.7579 7.69212 28.7343 7.69506 28.7109C7.69506 28.7109 7.98413 28.6328 8.39038 28.625C8.59746 28.6213 8.80435 28.6396 9.00756 28.6797C9.43338 28.768 9.81326 29.0065 10.0779 29.3516C10.0779 29.3516 9.74194 29.4453 9.27319 29.4453ZM11.2263 28.7422C11.1482 28.7422 11.0701 28.7031 11.0154 28.6484C10.968 28.5924 10.9357 28.5252 10.9216 28.4531C10.9008 28.3636 10.8929 28.2715 10.8982 28.1797C10.9303 28.1658 10.9648 28.1578 10.9998 28.1563H11.0076C11.1794 28.1563 11.3123 28.2969 11.3669 28.4453C11.3982 28.5234 11.406 28.5859 11.3826 28.6484C11.3591 28.7031 11.3044 28.7344 11.2263 28.7344V28.7422ZM9.75756 28.5313C9.74975 28.5313 9.35913 28.4375 8.96069 28.1875C8.58569 27.9531 8.14038 27.5625 8.07788 26.9375C8.01538 26.3125 8.11694 26.9219 8.17163 26.9219H8.18725C8.29663 26.9219 8.52319 26.9531 8.79663 27.1563C9.14819 27.4219 9.4685 27.8906 9.75756 28.5391V28.5313ZM10.7185 28.5C10.7185 28.5 10.4373 28.3906 10.0935 28.0938C9.59836 27.6741 9.21234 27.1406 8.9685 26.5391C8.9685 26.5391 9.04663 26.5 9.16381 26.4922C9.17162 26.4919 9.17944 26.4919 9.18725 26.4922H9.2185C9.37475 26.4922 9.61694 26.5625 9.89038 26.8594C10.2815 27.3401 10.564 27.8998 10.7185 28.5ZM8.2185 28.4219C7.906 28.4219 7.79663 28.25 7.75756 28.1797C7.72695 28.1001 7.71622 28.0143 7.72631 27.9297C7.77735 27.916 7.82977 27.9082 7.88256 27.9063H7.89819C8.14819 27.9063 8.35131 28.0391 8.43725 28.1641C8.45288 28.1875 8.50756 28.2813 8.46069 28.3438C8.42944 28.3984 8.35131 28.4219 8.22631 28.4219H8.2185ZM7.51538 27.5313C7.33569 27.5313 7.06225 27.5156 6.77319 27.4688C6.48413 27.4141 6.32006 27.1719 6.23413 26.9766C6.17652 26.8445 6.1371 26.7052 6.11694 26.5625C6.99975 26.5859 7.42163 26.8437 7.61694 27.0547C7.73811 27.1827 7.81245 27.3479 7.82788 27.5234H7.51538V27.5313ZM8.43725 26.6094C8.36502 26.519 8.29723 26.4251 8.23413 26.3281C8.12475 26.1641 8.031 25.9922 8.031 25.8594C8.0238 25.6661 8.00816 25.4732 7.98413 25.2813L7.92944 24.8906C7.95288 24.9063 8.48413 25.1016 8.48413 25.6016C8.48413 26.1016 8.43725 26.6016 8.43725 26.6094ZM7.74975 26.5625H7.72631C7.57006 26.5313 7.29663 26.4062 6.99194 26.2344C6.70277 26.0807 6.43921 25.883 6.21069 25.6484C6.07006 25.4844 5.97631 25.2187 5.96069 24.8672C5.948 24.7112 5.948 24.5544 5.96069 24.3984C5.9903 24.3851 6.02205 24.3772 6.05444 24.375C6.17163 24.375 6.28881 24.4297 6.46069 24.5469C6.61682 24.6564 6.7632 24.7793 6.89819 24.9141C7.06651 25.0824 7.22559 25.2598 7.37475 25.4453C7.54081 25.7549 7.6844 26.0761 7.80444 26.4063V26.5234C7.79818 26.5373 7.78706 26.5484 7.77319 26.5547C7.76288 26.5568 7.75225 26.5568 7.74194 26.5547L7.74975 26.5625Z" fill="#435125"/>
<path d="M21.5139 33.2188C21.5227 33.2152 21.5307 33.2099 21.5374 33.2031V33.1953L21.6467 33.0859C21.7562 32.9627 21.8604 32.835 21.9592 32.7031L22.3733 32.1875L22.428 32.1172L22.9436 31.9609L23.3186 31.7813L23.1233 31.5547L22.4202 31.8516L21.9045 31.9609L20.9514 32.6641C21.1348 32.8239 21.312 32.9907 21.4827 33.1641C21.4889 33.1739 21.4942 33.1844 21.4983 33.1953L21.4358 33.1563L21.3733 33.2109L21.5061 33.2188H21.5139ZM25.0686 32.1484C25.5217 32.1484 25.967 32.0234 26.3967 31.7734C26.8264 31.5234 26.3342 31.6719 26.2014 31.5703C26.0764 31.4766 25.842 31.3594 25.4592 31.3594C25.0061 31.3594 24.4592 31.5156 23.8264 31.8125C23.8499 31.8281 24.3499 32.1484 25.0686 32.1484ZM27.0217 31.7188C27.1077 31.7188 27.178 31.6797 27.2405 31.625C27.2879 31.569 27.3202 31.5017 27.3342 31.4297C27.3549 31.3401 27.3628 31.248 27.3577 31.1563C27.3236 31.1387 27.2865 31.1281 27.2483 31.125C27.0764 31.125 26.9436 31.2813 26.8889 31.4219C26.8577 31.5 26.8499 31.5703 26.8655 31.625C26.8811 31.6797 26.9514 31.7109 27.0217 31.7109V31.7188ZM23.5842 31.3125C24.7405 31.1563 25.2249 30.7344 25.4358 30.4063C25.5688 30.2115 25.6321 29.9775 25.6155 29.7422C25.6155 29.7422 25.5374 29.7266 25.4358 29.7266C25.1233 29.7266 24.342 29.8828 23.5842 31.3125ZM25.9514 31.0859C26.4436 31.0859 26.8264 31.0078 27.0686 30.8359C27.1765 30.7673 27.2631 30.6699 27.3186 30.5547C27.3384 30.5127 27.3515 30.4679 27.3577 30.4219C27.1691 30.346 26.9672 30.3088 26.7639 30.3125C26.3733 30.3125 25.7952 30.4375 25.1858 31.0313C25.4399 31.0631 25.6954 31.0814 25.9514 31.0859ZM28.342 30.9922C28.8655 30.9922 29.5842 30.8359 30.0295 30.3906C29.6582 30.3025 29.2783 30.2554 28.8967 30.25C28.4045 30.25 28.0374 30.3438 27.7874 30.5313C27.6936 30.5938 27.6467 30.6563 27.6389 30.7188C27.6311 30.7656 27.6545 30.8203 27.7092 30.8594C27.8186 30.9375 28.0217 30.9922 28.303 30.9922H28.342ZM30.0374 30.1328C30.0675 30.1317 30.097 30.1242 30.124 30.1107C30.1509 30.0972 30.1747 30.0781 30.1936 30.0547C30.2333 30.0046 30.2601 29.9456 30.2717 29.8828C30.303 29.7578 30.2952 29.6406 30.2952 29.6406C30.2717 29.626 30.2447 29.6179 30.217 29.6172C30.1389 29.6172 30.0764 29.6563 30.0374 29.6953C29.9887 29.7439 29.9514 29.8026 29.928 29.8672C29.9045 29.9453 29.8967 30 29.9124 30.0469C29.928 30.0859 29.9749 30.125 30.0374 30.125V30.1328ZM26.1311 30.0391C26.217 30.0391 26.2874 30.0078 26.342 29.9531C26.3895 29.8971 26.4217 29.8299 26.4358 29.7578C26.4572 29.6657 26.4651 29.571 26.4592 29.4766C26.4271 29.4627 26.3927 29.4547 26.3577 29.4531C26.1858 29.4531 26.0452 29.6016 25.9983 29.7422C25.967 29.8203 25.9592 29.8984 25.9749 29.9453C25.9983 30 26.0608 30.0391 26.1311 30.0391ZM28.0374 29.9609C29.0842 29.9219 29.6311 29.625 29.8967 29.3828C30.0157 29.2801 30.1139 29.1554 30.1858 29.0156C30.2095 28.9656 30.2278 28.9132 30.2405 28.8594C30.2405 28.8594 30.1467 28.8203 29.9827 28.8203H29.9592C29.6077 28.8203 28.8811 28.9688 28.0374 29.9609ZM26.8967 29.8516C27.4951 29.7874 28.0514 29.5134 28.467 29.0781C28.6239 28.9125 28.7437 28.7154 28.8186 28.5C28.8186 28.5 28.7092 28.4766 28.553 28.4688C28.5296 28.4681 28.5061 28.4681 28.4827 28.4688C28.0608 28.4766 27.2874 28.6719 26.8967 29.8516ZM31.2249 29.4453C31.5061 29.4453 31.7717 29.4219 32.0217 29.3516C32.467 29.2422 32.6545 29.0781 32.7405 28.9531C32.7736 28.9011 32.795 28.8424 32.803 28.7813C32.8059 28.7579 32.8059 28.7343 32.803 28.7109C32.803 28.7109 32.5139 28.6328 32.1077 28.625C31.9006 28.6213 31.6937 28.6396 31.4905 28.6797C31.0647 28.768 30.6848 29.0065 30.4202 29.3516C30.4202 29.3516 30.7561 29.4453 31.2249 29.4453ZM29.2717 28.7422C29.3499 28.7422 29.428 28.7031 29.4827 28.6484C29.5301 28.5924 29.5624 28.5252 29.5764 28.4531C29.5973 28.3636 29.6052 28.2715 29.5999 28.1797C29.5677 28.1658 29.5333 28.1578 29.4983 28.1563H29.4905C29.3186 28.1563 29.1858 28.2969 29.1311 28.4453C29.0999 28.5234 29.092 28.5859 29.1155 28.6484C29.1389 28.7031 29.1936 28.7344 29.2717 28.7344V28.7422ZM30.7405 28.5313C30.7483 28.5313 31.1389 28.4375 31.5374 28.1875C31.9124 27.9531 32.3577 27.5625 32.4202 26.9375C32.4827 26.3125 32.3811 26.9219 32.3264 26.9219H32.3108C32.2014 26.9219 31.9749 26.9531 31.7014 27.1563C31.3499 27.4219 31.0295 27.8906 30.7405 28.5391V28.5313ZM29.7795 28.5C29.7795 28.5 30.0608 28.3906 30.4045 28.0938C30.8997 27.6741 31.2857 27.1406 31.5295 26.5391C31.5295 26.5391 31.4514 26.5 31.3342 26.4922C31.3264 26.4919 31.3186 26.4919 31.3108 26.4922H31.2795C31.1233 26.4922 30.8811 26.5625 30.6077 26.8594C30.2165 27.3401 29.934 27.8998 29.7795 28.5ZM32.2795 28.4219C32.592 28.4219 32.7014 28.25 32.7405 28.1797C32.7711 28.1001 32.7818 28.0143 32.7717 27.9297C32.7207 27.916 32.6683 27.9082 32.6155 27.9063H32.5999C32.3499 27.9063 32.1467 28.0391 32.0608 28.1641C32.0452 28.1875 31.9905 28.2813 32.0374 28.3438C32.0686 28.3984 32.1467 28.4219 32.2717 28.4219H32.2795ZM32.9827 27.5313C33.1624 27.5313 33.4358 27.5156 33.7249 27.4688C34.0139 27.4141 34.178 27.1719 34.2639 26.9766C34.3215 26.8445 34.3609 26.7052 34.3811 26.5625C33.4983 26.5859 33.0764 26.8437 32.8811 27.0547C32.7599 27.1827 32.6856 27.3479 32.6702 27.5234H32.9827V27.5313ZM32.0608 26.6094C32.133 26.519 32.2008 26.4251 32.2639 26.3281C32.3733 26.1641 32.467 25.9922 32.467 25.8594C32.4742 25.6661 32.4899 25.4732 32.5139 25.2813L32.5686 24.8906C32.5452 24.9063 32.0139 25.1016 32.0139 25.6016C32.0139 26.1016 32.0608 26.6016 32.0608 26.6094ZM32.7483 26.5625H32.7717C32.928 26.5313 33.2014 26.4062 33.5061 26.2344C33.7953 26.0807 34.0588 25.883 34.2874 25.6484C34.428 25.4844 34.5217 25.2187 34.5374 24.8672C34.55 24.7112 34.55 24.5544 34.5374 24.3984C34.5077 24.3851 34.476 24.3772 34.4436 24.375C34.3264 24.375 34.2092 24.4297 34.0374 24.5469C33.8812 24.6564 33.7348 24.7793 33.5999 24.9141C33.4315 25.0824 33.2725 25.2598 33.1233 25.4453C32.9572 25.7549 32.8136 26.0761 32.6936 26.4063V26.5234C32.6999 26.5373 32.711 26.5484 32.7249 26.5547C32.7352 26.5568 32.7458 26.5568 32.7561 26.5547L32.7483 26.5625Z" fill="#435125"/>
<path d="M36.5859 6.36719L36.4297 6.42969L36.3672 6.45312L36.1797 6.4375L36 6.52344L35.6875 6.74219L35.6719 6.75L35.5547 6.78125L35.4453 6.73437L35.3828 6.76562L35.3594 6.89062L35.3047 6.98437L35.2266 7.03906L34.9766 7.0625L34.7656 7.17188L34.4844 7.09375L34.3594 7.14844L34.0859 7.39062L33.9453 7.46094H33.8984L33.7109 7.44531L33.6328 7.47656L33.5156 7.57812L33.2969 7.59375L33.2266 7.64062L33.1172 7.85937L33 7.98437L32.9375 7.99219L32.8594 7.96875L32.8047 7.97656L32.7812 8.11719L32.7344 8.17969L32.5781 8.22656L32.4688 8.32812L32.3594 8.375H32.1875L32.0547 8.45312L31.7891 8.47656L31.6875 8.57812L31.6563 8.60156L31.6094 8.63281L31.5312 8.67969L31.5078 8.69531L31.4062 8.67187L31.2891 8.71875L31.2422 8.64062L31.1641 8.69531H31.0547L30.9219 8.64062L30.8203 8.59375L30.7422 8.60937L30.7188 8.73438V8.75L30.6406 8.85156L30.4922 8.9375L30.4766 8.96875L30.3125 9.17969L30 9.51562L29.7266 9.64844L29.4531 9.72656L29.2578 9.88281L28.75 10.1406L27.9531 10.5391L27.7891 10.5938L27.5547 10.625L27.1406 10.7812L26.7656 10.8906L26.7422 10.8984L26.6719 10.9219L26.1562 11.0781L25.9141 11.0547L25.7656 11.1094L25.3906 11.0625L25.1328 11.0703L24.9766 11.1016L24.6641 11.2578L24.1406 11.5L23.9688 11.6562L23.6953 11.8047L23.3828 11.8984V11.7656L23.2734 11.7969L23.1953 11.8203L22.9375 11.8594H22.7969L22.7109 11.8359H22.6953L22.1719 12.0156L21.5938 12.0703L21.3047 12.1641H21.0859L20.9453 12.1953L20.6797 12.2344L20.5859 12.2031H20.5625L19.7812 12.2344L19.4219 12.1953L19.25 12.2344L18.9688 12.1328L18.5469 12.0859L18.4531 12.0547L18.2344 11.9922L18.1328 12.0469L18.0547 12.0547L17.8828 11.9922H17.8125L17.6719 12.0469L17.5859 12.0234L17.5078 11.9609L17.3203 11.9375L17.2109 11.8359L16.5859 11.9219L16.4141 11.875L15.8438 11.7031L15.75 11.7109L15.6406 11.7891L15.4688 11.8594L15.3203 11.8984H15.1172L14.8828 11.8438L14.6484 11.7266L14.5547 11.7031L14.3594 11.7266H14.2969L13.9375 11.5312L13.4687 11.2422L13.1484 11.0859L13.0234 11.0703L13.0078 11.125L13.0703 11.3125L13.0938 11.5L13.0859 11.6641V11.7734L13.1094 11.8672L13.2266 11.9922L13.2734 12.125L13.3125 12.4766V12.8359L13.25 13.4062L13.2344 13.4844L13.1641 13.7891L13.1094 14.0547L12.875 14.7812L12.8047 14.8672L12.6484 14.9766L12.2812 15.2266L12.0156 15.3828L11.9375 15.4141L11.7188 15.4297L11.5859 15.4219L11.4141 15.3281L11.2578 15.2891L11.0391 15.1328L10.7969 15.0859L10.5312 14.9297L10.4688 14.8516L10.3203 14.8359L10.125 14.7734L10.0469 14.7578L10 14.7422L9.75 14.7344L9.51562 14.625L9.39062 14.5937L9.21875 14.5859L9.03906 14.6641L8.95312 14.7109L8.83594 14.6641H8.75781L8.65625 14.8125L8.64844 14.8359L8.58594 14.8672H8.4375L8.375 14.8906L8.28125 14.9297L8.20312 14.9688L8.16406 14.9844H8.13281L8.09375 15H8.03906L7.94531 14.9531L7.89844 14.9219L7.8125 14.9062L7.76562 14.9375V15.0937L7.71875 15.1797L7.57812 15.3125L7.44531 15.4297L7.35156 15.5703L7.10938 16.125L6.95312 16.3594L6.90625 16.4062L6.75 16.5859L6.60156 16.6953L6.27344 16.9453L5.96094 17.0625L5.69531 17.1172H5.57031L5.32031 17.0859L5.10156 17.0156L4.85938 16.8594L4.58594 16.6484L4.20312 16.2656L4.14844 16.2344H4.14062L4.02344 16.1562H3.92969L3.89844 16.2109L3.875 16.2891L3.85938 16.3672L3.82031 16.7969V16.8203L3.84375 16.9922L4.14062 17.4062L4.22656 17.625L4.24219 17.6484L4.30469 17.75L4.35156 17.8281L4.45312 18.125L4.38281 18.2969L4.42187 18.4062L4.32812 18.4766L4.3125 18.5703L4.57812 18.9062L4.63281 19.0469L4.57031 19.25L4.46875 19.3594L4.4375 19.3906L4.45312 19.4766L4.57812 19.5859L4.78125 19.7734L4.89062 20.0469L4.96875 20.1172L5.07031 20.0938L5.125 20.1406H5.20312L5.28125 20.2187L5.33594 20.2422L5.42188 20.2812L5.48437 20.3672L5.5 20.625L5.625 20.9531V21.1562L5.70312 21.2812L5.72656 21.3828L5.6875 21.6562L5.78125 21.7422L5.88281 21.7187L5.95312 21.7344L6.0625 21.8203L6.19531 22.0234L6.32031 22.0078L6.39844 22.0469L6.78906 22.3984L6.88281 22.4453L6.96094 22.4766L7.03906 22.5547L7.15625 22.4766H7.17188L7.30469 22.4609L7.36719 22.5L7.47656 22.5781H7.63281L7.94531 22.6797L8.09375 22.7109L8.375 22.8906L8.5 22.9687L8.57031 23.0234L8.66406 23.1016L8.85156 23.1797L9.00781 23.2188L9.10156 23.2422L9.17188 23.2656L9.52344 23.4062L9.71094 23.4453L9.89062 23.5156L10.0156 23.5625H10.1094L10.2422 23.4453H10.375L10.4844 23.4687L10.5859 23.4531L10.75 23.3516L10.7891 23.2969L10.9063 23.2422L11.2969 23.1953L11.4141 23.2344L11.7109 23.1016L11.9141 23.1562L12.0859 23.0938L12.4766 23.1797L12.5781 23.2578L12.6875 23.3828H12.8281L12.7812 23.4766L12.9453 23.6562L13.1016 23.8906V23.9141L13.2188 24.2344L13.2969 24.3516L13.3594 24.5078V24.6172L13.2734 24.6875L13.2578 24.7266V24.7422L13.2734 24.7812L13.3047 24.7656L13.3672 24.7266L13.4453 24.7187L13.5859 24.7344H13.6719L13.8203 24.6719L13.9141 24.625L14.0703 24.6875H14.2344L14.3047 24.7187L14.5078 24.8047L14.6094 24.8203L14.6484 24.7891L14.6719 24.7344L14.6563 24.6719L14.5781 24.5781L14.4141 24.3828L14.3359 24.2812L14.2891 24.1406L14.2734 23.9531L14.2578 23.8281L14.2812 23.6641L14.3281 23.6016L14.3594 23.4687L14.3672 23.4375L14.4609 23.3125L14.7109 23.1562L14.9766 22.9219L15.1875 22.7734L15.4062 22.6797V22.6562L15.4375 22.6641L15.9844 22.4766H16L16.2422 22.4297L17.9062 22.5469L17.9688 22.5312L18.0234 22.375L18.0547 22.3437L18.0703 22.3281L18.2578 22.25L18.3359 22.2344L18.5703 22.2969L18.6719 22.3203L18.8281 22.2344H18.9375L19.1719 22.1094H19.3125L19.3594 22.0937L19.6328 21.8906L19.8984 21.8125L19.9766 21.7812L19.9922 21.7656L20.2656 21.625L20.4375 21.4922L20.5859 21.4141L20.7422 21.375L21.1719 21.3438L21.2578 21.2031L21.4375 21.1719L21.5547 21.0469L21.6797 21L21.7656 20.8672L21.8438 20.7578L21.9531 20.6953L22.2891 20.6797L22.6953 20.7266L22.75 20.6953L22.8359 20.3672L22.9297 20.3047L23.1875 19.9375V19.6875L23.2344 19.5234L23.2031 19.2266L23.2422 18.9297L23.3984 18.5547L23.5391 18.3984L23.7656 18.25L23.8828 18.2031L24.0391 18.1719H24.0703L24.1094 18.1641L24.6719 18.1562H24.875L25.0625 18.1484L25.5312 18.2266L25.5703 18.2422L25.7266 18.2891L25.9141 18.4375L26.1094 18.625L26.1484 18.6641L26.2734 18.7109L26.3125 18.7344L26.4219 18.7109L26.5703 18.6328L26.6797 18.5391L26.8359 18.4609V18.4531L26.9219 18.3203L26.9609 18.2656L27.2578 18.1484L27.6094 18.1328L27.6484 18.1094L27.6719 18.1016L27.7578 17.9922H27.8438L28.0547 18.0703L28.2031 18.0391L28.3203 18.0859L28.4062 18.0703L28.5781 18.0547L28.7656 18.1797L28.875 18.1953L29.25 18.4141H29.2812L29.2969 18.4219L29.3438 18.4141L29.4141 18.3906L29.4297 18.3984L29.4688 18.4609L29.5312 18.4687L29.6016 18.375L29.5703 18.3359L29.5625 18.3203L29.4297 18.2891L29.3047 18.0859L29.4219 17.9609L29.2422 17.7422L29.2109 17.7031L29.2031 17.6875L29.1406 17.5937L28.8281 17.1094L28.4062 16.7812L28.2656 16.6641L28.2109 16.625L27.9922 16.3984L27.8359 16.1953L27.8125 16.1484L27.7812 16.0703L27.6875 15.875L27.5312 15.7422L27.3906 15.6016V15.5937L27.1094 15.2187L27.0625 15.1562L27 15.1172H26.8594L26.8438 15.1016V15.0937L26.9062 15.0156L26.9844 15L27.0156 14.9297L26.875 14.5234V14.5078L26.8594 14.3828L26.9766 13.7891L26.9922 13.7109L27.1875 13.3203L27.3125 13.2187L27.4375 12.9609L27.5547 12.7969L27.6641 12.6875L27.6797 12.6797L27.875 12.5625L28.0391 12.5391L28.1953 12.5156L28.4688 12.5937H28.7812L28.8984 12.5781L29.0938 12.5156L29.1875 12.4609L29.2344 12.3828L29.3281 12.0547L29.3672 11.9453L29.4219 11.8359L29.7813 11.4219L30.0469 11.1797L30.6484 10.7344L30.9453 10.5625L31.0938 10.4687L32.4375 9.875L32.7812 9.52344L32.9609 9.33594L33.2891 9.125L33.6641 8.96875L33.9844 8.71094L34.0547 8.625L34.1484 8.33594L34.2188 8.32031L34.2891 8.17187L34.3047 8.13281L34.5703 7.94531L34.6016 7.92969L35.625 7.42187L35.7812 7.4375L35.8594 7.32031L36.1562 7.27344L36.2031 7.25781L36.2812 7.22656L36.3438 7.11719V7.09375L36.3516 6.8125L36.4141 6.73437L36.4531 6.54688L36.4844 6.5L36.5156 6.46094L36.6016 6.39844L36.5859 6.35938V6.36719Z" fill="#D47600"/>
</g>
</svg>
