<svg width="40" height="40" viewBox="0 0 40 40" fill="none" xmlns="http://www.w3.org/2000/svg">
<mask id="mask0" style="mask-type:alpha" maskUnits="userSpaceOnUse" x="0" y="0" width="40" height="40">
<rect width="40" height="40" rx="2" fill="white"/>
</mask>
<g mask="url(#mask0)">
<path d="M0 0H40.0078V20H0V0Z" fill="#002B7F"/>
<path d="M0 20H40.0078V40H0V20Z" fill="#CE1126"/>
<path d="M10.2072 8.15325L10.0805 12.3199H5.85389C5.33389 11.3066 4.90723 10.4532 4.90723 9.28658C4.90723 8.31325 5.67389 7.53992 6.77389 7.53992C7.94055 7.53992 9.22721 7.93325 10.2072 8.15325Z" fill="#FFD83D"/>
<path d="M5.41602 8.34668V10.7467V8.34668ZM5.74935 8.10002V11.3V8.10002ZM6.09601 7.93335V11.7467V7.93335ZM6.42934 7.85335V10.8467V7.85335ZM6.76934 7.84002V10.86V7.84002ZM7.10934 7.72668V10.86V7.72668ZM7.44934 7.72668V10.86V7.72668ZM7.78934 7.76002V10.8933V7.76002ZM8.12934 7.79335V10.92V7.79335ZM8.46934 7.98668V11.12V7.98668ZM8.80267 8.02002V11.5467V8.02002ZM9.14933 8.02002V11.1533V8.02002ZM9.48267 8.02002V11.1533V8.02002Z" fill="#FFD83D"/>
<path d="M9.48267 8.02002V11.1533M5.41602 8.34668V10.7467V8.34668ZM5.74935 8.10002V11.3V8.10002ZM6.09601 7.93335V11.7467V7.93335ZM6.42934 7.85335V10.8467V7.85335ZM6.76934 7.84002V10.86V7.84002ZM7.10934 7.72668V10.86V7.72668ZM7.44934 7.72668V10.86V7.72668ZM7.78934 7.76002V10.8933V7.76002ZM8.12934 7.79335V10.92V7.79335ZM8.46934 7.98668V11.12V7.98668ZM8.80267 8.02002V11.5467V8.02002ZM9.14933 8.02002V11.1533V8.02002Z" stroke="black" stroke-width="0.1" stroke-linecap="round" stroke-linejoin="round"/>
<path d="M7.5424 7.8667C8.2624 7.98003 9.83572 8.72003 9.65572 9.71336C9.40239 11.1267 8.57573 10.56 7.4824 10.36L6.65574 10.6334C6.35574 10.9334 5.92241 11.2134 5.62907 10.8467H5.13574V12.7667H10.5624V8.13336L7.5424 7.8667Z" fill="black" stroke="black" stroke-width="0.1" stroke-linecap="round" stroke-linejoin="round"/>
<path d="M9.96924 7.85987C10.1497 7.85987 10.2959 7.71362 10.2959 7.53321C10.2959 7.3528 10.1497 7.20654 9.96924 7.20654C9.78883 7.20654 9.64258 7.3528 9.64258 7.53321C9.64258 7.71362 9.78883 7.85987 9.96924 7.85987Z" fill="#FFD83D" stroke="black" stroke-width="0.1" stroke-linecap="round" stroke-linejoin="round"/>
<path d="M9.22705 7.67994C9.40747 7.67994 9.55372 7.53369 9.55372 7.35328C9.55372 7.17286 9.40747 7.02661 9.22705 7.02661C9.04664 7.02661 8.90039 7.17286 8.90039 7.35328C8.90039 7.53369 9.04664 7.67994 9.22705 7.67994Z" fill="#FFD83D" stroke="black" stroke-width="0.1" stroke-linecap="round" stroke-linejoin="round"/>
<path d="M8.47412 7.49317C8.65454 7.49317 8.80079 7.34692 8.80079 7.16651C8.80079 6.9861 8.65454 6.83984 8.47412 6.83984C8.29371 6.83984 8.14746 6.9861 8.14746 7.16651C8.14746 7.34692 8.29371 7.49317 8.47412 7.49317Z" fill="#FFD83D" stroke="black" stroke-width="0.1" stroke-linecap="round" stroke-linejoin="round"/>
<path d="M7.7212 7.36658C7.90161 7.36658 8.04786 7.22033 8.04786 7.03992C8.04786 6.85951 7.90161 6.71326 7.7212 6.71326C7.54078 6.71326 7.39453 6.85951 7.39453 7.03992C7.39453 7.22033 7.54078 7.36658 7.7212 7.36658Z" fill="#FFD83D" stroke="black" stroke-width="0.1" stroke-linecap="round" stroke-linejoin="round"/>
<path d="M6.96729 7.29322C7.1477 7.29322 7.29395 7.14697 7.29395 6.96656C7.29395 6.78615 7.1477 6.63989 6.96729 6.63989C6.78688 6.63989 6.64062 6.78615 6.64062 6.96656C6.64062 7.14697 6.78688 7.29322 6.96729 7.29322Z" fill="#FFD83D" stroke="black" stroke-width="0.1" stroke-linecap="round" stroke-linejoin="round"/>
<path d="M6.23389 7.33326C6.4143 7.33326 6.56056 7.18701 6.56056 7.0066C6.56056 6.82618 6.4143 6.67993 6.23389 6.67993C6.05348 6.67993 5.90723 6.82618 5.90723 7.0066C5.90723 7.18701 6.05348 7.33326 6.23389 7.33326Z" fill="#FFD83D" stroke="black" stroke-width="0.1" stroke-linecap="round" stroke-linejoin="round"/>
<path d="M5.52784 7.57313C5.70825 7.57313 5.8545 7.42688 5.8545 7.24646C5.8545 7.06605 5.70825 6.9198 5.52784 6.9198C5.34742 6.9198 5.20117 7.06605 5.20117 7.24646C5.20117 7.42688 5.34742 7.57313 5.52784 7.57313Z" fill="#FFD83D" stroke="black" stroke-width="0.1" stroke-linecap="round" stroke-linejoin="round"/>
<path d="M4.93409 8.01319C5.1145 8.01319 5.26075 7.86694 5.26075 7.68653C5.26075 7.50612 5.1145 7.35986 4.93409 7.35986C4.75367 7.35986 4.60742 7.50612 4.60742 7.68653C4.60742 7.86694 4.75367 8.01319 4.93409 8.01319Z" fill="#FFD83D" stroke="black" stroke-width="0.1" stroke-linecap="round" stroke-linejoin="round"/>
<path d="M4.51514 8.61976C4.69556 8.61976 4.84181 8.47351 4.84181 8.2931C4.84181 8.11268 4.69556 7.96643 4.51514 7.96643C4.33473 7.96643 4.18848 8.11268 4.18848 8.2931C4.18848 8.47351 4.33473 8.61976 4.51514 8.61976Z" fill="#FFD83D" stroke="black" stroke-width="0.1" stroke-linecap="round" stroke-linejoin="round"/>
<path d="M4.30811 9.33997C4.48852 9.33997 4.63478 9.19372 4.63478 9.01331C4.63478 8.8329 4.48852 8.68665 4.30811 8.68665C4.1277 8.68665 3.98145 8.8329 3.98145 9.01331C3.98145 9.19372 4.1277 9.33997 4.30811 9.33997Z" fill="#FFD83D" stroke="black" stroke-width="0.1" stroke-linecap="round" stroke-linejoin="round"/>
<path d="M4.31397 10.0798C4.49438 10.0798 4.64064 9.93359 4.64064 9.75318C4.64064 9.57277 4.49438 9.42651 4.31397 9.42651C4.13356 9.42651 3.9873 9.57277 3.9873 9.75318C3.9873 9.93359 4.13356 10.0798 4.31397 10.0798Z" fill="#FFD83D" stroke="black" stroke-width="0.1" stroke-linecap="round" stroke-linejoin="round"/>
<path d="M4.46143 10.8066C4.64184 10.8066 4.7881 10.6604 4.7881 10.48C4.7881 10.2996 4.64184 10.1533 4.46143 10.1533C4.28102 10.1533 4.13477 10.2996 4.13477 10.48C4.13477 10.6604 4.28102 10.8066 4.46143 10.8066Z" fill="#FFD83D" stroke="black" stroke-width="0.1" stroke-linecap="round" stroke-linejoin="round"/>
<path d="M10.1141 7.9666L10.0808 8.39993C9.26081 8.2666 8.10082 7.81327 7.01416 7.81327C6.01416 7.81327 5.24083 8.21327 5.24083 9.2266C5.24083 10.2199 5.66083 11.1266 6.22083 12.0466L5.64083 12.3133C5.12083 11.3133 4.6875 10.4466 4.6875 9.2866C4.6875 8.31327 5.45416 7.35327 6.77416 7.35327C7.94082 7.35327 9.13415 7.75327 10.1141 7.9666Z" fill="#FFD83D" stroke="black" stroke-width="0.1" stroke-linecap="round" stroke-linejoin="round"/>
<path d="M10.5802 3.53999L10.2335 4.18666L10.5802 4.82665L10.9202 4.18666L10.5802 3.53333V3.53999ZM10.5802 5.16665L10.2335 5.80665L10.5802 6.45332L10.9135 5.79998L10.5735 5.15999L10.5802 5.16665ZM9.35352 4.99999L9.89351 5.33999L10.4335 4.99999L9.90018 4.65332L9.35352 4.99999ZM10.7202 4.99999L11.2602 5.33999L11.8068 4.99999L11.2602 4.65332L10.7268 4.99999H10.7202Z" fill="#FFD83D" stroke="black" stroke-width="0.1" stroke-linecap="round" stroke-linejoin="round"/>
<path d="M10.5803 5.2667C10.7239 5.2667 10.8403 5.1503 10.8403 5.0067C10.8403 4.86311 10.7239 4.7467 10.5803 4.7467C10.4367 4.7467 10.3203 4.86311 10.3203 5.0067C10.3203 5.1503 10.4367 5.2667 10.5803 5.2667Z" fill="#FFD83D" stroke="black" stroke-width="0.1" stroke-linecap="round" stroke-linejoin="round"/>
<path d="M10.5818 7.36655C10.9684 7.36655 11.2818 7.05315 11.2818 6.66655C11.2818 6.27995 10.9684 5.96655 10.5818 5.96655C10.1952 5.96655 9.88184 6.27995 9.88184 6.66655C9.88184 7.05315 10.1952 7.36655 10.5818 7.36655Z" fill="#FFD83D" stroke="black" stroke-width="0.1" stroke-linecap="round" stroke-linejoin="round"/>
<path d="M9.89941 6.83995C10.124 6.80105 10.3515 6.78098 10.5794 6.77995C10.8061 6.77995 11.0327 6.79995 11.2461 6.83995M10.3994 5.99329V6.43328C10.2341 6.44125 10.0693 6.45905 9.90608 6.48662L10.3994 5.99329ZM11.2527 6.48662C11.0873 6.45872 10.9203 6.44091 10.7527 6.43328V5.99329L11.2527 6.48662Z" stroke="black" stroke-width="0.1" stroke-linecap="round" stroke-linejoin="round"/>
<path d="M9.90057 7.84656C9.8339 8.97989 9.70057 10.1465 9.25391 10.9865L9.9739 10.6932C10.2272 9.73988 10.2806 8.50656 10.3539 7.91989L9.90057 7.84656ZM11.2606 7.84656L10.8006 7.91989C10.8806 8.50656 10.9339 9.73988 11.1806 10.6932L11.9006 10.9865C11.4606 10.1465 11.3272 8.98655 11.2606 7.84656Z" fill="#FFD83D" stroke="black" stroke-width="0.1" stroke-linecap="round" stroke-linejoin="round"/>
<path d="M10.5811 10.3134C9.71439 10.3134 9.08106 10.7134 9.04773 11.7533C8.83439 11.38 7.94773 10.22 7.1144 10.3734C6.62107 10.4667 6.18107 11.1534 6.26107 11.9333C5.84774 10.76 4.65441 10.5667 3.77441 11.2667C4.55441 11.9 4.90108 13.7867 5.55441 14.6H15.601C16.2544 13.7867 16.601 11.9 17.381 11.2667C16.5077 10.5667 15.3077 10.76 14.901 11.9333C14.9677 11.1534 14.5344 10.4667 14.0344 10.3734C13.2077 10.22 12.321 11.38 12.1077 11.7533C12.0744 10.72 11.4411 10.3134 10.5744 10.3134H10.5811Z" fill="#FFD83D" stroke="black" stroke-width="0.1" stroke-linecap="round" stroke-linejoin="round"/>
<path d="M15.5883 14.5999C15.5883 14.9732 13.3483 15.3799 10.5817 15.3799C7.81502 15.3799 5.56836 14.9799 5.56836 14.5999C5.56836 14.2332 7.81502 14.0332 10.5817 14.0332C13.3417 14.0332 15.5883 14.2332 15.5883 14.5999Z" fill="black" stroke="black" stroke-width="0.1" stroke-linecap="round" stroke-linejoin="round"/>
<path d="M10.581 7.85997C10.7099 7.85997 10.8143 7.75551 10.8143 7.62664C10.8143 7.49778 10.7099 7.39331 10.581 7.39331C10.4521 7.39331 10.3477 7.49778 10.3477 7.62664C10.3477 7.75551 10.4521 7.85997 10.581 7.85997Z" fill="#FFD83D" stroke="black" stroke-width="0.1" stroke-linecap="round" stroke-linejoin="round"/>
<path d="M10.5816 8.37993C10.7179 8.37993 10.8283 8.26949 10.8283 8.13326C10.8283 7.99703 10.7179 7.8866 10.5816 7.8866C10.4454 7.8866 10.335 7.99703 10.335 8.13326C10.335 8.26949 10.4454 8.37993 10.5816 8.37993Z" fill="#FFD83D" stroke="black" stroke-width="0.1" stroke-linecap="round" stroke-linejoin="round"/>
<path d="M10.58 8.95341C10.7309 8.95341 10.8533 8.83103 10.8533 8.68007C10.8533 8.52911 10.7309 8.40674 10.58 8.40674C10.429 8.40674 10.3066 8.52911 10.3066 8.68007C10.3066 8.83103 10.429 8.95341 10.58 8.95341Z" fill="#FFD83D" stroke="black" stroke-width="0.1" stroke-linecap="round" stroke-linejoin="round"/>
<path d="M10.5809 9.59993C10.754 9.59993 10.8942 9.45965 10.8942 9.2866C10.8942 9.11355 10.754 8.97327 10.5809 8.97327C10.4079 8.97327 10.2676 9.11355 10.2676 9.2866C10.2676 9.45965 10.4079 9.59993 10.5809 9.59993Z" fill="#FFD83D" stroke="black" stroke-width="0.1" stroke-linecap="round" stroke-linejoin="round"/>
<path d="M10.5812 10.3C10.769 10.3 10.9212 10.1478 10.9212 9.95999C10.9212 9.77222 10.769 9.62 10.5812 9.62C10.3934 9.62 10.2412 9.77222 10.2412 9.95999C10.2412 10.1478 10.3934 10.3 10.5812 10.3Z" fill="#FFD83D" stroke="black" stroke-width="0.1" stroke-linecap="round" stroke-linejoin="round"/>
<path d="M10.4479 10.6132C10.4079 10.6132 10.3745 10.6465 10.3812 10.7065L10.4212 10.9932C10.4345 11.0932 10.4879 11.0598 10.5079 10.9932C10.5212 10.9132 10.5145 10.8598 10.5212 10.7198C10.5212 10.6465 10.4812 10.6132 10.4412 10.6132H10.4479ZM10.7145 10.6132C10.6745 10.6132 10.6412 10.6465 10.6412 10.7198C10.6412 10.8598 10.6412 10.9132 10.6545 10.9865C10.6679 11.0665 10.7212 11.0932 10.7412 10.9865L10.7745 10.7065C10.7879 10.6398 10.7479 10.6132 10.7145 10.6132ZM10.2012 10.6532C10.1835 10.6532 10.1666 10.6602 10.1541 10.6727C10.1416 10.6852 10.1345 10.7021 10.1345 10.7198C10.1345 10.7865 10.1545 10.8732 10.1612 10.9732C10.1745 11.0732 10.2479 11.0398 10.2545 10.9732C10.2545 10.9198 10.2679 10.8265 10.2545 10.7132C10.2545 10.6732 10.2412 10.6532 10.2145 10.6465C10.2101 10.6459 10.2056 10.6459 10.2012 10.6465V10.6532ZM10.9412 10.6532C10.9212 10.6532 10.9012 10.6732 10.8945 10.7198C10.891 10.8045 10.8954 10.8893 10.9079 10.9732C10.9079 11.0398 10.9879 11.0732 10.9945 10.9732C10.9945 10.8732 11.0212 10.7932 11.0212 10.7265C11.0212 10.6865 10.9879 10.6598 10.9545 10.6532C10.9501 10.6526 10.9456 10.6526 10.9412 10.6532ZM9.91454 10.7665C9.88121 10.7732 9.84787 10.8132 9.86121 10.8532C9.88121 10.9398 9.90121 11.0332 9.90121 11.1198C9.90121 11.1932 9.96121 11.1665 9.96787 11.1198C9.97307 11.031 9.97529 10.9421 9.97454 10.8532C9.97454 10.7865 9.94121 10.7598 9.90787 10.7665H9.91454ZM11.2212 10.7665C11.2012 10.7732 11.1812 10.7998 11.1812 10.8532L11.1945 11.1198C11.1945 11.1665 11.2612 11.1932 11.2612 11.1198C11.2612 11.0332 11.2745 10.9398 11.2945 10.8532C11.3079 10.8132 11.2745 10.7732 11.2479 10.7665C11.2413 10.7648 11.2344 10.7648 11.2279 10.7665H11.2212ZM7.28788 10.7798C7.24788 10.7798 7.22122 10.8265 7.24788 10.8798C7.28788 10.9732 7.33455 11.0265 7.37455 11.1198C7.40788 11.2065 7.46788 11.1532 7.44788 11.0932L7.35455 10.8465C7.33455 10.7998 7.30788 10.7798 7.28788 10.7798ZM13.8745 10.7798C13.8479 10.7798 13.8279 10.7998 13.8079 10.8465C13.7479 10.9732 13.7279 11.0332 13.7079 11.0932C13.6945 11.1598 13.7479 11.2065 13.7879 11.1198L13.9079 10.8798C13.9345 10.8265 13.9079 10.7798 13.8745 10.7798ZM7.55455 10.7798C7.52122 10.7932 7.50788 10.8265 7.52122 10.8665C7.56122 10.9465 7.60788 11.0332 7.64122 11.1198C7.66788 11.1932 7.73455 11.1732 7.70788 11.1065L7.64122 10.8598C7.61455 10.7932 7.57455 10.7732 7.55455 10.7798ZM13.5879 10.7798C13.5612 10.7865 13.5345 10.8132 13.5212 10.8598C13.4745 10.9932 13.4679 11.0332 13.4479 11.1065C13.4212 11.1732 13.4879 11.1932 13.5145 11.1198L13.6345 10.8665C13.6479 10.8265 13.6345 10.7932 13.6079 10.7798C13.6013 10.7781 13.5944 10.7781 13.5879 10.7798ZM7.88788 10.8465C7.84788 10.8532 7.82121 10.9065 7.84788 10.9732C7.87455 11.0532 7.91455 11.1265 7.95455 11.2198C7.99455 11.3132 8.05455 11.2932 8.04121 11.2332C8.02121 11.1732 8.00788 11.0798 7.96121 10.9332C7.94121 10.8665 7.91455 10.8398 7.88788 10.8465ZM13.2745 10.8465C13.2479 10.8465 13.2145 10.8665 13.1945 10.9332C13.1545 11.0798 13.1279 11.1732 13.1212 11.2332C13.1012 11.2998 13.1679 11.3132 13.2012 11.2198C13.2412 11.1265 13.2812 11.0532 13.3079 10.9732C13.3345 10.9065 13.3079 10.8532 13.2745 10.8465ZM7.06122 10.8932C7.02122 10.8932 6.99455 10.9598 7.01455 11.0065C7.04788 11.0732 7.07455 11.0998 7.10788 11.1798C7.14788 11.2598 7.18788 11.1998 7.17455 11.1465C7.15455 11.0932 7.13455 11.0332 7.12122 10.9598C7.10788 10.9065 7.08122 10.8932 7.05455 10.8932H7.06122ZM14.1012 10.8932C14.0745 10.8932 14.0545 10.9065 14.0345 10.9598L13.9879 11.1465C13.9745 11.1998 14.0145 11.2598 14.0545 11.1798C14.0879 11.0998 14.1079 11.0798 14.1479 11.0065C14.1679 10.9598 14.1345 10.8998 14.1012 10.8932ZM9.63454 11.0798C9.58788 11.0798 9.54788 11.1332 9.56788 11.1798C9.58121 11.2598 9.62121 11.3265 9.64121 11.4265C9.66787 11.5132 9.72788 11.4732 9.72121 11.4132C9.71636 11.3236 9.70522 11.2345 9.68788 11.1465C9.67454 11.0998 9.65454 11.0798 9.62788 11.0798H9.63454ZM11.5279 11.0798C11.5079 11.0798 11.4812 11.0998 11.4745 11.1465C11.4549 11.2343 11.4416 11.3234 11.4345 11.4132C11.4345 11.4732 11.4945 11.5132 11.5145 11.4265L11.5945 11.1798C11.6079 11.1332 11.5679 11.0798 11.5279 11.0798ZM10.5812 11.1598C10.5279 11.1598 10.5212 11.2265 10.5212 11.2732C10.5171 11.425 10.471 11.5727 10.3879 11.6998C10.3212 11.7798 10.2345 11.7598 10.1545 11.7132C10.077 11.6709 10.0034 11.6218 9.93454 11.5665C9.84121 11.4998 9.77454 11.5398 9.88121 11.6932C10.1879 12.1332 10.5212 12.5065 10.5212 13.2265C10.5212 13.3132 10.5412 13.3398 10.5812 13.3398C10.6212 13.3398 10.6345 13.3132 10.6345 13.2198C10.6345 12.5065 10.9679 12.1332 11.2745 11.6865C11.3812 11.5398 11.3145 11.4998 11.2279 11.5665C11.1593 11.6222 11.0857 11.6713 11.0079 11.7132C10.9212 11.7598 10.8345 11.7798 10.7745 11.6998C10.6914 11.5727 10.6453 11.425 10.6412 11.2732C10.6345 11.2265 10.6279 11.1598 10.5745 11.1598H10.5812ZM8.22788 11.0532C8.22347 11.0524 8.21896 11.0524 8.21455 11.0532C8.19455 11.0598 8.18788 11.0798 8.19455 11.1198L8.26788 11.3798C8.28788 11.4465 8.36121 11.4265 8.34788 11.3465L8.30788 11.1398C8.29455 11.0865 8.25455 11.0532 8.22788 11.0532ZM12.9345 11.0532C12.9012 11.0532 12.8679 11.0865 12.8545 11.1398C12.8279 11.2332 12.8279 11.2598 12.8145 11.3398C12.7945 11.4265 12.8745 11.4398 12.8879 11.3798L12.9679 11.1132C12.9679 11.0798 12.9612 11.0598 12.9412 11.0532C12.9368 11.0524 12.9323 11.0524 12.9279 11.0532H12.9345ZM6.82788 11.0798C6.78788 11.0798 6.76122 11.1332 6.80122 11.1998C6.84122 11.2798 6.91455 11.3732 6.94788 11.4332C6.98122 11.4865 7.04122 11.4465 7.00122 11.3798C6.96122 11.3132 6.94788 11.2265 6.89455 11.1265C6.89015 11.1124 6.88122 11.1002 6.86916 11.0918C6.85711 11.0834 6.84259 11.0792 6.82788 11.0798ZM14.3279 11.0798C14.3079 11.0798 14.2812 11.0932 14.2612 11.1265C14.2145 11.2265 14.1945 11.3065 14.1612 11.3798C14.1212 11.4465 14.1745 11.4865 14.2079 11.4332C14.2412 11.3732 14.3145 11.2798 14.3545 11.1998C14.3945 11.1332 14.3679 11.0798 14.3279 11.0798ZM4.71456 11.2998C4.67456 11.2998 4.66123 11.3798 4.70123 11.4332C4.75299 11.4987 4.81105 11.559 4.87456 11.6132C4.92789 11.6665 4.94122 11.5998 4.91456 11.5465L4.79456 11.3665C4.76123 11.3198 4.73456 11.2998 4.71456 11.2998ZM16.4412 11.2998C16.4212 11.2998 16.3945 11.3198 16.3679 11.3665L16.2412 11.5465C16.2145 11.5998 16.2279 11.6665 16.2879 11.6132C16.3514 11.559 16.4095 11.4987 16.4612 11.4332C16.5012 11.3798 16.4879 11.2998 16.4412 11.2998ZM5.05456 11.3665C5.01456 11.3665 4.98789 11.3932 5.02122 11.4532L5.14789 11.7065C5.18122 11.7732 5.28122 11.7932 5.24122 11.6932L5.15456 11.4398C5.13456 11.3932 5.08789 11.3732 5.05456 11.3732V11.3665ZM16.1079 11.3665C16.0679 11.3665 16.0212 11.3932 16.0012 11.4398L15.9212 11.6932C15.8812 11.7932 15.9812 11.7732 16.0145 11.7065C16.0479 11.6398 16.1012 11.5398 16.1345 11.4532C16.1679 11.3932 16.1412 11.3665 16.1079 11.3665ZM4.40123 11.3932C4.34789 11.3932 4.34789 11.4398 4.39456 11.4732C4.45456 11.5198 4.52789 11.5665 4.59456 11.6265C4.68123 11.6932 4.70789 11.6265 4.66123 11.5732C4.62123 11.5198 4.58123 11.4665 4.46789 11.4065C4.44123 11.3932 4.42123 11.3932 4.40123 11.3932ZM16.7545 11.3932C16.7412 11.3932 16.7145 11.3932 16.6879 11.4065C16.5812 11.4665 16.5345 11.5198 16.4879 11.5732C16.4479 11.6332 16.4812 11.6932 16.5612 11.6265C16.6279 11.5665 16.7079 11.5198 16.7612 11.4732C16.8145 11.4398 16.8079 11.3932 16.7612 11.3932H16.7545ZM9.44788 11.4398C9.41454 11.4398 9.39454 11.4732 9.40121 11.5198L9.46788 11.7598C9.48121 11.8332 9.56788 11.8332 9.55454 11.7598C9.54121 11.6932 9.53454 11.6065 9.50788 11.4998C9.50121 11.4598 9.48121 11.4398 9.45454 11.4332C9.45232 11.433 9.45009 11.433 9.44788 11.4332V11.4398ZM11.7012 11.4398C11.6812 11.4398 11.6612 11.4598 11.6479 11.5065C11.6212 11.6065 11.6145 11.6932 11.6012 11.7665C11.5879 11.8332 11.6745 11.8332 11.6879 11.7598L11.7545 11.5198C11.7679 11.4732 11.7412 11.4398 11.7145 11.4398C11.7101 11.4391 11.7056 11.4391 11.7012 11.4398ZM7.43455 11.3065C7.41455 11.3065 7.40122 11.3532 7.42122 11.4198C7.49193 11.612 7.52804 11.8151 7.52788 12.0198C7.50788 12.0998 7.46122 12.1065 7.40122 12.0865C7.33582 12.0542 7.27336 12.0163 7.21455 11.9732C7.16122 11.9398 7.10122 11.9798 7.18122 12.0465C7.58122 12.3798 7.86788 12.7598 7.98121 13.2198C7.99455 13.3132 8.05455 13.3265 8.04121 13.2198C7.94788 12.6398 7.92788 12.1598 8.06788 11.8665C8.12121 11.7532 8.06788 11.6465 7.98788 11.8265C7.92788 11.9465 7.84121 11.9932 7.76788 11.8932C7.66365 11.7305 7.57439 11.5587 7.50122 11.3798C7.48788 11.3332 7.46788 11.3132 7.44788 11.3065C7.44568 11.3061 7.44342 11.3061 7.44122 11.3065H7.43455ZM13.7079 11.3065C13.6879 11.3065 13.6679 11.3332 13.6545 11.3732C13.6079 11.5065 13.4612 11.7865 13.3879 11.8932C13.3145 11.9998 13.2279 11.9465 13.1745 11.8265C13.0879 11.6465 13.0412 11.7532 13.0879 11.8665C13.2279 12.1598 13.2079 12.6398 13.1212 13.2198C13.1012 13.3265 13.1612 13.3132 13.1879 13.2198C13.3112 12.7516 13.5882 12.3384 13.9745 12.0465C14.0545 11.9798 13.9945 11.9398 13.9412 11.9798C13.882 12.0186 13.8196 12.0521 13.7545 12.0798C13.6879 12.1065 13.6479 12.0998 13.6279 12.0132C13.6145 11.9332 13.6412 11.7532 13.7412 11.4132C13.7545 11.3598 13.7412 11.3132 13.7212 11.3065C13.7169 11.305 13.7122 11.305 13.7079 11.3065ZM5.40789 11.4665C5.37456 11.4665 5.34122 11.4932 5.36122 11.5465C5.38789 11.6398 5.44122 11.7332 5.46122 11.7865C5.48122 11.8465 5.54122 11.8198 5.52789 11.7398L5.49456 11.5332C5.49456 11.4932 5.44789 11.4665 5.40789 11.4665ZM15.7479 11.4665C15.7079 11.4665 15.6679 11.4932 15.6612 11.5332L15.6345 11.7398C15.6212 11.8198 15.6812 11.8465 15.7012 11.7865C15.7145 11.7332 15.7679 11.6398 15.7945 11.5465C15.8145 11.4932 15.7879 11.4665 15.7479 11.4665ZM6.66122 11.3532C6.62122 11.3465 6.61455 11.4532 6.64789 11.4998L6.83455 11.7065C6.88788 11.7732 6.92122 11.7132 6.88789 11.6598L6.71455 11.4065C6.69455 11.3732 6.67455 11.3532 6.66122 11.3532ZM14.4945 11.3532C14.4812 11.3532 14.4612 11.3732 14.4412 11.4065L14.2679 11.6598C14.2345 11.7132 14.2679 11.7732 14.3279 11.7065L14.5079 11.4998C14.5412 11.4532 14.5412 11.3465 14.4945 11.3532ZM5.69456 11.6198C5.66789 11.6198 5.64789 11.6332 5.66122 11.6865C5.67456 11.7665 5.69456 11.8198 5.71456 11.8932C5.73456 11.9598 5.78122 11.9532 5.78122 11.8865L5.76122 11.6732C5.75832 11.6572 5.7502 11.6426 5.73813 11.6318C5.72607 11.6209 5.71074 11.6144 5.69456 11.6132V11.6198ZM15.4612 11.6198C15.4456 11.6195 15.4304 11.6247 15.4182 11.6344C15.406 11.6442 15.3976 11.6579 15.3945 11.6732L15.3745 11.8865C15.3745 11.9532 15.4279 11.9665 15.4412 11.8932L15.5012 11.6932C15.5145 11.6332 15.4879 11.6132 15.4612 11.6132V11.6198ZM6.56789 11.7132C6.52789 11.7132 6.49455 11.7598 6.54122 11.8198C6.61455 11.9198 6.70122 11.9865 6.73455 12.0198C6.76122 12.0598 6.83455 12.0465 6.78789 11.9732L6.63455 11.7398C6.62122 11.7132 6.59455 11.7065 6.56789 11.7132ZM14.5679 11.7132C14.5545 11.7132 14.5345 11.7198 14.5279 11.7398L14.3679 11.9732C14.3212 12.0465 14.3945 12.0598 14.4279 12.0265C14.4545 11.9865 14.5412 11.9198 14.6212 11.8198C14.6679 11.7532 14.6279 11.7132 14.5879 11.7132C14.5834 11.7127 14.579 11.7127 14.5745 11.7132H14.5679ZM5.18789 11.9865C5.16122 11.9865 5.14789 12.0132 5.18789 12.0732C5.29085 12.198 5.36586 12.3435 5.40789 12.4998C5.41456 12.5932 5.37456 12.5932 5.33456 12.5932C5.20789 12.5932 5.14789 12.4998 5.04122 12.4732C4.92789 12.4532 4.90789 12.5065 4.98789 12.5665C5.37001 12.8081 5.70261 13.1204 5.96789 13.4865C6.03455 13.6132 6.12122 13.6532 6.07455 13.5398C5.94503 13.2799 5.88967 12.9892 5.91455 12.6998C5.94789 12.5132 5.99455 12.3932 5.98789 12.2865C5.98789 12.1865 5.92122 12.1932 5.90122 12.2865L5.83456 12.4732C5.80789 12.5065 5.71456 12.5265 5.63456 12.4132C5.52118 12.274 5.39629 12.1447 5.26122 12.0265C5.24122 12.0065 5.21456 11.9932 5.19456 11.9865H5.18789ZM15.9679 11.9865C15.9479 11.9865 15.9212 11.9998 15.8945 12.0265C15.7618 12.145 15.6392 12.2743 15.5279 12.4132C15.4412 12.5265 15.3479 12.5065 15.3279 12.4798C15.2975 12.4185 15.2751 12.3535 15.2612 12.2865C15.2345 12.1932 15.1745 12.1865 15.1679 12.2865C15.1679 12.3932 15.2079 12.5132 15.2412 12.6998C15.2745 12.8865 15.2412 13.1798 15.0879 13.5398C15.0345 13.6532 15.1279 13.6065 15.1945 13.4865C15.4573 13.1206 15.7877 12.8083 16.1679 12.5665C16.2479 12.5065 16.2345 12.4532 16.1212 12.4732C16.0079 12.4998 15.9479 12.5932 15.8279 12.5932C15.7879 12.5932 15.7412 12.5932 15.7479 12.4998C15.7545 12.4132 15.8679 12.2065 15.9679 12.0732C16.0079 12.0065 16.0012 11.9865 15.9679 11.9865Z" fill="black"/>
<path d="M5.78711 14.1799L5.92044 14.5866L5.78711 14.1799ZM6.05378 14.1L6.17377 14.5133L6.05378 14.1ZM6.34711 14.0466L6.42711 14.4733L6.34711 14.0466ZM6.61377 14L6.70044 14.4199L6.61377 14ZM6.95377 13.9666L7.02044 14.3933L6.95377 13.9666ZM7.32044 13.9666L7.39377 14.3866L7.32044 13.9666ZM7.68043 13.8466L7.73377 14.2733L7.68043 13.8466ZM8.01377 13.8666L8.0671 14.2933L8.01377 13.8666ZM8.34043 13.8266L8.39377 14.2533L8.34043 13.8266ZM8.66043 13.7866L8.69376 14.2199L8.66043 13.7866ZM9.01376 13.7866L9.04043 14.2199L9.01376 13.7866ZM9.33376 13.7666L9.35376 14.1999L9.33376 13.7666ZM9.68043 13.7466L9.70043 14.1733L9.68043 13.7466ZM10.0804 13.7333L10.1004 14.1666L10.0804 13.7333ZM15.3671 14.1799L15.2337 14.5866L15.3671 14.1799ZM15.1004 14.1L14.9871 14.5133L15.1004 14.1ZM14.8137 14.0466L14.7337 14.4733L14.8137 14.0466ZM14.5471 14L14.4604 14.4199L14.5471 14ZM14.1937 13.9666L14.1271 14.3933L14.1937 13.9666ZM13.8337 13.9666L13.7604 14.3933L13.8337 13.9666ZM13.4804 13.8466L13.4271 14.2733L13.4804 13.8466ZM13.1404 13.8666L13.0871 14.2933L13.1404 13.8666ZM12.8204 13.8266L12.7604 14.2533L12.8204 13.8266ZM12.4937 13.7866L12.4604 14.2199L12.4937 13.7866ZM12.1404 13.7866L12.1138 14.2199L12.1404 13.7866ZM11.8271 13.7666L11.8071 14.1999L11.8271 13.7666ZM11.4738 13.7466L11.4604 14.1733L11.4738 13.7466ZM11.0738 13.7333L11.0604 14.1666L11.0738 13.7333ZM10.5804 13.7V14.1799V13.7Z" fill="#FFD83D"/>
<path d="M10.5804 13.7V14.1799M5.78711 14.1799L5.92044 14.5866L5.78711 14.1799ZM6.05378 14.1L6.17377 14.5133L6.05378 14.1ZM6.34711 14.0466L6.42711 14.4733L6.34711 14.0466ZM6.61377 14L6.70044 14.4199L6.61377 14ZM6.95377 13.9666L7.02044 14.3933L6.95377 13.9666ZM7.32044 13.9666L7.39377 14.3866L7.32044 13.9666ZM7.68043 13.8466L7.73377 14.2733L7.68043 13.8466ZM8.01377 13.8666L8.0671 14.2933L8.01377 13.8666ZM8.34043 13.8266L8.39377 14.2533L8.34043 13.8266ZM8.66043 13.7866L8.69376 14.2199L8.66043 13.7866ZM9.01376 13.7866L9.04043 14.2199L9.01376 13.7866ZM9.33376 13.7666L9.35376 14.1999L9.33376 13.7666ZM9.68043 13.7466L9.70043 14.1733L9.68043 13.7466ZM10.0804 13.7333L10.1004 14.1666L10.0804 13.7333ZM15.3671 14.1799L15.2337 14.5866L15.3671 14.1799ZM15.1004 14.1L14.9871 14.5133L15.1004 14.1ZM14.8137 14.0466L14.7337 14.4733L14.8137 14.0466ZM14.5471 14L14.4604 14.4199L14.5471 14ZM14.1937 13.9666L14.1271 14.3933L14.1937 13.9666ZM13.8337 13.9666L13.7604 14.3933L13.8337 13.9666ZM13.4804 13.8466L13.4271 14.2733L13.4804 13.8466ZM13.1404 13.8666L13.0871 14.2933L13.1404 13.8666ZM12.8204 13.8266L12.7604 14.2533L12.8204 13.8266ZM12.4937 13.7866L12.4604 14.2199L12.4937 13.7866ZM12.1404 13.7866L12.1138 14.2199L12.1404 13.7866ZM11.8271 13.7666L11.8071 14.1999L11.8271 13.7666ZM11.4738 13.7466L11.4604 14.1733L11.4738 13.7466ZM11.0738 13.7333L11.0604 14.1666L11.0738 13.7333Z" stroke="black" stroke-width="0.1" stroke-linecap="round" stroke-linejoin="round"/>
</g>
</svg>
