<svg width="40" height="40" viewBox="0 0 40 40" fill="none" xmlns="http://www.w3.org/2000/svg">
<mask id="mask0" style="mask-type:alpha" maskUnits="userSpaceOnUse" x="0" y="0" width="40" height="40">
<rect width="40" height="40" rx="2" fill="white"/>
</mask>
<g mask="url(#mask0)">
<path d="M16 0H40V40H15.9922L16 0Z" fill="#FF0000"/>
<path d="M0 0H16V40H-0.0078125L0 0Z" fill="#006600"/>
<path fill-rule="evenodd" clip-rule="evenodd" d="M22.9531 25.5157C20.2656 25.4376 7.95312 17.7501 7.875 16.5236L8.54687 15.3907C9.76562 17.1642 22.3594 24.6407 23.5937 24.3751L22.9531 25.5157Z" fill="#FFFF00" stroke="black" stroke-width="0.1" stroke-linecap="round" stroke-linejoin="round"/>
<path fill-rule="evenodd" clip-rule="evenodd" d="M8.40686 15.2345C8.16467 15.8829 11.6178 18.0157 15.7741 20.547C19.9303 23.0704 23.5084 24.6329 23.7819 24.4142L23.8991 24.1876C23.8522 24.2657 23.7272 24.2892 23.5397 24.2345C22.4147 23.9064 19.485 22.5626 15.86 20.3673C12.235 18.172 9.07874 16.1407 8.59436 15.2814C8.55444 15.2015 8.53562 15.1128 8.53967 15.0236H8.52405L8.42249 15.2032L8.40686 15.2345ZM23.0162 25.547C22.9694 25.6329 22.8834 25.6329 22.7272 25.6251C21.7194 25.5079 18.6647 24.0236 15.0709 21.8673C10.8678 19.3517 7.39905 17.0626 7.78186 16.4689L7.88342 16.2814L7.89905 16.2892C7.56311 17.3048 14.7428 21.4064 15.1647 21.672C19.3131 24.2501 22.8209 25.7501 23.1334 25.3595L23.0162 25.547Z" fill="#F5F5F5" stroke="black" stroke-width="0.1" stroke-linecap="round" stroke-linejoin="round"/>
<path fill-rule="evenodd" clip-rule="evenodd" d="M16.0156 17.2657C18.6953 17.2423 22.0156 16.8986 23.9219 16.1407L23.5156 15.4689C22.3828 16.0939 19.0547 16.5079 15.9922 16.5626C12.3672 16.5314 9.8125 16.1954 8.53125 15.3361L8.14062 16.047C10.5 17.0392 12.9063 17.2579 16.0156 17.2657Z" fill="#FFFF00" stroke="black" stroke-width="0.1" stroke-linecap="round" stroke-linejoin="round"/>
<path fill-rule="evenodd" clip-rule="evenodd" d="M24.0391 16.1565C23.9688 16.2581 22.7266 16.6877 20.8906 17.0002C19.2718 17.243 17.6369 17.3632 16 17.3596C14.4326 17.3666 12.8665 17.2674 11.3125 17.0627C9.39844 16.7581 8.39844 16.3362 8.03125 16.1877L8.125 16.0081C9.16393 16.4175 10.2466 16.7059 11.3516 16.8674C12.8927 17.069 14.4458 17.1656 16 17.1565C17.6239 17.1576 19.2456 17.0374 20.8516 16.7971C22.7266 16.4924 23.7578 16.1018 23.8984 15.9221L24.0391 16.1565ZM23.6719 15.469C23.4687 15.6252 22.4531 15.9924 20.6719 16.2737C19.1323 16.4947 17.5788 16.6043 16.0234 16.6018C14.5236 16.6132 13.025 16.5166 11.5391 16.3127C9.71875 16.0784 8.75781 15.6487 8.41406 15.5237L8.51562 15.344C8.78125 15.4846 9.71875 15.8596 11.5625 16.1252C13.0416 16.317 14.532 16.4083 16.0234 16.3987C17.5658 16.4008 19.1063 16.2911 20.6328 16.0706C22.4297 15.8206 23.3984 15.3674 23.5469 15.2502L23.6719 15.469ZM7.1875 20.5003C8.84375 21.3909 12.5078 21.844 15.9844 21.8753C19.1484 21.8753 23.2734 21.3831 24.8125 20.5628L24.7656 19.6721C24.2891 20.4299 19.875 21.1565 15.9531 21.1253C12.0312 21.094 8.39062 20.4846 7.17969 19.7034V20.5003" fill="#FFFF00"/>
<path d="M7.1875 20.5003C8.84375 21.3909 12.5078 21.844 15.9844 21.8753C19.1484 21.8753 23.2734 21.3831 24.8125 20.5628L24.7656 19.6721C24.2891 20.4299 19.875 21.1565 15.9531 21.1253C12.0312 21.094 8.39062 20.4846 7.17969 19.7034V20.5003M24.0391 16.1565C23.9687 16.2581 22.7266 16.6877 20.8906 17.0002C19.2718 17.243 17.6369 17.3632 16 17.3596C14.4326 17.3666 12.8665 17.2674 11.3125 17.0627C9.39844 16.7581 8.39844 16.3362 8.03125 16.1877L8.125 16.0081C9.16393 16.4175 10.2466 16.7059 11.3516 16.8674C12.8927 17.069 14.4458 17.1656 16 17.1565C17.6239 17.1576 19.2456 17.0374 20.8516 16.7971C22.7266 16.4924 23.7578 16.1018 23.8984 15.9221L24.0391 16.1565ZM23.6719 15.469C23.4687 15.6252 22.4531 15.9924 20.6719 16.2737C19.1323 16.4947 17.5788 16.6043 16.0234 16.6018C14.5236 16.6132 13.025 16.5166 11.5391 16.3127C9.71875 16.0784 8.75781 15.6487 8.41406 15.5237L8.51562 15.344C8.78125 15.4846 9.71875 15.8596 11.5625 16.1252C13.0416 16.317 14.532 16.4083 16.0234 16.3987C17.5658 16.4008 19.1063 16.2911 20.6328 16.0706C22.4297 15.8206 23.3984 15.3674 23.5469 15.2502L23.6719 15.469V15.469Z" stroke="black" stroke-width="0.1" stroke-linecap="round" stroke-linejoin="round"/>
<path fill-rule="evenodd" clip-rule="evenodd" d="M24.8984 20.3751V20.5861C24.6641 20.8673 23.2109 21.2892 21.3906 21.5782C19.5876 21.8402 17.7673 21.9655 15.9453 21.9532C13.8047 21.9532 12.1016 21.797 10.7734 21.5939C9.49912 21.449 8.2536 21.1146 7.07812 20.6017V20.3517C7.89063 20.8907 10.0703 21.2814 10.8047 21.3986C12.1172 21.6017 13.8125 21.7501 15.9453 21.7501C18.1875 21.7501 19.9844 21.5939 21.3594 21.3829C22.6719 21.1954 24.5313 20.7032 24.8984 20.3751ZM24.8984 19.6173V19.8361C24.6641 20.1095 23.2109 20.5314 21.3906 20.8204C19.5876 21.0823 17.7673 21.2077 15.9453 21.1954C13.8047 21.1954 12.1016 21.0392 10.7813 20.8439C9.50391 20.6971 8.25572 20.36 7.07812 19.8439V19.5939C7.89063 20.1329 10.0703 20.5314 10.8047 20.6407C12.125 20.8439 13.8203 21.0001 15.9453 21.0001C18.1875 21.0001 19.9844 20.8439 21.3594 20.6251C22.6719 20.4376 24.5313 19.9454 24.8984 19.6173ZM15.9766 25.3595C12.1797 25.3361 8.92188 24.3283 8.23438 24.1564L8.73438 24.9376C9.94531 25.4533 13.125 26.2189 16.0156 26.1329C18.9063 26.047 21.4297 25.8204 23.2031 24.9611L23.7188 24.1408C22.5078 24.7111 18.3828 25.3595 15.9844 25.3595" fill="#FFFF00"/>
<path d="M15.9766 25.3595C12.1797 25.3361 8.92188 24.3283 8.23438 24.1564L8.73438 24.9376C9.94531 25.4533 13.125 26.2189 16.0156 26.1329C18.9063 26.047 21.4297 25.8204 23.2031 24.9611L23.7188 24.1408C22.5078 24.7111 18.3828 25.3595 15.9844 25.3595M24.8984 20.3751V20.5861C24.6641 20.8673 23.2109 21.2892 21.3906 21.5782C19.5876 21.8402 17.7673 21.9655 15.9453 21.9532C13.8047 21.9532 12.1016 21.797 10.7734 21.5939C9.49912 21.449 8.2536 21.1146 7.07812 20.6017V20.3517C7.89063 20.8907 10.0703 21.2814 10.8047 21.3986C12.1172 21.6017 13.8125 21.7501 15.9453 21.7501C18.1875 21.7501 19.9844 21.5939 21.3594 21.3829C22.6719 21.1954 24.5313 20.7032 24.8984 20.3751V20.3751ZM24.8984 19.6173V19.8361C24.6641 20.1095 23.2109 20.5314 21.3906 20.8204C19.5876 21.0823 17.7673 21.2077 15.9453 21.1954C13.8047 21.1954 12.1016 21.0392 10.7813 20.8439C9.50391 20.6971 8.25572 20.36 7.07812 19.8439V19.5939C7.89063 20.1329 10.0703 20.5314 10.8047 20.6407C12.125 20.8439 13.8203 21.0001 15.9453 21.0001C18.1875 21.0001 19.9844 20.8439 21.3594 20.6251C22.6719 20.4376 24.5313 19.9454 24.8984 19.6173V19.6173Z" stroke="black" stroke-width="0.1" stroke-linecap="round" stroke-linejoin="round"/>
<path fill-rule="evenodd" clip-rule="evenodd" d="M23.3984 24.7737C23.3223 24.8896 23.2442 25.0042 23.1641 25.1174C22.2776 25.4115 21.3717 25.6438 20.4531 25.8127C18.979 26.084 17.4832 26.2199 15.9844 26.219C12.6172 26.1721 9.85938 25.5159 8.5625 24.9534L8.45312 24.7737L8.47656 24.7424L8.64844 24.8127C11.0205 25.5987 13.5012 26.0074 16 26.0237C17.5625 26.0315 19.125 25.844 20.3828 25.6252C22.3203 25.2346 23.1016 24.9456 23.3438 24.8127L23.3984 24.7737ZM23.8438 24.0393H23.8516C23.795 24.1387 23.7377 24.2376 23.6797 24.3362C23.2344 24.4924 22.0156 24.8518 20.2422 25.1018C19.0703 25.2581 18.3438 25.4143 16.0234 25.4612C13.3649 25.4325 10.7229 25.0382 8.17187 24.2893L8.07812 24.094C10.6693 24.8051 13.3373 25.1986 16.0234 25.2659C18.1484 25.219 19.0547 25.0627 20.2109 24.8987C22.2813 24.5862 23.3203 24.2424 23.6328 24.1409C23.6304 24.1356 23.6278 24.1304 23.625 24.1252L23.8438 24.0393Z" fill="#FFFF00" stroke="black" stroke-width="0.1" stroke-linecap="round" stroke-linejoin="round"/>
<path fill-rule="evenodd" clip-rule="evenodd" d="M23.8906 19.797C23.9063 22.297 22.625 24.547 21.5938 25.5392C20.0789 27.0125 18.0582 27.851 15.9453 27.8829C13.4219 27.9298 11.0469 26.2814 10.4063 25.5626C9.15625 24.1486 8.14063 22.3595 8.10938 19.9376C8.26563 17.2033 9.33594 15.3048 10.8906 14.0001C12.395 12.7627 14.2865 12.0935 16.2344 12.1095C18.2188 12.1642 20.5469 13.1407 22.1484 15.0782C23.1953 16.3439 23.6563 17.7189 23.8906 19.8048V19.797ZM15.9688 11.2345C20.8125 11.2345 24.7969 15.1798 24.7969 20.0079C24.7824 22.3398 23.846 24.5713 22.1919 26.215C20.5379 27.8588 18.3007 28.7814 15.9688 28.7814C11.125 28.7814 7.17188 24.8439 7.17188 20.0079C7.17188 15.172 11.125 11.2345 15.9688 11.2345Z" fill="#FFFF00"/>
<path d="M15.9688 11.2345C20.8125 11.2345 24.7969 15.1798 24.7969 20.0079C24.7824 22.3398 23.846 24.5713 22.1919 26.215C20.5379 27.8588 18.3007 28.7814 15.9688 28.7814C11.125 28.7814 7.17188 24.8439 7.17188 20.0079C7.17188 15.172 11.125 11.2345 15.9688 11.2345M23.8906 19.797C23.9063 22.297 22.625 24.547 21.5938 25.5392C20.0789 27.0125 18.0582 27.851 15.9453 27.8829C13.4219 27.9298 11.0469 26.2814 10.4063 25.5626C9.15625 24.1486 8.14063 22.3595 8.10938 19.9376C8.26563 17.2033 9.33594 15.3048 10.8906 14.0001C12.395 12.7627 14.2865 12.0935 16.2344 12.1095C18.2188 12.1642 20.5469 13.1407 22.1484 15.0782C23.1953 16.3439 23.6563 17.7189 23.8906 19.8048V19.797Z" stroke="black" stroke-width="0.1" stroke-linecap="round" stroke-linejoin="round"/>
<path fill-rule="evenodd" clip-rule="evenodd" d="M15.9922 11.2032C20.8359 11.2032 24.7891 15.1642 24.7891 20.0079C24.7891 24.8517 20.8359 28.8126 15.9922 28.8126C13.6576 28.8064 11.4205 27.8757 9.77042 26.2242C8.12033 24.5726 7.19162 22.3347 7.1875 20.0001C7.19369 17.6669 8.12331 15.431 9.77317 13.7811C11.423 12.1312 13.6589 11.2016 15.9922 11.1954V11.2032ZM7.38281 20.0079C7.38281 24.7423 11.2734 28.6173 15.9922 28.6173C20.7109 28.6173 24.5938 24.7423 24.5938 20.0079C24.5938 15.2736 20.7109 11.4064 15.9922 11.4064C13.7127 11.4146 11.5288 12.3232 9.91628 13.9343C8.30371 15.5454 7.3931 17.7285 7.38281 20.0079Z" fill="#FFFF00" stroke="black" stroke-width="0.1" stroke-linecap="round" stroke-linejoin="round"/>
<path fill-rule="evenodd" clip-rule="evenodd" d="M16 11.9376C20.4141 11.9376 24.0547 15.5704 24.0547 20.0001C24.0547 24.4376 20.4141 28.0626 16 28.0626C13.8629 28.0564 11.8149 27.2053 10.303 25.6948C8.79109 24.1844 7.93793 22.1372 7.92969 20.0001C7.92969 15.5704 11.5703 11.9376 15.9922 11.9376H16ZM8.125 20.0001C8.125 24.3282 11.6797 27.8673 16 27.8673C20.3125 27.8673 23.8672 24.3282 23.8672 20.0001C23.8672 15.672 20.3125 12.1329 15.9922 12.1329C11.6719 12.1329 8.125 15.672 8.125 20.0001Z" fill="#FFFF00" stroke="black" stroke-width="0.1" stroke-linecap="round" stroke-linejoin="round"/>
<path fill-rule="evenodd" clip-rule="evenodd" d="M16.3516 11.172H15.5938V28.8595H16.3516V11.172Z" fill="#FFFF00" stroke="black" stroke-width="0.1" stroke-linecap="round" stroke-linejoin="round"/>
<path fill-rule="evenodd" clip-rule="evenodd" d="M16.2734 11.0706H16.4688V28.9612H16.2734V11.0706ZM15.5234 11.0706H15.7188V28.9612H15.5234V11.0706Z" fill="#FFFF00" stroke="black" stroke-width="0.1" stroke-linecap="round" stroke-linejoin="round"/>
<path fill-rule="evenodd" clip-rule="evenodd" d="M24.7969 20.3518V19.6878L24.2656 19.1956L21.2422 18.3909L16.8828 17.9456L11.6484 18.2112L7.90625 19.1018L7.15625 19.6643V20.3128L9.0625 19.4534L13.5938 18.7502H17.9531L21.1563 19.1018L23.375 19.6409L24.7969 20.3518Z" fill="#FFFF00" stroke="black" stroke-width="0.1" stroke-linecap="round" stroke-linejoin="round"/>
<path fill-rule="evenodd" clip-rule="evenodd" d="M15.9922 18.6487C17.9023 18.6409 19.8089 18.8109 21.6875 19.1565C23.3359 19.4846 24.5 19.8987 24.8906 20.3596V20.594C24.4219 20.0159 22.8594 19.594 21.6484 19.344C20.0625 19.0393 18.0547 18.844 15.9922 18.844C13.8047 18.844 11.7734 19.0549 10.2109 19.3596C8.96094 19.6096 7.28906 20.1018 7.07812 20.594V20.3596C7.19531 20.0159 8.4375 19.5081 10.1875 19.1565C12.1027 18.809 14.0458 18.6391 15.9922 18.6487ZM15.9922 17.8909C17.9048 17.8835 19.8141 18.0535 21.6953 18.3987C23.3359 18.7268 24.5078 19.1409 24.8984 19.6096V19.8362C24.4219 19.2581 22.8516 18.8362 21.6484 18.594C20.0625 18.2815 18.0547 18.0862 15.9922 18.0862C14.0585 18.0802 12.1285 18.2528 10.2266 18.6018C9.01562 18.8362 7.27344 19.3518 7.07812 19.8362V19.6018C7.19531 19.2659 8.46875 18.7424 10.1875 18.4065C12.1024 18.0564 14.0456 17.8838 15.9922 17.8909ZM15.9531 14.0393C19.2266 14.0237 22.0859 14.5003 23.3906 15.1721L23.8672 15.9924C22.7344 15.3831 19.6484 14.7424 15.9531 14.844C12.9453 14.8596 9.73438 15.1721 8.11719 16.0315L8.6875 15.0784C10.0156 14.3909 13.1406 14.0471 15.9531 14.0393Z" fill="#FFFF00" stroke="black" stroke-width="0.1" stroke-linecap="round" stroke-linejoin="round"/>
<path fill-rule="evenodd" clip-rule="evenodd" d="M15.9922 14.7189C17.8672 14.7189 19.6641 14.8205 21.1016 15.0783C22.4375 15.3283 23.7188 15.7033 23.8984 15.9064L24.0391 16.1564C23.5938 15.8674 22.4922 15.5392 21.0703 15.2736C19.3914 15.0062 17.692 14.8885 15.9922 14.922C13.8828 14.922 12.2422 15.0236 10.8359 15.2736C9.35156 15.547 8.32031 15.9455 8.0625 16.133L8.20313 15.8752C8.69531 15.6174 9.48438 15.3127 10.8047 15.0783C12.2578 14.8127 13.9063 14.7345 15.9922 14.7189ZM15.9922 13.9689C17.6422 13.943 19.2914 14.058 20.9219 14.3127C22.0078 14.5236 23.0781 14.8517 23.4766 15.1408L23.6797 15.4689C23.3281 15.0783 22.0078 14.7111 20.8359 14.508C19.4766 14.2736 17.7813 14.1799 15.9922 14.1642C14.1172 14.1642 12.3828 14.2814 11.0391 14.5236C9.75781 14.7736 8.92969 15.0627 8.57813 15.2892L8.75781 15.008C9.24219 14.758 10.0234 14.5236 11.0078 14.3283C12.3594 14.0861 14.1094 13.9689 15.9922 13.9689ZM20.3672 23.6642C18.9227 23.4152 17.4577 23.3053 15.9922 23.3361C10.5313 23.3986 8.77344 24.4533 8.55469 24.7736L8.14844 24.1095C9.53125 23.1017 12.5 22.5392 16.0156 22.5939C17.8359 22.6252 19.4063 22.7502 20.7344 23.0002L20.3594 23.6642" fill="#FFFF00"/>
<path d="M20.3672 23.6642C18.9227 23.4152 17.4577 23.3053 15.9922 23.3361C10.5313 23.3986 8.77344 24.4533 8.55469 24.7736L8.14844 24.1095C9.53125 23.1017 12.5 22.5392 16.0156 22.5939C17.8359 22.6252 19.4063 22.7502 20.7344 23.0002L20.3594 23.6642M15.9922 14.7189C17.8672 14.7189 19.6641 14.8205 21.1016 15.0783C22.4375 15.3283 23.7188 15.7033 23.8984 15.9064L24.0391 16.1564C23.5938 15.8674 22.4922 15.5392 21.0703 15.2736C19.3914 15.0062 17.692 14.8885 15.9922 14.922C13.8828 14.922 12.2422 15.0236 10.8359 15.2736C9.35156 15.547 8.32031 15.9455 8.0625 16.133L8.20313 15.8752C8.69531 15.6174 9.48438 15.3127 10.8047 15.0783C12.2578 14.8127 13.9063 14.7345 15.9922 14.7189V14.7189ZM15.9922 13.9689C17.6422 13.943 19.2914 14.058 20.9219 14.3127C22.0078 14.5236 23.0781 14.8517 23.4766 15.1408L23.6797 15.4689C23.3281 15.0783 22.0078 14.7111 20.8359 14.508C19.4766 14.2736 17.7813 14.1799 15.9922 14.1642C14.1172 14.1642 12.3828 14.2814 11.0391 14.5236C9.75781 14.7736 8.92969 15.0627 8.57813 15.2892L8.75781 15.008C9.24219 14.758 10.0234 14.5236 11.0078 14.3283C12.3594 14.0861 14.1094 13.9689 15.9922 13.9689V13.9689Z" stroke="black" stroke-width="0.1" stroke-linecap="round" stroke-linejoin="round"/>
<path fill-rule="evenodd" clip-rule="evenodd" d="M15.9609 23.2424C17.4766 23.2658 18.9687 23.3205 20.414 23.5939L20.3047 23.7814C18.873 23.5342 17.4214 23.4218 15.9687 23.4455C13.9531 23.4299 11.9062 23.6174 10.1406 24.1252C9.57812 24.2814 8.65625 24.6408 8.55469 24.9377L8.45312 24.7658C8.48437 24.5939 9.04687 24.2268 10.0937 23.9377C12.125 23.3518 14.0234 23.258 15.9531 23.2346L15.9609 23.2424ZM16.0312 22.4768C17.6314 22.4752 19.2287 22.6138 20.8047 22.8908L20.6953 23.0861C19.1594 22.8052 17.6004 22.6691 16.0391 22.6799C14.0156 22.6799 11.875 22.8283 9.92187 23.3908C9.29687 23.5783 8.20312 23.9689 8.17187 24.2814L8.07031 24.1018C8.09375 23.8205 9.03125 23.4455 9.88281 23.1955C11.8888 22.6708 13.9583 22.4289 16.0312 22.4768Z" fill="#FFFF00" stroke="black" stroke-width="0.1" stroke-linecap="round" stroke-linejoin="round"/>
<path fill-rule="evenodd" clip-rule="evenodd" d="M23.7813 24.2111L23.125 25.2267L21.2422 23.5548L16.3516 20.2736L10.8438 17.2423L7.97656 16.2657L8.58594 15.1329L8.79688 15.0236L10.5781 15.4689L16.4375 18.4923L19.8203 20.6251L22.6563 22.6564L23.8125 23.9923L23.7813 24.2111Z" fill="#FFFF00" stroke="black" stroke-width="0.1" stroke-linecap="round" stroke-linejoin="round"/>
<path fill-rule="evenodd" clip-rule="evenodd" d="M7.875 16.2893C8.38281 15.9534 12.0703 17.594 15.9219 19.9221C19.7734 22.2581 23.4531 24.8909 23.125 25.3909L23.0156 25.5549L22.9609 25.594C22.9766 25.594 23.0313 25.5159 22.9609 25.3362C22.7891 24.7971 20.1875 22.719 15.8516 20.1018C11.6328 17.5862 8.11719 16.0706 7.76562 16.5081L7.875 16.2893ZM23.9141 24.1956C24.2266 23.5706 20.8125 20.9924 16.5703 18.4846C12.2344 16.0237 9.10156 14.5784 8.53125 15.0081L8.40625 15.2424C8.40625 15.2502 8.40625 15.2268 8.4375 15.2034C8.53906 15.1174 8.71094 15.1252 8.78906 15.1252C9.77344 15.1331 12.5859 16.4221 16.5234 18.6877C18.25 19.6877 23.8203 23.2659 23.7969 24.2659C23.7969 24.3518 23.8047 24.3674 23.7734 24.4143L23.9141 24.1956Z" fill="#FFFF00" stroke="black" stroke-width="0.1" stroke-linecap="round" stroke-linejoin="round"/>
<path d="M10.7178 20.9741C10.7191 21.6641 10.8573 22.347 11.1243 22.9832C11.3913 23.6195 11.7818 24.1964 12.2733 24.6807C12.7588 25.1737 13.3371 25.5658 13.9748 25.8343C14.6125 26.1028 15.297 26.2424 15.9889 26.2452C17.3892 26.2451 18.7321 25.6887 19.7222 24.6985C20.212 24.2115 20.6007 23.6326 20.8662 22.995C21.1316 22.3574 21.2684 21.6736 21.2689 20.983V13.9429L10.7178 13.9252V20.9741Z" fill="#F5F5F5" stroke="black" stroke-width="0.1"/>
<path d="M10.9141 20.9829C10.9159 21.6448 11.0489 22.2998 11.3052 22.91C11.5615 23.5203 11.9361 24.0738 12.4074 24.5385C13.3538 25.4898 14.6389 26.0269 15.9807 26.0318C17.3203 26.0326 18.6054 25.5019 19.5541 24.5563C20.0238 24.0908 20.3968 23.537 20.6515 22.9268C20.9063 22.3166 21.0378 21.662 21.0385 21.0007V14.1562H10.9318V20.9829H10.9141ZM19.0208 16.2096V20.5563L19.0119 21.0096C19.0149 21.4067 18.9377 21.8003 18.7849 22.1669C18.6322 22.5335 18.407 22.8654 18.123 23.1429C17.5577 23.7102 16.7904 24.0299 15.9896 24.0318C15.1541 24.0318 14.4163 23.6763 13.8652 23.1252C13.298 22.5599 12.9783 21.7926 12.9763 20.9918V16.1918L19.0208 16.2096Z" fill="#FF0000" stroke="black" stroke-width="0.1"/>
<path d="M11.5713 15.9429C11.5802 15.4541 11.9268 15.3385 11.9268 15.3385C11.9357 15.3385 12.3091 15.4629 12.3091 15.9518H11.5713" fill="#FFFF00"/>
<path d="M11.2692 15.3474L11.207 15.9074H11.5803C11.5803 15.4452 11.9358 15.3741 11.9358 15.3741C11.9447 15.3741 12.2914 15.4718 12.3003 15.9074H12.6736L12.6025 15.3385H11.2692V15.3474ZM11.1803 15.9163H12.6914C12.7181 15.9163 12.7447 15.943 12.7447 15.9785C12.7447 16.023 12.7181 16.0496 12.6914 16.0496H11.1803C11.1536 16.0496 11.127 16.023 11.127 15.9785C11.127 15.943 11.1536 15.9163 11.1892 15.9163H11.1803Z" fill="#FFFF00" stroke="black" stroke-width="0.1"/>
<path d="M11.731 15.9073C11.731 15.614 11.9354 15.534 11.9354 15.534C11.9354 15.534 12.1399 15.6229 12.1399 15.9073H11.731ZM11.2154 15.1073H12.6643C12.691 15.1073 12.7177 15.1429 12.7177 15.1784C12.7177 15.2051 12.691 15.2318 12.6643 15.2318H11.2154C11.1888 15.2318 11.1621 15.2051 11.1621 15.1696C11.1621 15.1429 11.1888 15.1162 11.2154 15.1162V15.1073ZM11.251 15.2407H12.6199C12.6466 15.2407 12.6732 15.2673 12.6732 15.3029C12.6732 15.3384 12.6466 15.3651 12.6199 15.3651H11.2421C11.2066 15.3651 11.1888 15.3384 11.1888 15.3029C11.1888 15.2673 11.2066 15.2407 11.2421 15.2407H11.251ZM11.6954 14.2984H11.8021V14.3696H11.8821V14.2984H11.9977V14.3784H12.0777V14.2896H12.1843V14.4673C12.1843 14.5029 12.1666 14.5207 12.1399 14.5207H11.7488C11.7221 14.5207 11.6954 14.5029 11.6954 14.4762V14.2984ZM12.1043 14.5384L12.131 15.1073H11.7488L11.7754 14.5296H12.1043" fill="#FFFF00"/>
<path d="M12.1043 14.5384L12.131 15.1073H11.7488L11.7754 14.5296H12.1043M11.731 15.9073C11.731 15.614 11.9354 15.534 11.9354 15.534C11.9354 15.534 12.1399 15.6229 12.1399 15.9073H11.731ZM11.2154 15.1073H12.6643C12.691 15.1073 12.7177 15.1429 12.7177 15.1784C12.7177 15.2051 12.691 15.2318 12.6643 15.2318H11.2154C11.1888 15.2318 11.1621 15.2051 11.1621 15.1696C11.1621 15.1429 11.1888 15.1162 11.2154 15.1162V15.1073ZM11.251 15.2407H12.6199C12.6466 15.2407 12.6732 15.2673 12.6732 15.3029C12.6732 15.3384 12.6466 15.3651 12.6199 15.3651H11.2421C11.2066 15.3651 11.1888 15.3384 11.1888 15.3029C11.1888 15.2673 11.2066 15.2407 11.2421 15.2407H11.251ZM11.6954 14.2984H11.8021V14.3696H11.8821V14.2984H11.9977V14.3784H12.0777V14.2896H12.1843V14.4673C12.1843 14.5029 12.1666 14.5207 12.1399 14.5207H11.7488C11.7221 14.5207 11.6954 14.5029 11.6954 14.4762V14.2984Z" stroke="black" stroke-width="0.1"/>
<path d="M11.6427 14.8052V15.1074H11.2871V14.8052H11.6427Z" fill="#FFFF00" stroke="black" stroke-width="0.1"/>
<path d="M11.2236 14.5741H11.3303V14.663H11.4103V14.5741H11.517V14.663H11.597V14.5741H11.7036V14.7519C11.7036 14.7874 11.6859 14.8052 11.6592 14.8052H11.277C11.2628 14.8052 11.2493 14.7996 11.2393 14.7896C11.2293 14.7796 11.2236 14.766 11.2236 14.7519V14.5741Z" fill="#FFFF00" stroke="black" stroke-width="0.1"/>
<path d="M11.8994 14.7163C11.8994 14.6629 11.9794 14.6629 11.9794 14.7163V14.8585H11.8994V14.7163Z" fill="black"/>
<path d="M11.4287 14.9117C11.4287 14.8584 11.4998 14.8584 11.4998 14.9117V15.0184H11.4287V14.9117Z" fill="black"/>
<path d="M15.3399 20.2095C15.3383 20.3971 15.4082 20.5783 15.5354 20.7162C15.5948 20.7826 15.6674 20.8358 15.7485 20.8726C15.8296 20.9093 15.9175 20.9287 16.0065 20.9295C16.1932 20.9295 16.3621 20.8406 16.4776 20.7162C16.6049 20.5783 16.6748 20.3971 16.6732 20.2095V19.2495H15.3399V20.2095Z" fill="#003399"/>
<path d="M15.6509 19.7474C15.7245 19.7474 15.7842 19.6877 15.7842 19.614C15.7842 19.5404 15.7245 19.4807 15.6509 19.4807C15.5773 19.4807 15.5176 19.5404 15.5176 19.614C15.5176 19.6877 15.5773 19.7474 15.6509 19.7474Z" fill="#F5F5F5"/>
<path d="M16.3882 19.7474C16.4619 19.7474 16.5215 19.6877 16.5215 19.614C16.5215 19.5404 16.4619 19.4807 16.3882 19.4807C16.3146 19.4807 16.2549 19.5404 16.2549 19.614C16.2549 19.6877 16.3146 19.7474 16.3882 19.7474Z" fill="#F5F5F5"/>
<path d="M16.0152 20.1029C16.0888 20.1029 16.1485 20.0432 16.1485 19.9695C16.1485 19.8959 16.0888 19.8362 16.0152 19.8362C15.9415 19.8362 15.8818 19.8959 15.8818 19.9695C15.8818 20.0432 15.9415 20.1029 16.0152 20.1029Z" fill="#F5F5F5"/>
<path d="M15.6509 20.4762C15.7245 20.4762 15.7842 20.4165 15.7842 20.3428C15.7842 20.2692 15.7245 20.2095 15.6509 20.2095C15.5773 20.2095 15.5176 20.2692 15.5176 20.3428C15.5176 20.4165 15.5773 20.4762 15.6509 20.4762Z" fill="#F5F5F5"/>
<path d="M16.3882 20.4762C16.4619 20.4762 16.5215 20.4165 16.5215 20.3428C16.5215 20.2692 16.4619 20.2095 16.3882 20.2095C16.3146 20.2095 16.2549 20.2692 16.2549 20.3428C16.2549 20.4165 16.3146 20.4762 16.3882 20.4762Z" fill="#F5F5F5"/>
</g>
</svg>
