<svg width="40" height="40" viewBox="0 0 40 40" fill="none" xmlns="http://www.w3.org/2000/svg">
<mask id="mask0" style="mask-type:alpha" maskUnits="userSpaceOnUse" x="0" y="0" width="40" height="40">
<rect width="40" height="40" rx="2" fill="white"/>
</mask>
<g mask="url(#mask0)">
<path fill-rule="evenodd" clip-rule="evenodd" d="M-4.84375 0H75.1597V39.9977H-4.84375V0Z" fill="#F5F5F5"/>
<path fill-rule="evenodd" clip-rule="evenodd" d="M-4.84375 26.6704H75.1597V39.9976H-4.84375V26.6704Z" fill="#DE2918"/>
<path fill-rule="evenodd" clip-rule="evenodd" d="M-4.84375 13.3353H75.1597V26.6706H-4.84375V13.3353Z" fill="#08399C"/>
<path fill-rule="evenodd" clip-rule="evenodd" d="M17.8362 7.26273C17.5225 12.0805 17.3456 14.7186 16.6137 15.9411C15.8174 17.2521 15.0453 18.2092 11.9487 19.3674C8.86025 18.2092 8.08812 17.2521 7.29187 15.9411C6.568 14.7186 6.38301 12.0805 6.06934 7.26273L6.52778 7.10992C7.44468 6.82841 8.13638 6.60321 8.64309 6.5067C9.36695 6.34584 9.98626 6.17693 11.9407 6.13672C13.8951 6.16889 14.5145 6.35388 15.2383 6.5067C15.7531 6.61125 16.4689 6.82841 17.3777 7.10992L17.8362 7.27078V7.26273Z" fill="#DE2918"/>
<path fill-rule="evenodd" clip-rule="evenodd" d="M17.3863 7.10198C17.0887 11.9117 16.8475 14.1155 16.4533 15.1691C15.7054 16.9868 14.515 17.9841 11.9493 18.9251C9.39162 17.9761 8.20126 16.9868 7.44522 15.1691C7.05916 14.1155 6.80982 11.9197 6.52832 7.10198C7.42913 6.82048 8.13691 6.60332 8.64362 6.49876C9.36749 6.34594 9.9868 6.16096 11.9412 6.12878C13.8957 6.16096 14.523 6.34594 15.2469 6.49876C15.7617 6.60332 16.4775 6.82048 17.3863 7.10198Z" fill="#08399C"/>
<path fill-rule="evenodd" clip-rule="evenodd" d="M11.9498 8.57373L12.0705 8.87132L12.6094 8.94371L12.2635 9.15282L12.6013 9.37803L12.1107 9.45846L11.9579 9.72387L11.797 9.45041L11.3145 9.38607L11.6362 9.15282L11.3145 8.94371L11.8292 8.86328L11.9498 8.57373Z" fill="#FFCC00"/>
<path fill-rule="evenodd" clip-rule="evenodd" d="M16.2688 14.0349L15.9712 13.7937L15.754 13.4398L15.3358 13.0698L15.1106 12.6998L14.6924 12.3218L14.4832 11.9518L14.258 11.7668L14.1052 11.6301L13.7272 11.9599L13.5181 12.3298L13.2527 12.5631L12.9712 12.3379L12.754 11.9599L11.9497 10.5363L11.1454 11.9599L10.9363 12.3379L10.6467 12.5631L10.3894 12.3218L10.1803 11.9599L9.80223 11.6301L9.64942 11.7668L9.42421 11.9518L9.21509 12.3218L8.79686 12.6998L8.57166 13.0698L8.14538 13.4398L7.93626 13.7937L7.63867 14.0349C7.81037 15.1078 8.31713 16.0988 9.08641 16.8661C9.60116 17.3567 10.6548 18.0243 11.9417 18.4666C12.9985 18.132 13.9757 17.5845 14.813 16.858C15.5837 16.094 16.0933 15.1059 16.2688 14.0349Z" fill="#F5F5F5"/>
<path fill-rule="evenodd" clip-rule="evenodd" d="M13.2375 6.55492L13.3581 6.84447L13.897 6.92489L13.5511 7.12597L13.8889 7.35922L13.3983 7.43965L13.2455 7.70506L13.0847 7.4316L12.6101 7.36726L12.9318 7.12597L12.6021 6.92489L13.1168 6.84447L13.2375 6.55492ZM10.6637 6.55492L10.7844 6.83642L11.3232 6.91685L10.9774 7.12597L11.3152 7.35117L10.8246 7.4316L10.6718 7.69702L10.5029 7.42356L10.0364 7.35922L10.3581 7.12597L10.0283 6.91685L10.5431 6.83642L10.6637 6.54688V6.55492Z" fill="#FFCC00"/>
<path fill-rule="evenodd" clip-rule="evenodd" d="M15.6011 15.8606H15.022L14.4832 15.8204L13.8317 15.4987L13.0917 15.5067L12.4563 15.8204L11.9577 15.8606L11.451 15.8204L10.8156 15.5067H10.0836L9.43217 15.8284L8.89329 15.8606H8.29811L8.0166 15.378L8.02465 15.3619L8.90133 15.5067L9.43217 15.4665L10.0836 15.1448H10.8236L11.467 15.4665L11.9657 15.5067L12.4644 15.4585L13.1078 15.1528H13.8317L14.4912 15.4665L15.0301 15.5067L15.8746 15.3539L15.8907 15.378L15.6011 15.8606ZM8.84503 16.6086L9.42412 16.5684L10.0756 16.2467H10.8075L11.451 16.5603L11.9496 16.6086L12.4483 16.5603L13.0917 16.2467H13.8236L14.4751 16.5684L15.0622 16.6086L15.4403 16.1421L15.4242 16.126L15.022 16.2467L14.4832 16.2064L13.8317 15.8847H13.0998L12.4563 16.2064L11.9577 16.2467L11.459 16.2064L10.8156 15.8847H10.0836L9.43217 16.2064L8.89329 16.2467L8.49114 16.1501V16.1662L8.84503 16.6086Z" fill="#08399C"/>
</g>
</svg>
