<svg width="40" height="40" viewBox="0 0 40 40" fill="none" xmlns="http://www.w3.org/2000/svg">
<mask id="mask0" style="mask-type:alpha" maskUnits="userSpaceOnUse" x="0" y="0" width="40" height="40">
<rect width="40" height="40" rx="2" fill="white"/>
</mask>
<g mask="url(#mask0)">
<path d="M-20 0H60V40H-20V0Z" fill="#012169"/>
<path d="M-20 0V4.472L51.056 40H60V35.528L-11.056 0.008H-20V0ZM60 0V4.472L-11.056 40H-20V35.528L51.056 0H60Z" fill="#F5F5F5"/>
<path d="M13.336 0V40H26.664V0H13.336ZM-20 13.336V26.664H60V13.336H-20Z" fill="#F5F5F5"/>
<path d="M-20 16V24H60V16H-20ZM16 0V40H24V0H16ZM-20 40L6.664 26.664H12.64L-14.04 40H-20ZM-20 0L6.664 13.336H0.704002L-20 2.984V0ZM27.368 13.336L54.04 0H60L33.336 13.336H27.36H27.368ZM60.008 40L33.328 26.664H39.288L60 37.016V40H60.008Z" fill="#C8102E"/>
</g>
</svg>
