<svg width="40" height="40" viewBox="0 0 40 40" fill="none" xmlns="http://www.w3.org/2000/svg">
<mask id="mask0" style="mask-type:alpha" maskUnits="userSpaceOnUse" x="0" y="0" width="40" height="40">
<rect width="40" height="40" rx="2" fill="white"/>
</mask>
<g mask="url(#mask0)">
<path fill-rule="evenodd" clip-rule="evenodd" d="M20 0H40V40H20V0Z" fill="#CE0000"/>
<path fill-rule="evenodd" clip-rule="evenodd" d="M0 0H20V40H0V0Z" fill="#F5F5F5"/>
<path fill-rule="evenodd" clip-rule="evenodd" d="M8.18715 8.44567C8.18715 8.50856 8.11605 8.56052 8.02854 8.56052C7.93829 8.56052 7.86719 8.50583 7.86719 8.44567C7.86719 8.38277 7.93829 8.33081 8.0258 8.33081C8.11332 8.33081 8.18989 8.38277 8.18989 8.44567H8.18715Z" fill="#F1EEEE"/>
<path fill-rule="evenodd" clip-rule="evenodd" d="M3.17969 7.89044V10.7973H6.08948C6.10608 11.0489 6.21334 11.2859 6.39135 11.4644C6.56937 11.6429 6.80607 11.7508 7.05758 11.7681V14.675H9.96463V11.7681C10.2161 11.7508 10.4528 11.6429 10.6309 11.4644C10.8089 11.2859 10.9161 11.0489 10.9327 10.7973H13.8398V7.89044H10.9327C10.9155 7.63938 10.808 7.40305 10.63 7.2251C10.4521 7.04716 10.2157 6.93963 9.96463 6.92239V4.0155H7.05758V6.92239C6.80651 6.93963 6.57016 7.04716 6.3922 7.2251C6.21425 7.40305 6.10672 7.63938 6.08948 7.89044H3.17969Z" fill="#CC0000"/>
<path fill-rule="evenodd" clip-rule="evenodd" d="M3.27832 7.989V10.7017H6.18538C6.20262 10.9528 6.31015 11.1891 6.48811 11.3671C6.66606 11.545 6.90241 11.6525 7.15348 11.6698V14.5794H9.86637V11.6698C10.1179 11.6532 10.3549 11.5459 10.5335 11.3679C10.712 11.1899 10.8199 10.9532 10.8372 10.7017H13.7443V7.989H10.8372C10.8205 7.73702 10.7129 7.49967 10.5343 7.3211C10.3557 7.14253 10.1184 7.0349 9.86637 7.01822V4.11133H7.15348V7.01822C6.90246 7.03617 6.66641 7.14436 6.48896 7.32281C6.31151 7.50126 6.20464 7.73789 6.18811 7.989H3.27832Z" fill="#FFE600"/>
<path fill-rule="evenodd" clip-rule="evenodd" d="M3.37109 8.08466V10.6032H6.27815C6.29483 10.8552 6.40247 11.0926 6.58105 11.2711C6.75963 11.4497 6.99699 11.5573 7.24899 11.574V14.4809H9.7677V11.5713C10.0192 11.554 10.2559 11.4461 10.4339 11.2675C10.6119 11.089 10.7192 10.852 10.7358 10.6005H13.6429V8.08466H10.7358C10.7193 7.83355 10.6124 7.59691 10.435 7.41846C10.2575 7.24002 10.0215 7.13182 9.77044 7.11387V4.20972H7.25172V7.11387C7.00016 7.13048 6.76316 7.23773 6.58464 7.41573C6.40612 7.59374 6.2982 7.83043 6.28088 8.08192H3.37109V8.08466Z" fill="#707070"/>
<path fill-rule="evenodd" clip-rule="evenodd" d="M3.46973 8.18049V10.5049H6.37678C6.39339 10.7565 6.50064 10.9934 6.67866 11.172C6.85667 11.3505 7.09338 11.4584 7.34489 11.4757V14.3826H9.66944V11.4757C9.921 11.4591 10.158 11.3518 10.3365 11.1738C10.515 10.9958 10.623 10.7591 10.6403 10.5076H13.5446V8.18322H10.6403C10.6237 7.93167 10.5164 7.69468 10.3384 7.51617C10.1604 7.33767 9.92369 7.22975 9.67217 7.21243V4.30554H7.34762V7.21243C7.09606 7.22904 6.85906 7.33629 6.68054 7.51429C6.50202 7.6923 6.3941 7.92899 6.37678 8.18049H3.46973Z" fill="#A0A0A0"/>
<path fill-rule="evenodd" clip-rule="evenodd" d="M7.36907 6.97163C7.54136 7.14391 7.40189 7.55683 7.06278 7.89866C6.72367 8.24048 6.30798 8.37721 6.13569 8.20493C5.96613 8.03539 6.10561 7.62246 6.44472 7.28064C6.78383 6.93881 7.19952 6.80208 7.36907 6.97163Z" fill="#D0D0D0"/>
<path fill-rule="evenodd" clip-rule="evenodd" d="M7.16392 7.17664C7.33621 7.34892 7.28972 7.66887 7.06273 7.89584C6.83574 8.12281 6.51304 8.1693 6.34348 7.99976C6.17119 7.83021 6.21768 7.50753 6.44467 7.28056C6.67166 7.05358 6.99436 7.00709 7.16392 7.17664Z" fill="#808080"/>
<path fill-rule="evenodd" clip-rule="evenodd" d="M6.30762 7.69108L6.37599 7.62272L6.64946 7.75945L6.51272 7.48599L6.58109 7.41762L6.85457 7.96454L6.30762 7.69108ZM6.71783 7.28089L6.7862 7.21252L7.19641 7.62272L7.13078 7.69108L6.71783 7.28089Z" fill="#D0D0D0"/>
<path fill-rule="evenodd" clip-rule="evenodd" d="M10.8808 8.20755C10.7112 8.3771 10.2956 8.23763 9.95644 7.89854C9.61733 7.55945 9.47785 7.14378 9.64741 6.9715C9.8197 6.80196 10.2327 6.94142 10.5718 7.28051C10.9109 7.61961 11.0504 8.03527 10.8808 8.20481V8.20755Z" fill="#D0D0D0"/>
<path fill-rule="evenodd" clip-rule="evenodd" d="M10.6752 7.99947C10.5057 8.16902 10.183 8.12527 9.95598 7.8983C9.729 7.67132 9.6825 7.34864 9.85206 7.1791C10.0216 7.00955 10.3443 7.05331 10.5713 7.28028C10.7983 7.50725 10.8448 7.8272 10.6752 7.99947Z" fill="#808080"/>
<path fill-rule="evenodd" clip-rule="evenodd" d="M10.1612 7.14111L10.2295 7.21221L10.0928 7.48567L10.3663 7.34894L10.4346 7.41731L9.8877 7.69077L10.1612 7.14385V7.14111ZM10.5714 7.55404L10.6397 7.6224L10.2295 8.0326L10.1612 7.96697L10.5714 7.55404Z" fill="#D0D0D0"/>
<path fill-rule="evenodd" clip-rule="evenodd" d="M9.64741 11.716C9.47785 11.5465 9.61733 11.1308 9.95644 10.7917C10.2956 10.4527 10.7112 10.3132 10.8808 10.4827C11.0504 10.6523 10.9136 11.0679 10.5718 11.407C10.2299 11.7461 9.8197 11.8856 9.64741 11.716Z" fill="#D0D0D0"/>
<path fill-rule="evenodd" clip-rule="evenodd" d="M9.85206 11.511C9.6825 11.3414 9.729 11.0188 9.95598 10.7918C10.183 10.5648 10.5029 10.5183 10.6752 10.6879C10.8448 10.8602 10.7983 11.1801 10.5713 11.4071C10.3443 11.634 10.0244 11.6805 9.85206 11.511Z" fill="#808080"/>
<path fill-rule="evenodd" clip-rule="evenodd" d="M10.7109 10.9966L10.6425 11.065L10.369 10.9282L10.5058 11.2017L10.4347 11.2701L10.1612 10.7231L10.7081 10.9966H10.7109ZM10.3007 11.4068L10.2296 11.4752L9.81934 11.065L9.88771 10.9966L10.3007 11.4068Z" fill="#D0D0D0"/>
<path fill-rule="evenodd" clip-rule="evenodd" d="M6.13892 10.4829C6.30848 10.3133 6.72143 10.45 7.06327 10.7919C7.40512 11.1337 7.54186 11.5466 7.3723 11.7162C7.20001 11.8857 6.78706 11.749 6.44521 11.4071C6.10337 11.0653 5.96663 10.6524 6.13892 10.4829Z" fill="#D0D0D0"/>
<path fill-rule="evenodd" clip-rule="evenodd" d="M6.34348 10.6879C6.51304 10.5183 6.83574 10.5648 7.06273 10.7918C7.28972 11.0188 7.33621 11.3387 7.16392 11.511C6.99436 11.6805 6.67166 11.634 6.44467 11.4071C6.21768 11.1801 6.17119 10.8602 6.34348 10.6879Z" fill="#808080"/>
<path fill-rule="evenodd" clip-rule="evenodd" d="M6.85554 11.5439L6.78717 11.4755L6.9239 11.2021L6.65043 11.3388L6.58206 11.2704L7.12901 10.997L6.85554 11.5439ZM6.44532 11.1337L6.37695 11.0653L6.78717 10.6552L6.85554 10.7235L6.44532 11.1337Z" fill="#D0D0D0"/>
<path d="M10.5457 9.3451C10.5457 10.4663 9.63485 11.3797 8.51029 11.3797C7.38573 11.3797 6.47754 10.469 6.47754 9.3451C6.47754 8.22117 7.3884 7.31055 8.51296 7.31055C9.63752 7.31055 10.5484 8.22117 10.5484 9.3451H10.5457Z" stroke="#707070"/>
<path d="M10.0605 9.3448C10.0605 10.199 9.36653 10.8949 8.50972 10.8949C7.6529 10.8949 6.96094 10.2011 6.96094 9.3448C6.96094 8.48848 7.65494 7.79468 8.51175 7.79468C9.36857 7.79468 10.0626 8.48848 10.0626 9.3448H10.0605Z" stroke="#707070"/>
<path fill-rule="evenodd" clip-rule="evenodd" d="M7.82913 10.9913C7.82913 11.0167 7.81904 11.0411 7.80109 11.059C7.78314 11.077 7.7588 11.0871 7.73341 11.0871C7.70803 11.0871 7.68368 11.077 7.66573 11.059C7.64778 11.0411 7.6377 11.0167 7.6377 10.9913C7.6377 10.966 7.64778 10.9416 7.66573 10.9237C7.68368 10.9057 7.70803 10.8956 7.73341 10.8956C7.7588 10.8956 7.78314 10.9057 7.80109 10.9237C7.81904 10.9416 7.82913 10.966 7.82913 10.9913ZM9.38248 10.9913C9.38248 11.0171 9.37225 11.0418 9.35404 11.06C9.33583 11.0782 9.31114 11.0884 9.28539 11.0884C9.25964 11.0884 9.23495 11.0782 9.21674 11.06C9.19854 11.0418 9.18831 11.0171 9.18831 10.9913C9.18831 10.966 9.19839 10.9416 9.21634 10.9237C9.23429 10.9057 9.25864 10.8956 9.28403 10.8956C9.30941 10.8956 9.33376 10.9057 9.35171 10.9237C9.36966 10.9416 9.37974 10.966 9.37974 10.9913H9.38248ZM8.44445 10.9913V11.0925H8.31592C8.18738 11.0925 8.18738 11.1937 8.31592 11.1937H8.44445V11.2949C8.44445 11.3988 8.55931 11.4125 8.56752 11.3031L8.57572 11.1937H8.70425C8.83279 11.1937 8.83279 11.0925 8.70425 11.0925H8.57572V10.9913C8.57572 10.8902 8.44445 10.8902 8.44445 10.9913Z" fill="#D0D0D0"/>
<path fill-rule="evenodd" clip-rule="evenodd" d="M8.02815 9.56055V9.61712C8.02815 9.61712 7.99834 9.66158 7.80412 9.67532C7.6099 9.68906 7.58009 9.67532 7.58009 9.67532C7.58551 9.72462 7.62255 9.81999 7.61171 9.93314C7.61984 10.0641 7.57558 10.1837 7.57558 10.1837C7.58009 10.1902 7.55751 10.1942 7.51596 10.1902C7.54848 10.1619 7.54396 10.0786 7.54848 9.96143C7.55209 9.84343 7.42562 9.66643 7.45182 9.61793C7.47801 9.56944 8.02815 9.56055 8.02815 9.56055Z" fill="#D0D0D0" stroke="#707070"/>
<path fill-rule="evenodd" clip-rule="evenodd" d="M8.79423 9.35273C8.98303 9.34384 9.2992 9.34545 9.2992 9.34545C9.2992 9.34545 9.37418 9.49498 9.37056 9.57742C9.36695 9.65986 9.34166 9.73098 9.30733 9.69542C9.273 9.65986 9.32269 9.66713 9.32901 9.57742C9.33533 9.48851 9.26939 9.39637 9.26939 9.39637C9.26939 9.39637 9.13389 9.45537 8.93064 9.44325C8.72738 9.43113 8.81772 9.35596 8.79513 9.35273H8.79423Z" fill="#D0D0D0" stroke="#707070"/>
<path fill-rule="evenodd" clip-rule="evenodd" d="M8.86019 9.50075C9.04899 9.49105 9.17275 9.52015 9.17275 9.52015C9.17275 9.52015 9.24683 9.66967 9.24412 9.75211C9.24141 9.83456 9.21521 9.90568 9.17998 9.87012C9.14475 9.83456 9.19624 9.84183 9.20256 9.75211C9.20889 9.66321 9.14204 9.57026 9.14204 9.57026C9.14204 9.57026 9.00653 9.62926 8.80418 9.61795C8.60093 9.60582 8.65875 9.5937 8.63616 9.59046C8.61358 9.58723 8.60725 9.64704 8.30012 9.65512C7.99298 9.66321 7.83579 9.59046 7.83579 9.59046C7.83579 9.59046 7.80508 9.63411 7.61176 9.64704C7.41845 9.65997 7.38773 9.64704 7.38773 9.64704C7.39225 9.69715 7.43019 9.79253 7.41935 9.90568C7.42658 10.0366 7.38322 10.1562 7.38322 10.1562C7.38773 10.1627 7.36425 10.1667 7.3236 10.1627C7.35521 10.1344 7.3516 10.0512 7.35521 9.93397C7.35883 9.81597 7.23326 9.63815 7.25946 9.58966C7.28565 9.54116 7.42477 9.58642 7.45187 9.56056C7.47807 9.5355 7.32721 9.35607 7.35521 9.18877C7.38412 9.02065 7.54311 9.06753 7.74004 9.074C7.93607 9.07965 8.37058 9.13057 8.47627 9.074C8.58106 9.01742 8.53499 8.80727 8.63526 8.67311C8.66329 8.63577 8.70166 8.60557 8.74662 8.58546C8.79159 8.56534 8.84161 8.556 8.89181 8.55833C8.95504 8.55833 9.0517 8.78788 9.0517 8.84445L9.02009 8.87355H8.98756V8.90184C8.9153 8.90992 8.90446 8.8396 8.86019 8.78788C8.84032 8.8687 8.92343 9.13138 8.92343 9.30273C8.92343 9.4466 8.86381 9.50964 8.86019 9.49913V9.50075Z" fill="#D0D0D0" stroke="#707070"/>
<path fill-rule="evenodd" clip-rule="evenodd" d="M8.24269 9.2508C8.24631 9.30738 7.99608 9.43589 7.9753 9.48681C7.95453 9.53773 8.03854 9.56521 8.01324 9.59431C7.98705 9.62341 7.96627 9.61209 7.96085 9.61775C7.95543 9.62341 7.8669 9.41892 7.8669 9.41892C7.8669 9.41892 8.10177 9.31385 8.09274 9.26778C8.08371 9.22171 7.9193 9.19504 7.88858 9.07946C7.85877 8.96469 7.87594 8.74242 7.85155 8.69554C7.82716 8.64947 7.53809 8.60502 7.53809 8.5347C7.53809 8.46438 7.83619 8.27202 7.8669 8.24373C7.89852 8.21463 7.93014 8.27202 7.89852 8.30031C7.8669 8.32941 7.63474 8.50641 7.63474 8.5347C7.63474 8.5638 7.82716 8.59209 7.89129 8.59209C7.95453 8.59209 7.98705 8.5638 7.98705 8.53551C7.98705 8.51045 7.92381 8.50641 7.92381 8.44903C7.92381 8.39164 7.95543 8.36335 8.01957 8.36335C8.05119 8.36335 8.11261 8.39972 8.11532 8.44903C8.11803 8.49752 8.05841 8.50237 8.05119 8.5347C8.04396 8.56703 8.11442 8.59209 8.17946 8.59209C8.24269 8.59209 8.46221 8.75858 8.49382 8.78768C8.52544 8.81597 8.55706 8.81597 8.52544 8.84426C8.49382 8.87335 8.51279 8.9073 8.48027 8.8782C8.45317 8.85072 8.44866 8.82163 8.44866 8.82163C8.44595 8.79495 8.21108 8.67776 8.17946 8.70686C8.14694 8.73514 8.17946 9.07865 8.17946 9.10775C8.17946 9.16432 8.2454 9.16432 8.24269 9.2508Z" fill="#D0D0D0" stroke="#707070"/>
<path fill-rule="evenodd" clip-rule="evenodd" d="M7.83398 8.58801H8.21685V8.99H7.83398V8.58801Z" fill="#A7A7A7"/>
<path d="M9.07743 10.0315L7.79022 8.09929C7.77933 8.08295 7.76457 8.07287 7.75724 8.07678C7.74991 8.08069 7.75279 8.0971 7.76367 8.11344L9.05088 10.0457C9.06177 10.062 9.07654 10.0721 9.08386 10.0682C9.09119 10.0643 9.08831 10.0479 9.07743 10.0315Z" fill="#808080"/>
<path fill-rule="evenodd" clip-rule="evenodd" d="M7.93004 8.27199C7.93004 8.28721 7.92328 8.3018 7.91125 8.31257C7.89922 8.32333 7.88291 8.32938 7.8659 8.32938C7.84889 8.32938 7.83257 8.32333 7.82054 8.31257C7.80852 8.3018 7.80176 8.28721 7.80176 8.27199C7.80176 8.25677 7.80852 8.24217 7.82054 8.23141C7.83257 8.22065 7.84889 8.2146 7.8659 8.2146C7.88291 8.2146 7.89922 8.22065 7.91125 8.23141C7.92328 8.24217 7.93004 8.25677 7.93004 8.27199Z" fill="#D0D0D0" stroke="#707070"/>
<path fill-rule="evenodd" clip-rule="evenodd" d="M9.05106 8.79281C9.05106 8.82016 8.90339 8.84751 8.7311 8.84751C8.55881 8.84751 8.41113 8.82016 8.41113 8.79281C8.41113 8.77093 8.55881 8.82836 8.7311 8.82836C8.90339 8.82836 9.05106 8.77093 9.05106 8.79281Z" fill="#808080"/>
<path fill-rule="evenodd" clip-rule="evenodd" d="M7.86719 8.98987H8.18716V9.10198H7.86719V8.98987Z" fill="#A7A7A7"/>
<path fill-rule="evenodd" clip-rule="evenodd" d="M8.90632 8.70536C8.87897 8.76552 8.84615 8.80654 8.84068 8.79833C8.83521 8.79286 8.85709 8.73817 8.88717 8.68075C8.91999 8.62332 8.95007 8.5823 8.95281 8.58777C8.95828 8.59597 8.93913 8.64793 8.90632 8.70536ZM8.98836 8.85576C8.95281 8.88858 8.92546 8.91045 8.92273 8.90225C8.92273 8.89678 8.95007 8.8667 8.98562 8.83388C9.02118 8.8038 9.05126 8.78193 9.05126 8.79013C9.05126 8.7956 9.02391 8.82568 8.98836 8.85576Z" fill="#808080"/>
<path fill-rule="evenodd" clip-rule="evenodd" d="M8.95016 8.78206C8.97477 8.83129 8.99118 8.8723 8.98571 8.87504C8.98298 8.87504 8.95836 8.83949 8.93102 8.793C8.90367 8.74378 8.88726 8.70549 8.89273 8.70276C8.8982 8.70276 8.92008 8.73831 8.94743 8.7848L8.95016 8.78206ZM8.92281 9.03091C8.92281 9.03912 8.82436 9.04459 8.69856 9.04459C8.57276 9.04459 8.47431 9.03912 8.47431 9.03091C8.47431 9.02271 8.5755 9.01724 8.69856 9.01724C8.82436 9.01724 8.92281 9.02271 8.92281 9.03091ZM8.18716 9.00357C8.18716 9.01177 8.11605 9.01724 8.02854 9.01724C7.93829 9.01724 7.86719 9.01177 7.86719 9.00357C7.86719 8.99536 7.93829 8.98989 8.0258 8.98989C8.11332 8.98989 8.18989 8.99536 8.18989 9.00357H8.18716Z" fill="#808080"/>
<path fill-rule="evenodd" clip-rule="evenodd" d="M7.48438 9.99987C7.48438 9.99987 7.53753 10.1277 7.76198 10.1295C7.98643 10.1313 8.06499 10.0912 7.97344 10.023C7.88189 9.95476 7.71355 9.97643 7.7354 10.035C7.75726 10.0936 7.67161 10.1132 7.65153 10.072C7.63145 10.0308 7.55112 9.90858 7.69583 9.90041C7.84054 9.89224 8.14768 9.84785 8.22446 9.93309C8.30125 10.0183 8.13705 10.0954 8.26109 10.1135C8.38512 10.1313 8.40284 10.0929 8.61548 10.0812C8.82811 10.0695 8.90903 10.1203 8.98168 10.1132C9.05433 10.1061 9.04429 9.98104 8.98641 9.94943C8.92912 9.91746 8.81807 9.91178 8.78972 9.87697C8.76137 9.84216 8.68458 9.87022 8.69167 9.8308C8.69876 9.79137 8.80094 9.85815 8.80212 9.8379C8.80212 9.83719 8.81925 9.82405 8.8228 9.8205C8.8098 9.81765 8.80212 9.82263 8.79267 9.8276C8.80331 9.81907 8.80272 9.81517 8.80626 9.80842C8.80449 9.80593 8.79149 9.81836 8.78913 9.81552C8.78677 9.81268 8.8039 9.79563 8.79622 9.80203C8.79386 9.8038 8.77377 9.81375 8.77318 9.807C8.77318 9.80416 8.78381 9.79705 8.78027 9.79279C8.77732 9.78959 8.76255 9.7967 8.76019 9.79741C8.76905 9.78569 8.76846 9.78604 8.76019 9.77716C8.75251 9.76864 8.74719 9.76864 8.73479 9.77858C8.74011 9.76437 8.74129 9.76153 8.72888 9.75621C8.71943 9.75052 8.71884 9.74555 8.70644 9.77077C8.71116 9.74377 8.69876 9.74235 8.70408 9.72992C8.70703 9.7182 8.72357 9.71323 8.75074 9.71571C8.8039 9.71607 8.83166 9.77965 8.84879 9.77929C8.86651 9.77929 8.88541 9.71216 8.95983 9.73916C9.03366 9.76651 9.04252 9.77183 9.08032 9.78817C9.11753 9.80416 9.05374 9.82866 9.07501 9.86063C9.09627 9.8926 9.24216 9.99845 9.20082 10.1093C9.15947 10.2194 9.05315 10.2371 9.04311 10.2851C9.03366 10.3327 9.37978 10.3135 9.46838 10.3295C9.55698 10.3455 9.6125 10.4112 9.61605 10.4226C9.61959 10.4339 9.46129 10.4329 9.46129 10.4329C9.46129 10.4329 9.37978 10.3909 9.18605 10.3867C8.99172 10.3831 8.91789 10.305 8.84524 10.295C8.77259 10.2851 8.61784 10.3117 8.5316 10.3078C8.44478 10.3039 8.35736 10.2901 8.30125 10.2826C8.24514 10.2748 7.96635 10.4083 7.96753 10.4396C7.90906 10.4371 7.77261 10.43 7.77793 10.4336C7.78384 10.4371 7.80274 10.3732 7.90906 10.3618C8.01537 10.3504 8.11992 10.2993 8.11578 10.2659C8.11283 10.2322 8.13705 10.1167 8.14532 10.0677C8.15359 10.0187 8.19434 9.99454 8.18489 9.96826C8.17544 9.94268 8.05377 9.91604 7.93682 9.91675C7.81987 9.91746 7.68992 9.92386 7.67102 9.95227C7.65212 9.98069 7.66689 10.0624 7.6911 10.0528C7.71473 10.0436 7.6852 9.98992 7.7106 9.97891C7.75783 9.9645 7.81002 9.95696 7.86298 9.95689C7.92441 9.95547 8.03132 10.0091 8.03014 10.0262C8.02896 10.0436 8.0644 10.1007 8.01537 10.1221C7.96635 10.1441 7.86594 10.154 7.76966 10.1491C7.68528 10.1436 7.60561 10.1229 7.54108 10.0897C7.50564 10.0684 7.48438 10.0041 7.48438 9.99951V9.99987Z" fill="#D0D0D0" stroke="#808080"/>
<path fill-rule="evenodd" clip-rule="evenodd" d="M8.90918 9.81018C8.90918 9.81744 8.9063 9.82439 8.90117 9.82952C8.89604 9.83465 8.88909 9.83753 8.88184 9.83753C8.87458 9.83753 8.86763 9.83465 8.8625 9.82952C8.85737 9.82439 8.85449 9.81744 8.85449 9.81018C8.85449 9.80293 8.85737 9.79598 8.8625 9.79085C8.86763 9.78572 8.87458 9.78284 8.88184 9.78284C8.88909 9.78284 8.89604 9.78572 8.90117 9.79085C8.9063 9.79598 8.90918 9.80293 8.90918 9.81018Z" fill="black"/>
<path d="M10.1146 9.43828L10.2404 9.46563L10.4482 9.32069L10.4318 9.39726L10.3224 9.46836L10.2622 9.50664L10.3033 9.56681L10.3716 9.67619L10.3552 9.74729L10.2267 9.52579L10.1009 9.49844L10.1146 9.43828ZM9.90399 8.52219L10.1447 8.41007L10.079 8.26787L10.1118 8.2542L10.2677 8.59602L10.2349 8.6097L10.1693 8.4675L9.92861 8.57688L9.90126 8.52219H9.90399ZM9.52933 8.06551L9.75085 7.86315L9.7946 7.91237L9.78913 8.2542L9.96416 8.09559L10.0052 8.13935L9.78093 8.34171L9.73717 8.29522L9.74538 7.95066L9.57035 8.112L9.52933 8.06551ZM8.55849 7.67446L8.59677 7.37366L8.65694 7.3846L8.62686 7.64712L8.85931 7.67446L8.85384 7.71001L8.55849 7.67446ZM8.08264 7.71822L8.02794 7.42288L8.09084 7.41194L8.13733 7.67173L8.36705 7.63071L8.37526 7.66626L8.08264 7.71822ZM7.19931 8.15302L7.17743 8.12567L7.33605 7.99988L7.40442 8.08739C7.38963 8.11858 7.37128 8.14794 7.34972 8.17489C7.32968 8.2011 7.30675 8.22495 7.28135 8.24599C7.24775 8.27377 7.20989 8.29593 7.16923 8.31162C7.13094 8.3253 7.09812 8.32803 7.06804 8.32256C7.03796 8.31709 7.01334 8.30069 6.9942 8.27881C6.97627 8.25524 6.96665 8.22639 6.96685 8.19677C6.9658 8.16195 6.97534 8.12762 6.9942 8.09833C7.01808 8.06275 7.04765 8.03134 7.08171 8.00535C7.10685 7.9855 7.13442 7.96896 7.16376 7.95613C7.18837 7.94519 7.21025 7.93698 7.23213 7.93698C7.254 7.93698 7.27041 7.94245 7.28956 7.95339L7.25127 7.99715C7.23769 7.99025 7.22274 7.98652 7.20751 7.98621C7.19384 7.98621 7.18017 7.98894 7.16102 7.99715C7.14037 8.00636 7.12105 8.01832 7.10359 8.0327C7.08171 8.0491 7.06257 8.06825 7.0489 8.08739L7.02428 8.13388C7.01892 8.15102 7.01786 8.16921 7.0212 8.18686C7.02454 8.20451 7.03217 8.22106 7.04343 8.23506C7.05834 8.25451 7.07965 8.26807 7.10359 8.27334C7.12547 8.27881 7.15008 8.27608 7.17743 8.26514C7.20478 8.2542 7.23213 8.23779 7.25674 8.22138C7.27726 8.20456 7.29563 8.18527 7.31143 8.16396C7.32784 8.14208 7.33878 8.12294 7.34425 8.10926L7.3087 8.06551L7.19931 8.15302ZM7.1911 10.3161L6.94498 10.4911L6.75901 10.2286L6.78636 10.2094L6.93677 10.42L7.01334 10.3653L6.88481 10.1821L6.91216 10.1629L7.04343 10.3434L7.15282 10.2641L7.1911 10.3188V10.3161ZM6.83012 9.92504C6.84643 9.92049 6.86129 9.9118 6.87327 9.89983C6.88525 9.88785 6.89393 9.87299 6.89848 9.85667C6.90942 9.82112 6.90942 9.78284 6.89848 9.73635C6.88882 9.69602 6.86684 9.6597 6.83558 9.63244C6.82212 9.6212 6.80604 9.61355 6.78882 9.6102C6.77161 9.60686 6.75383 9.60792 6.73713 9.61329C6.71564 9.61914 6.69651 9.63157 6.68244 9.64884C6.66656 9.66831 6.65701 9.69216 6.65509 9.71721C6.65236 9.74456 6.65509 9.7719 6.66329 9.80198C6.67326 9.84155 6.6941 9.87755 6.72346 9.9059C6.75081 9.93324 6.78636 9.93598 6.83012 9.92504ZM6.84652 9.98793C6.7973 10.0016 6.75354 9.99067 6.71526 9.96059C6.67697 9.92504 6.64962 9.87855 6.63048 9.81292C6.61954 9.76917 6.61407 9.73088 6.6168 9.6926C6.61954 9.65431 6.63048 9.62423 6.64962 9.59962C6.66623 9.576 6.69032 9.55866 6.71799 9.5504C6.7469 9.54191 6.77787 9.54384 6.8055 9.55587C6.83683 9.56989 6.86342 9.59269 6.88208 9.6215C6.90437 9.65402 6.92102 9.69008 6.9313 9.72815C6.94224 9.7719 6.94771 9.81019 6.94224 9.84847C6.94014 9.88191 6.92878 9.9141 6.90942 9.94145C6.89422 9.96351 6.87208 9.97987 6.84652 9.98793ZM6.87114 9.37538L6.57031 9.36992L6.57578 9.15935C6.57578 9.1156 6.57852 9.08552 6.58399 9.06364C6.59219 9.04176 6.60039 9.02262 6.61407 9.00895C6.62774 8.99801 6.64415 8.99254 6.66056 8.99254C6.68244 8.99254 6.69885 9.00348 6.71526 9.02536C6.73166 9.04723 6.73713 9.08005 6.73987 9.12654L6.75628 9.09099C6.76756 9.07108 6.78135 9.0527 6.7973 9.03629L6.87934 8.95699V9.03903L6.81371 9.09919L6.77269 9.14294C6.76175 9.15388 6.75628 9.16482 6.75081 9.17576C6.74704 9.18453 6.74429 9.19371 6.7426 9.2031V9.23865L6.73987 9.30975L6.87114 9.31522V9.37812V9.37538ZM6.70432 9.30975L6.70705 9.17302L6.70432 9.10739C6.7017 9.09307 6.69506 9.07979 6.68517 9.06911C6.67754 9.06204 6.66806 9.0573 6.65782 9.05544C6.64415 9.05544 6.63048 9.06364 6.62501 9.08278C6.61386 9.10578 6.60824 9.13106 6.6086 9.15662L6.60586 9.30702L6.70432 9.30975ZM7.54115 7.98621V7.63344L7.60132 7.59789L7.92129 7.75924L7.86112 7.79479L7.76541 7.74556L7.59585 7.84674V7.95066L7.54115 7.98621ZM7.59585 7.80846L7.73259 7.72642L7.64781 7.67993L7.58765 7.64438L7.59311 7.70728V7.80846H7.59585ZM9.04801 7.71548L9.37345 7.57875L9.42814 7.61977L9.409 7.97527L9.34884 7.93425L9.35977 7.8276L9.19569 7.71275L9.10271 7.75377L9.04801 7.71548ZM9.23124 7.69634L9.36251 7.79205L9.37071 7.69361C9.37345 7.66626 9.37618 7.64165 9.38165 7.62524L9.32696 7.65532L9.23124 7.69634ZM10.038 8.81753L10.3306 8.74643L10.3798 8.95152C10.388 8.99254 10.3935 9.02536 10.3935 9.04723C10.3935 9.06753 10.3878 9.08741 10.3771 9.10466C10.3662 9.12107 10.3552 9.132 10.3388 9.13474C10.3169 9.14021 10.2978 9.13474 10.2787 9.1156C10.2545 9.09001 10.2367 9.0591 10.2267 9.02536C10.2267 9.04176 10.2267 9.0527 10.2212 9.06364C10.2146 9.08474 10.2054 9.10495 10.1939 9.1238L10.1337 9.22498L10.1146 9.14841L10.1611 9.07184L10.1911 9.01715C10.1993 9.00348 10.2021 8.98981 10.2048 8.9816C10.2058 8.97251 10.2058 8.96334 10.2048 8.95426L10.1993 8.91871L10.1802 8.84761L10.0517 8.87769L10.038 8.81753ZM10.2158 8.8394L10.2458 8.97066C10.254 8.99801 10.2595 9.01989 10.2677 9.03356C10.2759 9.04997 10.2841 9.0609 10.2951 9.06637C10.3033 9.07184 10.3142 9.07458 10.3224 9.07184C10.3361 9.06911 10.347 9.05817 10.3498 9.04176C10.3558 9.01463 10.3549 8.9864 10.347 8.95973L10.3115 8.81479L10.2158 8.8394Z" fill="#D0D0D0"/>
</g>
</svg>
