<svg width="40" height="40" viewBox="0 0 40 40" fill="none" xmlns="http://www.w3.org/2000/svg">
<mask id="mask0" style="mask-type:alpha" maskUnits="userSpaceOnUse" x="0" y="0" width="40" height="40">
<rect width="40" height="40" rx="2" fill="white"/>
</mask>
<g mask="url(#mask0)">
<path fill-rule="evenodd" clip-rule="evenodd" d="M0 20H40V40H0V20Z" fill="#F5F5F5"/>
<path fill-rule="evenodd" clip-rule="evenodd" d="M0 0H40V20H0V0Z" fill="#F5F5F5"/>
<path fill-rule="evenodd" clip-rule="evenodd" d="M19.7575 28.2651C24.1247 24.9994 28.8278 18.3276 23.32 14.8197C22.2888 14.6166 21.1403 14.6791 20.5856 15.1166C20.2966 14.9447 20.07 14.9604 19.7731 15.2729C19.57 15.0229 19.3669 14.9057 18.9372 15.0385C18.5393 14.8219 18.1022 14.6868 17.6515 14.6412C17.2007 14.5956 16.7454 14.6404 16.3122 14.7729C11.5075 17.6635 14.445 24.5072 19.7497 28.2651H19.7575Z" fill="#FFDD00" stroke="#7D6C00" stroke-width="0.1"/>
<path fill-rule="evenodd" clip-rule="evenodd" d="M27.8355 20.8448C27.8355 20.8448 28.3277 20.1807 28.3433 20.1807C28.8355 19.8916 28.8902 19.5166 28.8902 19.5166C29.3823 19.3604 29.2261 18.9619 29.2652 18.9073C29.3419 18.8314 29.394 18.7342 29.4149 18.6284C29.4358 18.5225 29.4245 18.4128 29.3823 18.3135C29.3823 18.2432 29.5542 17.6182 29.312 17.5323C29.3277 16.8682 28.9136 16.9307 28.5855 17.3682C28.2339 17.4698 28.1558 17.7588 28.273 18.0713C27.8198 18.0713 27.8042 18.7354 27.937 19.1104C27.3276 19.0948 27.6714 19.7744 27.648 19.8135C27.4448 19.9073 27.8042 20.876 27.8355 20.8448ZM23.9839 26.5244L24.2964 26.7119C24.3511 26.9463 24.5698 27.0869 24.7339 27.0479C24.812 27.4073 25.2026 27.3604 25.4761 27.1494C25.7105 27.4776 25.9839 27.4854 26.3589 27.376C26.7026 27.626 27.1401 27.5166 27.4292 27.251C27.7417 27.5088 27.9526 27.3291 28.1089 27.0479C28.3511 27.1104 28.5464 27.0713 28.6323 26.8291C29.1089 26.7901 28.8667 26.3448 28.4761 26.1494C28.7886 25.8838 29.1402 25.3213 28.648 25.2354C28.4917 25.126 28.2105 25.1494 27.9917 25.251C27.937 25.001 27.5855 24.9385 27.2105 25.2198C27.0776 24.9385 26.6245 25.0713 26.4136 25.2666C26.1401 25.0323 25.8198 25.0323 25.3433 25.3057L23.9839 26.5244ZM23.9839 25.7979C24.0386 25.4854 23.8276 24.9229 24.1558 24.8604C24.0933 24.3448 24.187 23.7588 24.7808 23.8135C24.8823 23.3213 24.8589 22.8604 25.4292 22.7979C25.4292 22.7979 25.8901 21.1963 26.3667 22.3057C26.5464 22.6182 26.5151 23.1494 26.1401 23.0479C26.2183 23.4385 26.0855 23.7901 25.648 23.7744C25.8433 24.0557 25.7808 24.4307 25.5698 24.6104L23.9839 25.7979ZM26.7495 23.8135L27.2417 23.7119C27.7495 23.3682 27.9527 23.2354 28.2105 23.6104C28.6323 23.5166 29.0386 23.5635 29.023 23.8994C29.5308 23.9307 29.523 24.251 29.4683 24.5088C29.5464 24.9541 29.3511 25.5401 29.0386 24.8291C28.0542 24.2276 27.4995 24.3057 25.937 24.6573L26.7495 23.8135ZM27.0073 23.3213C27.023 23.3057 28.4683 22.9307 28.312 22.4854C28.7183 22.4229 28.8042 22.0166 28.8198 22.0166C29.6714 21.7432 29.6167 21.251 29.6167 21.251C29.8589 20.9854 30.2886 20.7276 30.1948 20.2666C30.2261 19.7432 30.273 19.4151 29.5698 19.7588C29.0386 19.7041 28.8589 20.0088 28.7027 20.4619C28.4527 20.1729 28.0542 20.6416 28.0073 21.0635C28.0073 21.0635 27.3589 21.6885 27.3589 21.7041L26.8198 22.7041L27.0073 23.3213Z" fill="#4FD46B" stroke="#3A9D4F" stroke-width="0.1" stroke-linejoin="round"/>
<path fill-rule="evenodd" clip-rule="evenodd" d="M27.0393 22.1956C26.6955 21.9377 26.5002 21.6252 26.5705 21.3127C26.3362 21.008 26.1799 20.8205 26.3987 20.5549L26.2268 19.9299C25.7815 19.758 25.969 19.383 26.094 19.2502C25.883 18.9612 25.8752 18.6565 26.0705 18.383C26.0705 17.8361 26.4534 18.0393 26.7737 18.383C26.7737 18.383 27.2971 18.758 26.9065 19.094C27.2971 19.2268 27.4143 19.5627 27.1955 19.7033C27.5315 19.8596 27.5862 20.1643 27.3987 20.3674C27.7424 20.6409 27.6096 20.9924 27.719 21.3049L27.0393 22.1956Z" fill="#4FD46B" stroke="#3A9D4F" stroke-width="0.1" stroke-linejoin="round"/>
<path fill-rule="evenodd" clip-rule="evenodd" d="M27.6565 19.6722C27.633 19.6565 27.0705 18.9378 27.2268 18.8909C27.1955 18.6722 27.0236 18.43 27.1252 18.2112C26.8518 17.9378 26.844 17.6097 27.0549 17.3519C26.8674 17.0941 26.9533 16.7503 27.2111 16.5316C27.133 16.1175 27.4221 16.0159 27.6799 15.9378C27.8752 15.2659 28.1877 15.4378 28.3674 15.9534C28.633 16.1878 28.5939 16.5394 28.5002 16.805C28.8127 17.0159 28.6252 17.2816 28.4846 17.3987L27.6486 19.6722H27.6565Z" fill="#4FD46B" stroke="#3A9D4F" stroke-width="0.1" stroke-linejoin="round"/>
<path fill-rule="evenodd" clip-rule="evenodd" d="M27.5701 16.0943L27.0935 15.6177C27.2107 15.3677 27.3123 14.9146 26.9529 14.7193C26.7576 14.2349 25.781 13.6411 25.6169 14.7818C25.4607 14.438 25.1482 14.1021 24.9138 14.5005C24.406 14.0552 24.1326 14.188 24.3982 14.7505C24.3982 14.7505 24.1638 15.1255 24.7888 15.4146C24.8357 15.4614 24.5779 16.0943 25.3279 16.1099C25.1873 16.3208 25.4216 16.6255 25.7185 16.6021C25.4998 16.8677 25.8669 17.1489 26.0935 17.0396C25.9919 17.3364 25.9998 17.4771 26.406 17.5161L26.8748 18.0396L27.2419 18.5552L27.5623 16.0943H27.5701Z" fill="#4FD46B" stroke="#3A9D4F" stroke-width="0.1" stroke-linejoin="round"/>
<path d="M25.7021 22.8135C25.7021 22.8369 24.1943 25.3291 24.1396 26.1494M27.8584 20.5479C27.874 20.5166 28.7646 18.4775 28.8818 17.8525L27.8584 20.5479ZM27.9443 16.915C27.9443 16.915 28.1006 18.5791 27.6865 19.8057L27.9443 16.915ZM25.2178 15.2354C25.2178 15.2354 27.0381 16.9854 27.21 17.7041L25.2178 15.2354ZM26.4834 15.0479C26.4834 15.0479 26.6084 16.4854 27.1084 17.8994L26.4834 15.0479ZM29.7021 20.2744C29.7021 20.2744 27.8818 21.8057 26.9912 23.1494L29.7021 20.2744ZM27.9756 25.6494C27.9756 25.6494 25.5771 25.9775 24.5225 26.001L27.9756 25.6494ZM27.1787 26.6807C27.1787 26.6807 24.21 26.6025 23.9912 26.3916L27.1787 26.6807Z" stroke="#3A9D4F" stroke-width="0.1" stroke-linecap="round"/>
<path fill-rule="evenodd" clip-rule="evenodd" d="M19.7414 27.7886C16.593 24.8199 13.3664 19.2417 16.5774 16.4292C17.1399 16.7495 17.8196 16.4605 18.7414 16.1011C19.0227 16.4058 19.3821 16.4839 19.7336 16.2573C20.1399 16.4214 20.4367 16.2886 20.632 16.0698C21.5383 16.6011 22.7024 16.8745 22.9758 16.3511C26.132 19.3511 22.9367 24.9449 19.7336 27.7886H19.7414Z" fill="#65C7FF" stroke="#7D6C00" stroke-width="0.1"/>
<path fill-rule="evenodd" clip-rule="evenodd" d="M19.7578 27.7029C18.3181 26.312 17.1242 24.6875 16.2266 22.8982C16.3828 22.7576 16.4609 22.7185 16.5469 22.4763C17.005 22.5581 17.4746 22.5501 17.9297 22.4529C18.0547 22.9294 18.0859 23.3279 18.3828 23.7263L19.0235 22.4763C19.4747 22.5901 19.9472 22.5901 20.3985 22.4763C20.6641 22.8357 20.5703 23.3748 21.0391 23.781C21.3203 22.9529 21.6016 22.8982 21.8828 22.4529C22.2969 22.6013 22.5625 22.531 22.8985 22.4294C23.0782 22.6326 22.9922 22.6248 23.3204 22.9294C22.4387 24.7252 21.2307 26.3413 19.7578 27.6951V27.7029Z" fill="#8FC753"/>
<path fill-rule="evenodd" clip-rule="evenodd" d="M16.0547 13.6953C16.0547 13.7699 16.0251 13.8414 15.9723 13.8942C15.9196 13.9469 15.848 13.9766 15.7734 13.9766C15.6988 13.9766 15.6273 13.9469 15.5746 13.8942C15.5218 13.8414 15.4922 13.7699 15.4922 13.6953C15.4922 13.6207 15.5218 13.5492 15.5746 13.4964C15.6273 13.4437 15.6988 13.4141 15.7734 13.4141C15.848 13.4141 15.9196 13.4437 15.9723 13.4964C16.0251 13.5492 16.0547 13.6207 16.0547 13.6953ZM15.7656 13.0469C15.7656 13.1215 15.736 13.193 15.6833 13.2457C15.6305 13.2985 15.559 13.3281 15.4844 13.3281C15.4098 13.3281 15.3382 13.2985 15.2855 13.2457C15.2328 13.193 15.2031 13.1215 15.2031 13.0469C15.2031 12.9723 15.2328 12.9007 15.2855 12.848C15.3382 12.7953 15.4098 12.7656 15.4844 12.7656C15.559 12.7656 15.6305 12.7953 15.6833 12.848C15.736 12.9007 15.7656 12.9723 15.7656 13.0469ZM15.4219 12.4531C15.4287 12.4934 15.4266 12.5348 15.4158 12.5742C15.405 12.6136 15.3857 12.6502 15.3593 12.6814C15.3329 12.7127 15.3 12.7378 15.2629 12.755C15.2258 12.7722 15.1854 12.7811 15.1445 12.7811C15.1036 12.7811 15.0633 12.7722 15.0262 12.755C14.9891 12.7378 14.9562 12.7127 14.9298 12.6814C14.9034 12.6502 14.8841 12.6136 14.8733 12.5742C14.8625 12.5348 14.8604 12.4934 14.8672 12.4531C14.8782 12.3876 14.9122 12.328 14.9629 12.2851C15.0137 12.2421 15.078 12.2186 15.1445 12.2186C15.211 12.2186 15.2754 12.2421 15.3261 12.2851C15.3769 12.328 15.4108 12.3876 15.4219 12.4531ZM15.1875 11.875C15.1975 11.9164 15.1979 11.9594 15.1888 12.001C15.1797 12.0425 15.1613 12.0815 15.135 12.1149C15.1087 12.1483 15.0751 12.1753 15.0368 12.1939C14.9986 12.2124 14.9566 12.2221 14.9141 12.2221C14.8715 12.2221 14.8296 12.2124 14.7913 12.1939C14.753 12.1753 14.7195 12.1483 14.6931 12.1149C14.6668 12.0815 14.6484 12.0425 14.6393 12.001C14.6302 11.9594 14.6307 11.9164 14.6406 11.875C14.6554 11.8136 14.6904 11.759 14.74 11.7199C14.7896 11.6808 14.8509 11.6596 14.9141 11.6596C14.9772 11.6596 15.0385 11.6808 15.0881 11.7199C15.1377 11.759 15.1727 11.8136 15.1875 11.875ZM15.2266 11.2422C15.2334 11.2825 15.2313 11.3238 15.2205 11.3633C15.2097 11.4027 15.1904 11.4393 15.164 11.4705C15.1376 11.5017 15.1047 11.5268 15.0676 11.544C15.0305 11.5612 14.9901 11.5701 14.9492 11.5701C14.9083 11.5701 14.8679 11.5612 14.8308 11.544C14.7938 11.5268 14.7609 11.5017 14.7345 11.4705C14.7081 11.4393 14.6888 11.4027 14.678 11.3633C14.6672 11.3238 14.6651 11.2825 14.6719 11.2422C14.6829 11.1766 14.7168 11.1171 14.7676 11.0741C14.8184 11.0312 14.8827 11.0077 14.9492 11.0077C15.0157 11.0077 15.0801 11.0312 15.1308 11.0741C15.1816 11.1171 15.2155 11.1766 15.2266 11.2422ZM16.7031 10.2031C16.7031 10.2401 16.6959 10.2766 16.6817 10.3108C16.6676 10.3449 16.6469 10.3759 16.6208 10.402C16.5946 10.4281 16.5636 10.4488 16.5295 10.463C16.4954 10.4771 16.4588 10.4844 16.4219 10.4844C16.3849 10.4844 16.3484 10.4771 16.3142 10.463C16.2801 10.4488 16.2491 10.4281 16.223 10.402C16.1969 10.3759 16.1762 10.3449 16.162 10.3108C16.1479 10.2766 16.1406 10.2401 16.1406 10.2031C16.1406 10.1285 16.1703 10.057 16.223 10.0043C16.2758 9.95151 16.3473 9.92188 16.4219 9.92188C16.4965 9.92188 16.568 9.95151 16.6208 10.0043C16.6735 10.057 16.7031 10.1285 16.7031 10.2031ZM16.1484 10.2969C16.1552 10.3372 16.1532 10.3785 16.1423 10.4179C16.1315 10.4574 16.1123 10.494 16.0859 10.5252C16.0595 10.5564 16.0266 10.5815 15.9895 10.5987C15.9524 10.6159 15.912 10.6248 15.8711 10.6248C15.8302 10.6248 15.7898 10.6159 15.7527 10.5987C15.7156 10.5815 15.6827 10.5564 15.6563 10.5252C15.6299 10.494 15.6107 10.4574 15.5999 10.4179C15.589 10.3785 15.587 10.3372 15.5938 10.2969C15.6048 10.2313 15.6387 10.1718 15.6895 10.1288C15.7403 10.0859 15.8046 10.0623 15.8711 10.0623C15.9376 10.0623 16.0019 10.0859 16.0527 10.1288C16.1035 10.1718 16.1374 10.2313 16.1484 10.2969ZM15.5469 10.6641C15.5469 10.701 15.5396 10.7376 15.5255 10.7717C15.5113 10.8058 15.4906 10.8368 15.4645 10.8629C15.4384 10.8891 15.4074 10.9098 15.3733 10.9239C15.3391 10.938 15.3026 10.9453 15.2656 10.9453C15.2287 10.9453 15.1921 10.938 15.158 10.9239C15.1239 10.9098 15.0929 10.8891 15.0668 10.8629C15.0406 10.8368 15.0199 10.8058 15.0058 10.7717C14.9917 10.7376 14.9844 10.701 14.9844 10.6641C14.9844 10.5895 15.014 10.5179 15.0668 10.4652C15.1195 10.4124 15.191 10.3828 15.2656 10.3828C15.3402 10.3828 15.4118 10.4124 15.4645 10.4652C15.5172 10.5179 15.5469 10.5895 15.5469 10.6641ZM17.4141 10.2109C17.4141 10.2855 17.3844 10.3571 17.3317 10.4098C17.2789 10.4626 17.2074 10.4922 17.1328 10.4922C17.0582 10.4922 16.9867 10.4626 16.9339 10.4098C16.8812 10.3571 16.8516 10.2855 16.8516 10.2109C16.8516 10.1363 16.8812 10.0648 16.9339 10.0121C16.9867 9.95932 17.0582 9.92969 17.1328 9.92969C17.2074 9.92969 17.2789 9.95932 17.3317 10.0121C17.3844 10.0648 17.4141 10.1363 17.4141 10.2109ZM18.1875 10.2734C18.1943 10.3138 18.1922 10.3551 18.1814 10.3945C18.1706 10.4339 18.1513 10.4705 18.1249 10.5018C18.0985 10.533 18.0656 10.5581 18.0285 10.5753C17.9914 10.5925 17.9511 10.6014 17.9102 10.6014C17.8693 10.6014 17.8289 10.5925 17.7918 10.5753C17.7547 10.5581 17.7218 10.533 17.6954 10.5018C17.669 10.4705 17.6497 10.4339 17.6389 10.3945C17.6281 10.3551 17.626 10.3138 17.6328 10.2734C17.6476 10.212 17.6826 10.1574 17.7322 10.1183C17.7818 10.0793 17.8431 10.058 17.9063 10.058C17.9694 10.058 18.0307 10.0793 18.0803 10.1183C18.1299 10.1574 18.1649 10.212 18.1797 10.2734H18.1875ZM18.875 10.2344C18.8818 10.2747 18.8797 10.316 18.8689 10.3554C18.8581 10.3949 18.8388 10.4315 18.8124 10.4627C18.786 10.4939 18.7531 10.519 18.716 10.5362C18.6789 10.5534 18.6386 10.5623 18.5977 10.5623C18.5568 10.5623 18.5164 10.5534 18.4793 10.5362C18.4422 10.519 18.4093 10.4939 18.3829 10.4627C18.3565 10.4315 18.3372 10.3949 18.3264 10.3554C18.3156 10.316 18.3135 10.2747 18.3203 10.2344C18.3314 10.1688 18.3653 10.1093 18.4161 10.0663C18.4668 10.0234 18.5312 9.99984 18.5977 9.99984C18.6642 9.99984 18.7285 10.0234 18.7793 10.0663C18.83 10.1093 18.864 10.1688 18.875 10.2344Z" fill="#F5F5F5" stroke="black" stroke-width="0.1"/>
<path fill-rule="evenodd" clip-rule="evenodd" d="M20.4922 9.78967C20.4922 9.98029 20.4165 10.1631 20.2817 10.2979C20.1469 10.4327 19.9641 10.5084 19.7734 10.5084C19.5828 10.5084 19.4 10.4327 19.2652 10.2979C19.1304 10.1631 19.0547 9.98029 19.0547 9.78967C19.0732 9.61297 19.1565 9.44938 19.2885 9.33047C19.4205 9.21156 19.5919 9.14575 19.7695 9.14575C19.9472 9.14575 20.1186 9.21156 20.2506 9.33047C20.3826 9.44938 20.4659 9.61297 20.4844 9.78967H20.4922Z" fill="#FFDD00" stroke="#7D6C00" stroke-width="0.1"/>
<path fill-rule="evenodd" clip-rule="evenodd" d="M21.2422 10.2271C21.2422 10.3016 21.2126 10.3732 21.1598 10.4259C21.1071 10.4787 21.0355 10.5083 20.9609 10.5083C20.8863 10.5083 20.8148 10.4787 20.7621 10.4259C20.7093 10.3732 20.6797 10.3016 20.6797 10.2271C20.6797 10.1525 20.7093 10.0809 20.7621 10.0282C20.8148 9.97543 20.8863 9.9458 20.9609 9.9458C21.0355 9.9458 21.1071 9.97543 21.1598 10.0282C21.2126 10.0809 21.2422 10.1525 21.2422 10.2271ZM21.9688 10.2817C21.9755 10.3221 21.9735 10.3634 21.9627 10.4028C21.9518 10.4422 21.9326 10.4788 21.9062 10.5101C21.8798 10.5413 21.8469 10.5664 21.8098 10.5836C21.7727 10.6008 21.7323 10.6097 21.6914 10.6097C21.6505 10.6097 21.6101 10.6008 21.573 10.5836C21.5359 10.5664 21.5031 10.5413 21.4767 10.5101C21.4503 10.4788 21.431 10.4422 21.4202 10.4028C21.4094 10.3634 21.4073 10.3221 21.4141 10.2817C21.4251 10.2162 21.459 10.1566 21.5098 10.1137C21.5606 10.0708 21.6249 10.0472 21.6914 10.0472C21.7579 10.0472 21.8223 10.0708 21.873 10.1137C21.9238 10.1566 21.9577 10.2162 21.9688 10.2817ZM22.6719 10.2505C22.6787 10.2908 22.6766 10.3321 22.6658 10.3716C22.655 10.411 22.6357 10.4476 22.6093 10.4788C22.5829 10.51 22.55 10.5351 22.5129 10.5523C22.4758 10.5695 22.4354 10.5785 22.3945 10.5785C22.3537 10.5785 22.3133 10.5695 22.2762 10.5523C22.2391 10.5351 22.2062 10.51 22.1798 10.4788C22.1534 10.4476 22.1341 10.411 22.1233 10.3716C22.1125 10.3321 22.1104 10.2908 22.1172 10.2505C22.1282 10.1849 22.1622 10.1254 22.2129 10.0824C22.2637 10.0395 22.328 10.0159 22.3945 10.0159C22.461 10.0159 22.5254 10.0395 22.5762 10.0824C22.6269 10.1254 22.6608 10.1849 22.6719 10.2505ZM23.2656 10.2271C23.2724 10.2674 23.2704 10.3087 23.2595 10.3481C23.2487 10.3876 23.2295 10.4242 23.2031 10.4554C23.1767 10.4866 23.1438 10.5117 23.1067 10.5289C23.0696 10.5461 23.0292 10.555 22.9883 10.555C22.9474 10.555 22.907 10.5461 22.8699 10.5289C22.8328 10.5117 22.7999 10.4866 22.7735 10.4554C22.7471 10.4242 22.7279 10.3876 22.7171 10.3481C22.7062 10.3087 22.7042 10.2674 22.711 10.2271C22.722 10.1615 22.7559 10.1019 22.8067 10.059C22.8575 10.0161 22.9218 9.99251 22.9883 9.99251C23.0548 9.99251 23.1191 10.0161 23.1699 10.059C23.2207 10.1019 23.2546 10.1615 23.2656 10.2271ZM24.0078 10.3052C24.0078 10.3798 23.9782 10.4513 23.9255 10.504C23.8727 10.5568 23.8012 10.5864 23.7266 10.5864C23.652 10.5864 23.5805 10.5568 23.5277 10.504C23.475 10.4513 23.4453 10.3798 23.4453 10.3052C23.4453 10.2306 23.475 10.159 23.5277 10.1063C23.5805 10.0536 23.652 10.0239 23.7266 10.0239C23.8012 10.0239 23.8727 10.0536 23.9255 10.1063C23.9782 10.159 24.0078 10.2306 24.0078 10.3052ZM24.586 10.6724C24.5928 10.7127 24.5907 10.754 24.5799 10.7934C24.5691 10.8329 24.5498 10.8695 24.5234 10.9007C24.497 10.9319 24.4641 10.957 24.427 10.9742C24.3899 10.9914 24.3495 11.0003 24.3086 11.0003C24.2677 11.0003 24.2273 10.9914 24.1902 10.9742C24.1532 10.957 24.1203 10.9319 24.0939 10.9007C24.0675 10.8695 24.0482 10.8329 24.0374 10.7934C24.0266 10.754 24.0245 10.7127 24.0313 10.6724C24.0423 10.6068 24.0762 10.5473 24.127 10.5043C24.1778 10.4614 24.2421 10.4378 24.3086 10.4378C24.3751 10.4378 24.4395 10.4614 24.4902 10.5043C24.541 10.5473 24.5749 10.6068 24.586 10.6724Z" fill="#F5F5F5" stroke="black" stroke-width="0.1"/>
<path fill-rule="evenodd" clip-rule="evenodd" d="M15.7812 12.6406L16.5 14.0156H23.1016L23.8594 12.6875C23.4141 12.3828 23.1094 12.1484 22.4766 12.2969C22.1094 11.7734 21.7188 11.6719 21.1328 11.7344C20.9737 11.5497 20.7502 11.4324 20.5078 11.4062L19.1172 11.4453C18.7578 11.4766 18.4766 11.7578 18.4609 11.7578C17.8672 11.6797 17.3281 11.7031 17.1875 12.2734C16.6484 12.1406 16.2734 12.2891 15.7812 12.6406Z" fill="#E40000" stroke="#AC0000" stroke-width="0.1"/>
<path fill-rule="evenodd" clip-rule="evenodd" d="M24.8281 11.2812C24.8349 11.3215 24.8328 11.3628 24.822 11.4022C24.8112 11.4417 24.7919 11.4783 24.7655 11.5095C24.7391 11.5407 24.7062 11.5658 24.6691 11.583C24.632 11.6002 24.5917 11.6091 24.5508 11.6091C24.5099 11.6091 24.4695 11.6002 24.4324 11.583C24.3953 11.5658 24.3624 11.5407 24.336 11.5095C24.3096 11.4783 24.2903 11.4417 24.2795 11.4022C24.2687 11.3628 24.2666 11.3215 24.2734 11.2812C24.2845 11.2156 24.3184 11.1561 24.3692 11.1131C24.4199 11.0702 24.4843 11.0466 24.5508 11.0466C24.6173 11.0466 24.6816 11.0702 24.7324 11.1131C24.7831 11.1561 24.8171 11.2156 24.8281 11.2812ZM24.875 11.9296C24.8818 11.9699 24.8797 12.0112 24.8689 12.0507C24.8581 12.0901 24.8388 12.1267 24.8124 12.1579C24.786 12.1891 24.7531 12.2142 24.716 12.2314C24.6789 12.2487 24.6385 12.2576 24.5976 12.2576C24.5568 12.2576 24.5164 12.2487 24.4793 12.2314C24.4422 12.2142 24.4093 12.1891 24.3829 12.1579C24.3565 12.1267 24.3372 12.0901 24.3264 12.0507C24.3156 12.0112 24.3135 11.9699 24.3203 11.9296C24.3313 11.864 24.3653 11.8045 24.416 11.7616C24.4668 11.7186 24.5311 11.6951 24.5976 11.6951C24.6641 11.6951 24.7285 11.7186 24.7792 11.7616C24.83 11.8045 24.8639 11.864 24.875 11.9296ZM24.6719 12.539C24.6786 12.5793 24.6766 12.6206 24.6658 12.66C24.6549 12.6995 24.6357 12.7361 24.6093 12.7673C24.5829 12.7985 24.55 12.8236 24.5129 12.8408C24.4758 12.858 24.4354 12.8669 24.3945 12.8669C24.3536 12.8669 24.3132 12.858 24.2761 12.8408C24.2391 12.8236 24.2062 12.7985 24.1798 12.7673C24.1534 12.7361 24.1341 12.6995 24.1233 12.66C24.1125 12.6206 24.1104 12.5793 24.1172 12.539C24.1282 12.4734 24.1621 12.4139 24.2129 12.3709C24.2637 12.328 24.328 12.3044 24.3945 12.3044C24.461 12.3044 24.5253 12.328 24.5761 12.3709C24.6269 12.4139 24.6608 12.4734 24.6719 12.539ZM24.414 13.039C24.424 13.0803 24.4244 13.1234 24.4154 13.165C24.4063 13.2065 24.3879 13.2454 24.3615 13.2789C24.3352 13.3123 24.3017 13.3393 24.2634 13.3578C24.2251 13.3764 24.1831 13.3861 24.1406 13.3861C24.0981 13.3861 24.0561 13.3764 24.0178 13.3578C23.9796 13.3393 23.946 13.3123 23.9197 13.2789C23.8934 13.2454 23.875 13.2065 23.8659 13.165C23.8568 13.1234 23.8572 13.0803 23.8672 13.039C23.882 12.9776 23.917 12.923 23.9666 12.8839C24.0162 12.8448 24.0775 12.8236 24.1406 12.8236C24.2038 12.8236 24.2651 12.8448 24.3147 12.8839C24.3643 12.923 24.3993 12.9776 24.414 13.039ZM24.1172 13.664C24.1172 13.7386 24.0875 13.8101 24.0348 13.8629C23.9821 13.9156 23.9105 13.9452 23.8359 13.9452C23.7613 13.9452 23.6898 13.9156 23.637 13.8629C23.5843 13.8101 23.5547 13.7386 23.5547 13.664C23.5547 13.5894 23.5843 13.5179 23.637 13.4651C23.6898 13.4124 23.7613 13.3827 23.8359 13.3827C23.9105 13.3827 23.9821 13.4124 24.0348 13.4651C24.0875 13.5179 24.1172 13.5894 24.1172 13.664ZM20.2109 12.8671C20.219 12.9257 20.2145 12.9854 20.1976 13.0421C20.1807 13.0988 20.1518 13.1512 20.113 13.1958C20.0741 13.2404 20.0261 13.2762 19.9723 13.3007C19.9184 13.3252 19.8599 13.3379 19.8008 13.3379C19.7416 13.3379 19.6831 13.3252 19.6293 13.3007C19.5754 13.2762 19.5274 13.2404 19.4886 13.1958C19.4497 13.1512 19.4209 13.0988 19.404 13.0421C19.3871 12.9854 19.3825 12.9257 19.3906 12.8671C19.4043 12.7681 19.4534 12.6773 19.5288 12.6116C19.6042 12.546 19.7008 12.5098 19.8008 12.5098C19.9008 12.5098 19.9974 12.546 20.0728 12.6116C20.1482 12.6773 20.1972 12.7681 20.2109 12.8671ZM20.2891 11.9218C20.2979 11.9922 20.2917 12.0636 20.2708 12.1314C20.2499 12.1992 20.2148 12.2617 20.1679 12.3149C20.121 12.3681 20.0633 12.4107 19.9987 12.4399C19.934 12.4691 19.8639 12.4842 19.793 12.4842C19.722 12.4842 19.6519 12.4691 19.5873 12.4399C19.5226 12.4107 19.4649 12.3681 19.418 12.3149C19.3711 12.2617 19.336 12.1992 19.3151 12.1314C19.2943 12.0636 19.288 11.9922 19.2969 11.9218C19.2969 11.7892 19.3496 11.662 19.4433 11.5682C19.5371 11.4745 19.6643 11.4218 19.7969 11.4218C19.9295 11.4218 20.0567 11.4745 20.1504 11.5682C20.2442 11.662 20.2969 11.7892 20.2969 11.9218H20.2891Z" fill="#F5F5F5" stroke="black" stroke-width="0.1"/>
<path fill-rule="evenodd" clip-rule="evenodd" d="M20.2266 11.0005C20.2266 11.1196 20.1792 11.2339 20.095 11.3181C20.0107 11.4024 19.8965 11.4497 19.7773 11.4497C19.6582 11.4497 19.5439 11.4024 19.4597 11.3181C19.3755 11.2339 19.3281 11.1196 19.3281 11.0005C19.3281 10.8813 19.3755 10.7671 19.4597 10.6828C19.5439 10.5986 19.6582 10.5513 19.7773 10.5513C19.8965 10.5513 20.0107 10.5986 20.095 10.6828C20.1792 10.7671 20.2266 10.8813 20.2266 11.0005Z" fill="#F5F5F5" stroke="black" stroke-width="0.1"/>
<path fill-rule="evenodd" clip-rule="evenodd" d="M19.625 9.08582V8.72644H19.3281L19.3359 8.46082H19.5938V8.22644H19.9609V8.43738H20.25V8.71863H19.9453V9.09363H19.625V9.08582Z" fill="#FFDD00" stroke="#7D6C00" stroke-width="0.1"/>
<path d="M16.4606 14.0161C15.8747 13.0083 14.9996 11.6489 15.5387 11.063C16.2887 10.2114 18.0387 10.9849 19.1559 10.4849C19.234 11.4458 18.9684 13.0239 19.3981 13.352L18.9997 13.7036C18.7575 13.3911 18.2965 12.9692 17.7262 13.7192C17.4059 13.438 17.0387 13.4849 16.8668 13.8599C16.695 13.8833 16.7106 13.9536 16.4606 14.0161V14.0161ZM23.1403 13.977C23.7262 12.977 24.6013 11.6177 24.0622 11.0239C23.3122 10.1802 21.5622 10.9458 20.445 10.4536C20.3669 11.4067 20.6325 12.9849 20.2028 13.3208L20.6012 13.6645C20.9919 13.1255 21.4606 13.1099 21.8669 13.688C22.195 13.3989 22.5309 13.438 22.7341 13.8286C22.9059 13.8521 22.8903 13.9146 23.1403 13.9849V13.977Z" stroke="#FFDD00" stroke-width="0.1"/>
<path fill-rule="evenodd" clip-rule="evenodd" d="M16.4453 14.7651C18.6413 14.5652 20.8509 14.5652 23.0468 14.7651L23.3046 14.0151C21 13.5932 19.4062 13.5463 16.3906 13.9604L16.4453 14.7573V14.7651Z" fill="#FFDD00" stroke="#7D6C00" stroke-width="0.1"/>
<path fill-rule="evenodd" clip-rule="evenodd" d="M19.5078 27.4458L19.5625 27.0942C19.7968 27.1646 19.9765 27.1333 20.1718 27.063L20.375 26.7583L20.2187 26.5786C20.0859 26.6099 19.9843 26.7349 19.8906 26.8442C19.7578 26.8442 19.6406 26.7817 19.5078 26.7583L19.3828 26.2192C19.2578 26.0708 18.9922 26.0864 19.0469 26.3521L19.0781 26.5552C19.125 26.6802 19.1484 26.8599 19.2344 26.9458V27.1646L19.5078 27.4458ZM19.6094 25.9224C19.4297 26.0083 19.2187 25.8599 19 25.7661C18.7969 25.7583 18.6328 25.9224 18.3828 25.8755C18.4297 25.7427 18.5391 25.7192 18.6172 25.6411C18.5625 25.2974 18.7422 25.1802 18.7969 25.1802C18.8437 25.1802 19.0469 25.2349 19.0469 25.2349L19.25 25.2583C19.375 25.4771 19.539 25.6802 19.6094 25.9224Z" fill="#C76E2E"/>
<path fill-rule="evenodd" clip-rule="evenodd" d="M18.3984 30.5076C18.9844 29.5466 23.0859 27.6326 26.9297 23.4841C23.0234 27.2576 20.5703 28.1794 17.3672 30.4841L18.3984 30.5076Z" fill="#FFE100" stroke="#E9BF00" stroke-width="0.1"/>
<path fill-rule="evenodd" clip-rule="evenodd" d="M24.0313 26.0938C24.0313 26.1725 24 26.248 23.9443 26.3037C23.8886 26.3593 23.8131 26.3906 23.7344 26.3906C23.6556 26.3906 23.5801 26.3593 23.5245 26.3037C23.4688 26.248 23.4375 26.1725 23.4375 26.0938C23.4375 26.015 23.4688 25.9395 23.5245 25.8838C23.5801 25.8282 23.6556 25.7969 23.7344 25.7969C23.8131 25.7969 23.8886 25.8282 23.9443 25.8838C24 25.9395 24.0313 26.015 24.0313 26.0938ZM26.8984 23.1953C26.8984 23.2854 26.8626 23.3719 26.7989 23.4356C26.7352 23.4994 26.6487 23.5352 26.5586 23.5352C26.4685 23.5352 26.382 23.4994 26.3183 23.4356C26.2546 23.3719 26.2188 23.2854 26.2188 23.1953C26.2188 23.1052 26.2546 23.0187 26.3183 22.955C26.382 22.8913 26.4685 22.8555 26.5586 22.8555C26.6487 22.8555 26.7352 22.8913 26.7989 22.955C26.8626 23.0187 26.8984 23.1052 26.8984 23.1953ZM27.8516 20.7266C27.8516 20.8053 27.8203 20.8808 27.7646 20.9365C27.7089 20.9922 27.6334 21.0234 27.5547 21.0234C27.476 21.0234 27.4004 20.9922 27.3448 20.9365C27.2891 20.8808 27.2578 20.8053 27.2578 20.7266C27.2578 20.6478 27.2891 20.5723 27.3448 20.5166C27.4004 20.461 27.476 20.4297 27.5547 20.4297C27.6334 20.4297 27.7089 20.461 27.7646 20.5166C27.8203 20.5723 27.8516 20.6478 27.8516 20.7266ZM26.9141 17.5234C26.9141 17.6022 26.8828 17.6777 26.8271 17.7334C26.7714 17.789 26.6959 17.8203 26.6172 17.8203C26.5385 17.8203 26.4629 17.789 26.4073 17.7334C26.3516 17.6777 26.3203 17.6022 26.3203 17.5234C26.3203 17.4447 26.3516 17.3692 26.4073 17.3135C26.4629 17.2578 26.5385 17.2266 26.6172 17.2266C26.6959 17.2266 26.7714 17.2578 26.8271 17.3135C26.8828 17.3692 26.9141 17.4447 26.9141 17.5234Z" fill="#9D4916" stroke="#68300E" stroke-width="0.1"/>
<path fill-rule="evenodd" clip-rule="evenodd" d="M16.5938 22.469V21.2034L16.4609 21.094V20.7971L16.6953 20.7737L16.7422 19.3674L16.5859 19.2815L16.5703 19.0471C16.5703 19.0471 16.7422 19.1096 16.7422 19.0627L16.7813 18.7893C16.7813 18.7893 16.6797 18.7659 16.6797 18.719C16.6797 18.6721 16.8047 18.5706 16.8047 18.5706C16.8047 18.5706 16.7422 18.5081 16.7266 18.469L16.6563 18.2346L16.7188 18.0002L16.6797 17.8674L16.5703 17.6721L16.7266 17.5237L16.6797 17.2893C16.6797 17.2502 16.7813 17.0706 16.8047 17.0549L17 16.7971L17.3594 16.7112L17.7891 16.7737L18.0234 16.9299L18.0703 17.3127C18.0703 17.3127 18.0234 17.5471 18.0078 17.5471L17.8125 17.6252C17.8125 17.6252 17.6016 17.6487 17.5781 17.6252C17.5547 17.6018 17.6406 17.8831 17.6406 17.8831V18.1409L17.6172 18.4612C17.6172 18.4612 17.6172 18.6174 17.6016 18.6331L17.5313 18.719L17.5156 19.0393L17.8516 19.1252L17.8359 19.3206L17.6016 19.344L17.6406 20.6487L17.9844 20.7112V21.0784L17.8281 21.1565L17.7891 22.469H16.5938ZM21.7891 22.4846V21.2268L21.6641 21.1174V20.8206L21.8985 20.7971L21.9453 19.3909L21.7891 19.2971L21.7735 19.0627C21.7735 19.0627 21.9453 19.1252 21.9453 19.0862L21.9844 18.8049C21.9844 18.8049 21.875 18.7893 21.875 18.7424C21.875 18.6956 22.0078 18.594 22.0078 18.594C22.0078 18.594 21.9453 18.5315 21.9219 18.4846C21.8985 18.4377 21.8594 18.2502 21.8594 18.2502L21.9219 18.0159L21.875 17.8909L21.7735 17.6956L21.9219 17.5393L21.875 17.3049C21.9054 17.2197 21.9503 17.1404 22.0078 17.0706L22.1953 16.8206L22.5625 16.7346L22.9922 16.7971L23.2266 16.9534L23.2657 17.3284C23.2657 17.3284 23.2266 17.5627 23.2032 17.5627C23.1797 17.5627 23.0078 17.6565 23.0078 17.6565C23.0078 17.6565 22.7969 17.6721 22.7735 17.6565C22.75 17.6409 22.8438 17.9065 22.8438 17.9065V18.1643L22.8203 18.4846C22.8203 18.4846 22.8203 18.6409 22.7969 18.6565L22.7344 18.7424L22.711 19.0627L23.0547 19.1487L23.0313 19.344L22.7969 19.3674L22.8438 20.6721L23.1797 20.7346V21.094L23.0313 21.1799L22.9922 22.4846H21.7891ZM19.1641 22.5315V21.2659L19.0313 21.1643V20.8596L19.2656 20.844L19.3125 19.4299L19.1563 19.344L19.1406 19.1096C19.1406 19.1096 19.3125 19.1721 19.3125 19.1331L19.3516 18.8518C19.3516 18.8518 19.2422 18.8284 19.2422 18.7893C19.2422 18.7502 19.375 18.6331 19.375 18.6331L19.2891 18.5315C19.2656 18.4924 19.2266 18.2971 19.2266 18.2971L19.2891 18.0627L19.2422 17.9299L19.1406 17.7424L19.2891 17.5862L19.2422 17.3518C19.2726 17.2666 19.3175 17.1873 19.375 17.1174L19.5703 16.8596L19.9297 16.7815L20.3594 16.844L20.5938 16.9924L20.6328 17.3752C20.6328 17.3752 20.5938 17.6096 20.5703 17.6096C20.5469 17.6096 20.3828 17.6956 20.3828 17.6956C20.3828 17.6956 20.1641 17.719 20.1485 17.6956C20.1328 17.6721 20.211 17.9534 20.211 17.9534V18.2112L20.1875 18.5237C20.1875 18.5237 20.1875 18.6799 20.1641 18.7034C20.1406 18.719 20.1016 18.7815 20.1016 18.7815L20.0781 19.1096L20.4219 19.1877L20.3985 19.3831L20.1641 19.4065L20.211 20.7112L20.5547 20.7737V21.1409L20.3985 21.219L20.3594 22.5315H19.1641Z" fill="#F5F5F5" stroke="#A9A9A9" stroke-width="0.1"/>
<path fill-rule="evenodd" clip-rule="evenodd" d="M16.9062 22.4527V21.4605H17.4688V22.4995L16.9062 22.4527ZM19.5313 22.5308L19.5547 21.5152H20.0547V22.5152L19.5391 22.5386L19.5313 22.5308ZM22.125 22.5152L22.0859 21.562L22.6172 21.5386V22.5386L22.125 22.5152ZM17.0469 19.5073H17.3594V20.0308H17.0469V19.5073ZM19.5781 19.5308H20.0156V20.0308H19.5781V19.5308ZM22.1563 19.5698H22.5469V20.0464H22.1563V19.5698Z" fill="black"/>
<path d="M22.5 17.312C22.5 17.312 22.6015 17.6089 22.7578 17.6479M17.2109 17.2495C17.5547 17.6323 17.5781 17.6323 17.5781 17.6323L17.2109 17.2495ZM19.7656 17.2417C19.8203 17.3745 19.9297 17.6558 20.0625 17.6714L19.7656 17.2417Z" stroke="#A8A8A8" stroke-width="0.1"/>
<path fill-rule="evenodd" clip-rule="evenodd" d="M16.8509 16.1715C17.8509 15.8434 16.6165 15.1949 16.4134 16.1715C16.0853 16.2184 16.0462 16.4606 15.3431 16.3512C13.6478 19.1168 14.9056 23.5621 19.8587 28.1715C10.9837 20.6246 14.5931 15.0465 17.0462 15.2496C18.3821 15.3434 17.7103 17.0074 16.8509 16.1715Z" fill="#B97700"/>
<path d="M18.9765 15.6638C18.9765 15.6326 19.3515 15.5701 19.4765 15.7888M17.125 14.7498C17.125 14.7498 17.9453 14.9685 17.9453 15.3201L17.125 14.7498ZM17.9453 14.6951C17.9453 14.6951 18.5078 14.9373 18.6328 15.1638L17.9453 14.6951ZM22.3906 14.7888C22.3906 14.7888 21.6718 14.8748 21.5156 15.1013L22.3906 14.7888ZM21.2968 14.8435C21.2968 14.8435 20.8906 15.1951 20.9218 15.2888L21.2968 14.8435ZM21.2031 16.3513C21.1406 16.3201 20.8593 15.9451 20.9218 15.4763L21.2031 16.3513ZM18.4453 16.1013C18.4453 16.1013 18.6328 15.8826 18.6328 15.4763L18.4453 16.1013ZM19.7578 15.3201L19.789 16.2263L19.7578 15.3201ZM20.5703 16.1013C20.5703 16.0388 20.8281 15.4451 20.5469 15.1638L20.5703 16.1013ZM18.8516 15.0388C18.8516 15.0388 18.6328 15.6326 18.7891 16.1326L18.8516 15.0388ZM20.4531 15.5701C20.4531 15.5701 20.1094 15.6638 19.9531 15.8201L20.4531 15.5701Z" stroke="#7D6C00" stroke-width="0.1"/>
<path fill-rule="evenodd" clip-rule="evenodd" d="M18.3828 25.1563C18.3984 25.1563 18.6953 25.1016 18.6953 24.9532C18.8516 24.8595 18.7344 24.586 18.7344 24.586L18.4531 24.5313L18.0703 24.0938C18.0547 23.961 18.1016 23.836 18.0156 23.7032C17.75 23.7657 17.6016 23.9845 17.5078 24.2423C17.5781 24.3204 17.5859 24.4063 17.7031 24.4767C17.8281 24.5001 17.9141 24.4298 18.0312 24.4532C18.0937 24.5548 18.0781 24.6485 18.0937 24.7423C18.25 24.8595 18.2891 25.0157 18.3828 25.1563ZM18.0391 23.3048V22.7892L17.6719 22.7814C17.625 22.8595 17.5391 22.8907 17.4844 22.961L17.2344 23.086C17.3359 23.2189 17.4687 23.2892 17.5469 23.3517C17.7422 23.4064 17.8906 23.4064 18.0391 23.3048ZM16.8828 24.0626L16.6875 23.7267C16.8167 23.6907 16.9542 23.699 17.0781 23.7501C17.0781 23.7501 17.1641 23.961 17.1016 24.0392C17.0703 24.1173 16.875 24.0782 16.8828 24.0626ZM19.9297 24.4063C19.9875 24.3836 20.0386 24.3467 20.0782 24.2988C20.1178 24.251 20.1447 24.1939 20.1562 24.1329L19.7812 23.7032H19.4531C19.375 23.6173 19.25 23.6017 19.1484 23.6017C19.1484 23.6017 19.2578 23.7579 19.3906 23.797C19.4922 24.0079 19.9062 24.4063 19.9375 24.4063H19.9297ZM20.2891 24.461C20.4488 24.3894 20.6218 24.3522 20.7969 24.3517C20.7812 24.2188 21.0391 23.9063 21.0391 23.9063L21.5078 24.5157C21.4219 24.586 21.2734 24.5626 21.1562 24.586C21.1562 24.586 20.9297 24.8048 20.9062 24.8126C20.8828 24.8204 20.4766 24.9142 20.2812 24.797C20.1875 24.6251 20.2969 24.4298 20.2891 24.461ZM20.5547 23.3907C20.6094 23.1954 20.6328 23.0001 20.5547 22.7657C20.5547 22.7657 20.0234 22.7501 20.0234 22.7657L19.6719 22.922C19.6719 22.922 19.7891 23.2735 19.9219 23.2345C19.9844 23.422 20.1641 23.3751 20.25 23.4376L20.5547 23.3907ZM22.625 22.8595C22.5547 23.0782 22.5156 23.3126 22.625 23.5314C22.7187 23.547 22.8281 23.6095 22.9141 23.5939L23.3437 22.8282C23.0469 22.7345 22.8125 22.7423 22.625 22.8595Z" fill="#C76E2E"/>
<path fill-rule="evenodd" clip-rule="evenodd" d="M22.7578 16.0931C21.7578 15.7806 22.9922 15.1244 23.1953 16.0931C23.5234 16.1478 23.5625 16.39 24.2656 16.2885C25.9531 19.0463 24.7031 23.4994 19.75 28.1009C28.6172 20.5541 25.0156 14.976 22.5625 15.1791C21.2188 15.2728 21.8984 16.9369 22.7578 16.101V16.0931Z" fill="#B97700"/>
<path fill-rule="evenodd" clip-rule="evenodd" d="M22.8602 23.7192C22.8445 23.7192 22.6023 23.8989 22.6023 23.8989L22.2586 24.0317L21.8914 24.0395L21.8133 23.7895L22.0945 23.5395C21.8602 23.5005 21.618 23.5942 21.4305 23.7739C21.4305 23.7739 21.4305 24.0473 21.5867 24.188C21.7027 24.3096 21.8281 24.4219 21.9617 24.5239C22.1414 24.5552 22.3055 24.5239 22.4227 24.438L22.8602 23.7192ZM20.9227 26.2348C21.0398 26.2661 21.868 25.1723 21.868 25.1723C21.7943 24.9756 21.6493 24.8139 21.4617 24.7192C21.4617 24.7192 21.0555 25.188 21.0477 25.352C20.9852 25.5005 20.8055 26.0551 20.8836 26.1255C20.8758 26.1411 20.8445 26.3598 20.9227 26.2348Z" fill="#C76E2E"/>
<path fill-rule="evenodd" clip-rule="evenodd" d="M15.5312 26.4526C14.2969 25.3745 12.625 24.7807 10.2969 25.5932C10.9219 25.8588 11.6016 25.9526 12.1797 26.2417L15.5312 26.4526Z" fill="#006800" stroke="#004100" stroke-width="0.1" stroke-linejoin="round"/>
<path d="M11.9531 25.688C14.3906 25.7349 15.1016 26.3443 14.9688 26.2427" stroke="#00A400" stroke-width="0.1" stroke-linecap="round"/>
<path fill-rule="evenodd" clip-rule="evenodd" d="M15.5781 26.5782C14.8516 26.7188 13.8437 27.4219 13.5469 27.3907C12.7578 27.2969 12.0078 26.9688 11.2422 26.7266C10.9219 26.625 10.6016 26.7266 10.2734 26.7266C13.0078 25.4297 13.9453 25.6094 15.5859 26.5704L15.5781 26.5782Z" fill="#006800" stroke="#004100" stroke-width="0.1" stroke-linejoin="round"/>
<path fill-rule="evenodd" clip-rule="evenodd" d="M13.7812 24.6724C13.7812 24.6724 12.8672 24.7974 12.4531 24.8286C12.0547 24.7974 11.4609 24.4224 10.8125 23.7349C10.4687 23.3599 9.69531 23.4068 9.69531 23.4068C11.4141 23.0396 12.7422 23.3833 13.7812 24.6724ZM12.5312 22.899C11.2891 22.8208 9.74219 21.7036 9.39062 20.3833C9.39062 20.4068 9.84375 20.6724 9.77344 20.7427C11.8047 21.2583 11.9453 21.6724 12.5391 22.899H12.5312ZM14.6172 25.0318C14.7969 23.9068 14.8516 23.1568 14.3047 22.4927C13.875 21.9849 13.7578 21.6802 13.4453 20.9693C13.3594 22.4536 13.0391 23.6724 14.6172 25.0318ZM12.6641 21.9068C13.5859 20.563 13.7422 19.5474 13.6016 17.9536C13.5036 18.2664 13.3835 18.5719 13.2422 18.8677C11.875 19.7271 12.4844 21.0708 12.6641 21.9146V21.9068Z" fill="#006800" stroke="#004100" stroke-width="0.1" stroke-linejoin="round"/>
<path fill-rule="evenodd" clip-rule="evenodd" d="M11.8517 15.4146C12.7736 16.7583 12.633 18.0239 12.4845 19.6255C12.389 19.3129 12.2715 19.0075 12.133 18.7114C10.758 17.8521 11.672 16.2505 11.8517 15.4146Z" fill="#006800" stroke="#004100" stroke-width="0.1" stroke-linejoin="round"/>
<path fill-rule="evenodd" clip-rule="evenodd" d="M12.6094 17.4998C14.8437 16.3669 13.9844 14.9373 14.3906 13.8357C12.8438 14.9919 12.6406 16.2185 12.6094 17.4919V17.4998Z" fill="#006800" stroke="#004100" stroke-width="0.1" stroke-linejoin="round"/>
<path d="M12.2578 18.8669C12.2031 18.3044 11.9297 16.8044 11.8984 16.656M12.9141 17.2107C13.1953 16.4294 13.75 15.0857 13.8047 15.0857L12.9141 17.2107Z" stroke="#00A400" stroke-width="0.1" stroke-linecap="round"/>
<path fill-rule="evenodd" clip-rule="evenodd" d="M12.3594 21.3745C11.1094 21.2964 9.77344 19.601 9.41406 18.2807C9.41406 18.2964 9.875 18.562 9.79688 18.6323C11.5781 19.4292 11.7656 20.1479 12.3594 21.3667V21.3745ZM11.9922 20.2026C11.0703 18.8589 10.9062 17.8432 11.0547 16.2495C11.0781 16.3745 11.3828 17.1636 11.4062 17.1636C12.7734 18.0229 12.1641 19.3667 11.9922 20.2104V20.2026ZM12.8125 17.8511C15.125 16.8276 14.4141 15.7495 15.1016 14.6245C13.5547 15.7729 12.8359 16.5776 12.8125 17.8511Z" fill="#006800" stroke="#004100" stroke-width="0.1" stroke-linejoin="round"/>
<path d="M12.9141 17.6172C13.8516 16.6797 14.1875 15.8984 14.1875 15.8984" stroke="#00A400" stroke-width="0.1" stroke-linecap="round"/>
<path fill-rule="evenodd" clip-rule="evenodd" d="M21.1245 30.5312L22.2495 30.5547C18.5229 27.0547 11.3667 25.5312 12.3667 19.1016C11.3276 26.0781 18.2026 26.7187 21.1245 30.5312Z" fill="#FFE100" stroke="#E9BF00" stroke-width="0.1"/>
<path fill-rule="evenodd" clip-rule="evenodd" d="M12.9531 17.7183C12.9531 17.7655 12.9438 17.8122 12.9258 17.8558C12.9077 17.8994 12.8812 17.939 12.8479 17.9724C12.8145 18.0057 12.7749 18.0322 12.7313 18.0503C12.6877 18.0683 12.6409 18.0776 12.5937 18.0776C12.5466 18.0776 12.4998 18.0683 12.4562 18.0503C12.4126 18.0322 12.373 18.0057 12.3396 17.9724C12.3063 17.939 12.2798 17.8994 12.2617 17.8558C12.2437 17.8122 12.2344 17.7655 12.2344 17.7183C12.2344 17.6229 12.2722 17.5315 12.3396 17.4641C12.407 17.3967 12.4984 17.3589 12.5937 17.3589C12.6891 17.3589 12.7805 17.3967 12.8479 17.4641C12.9153 17.5315 12.9531 17.6229 12.9531 17.7183ZM12.7344 19.687C12.7344 19.7771 12.6986 19.8636 12.6348 19.9273C12.5711 19.991 12.4847 20.0268 12.3945 20.0268C12.3044 20.0268 12.218 19.991 12.1542 19.9273C12.0905 19.8636 12.0547 19.7771 12.0547 19.687C12.0547 19.5969 12.0905 19.5104 12.1542 19.4467C12.218 19.383 12.3044 19.3472 12.3945 19.3472C12.4847 19.3472 12.5711 19.383 12.6348 19.4467C12.6986 19.5104 12.7344 19.5969 12.7344 19.687ZM13.0469 22.4995C13.0469 22.5782 13.0156 22.6537 12.9599 22.7094C12.9042 22.7651 12.8287 22.7964 12.75 22.7964C12.6713 22.7964 12.5958 22.7651 12.5401 22.7094C12.4844 22.6537 12.4531 22.5782 12.4531 22.4995C12.4531 22.4208 12.4844 22.3452 12.5401 22.2896C12.5958 22.2339 12.6713 22.2026 12.75 22.2026C12.8287 22.2026 12.9042 22.2339 12.9599 22.2896C13.0156 22.3452 13.0469 22.4208 13.0469 22.4995ZM15.6562 25.601C15.6562 25.6808 15.6246 25.7573 15.5682 25.8137C15.5117 25.8701 15.4352 25.9018 15.3555 25.9018C15.2757 25.9018 15.1992 25.8701 15.1428 25.8137C15.0864 25.7573 15.0547 25.6808 15.0547 25.601C15.0547 25.5213 15.0864 25.4448 15.1428 25.3884C15.1992 25.332 15.2757 25.3003 15.3555 25.3003C15.4352 25.3003 15.5117 25.332 15.5682 25.3884C15.6246 25.4448 15.6562 25.5213 15.6562 25.601ZM16.0312 26.4917C16.0312 26.5704 16 26.6459 15.9443 26.7016C15.8886 26.7573 15.8131 26.7885 15.7344 26.7885C15.6556 26.7885 15.5801 26.7573 15.5245 26.7016C15.4688 26.6459 15.4375 26.5704 15.4375 26.4917C15.4375 26.4129 15.4688 26.3374 15.5245 26.2817C15.5801 26.2261 15.6556 26.1948 15.7344 26.1948C15.8131 26.1948 15.8886 26.2261 15.9443 26.2817C16 26.3374 16.0312 26.4129 16.0312 26.4917Z" fill="#9D4916" stroke="#68300E" stroke-width="0.1"/>
<path fill-rule="evenodd" clip-rule="evenodd" d="M17.3437 29.085C17.1764 28.9574 17.0424 28.7912 16.9531 28.6006L15.7812 28.4678L15.7656 29.1396L17.3516 29.085H17.3437Z" fill="#F5F5F5" stroke="black" stroke-width="0.1"/>
<path fill-rule="evenodd" clip-rule="evenodd" d="M8.77344 28.2964C9.45312 28.4214 10.4766 28.2339 10.8125 28.6714C11.2187 29.1245 9.5625 29.8276 9.79687 30.2182C10.3047 30.7651 10.8359 30.5386 11.4062 30.2417C11.5469 29.9448 11.6484 29.4214 11.7187 29.2651C11.5156 28.7886 10.9531 28.5542 11.0937 27.8276C12.0469 27.4683 13.8672 27.4995 14.0625 27.6401C14.2187 27.937 14.0781 28.0776 14.1094 28.3198C13.9531 28.6167 13.5469 29.1323 13.5469 29.4136C14.539 29.7573 14.7969 29.3511 15.6953 29.3745C16.7422 29.3901 17.3828 29.6714 17.6093 29.2573C17.4531 28.8979 16.4922 29.187 16.125 28.9526C15.9453 28.8901 15.8281 28.7495 15.6719 28.5854C15.5156 28.4214 15.0703 28.4136 15 28.0151C15.1875 27.1636 16.414 27.2964 16.6172 27.1636L19.8203 27.3823C20.3984 27.3667 20.7265 28.4136 19.9453 28.7261C19.164 29.0386 16.8437 28.2573 15.8437 28.8042C15.789 28.5776 15.0625 28.2495 15.0156 28.2339C14.7031 28.3276 14.1094 28.2964 14.1094 28.2964C13.9609 28.5698 13.7969 28.7651 13.6484 29.0386C12.9844 28.7495 12.3594 29.2651 11.6328 29.1167L10.5 29.2339L9.78125 29.1714L8.6875 29.4839L9.46875 28.7964L8.77344 28.2964Z" fill="#F5F5F5" stroke="black" stroke-width="0.1" stroke-linejoin="round"/>
<path fill-rule="evenodd" clip-rule="evenodd" d="M8.72656 28.1636C8.7336 28.2072 8.7311 28.2518 8.71923 28.2943C8.70735 28.3368 8.68639 28.3762 8.65778 28.4098C8.62918 28.4434 8.59362 28.4704 8.55356 28.4889C8.5135 28.5074 8.46991 28.517 8.42578 28.517C8.38165 28.517 8.33805 28.5074 8.298 28.4889C8.25794 28.4704 8.22238 28.4434 8.19378 28.4098C8.16517 28.3762 8.14421 28.3368 8.13233 28.2943C8.12046 28.2518 8.11796 28.2072 8.125 28.1636C8.13655 28.0922 8.17316 28.0272 8.22827 27.9803C8.28339 27.9334 8.3534 27.9076 8.42578 27.9076C8.49816 27.9076 8.56817 27.9334 8.62328 27.9803C8.6784 28.0272 8.71501 28.0922 8.72656 28.1636ZM8.64843 29.6558C8.64843 29.7366 8.61633 29.8141 8.55919 29.8713C8.50205 29.9284 8.42456 29.9605 8.34375 29.9605C8.26294 29.9605 8.18544 29.9284 8.1283 29.8713C8.07116 29.8141 8.03906 29.7366 8.03906 29.6558C8.03906 29.575 8.07116 29.4975 8.1283 29.4404C8.18544 29.3832 8.26294 29.3511 8.34375 29.3511C8.42456 29.3511 8.50205 29.3832 8.55919 29.4404C8.61633 29.4975 8.64843 29.575 8.64843 29.6558Z" fill="#F5F5F5" stroke="black" stroke-width="0.1"/>
<path fill-rule="evenodd" clip-rule="evenodd" d="M22.1875 29.0925C22.3828 28.9128 22.5 28.7957 22.5781 28.6003L23.75 28.4753L23.7734 29.1472L22.1875 29.0925Z" fill="#F5F5F5" stroke="black" stroke-width="0.1"/>
<path fill-rule="evenodd" clip-rule="evenodd" d="M30.7579 28.3039C30.0783 28.4289 29.0548 28.2415 28.7267 28.6789C28.3204 29.1321 29.9767 29.8352 29.7423 30.2258C29.2267 30.7727 28.7032 30.5461 28.1251 30.2493C27.9923 29.9524 27.8907 29.4289 27.8126 29.2727C28.0236 28.7961 28.5861 28.5539 28.4376 27.8274C27.4923 27.4758 25.672 27.5071 25.4689 27.6399C25.3126 27.9446 25.4611 28.0852 25.4298 28.3196C25.5861 28.6321 25.9845 29.1399 25.9845 29.4133C24.9923 29.7649 24.7345 29.3586 23.836 29.3821C22.7892 29.3977 22.1485 29.6789 21.922 29.2571C22.0782 28.8977 23.0392 29.1946 23.4064 28.9602C23.586 28.8977 23.7032 28.7493 23.8673 28.593C24.0314 28.4368 24.4689 28.4211 24.5314 28.0227C24.3439 27.1711 23.1173 27.304 22.9142 27.1711L19.711 27.3899C19.1329 27.3743 18.8126 28.4211 19.5938 28.7336C20.3751 29.0461 22.6876 28.2649 23.6954 28.8039C23.7501 28.5852 24.4689 28.2571 24.5235 28.2415C24.8282 28.3352 25.4298 28.3039 25.4298 28.3039C25.5704 28.5696 25.7423 28.7727 25.8907 29.0461C26.5548 28.7493 27.1798 29.2727 27.9064 29.1243L29.0314 29.2414L29.7579 29.1789L30.8517 29.4914L30.0704 28.8039L30.7579 28.3039Z" fill="#F5F5F5" stroke="black" stroke-width="0.1" stroke-linejoin="round"/>
<path fill-rule="evenodd" clip-rule="evenodd" d="M30.8135 28.1638C30.8064 28.2074 30.8089 28.2519 30.8208 28.2944C30.8327 28.3369 30.8537 28.3764 30.8823 28.41C30.9109 28.4436 30.9464 28.4705 30.9865 28.489C31.0265 28.5076 31.0701 28.5171 31.1143 28.5171C31.1584 28.5171 31.202 28.5076 31.2421 28.489C31.2821 28.4705 31.3177 28.4436 31.3463 28.41C31.3749 28.3764 31.3959 28.3369 31.4077 28.2944C31.4196 28.2519 31.4221 28.2074 31.4151 28.1638C31.4151 28.083 31.383 28.0055 31.3258 27.9484C31.2687 27.8912 31.1912 27.8591 31.1104 27.8591C31.0296 27.8591 30.9521 27.8912 30.8949 27.9484C30.8378 28.0055 30.8057 28.083 30.8057 28.1638H30.8135ZM30.8916 29.6638C30.8846 29.7074 30.8871 29.7519 30.8989 29.7944C30.9108 29.8369 30.9318 29.8764 30.9604 29.91C30.989 29.9436 31.0246 29.9705 31.0646 29.989C31.1047 30.0076 31.1483 30.0171 31.1924 30.0171C31.2365 30.0171 31.2801 30.0076 31.3202 29.989C31.3603 29.9705 31.3958 29.9436 31.4244 29.91C31.453 29.8764 31.474 29.8369 31.4859 29.7944C31.4977 29.7519 31.5002 29.7074 31.4932 29.6638C31.4816 29.5924 31.445 29.5274 31.3899 29.4804C31.3348 29.4335 31.2648 29.4078 31.1924 29.4078C31.12 29.4078 31.05 29.4335 30.9949 29.4804C30.9398 29.5274 30.9032 29.5924 30.8916 29.6638Z" fill="#F5F5F5" stroke="black" stroke-width="0.1"/>
<path fill-rule="evenodd" clip-rule="evenodd" d="M19.75 27.4451C19.4766 27.3904 19.3828 27.406 19.2031 27.3904L18.7734 28.7107C19.4297 28.7654 20.0469 28.7654 20.0469 28.7654C19.6485 28.6873 19.7422 27.4529 19.75 27.4373V27.4451Z" fill="#F5F5F5"/>
<path d="M17.5205 35.1031V28.6652H18.3994V34.3121H21.3086V35.1031H17.5205Z" fill="black"/>
<path d="M18.3687 35.1443V28.7063H19.2476V35.1443H18.3687Z" fill="black"/>
<path d="M20.4824 35.2141H18.6455V28.7761C19.4277 28.738 19.9917 28.719 20.3374 28.719C20.9731 28.719 21.4653 28.8567 21.814 29.1321C22.1626 29.4045 22.3369 29.7957 22.3369 30.3054C22.3369 30.6042 22.2256 30.8767 22.0029 31.1228C21.7803 31.3689 21.5342 31.5227 21.2646 31.5842C21.7744 31.7073 22.145 31.9109 22.3765 32.1951C22.6108 32.4792 22.728 32.866 22.728 33.3552C22.728 33.9207 22.52 34.3718 22.104 34.7087C21.6909 35.0457 21.1504 35.2141 20.4824 35.2141ZM19.5244 29.4792V31.3293C19.709 31.3469 19.9375 31.3557 20.21 31.3557C21.042 31.3557 21.458 31.0173 21.458 30.3406C21.458 29.7458 21.0757 29.4485 20.311 29.4485C20.0181 29.4485 19.7559 29.4587 19.5244 29.4792ZM19.5244 32.0105V34.467C19.8262 34.4963 20.0576 34.511 20.2188 34.511C20.7695 34.511 21.1709 34.4084 21.4229 34.2034C21.6777 33.9954 21.8052 33.6658 21.8052 33.2146C21.8052 32.7957 21.6836 32.4866 21.4404 32.2874C21.2002 32.0881 20.7974 31.9885 20.2319 31.9885L19.5244 32.0105Z" fill="black"/>
<path d="M20.3418 29.6232V31.4117H22.4688V32.1588H20.3418V34.4791H23.2598V35.2701H19.4629V28.8322H23.3081V29.6232H20.3418Z" fill="black"/>
<path d="M23.8276 35.2839L22.1094 32.5198C21.9131 32.5198 21.6025 32.5051 21.1777 32.4758V35.2839H20.2988V28.8459C20.3311 28.8459 20.5581 28.8357 20.98 28.8152C21.4048 28.7917 21.7139 28.78 21.9072 28.78C23.4541 28.78 24.2275 29.3953 24.2275 30.6257C24.2275 31.03 24.103 31.3948 23.854 31.72C23.605 32.0422 23.3091 32.2429 22.9663 32.322L24.834 35.2839H23.8276ZM21.1777 29.637V31.7288C21.3887 31.7581 21.5938 31.7727 21.793 31.7727C22.3203 31.7727 22.7041 31.6877 22.9443 31.5178C23.1846 31.3479 23.3047 31.0447 23.3047 30.6082C23.3047 30.2478 23.1758 29.9885 22.918 29.8303C22.6602 29.6721 22.2529 29.593 21.6963 29.593C21.6084 29.593 21.4355 29.6077 21.1777 29.637Z" fill="black"/>
<path d="M23.3789 29.6095V35.2565H22.5V29.6095H20.4521V28.8185H25.519V29.6095H23.3789Z" fill="black"/>
<path d="M25.4375 35.1305L24.9937 33.7726H22.5986L22.124 35.1305H21.1396L23.7544 28.6046H23.9873L26.4131 35.1305H25.4375ZM23.8291 30.2921L22.8315 33.1266H24.7432L23.8291 30.2921Z" fill="black"/>
<path d="M22.3525 34.8087L22.6733 34.0001C22.8374 34.1202 23.041 34.2213 23.2842 34.3033C23.5303 34.3824 23.75 34.422 23.9434 34.422C24.2861 34.422 24.5615 34.3282 24.7695 34.1407C24.9775 33.9532 25.0815 33.7145 25.0815 33.4244C25.0815 33.2076 25.0229 33.007 24.9058 32.8224C24.7915 32.6349 24.5015 32.4313 24.0356 32.2115L23.5171 31.9698C23.0776 31.7648 22.77 31.5216 22.5942 31.2404C22.4214 30.9591 22.335 30.6207 22.335 30.2252C22.335 29.7448 22.5049 29.3463 22.8447 29.0299C23.1846 28.7135 23.6211 28.5553 24.1543 28.5553C24.8662 28.5553 25.3613 28.671 25.6396 28.9025L25.3804 29.6671C25.2632 29.5822 25.0845 29.5001 24.8442 29.421C24.604 29.3419 24.3813 29.3024 24.1763 29.3024C23.8774 29.3024 23.6416 29.3873 23.4688 29.5573C23.2988 29.7272 23.2139 29.9454 23.2139 30.212C23.2139 30.3761 23.2446 30.5255 23.3062 30.6603C23.3677 30.795 23.4526 30.9078 23.561 30.9987C23.6724 31.0895 23.8979 31.2169 24.2378 31.381L24.7651 31.6315C25.2046 31.8395 25.5122 32.0885 25.688 32.3785C25.8667 32.6656 25.9561 33.0319 25.9561 33.4772C25.9561 33.9606 25.7612 34.3707 25.3716 34.7076C24.9849 35.0446 24.4663 35.213 23.8159 35.213C23.2446 35.213 22.7568 35.0782 22.3525 34.8087Z" fill="black"/>
<path d="M11.4219 17.8201C11.9531 18.2029 11.9531 19.5701 11.9531 19.5701M12.6094 26.5466C13.4531 26.6482 14.6172 26.5778 15.125 26.5466H12.6094ZM11.3438 23.6794C12.0469 24.2419 13.6016 24.57 13.5781 24.57L11.3438 23.6794ZM14.4609 24.7263C14.2344 23.5544 13.9844 23.281 13.7812 22.5388L14.4609 24.7263ZM10.1484 21.2185C11.3438 21.7576 11.5234 22.1091 12.2813 22.6404L10.1484 21.2185ZM12.7109 21.4685C12.8125 20.031 13.0234 19.6482 13.375 19.3201L12.7109 21.4685ZM10.1484 19.1404C10.7602 19.8043 11.3774 20.4632 12 21.1169L10.1484 19.1404Z" stroke="#00A400" stroke-width="0.1" stroke-linecap="round"/>
</g>
</svg>
