<svg width="40" height="40" viewBox="0 0 40 40" fill="none" xmlns="http://www.w3.org/2000/svg">
<mask id="mask0" style="mask-type:alpha" maskUnits="userSpaceOnUse" x="0" y="0" width="40" height="40">
<rect width="40" height="40" rx="2" fill="white"/>
</mask>
<g mask="url(#mask0)">
<path d="M0 0H40V40H0V0Z" fill="#EE1C25"/>
<path d="M0 0H40V26.6641H0V0Z" fill="#F5F5F5"/>
<path d="M0 0H40V13.3359H0V0Z" fill="#F5F5F5"/>
<path d="M15.875 30.8984C12.2891 29.1797 7.16406 25.7422 7.16406 18.9609C7.16406 12.1797 7.48438 9.10156 7.48438 9.10156H24.2656C24.2656 9.10156 24.5938 12.1797 24.5938 18.9609C24.5938 25.7422 19.4531 29.1719 15.875 30.8984Z" fill="#F5F5F5"/>
<path d="M15.875 30C12.5859 28.4141 7.88281 25.2734 7.88281 19.0469C7.88281 12.8203 8.17969 10 8.17969 10H23.5703C23.5703 10 23.8672 12.8281 23.8672 19.0469C23.8672 25.2656 19.1641 28.4219 15.875 30Z" fill="#EE1C25"/>
<path d="M16.5781 17.4216C17.4688 17.4373 19.211 17.4685 20.7578 16.9529C20.7578 16.9529 20.711 17.4998 20.711 18.1482C20.711 18.7966 20.7578 19.3435 20.7578 19.3435C19.3978 18.9688 17.9873 18.8107 16.5781 18.8748V22.3123H15.1719V18.8748C13.7627 18.8107 12.3522 18.9688 10.9922 19.3435C10.9922 19.3435 11.0391 18.7966 11.0391 18.1482C11.0391 17.4998 10.9922 16.9529 10.9922 16.9529C12.5469 17.4685 14.2813 17.4373 15.1719 17.4216V15.2576C14.0514 15.2301 12.9343 15.3912 11.8672 15.7341C11.8672 15.7341 11.9063 15.1873 11.9063 14.5388C11.9063 13.8904 11.8672 13.3357 11.8672 13.3357C13.1953 13.781 14.3594 13.8201 15.1641 13.8044C15.125 12.4451 14.7266 10.7263 14.7266 10.7263C14.7266 10.7263 15.5469 10.7888 15.875 10.7888C16.2031 10.7888 17.0234 10.7263 17.0234 10.7263C17.0234 10.7263 16.625 12.4451 16.5781 13.8123C17.6983 13.8453 18.816 13.6867 19.8828 13.3435C19.8828 13.3435 19.8438 13.8904 19.8438 14.5388C19.8438 15.1873 19.8828 15.7341 19.8828 15.7341C18.5547 15.2888 17.3906 15.2576 16.5781 15.2654V17.4216Z" fill="#F5F5F5"/>
<path d="M15.875 21.9373C14.2188 21.9373 13.3281 24.2341 13.3281 24.2341C13.3281 24.2341 12.8359 23.1404 11.4844 23.1404C10.5703 23.1404 9.89844 23.9607 9.46875 24.7185C11.1328 27.3591 13.7891 28.9919 15.875 29.9998C17.9609 28.9919 20.6172 27.3591 22.2813 24.7107C21.8516 23.9607 21.1797 23.1482 20.2656 23.1482C18.9141 23.1482 18.4219 24.2419 18.4219 24.2419C18.4219 24.2419 17.5313 21.9373 15.875 21.9373Z" fill="#0B4EA2"/>
</g>
</svg>
