<svg xmlns="http://www.w3.org/2000/svg" width="72" height="72" fill="none">
  <path
    d="M45 48c11.598 0 21-9.402 21-21S56.598 6 45 6s-21 9.402-21 21 9.402 21 21 21z"
    fill="url(#paint0_linear)"
  ></path>
  <path
    d="M28.63 51.75H16.75c-2.21 0-4-1.79-4-4v-37c0-2.21 1.79-4 4-4h32.5c2.21 0 4 1.79 4 4v27.67M15.75 10.12h1.5M18.75 10.12h1.5M21.75 10.12h1.5M13.5 13.48h39"
    stroke="currentColor"
    stroke-width="2"
    stroke-linejoin="round"
  ></path>
  <path
    d="M32.25 23.16l1.81-1.81a3.784 3.784 0 015.34 0 3.784 3.784 0 010 5.34l-1.81 1.81M28.41 27l-1.81 1.81a3.784 3.784 0 000 5.34 3.784 3.784 0 005.34 0l1.81-1.81M35.56 25.19l-5.12 5.12M35.33 41.41v-1.4c0-1.03.84-1.87 1.87-1.87h26.18c1.03 0 1.87.84 1.87 1.87v16.83c0 1.03-.84 1.87-1.87 1.87h-1.4"
    stroke="currentColor"
    stroke-width="2"
    stroke-linejoin="round"
  ></path>
  <path
    d="M55.64 65.25H32.79c-2.21 0-4-1.79-4-4V48.68c0-2.21 1.79-4 4-4h22.85c2.21 0 4 1.79 4 4v12.57c0 2.21-1.79 4-4 4zM32.53 51.23h9.35M51.75 58.71h4.15M32.53 58.71h16.83"
    stroke="currentColor"
    stroke-width="2"
    stroke-linejoin="round"
  ></path>
  <defs>
    <linearGradient
      id="paint0_linear"
      x1="70.2"
      y1="-3.45"
      x2="25.054"
      y2="61.734"
      gradientUnits="userSpaceOnUse"
    >
      <stop stop-color="#2BD4DB" stop-opacity=".8"></stop>
      <stop offset="1" stop-color="#D5F6F8" stop-opacity=".3"></stop>
    </linearGradient>
  </defs>
</svg>
