<svg
  xmlns="http://www.w3.org/2000/svg"
  class="e-commerce-img"
  width="178"
  height="40"
  fill="none"
>
  <path
    d="M48.84 19.368c2.7 0 4.512 1.22 5.62 2.736V.511c0-.407-.48-.666-.813-.407L26.988 19.59h.703c2.773 0 4.178 1.774 4.178 3.697 0 1.516-.776 2.626-1.849 3.106a.219.219 0 000 .407c1.22.517 2.108 1.812 2.108 3.365 0 2.218-1.442 3.956-4.215 3.956h-7.58a.292.292 0 01-.296-.296v-9.17L.181 39.187c-.332.295-.185.813.26.813h53.54a.427.427 0 00.443-.444v-7.358c-1.442 1.331-3.328 2.182-5.62 2.182-4.29 0-7.765-2.958-7.765-7.506.037-4.585 3.55-7.506 7.802-7.506zM38.23 33.862c0 .148-.111.259-.259.259h-2.551a.253.253 0 01-.26-.259V19.848c0-.147.112-.258.26-.258h2.551c.148 0 .259.11.259.259v14.013z"
    fill="#34313F"
  ></path>
  <path
    d="M23.439 25.358h3.586c1.036 0 1.701-.592 1.701-1.516 0-.888-.665-1.516-1.7-1.516H23.29a.16.16 0 00-.148.148v2.625c0 .148.148.259.296.259zM23.439 31.422h3.734c1.147 0 1.849-.629 1.849-1.664 0-.924-.666-1.664-1.849-1.664H23.44a.292.292 0 00-.296.296v2.736c0 .148.148.296.296.296zM52.132 23.768c-.703-.925-1.886-1.664-3.291-1.664-2.663 0-4.585 2.034-4.585 4.77 0 2.736 1.922 4.77 4.585 4.77 1.22 0 2.366-.518 2.995-1.036a.282.282 0 00.074-.185v-1.405a.239.239 0 00-.222-.221h-3.291a.292.292 0 01-.296-.296v-2.07c0-.186.148-.297.296-.297h6.1v-3.29l-1.959 1.072a.41.41 0 01-.406-.148zM56.753 26.874c0-4.474 3.217-7.506 7.358-7.506 2.7 0 4.437 1.368 5.473 3.032.074.11.037.296-.111.333l-1.664.887c-.111.074-.259.037-.296-.074-.702-1.11-1.997-1.923-3.402-1.923-2.773 0-4.843 2.182-4.843 5.25 0 3.033 2.07 5.251 4.843 5.251 1.405 0 2.7-.813 3.402-1.922.074-.111.185-.148.296-.074l1.664.85c.148.074.185.222.11.37-1.072 1.664-2.81 3.069-5.472 3.069-4.14-.037-7.358-3.106-7.358-7.543zM71.026 26.874c0-3.624 2.07-6.434 5.176-7.247 5.288-1.405 10.132 3.55 8.985 9.059-.702 3.401-3.401 5.73-6.988 5.73-4.215-.036-7.173-3.216-7.173-7.542zm11.795 0c0-2.995-1.849-5.25-4.659-5.25-2.847 0-4.659 2.255-4.659 5.25s1.812 5.25 4.659 5.25c2.847 0 4.659-2.292 4.659-5.25zM100.421 33.936V22.881l-4.4 11.129c0 .037-.074.074-.11.074h-.925c-.037 0-.111-.037-.111-.074l-4.437-11.13v11.056c0 .111-.074.185-.185.185h-2.219c-.11 0-.184-.074-.184-.185V19.738c0-.111.073-.185.184-.185h3.18c.148 0 .26.074.333.222l3.882 9.983 3.846-9.983c.037-.148.185-.222.333-.222h3.179c.111 0 .185.074.185.185v14.198c0 .111-.074.185-.185.185h-2.218c-.037 0-.148-.074-.148-.185zM125.564 33.862V19.848c0-.147.111-.258.259-.258h9.429c.148 0 .258.11.258.259v1.7c0 .148-.11.26-.258.26h-6.878a.253.253 0 00-.259.258v3.217c0 .148.111.259.259.259h6.73c.148 0 .259.11.259.259v1.7a.253.253 0 01-.259.26h-6.73a.253.253 0 00-.259.258v3.513c0 .148.111.258.259.258h6.878c.148 0 .258.111.258.26v1.7c0 .148-.11.259-.258.259h-9.429c-.148.111-.259 0-.259-.148zM147.343 33.973l-3.069-5.176c-.037-.074-.148-.111-.222-.111h-2.145a.253.253 0 00-.259.258v4.918a.253.253 0 01-.258.259h-1.997a.253.253 0 01-.259-.259V19.848c0-.147.111-.258.259-.258h6.138c2.884 0 4.77 1.849 4.77 4.548 0 2.403-1.479 3.771-3.106 4.178-.185.037-.259.222-.185.407.591.96 2.44 3.919 3.143 4.991.111.185 0 .407-.222.407h-2.33c-.111 0-.185-.037-.258-.148zm.332-9.872c0-1.405-1.035-2.293-2.477-2.293h-3.254a.253.253 0 00-.259.26v4.103c0 .148.111.26.259.26h3.254c1.442 0 2.477-.888 2.477-2.33zM167.531 33.862V19.848c0-.147.111-.258.259-.258h9.465c.148 0 .259.11.259.259v1.737a.253.253 0 01-.259.26h-6.914a.253.253 0 00-.259.258v3.254c0 .148.111.259.259.259h6.73c.148 0 .258.11.258.258v1.738c0 .148-.11.26-.258.26h-6.73a.253.253 0 00-.259.258v3.55c0 .147.111.258.259.258h6.914c.148 0 .259.111.259.26v1.737a.253.253 0 01-.259.259h-9.465c-.148-.074-.259-.185-.259-.333zM152.149 26.8c0-4.474 3.217-7.506 7.358-7.506 2.7 0 4.437 1.368 5.473 3.032.074.11.037.296-.111.333l-1.664.887c-.111.074-.259.037-.296-.074-.702-1.11-1.997-1.923-3.402-1.923-2.773 0-4.843 2.182-4.843 5.25 0 3.033 2.07 5.251 4.843 5.251 1.405 0 2.7-.813 3.402-1.922.074-.111.185-.148.296-.074l1.664.85c.148.074.185.222.111.37-1.073 1.664-2.81 3.069-5.473 3.069-4.141-.037-7.358-3.07-7.358-7.543zM119.278 33.936V22.881l-4.4 11.129c0 .037-.074.074-.111.074h-.924c-.037 0-.111-.037-.111-.074l-4.437-11.13v11.056c0 .111-.074.185-.185.185h-2.218c-.111 0-.185-.074-.185-.185V19.738c0-.111.074-.185.185-.185h3.18c.147 0 .258.074.332.222l3.883 9.983 3.845-9.983c.037-.148.185-.222.333-.222h3.18c.111 0 .185.074.185.185v14.198c0 .111-.074.185-.185.185h-2.219c-.074 0-.148-.074-.148-.185z"
    fill="#34313F"
  ></path>
</svg>
