<svg
  xmlns="http://www.w3.org/2000/svg"
  class="e-commerce-img"
  width="177"
  height="35"
  fill="none"
>
  <path
    d="M33.88 17.847c.974 0 1.536-.065 2.766-.325l.302 2.075c-.952.26-2.01.39-3.073.39-4.735 0-6.1-2.961-6.1-6.424.042-3.375 2.075-6.23 6.077-6.23 1.058 0 1.968.13 3.072.414l-.413 2.056c-1.17-.26-1.861-.302-2.595-.302-2.506.042-3.74 1.904-3.782 4.067.004 2.135.807 4.28 3.745 4.28zM43.566 7.338c3.895.023 5.622 2.92 5.622 6.312 0 3.31-1.49 6.271-5.645 6.295-4.066-.042-5.62-2.985-5.62-6.295 0-3.393 1.75-6.27 5.643-6.312zm0 10.527c2.488-.023 3.287-2.033 3.287-4.215-.023-1.99-.864-4.238-3.31-4.238-2.376.024-3.31 2.228-3.31 4.238 0 2.27.999 4.215 3.333 4.215zM65.299 19.727v-7.784c0-1.968-.734-2.507-1.968-2.507-.845 0-1.797.478-2.66 1.189.042.26.065.78.065.928v8.174h-2.423v-7.872c0-1.968-.585-2.442-1.815-2.442-.78 0-1.861.52-2.79 1.212v9.102h-2.4V7.552h2.4v1.04c.734-.585 1.904-1.254 3.18-1.277 1.685-.023 2.66.562 3.203 1.472.993-.929 2.465-1.449 3.588-1.472 3.96-.065 4.02 3.115 4.02 4.456v7.956h-2.4zM84.325 19.727v-7.784c0-1.968-.733-2.507-1.968-2.507-.845 0-1.796.478-2.66 1.189.042.26.065.78.065.928v8.174H77.34v-7.872c0-1.968-.585-2.442-1.814-2.442-.78 0-1.862.52-2.79 1.212v9.102h-2.4V7.552h2.4v1.04c.733-.585 1.903-1.254 3.18-1.277 1.684-.023 2.659.562 3.202 1.472.993-.929 2.465-1.449 3.588-1.472 3.96-.065 4.02 3.115 4.02 4.456v7.956h-2.4zM97.92 17.497l.367 1.968c-1.082.367-2.572.543-3.742.543-4.8 0-5.969-3.221-5.969-6.442 0-3.222 1.43-6.206 5.45-6.206 2.488 0 4.562 1.536 4.586 5.449l-.024 1.276h-7.654c.042 2.377 1.318 3.825 3.718 3.825.956 0 1.95-.111 3.268-.413zm-6.874-5.278h5.342c-.088-2.464-1.318-2.96-2.465-2.96-1.82-.02-2.66 1.21-2.877 2.96zM107.436 9.78a6.413 6.413 0 00-1.555-.172c-1.49-.023-2.27.715-2.832 1.3v8.824h-2.399V7.552h2.399v1.082a3.98 3.98 0 012.813-1.235 5.567 5.567 0 012.01.325l-.436 2.056zM114.459 17.847c.974 0 1.536-.065 2.766-.325l.303 2.075c-.952.26-2.011.39-3.074.39-4.734 0-6.099-2.961-6.099-6.424.042-3.375 2.075-6.23 6.076-6.23 1.059 0 1.968.13 3.073.414l-.413 2.056c-1.17-.26-1.861-.302-2.595-.302-2.506.042-3.74 1.904-3.783 4.067.01 2.135.808 4.28 3.746 4.28zM127.845 17.497l.366 1.968c-1.081.367-2.572.543-3.741.543-4.799 0-5.969-3.221-5.969-6.442 0-3.222 1.43-6.206 5.449-6.206 2.488 0 4.563 1.536 4.586 5.449l-.022 1.276h-7.655c.041 2.377 1.318 3.825 3.718 3.825.956 0 1.949-.111 3.268-.413zm-6.875-5.278h5.343c-.088-2.464-1.318-2.96-2.465-2.96-1.819-.02-2.664 1.21-2.878 2.96zM136.665 9.542h-3.31v5.904c0 1.23.153 2.098 1.407 2.27.691.065 1.406 0 2.098-.089l.153 2.075c-.714.13-1.731.153-2.139.153-2.832-.106-3.895-1.555-3.895-3.829V9.542h-1.75V7.875l1.75-.195V4.85h2.376V7.55h3.31v1.992zM143.651 7.338c3.894.023 5.621 2.92 5.621 6.312 0 3.31-1.49 6.271-5.645 6.295-4.066-.042-5.621-2.985-5.621-6.295 0-3.393 1.75-6.27 5.645-6.312zm0 10.527c2.488-.023 3.286-2.033 3.286-4.215-.023-1.99-.863-4.238-3.31-4.238-2.376.024-3.309 2.228-3.309 4.238.005 2.27.998 4.215 3.333 4.215zM156.577 7.338c3.894.023 5.621 2.92 5.621 6.312 0 3.31-1.49 6.271-5.643 6.295-4.067-.042-5.622-2.985-5.622-6.295.005-3.393 1.754-6.27 5.644-6.312zm0 10.527c2.488-.023 3.286-2.033 3.286-4.215-.023-1.99-.863-4.238-3.308-4.238-2.378.024-3.311 2.228-3.311 4.238.005 2.27.998 4.215 3.333 4.215zM164.102 19.726V3.206h2.311v16.52h-2.311zM168.86 17.369c1.359.348 2.636.52 3.438.52.952 0 1.928-.195 1.992-1.342.065-1.211-1.188-1.578-2.618-2.181-1.62-.669-3.374-1.579-3.328-3.83.042-1.123.715-3.328 4.303-3.221 1.081.023 2.376.195 3.459.478l-.409 1.991c-1.277-.301-2.229-.431-3.157-.455-1.039 0-1.838.325-1.88 1.3-.023.822.627 1.253 2.229 1.903 1.619.669 3.913 1.537 3.806 4.09-.065 1.62-1.124 3.393-4.392 3.35-1.039-.023-2.701-.152-3.936-.584l.493-2.02z"
    fill="#2A4148"
  ></path>
  <path
    d="M.306 19.456a.534.534 0 000 .966l10.305 4.827c.14.065.288.098.436.098V14.578c-.153 0-.306.033-.45.098l-10.29 4.78z"
    fill="#F27923"
  ></path>
  <path
    d="M11.047 14.574v10.769c.158.004.32-.033.469-.098l10.277-4.809a.534.534 0 000-.965l-10.296-4.795a1.097 1.097 0 00-.45-.102z"
    fill="#F5A730"
  ></path>
  <path
    d="M0 5.365c0 .209.12.394.306.482l10.305 4.823c.14.065.288.098.436.102.13 0 .26-.018.385-.065l.288-.134c1.063-.492.358-.168 10.068-4.712a.534.534 0 000-.965L11.498.1a1.044 1.044 0 00-.896 0L.306 4.881A.538.538 0 000 5.366z"
    fill="#20AD92"
  ></path>
  <path
    d="M11.047 11.376v3.198c-.153 0-.306.032-.45.097L.307 19.457a.533.533 0 00-.307.482V5.722v-.357c0 .208.12.394.306.482l10.305 4.823c.14.065.288.098.436.102.13 0 .26-.018.385-.065l-.018.01c-.32.143-.367.292-.367.659z"
    fill="#D0D1D1"
  ></path>
  <path
    d="M68.169 32.696h-.85l-2.158-5.742h-.028a29.509 29.509 0 01-.348 1.963l-.808 3.779h-.761l1.448-6.86h.845l2.154 5.727h.027c.093-.7.21-1.337.34-1.903l.816-3.825h.77l-1.447 6.86zM71.881 32.79c-.576 0-1.026-.171-1.355-.51-.33-.339-.492-.813-.492-1.416 0-.59.116-1.151.348-1.694.232-.539.543-.96.928-1.258a2.01 2.01 0 011.272-.45c.478 0 .84.102 1.082.31.24.21.361.497.361.873 0 .562-.26 1.008-.78 1.328-.52.32-1.262.483-2.227.483h-.153l-.019.376c0 .408.097.728.288.96.19.233.492.344.896.344.195 0 .399-.028.608-.084.209-.055.468-.157.775-.31v.686c-.293.14-.552.233-.78.288a3.79 3.79 0 01-.752.074zm.655-4.664c-.32 0-.627.148-.91.44-.283.293-.502.701-.65 1.226h.056c.714 0 1.258-.093 1.638-.279.38-.185.571-.454.571-.807a.544.544 0 00-.172-.413c-.111-.112-.292-.167-.533-.167zM76.504 30.656l-1.624 2.038h-.914l2.228-2.65-1.124-2.494h.799l.817 1.936 1.55-1.936h.91l-2.136 2.53 1.184 2.614h-.789l-.9-2.038zM80.761 32.146c.172 0 .4-.042.678-.121v.603a2.05 2.05 0 01-.395.112 1.942 1.942 0 01-.376.046c-.39 0-.691-.093-.9-.278-.21-.186-.311-.465-.311-.831 0-.204.028-.441.083-.706l.594-2.827h-.807l.065-.343.868-.367.584-1.072h.46l-.26 1.184h1.286l-.12.594h-1.282l-.603 2.836a3.384 3.384 0 00-.084.617c0 .177.046.311.135.404a.52.52 0 00.385.149zM89.683 27.55l-.116.501-.989.112c.13.195.19.44.19.742 0 .6-.18 1.073-.547 1.43-.367.357-.85.534-1.463.534-.171 0-.301-.014-.394-.037-.436.167-.654.371-.654.613 0 .13.05.213.153.255.102.042.255.074.45.102l.548.065c.566.07.974.209 1.23.413.255.204.38.51.38.91 0 .575-.227 1.02-.687 1.337-.455.315-1.1.473-1.93.473-.609 0-1.082-.116-1.425-.343-.344-.228-.516-.553-.516-.975 0-.33.112-.613.339-.854.228-.242.59-.446 1.095-.613-.246-.13-.366-.316-.366-.566 0-.214.079-.4.241-.557.158-.153.38-.302.669-.437a1.232 1.232 0 01-.669-1.128c0-.608.186-1.104.562-1.494.376-.39.85-.58 1.434-.58.246 0 .483.032.724.093h1.74v.004zm-5 6.058c0 .24.103.431.307.57.204.14.506.214.905.214.571 0 1.017-.098 1.337-.297.32-.2.483-.478.483-.84a.518.518 0 00-.256-.46c-.167-.111-.454-.19-.863-.236l-.747-.075c-.376.08-.664.218-.864.413a.958.958 0 00-.301.71zm1.31-4.104c0 .265.07.47.213.608.14.14.334.21.585.21.246 0 .464-.066.65-.196s.325-.31.427-.543a1.9 1.9 0 00.148-.747c0-.255-.07-.45-.204-.585-.139-.135-.334-.2-.59-.2-.245 0-.459.065-.64.19a1.25 1.25 0 00-.427.53 1.59 1.59 0 00-.162.733zM91.646 32.79c-.576 0-1.026-.171-1.356-.51-.33-.339-.492-.813-.492-1.416 0-.59.116-1.151.348-1.694.233-.539.543-.96.929-1.258a2.01 2.01 0 011.272-.45c.478 0 .84.102 1.081.31.242.21.362.497.362.873 0 .562-.26 1.008-.78 1.328-.52.32-1.262.483-2.228.483h-.153l-.018.376c0 .408.097.728.287.96.195.233.492.344.896.344.195 0 .4-.028.608-.084.21-.055.47-.157.775-.31v.686c-.292.14-.552.233-.78.288a3.788 3.788 0 01-.751.074zm.65-4.664c-.32 0-.627.148-.91.44-.283.293-.501.701-.65 1.226h.056c.715 0 1.257-.093 1.638-.279.38-.185.571-.454.571-.807a.544.544 0 00-.172-.413c-.106-.112-.287-.167-.533-.167zM97.5 32.694l.696-3.249c.06-.325.093-.552.093-.678a.674.674 0 00-.167-.473c-.112-.12-.289-.177-.534-.177a1.36 1.36 0 00-.813.284c-.264.185-.496.454-.7.803-.205.348-.353.765-.46 1.262l-.474 2.228h-.789l1.1-5.143h.655l-.102.952h.046c.302-.38.59-.65.873-.808.283-.158.57-.237.873-.237.399 0 .71.107.942.325.232.218.343.52.343.915a4 4 0 01-.106.845l-.674 3.151h-.803zM101.932 32.79c-.576 0-1.026-.171-1.356-.51-.328-.339-.491-.813-.491-1.416 0-.59.116-1.151.348-1.694.232-.539.543-.96.928-1.258a2.01 2.01 0 011.272-.45c.479 0 .84.102 1.082.31.241.21.361.497.361.873 0 .562-.259 1.008-.78 1.328-.519.32-1.261.483-2.227.483h-.153l-.019.376c0 .408.098.728.289.96.194.233.491.344.895.344.194 0 .399-.028.608-.084a4.26 4.26 0 00.775-.31v.686c-.292.14-.553.233-.78.288a3.788 3.788 0 01-.752.074zm.654-4.664c-.319 0-.625.148-.909.44-.283.293-.501.701-.649 1.226h.055c.715 0 1.258-.093 1.639-.279.38-.185.57-.454.57-.807a.546.546 0 00-.171-.413c-.112-.112-.293-.167-.535-.167zM107.892 27.458c.213 0 .404.024.562.065l-.167.706a2.014 2.014 0 00-.493-.06c-.283 0-.552.093-.798.283-.25.185-.465.45-.654.78a3.91 3.91 0 00-.409 1.109l-.502 2.358h-.788l1.099-5.143h.655l-.102.951h.047c.227-.297.412-.51.557-.64.148-.13.301-.232.464-.302.153-.074.333-.107.529-.107zM111.169 27.458c.287 0 .543.08.77.233.228.153.4.376.526.668h.05l.316-.808h.594l-1.096 5.143h-.622l.122-.98h-.038c-.562.716-1.151 1.078-1.768 1.078-.436 0-.775-.154-1.021-.465-.247-.31-.372-.733-.372-1.271 0-.65.111-1.254.335-1.81.223-.557.529-.994.919-1.31.39-.315.821-.478 1.285-.478zm-.891 4.68c.302 0 .604-.145.905-.437.302-.288.543-.669.734-1.133.19-.464.283-.928.283-1.397 0-.32-.089-.58-.265-.77a.895.895 0 00-.692-.288c-.325 0-.626.134-.909.404-.283.269-.502.631-.66 1.095-.158.46-.241.947-.241 1.453 0 .357.075.622.219.798.153.186.361.274.626.274zM115.453 32.146c.172 0 .4-.042.679-.121v.603a2.054 2.054 0 01-.395.112 2.403 2.403 0 01-.376.046c-.389 0-.692-.093-.901-.278-.208-.186-.311-.465-.311-.831 0-.204.029-.441.084-.706l.594-2.827h-.807l.065-.343.868-.367.584-1.072h.459l-.259 1.184h1.285l-.12.594h-1.281l-.604 2.836a3.444 3.444 0 00-.083.617c0 .177.046.311.134.404a.52.52 0 00.385.149zM117.784 32.693h-.79l1.101-5.143h.789l-1.1 5.143zm.528-6.456c0-.177.052-.32.15-.427a.498.498 0 01.39-.167c.273 0 .412.139.412.422 0 .172-.05.316-.158.436a.467.467 0 01-.672.06.431.431 0 01-.122-.324zM122.174 27.484c.593 0 1.062.176 1.406.529.344.353.515.835.515 1.453 0 .59-.111 1.142-.338 1.666-.227.525-.529.928-.914 1.212a2.158 2.158 0 01-1.305.427c-.599 0-1.072-.177-1.412-.53-.338-.352-.51-.835-.51-1.448 0-.594.116-1.155.344-1.675.228-.525.539-.929.924-1.207.39-.288.816-.427 1.29-.427zm1.109 1.87c0-.357-.097-.65-.292-.877-.195-.223-.459-.334-.794-.334-.344 0-.645.116-.919.348-.269.232-.483.552-.631.965a4.037 4.037 0 00-.223 1.374c0 .409.097.73.297.952.199.223.483.334.859.334.325 0 .617-.116.876-.343.261-.228.465-.553.609-.975.144-.418.218-.9.218-1.444zM127.972 32.694l.696-3.249c.06-.325.093-.552.093-.678a.672.672 0 00-.167-.473c-.112-.12-.288-.177-.534-.177-.279 0-.552.093-.813.284-.263.185-.496.454-.7.803-.204.348-.353.765-.46 1.262l-.473 2.228h-.79l1.101-5.143h.654l-.102.952h.047c.302-.38.589-.65.872-.808.284-.158.571-.237.873-.237.399 0 .71.107.942.325.232.218.344.52.344.915 0 .246-.038.529-.107.845l-.673 3.151h-.803zM134.967 32.79c-.608 0-1.077-.167-1.411-.5-.334-.335-.501-.809-.501-1.416 0-.627.115-1.203.347-1.732.232-.53.553-.942.962-1.235a2.285 2.285 0 011.378-.445c.427 0 .849.079 1.258.241l-.223.664c-.375-.158-.719-.241-1.026-.241a1.5 1.5 0 00-.961.357c-.287.241-.515.57-.682.998a3.79 3.79 0 00-.246 1.392c0 .4.102.71.311.933.209.223.497.335.863.335.228 0 .437-.033.641-.093.204-.06.399-.135.589-.223v.673a2.92 2.92 0 01-1.299.292zM139.938 27.484c.594 0 1.062.176 1.406.529.343.353.515.835.515 1.453a4.14 4.14 0 01-.339 1.666c-.227.525-.529.928-.914 1.212a2.15 2.15 0 01-1.304.427c-.599 0-1.072-.177-1.411-.53-.34-.352-.511-.835-.511-1.448 0-.594.116-1.155.343-1.675.228-.525.539-.929.924-1.207.39-.288.817-.427 1.291-.427zm1.108 1.87c0-.357-.096-.65-.292-.877-.194-.223-.459-.334-.794-.334a1.38 1.38 0 00-.919.348c-.268.232-.483.552-.631.965a4.037 4.037 0 00-.223 1.374c0 .409.098.73.297.952.201.223.483.334.859.334.325 0 .617-.116.878-.343.26-.228.464-.553.607-.975.144-.418.218-.9.218-1.444zM145.583 32.693l.696-3.25c.055-.292.084-.505.084-.63 0-.218-.048-.39-.144-.51-.098-.122-.265-.182-.497-.182-.265 0-.52.093-.766.283-.251.186-.469.455-.66.803-.189.348-.333.77-.44 1.258l-.474 2.228h-.789l1.1-5.143h.655l-.102.952h.046c.274-.372.543-.641.812-.803a1.6 1.6 0 01.836-.246c.353 0 .626.102.817.306.19.204.302.487.338.85h.038c.269-.39.557-.683.859-.873.301-.19.608-.283.919-.283.399 0 .705.106.923.32.218.213.325.524.325.928 0 .214-.033.492-.102.836l-.678 3.151h-.798l.696-3.249c.06-.325.093-.552.093-.687a.672.672 0 00-.163-.468c-.107-.117-.278-.177-.51-.177-.255 0-.501.093-.752.274a2.37 2.37 0 00-.649.77c-.187.335-.33.73-.428 1.184l-.501 2.349h-.784v.009zM153.961 32.693l.696-3.25c.055-.292.084-.505.084-.63 0-.218-.048-.39-.144-.51-.098-.122-.265-.182-.497-.182-.265 0-.52.093-.766.283-.251.186-.469.455-.66.803-.189.348-.333.77-.44 1.258l-.474 2.228h-.789l1.1-5.143h.655l-.102.952h.046c.274-.372.543-.641.812-.803a1.6 1.6 0 01.836-.246c.353 0 .626.102.817.306.19.204.302.487.338.85h.038c.269-.39.557-.683.859-.873.301-.19.608-.283.919-.283.399 0 .705.106.923.32.218.213.325.524.325.928 0 .214-.033.492-.102.836l-.678 3.151h-.798l.696-3.249c.06-.325.093-.552.093-.687a.672.672 0 00-.163-.468c-.106-.117-.278-.177-.51-.177-.255 0-.501.093-.752.274-.245.18-.465.44-.649.77-.187.335-.33.73-.428 1.184l-.501 2.349h-.784v.009zM161.388 32.79c-.576 0-1.026-.171-1.356-.51-.33-.339-.491-.813-.491-1.416 0-.59.115-1.151.347-1.694.232-.539.543-.96.928-1.258.386-.302.809-.45 1.273-.45.478 0 .84.102 1.081.31.242.21.362.497.362.873 0 .562-.259 1.008-.78 1.328-.52.32-1.262.483-2.228.483h-.153l-.019.376c0 .408.098.728.288.96.195.233.492.344.896.344.195 0 .4-.028.608-.084.209-.055.469-.157.775-.31v.686c-.292.14-.552.233-.78.288a3.786 3.786 0 01-.751.074zm.654-4.664c-.32 0-.627.148-.91.44-.283.293-.5.701-.65 1.226h.056c.716 0 1.259-.093 1.639-.279.381-.185.57-.454.57-.807a.543.543 0 00-.171-.413c-.112-.112-.293-.167-.534-.167zM167.347 27.458c.214 0 .404.024.562.065l-.167.706a2.006 2.006 0 00-.492-.06c-.283 0-.552.093-.798.283-.251.185-.464.45-.655.78a3.91 3.91 0 00-.409 1.109l-.5 2.358h-.79l1.101-5.143h.653l-.101.951h.046c.227-.297.414-.51.557-.64a1.78 1.78 0 01.464-.302c.154-.074.335-.107.529-.107zM169.998 32.79c-.608 0-1.077-.167-1.411-.5-.334-.335-.501-.809-.501-1.416 0-.627.115-1.203.347-1.732.233-.53.553-.942.962-1.235a2.285 2.285 0 011.378-.445c.428 0 .849.079 1.258.241l-.223.664c-.375-.158-.719-.241-1.026-.241a1.5 1.5 0 00-.961.357c-.287.241-.515.57-.682.998a3.79 3.79 0 00-.246 1.392c0 .4.102.71.311.933.21.223.497.335.863.335.228 0 .437-.033.641-.093.204-.06.399-.135.589-.223v.673a2.92 2.92 0 01-1.299.292zM174.258 32.79c-.574 0-1.024-.171-1.354-.51-.33-.339-.493-.813-.493-1.416 0-.59.117-1.151.349-1.694.232-.539.543-.96.928-1.258a2.01 2.01 0 011.271-.45c.479 0 .841.102 1.082.31.241.21.363.497.363.873 0 .562-.261 1.008-.78 1.328-.521.32-1.263.483-2.229.483h-.153l-.018.376c0 .408.097.728.288.96.194.233.492.344.895.344.195 0 .399-.028.609-.084a4.26 4.26 0 00.775-.31v.686c-.293.14-.552.233-.78.288a3.753 3.753 0 01-.753.074zm.655-4.664c-.32 0-.626.148-.909.44-.284.293-.502.701-.65 1.226h.055c.715 0 1.258-.093 1.639-.279.38-.185.571-.454.571-.807a.54.54 0 00-.172-.413c-.111-.112-.287-.167-.534-.167z"
    fill="#2A4148"
  ></path>
</svg>
