<svg width="132" height="40" viewBox="0 0 132 40" fill="none" xmlns="http://www.w3.org/2000/svg">
<g clip-path="url(#clip0_7_2)">
<path d="M54.6451 10.7097H62.9673L58.5635 3.56988L50.4469 16.4329H46.7171L56.5872 1.01098C56.8017 0.69547 57.0918 0.438696 57.431 0.264095C57.7702 0.0894941 58.1478 0.00262535 58.5292 0.0114089C58.9031 0.00499477 59.2725 0.0932799 59.6031 0.268052C59.9336 0.442824 60.2146 0.698401 60.4198 1.01098L70.3413 16.4958H66.6686L64.955 13.6056H56.5015L54.6623 10.7497L54.6451 10.7097ZM92.983 13.6056V0.159914H89.8129V14.9079C89.8112 15.1139 89.8519 15.3181 89.9325 15.5078C90.0131 15.6974 90.1318 15.8685 90.2813 16.0103C90.5856 16.3114 90.9956 16.4815 91.4237 16.4843H105.703L107.542 13.5942H92.9659L92.983 13.6056ZM41.1538 11.2009C42.6156 11.2009 44.0176 10.6202 45.0513 9.5865C46.085 8.55281 46.6657 7.15083 46.6657 5.68897C46.6657 4.22712 46.085 2.82514 45.0513 1.79146C44.0176 0.75777 42.6156 0.177048 41.1538 0.177048H27.4454V16.4501H30.5926V3.04439H40.9482C41.6231 3.07589 42.2599 3.36616 42.7264 3.85492C43.1929 4.34367 43.4531 4.99335 43.4531 5.66898C43.4531 6.34462 43.1929 6.9943 42.7264 7.48305C42.2599 7.97181 41.6231 8.26208 40.9482 8.29357H32.1234L41.4679 16.4329H46.0374L39.7544 11.1266H41.1709L41.1538 11.2009ZM8.13365 16.4329H17.5867C19.7074 16.3768 21.7222 15.4949 23.2023 13.9751C24.6823 12.4553 25.5105 10.4178 25.5105 8.29643C25.5105 6.17507 24.6823 4.13753 23.2023 2.61776C21.7222 1.098 19.7074 0.216105 17.5867 0.159914H8.13365C7.04701 0.13112 5.96561 0.320282 4.95327 0.716233C3.94092 1.11218 3.01814 1.7069 2.23939 2.4653C1.46063 3.22369 0.841681 4.13039 0.419053 5.13189C-0.00357483 6.13339 -0.221313 7.20941 -0.221313 8.29643C-0.221313 9.38345 -0.00357483 10.4595 0.419053 11.461C0.841681 12.4625 1.46063 13.3692 2.23939 14.1276C3.01814 14.886 3.94092 15.4807 4.95327 15.8766C5.96561 16.2726 7.04701 16.4617 8.13365 16.4329ZM17.4211 13.577H8.3507C7.66137 13.577 6.97879 13.4412 6.34193 13.1775C5.70507 12.9137 5.12641 12.527 4.63897 12.0396C4.15154 11.5521 3.76489 10.9735 3.50109 10.3366C3.2373 9.69976 3.10152 9.01718 3.10152 8.32784C3.10152 7.63851 3.2373 6.95593 3.50109 6.31907C3.76489 5.68221 4.15154 5.10354 4.63897 4.61611C5.12641 4.12868 5.70507 3.74203 6.34193 3.47823C6.97879 3.21444 7.66137 3.07866 8.3507 3.07866H17.3754C18.0647 3.07529 18.748 3.20772 19.3861 3.4684C20.0243 3.72908 20.6048 4.11289 21.0947 4.59794C21.5845 5.08298 21.974 5.65976 22.2409 6.29532C22.5078 6.93089 22.6469 7.61281 22.6503 8.30214C22.6537 8.99147 22.5212 9.67472 22.2606 10.3129C21.9999 10.951 21.6161 11.5316 21.131 12.0214C20.646 12.5112 20.0692 12.9007 19.4336 13.1676C18.7981 13.4345 18.1161 13.5737 17.4268 13.577H17.4211ZM76.9042 16.4329H86.6143L88.4535 13.5428H77.1669C75.7748 13.5428 74.4396 12.9897 73.4552 12.0053C72.4708 11.0209 71.9177 9.68574 71.9177 8.29357C71.9177 6.90141 72.4708 5.56626 73.4552 4.58184C74.4396 3.59743 75.7748 3.04439 77.1669 3.04439H86.3516L88.1908 0.188475H76.9556C75.8692 0.156458 74.7873 0.342359 73.7739 0.735207C72.7605 1.12806 71.836 1.71989 71.0551 2.47581C70.2741 3.23172 69.6524 4.13639 69.2267 5.13645C68.801 6.13652 68.5799 7.21171 68.5765 8.2986C68.5731 9.38549 68.7874 10.4621 69.2067 11.4648C69.6261 12.4675 70.242 13.3761 71.0182 14.1369C71.7944 14.8978 72.7151 15.4954 73.726 15.8947C74.7369 16.2939 75.8176 16.4867 76.9042 16.4615V16.4329ZM115.225 13.6056C114.075 13.6041 112.957 13.2297 112.039 12.5386C111.12 11.8475 110.45 10.8771 110.13 9.77294H123.513L125.346 6.91702H110.13C110.45 5.81289 111.12 4.84243 112.039 4.15135C112.957 3.46026 114.075 3.08587 115.225 3.08438H124.41L126.249 0.228457H115.014C112.893 0.284648 110.878 1.16654 109.398 2.68631C107.918 4.20607 107.09 6.24361 107.09 8.36497C107.09 10.4863 107.918 12.5239 109.398 14.0436C110.878 15.5634 112.893 16.4453 115.014 16.5015H124.655L126.494 13.6113H115.225V13.6056ZM127.979 1.95914C127.974 1.67316 128.053 1.39195 128.208 1.15111C128.362 0.910279 128.584 0.720655 128.846 0.606264C129.109 0.491873 129.399 0.457861 129.68 0.508528C129.962 0.559195 130.222 0.692267 130.428 0.890889C130.634 1.08951 130.776 1.34475 130.836 1.62428C130.897 1.90381 130.873 2.19505 130.769 2.46113C130.664 2.7272 130.482 2.95614 130.247 3.11895C130.012 3.28175 129.733 3.3711 129.447 3.37568C129.256 3.38591 129.065 3.35666 128.886 3.28977C128.706 3.22288 128.543 3.11977 128.405 2.98687C128.267 2.85397 128.159 2.69414 128.085 2.51732C128.012 2.34051 127.976 2.1505 127.979 1.95914ZM129.396 3.79836C129.638 3.79987 129.878 3.75334 130.102 3.66144C130.325 3.56955 130.529 3.43414 130.7 3.26305C130.871 3.09196 131.006 2.8886 131.098 2.66477C131.19 2.44094 131.237 2.2011 131.235 1.95914C131.241 1.7159 131.198 1.47393 131.108 1.24794C131.018 1.02196 130.883 0.816698 130.71 0.644643C130.538 0.472589 130.333 0.337345 130.107 0.247139C129.881 0.156933 129.639 0.113651 129.396 0.119931C128.908 0.119931 128.44 0.313704 128.095 0.658623C127.751 1.00354 127.557 1.47135 127.557 1.95914C127.557 2.44693 127.751 2.91475 128.095 3.25966C128.44 3.60458 128.908 3.79836 129.396 3.79836ZM129.225 0.839624C129.401 0.8218 129.58 0.839271 129.75 0.891028C129.865 0.933732 129.963 1.01234 130.03 1.11521C130.097 1.21809 130.129 1.33976 130.121 1.46221V1.62215C130.118 1.70203 130.091 1.77914 130.044 1.84407C129.998 1.90899 129.933 1.95891 129.859 1.9877C129.829 2.01657 129.791 2.03469 129.75 2.03911L130.224 2.88446H129.75L129.385 2.09623H129.122V2.88446H128.705V0.839624H129.225ZM129.385 1.73067C129.487 1.73067 129.647 1.73067 129.699 1.57645C129.718 1.55512 129.733 1.52976 129.742 1.50215C129.751 1.47453 129.754 1.44531 129.75 1.41652C129.751 1.36276 129.737 1.30975 129.71 1.26338C129.683 1.217 129.643 1.17907 129.596 1.15378C129.478 1.10789 129.351 1.09028 129.225 1.10237H129.122V1.67355H129.385" fill="#F80000"/>
<path d="M1.52502 26.2459H5.67182L10.7097 36.7956V26.2459H13.3885V39.6858H9.44734L4.25528 28.5021V39.6344H1.52502V26.2459Z" fill="black"/>
<path d="M16.433 26.2459H25.4063V28.4506H19.3175V31.655H25.0293V33.8598H19.3175V37.4754H25.6005V39.6801H16.433V26.2459Z" fill="black"/>
<path d="M31.1809 28.4506H27.1826V26.2459H38.1094V28.4506H34.1111V39.6858H31.2323V28.4506H31.1809Z" fill="black"/>
<path d="M41.5765 35.7618C41.6279 36.7043 41.7307 38.435 44.8323 38.435C47.6139 38.435 47.9795 36.7214 47.9795 36.0246C47.9795 34.4995 46.7743 34.2368 44.8837 33.7398C42.8331 33.2144 41.9421 33.0087 41.2624 32.5346C40.8182 32.2577 40.4539 31.8696 40.2055 31.4089C39.9571 30.9481 39.8331 30.4305 39.8458 29.9072C39.8458 27.1826 42.4162 25.9717 44.9351 25.9717C45.8261 25.9717 47.6139 26.1317 48.7163 27.2855C49.2466 27.9301 49.5426 28.7356 49.5559 29.5702H47.6139C47.5054 27.8909 46.0889 27.5254 44.758 27.5254C42.9245 27.5254 41.7707 28.365 41.7707 29.6787C41.7707 30.8839 42.5532 31.2495 44.1811 31.6722C47.3855 32.5118 47.751 32.5632 48.5392 33.0887C48.9726 33.3821 49.3217 33.7836 49.5521 34.2535C49.7826 34.7234 49.8863 35.2453 49.853 35.7675C49.853 38.1265 48.0138 39.9657 44.5524 39.9657C43.5528 39.9657 41.4566 39.8058 40.4056 38.4407C39.8401 37.6669 39.5669 36.7178 39.6345 35.7618H41.5765Z" fill="black"/>
<path d="M54.6966 26.2459V34.5395C54.6966 35.956 55.0165 36.59 55.2678 36.9556C55.6387 37.3955 56.1069 37.7432 56.6352 37.9712C57.1635 38.1992 57.7377 38.3012 58.3122 38.2693C61.9335 38.2693 61.9335 35.4134 61.9335 34.4367V26.2459H63.7156V34.5395C63.7889 35.8232 63.3976 37.0905 62.6132 38.1094C61.2995 39.7887 59.2547 39.9486 58.2551 39.9486C56.9985 39.9486 54.7423 39.5773 53.5314 37.7952C53.1144 37.224 52.7432 36.4301 52.7432 34.4367V26.2459H54.6966Z" fill="black"/>
<path d="M67.6111 26.2459H69.4503V39.6858H67.6111V26.2459Z" fill="black"/>
<path d="M76.6757 39.6858V27.8224H72.1633V26.2459H82.9758V27.8224H78.4635V39.6858H76.6757Z" fill="black"/>
<path d="M85.2435 26.2459H93.6457V27.8224H87.0885V32.0205H93.3315V33.597H87.0885V38.0465H93.8113V39.6744H85.2435V26.2459Z" fill="black"/>
</g>
<defs>
<clipPath id="clip0_7_2">
<rect width="131.229" height="40" fill="white"/>
</clipPath>
</defs>
</svg>
