<svg
  xmlns="http://www.w3.org/2000/svg"
  class="e-commerce-img"
  width="176"
  height="34"
  fill="none"
>
  <path
    d="M17.354 17.724c0 2.613-.778 4.814-2.339 6.595-1.628 1.866-3.745 2.803-6.335 2.803-2.597 0-4.707-.937-6.335-2.803C.783 22.538 0 20.337 0 17.724c0-2.62.783-4.819 2.345-6.594C3.99 9.281 6.108 8.357 8.68 8.357c2.59 0 4.707.924 6.335 2.773 1.561 1.775 2.339 3.975 2.339 6.594zm-5.158 0c0-1.183-.284-2.181-.851-2.989-.635-.918-1.524-1.374-2.665-1.374s-2.03.456-2.665 1.374c-.574.808-.858 1.806-.858 2.99 0 1.176.284 2.187.858 3.019.635.918 1.524 1.374 2.665 1.374s2.03-.456 2.665-1.374c.567-.832.85-1.843.85-3.02zm23.806 0c0 2.44-.703 4.573-2.116 6.397-1.511 1.997-3.46 3.001-5.83 3.001-1.672 0-3.09-.487-4.25-1.448 0 .222.025.758.074 1.615.05.862.074 1.565.074 2.12 0 3.063-.913 4.591-2.739 4.591-.746 0-1.357-.265-1.844-.79-.481-.529-.722-1.165-.722-1.915V11.37c0-.728.247-1.356.74-1.886a2.418 2.418 0 011.832-.788c1.098 0 1.9.547 2.406 1.639 1.08-1.32 2.554-1.979 4.423-1.979 2.375 0 4.319.986 5.836 2.965 1.407 1.83 2.116 3.962 2.116 6.402zm-5.157 0c0-1.183-.29-2.181-.857-2.989-.636-.918-1.524-1.374-2.666-1.374-1.14 0-2.029.456-2.665 1.374-.567.808-.85 1.806-.85 2.99 0 1.176.283 2.187.85 3.019.636.918 1.524 1.374 2.665 1.374 1.142 0 2.03-.456 2.666-1.374.567-.832.857-1.843.857-3.02zm23.923-.554c0 .862-.204 1.454-.61 1.787-.408.326-1.043.493-1.9.493h-9.31c0 .986.463 1.744 1.388 2.273.747.414 1.66.624 2.74.624.839 0 1.844-.279 3.022-.826 1.179-.555 1.937-.827 2.265-.827.598 0 1.103.216 1.523.66.413.438.623.968.623 1.578 0 1.41-1.055 2.509-3.165 3.297a14.15 14.15 0 01-4.916.893c-2.69 0-4.861-.893-6.52-2.674-1.66-1.781-2.493-4.018-2.493-6.724 0-2.576.864-4.776 2.59-6.612 1.722-1.837 3.863-2.755 6.416-2.755 2.376 0 4.362.87 5.954 2.607 1.59 1.738 2.393 3.809 2.393 6.206zm-5.157-1.295c-.025-.789-.389-1.503-1.092-2.15-.703-.647-1.45-.967-2.24-.967-.814 0-1.573.32-2.276.966-.703.648-1.055 1.362-1.055 2.152h6.663zm22.486 8.202c0 .753-.24 1.387-.721 1.917-.488.525-1.1.79-1.846.79-1.8 0-2.702-1.43-2.702-4.283 0-.549.037-1.412.111-2.601.08-1.183.118-2.052.118-2.6 0-3.027-.981-4.542-2.937-4.542s-2.93 1.515-2.93 4.541c0 .549.03 1.418.086 2.601.062 1.19.093 2.052.093 2.6 0 2.854-.889 4.284-2.665 4.284-.747 0-1.357-.265-1.839-.79-.487-.53-.727-1.164-.727-1.917V11.365c0-.747.24-1.38.727-1.892.482-.518 1.099-.776 1.845-.776 1.234 0 2.091.547 2.572 1.639.833-1.32 2.307-1.979 4.417-1.979 1.956 0 3.51.517 4.652 1.547 1.166 1.104 1.746 2.619 1.746 4.548v9.625zm16.18-.547c0 1.164-.757 2.088-2.275 2.767a9.175 9.175 0 01-3.831.825c-2.598 0-4.707-.937-6.336-2.803-1.56-1.781-2.344-3.982-2.344-6.595 0-2.62.796-4.83 2.393-6.643 1.598-1.818 3.689-2.724 6.287-2.724 1.499 0 2.788.222 3.862.66 1.498.591 2.244 1.515 2.244 2.773 0 .634-.197 1.195-.592 1.682-.394.48-.9.727-1.517.727-.42 0-1.025-.141-1.814-.418-.79-.284-1.418-.42-1.88-.42-1.229 0-2.185.438-2.87 1.312-.635.79-.956 1.8-.956 3.051 0 1.177.284 2.176.858 2.983.634.943 1.53 1.411 2.67 1.411.507 0 1.197-.148 2.08-.45.882-.295 1.518-.45 1.912-.45.574 0 1.067.247 1.487.728.414.487.622 1.01.622 1.584zm18.748.547c0 .753-.24 1.387-.722 1.917-.487.525-1.103.79-1.851.79-1.122 0-1.924-.55-2.405-1.64-1.079 1.32-2.554 1.978-4.423 1.978-2.393 0-4.355-1.004-5.873-3-1.382-1.825-2.078-3.957-2.078-6.398 0-2.44.696-4.572 2.078-6.402 1.543-1.98 3.498-2.965 5.873-2.965 1.869 0 3.344.66 4.423 1.979.481-1.092 1.283-1.64 2.405-1.64.729 0 1.34.265 1.834.79.492.529.739 1.151.739 1.88v12.711zm-5.157-6.353c0-1.183-.283-2.181-.851-2.989-.66-.918-1.549-1.374-2.665-1.374-1.142 0-2.03.456-2.666 1.374-.573.808-.856 1.806-.856 2.99 0 1.176.276 2.187.825 3.019.655.918 1.555 1.374 2.697 1.374 1.14 0 2.029-.456 2.665-1.374.568-.832.851-1.843.851-3.02zm18.316-6.699c0 1.103-.537 1.861-1.61 2.274-.993.333-1.981.673-2.968 1.023-1.08.617-1.616 1.763-1.616 3.427v6.328c0 .753-.247 1.387-.727 1.917-.489.525-1.105.79-1.852.79-.752 0-1.37-.265-1.849-.79-.489-.53-.729-1.164-.729-1.917V11.365c0-.747.24-1.38.721-1.892.487-.518 1.105-.776 1.852-.776 1.233 0 2.09.547 2.572 1.639 1.104-1.32 2.289-1.979 3.566-1.979.727 0 1.351.265 1.868.789.512.53.772 1.158.772 1.88zm13.455.235c0 1.146-.451 1.867-1.344 2.175-.44.154-1.36.234-2.76.234v10.408c0 .753-.246 1.387-.726 1.917-.489.525-1.105.79-1.852.79a2.434 2.434 0 01-1.839-.79c-.492-.53-.739-1.164-.739-1.917V13.67c-1.062 0-1.832-.135-2.319-.4-.666-.37-.995-1.042-.995-2.01 0-.966.34-1.626 1.024-1.978.463-.259 1.228-.394 2.29-.394V6.681c0-2.594.856-3.888 2.578-3.888 1.715 0 2.578 1.294 2.578 3.888v2.206c1.4 0 2.32.08 2.76.234.893.308 1.344 1.024 1.344 2.139zm41.432-3.13c-.014-1.581-2.94-2.3-10.515-2.3-17.772 0-22.281-.758-27.106-5.83 2.03 3.046 3.141 8.758 21.925 8.474 19.599-.302 7.643 5.048 4.164 11.092 6.274-5.593 11.513-9.28 11.532-11.413V8.13zm-24.974 16.244a2.696 2.696 0 01-2.684 2.68 2.684 2.684 0 01-2.689-2.68v-.002a2.699 2.699 0 012.688-2.685h.001a2.685 2.685 0 012.684 2.687zm12.239 0a2.696 2.696 0 01-2.684 2.68 2.685 2.685 0 01-2.688-2.68v-.002a2.699 2.699 0 012.687-2.685h.001a2.685 2.685 0 012.684 2.687z"
    fill="url(#paint0_linear)"
  ></path>
  <defs>
    <linearGradient
      id="paint0_linear"
      x1="87.535"
      y1="26.895"
      x2="87.535"
      y2="0"
      gradientUnits="userSpaceOnUse"
    >
      <stop stop-color="#04B6F0"></stop>
      <stop offset="1" stop-color="#3ECAF0"></stop>
    </linearGradient>
  </defs>
</svg>
