<svg width="184" height="48" viewBox="0 0 184 48" fill="none" xmlns="http://www.w3.org/2000/svg">
<path d="M38.7801 9.87791C40.4413 8.09366 42.8408 7.04772 45.4249 7.04772C48.8703 7.04772 51.8851 8.95502 53.4848 11.8467C54.8999 11.2315 56.438 10.8623 58.0377 10.8623C64.2518 10.8623 69.2969 15.969 69.2969 22.2446C69.2969 28.5202 64.2518 33.6269 58.0377 33.6269C57.2994 33.6269 56.561 33.5654 55.8227 33.3808C54.4076 35.9034 51.7005 37.6261 48.6242 37.6261C47.3322 37.6261 46.1017 37.3184 44.9942 36.8262C43.5791 40.2102 40.2567 42.5481 36.3191 42.5481C32.2584 42.5481 28.8129 39.9641 27.5209 36.3956C26.9672 36.5186 26.3519 36.5801 25.7367 36.5801C20.9377 36.5801 17 32.6425 17 27.7819C17 24.5211 18.7842 21.6909 21.3683 20.1527C20.8146 18.9222 20.507 17.5686 20.507 16.1535C20.507 10.5547 25.0599 6.00178 30.6587 6.00178C33.9811 5.94025 36.9343 7.4784 38.7801 9.87791Z" fill="#119FDA"/>
<path d="M24.5679 24.8898C24.5063 24.9513 24.5679 25.0129 24.5679 25.0129C24.6909 25.0744 24.7524 25.1359 24.8755 25.1974C25.4292 25.5051 25.9214 25.5666 26.4136 25.5666C27.4596 25.5666 28.1364 25.0129 28.1364 24.09C28.1364 23.2286 27.3981 22.921 26.6598 22.7364H26.5982C26.0445 22.5518 25.6138 22.4288 25.6138 22.0596C25.6138 21.752 25.8599 21.5674 26.2906 21.5674C26.7828 21.5674 27.275 21.6905 27.6442 21.9366C27.6442 21.9366 27.7672 21.9981 27.7672 21.8751C27.7672 21.8135 27.9518 21.3213 28.0133 21.2598C28.0133 21.1983 28.0133 21.1367 27.9518 21.1367C27.5211 20.8906 26.9674 20.7061 26.4136 20.7061H26.2906C25.3062 20.7061 24.6294 21.3213 24.6294 22.1212C24.6294 23.044 25.3677 23.2901 26.106 23.5362L26.2291 23.5978C26.7213 23.7823 27.2135 23.9054 27.2135 24.2746C27.2135 24.5822 26.9058 24.8283 26.4752 24.8283C26.2906 24.8283 25.7369 24.8283 25.1216 24.4591C25.0601 24.3976 24.9985 24.3976 24.937 24.3361C24.8755 24.3361 24.814 24.2746 24.814 24.3976L24.5679 24.8898Z" fill="white"/>
<path d="M40.2571 24.8898C40.1956 24.9513 40.2571 25.0129 40.2571 25.0129C40.3801 25.0744 40.4417 25.1359 40.5647 25.1974C41.1184 25.5051 41.6106 25.5666 42.1029 25.5666C43.1488 25.5666 43.8256 25.0129 43.8256 24.09C43.8256 23.2286 43.0873 22.921 42.349 22.7364H42.2874C41.7337 22.5518 41.303 22.4288 41.303 22.0596C41.303 21.752 41.5491 21.5674 41.9798 21.5674C42.472 21.5674 42.9642 21.6905 43.3334 21.9366C43.3334 21.9366 43.4564 21.9981 43.4564 21.8751C43.4564 21.8135 43.641 21.3213 43.7025 21.2598C43.7025 21.1983 43.7025 21.1367 43.641 21.1367C43.2103 20.8906 42.6566 20.7061 42.1029 20.7061H41.9798C40.9954 20.7061 40.3186 21.3213 40.3186 22.1212C40.3186 23.044 41.0569 23.2901 41.7952 23.5362L41.9183 23.5978C42.4105 23.7823 42.9027 23.9054 42.9027 24.2746C42.9027 24.5822 42.595 24.8283 42.1644 24.8283C41.9798 24.8283 41.4261 24.8283 40.8108 24.4591C40.7493 24.3976 40.6877 24.3976 40.6262 24.3361C40.6262 24.3361 40.5032 24.2746 40.5032 24.3976L40.2571 24.8898Z" fill="white"/>
<path d="M51.0236 23.044C51.0236 23.5362 50.9005 23.9669 50.7159 24.2746C50.5313 24.5822 50.2237 24.7052 49.8545 24.7052C49.4854 24.7052 49.1778 24.5822 48.9932 24.2746C48.8086 23.9669 48.6856 23.5978 48.6856 23.044C48.6856 22.5518 48.8086 22.1211 48.9932 21.8135C49.1778 21.5059 49.4854 21.3828 49.8545 21.3828C50.2237 21.3828 50.5313 21.5059 50.7159 21.8135C50.9005 22.1211 51.0236 22.5518 51.0236 23.044ZM51.8849 22.1211C51.8234 21.8135 51.6388 21.5674 51.4542 21.3213C51.2697 21.0752 51.0235 20.9522 50.7774 20.8291C50.5313 20.706 50.1622 20.6445 49.793 20.6445C49.4239 20.6445 49.1163 20.706 48.8086 20.8291C48.5625 20.9522 48.3164 21.1367 48.1318 21.3213C47.9473 21.5674 47.8242 21.8135 47.7011 22.1211C47.6396 22.4288 47.5781 22.7364 47.5781 23.1056C47.5781 23.4747 47.6396 23.7823 47.7011 24.09C47.7627 24.3976 47.9473 24.6437 48.1318 24.8898C48.3164 25.1359 48.5625 25.259 48.8086 25.382C49.0547 25.5051 49.4239 25.5666 49.793 25.5666C50.1622 25.5666 50.4698 25.5051 50.7774 25.382C51.0235 25.259 51.2697 25.0744 51.4542 24.8898C51.6388 24.6437 51.7619 24.3976 51.8849 24.09C51.9465 23.7823 52.0079 23.4747 52.0079 23.1056C52.0079 22.7364 52.008 22.4288 51.8849 22.1211Z" fill="white"/>
<path d="M59.2685 24.5822C59.2685 24.5207 59.1454 24.5207 59.1454 24.5207C59.0224 24.5822 58.8993 24.6437 58.7147 24.6437C58.5917 24.6437 58.4071 24.7052 58.2225 24.7052C57.7918 24.7052 57.4227 24.5822 57.1766 24.3361C56.9305 24.09 56.8074 23.6593 56.8074 23.1056C56.8074 22.6134 56.9305 22.2442 57.1766 21.9366C57.4227 21.6289 57.7303 21.5059 58.161 21.5059C58.5301 21.5059 58.8378 21.5674 59.0839 21.6289C59.0839 21.6289 59.1454 21.6905 59.2069 21.5674C59.2684 21.3213 59.33 21.1983 59.453 20.9522C59.453 20.8906 59.3915 20.8291 59.3915 20.8291C59.2684 20.7676 59.0223 20.7061 58.7762 20.7061C58.5916 20.7061 58.3456 20.6445 58.0995 20.6445C57.7303 20.6445 57.3612 20.706 57.1151 20.8291C56.8074 20.9522 56.5613 21.1367 56.3767 21.3213C56.1922 21.5674 56.0076 21.8135 55.9461 22.1211C55.823 22.4288 55.823 22.7364 55.823 23.1056C55.823 23.8439 56.0076 24.4591 56.4383 24.8898C56.8074 25.3205 57.4227 25.5666 58.2225 25.5666C58.6532 25.5666 59.1454 25.4435 59.5145 25.3205C59.5145 25.3205 59.5761 25.259 59.5761 25.1974L59.2685 24.5822Z" fill="white"/>
<path d="M60.8069 22.5528C60.8685 22.2452 60.93 21.9991 61.053 21.8145C61.2376 21.5069 61.5452 21.3838 61.9144 21.3838C62.2836 21.3838 62.5912 21.5684 62.7757 21.8145C62.8988 21.9991 62.9603 22.2452 62.9603 22.5528H60.8069ZM63.8217 21.9376C63.7602 21.6299 63.5756 21.3838 63.4525 21.1992C63.268 21.0147 63.0834 20.8301 62.8988 20.7686C62.6527 20.6455 62.3451 20.584 62.0375 20.584C61.6683 20.584 61.2991 20.6455 61.053 20.7686C60.7454 20.8916 60.5608 21.0762 60.3763 21.3223C60.1917 21.5684 60.0686 21.8145 59.9456 22.1221C59.884 22.4298 59.8225 22.7374 59.8225 23.1065C59.8225 23.4757 59.884 23.7833 59.9456 24.091C60.0071 24.3986 60.1917 24.6447 60.3763 24.8908C60.5608 25.1369 60.8069 25.26 61.1146 25.383C61.4222 25.5061 61.7913 25.5676 62.222 25.5676C63.0834 25.5676 63.5756 25.383 63.7602 25.26C63.8217 25.26 63.8217 25.1984 63.7602 25.1369L63.5756 24.5832C63.5756 24.5216 63.4525 24.5216 63.4525 24.5216C63.2064 24.5832 62.8988 24.7677 62.222 24.7677C61.7298 24.7677 61.4222 24.6447 61.1761 24.3986C60.93 24.1525 60.8685 23.8449 60.8069 23.4142H63.8217C63.8217 23.4142 63.8832 23.4142 63.8832 23.3526C63.9448 23.2296 64.0063 22.6143 63.8217 21.9376Z" fill="white"/>
<path d="M36.565 22.5528C36.6265 22.2452 36.688 21.9991 36.8111 21.8145C36.9957 21.5069 37.3033 21.3838 37.6724 21.3838C38.0416 21.3838 38.3492 21.5684 38.5338 21.8145C38.6568 21.9991 38.7184 22.2452 38.7184 22.5528H36.565ZM39.5797 21.9376C39.5182 21.6299 39.3336 21.3838 39.2106 21.1992C39.026 21.0147 38.8414 20.8301 38.6569 20.7686C38.4108 20.6455 38.1031 20.584 37.7955 20.584C37.4263 20.584 37.0572 20.6455 36.8111 20.7686C36.5035 20.8916 36.3189 21.0762 36.1343 21.3223C35.9497 21.5684 35.8266 21.8145 35.7036 22.1221C35.6421 22.4298 35.5806 22.7374 35.5806 23.1065C35.5806 23.4757 35.6421 23.7833 35.7036 24.091C35.7651 24.3986 35.9497 24.6447 36.1343 24.8908C36.3189 25.1369 36.565 25.26 36.8726 25.383C37.1802 25.5061 37.5494 25.5676 37.98 25.5676C38.8414 25.5676 39.3336 25.383 39.5182 25.26C39.5797 25.26 39.5797 25.1984 39.5182 25.1369L39.3336 24.5832C39.3336 24.5216 39.2106 24.5216 39.2106 24.5216C38.9645 24.5832 38.6568 24.7677 37.98 24.7677C37.4878 24.7677 37.1802 24.6447 36.9341 24.3986C36.688 24.1525 36.6265 23.8449 36.565 23.4142H39.5797C39.5797 23.4142 39.6413 23.4142 39.6413 23.3526C39.6413 23.2296 39.7643 22.6143 39.5797 21.9376Z" fill="white"/>
<path d="M29.982 24.5832C29.8589 24.4601 29.8589 24.4601 29.7974 24.3986C29.7359 24.2755 29.7359 24.1525 29.7359 24.0294C29.7359 23.7833 29.7974 23.5988 29.982 23.4142C29.982 23.4142 30.2281 23.1681 30.8434 23.1681C31.274 23.1681 31.6432 23.2296 31.6432 23.2296V24.5832C31.6432 24.5832 31.274 24.6447 30.8434 24.7062C30.2896 24.7677 29.982 24.5832 29.982 24.5832ZM31.2125 22.4298C31.0894 22.4298 30.9049 22.4298 30.7203 22.4298C30.4742 22.4298 30.2281 22.4913 29.982 22.5528C29.7359 22.6143 29.5513 22.7374 29.3667 22.8604C29.1821 22.9835 29.0591 23.1681 28.936 23.3526C28.813 23.5372 28.7515 23.7833 28.7515 24.0294C28.7515 24.2755 28.813 24.5216 28.8745 24.7062C28.9976 24.8908 29.1206 25.0754 29.2437 25.1984C29.4282 25.3215 29.6128 25.383 29.8589 25.4445C30.105 25.5061 30.3512 25.5061 30.6588 25.5061C30.9664 25.5061 31.274 25.5061 31.5817 25.4445C31.8893 25.383 32.2584 25.3215 32.32 25.3215C32.443 25.3215 32.5046 25.26 32.5046 25.26C32.5661 25.26 32.5661 25.1369 32.5661 25.1369V22.3682C32.5661 21.753 32.3815 21.3223 32.0739 21.0147C31.7662 20.707 31.274 20.584 30.6588 20.584C30.4127 20.584 30.0435 20.6455 29.8589 20.6455C29.8589 20.6455 29.1821 20.7686 28.936 21.0147C28.936 21.0147 28.8745 21.0762 28.936 21.1377L29.1206 21.6915C29.1206 21.753 29.2437 21.753 29.2437 21.753C29.2437 21.753 29.2437 21.753 29.3052 21.753C29.8589 21.4453 30.5972 21.4453 30.5972 21.4453C30.9049 21.4453 31.151 21.5069 31.3356 21.6299C31.5201 21.753 31.5817 21.9376 31.5817 22.3682V22.4913C31.4586 22.4298 31.2125 22.4298 31.2125 22.4298Z" fill="white"/>
<path d="M55.6378 20.8906C55.6378 20.8291 55.6378 20.7676 55.5763 20.7676C55.5148 20.7676 55.2686 20.7061 55.0841 20.7061C54.7149 20.7061 54.4688 20.7676 54.2842 20.8291C54.0996 20.8906 53.9151 21.0752 53.792 21.1983V20.8291C53.792 20.7676 53.7305 20.7676 53.7305 20.7676H52.9307C52.8691 20.7676 52.8691 20.8291 52.8691 20.8291V25.3205C52.8691 25.382 52.9307 25.382 52.9307 25.382H53.7305C53.792 25.382 53.792 25.3205 53.792 25.3205V23.044C53.792 22.7364 53.8536 22.4288 53.9151 22.2442C53.9766 22.0596 54.0996 21.9366 54.1612 21.8135C54.2842 21.6905 54.4073 21.6289 54.5303 21.5674C54.6534 21.5059 54.838 21.5059 54.961 21.5059C55.1456 21.5059 55.2687 21.5674 55.2687 21.5674C55.3302 21.5674 55.3302 21.5674 55.3917 21.5059C55.4532 21.3828 55.6378 20.9522 55.6378 20.8906Z" fill="white"/>
<path d="M48.1941 18.7984C48.071 18.7984 48.0095 18.7368 47.8864 18.7368C47.7634 18.7368 47.6403 18.6753 47.4557 18.6753C46.902 18.6753 46.4713 18.8599 46.1637 19.106C45.856 19.4136 45.6715 19.8443 45.5484 20.4595L45.4869 20.6441H44.8101C44.8101 20.6441 44.7486 20.6441 44.6871 20.7056L44.564 21.3209C44.564 21.3824 44.564 21.444 44.6871 21.444H45.3638L44.6871 25.2586C44.6256 25.5662 44.564 25.8123 44.5025 25.9969C44.441 26.1815 44.3794 26.3045 44.3179 26.4276C44.2564 26.5506 44.1949 26.6121 44.0103 26.6121C43.8872 26.6737 43.7642 26.6737 43.6411 26.6737C43.5796 26.6737 43.4565 26.6737 43.395 26.6737C43.3335 26.6737 43.272 26.6737 43.2104 26.6121C43.2104 26.6121 43.1489 26.6121 43.0874 26.6737C43.0874 26.7352 42.9028 27.2274 42.8413 27.2889C42.8413 27.3504 42.8413 27.412 42.9028 27.412C42.9643 27.4735 43.0874 27.4735 43.2104 27.4735C43.395 27.535 43.5181 27.535 43.6411 27.535C43.9488 27.535 44.1949 27.4735 44.3795 27.412C44.564 27.3504 44.7486 27.2274 44.9332 27.0428C45.1177 26.8582 45.2408 26.6737 45.3023 26.366C45.4254 26.1199 45.4869 25.7508 45.5484 25.3201L46.2252 21.444H47.2096C47.2096 21.444 47.2712 21.444 47.3327 21.3824L47.4557 20.7672C47.4557 20.7057 47.4557 20.6441 47.3327 20.6441H46.3483C46.3483 20.6441 46.4098 20.275 46.5329 19.9673C46.5944 19.8443 46.6559 19.7212 46.7174 19.6597C46.7789 19.5982 46.902 19.5367 46.9635 19.4751C47.0866 19.4136 47.1481 19.4136 47.2712 19.4136C47.3327 19.4136 47.4557 19.4136 47.5172 19.4136C47.6403 19.4136 47.6403 19.4136 47.7018 19.4751C47.8249 19.4751 47.8249 19.4751 47.8249 19.4136L48.071 18.7984C48.2556 18.7984 48.1941 18.7984 48.1941 18.7984Z" fill="white"/>
<path d="M34.6575 25.3206C34.6575 25.3821 34.596 25.3821 34.596 25.3821H33.7961C33.7346 25.3821 33.7346 25.3206 33.7346 25.3206V18.8603C33.7346 18.7988 33.7961 18.7988 33.7961 18.7988H34.596C34.6575 18.7988 34.6575 18.8603 34.6575 18.8603V25.3206Z" fill="white"/>
<path d="M76.0033 18.7354C76.4339 18.7354 76.8031 18.7969 77.1723 18.9199C77.5414 19.043 77.849 19.2276 78.1567 19.4121L77.726 20.1504C77.2338 19.7813 76.68 19.5967 76.0033 19.5967C75.3265 19.5967 74.7728 19.8428 74.4036 20.2735C74.0345 20.7042 73.8499 21.3194 73.8499 22.1193C73.8499 22.8576 74.0345 23.4728 74.4036 23.9651C74.7728 24.4573 75.265 24.6418 76.0033 24.6418C76.6185 24.6418 77.1723 24.4573 77.7875 24.0881L78.1567 24.8879C77.4799 25.3801 76.7416 25.5647 75.9418 25.5647C75.2034 25.5647 74.5882 25.3801 74.1575 25.0725C73.6653 24.7649 73.3577 24.3342 73.1116 23.7805C72.927 23.2883 72.804 22.673 72.804 22.1193C72.804 21.0733 73.1116 20.212 73.6653 19.5967C74.219 19.043 75.0189 18.7354 76.0033 18.7354Z" fill="#79858D"/>
<path d="M85.3552 22.1207C85.3552 22.7975 85.2322 23.4128 84.9861 23.905C84.74 24.4587 84.3708 24.8279 83.8786 25.1355C83.3864 25.4431 82.7711 25.5662 82.0944 25.5662C81.4176 25.5662 80.8023 25.4431 80.3101 25.1355C79.8179 24.8279 79.4487 24.4587 79.2026 23.905C78.9565 23.4128 78.8335 22.7975 78.8335 22.1207C78.8335 21.0748 79.1411 20.275 79.6948 19.5982C80.2486 18.9829 81.0484 18.6753 82.0944 18.6753C82.7711 18.6753 83.3864 18.7984 83.8786 19.106C84.3708 19.4136 84.74 19.7828 84.9861 20.275C85.2322 20.8287 85.3552 21.444 85.3552 22.1207ZM79.941 22.1207C79.941 22.9206 80.1255 23.5358 80.4947 24.0281C80.8639 24.5203 81.356 24.7664 82.0944 24.7664C82.8327 24.7664 83.3864 24.5203 83.694 24.0281C84.0632 23.5358 84.2478 22.9206 84.2478 22.1207C84.2478 21.3209 84.0632 20.7057 83.694 20.275C83.3249 19.7828 82.7711 19.5982 82.0944 19.5982C81.356 19.5982 80.8023 19.8443 80.4947 20.275C80.1255 20.7057 79.941 21.3824 79.941 22.1207Z" fill="#79858D"/>
<path d="M86.709 20.3365C86.709 19.8443 86.709 19.3521 86.6475 18.8599H87.6934C87.7549 19.106 87.7549 19.4136 87.7549 19.7828C87.9395 19.4751 88.2471 19.1675 88.6163 18.9829C88.9854 18.7983 89.4161 18.6753 89.9083 18.6753C90.462 18.6753 90.8927 18.7983 91.2619 19.0445C91.631 19.2906 91.8771 19.5982 92.0617 20.0289C92.3078 19.5982 92.6155 19.2906 92.9846 19.0445C93.3538 18.7983 93.846 18.6753 94.3997 18.6753C94.9534 18.6753 95.3841 18.7983 95.7533 19.0445C96.1224 19.2906 96.3685 19.5982 96.5531 19.9673C96.7377 20.3365 96.7992 20.7672 96.7992 21.1979V25.3816H95.6917V21.3824C95.6917 20.8902 95.5687 20.4595 95.3226 20.0904C95.0765 19.7212 94.7073 19.5982 94.1536 19.5982C93.7844 19.5982 93.4153 19.7212 93.1692 19.9058C92.8615 20.0904 92.677 20.398 92.5539 20.7056C92.4309 21.0748 92.3078 21.444 92.3078 21.8131V25.3816H91.2003V21.3209C91.2003 20.8287 91.0773 20.398 90.8312 20.0904C90.5851 19.7828 90.2159 19.5982 89.6622 19.5982C89.1085 19.5982 88.6778 19.7828 88.3086 20.2134C88.001 20.5826 87.8164 21.0748 87.8164 21.6901V25.4431H86.709V20.3365Z" fill="#79858D"/>
<path d="M98.5218 20.3365C98.5218 19.8443 98.5217 19.3521 98.4602 18.8599H99.5062C99.5677 19.106 99.5677 19.4136 99.5677 19.7828C99.7523 19.4751 100.06 19.1675 100.429 18.9829C100.798 18.7983 101.229 18.6753 101.721 18.6753C102.275 18.6753 102.705 18.7983 103.075 19.0445C103.444 19.2906 103.69 19.5982 103.875 20.0289C104.121 19.5982 104.428 19.2906 104.797 19.0445C105.167 18.7983 105.659 18.6753 106.212 18.6753C106.766 18.6753 107.197 18.7983 107.566 19.0445C107.935 19.2906 108.181 19.5982 108.366 19.9673C108.55 20.3365 108.612 20.7672 108.612 21.1979V25.3816H107.505V21.3824C107.505 20.8902 107.381 20.4595 107.135 20.0904C106.889 19.7212 106.52 19.5982 105.966 19.5982C105.597 19.5982 105.228 19.7212 104.982 19.9058C104.674 20.0904 104.49 20.398 104.367 20.7056C104.244 21.0748 104.121 21.444 104.121 21.8131V25.3816H103.013V21.3209C103.013 20.8287 102.89 20.398 102.644 20.0904C102.398 19.7828 102.029 19.5982 101.475 19.5982C100.921 19.5982 100.491 19.7828 100.121 20.2134C99.8138 20.5826 99.6292 21.0748 99.6292 21.6901V25.4431H98.5218V20.3365Z" fill="#79858D"/>
<path d="M115.811 22.55H110.95C111.012 23.2267 111.196 23.7189 111.565 24.1496C111.934 24.5188 112.427 24.7649 113.103 24.7649C113.473 24.7649 113.842 24.7034 114.149 24.5803C114.457 24.4573 114.765 24.3342 115.072 24.0881L115.564 24.7649C115.195 25.011 114.826 25.2571 114.395 25.3801C113.965 25.5032 113.534 25.5647 113.042 25.5647C112.057 25.5647 111.258 25.2571 110.704 24.6418C110.15 24.0266 109.843 23.1652 109.843 22.1193C109.843 21.4425 109.966 20.8272 110.212 20.335C110.458 19.8428 110.827 19.4121 111.258 19.166C111.688 18.8584 112.242 18.7354 112.919 18.7354C113.842 18.7354 114.58 19.043 115.072 19.6582C115.564 20.2735 115.811 21.0733 115.811 22.1193C115.811 22.3039 115.811 22.4269 115.811 22.55ZM114.765 21.6886C114.765 21.0118 114.58 20.5196 114.272 20.1504C113.965 19.7813 113.473 19.5352 112.919 19.5352C112.304 19.5352 111.811 19.7198 111.504 20.1504C111.196 20.5811 111.012 21.0733 110.95 21.6886H114.765Z" fill="#79858D"/>
<path d="M117.164 20.3365C117.164 19.8443 117.164 19.3521 117.103 18.8599H118.148C118.21 19.1675 118.21 19.4751 118.21 19.9058C118.579 19.106 119.256 18.6753 120.24 18.6753C120.302 18.6753 120.425 18.6753 120.609 18.7368L120.548 19.6597C120.486 19.6597 120.302 19.6597 120.179 19.6597C119.564 19.6597 119.071 19.8443 118.764 20.275C118.456 20.7057 118.272 21.2594 118.272 21.8746V25.3816H117.164V20.3365Z" fill="#79858D"/>
<path d="M124.178 18.7354C124.609 18.7354 124.978 18.7969 125.347 18.9199C125.716 19.043 126.024 19.2276 126.331 19.4121L125.901 20.1504C125.408 19.7813 124.855 19.5967 124.178 19.5967C123.501 19.5967 122.947 19.8428 122.578 20.2735C122.209 20.7042 122.024 21.3194 122.024 22.1193C122.024 22.8576 122.209 23.4728 122.578 23.9651C122.947 24.4573 123.44 24.6418 124.178 24.6418C124.793 24.6418 125.347 24.4573 125.962 24.0881L126.331 24.8879C125.654 25.3801 124.916 25.5647 124.116 25.5647C123.378 25.5647 122.763 25.3801 122.332 25.0725C121.84 24.7649 121.532 24.3342 121.286 23.7805C121.102 23.2883 120.979 22.673 120.979 22.1193C120.979 21.0733 121.286 20.212 121.84 19.5967C122.394 19.043 123.193 18.7354 124.178 18.7354Z" fill="#79858D"/>
<path d="M132.976 22.55H128.116C128.177 23.2267 128.362 23.7189 128.731 24.1496C129.1 24.5188 129.592 24.7649 130.269 24.7649C130.638 24.7649 131.007 24.7034 131.315 24.5803C131.623 24.4573 131.93 24.3342 132.238 24.0881L132.73 24.7649C132.361 25.011 131.992 25.2571 131.561 25.3801C131.131 25.5032 130.7 25.5647 130.208 25.5647C129.223 25.5647 128.423 25.2571 127.87 24.6418C127.316 24.0266 127.008 23.1652 127.008 22.1193C127.008 21.4425 127.131 20.8272 127.377 20.335C127.624 19.8428 127.993 19.4121 128.423 19.166C128.854 18.8584 129.408 18.7354 130.085 18.7354C131.007 18.7354 131.746 19.043 132.238 19.6582C132.73 20.2735 132.976 21.0733 132.976 22.1193C132.976 22.3039 132.976 22.4269 132.976 22.55ZM131.93 21.6886C131.93 21.0118 131.746 20.5196 131.438 20.1504C131.131 19.7813 130.638 19.5352 130.085 19.5352C129.469 19.5352 128.977 19.7198 128.67 20.1504C128.362 20.5811 128.177 21.0733 128.116 21.6886H131.93Z" fill="#79858D"/>
<path d="M139.99 18.7354C140.421 18.7354 140.79 18.7969 141.159 18.9199C141.528 19.043 141.836 19.2276 142.143 19.4121L141.713 20.1504C141.22 19.7813 140.667 19.5967 139.99 19.5967C139.313 19.5967 138.759 19.8428 138.39 20.2735C138.021 20.7042 137.836 21.3194 137.836 22.1193C137.836 22.8576 138.021 23.4728 138.39 23.9651C138.759 24.4573 139.252 24.6418 139.99 24.6418C140.605 24.6418 141.159 24.4573 141.774 24.0881L142.143 24.8879C141.466 25.3801 140.728 25.5647 139.928 25.5647C139.19 25.5647 138.575 25.3801 138.144 25.0725C137.652 24.7649 137.344 24.3342 137.098 23.7805C136.914 23.2883 136.791 22.673 136.791 22.1193C136.791 21.0733 137.098 20.212 137.652 19.5967C138.206 19.043 139.005 18.7354 139.99 18.7354Z" fill="#79858D"/>
<path d="M144.42 16.3369V25.4427H143.312V16.3369H144.42Z" fill="#79858D"/>
<path d="M152.295 22.1207C152.295 22.7975 152.172 23.4128 151.926 23.905C151.679 24.4587 151.31 24.8279 150.818 25.1355C150.326 25.4431 149.711 25.5662 149.034 25.5662C148.357 25.5662 147.742 25.4431 147.25 25.1355C146.757 24.8279 146.388 24.4587 146.142 23.905C145.896 23.4128 145.773 22.7975 145.773 22.1207C145.773 21.0748 146.081 20.275 146.634 19.5982C147.188 18.9829 147.988 18.6753 149.034 18.6753C149.711 18.6753 150.326 18.7984 150.818 19.106C151.31 19.4136 151.679 19.7828 151.926 20.275C152.172 20.8287 152.295 21.444 152.295 22.1207ZM146.88 22.1207C146.88 22.9206 147.065 23.5358 147.434 24.0281C147.803 24.5203 148.295 24.7664 149.034 24.7664C149.772 24.7664 150.326 24.5203 150.633 24.0281C151.003 23.5358 151.187 22.9206 151.187 22.1207C151.187 21.3209 151.003 20.7057 150.633 20.275C150.264 19.7828 149.711 19.5982 149.034 19.5982C148.295 19.5982 147.742 19.8443 147.434 20.275C147.065 20.7057 146.88 21.3824 146.88 22.1207Z" fill="#79858D"/>
<path d="M153.588 22.9201V18.9209H154.695V22.797C154.695 23.4123 154.818 23.9045 155.064 24.2121C155.31 24.5813 155.741 24.7659 156.295 24.7659C156.91 24.7659 157.402 24.5198 157.71 24.0891C158.079 23.6584 158.264 23.1047 158.264 22.4279V18.9209H159.371V24.0276C159.371 24.5198 159.371 25.012 159.433 25.5042H158.387C158.325 25.2581 158.325 24.8889 158.325 24.4582C157.833 25.2581 157.095 25.6887 156.049 25.6887C155.249 25.6887 154.634 25.4426 154.203 24.9504C153.772 24.4582 153.588 23.7199 153.588 22.9201Z" fill="#79858D"/>
<path d="M167 25.4422H166.016C165.954 25.0731 165.954 24.7655 165.954 24.4578C165.462 25.2577 164.662 25.6268 163.616 25.6268C162.693 25.6268 161.955 25.3192 161.463 24.7039C160.97 24.0887 160.724 23.2273 160.724 22.2429C160.724 21.5661 160.847 21.0124 161.094 20.4587C161.34 19.9049 161.709 19.5358 162.139 19.2281C162.57 18.9205 163.124 18.7975 163.739 18.7975C164.6 18.7975 165.339 19.1051 165.893 19.6588V16.4595H167V23.9656C166.938 24.4578 166.938 24.95 167 25.4422ZM165.831 22.6121V20.5817C165.585 20.2741 165.277 20.028 164.97 19.8434C164.662 19.6588 164.293 19.5973 163.862 19.5973C163.247 19.5973 162.755 19.8434 162.386 20.3356C162.016 20.8278 161.832 21.4431 161.832 22.1814C161.832 22.9812 162.016 23.5965 162.386 24.0272C162.755 24.4578 163.247 24.7039 163.862 24.7039C164.477 24.7039 164.97 24.5194 165.339 24.0887C165.646 23.7195 165.831 23.2273 165.831 22.6121Z" fill="#79858D"/>
</svg>
