<svg width="184" height="48" viewBox="0 0 184 48" fill="none" xmlns="http://www.w3.org/2000/svg">
<path d="M54 5V42.6783H92.4893L130.163 5.00424H54V5Z" fill="url(#paint0_linear)"/>
<path d="M102.752 38.8259V41.636H103.176V40.4165H103.653L104.422 41.636H104.899L104.077 40.4165C104.488 40.3656 104.82 40.1268 104.82 39.6212C104.82 39.0673 104.481 38.8259 103.812 38.8259H102.752ZM103.176 39.1971H103.759C104.046 39.1971 104.369 39.2437 104.369 39.5947C104.369 40.0333 104.042 40.0719 103.68 40.0719H103.176V39.1971ZM103.706 37.792C102.361 37.792 101.214 38.8287 101.214 40.2309C101.214 41.6434 102.361 42.6964 103.706 42.6964C105.033 42.6964 106.145 41.6436 106.145 40.2309C106.145 38.8287 105.033 37.792 103.706 37.792ZM103.706 38.1897C104.804 38.1897 105.668 39.0764 105.668 40.2309C105.668 41.4052 104.804 42.2722 103.706 42.2722C102.59 42.2722 101.692 41.4052 101.692 40.2309C101.692 39.0764 102.59 38.1897 103.706 38.1897Z" fill="#1870C5"/>
<path fill-rule="evenodd" clip-rule="evenodd" d="M99.6378 23.0297H97.9869V16.9922H99.6378C101.842 16.9922 103.596 17.7184 103.596 19.9724C103.596 22.3002 101.842 23.0297 99.6378 23.0297ZM81.8696 27.346C80.9958 27.346 80.1764 27.1865 79.468 26.9201L81.8459 19.421H81.8968L84.2254 26.9405C83.5238 27.1916 82.7256 27.346 81.8722 27.346H81.8696ZM99.2 12.0872H91.7034V29.913L85.1543 12.0872H78.663L73.0674 26.9905C72.4761 23.2342 68.5849 21.9337 65.5258 20.9641C63.5093 20.3151 61.3631 19.3616 61.3826 18.3054C61.3996 17.4418 62.5355 16.641 64.7759 16.7606C66.2859 16.837 67.6178 16.9591 70.262 18.2375L72.8664 13.7007C70.4537 12.4681 67.1105 11.6944 64.3755 11.6885H64.3585C61.168 11.6885 58.5093 12.7285 56.8602 14.4311C55.7141 15.6222 55.094 17.1288 55.066 18.8059C55.0236 21.1032 55.8693 22.7337 57.6398 24.0375C59.1379 25.1353 61.0492 25.8419 62.7374 26.3713C64.82 27.0135 66.52 27.5742 66.5005 28.7695C66.4836 29.2047 66.3215 29.6127 66.0068 29.9351C65.4885 30.4738 64.6919 30.6731 63.5899 30.6977C61.4657 30.7401 59.8904 30.4093 57.381 28.9264L55.066 33.5269C57.5677 34.9512 60.5292 35.7843 63.5518 35.7843H63.9428C66.5726 35.7334 68.6968 34.9826 70.3943 33.6185L70.6692 33.3784L69.9193 35.394H76.7271L77.8706 31.9168C79.0668 32.3214 80.4292 32.5488 81.8713 32.5488C83.2787 32.5488 84.6063 32.3367 85.7812 31.9499L86.8807 35.394H97.9886V28.1918H100.412C106.266 28.1918 109.732 25.2125 109.732 20.2124C109.732 14.6474 106.366 12.0948 99.1992 12.0948" fill="white"/>
<defs>
<linearGradient id="paint0_linear" x1="92.055" y1="5.02036" x2="92.055" y2="42.6797" gradientUnits="userSpaceOnUse">
<stop stop-color="#00B8F1"/>
<stop offset="0.219864" stop-color="#06A5E5"/>
<stop offset="0.794312" stop-color="#1870C5"/>
<stop offset="1" stop-color="#1D61BC"/>
</linearGradient>
</defs>
</svg>
