<svg width="184" height="48" viewBox="0 0 184 48" fill="none" xmlns="http://www.w3.org/2000/svg">
<path d="M55.8937 12.8385C55.8937 12.6412 55.6964 12.5755 55.5649 12.5755C55.4334 12.5755 52.7375 12.3782 52.7375 12.3782C52.7375 12.3782 50.8963 10.5371 50.6333 10.3398C50.436 10.1425 50.0415 10.2083 49.91 10.2083C49.91 10.2083 49.5155 10.3398 48.8579 10.5371C48.2004 8.69595 47.1483 7.05208 45.1757 7.05208C45.1099 7.05208 45.0442 7.05208 44.9784 7.05208C44.4524 6.32877 43.7291 6 43.203 6C38.7317 6 36.5618 11.6549 35.9042 14.4824C34.1289 15.0084 32.8795 15.4029 32.748 15.4687C31.7617 15.7975 31.7617 15.7975 31.6302 16.718C31.4987 17.4413 29 37.1678 29 37.1678L48.8579 40.9158L59.6417 38.6144C59.6417 38.5486 55.8937 13.0358 55.8937 12.8385ZM47.8059 10.8659C47.2798 10.9974 46.7538 11.1946 46.162 11.3919C46.162 11.2604 46.162 11.1946 46.162 10.9974C46.162 9.87953 46.0305 9.02472 45.7675 8.30142C46.688 8.43293 47.3456 9.55076 47.8059 10.8659ZM44.4524 8.49868C44.7154 9.22199 44.9126 10.1426 44.9126 11.5234C44.9126 11.5892 44.9126 11.6549 44.9126 11.7207C43.7948 12.0494 42.6112 12.444 41.4276 12.7727C42.0852 10.2083 43.4003 8.95897 44.4524 8.49868ZM43.1373 7.24934C43.3345 7.24934 43.5318 7.31509 43.7291 7.4466C42.2825 8.10415 40.7701 9.81378 40.1126 13.233C39.192 13.5618 38.2057 13.8248 37.3509 14.0878C38.0742 11.4576 39.9153 7.24934 43.1373 7.24934Z" fill="#95BF47"/>
<path d="M55.5656 12.5088C55.4341 12.5088 52.7382 12.3115 52.7382 12.3115C52.7382 12.3115 50.897 10.4704 50.634 10.2731C50.5683 10.2074 50.4368 10.1416 50.371 10.1416L48.8586 40.9148L59.6424 38.6134C59.6424 38.6134 55.8944 13.0348 55.8286 12.8375C55.8286 12.6403 55.6971 12.5745 55.5656 12.5088Z" fill="#5E8E3E"/>
<path d="M45.2414 18.4938L43.9263 22.4391C43.9263 22.4391 42.7427 21.7816 41.2961 21.7816C39.1919 21.7816 39.1262 23.0966 39.1262 23.4254C39.1262 25.2008 43.8605 25.9241 43.8605 30.1324C43.8605 33.4859 41.7564 35.59 38.9289 35.59C35.5097 35.59 33.8 33.4859 33.8 33.4859L34.7206 30.4612C34.7206 30.4612 36.496 32.0393 38.0084 32.0393C38.9947 32.0393 39.3892 31.2502 39.3892 30.6584C39.3892 28.2913 35.5097 28.2255 35.5097 24.346C35.5097 21.124 37.8111 17.9678 42.5454 17.9678C44.3208 17.9678 45.2414 18.4938 45.2414 18.4938Z" fill="white"/>
<path d="M72.2667 25.9238C71.2146 25.332 70.6228 24.8717 70.6228 24.1484C70.6228 23.2936 71.4119 22.7676 72.5955 22.7676C73.9763 22.7676 75.2257 23.3594 75.2257 23.3594L76.212 20.3346C76.212 20.3346 75.2914 19.6113 72.6612 19.6113C68.979 19.6113 66.4145 21.7155 66.4145 24.7402C66.4145 26.4498 67.5981 27.6992 69.242 28.6197C70.5571 29.343 71.0174 29.8691 71.0174 30.6581C71.0174 31.4472 70.3598 32.1047 69.1762 32.1047C67.4009 32.1047 65.6912 31.1842 65.6912 31.1842L64.6392 34.2089C64.6392 34.2089 66.2173 35.261 68.8475 35.261C72.6612 35.261 75.4229 33.3541 75.4229 30.0006C75.2914 28.1594 73.9106 26.8444 72.2667 25.9238Z" fill="black"/>
<path d="M87.3903 19.61C85.4834 19.61 84.0368 20.5305 82.919 21.8456H82.8532L84.4971 13.3633H80.2888L76.1462 34.9966H80.3545L81.7354 27.5663C82.2614 24.7389 83.708 23.0292 85.0889 23.0292C86.0095 23.0292 86.404 23.6868 86.404 24.6073C86.404 25.1991 86.3382 25.9224 86.2067 26.5142L84.6286 34.9966H88.8369L90.4808 26.2512C90.678 25.3306 90.8096 24.2128 90.8096 23.4895C90.8753 20.9908 89.626 19.61 87.3903 19.61Z" fill="black"/>
<path d="M100.476 19.6113C95.3467 19.6113 91.9932 24.2142 91.9932 29.343C91.9932 32.6308 94.0316 35.261 97.8453 35.261C102.843 35.261 106.196 30.7896 106.196 25.5293C106.196 22.4388 104.421 19.6113 100.476 19.6113ZM98.3714 31.9732C96.9248 31.9732 96.333 30.7239 96.333 29.2115C96.333 26.7786 97.5823 22.8333 99.8837 22.8333C101.396 22.8333 101.856 24.1484 101.856 25.3977C101.922 28.0279 100.607 31.9732 98.3714 31.9732Z" fill="black"/>
<path d="M117.045 19.6113C114.218 19.6113 112.574 22.11 112.574 22.11H112.508L112.771 19.8086H109.023C108.826 21.321 108.497 23.6881 108.168 25.4635L105.209 40.9816H109.418L110.601 34.7349H110.733C110.733 34.7349 111.588 35.261 113.232 35.261C118.229 35.261 121.451 30.1321 121.451 25.0032C121.451 22.1758 120.136 19.6113 117.045 19.6113ZM112.969 32.039C111.851 32.039 111.193 31.3814 111.193 31.3814L111.916 27.4361C112.442 24.806 113.823 23.0306 115.27 23.0306C116.585 23.0306 116.98 24.2142 116.98 25.332C116.98 28.1594 115.401 32.039 112.969 32.039Z" fill="black"/>
<path d="M127.501 13.4956C126.12 13.4956 125.068 14.5477 125.068 15.9285C125.068 17.1779 125.857 18.0327 127.041 18.0327H127.106C128.421 18.0327 129.539 17.1121 129.605 15.5998C129.605 14.4162 128.75 13.4956 127.501 13.4956Z" fill="black"/>
<path d="M121.583 34.933H125.791L128.685 19.9409H124.41L121.583 34.933Z" fill="black"/>
<path d="M139.469 19.8743H136.51L136.641 19.151C136.904 17.7044 137.759 16.4551 139.14 16.4551C139.863 16.4551 140.521 16.6523 140.521 16.6523L141.375 13.2988C141.375 13.2988 140.652 12.9043 139.074 12.9043C137.562 12.9043 136.049 13.2988 134.932 14.2851C133.485 15.5345 132.827 17.3099 132.499 19.0852L132.367 19.8085H130.394L129.737 23.0305H131.71L129.474 34.8664H133.682L135.918 23.0305H138.877L139.469 19.8743Z" fill="black"/>
<path d="M149.66 19.9409C149.66 19.9409 147.03 26.6479 145.846 30.2644H145.781C145.715 29.0808 144.729 19.9409 144.729 19.9409H140.257L142.822 33.7494C142.887 34.0782 142.822 34.2755 142.69 34.4727C142.164 35.3933 141.375 36.3796 140.389 37.0372C139.6 37.6289 138.679 37.9577 137.956 38.2207L139.139 41.8372C139.994 41.64 141.77 40.9167 143.282 39.5358C145.189 37.7605 147.03 34.933 148.805 31.1192L154 20.0067H149.66V19.9409Z" fill="black"/>
</svg>
