<svg width="184" height="48" viewBox="0 0 184 48" fill="none" xmlns="http://www.w3.org/2000/svg">
<path d="M61.0031 24.1468C59.6318 23.5652 58.5037 23.0215 58.5037 22.1346C58.5037 21.5123 59.2128 20.9221 60.4083 20.9221C61.4295 20.9372 62.4357 21.1692 63.359 21.6025C63.4348 21.6457 63.5187 21.6731 63.6055 21.683C63.6924 21.6929 63.7803 21.685 63.864 21.66C63.9477 21.6349 64.0253 21.5932 64.0922 21.5373C64.159 21.4814 64.2136 21.4126 64.2527 21.335L64.7303 20.387C64.8098 20.2121 64.8239 20.0148 64.7702 19.8305C64.7165 19.6462 64.5985 19.4869 64.4373 19.3809C63.2138 18.6851 61.8209 18.3371 60.4112 18.3749C57.0708 18.3749 55.7053 20.387 55.7053 22.1026C55.7053 24.3503 57.4634 25.4756 59.5761 26.4236C61.4837 27.2813 62.5268 27.8774 62.5268 28.7905C62.5268 29.561 61.8705 30.1222 60.7072 30.1222C59.0663 30.1222 58.0846 29.561 57.2788 29.1161C57.21 29.0651 57.131 29.029 57.0472 29.0102C56.9633 28.9914 56.8764 28.9903 56.7921 29.007C56.7078 29.0238 56.628 29.0579 56.5579 29.1073C56.4878 29.1566 56.4289 29.2201 56.3851 29.2935L55.7581 30.5671C55.7022 30.6936 55.6956 30.8361 55.7394 30.9671C55.7832 31.0981 55.8744 31.2084 55.9954 31.2766C57.3303 32.1837 58.9106 32.6682 60.5284 32.6665C63.5993 32.6665 65.4482 30.8027 65.4482 28.6713C65.4453 26.1299 63.5378 25.2139 61.0031 24.1468Z" fill="#189EFF"/>
<path d="M42.7185 36.4961C41.3208 35.4493 39.2521 34.6526 37.0662 33.8123C34.4641 32.812 31.4988 31.6751 29.2982 29.9275C26.7899 27.9444 25.568 25.4466 25.568 22.283C25.5467 20.929 25.846 19.5889 26.442 18.3707C27.038 17.1525 27.9139 16.0902 28.9993 15.2694C31.5164 13.3038 35.3315 12.2628 40.0286 12.2628C41.2613 12.2582 42.4929 12.3369 43.7148 12.4983C43.7637 12.5046 43.8134 12.4951 43.8565 12.4714C43.8996 12.4477 43.934 12.4109 43.9546 12.3664C43.9752 12.322 43.981 12.2722 43.971 12.2242C43.9611 12.1763 43.936 12.1327 43.8994 12.1C41.9557 10.3658 39.6161 9.12681 37.0824 8.4898C34.5487 7.8528 31.8968 7.83689 29.3555 8.44347C26.8142 9.05004 24.4597 10.2609 22.4951 11.9716C20.5304 13.6823 19.0145 15.8416 18.0781 18.2632C17.1417 20.6847 16.8128 23.296 17.1199 25.8718C17.427 28.4476 18.3609 30.9106 19.8409 33.0485C21.321 35.1864 23.3028 36.935 25.6155 38.1435C27.9282 39.352 30.5025 39.9841 33.1163 39.9855C36.5715 40.0008 39.939 38.9063 42.7156 36.8654C42.7445 36.8442 42.768 36.8166 42.7843 36.7848C42.8005 36.753 42.8091 36.7179 42.8094 36.6822C42.8097 36.6464 42.8017 36.6109 42.7859 36.5786C42.7702 36.5463 42.7471 36.5181 42.7185 36.4961Z" fill="#189EFF"/>
<path d="M49.1827 22.5212C49.1772 22.4602 49.1478 22.4038 49.1006 22.3642C45.7368 19.5931 43.0146 18.4678 39.7064 18.4678C37.9483 18.4678 36.5887 18.8196 35.6862 19.5117C35.3083 19.7917 35.0028 20.1568 34.795 20.5769C34.5871 20.997 34.4828 21.4601 34.4906 21.928C34.4906 24.6759 37.875 25.9291 41.7956 27.3801C43.8146 28.1274 45.8979 28.9008 47.8201 29.9564C47.854 29.9757 47.8924 29.9857 47.9315 29.9854C47.9585 29.9848 47.9852 29.9799 48.0106 29.9709C48.0419 29.9597 48.0704 29.942 48.0942 29.9189C48.1179 29.8958 48.1364 29.868 48.1483 29.8372C48.8821 27.9748 49.2568 25.9922 49.253 23.9925C49.2501 23.5273 49.2325 23.0301 49.1827 22.5212Z" fill="#189EFF"/>
<path d="M141.862 32.5008C142.048 32.4905 142.223 32.4108 142.353 32.2776C142.482 32.1443 142.556 31.9675 142.559 31.7825V24.8417C142.559 21.2913 142.123 18.5405 137.516 18.5405C135.834 18.5379 134.162 18.808 132.567 19.3402C132.479 19.3609 132.396 19.3997 132.324 19.454C132.252 19.5082 132.192 19.5768 132.149 19.6554C132.105 19.7339 132.078 19.8207 132.07 19.9101C132.062 19.9995 132.072 20.0896 132.101 20.1747L132.394 21.3378C132.488 21.7391 132.766 22.0182 133.203 21.9194C134.503 21.5103 135.854 21.2813 137.217 21.239C139.022 21.239 139.582 22.2596 139.521 24.5131C138.579 24.2418 137.606 24.0961 136.626 24.0798C132.922 24.0798 130.868 26.0571 130.868 28.6828C130.868 31.6488 132.764 32.652 135.471 32.652C137.68 32.652 139.954 32.6258 140.901 32.5647L141.862 32.5008ZM139.482 29.9826C139.046 30.6921 137.49 30.5147 136.154 30.4886C134.659 30.4566 133.912 29.939 133.912 28.6712C133.915 27.1912 135.181 26.3188 136.863 26.3188C137.759 26.3042 138.649 26.4725 139.477 26.8132V29.9826H139.482Z" fill="#189EFF"/>
<path d="M165.362 18.3779C165.685 18.3768 166 18.2808 166.267 18.1021C166.535 17.9235 166.743 17.6701 166.866 17.3741C166.988 17.078 167.02 16.7526 166.956 16.4388C166.893 16.125 166.737 15.8369 166.508 15.611C166.28 15.3851 165.989 15.2314 165.672 15.1694C165.356 15.1073 165.028 15.1398 164.73 15.2625C164.432 15.3853 164.178 15.5929 163.999 15.8591C163.82 16.1253 163.724 16.4382 163.724 16.7583C163.725 16.9714 163.767 17.1823 163.85 17.379C163.932 17.5757 164.053 17.7543 164.205 17.9047C164.357 18.0551 164.538 18.1743 164.736 18.2555C164.935 18.3367 165.147 18.3783 165.362 18.3779ZM165.362 15.3771C165.638 15.3742 165.909 15.4528 166.139 15.6028C166.37 15.7528 166.551 15.9675 166.658 16.2196C166.766 16.4717 166.796 16.7498 166.744 17.0187C166.692 17.2876 166.56 17.5351 166.366 17.7297C166.172 17.9243 165.924 18.0573 165.654 18.1118C165.383 18.1663 165.103 18.1398 164.848 18.0357C164.592 17.9316 164.374 17.7546 164.221 17.5271C164.067 17.2997 163.985 17.0321 163.985 16.7583C163.985 16.3945 164.13 16.0454 164.387 15.7867C164.645 15.5281 164.996 15.3809 165.362 15.3771Z" fill="#189EFF"/>
<path d="M164.806 17.5784H164.958C164.97 17.5784 164.981 17.5739 164.989 17.5657C164.997 17.5575 165.002 17.5464 165.002 17.5348V16.9533H165.359L165.652 17.5639C165.656 17.5736 165.663 17.5817 165.672 17.587C165.681 17.5922 165.692 17.5944 165.702 17.593H165.878C165.886 17.5937 165.894 17.5922 165.902 17.5885C165.909 17.5848 165.915 17.5792 165.92 17.5722C165.924 17.5653 165.926 17.5572 165.926 17.5491C165.926 17.5409 165.923 17.533 165.919 17.5261L165.597 16.9446C165.705 16.9103 165.8 16.8418 165.865 16.7494C165.931 16.6569 165.964 16.5458 165.96 16.4328C165.96 16.3665 165.946 16.3009 165.92 16.2398C165.894 16.1787 165.856 16.1234 165.809 16.0769C165.761 16.0304 165.704 15.9937 165.642 15.969C165.58 15.9442 165.514 15.9319 165.447 15.9327H164.806C164.794 15.9327 164.783 15.9372 164.775 15.9454C164.766 15.9536 164.762 15.9647 164.762 15.9763V17.5261C164.76 17.5325 164.76 17.5391 164.762 17.5455C164.764 17.5518 164.767 17.5577 164.771 17.5628C164.775 17.5678 164.78 17.5718 164.786 17.5745C164.792 17.5772 164.799 17.5786 164.806 17.5784ZM165.008 16.1682H165.427C165.504 16.1682 165.579 16.1988 165.634 16.2533C165.689 16.3079 165.72 16.3818 165.72 16.459C165.72 16.5361 165.689 16.61 165.634 16.6646C165.579 16.7191 165.504 16.7497 165.427 16.7497H165.008V16.1682Z" fill="#189EFF"/>
<path d="M74.605 18.3777C73.1567 18.4072 71.758 18.9066 70.6228 19.7996V13.6933C70.6112 13.5244 70.5383 13.3653 70.4177 13.2456C70.297 13.1259 70.1367 13.0535 69.9665 13.042H68.2787C68.1067 13.0485 67.9435 13.1192 67.8218 13.2399C67.7001 13.3607 67.6288 13.5227 67.6223 13.6933V32.0123C67.6223 32.1856 67.6913 32.3518 67.8142 32.4749C67.9371 32.598 68.1041 32.6679 68.2787 32.6694H69.9196C70.0104 32.6796 70.1024 32.6701 70.1892 32.6416C70.276 32.6132 70.3555 32.5664 70.4224 32.5045C70.4892 32.4426 70.5417 32.3671 70.5763 32.2831C70.6109 32.1991 70.6268 32.1087 70.6228 32.0181V23.1727C70.9941 22.5555 71.5235 22.047 72.157 21.6987C72.7906 21.3503 73.5058 21.1747 74.2299 21.1896C76.0203 21.1896 76.9726 22.5213 76.9726 24.769V32.021C76.9741 32.1933 77.0438 32.3581 77.1665 32.4799C77.2893 32.6017 77.4554 32.6708 77.629 32.6723H79.2992C79.4712 32.6659 79.6344 32.5952 79.7561 32.4744C79.8778 32.3536 79.949 32.1917 79.9555 32.021V24.8301C79.9409 21.1023 78.5109 18.3777 74.605 18.3777Z" fill="#189EFF"/>
<path d="M109.53 24.9728C109.366 20.3203 107.406 18.3779 102.89 18.3779C101.149 18.414 99.4203 18.687 97.7536 19.1892C97.2847 19.3898 96.939 19.6283 96.939 19.9539V37.3511C96.9405 37.5234 97.0101 37.6882 97.1329 37.81C97.2557 37.9318 97.4217 38.0009 97.5953 38.0025H98.9784C99.0698 38.0124 99.1622 38.0029 99.2496 37.9745C99.3369 37.9461 99.4171 37.8995 99.4849 37.8378C99.5526 37.7762 99.6062 37.7008 99.6422 37.6169C99.6781 37.5329 99.6956 37.4423 99.6934 37.3511V32.4254C101.133 32.6273 102.588 32.7051 104.042 32.658C107.23 32.5591 109.369 30.262 109.548 26.383C109.577 25.8018 109.577 25.2195 109.548 24.6384V24.9582L109.53 24.9728ZM106.65 26.3888C106.588 29.0204 105.817 30.1835 103.585 30.3056C102.48 30.3667 99.8721 30.0613 99.8721 30.0613C99.8255 30.0568 99.7818 30.0364 99.7487 30.0035C99.7156 29.9706 99.695 29.9274 99.6904 29.8811V21.5241C99.6903 21.4849 99.7049 21.447 99.7315 21.4179C99.758 21.3889 99.7946 21.3708 99.834 21.3671C100.836 21.127 101.862 20.9953 102.893 20.9746C105.612 20.9746 106.571 21.37 106.658 24.7867C106.664 25.2374 106.664 25.8683 106.65 26.3888Z" fill="#189EFF"/>
<path d="M129.277 18.6745H128.025C127.668 18.6745 127.146 18.6745 126.982 19.0903L124.776 26.9587H124.717L121.022 18.7036C120.97 18.5962 120.886 18.5074 120.781 18.4491C120.676 18.3909 120.556 18.366 120.436 18.3779H120.228C120.113 18.375 119.999 18.4039 119.899 18.4614C119.799 18.5188 119.717 18.6027 119.663 18.7036L115.921 26.9296H115.862L113.597 19.0787C113.557 18.9563 113.479 18.8499 113.373 18.7751C113.268 18.7002 113.141 18.6609 113.011 18.6629H111.221C111.125 18.6484 111.026 18.6624 110.938 18.703C110.85 18.7437 110.776 18.8091 110.725 18.8913C110.674 18.9735 110.649 19.0687 110.652 19.1651C110.655 19.2615 110.687 19.3548 110.743 19.4334L114.769 32.3032C114.81 32.4163 114.888 32.5126 114.991 32.5768C115.093 32.6411 115.214 32.6696 115.335 32.6579H115.514C115.624 32.6683 115.734 32.6434 115.829 32.5869C115.924 32.5304 115.998 32.4452 116.041 32.3439L120.275 23.039H120.334L124.539 32.3439C124.597 32.4464 124.682 32.531 124.785 32.5885C124.889 32.6459 125.006 32.674 125.125 32.6696H125.245C125.373 32.6809 125.502 32.653 125.614 32.5896C125.726 32.5262 125.816 32.4303 125.872 32.3148L129.813 19.445C130.024 19.0292 129.754 18.6745 129.277 18.6745Z" fill="#189EFF"/>
<path d="M151.271 18.5405C151.198 18.5405 151.13 18.5405 151.057 18.5405C150.937 18.5405 150.82 18.5405 150.694 18.5405C149.979 18.5405 149.293 18.5638 148.643 18.5958C147.406 18.6452 146.673 18.7383 146.152 18.7964C146.152 18.7964 145.818 18.8284 145.428 18.8778C145.319 18.8864 145.212 18.9165 145.114 18.9664C145.017 19.0164 144.93 19.0851 144.86 19.1686C144.776 19.2555 144.73 19.3712 144.731 19.4914V32.0151C144.732 32.1874 144.802 32.3522 144.925 32.474C145.047 32.5958 145.213 32.665 145.387 32.6665H146.758C147.324 32.6665 147.714 32.6083 147.714 32.0151V23.5477V21.6053C147.75 21.5044 147.824 21.4218 147.922 21.3756C148.259 21.175 149.067 21.0296 150.694 21.0296H151.072C151.466 21.06 151.854 21.1462 152.223 21.2855C152.298 21.3259 152.382 21.3496 152.467 21.3548C152.552 21.3601 152.638 21.3467 152.717 21.3156C152.797 21.2846 152.869 21.2367 152.928 21.1752C152.986 21.1137 153.031 21.0402 153.058 20.9598L153.773 19.7967C154.222 18.8953 152.584 18.5405 151.271 18.5405Z" fill="#189EFF"/>
<path d="M160.709 18.3779C156.566 18.3779 153.841 21.6666 153.841 25.5078C153.841 29.4129 156.554 32.6667 160.727 32.6667C163.021 32.6667 164.829 31.838 165.825 30.9802C166.241 30.6255 166.118 30.3579 165.884 30.0643L165.078 28.8226C164.841 28.4679 164.571 28.5551 164.272 28.7645C163.316 29.5229 162.127 29.9334 160.902 29.9276C158.488 29.9276 156.818 28.0346 156.8 26.1998H166.312C166.47 26.1956 166.621 26.1341 166.736 26.0269C166.852 25.9198 166.924 25.7745 166.939 25.6183C166.968 25.3827 166.997 24.9088 166.997 24.6703C166.997 21.0124 164.287 18.3779 160.709 18.3779ZM156.952 23.9928C157.16 22.2772 158.473 20.8873 160.65 20.8873C162.678 20.8873 163.991 22.3412 164.049 23.9928H156.952Z" fill="#189EFF"/>
<path d="M94.545 22.6056C94.2624 21.7732 93.8184 21.0037 93.2381 20.3404C92.6838 19.7164 91.9988 19.2202 91.2309 18.8865C89.4382 18.2077 87.4563 18.2077 85.6635 18.8865C84.8961 19.221 84.2112 19.7171 83.6563 20.3404C83.0739 21.0032 82.628 21.7727 82.3436 22.6056C82.0248 23.542 81.8673 24.525 81.8777 25.5133C81.8625 26.5134 82.0201 27.5087 82.3436 28.456C82.6283 29.2831 83.0721 30.0474 83.6505 30.7066C84.2048 31.3306 84.8899 31.8268 85.6577 32.1605C87.4512 32.8352 89.4316 32.8352 91.2251 32.1605C91.9925 31.826 92.6774 31.33 93.2323 30.7066C93.8106 30.0474 94.2545 29.2831 94.5391 28.456C94.8614 27.5124 95.0189 26.5212 95.005 25.525C95.0187 24.533 94.8631 23.546 94.545 22.6056ZM88.3623 30.3141C85.8745 30.3141 84.6204 28.2234 84.6204 25.6442C84.6204 23.065 85.8599 20.9743 88.3623 20.9743C90.8647 20.9743 92.1041 23.065 92.1041 25.6442C92.1041 28.2234 90.8412 30.3141 88.3623 30.3141Z" fill="#189EFF"/>
</svg>
