<svg width="184" height="48" viewBox="0 0 184 48" fill="none" xmlns="http://www.w3.org/2000/svg">
<path d="M63.2661 19.1802H66.3831L71.4729 30.5828H71.5123L76.6021 19.1802H79.7191L72.8933 34.0155H70.1314L63.2661 19.1802Z" fill="#0A0A0A"/>
<path d="M80.7844 18.1934H83.5858V20.8763H80.7844V18.1934ZM80.8633 22.8097H83.5069V34.0545H80.8633V22.8097Z" fill="#0A0A0A"/>
<path d="M85.0852 30.3061L87.5314 29.7143C87.9655 31.332 89.1886 32.1606 91.2797 32.1606C93.0947 32.1606 94.16 31.6871 94.16 30.898C94.16 30.1089 93.3709 29.6749 91.0824 29.3592C87.0185 28.7279 85.5981 27.781 85.5981 25.8477C85.5981 23.796 87.6104 22.415 90.609 22.415C93.4103 22.415 95.8566 23.9143 96.3695 25.9266L93.9627 26.5973C93.5287 25.3742 92.2267 24.6245 90.5695 24.6245C89.0702 24.6245 88.0838 25.098 88.0838 25.8477C88.0838 26.5579 88.7546 26.8735 91.3586 27.3075C95.1858 27.8994 96.6851 28.8857 96.6851 30.9374C96.6851 32.9891 94.5151 34.3701 91.2403 34.3701C87.9655 34.3701 85.5587 32.7918 85.0852 30.3061Z" fill="#0A0A0A"/>
<path d="M98.1448 29.3197V22.8096H100.788V28.9252C100.788 30.898 101.893 32.0027 103.866 32.0027C105.76 32.0027 107.101 30.7401 107.101 28.9252V22.8096H109.745V34.0544H107.22V32.8707H107.18C106.273 33.8177 104.892 34.37 103.235 34.37C100.039 34.37 98.1448 32.4762 98.1448 29.3197Z" fill="#0A0A0A"/>
<path d="M111.678 31.0166C111.678 28.9649 113.02 27.8996 116.61 27.3867C118.82 27.0711 119.451 26.716 119.451 26.0847C119.451 25.2167 118.543 24.7037 117.162 24.7037C115.545 24.7037 114.361 25.5718 114.046 26.9527L111.56 26.4398C111.994 24.1119 114.203 22.5337 117.084 22.5337C120.201 22.5337 122.173 24.1119 122.173 26.6765V34.0942H119.767V32.7921H119.727C119.017 33.7785 117.518 34.4098 115.782 34.4098C113.335 34.3704 111.678 33.0683 111.678 31.0166ZM119.688 29.9513V28.2153H119.648C119.333 28.6888 118.662 28.9649 117.005 29.2411C114.914 29.5962 114.164 30.0302 114.164 30.8588C114.164 31.7268 114.835 32.1214 116.255 32.1214C118.188 32.1214 119.688 31.1745 119.688 29.9513Z" fill="#0A0A0A"/>
<path d="M124.541 18.5483H127.184V34.0149H124.541V18.5483Z" fill="#0A0A0A"/>
<path d="M128.802 30.3061L131.248 29.7143C131.682 31.332 132.905 32.1606 134.996 32.1606C136.811 32.1606 137.877 31.6871 137.877 30.898C137.877 30.1089 137.087 29.6749 134.799 29.3592C130.735 28.7279 129.315 27.781 129.315 25.8477C129.315 23.796 131.287 22.415 134.326 22.415C137.127 22.415 139.573 23.9143 140.086 25.9266L137.679 26.5973C137.245 25.3742 135.943 24.6245 134.326 24.6245C132.826 24.6245 131.84 25.098 131.84 25.8477C131.84 26.5579 132.511 26.8735 135.115 27.3075C138.942 27.8994 140.441 28.8857 140.441 30.9374C140.441 32.9891 138.271 34.3701 134.996 34.3701C131.682 34.3701 129.236 32.7918 128.802 30.3061Z" fill="#0A0A0A"/>
<path d="M141.467 28.4124C141.467 25.0587 144.11 22.4546 147.74 22.4546C151.37 22.4546 154.014 25.0587 154.014 28.4124C154.014 31.7661 151.41 34.3702 147.74 34.3702C144.071 34.3702 141.467 31.8056 141.467 28.4124ZM151.331 28.4124C151.331 26.2818 149.871 24.7825 147.701 24.7825C145.531 24.7825 144.071 26.2818 144.071 28.4124C144.071 30.543 145.531 32.0423 147.701 32.0423C149.871 32.0423 151.331 30.543 151.331 28.4124Z" fill="#0A0A0A"/>
<path d="M156.736 25.059H154.566V22.81H156.736V21.6658C156.736 19.8903 157.959 18.7461 160.05 18.7461H162.655V21.0345H160.327C159.656 21.0345 159.34 21.3502 159.34 21.9814V22.81H162.142V25.059H159.38V34.0548H156.736V25.059Z" fill="#0A0A0A"/>
<path d="M168.257 25.0588V30.6615C168.257 31.3717 168.494 31.6084 169.441 31.6084H171.414V34.0152H169.244C166.64 34.0152 165.653 33.0288 165.653 30.7799V25.0588H163.049V22.8098H165.653V20.0874H168.297V22.8098H171.927V25.0588H168.257Z" fill="#0A0A0A"/>
<path d="M43.6569 9L33.438 19.219L23.219 9L13 19.219L33.438 39.6569L53.8759 19.219L43.6569 9ZM27.0067 29.438L43.6569 12.7877L50.0882 19.219L33.438 35.8692L27.0067 29.438Z" fill="#1CB4A4"/>
</svg>
