<svg width="184" height="48" viewBox="0 0 184 48" fill="none" xmlns="http://www.w3.org/2000/svg">
<path d="M62.7971 31.8357C63.4879 31.4589 64.0531 30.8937 64.5556 30.1401C64.9952 29.3865 65.2464 28.3816 65.2464 27.1884C65.2464 25.9952 64.9952 25.0531 64.5556 24.2367C64.1159 23.4831 63.4879 22.9179 62.7971 22.5411C62.1063 22.1643 61.3527 22.0386 60.599 22.0386C59.7826 22.0386 59.0918 22.2271 58.3382 22.5411C57.6473 22.9179 57.0821 23.4831 56.5797 24.2367C56.1401 24.9903 55.8889 25.9952 55.8889 27.1884C55.8889 28.3816 56.1401 29.3865 56.5797 30.1401C57.0193 30.8937 57.5845 31.4589 58.3382 31.8357C59.0918 32.2126 59.7826 32.401 60.599 32.401C61.3527 32.3382 62.1063 32.1498 62.7971 31.8357ZM64.3671 20.5942C65.4348 21.2222 66.314 22.1014 66.8792 23.2319C67.5072 24.3623 67.7585 25.6812 67.7585 27.1884C67.7585 28.6957 67.4444 29.9517 66.8792 31.1449C66.314 32.3382 65.4348 33.1546 64.3671 33.7826C63.2995 34.4106 62.0435 34.7246 60.599 34.7246C59.1546 34.7246 57.8986 34.4106 56.7681 33.7826C55.7005 33.1546 54.8213 32.2754 54.256 31.1449C53.6908 29.9517 53.3768 28.6957 53.3768 27.1884C53.3768 25.6812 53.6908 24.4251 54.256 23.2319C54.8213 22.1014 55.7005 21.2222 56.7681 20.5942C57.8358 19.9662 59.1546 19.6522 60.599 19.6522C62.0435 19.6522 63.2995 19.9662 64.3671 20.5942ZM80.0676 20.029C80.3188 20.2802 80.3816 20.5942 80.3816 20.971C80.3816 21.3478 80.256 21.6618 80.0048 21.8502C79.8164 22.0386 79.5024 22.1643 79.1256 22.1643H79C78.1208 22.1643 77.3043 22.4155 76.5507 22.8551C75.7971 23.2947 75.2319 23.9227 74.7295 24.7391V33.4686C74.7295 33.8454 74.6039 34.1594 74.3527 34.4106C74.1015 34.599 73.7874 34.7246 73.4734 34.7246C73.1594 34.7246 72.8454 34.599 72.5942 34.3478C72.343 34.0966 72.2174 33.7826 72.2174 33.4058V21.0966C72.2174 20.7198 72.343 20.4058 72.5942 20.1546C72.8454 19.9034 73.1594 19.7778 73.4734 19.7778C73.8502 19.7778 74.1015 19.9034 74.3527 20.1546C74.6039 20.4058 74.7295 20.7198 74.7295 21.0966V22.3527C75.9855 20.5314 77.43 19.6522 79.0628 19.6522H79.1884C79.5024 19.6522 79.8164 19.7778 80.0676 20.029ZM97.3382 33.4686C97.3382 33.8454 97.2126 34.1594 96.9614 34.3478C96.7101 34.599 96.3961 34.6618 96.0193 34.6618C95.8309 34.6618 95.6425 34.599 95.4541 34.5362C95.2657 34.4734 95.0773 34.285 94.9517 34.1594L89.9903 27.628L87.4783 29.8261V33.4686C87.4783 33.8454 87.3527 34.0966 87.1014 34.3478C86.8502 34.599 86.5362 34.7246 86.1594 34.7246C85.7826 34.7246 85.4686 34.599 85.2174 34.3478C84.9034 34.0966 84.7778 33.8454 84.7778 33.4686V15.3188C84.7778 14.942 84.9034 14.6908 85.1546 14.3768C85.4058 14.1256 85.7198 14 86.0966 14C86.4734 14 86.7874 14.1256 87.0386 14.3768C87.2899 14.628 87.4155 14.942 87.4155 15.3188V26.7488L94.3237 20.5942C94.6377 20.343 94.8889 20.2174 95.2029 20.2174C95.6425 20.2174 95.9565 20.343 96.1449 20.5942C96.3333 20.8454 96.4589 21.0966 96.4589 21.4734C96.4589 21.7874 96.2705 22.1014 95.9565 22.4155L91.7488 25.9952L97.0242 32.715C97.2126 32.9662 97.3382 33.2174 97.3382 33.4686ZM107.889 31.8357C108.643 31.4589 109.333 30.8937 109.836 30.3285V27.942H106.758C103.87 27.942 102.488 28.6957 102.488 30.2029C102.488 30.8937 102.739 31.4589 103.179 31.8357C103.618 32.2754 104.435 32.4638 105.502 32.4638C106.256 32.4638 107.072 32.2754 107.889 31.8357ZM109.773 20.4686C110.652 20.971 111.343 21.6618 111.783 22.5411C112.222 23.3575 112.411 24.2995 112.411 25.3043V33.343C112.411 33.7198 112.285 34.0338 112.034 34.285C111.783 34.5362 111.469 34.6618 111.092 34.6618C110.778 34.6618 110.401 34.5362 110.213 34.285C109.961 34.0338 109.836 33.7198 109.836 33.343V32.5894C108.454 34.0338 106.633 34.7246 104.498 34.7246C103.681 34.7246 102.865 34.5362 102.174 34.2222C101.483 33.9082 100.918 33.4058 100.478 32.715C100.039 32.087 99.8502 31.3333 99.8502 30.4541C99.8502 29.0725 100.415 27.942 101.483 27.1256C102.614 26.3092 104.246 25.8696 106.382 25.8696H109.836V25.6184C109.836 24.3623 109.522 23.4831 108.894 22.9179C108.266 22.3527 107.324 22.1014 106.005 22.1014C105.314 22.1014 104.623 22.1643 104.058 22.2899C103.493 22.4155 102.865 22.6039 102.174 22.7923C102.048 22.8551 101.923 22.8551 101.797 22.8551C101.546 22.8551 101.295 22.7295 101.043 22.5411C100.855 22.3527 100.729 22.0386 100.729 21.7874C100.729 21.285 100.981 20.9082 101.483 20.7198C103.116 20.029 104.749 19.715 106.382 19.715C107.763 19.6522 108.894 19.9034 109.773 20.4686ZM125.285 20.029C125.536 20.2802 125.599 20.5942 125.599 20.971C125.599 21.3478 125.473 21.6618 125.222 21.8502C124.971 22.1014 124.657 22.2271 124.343 22.2271H124.217C123.338 22.2271 122.522 22.4783 121.768 22.9179C121.014 23.3575 120.449 23.9855 119.947 24.7391V33.4686C119.947 33.8454 119.821 34.1594 119.57 34.4106C119.319 34.6618 119.005 34.7874 118.691 34.7874C118.377 34.7874 118.063 34.6618 117.812 34.4106C117.56 34.1594 117.435 33.8454 117.435 33.4686V21.0966C117.435 20.7198 117.56 20.4058 117.812 20.1546C118.063 19.9034 118.377 19.7778 118.691 19.7778C119.068 19.7778 119.319 19.9034 119.57 20.1546C119.821 20.4058 119.947 20.7198 119.947 21.0966V22.3527C121.203 20.5314 122.647 19.6522 124.28 19.6522H124.406C124.72 19.6522 125.034 19.7778 125.285 20.029ZM133.072 22.2899C132.444 22.6039 131.879 23.0435 131.502 23.6715C131.063 24.2995 130.812 25.0531 130.749 25.9952H139.29C139.227 25.0531 138.976 24.2995 138.536 23.6715C138.097 23.0435 137.594 22.6039 136.903 22.2899C136.275 21.9758 135.647 21.8502 134.957 21.8502C134.391 21.8502 133.7 21.9758 133.072 22.2899ZM141.111 31.6473C141.362 31.8357 141.488 32.1498 141.488 32.4638C141.488 32.9034 141.237 33.2174 140.734 33.5314C140.043 33.9082 139.29 34.2222 138.473 34.4734C137.72 34.6618 136.778 34.7874 135.647 34.7874C133.261 34.7874 131.44 34.1594 130.121 32.8406C128.802 31.5217 128.111 29.7005 128.111 27.2512C128.111 25.9324 128.362 24.6763 128.865 23.5459C129.367 22.4155 130.184 21.4734 131.188 20.7826C132.256 20.0918 133.512 19.715 135.019 19.715C136.464 19.715 137.657 20.029 138.725 20.7198C139.729 21.3478 140.546 22.2271 141.111 23.3575C141.676 24.4251 141.928 25.6184 141.928 26.9372C141.928 27.314 141.802 27.628 141.551 27.8164C141.3 28.0676 140.986 28.1932 140.609 28.1932H130.812C130.937 29.5121 131.44 30.5797 132.319 31.2705C133.198 32.0242 134.328 32.401 135.899 32.401C136.715 32.401 137.406 32.3382 138.034 32.1498C138.662 32.0242 139.227 31.7729 139.792 31.5217C139.918 31.4589 140.106 31.3961 140.295 31.3961C140.609 31.3333 140.86 31.3961 141.111 31.6473ZM152.478 31.8357C153.232 31.4589 153.923 30.8937 154.425 30.3285V27.942H151.348C148.459 27.942 147.077 28.6957 147.077 30.2029C147.077 30.8937 147.329 31.4589 147.768 31.8357C148.208 32.2754 149.024 32.4638 150.092 32.4638C150.845 32.4638 151.662 32.2754 152.478 31.8357ZM154.362 20.4686C155.242 20.971 155.932 21.6618 156.372 22.5411C156.812 23.3575 157 24.2995 157 25.3043V33.343C157 33.7198 156.874 34.0338 156.623 34.285C156.372 34.5362 156.058 34.6618 155.681 34.6618C155.367 34.6618 154.99 34.5362 154.802 34.285C154.551 34.0338 154.425 33.7198 154.425 33.343V32.5894C153.043 34.0338 151.222 34.7246 149.087 34.7246C148.271 34.7246 147.454 34.5362 146.763 34.2222C146.072 33.9082 145.507 33.4058 145.068 32.715C144.628 32.087 144.44 31.3333 144.44 30.4541C144.44 29.0725 145.005 27.942 146.072 27.1256C147.203 26.3092 148.836 25.8696 150.971 25.8696H154.425V25.6184C154.425 24.3623 154.111 23.4831 153.483 22.9179C152.855 22.3527 151.913 22.1014 150.594 22.1014C149.903 22.1014 149.213 22.1643 148.647 22.2899C148.082 22.4155 147.454 22.6039 146.763 22.7923C146.638 22.8551 146.512 22.8551 146.386 22.8551C146.135 22.8551 145.884 22.7295 145.633 22.5411C145.444 22.3527 145.319 22.0386 145.319 21.7874C145.319 21.285 145.57 20.9082 146.072 20.7198C147.705 20.029 149.338 19.715 150.971 19.715C152.353 19.6522 153.483 19.9034 154.362 20.4686ZM40.4396 20.657C40.6908 20.9082 40.8164 21.2222 40.8164 21.5362C40.8164 21.7246 40.7536 21.913 40.6908 22.1014L35.6667 33.657C35.5411 33.971 35.2899 34.2222 35.0386 34.4106C34.7874 34.599 34.4106 34.7246 34.0966 34.7246H33.7826C33.4058 34.7246 33.0918 34.599 32.8406 34.4106C32.5266 34.2222 32.3382 33.971 32.2126 33.657L27.1256 22.1643C27.0628 21.913 27 21.7246 27 21.5362C27 21.1594 27.1256 20.9082 27.3768 20.657C27.628 20.4058 27.942 20.2802 28.3188 20.2802C28.57 20.2802 28.8213 20.343 29.0097 20.4686C29.2609 20.5942 29.3865 20.7826 29.5121 20.971L33.9082 31.7729L38.3043 20.971C38.43 20.7826 38.5556 20.5942 38.8068 20.4686C38.9952 20.343 39.2464 20.2802 39.4976 20.2802C39.8744 20.2802 40.1884 20.4058 40.4396 20.657ZM51.744 20.657C51.4928 20.4058 51.1787 20.2802 50.8019 20.2802C50.5507 20.2802 50.2995 20.343 50.1111 20.4686C49.8599 20.5942 49.7343 20.7826 49.6087 20.971L45.1498 31.7729L42.2609 24.8019L40.8792 27.942L43.3913 33.7198C43.5169 34.0338 43.7681 34.285 44.0193 34.4734C44.3333 34.6618 44.6473 34.7874 44.9614 34.7874H45.2754C45.6522 34.7874 45.9662 34.6618 46.2174 34.4734C46.5314 34.285 46.7198 34.0338 46.8454 33.7198L51.9952 22.1643C52.1208 21.913 52.1208 21.7246 52.1208 21.599C52.1208 21.2222 51.9952 20.9082 51.744 20.657Z" fill="black"/>
</svg>
